<svg xmlns="http://www.w3.org/2000/svg" width="2500pt" height="484pt" viewBox="0 0 2500 484"><path d="M378.926 190.855V0h99.058v480.129h-99.058V284.594H99.086v195.535H0V0h99.086v190.855ZM1079.867 0h112.473L972.07 300v180.156h-99.058V300L651.398 0h117.82l155.325 208.926Zm672.82 0c45.512 0 69.626 24.094 69.626 69.64v120.544c0 26.082-21.426 47.543-48.227 47.543 26.8 0 48.226 21.43 48.226 47.539v125.218c0 45.551-24.113 69.645-69.624 69.645h-410.403V0ZM1440.7 194.191h283.227V87.711h-283.227Zm0 198.227h283.227v-111.86h-283.227ZM2486.426 87.711h-374.25v104.465h364.195v87.738h-364.195v112.504h374.25v87.71h-473.309V0h473.309Zm0 0" style="stroke:none;fill-rule:evenodd;fill:#000;fill-opacity:1"/></svg>