<?xml version="1.0" encoding="utf-8"?>
<!-- Generator: Adobe Illustrator 16.0.0, SVG Export Plug-In . SVG Version: 6.00 Build 0)  -->
<!DOCTYPE svg PUBLIC "-//W3C//DTD SVG 1.1//EN" "http://www.w3.org/Graphics/SVG/1.1/DTD/svg11.dtd">
<svg version="1.1" id="Layer_1" xmlns="http://www.w3.org/2000/svg" xmlns:xlink="http://www.w3.org/1999/xlink" x="0px" y="0px"
	 width="354px" height="65px" viewBox="0 0 354 65" enable-background="new 0 0 354 65" xml:space="preserve">
<g>
	<path fill="#0B499E" d="M144.298,1.575h15.995l12.735,32.135L186.39,1.575h16.152l9.559,60.11h-16.23l-4.624-34.598h-0.175
		l-14.933,34.598h-6.457l-14.39-34.598h-0.162l-5.159,34.598h-16.156L144.298,1.575z"/>
	<path fill="#0B499E" d="M265.563,61.685h17.323l-23.659-60.11h-17.745l-23.92,60.11h17.239l15.422-41.546h0.175L265.563,61.685z"/>
	<polygon fill="#0B499E" points="41.433,1.575 41.433,24.522 18.126,24.522 18.126,1.575 1.758,1.575 1.758,61.685 18.126,61.685 
		18.126,37.019 41.433,37.019 41.433,61.685 57.792,61.685 57.792,1.575 	"/>
	<path fill="#0B499E" d="M125.106,42.126c0.058-1.252,0.017-40.551,0.017-40.551h-0.017l0,0h-16.14v34.252l-0.033,0.24
		c0.021,7.803-0.552,14.566-10.985,14.566S86.917,43.871,86.9,36.068L86.842,1.575h-0.1l0,0H70.582v40.93l0,0
		c0.278,5.7,1.638,10.449,6.668,15.137c5.226,4.943,13.437,6.697,20.718,6.697c7.295,0,15.489-1.754,20.706-6.697
		c4.997-4.688,6.154-9.437,6.416-15.137h0.017V42.126z"/>
	<path fill="#0B499E" d="M352.547,1.314h-21.153l-12.104,15.841l-0.029-0.042c-0.162,0.195-0.323,0.396-0.485,0.589l-11.96-16.389
		H287.12l21.515,27.959l0,0l0.423,0.574c-0.303,0.398-0.609,0.788-0.912,1.19c-8.791,11.63-16.016,22.848-21.796,32.22l0.008,0.004
		c-0.054,0.107-0.091,0.286-0.091,0.351c-0.013,0.196,0.203,0.388,0.485,0.396c0.17,0.005,0.397-0.117,0.526-0.281l0.008,0.004
		c7.884-9.016,16.514-18.639,24.94-29.609l0.68,0.912c-7.46,10.189-13.714,19.931-18.831,28.225l0.004,0.004
		c-0.046,0.107-0.083,0.286-0.087,0.351c-0.004,0.196,0.203,0.388,0.485,0.396c0.17,0.005,0.394-0.117,0.526-0.281l0.009,0.004
		c6.643-7.604,13.825-15.643,20.967-24.551l0.688,0.934c-5.744,8.176-10.695,15.933-14.884,22.717l0.009,0.005
		c-0.05,0.104-0.088,0.282-0.092,0.353c-0.004,0.19,0.212,0.381,0.489,0.39c0.17,0.009,0.398-0.116,0.531-0.278l0.004,0.002
		c5.309-6.077,10.965-12.437,16.667-19.291l12.345,17.834h20.109l-22.775-30.12L352.547,1.314z"/>
</g>
</svg>
