<svg xmlns="http://www.w3.org/2000/svg" width="1093.8337pt" height="316.60062pt" viewBox="0 0 1093.8337 316.60062"><path fill="#00448d" d="M1038.666 498.73h53.909l2.84 102.22-39.727-2.839 5.678-82.341-28.375 85.18-56.751 28.398z" style="stroke-width:2.83847" transform="translate(-810.271 -355.339)"/><path fill="none" d="m251.095 160.429-5.675 82.344 39.725 2.84-2.837-102.221h-53.913l-62.424 130.615 56.75-28.394z"/><path fill="#00448d" d="M1052.854 669.098v-31.234h-34.05l-11.349 31.234h-48.237l17.024-36.913 119.174-31.234 2.834 68.147z" style="stroke-width:2.83847" transform="translate(-810.271 -355.339)"/><path fill="none" d="m287.984 313.761-2.837-68.147-119.173 31.234-17.025 36.913h48.237l11.35-31.234h34.05v31.234z"/><path fill="#00448d" d="M1177.706 654.902h-2.838c-8.512 11.358-22.7 17.037-36.887 17.037-17.025 0-31.212-8.518-25.537-34.073l22.7-99.382h45.399l-17.025 85.184c-2.837 11.358 0 14.197 5.675 14.197s11.35-5.678 11.35-14.197l19.862-85.184h45.4L1220.266 669.1h-45.399zM1279.855 498.731h48.237l-8.512 39.753h17.025l-5.675 31.234h-17.025l-14.187 56.789c0 8.518 0 11.358 8.512 11.358h5.675l-5.675 31.234c-2.837 0-17.025 2.84-22.7 2.84-28.374 0-39.724-2.84-34.049-31.235l14.187-70.986h-14.187l8.512-31.234h14.188zM1379.168 603.792c5.675-31.234 8.513-39.752 17.025-39.752 8.512 0 8.512 8.518 2.838 39.752-5.675 31.234-8.513 36.913-17.025 36.913-8.512 0-8.512-5.679-2.838-36.913m25.538-68.147c-53.912 0-65.262 31.234-73.774 68.147-5.675 36.913-8.513 68.148 42.562 68.148 53.911 0 65.26-31.235 73.773-68.148 5.675-36.913 8.513-68.147-42.562-68.147M1577.792 538.485h48.236l-8.512 90.863h2.837l28.375-90.863h48.237L1637.378 669.1h-56.749z" style="stroke-width:2.83846" transform="translate(-810.271 -355.339)"/><path fill="none" d="M767.523 183.146h48.237l-8.513 90.863h2.838l28.374-90.863h48.237L827.11 313.76h-56.75z"/><path fill="#00448d" d="M1753.717 586.755h-19.862l2.838-8.519c2.837-11.357 5.675-17.036 14.187-17.036 5.675 0 8.512 5.679 5.675 17.036zm-25.537 25.555h65.262v-2.84c8.512-42.591 17.025-73.826-36.887-73.826-51.074 0-65.261 31.235-73.774 68.148-5.675 36.913-8.512 68.147 42.562 68.147 17.025 0 31.212-2.84 42.562-11.358 11.35-8.519 17.025-19.876 22.7-36.913h-42.562c-2.838 11.358-5.675 19.876-17.025 19.876-8.512 0-5.675-8.518-5.675-14.197zM1824.656 538.485h45.4l-5.675 19.876c8.512-14.197 19.862-22.716 34.049-22.716h5.675l-8.512 42.592H1881.405c-17.024 0-22.7 8.519-25.537 22.716l-14.187 68.147h-45.4zM1481.325 501.57h96.473l-5.675 34.074h-56.749l-5.675 28.395h51.075l-5.675 34.074h-51.074l-8.513 34.073h56.75l-5.676 34.074h-102.148Z" style="stroke-width:2.83846" transform="translate(-810.271 -355.339)"/><path fill="none" d="M671.055 146.232h96.474l-5.675 34.073h-56.75L699.43 208.7h51.074l-5.675 34.074h-51.074l-8.513 34.073h56.75l-5.675 34.074H634.168z"/><path fill="#00448d" d="M876.95 393.672H834.39v-36.913h-22.7v93.702h22.7v-36.913h42.562v36.913h19.862V356.76H876.95z" style="stroke-width:2.83846" transform="translate(-810.271 -355.339)"/><path fill="none" d="M66.68 38.333H24.12V1.42h-22.7v93.702h22.7V58.21H66.68v36.913h19.862V1.42H66.68Z"/><path fill="#00448d" d="M1325.272 362.437c-2.838 5.68-2.838 11.358-2.838 14.198v73.826h19.862v-28.395h42.562v28.395h22.7v-93.703h-65.262c-5.675 0-11.35 0-17.025 5.68m22.7 14.197h36.887v25.555h-42.562v-25.556zM1180.562 356.758h-65.261v93.702h19.862v-73.826H1180.562v73.826h19.862v-73.826c0-2.84 0-8.518-5.674-14.197-2.838-5.679-8.513-5.679-14.188-5.679M1075.58 427.745v2.84c0 2.84-2.838 2.84-5.676 2.84h-36.887v-76.666h-22.7v93.702h65.262c5.675 0 11.35 0 17.025-5.679 2.837-2.84 5.675-8.518 5.675-14.197v-73.826h-22.7zM1305.414 376.634c0-2.84-2.838-8.518-5.675-14.197-5.675-5.679-11.35-5.679-17.025-5.679h-62.424v93.702h62.424c5.675 0 11.35 0 17.025-5.679 2.837-2.839 5.675-8.518 5.675-14.197zm-22.7 51.11v2.84c0 2.84-2.837 2.84-5.675 2.84h-36.887v-56.79h42.562v5.68zM953.571 399.35l-22.7-42.592h-25.536l39.724 59.629v34.074h19.862v-34.074l39.724-59.629h-25.537z" style="stroke-width:2.83846" transform="translate(-810.271 -355.339)"/><path fill="none" d="m143.301 44.011-22.7-42.592H95.066l39.724 59.629v34.074h19.862V61.048l39.724-59.629h-25.537z"/><path fill="#00448d" d="M1427.43 450.462h22.7v-93.703h-22.7z" style="stroke-width:2.83846" transform="translate(-810.271 -355.339)"/><path fill="none" d="M617.16 95.123h22.7V1.42h-22.7z"/></svg>