<svg width="16" height="17" viewBox="0 0 16 17" fill="none" xmlns="http://www.w3.org/2000/svg">
<path d="M7.52176 2.95537C7.67541 2.64408 7.75224 2.48843 7.85654 2.4387C7.94729 2.39543 8.05271 2.39543 8.14346 2.4387C8.24776 2.48843 8.32459 2.64408 8.47824 2.95537L9.93603 5.90868C9.98139 6.00058 10.0041 6.04653 10.0372 6.08221C10.0666 6.1138 10.1018 6.13939 10.1409 6.15757C10.185 6.17811 10.2357 6.18552 10.3371 6.20034L13.598 6.67696C13.9414 6.72715 14.1131 6.75225 14.1925 6.83612C14.2616 6.90909 14.2942 7.00936 14.281 7.10901C14.2659 7.22354 14.1416 7.34461 13.893 7.58675L11.5343 9.8841C11.4608 9.95572 11.424 9.99153 11.4003 10.0341C11.3793 10.0719 11.3658 10.1133 11.3606 10.1562C11.3547 10.2046 11.3634 10.2552 11.3808 10.3563L11.9373 13.6012C11.996 13.9435 12.0253 14.1146 11.9702 14.2162C11.9222 14.3045 11.8369 14.3665 11.738 14.3848C11.6244 14.4059 11.4707 14.3251 11.1634 14.1634L8.24824 12.6304C8.15741 12.5826 8.112 12.5587 8.06415 12.5493C8.02179 12.541 7.97821 12.541 7.93585 12.5493C7.888 12.5587 7.84259 12.5826 7.75176 12.6304L4.8366 14.1634C4.52927 14.3251 4.3756 14.4059 4.26197 14.3848C4.16311 14.3665 4.0778 14.3045 4.02981 14.2162C3.97466 14.1146 4.00401 13.9435 4.06271 13.6012L4.61925 10.3563C4.6366 10.2552 4.64527 10.2046 4.6394 10.1562C4.63421 10.1133 4.62073 10.0719 4.59973 10.0341C4.576 9.99153 4.53924 9.95572 4.46571 9.8841L2.10703 7.58674C1.85843 7.34461 1.73413 7.22354 1.71901 7.10901C1.70585 7.00936 1.73836 6.90909 1.80749 6.83612C1.88695 6.75225 2.05864 6.72715 2.40202 6.67696L5.66286 6.20034C5.76427 6.18552 5.81498 6.17811 5.85913 6.15757C5.89823 6.13939 5.93343 6.1138 5.96278 6.08221C5.99593 6.04653 6.01861 6.00058 6.06397 5.90868L7.52176 2.95537Z" fill="#4A76FF"/>
</svg>
