<svg width="96" height="28" viewBox="0 0 96 28" fill="none" xmlns="http://www.w3.org/2000/svg">
<path d="M59.7805 10.4609C60.8916 11.3425 62.3463 11.7833 64.1443 11.7833C65.5181 11.7833 66.5788 11.4692 67.3263 10.8409C68.0738 10.2126 68.4476 9.37154 68.4476 8.31765C68.4476 7.59817 68.2607 7.01043 67.8869 6.55442C67.5233 6.09841 67.0637 5.7488 66.5081 5.5056C65.9626 5.25226 65.2757 5.00905 64.4474 4.77598C63.7403 4.57331 63.2049 4.37571 62.8412 4.18317C62.4877 3.9805 62.3109 3.70183 62.3109 3.34715C62.3109 3.00261 62.4776 2.72901 62.8109 2.52634C63.1443 2.32366 63.5887 2.22233 64.1443 2.22233C65.2555 2.22233 66.2404 2.4706 67.099 2.96714L68.0082 1.18871C66.9172 0.509761 65.6292 0.170288 64.1443 0.170288C62.8412 0.170288 61.826 0.464161 61.0987 1.05191C60.3714 1.63965 60.0078 2.4402 60.0078 3.45355C60.0078 4.17304 60.1896 4.76078 60.5532 5.21679C60.927 5.66266 61.3816 6.00721 61.9169 6.25041C62.4523 6.49362 63.119 6.72669 63.917 6.94962C64.6039 7.14216 65.1444 7.3499 65.5383 7.57284C65.9424 7.78564 66.1444 8.08458 66.1444 8.46966C66.1444 8.85473 65.9677 9.1638 65.6141 9.39687C65.2706 9.61981 64.7807 9.73128 64.1443 9.73128C62.7402 9.73128 61.6291 9.37661 60.8108 8.66726L59.7805 10.4609Z" fill="#27272D"/>
<path d="M53.7227 2.43398V11.5998H56.041V2.43398H59.2836V0.351542H50.4801V2.43398H53.7227Z" fill="#27272D"/>
<path d="M41.8884 11.5998V0.351542H49.7979V2.43398H44.1612V4.85083H49.4039V6.88767H44.1612V9.51733H50.01V11.5998H41.8884Z" fill="#27272D"/>
<path d="M33.4237 0.351542V11.5998H40.8028V9.51733H35.6965V0.351542H33.4237Z" fill="#27272D"/>
<path fill-rule="evenodd" clip-rule="evenodd" d="M92.9695 24.2713C93.2321 24.7273 93.5099 25.0668 93.8029 25.2897C94.0958 25.5127 94.4948 25.6748 94.9999 25.7761V27.6914C94.3534 27.6711 93.8079 27.59 93.3635 27.4482C92.9291 27.3063 92.5402 27.0783 92.1967 26.7642C91.8533 26.45 91.5149 26.0092 91.1815 25.4417L90.4694 24.2409H88.1056V27.6002H85.8328V16.3519H90.6815C91.4997 16.3519 92.2271 16.504 92.8634 16.808C93.5099 17.112 94.015 17.5629 94.3787 18.1608C94.7423 18.7485 94.9242 19.4629 94.9242 20.304C94.9242 21.0742 94.707 21.7531 94.2726 22.3409C93.8382 22.9286 93.2877 23.3644 92.621 23.6481L92.9695 24.2713ZM88.1056 18.404V22.2649H90.5906C91.1866 22.2649 91.6614 22.0977 92.0149 21.7633C92.3685 21.4289 92.5452 20.9424 92.5452 20.304C92.5452 19.696 92.3634 19.2299 91.9998 18.9056C91.6462 18.5712 91.1916 18.404 90.6361 18.404H88.1056Z" fill="#27272D"/>
<path d="M75.9631 16.3519V27.6002H84.0847V25.5177H78.2359V22.8881H83.4786V20.8512H78.2359V18.4344H83.8726V16.3519H75.9631Z" fill="#27272D"/>
<path d="M66.0934 27.6002V16.3519H74.0029V18.4344H68.3663V20.8512H73.6089V22.8881H68.3663V25.5177H74.215V27.6002H66.0934Z" fill="#27272D"/>
<path fill-rule="evenodd" clip-rule="evenodd" d="M63.1284 25.2897C62.8355 25.0668 62.5577 24.7273 62.295 24.2713L61.9465 23.6481C62.6132 23.3644 63.1638 22.9286 63.5981 22.3409C64.0325 21.7531 64.2497 21.0742 64.2497 20.304C64.2497 19.4629 64.0679 18.7485 63.7042 18.1608C63.3406 17.5629 62.8355 17.112 62.189 16.808C61.5526 16.504 60.8253 16.3519 60.0071 16.3519H55.1583V27.6002H57.4312V24.2409H59.7949L60.5071 25.4417C60.8404 26.0092 61.1788 26.45 61.5223 26.7642C61.8657 27.0783 62.2546 27.3063 62.689 27.4482C63.1335 27.59 63.679 27.6711 64.3255 27.6914V25.7761C63.8204 25.6748 63.4214 25.5127 63.1284 25.2897ZM57.4312 22.2649V18.404H59.9616C60.5172 18.404 60.9718 18.5712 61.3253 18.9056C61.689 19.2299 61.8708 19.696 61.8708 20.304C61.8708 20.9424 61.694 21.4289 61.3405 21.7633C60.9869 22.0977 60.5121 22.2649 59.9161 22.2649H57.4312Z" fill="#27272D"/>
<path fill-rule="evenodd" clip-rule="evenodd" d="M49.7099 16.2879L54.0478 27.6006H51.5167L50.671 25.124H46.3172L45.4732 27.6006H42.9343L47.2722 16.2879H49.7099ZM49.9294 22.9521L48.5289 18.8504H48.455L47.0573 22.9521H49.9294Z" fill="#27272D"/>
<path d="M35.2722 27.0541C36.1106 27.5405 37.1005 27.7837 38.242 27.7837C39.131 27.7837 39.9492 27.6419 40.6967 27.3581C41.4442 27.0744 42.0856 26.664 42.621 26.1269L41.3634 24.3941C40.9694 24.8095 40.5149 25.1338 39.9997 25.3669C39.4845 25.5898 38.9643 25.7013 38.439 25.7013C37.3985 25.7013 36.5753 25.3618 35.9692 24.6829C35.3732 24.0039 35.0752 23.102 35.0752 21.9772C35.0752 20.8423 35.3782 19.9404 35.9843 19.2716C36.5904 18.5926 37.4086 18.2531 38.439 18.2531C38.9441 18.2531 39.4188 18.3291 39.8633 18.4811C40.3078 18.623 40.7522 18.8561 41.1967 19.1804L42.1968 17.4171C41.7321 17.032 41.1513 16.728 40.4542 16.5051C39.7673 16.2822 39.0804 16.1707 38.3935 16.1707C37.2218 16.1707 36.2066 16.4139 35.3479 16.9003C34.4893 17.3766 33.8327 18.0555 33.3781 18.9371C32.9236 19.8086 32.6963 20.822 32.6963 21.9772C32.6963 23.1223 32.9185 24.1357 33.363 25.0173C33.8075 25.8888 34.4439 26.5677 35.2722 27.0541Z" fill="#27272D"/>
<path d="M25.7742 26.0306C23.9061 27.1143 20.4906 24.8985 17.1854 20.7984C18.2321 24.1071 18.195 26.7473 16.8632 27.5198C15.3621 28.3906 12.6381 26.6437 10.0204 23.4006C10.4293 25.4638 10.129 27.1335 9.06252 27.7522C7.2927 28.7788 4.08297 26.5221 1.89338 22.7118C-0.296202 18.9015 -0.636488 14.9803 1.13333 13.9537C2.19981 13.3351 3.78914 13.9087 5.36305 15.296C3.87634 11.3967 3.7326 8.1529 5.23374 7.28214C6.56551 6.50962 8.85989 7.79745 11.1886 10.3626C9.30707 5.43685 9.10501 1.35715 10.9731 0.273547C13.5014 -1.19305 18.8643 3.38396 22.9516 10.4966C27.0388 17.6092 28.3026 24.564 25.7742 26.0306Z" fill="url(#paint0_linear_7788_25196)"/>
<defs>
<linearGradient id="paint0_linear_7788_25196" x1="28.2978" y1="-7.4001" x2="7.61498" y2="24.0721" gradientUnits="userSpaceOnUse">
<stop stop-color="#907CFF"/>
<stop offset="1" stop-color="#4D55F5"/>
</linearGradient>
</defs>
</svg>
