<svg width="100" height="100" viewBox="0 0 100 100" fill="none" xmlns="http://www.w3.org/2000/svg">
<g id="Frame 1437260881">
<g clip-path="url(#clip0_12717_29805)">
<rect width="100" height="100" rx="50" fill="white"/>
<path id="Vector" d="M25.9613 39.0111C25.9613 39.0111 25.5524 47.1098 21.5966 50.1398C17.6408 53.1698 14.6352 65.1006 19.9944 69.8461C25.3535 74.5917 22.138 79.4821 20.7458 83.2585C19.3535 87.0349 12.7126 94.8105 15.8176 99.0102C18.9225 103.21 49 102.998 49 102.998V40.4148L25.9613 39V39.0111Z" fill="#26201E"/>
<path id="Vector_2" d="M74.0388 39.0111C74.0388 39.0111 74.4476 47.1098 78.4034 50.1398C82.3592 53.1698 85.3648 65.1006 80.0056 69.8461C74.6465 74.5917 77.862 79.4821 79.2543 83.2585C80.6465 87.0349 87.2874 94.8105 84.1824 99.0102C81.0775 103.21 51 102.998 51 102.998V40.4148L74.0388 39V39.0111Z" fill="#26201E"/>
<path id="Vector_3" d="M38.2972 92.6915C38.5778 89.1798 38.8473 85.668 39.1392 82.1563C39.2402 80.8702 39.0381 79.8301 37.9716 78.8571C35.1087 76.2177 32.7734 73.1646 31.269 69.5187C31.0782 69.0489 30.5617 68.568 30.0789 68.3667C25.139 66.3872 22.8599 62.417 22.0516 57.5073C21.8495 56.2659 22.2649 54.7337 22.8824 53.5929C23.8704 51.7253 25.7116 51.8483 27.508 52.3627C28.1928 53.5706 28.8776 54.7896 29.5625 55.9975C29.7197 55.9527 29.8769 55.908 30.034 55.8744C30.4607 53.4364 30.921 50.9983 31.2915 48.5602C31.662 46.0439 31.9426 43.5164 32.2682 41C38.5442 41.0112 44.8201 41 51.096 41.0559C56.4513 41.1007 61.7954 41.2349 67.1508 41.3243C67.3304 46.6478 68.5429 51.7141 70.7659 56.5343C70.9118 56.5566 71.0465 56.5678 71.1925 56.5902L72.5847 52.9107C72.8878 52.8213 73.2246 52.7877 73.5053 52.6423C76.6601 51.0654 78.928 53.0449 78.9953 55.8297C79.0964 60.5716 77.5695 64.9109 73.6625 67.9865C72.8653 68.6128 71.6191 68.747 70.5413 68.9036C69.8228 69.0042 69.3737 69.1049 69.1379 69.8765C67.9142 73.7909 65.6575 77.023 62.4915 79.6512C62.1435 79.942 61.9414 80.6018 61.9414 81.0827C61.9189 84.7622 61.9414 88.4528 61.9638 92.1323C62.1435 95.7111 62.1098 99.3235 62.5813 102.858C62.9181 105.374 61.5709 106.336 59.797 107.275C59.4265 107.465 59.0336 107.611 58.6406 107.745C54.5427 109.165 50.3438 109.288 46.1 108.572C43.7086 108.17 41.3958 107.51 39.476 105.967C38.2186 104.949 37.4776 103.73 37.6909 101.918C38.0389 98.8649 38.1288 95.7782 38.3196 92.7138L38.2972 92.6915Z" fill="#FFD2C7"/>
<path id="Vector_4" d="M25 41.2434C25 39.3523 25.1835 37.4721 25.5733 35.614C25.7338 34.8113 25.9173 34.0307 26.1695 33.261C28.7036 25.3007 33.8977 19.6712 41.8667 16.6476C56.7268 11.0072 72.894 20.4409 74.9006 35.9218C75.1184 37.6371 74.912 40.1219 74.9006 41.8701C74.4993 42.134 74.0979 41.9141 73.6966 41.9141C71.7589 41.9141 69.8211 41.7932 67.8833 41.7162C62.5286 41.6282 57.1854 41.4963 51.8307 41.4523C45.5588 41.3973 39.2753 41.4083 33.0033 41.3973C30.6757 41.3424 27.3276 41.2984 25 41.2434ZM59.3754 36.0868C57.4377 31.0401 52.9659 28.5222 47.9093 29.4788C44.4465 30.1385 41.3163 33.5029 41.4539 36.5376C46.9347 36.5376 52.4155 36.5375 57.8963 36.5156C58.355 36.5156 58.8251 36.2517 59.3754 36.0758V36.0868Z" fill="currentColor"/>
<path id="Vector_5" d="M67.0128 42.011C69.2271 42.0879 71.4287 42.2198 73.6302 42.2088C74.091 42.2088 74.5774 42.2088 74.9998 42.1648C74.9486 44.3187 75.1149 45.7692 74.8077 47.8901C74.539 49.7473 73.7582 51.5604 73.195 53.3846C72.6702 54.5934 72.1326 55.7912 71.6078 57C71.4415 56.978 71.2879 56.967 71.1215 56.9451C68.5872 52.2088 67.2048 47.2308 67 42L67.0128 42.011Z" fill="#261F1C"/>
<path id="Vector_6" d="M25.0192 41.0206C27.6838 41.0722 30.3483 41.1135 33 41.1651C32.6396 43.4864 32.3178 45.8283 31.8801 48.1393C31.4553 50.3987 30.9276 52.6374 30.4384 54.8865C30.2582 54.9278 30.078 54.9691 29.8978 55C29.1126 53.8858 28.3274 52.7612 27.5422 51.647C25.547 48.2734 24.9291 44.6934 25.0063 41L25.0192 41.0206Z" fill="#261F1C"/>
<path id="Vector_7" d="M60 36.4893C59.4166 36.671 58.9184 36.9617 58.4323 36.9738C52.623 37.0102 46.8138 36.9981 41.0046 36.9981C40.8588 33.6668 44.1766 29.9479 47.8468 29.221C53.2064 28.1671 57.934 30.9291 60 36.5014V36.4893Z" fill="#251F1C"/>
<path id="Vector_8" d="M41 80C41 80 46.4394 84.0894 52.6139 83.428C58.7884 82.7667 62 80 62 80C62 80 61.5929 88.2339 53.4168 88.9724C46.7447 89.5786 41 80 41 80Z" fill="#F4B1A4"/>
<path id="Vector_9" d="M54 45.6389L66 46C66 46 64.2426 43.0283 60.221 43.0005C55.6173 42.9588 54 45.6528 54 45.6528V45.6389Z" fill="#26201E"/>
<path id="Vector_10" d="M47 45.6389L35 46C35 46 36.7574 43.0283 40.779 43.0005C45.3827 42.9588 47 45.6528 47 45.6528V45.6389Z" fill="#26201E"/>
<path id="Vector_11" d="M40.5054 50H40.4946C39.6691 50 39 50.7704 39 51.7207V53.2793C39 54.2296 39.6691 55 40.4946 55H40.5054C41.3309 55 42 54.2296 42 53.2793V51.7207C42 50.7704 41.3309 50 40.5054 50Z" fill="#26201E"/>
<path id="Vector_12" d="M59.5054 50H59.4946C58.6692 50 58 50.7704 58 51.7207V53.2793C58 54.2296 58.6692 55 59.4946 55H59.5054C60.3309 55 61 54.2296 61 53.2793V51.7207C61 50.7704 60.3309 50 59.5054 50Z" fill="#26201E"/>
<path id="Vector_13" d="M47.5501 57L47.0119 60.4851C46.9068 61.1929 47.5107 61.8577 48.377 61.9435C49.3484 62.04 50.6611 62.0507 52 61.6647" stroke="#26201E" stroke-width="0.75" stroke-miterlimit="10" stroke-linecap="round"/>
<path id="Vector_14" d="M54 69.7557C54 68.2338 52.6569 67 51 67C49.3431 67 48 68.2338 48 69.7557V72.2443C48 73.7662 49.3431 75 51 75C52.6569 75 54 73.7662 54 72.2443V69.7557Z" fill="#26201E"/>
</g>
<rect x="0.5" y="0.5" width="99" height="99" rx="49.5" stroke="currentColor"/>
</g>
<defs>
<clipPath id="clip0_12717_29805">
<rect width="100" height="100" rx="50" fill="white"/>
</clipPath>
</defs>
</svg>
