<svg width="100" height="100" viewBox="0 0 100 100" fill="none" xmlns="http://www.w3.org/2000/svg">
<g id="Frame 1437260883">
<g clip-path="url(#clip0_12717_29790)">
<rect width="100" height="100" rx="50" fill="white"/>
<path id="Vector" d="M66.0128 42.0125C68.2271 42.0996 70.4287 42.2491 72.6302 42.2366C73.091 42.2366 73.5774 42.2366 73.9998 42.1868C73.9486 44.6278 74.1149 46.2718 73.8077 48.6755C73.5389 50.7802 72.7582 52.8352 72.195 54.9026C71.6702 56.2725 71.1326 57.63 70.6078 59C70.4414 58.9751 70.2879 58.9626 70.1215 58.9377C67.5872 53.57 66.2048 47.9282 66 42L66.0128 42.0125Z" fill="#261F1C"/>
<path id="Vector_2" d="M36.869 96.7321C37.1595 93.0139 37.4384 89.2956 37.7406 85.5773C37.8452 84.2155 37.636 83.1142 36.532 82.084C33.5686 79.2894 31.1515 76.0566 29.5943 72.1962C29.3967 71.6989 28.8621 71.1897 28.3624 70.9765C23.2492 68.8806 20.8901 64.6768 20.0534 59.4783C19.8442 58.1639 20.2742 56.5416 20.9134 55.3337C21.936 53.3562 23.8419 53.4864 25.7012 54.0311C26.4101 55.31 27.119 56.6008 27.8279 57.8797C27.9906 57.8323 28.1532 57.7849 28.3159 57.7494C28.7575 55.1679 29.234 52.5864 29.6175 50.005C30.001 47.3406 30.2915 44.6644 30.6285 42C37.1247 42.0118 43.6208 42 50.1169 42.0592C55.6602 42.1066 61.1918 42.2487 66.735 42.3434C66.9209 47.98 68.176 53.3443 70.477 58.4481C70.628 58.4717 70.7675 58.4836 70.9185 58.5073L72.3596 54.6114C72.6733 54.5166 73.022 54.4811 73.3125 54.3272C76.578 52.6575 78.9254 54.7535 78.9951 57.702C79.0997 62.7229 77.5193 67.3175 73.4752 70.5739C72.6501 71.2371 71.3601 71.3792 70.2445 71.5449C69.5008 71.6515 69.0359 71.7581 68.7919 72.5752C67.5252 76.7197 65.1894 80.142 61.9123 82.9248C61.552 83.2327 61.3428 83.9313 61.3428 84.4405C61.3196 88.3364 61.3428 92.2441 61.3661 96.1401C61.552 99.9294 61.5172 103.754 62.0052 107.496C62.3539 110.161 60.9593 111.179 59.1232 112.174C58.7397 112.375 58.333 112.529 57.9263 112.671C53.6846 114.175 49.3384 114.305 44.9456 113.547C42.4703 113.121 40.0764 112.422 38.0892 110.788C36.7876 109.711 36.0207 108.42 36.2415 106.502C36.6017 103.269 36.6947 100 36.8922 96.7558L36.869 96.7321Z" fill="#FFD2C7"/>
<path id="Vector_3" d="M68 50H37.1841L35.8078 42.1094L34.8674 50H28.1583L27 41L65.8898 41.5686L67.7018 41.6934L68 50Z" fill="#26201E"/>
<path id="Vector_4" d="M23 42.2118C23 40.2506 23.1908 38.3009 23.5962 36.3739C23.7632 35.5415 23.954 34.732 24.2163 33.9338C26.8517 25.6786 32.2536 19.8407 40.5413 16.7051C55.9958 10.8557 72.4132 19.9418 74.5 35.9961C74.7266 37.7749 74.264 41.1379 74.2521 42.9508C74 42.9961 73.4174 42.9964 73 42.9964C70.9847 42.9964 68.0153 42.5763 66 42.4964C60.4311 42.4052 56.4728 42.4741 50.904 42.4285C44.3811 42.3715 37.8464 42.3829 31.3235 42.3715C28.9028 42.3144 25.4207 42.2688 23 42.2118ZM58.7385 36.8642C56.7233 31.6306 52.0726 29.0195 46.8138 30.0115C43.2125 30.6956 39.957 34.1847 40.1001 37.3317C45.8002 37.3317 51.5002 37.3317 57.2002 37.3089C57.6772 37.3089 58.1662 37.0352 58.7385 36.8528V36.8642Z" fill="currentColor"/>
<path id="Vector_5" d="M23.0192 42.0236C25.6838 42.0825 28.3483 42.1297 31 42.1887C30.6396 44.8416 30.3178 47.5181 29.8801 50.1592C29.4553 52.7413 28.9275 55.2999 28.4384 57.8703C28.2582 57.9175 28.078 57.9646 27.8978 58C27.1126 56.7266 26.3274 55.4414 25.5422 54.168C23.547 50.3125 22.9291 46.2211 23.0063 42L23.0192 42.0236Z" fill="#261F1C"/>
<path id="Vector_6" d="M60 37.4254C59.3552 37.6299 58.8045 37.9569 58.2672 37.9706C51.8465 38.0114 45.4258 37.9978 39.0051 37.9978C38.8439 34.2501 42.511 30.0663 46.5676 29.2487C52.4913 28.063 57.7165 31.1702 60 37.4391V37.4254Z" fill="#251F1C"/>
<path id="Vector_7" d="M40 84C40 84 45.4394 88.0894 51.6139 87.428C57.7884 86.7667 61 84 61 84C61 84 60.5929 92.2339 52.4168 92.9724C45.7448 93.5786 40 84 40 84Z" fill="#F4B1A4"/>
<path id="Vector_8" d="M53 47.6414L65 48C65 48 63.2426 44.0417 59.221 44.0003C54.6172 43.959 53 47.6414 53 47.6414Z" fill="#26201E"/>
<path id="Vector_9" d="M39.5054 53H39.4946C38.6691 53 38 53.6163 38 54.3766V55.6234C38 56.3837 38.6691 57 39.4946 57H39.5054C40.3308 57 41 56.3837 41 55.6234V54.3766C41 53.6163 40.3308 53 39.5054 53Z" fill="#26201E"/>
<path id="Vector_10" d="M58.5054 53H58.4946C57.6691 53 57 53.6163 57 54.3766V55.6234C57 56.3837 57.6691 57 58.4946 57H58.5054C59.3309 57 60 56.3837 60 55.6234V54.3766C60 53.6163 59.3309 53 58.5054 53Z" fill="#26201E"/>
<path id="Vector_11" d="M46.5501 59L46.0119 62.4851C45.9068 63.1929 46.5107 63.8577 47.377 63.9435C48.3484 64.04 49.6611 64.0507 51 63.6647" stroke="#26201E" stroke-width="0.75" stroke-miterlimit="10" stroke-linecap="round"/>
<path id="Vector_12" d="M45 74C45 74 51.874 70.1977 59 71.1544" stroke="#26201E" stroke-width="0.75" stroke-miterlimit="10" stroke-linecap="round"/>
</g>
<rect x="0.5" y="0.5" width="99" height="99" rx="49.5" stroke="currentColor"/>
</g>
<defs>
<clipPath id="clip0_12717_29790">
<rect width="100" height="100" rx="50" fill="white"/>
</clipPath>
</defs>
</svg>
