<svg width="240" height="180" viewBox="0 0 240 180" fill="none" xmlns="http://www.w3.org/2000/svg">
<g clip-path="url(#clip0_25753_13549)">
<rect width="240" height="180" rx="6.85714" fill="#FF8165"/>
<rect width="240" height="180" rx="6.85714" fill="#161C2F"/>
<g clip-path="url(#clip1_25753_13549)">
<rect width="164.512" height="115.535" transform="translate(68.6514 13.8145)" fill="#161C2F"/>
<g filter="url(#filter0_f_25753_13549)">
<path d="M82.6751 98.1627L73.0979 65.3199L88.745 61.1162L98.0887 93.7255L82.6751 98.1627Z" fill="url(#paint0_linear_25753_13549)" fill-opacity="0.7"/>
</g>
<g filter="url(#filter1_f_25753_13549)">
<path d="M225.486 95.7862L229.69 68.9293L214.043 64.7256L210.072 91.349L225.486 95.7862Z" fill="url(#paint1_linear_25753_13549)" fill-opacity="0.7"/>
</g>
<g filter="url(#filter2_f_25753_13549)">
<path d="M210.071 92.0505L218.245 50.7142L201.759 46.1113L193.75 87.2426L210.071 92.0505Z" fill="url(#paint2_linear_25753_13549)" fill-opacity="0.7"/>
</g>
<g filter="url(#filter3_f_25753_13549)">
<path d="M194.191 87.3798L207.388 30.0918L181.194 20.5664L168.231 77.6209L194.191 87.3798Z" fill="url(#paint3_linear_25753_13549)" fill-opacity="0.7"/>
</g>
<g filter="url(#filter4_f_25753_13549)">
<path d="M97.5069 92.5164L84.3501 42.6978L99.9972 38.4941L112.92 88.0792L97.5069 92.5164Z" fill="url(#paint4_linear_25753_13549)" fill-opacity="0.7"/>
</g>
<g filter="url(#filter5_f_25753_13549)">
<path d="M112.354 88.7569L98.0049 31.4133L114.28 26.791L128.101 84.1092L112.354 88.7569Z" fill="url(#paint5_linear_25753_13549)" fill-opacity="0.7"/>
</g>
<g filter="url(#filter6_f_25753_13549)">
<path d="M127.633 84.5767L113.045 22.6711L148.94 16.2363L161.063 77.5003L127.633 84.5767Z" fill="url(#paint6_linear_25753_13549)" fill-opacity="0.7"/>
</g>
<path d="M157.76 123.421L230.624 96.5641L153.089 76.0127L80.4583 96.5641L157.76 123.421Z" fill="url(#paint7_linear_25753_13549)"/>
<rect x="140.706" y="21.1963" width="62.8136" height="58.9362" rx="2.32643" transform="rotate(13.6155 140.706 21.1963)" fill="#FFFAF7"/>
<path d="M139.658 54.8638L141.207 48.4692L142.708 48.8329L142.084 51.4119L144.654 52.0344L145.278 49.4554L146.78 49.8191L145.231 56.2136L143.73 55.85L144.356 53.2621L141.786 52.6396L141.159 55.2274L139.658 54.8638ZM146.004 56.4008L147.552 50.0062L150.167 50.6395C151.606 50.9882 152.293 52.0147 151.976 53.3218C151.763 54.2006 151.209 54.7348 150.429 54.8827L151.17 57.6522L149.519 57.2522L148.877 54.7685L148.038 54.5652L147.505 56.7644L146.004 56.4008ZM148.329 53.364L149.124 53.5566C149.83 53.7277 150.276 53.5459 150.422 52.9453C150.567 52.3447 150.26 51.9524 149.554 51.7813L148.759 51.5888L148.329 53.364ZM156.126 51.7649L152.213 58.924L150.941 58.616L154.854 51.4569L156.126 51.7649ZM163.154 52.8781L161.751 58.6721L160.479 58.364L161.882 52.5701L163.154 52.8781ZM161.674 59.8783L161.428 60.894L155.731 59.5142L156.398 56.7585L157.688 57.0709L157.266 58.8108L161.674 59.8783ZM158.572 52.3013C159.826 52.605 160.606 53.7102 160.317 54.9025C160.022 56.1214 158.825 56.7385 157.571 56.4347C156.316 56.131 155.526 55.0325 155.83 53.8158C156.11 52.6213 157.318 51.9975 158.572 52.3013ZM158.304 53.4053C157.732 53.2574 157.214 53.5059 157.066 54.1153C156.912 54.7512 157.264 55.1917 157.838 55.3307C158.386 55.4633 158.9 55.2325 159.054 54.5966C159.201 53.9872 158.854 53.5291 158.304 53.4053ZM166.612 55.5296C166.257 56.9958 166.416 58.5772 167.6 59.5559L166.597 60.3788C165.848 59.7627 165.473 58.8816 165.377 57.8861C164.783 58.7941 163.993 59.449 162.981 59.6714L162.454 58.4498C164.041 58.1516 164.972 56.7407 165.34 55.2216L165.612 54.0999L166.883 54.4079L166.612 55.5296ZM170.394 54.6224L169.649 57.696L170.798 57.9741L170.539 59.0428L169.391 58.7647L168.43 62.7304L167.158 62.4223L169.122 54.3143L170.394 54.6224ZM180.215 57.0011L179.034 61.8765L177.762 61.5685L178.943 56.6931L180.215 57.0011ZM178.953 62.2122L178.251 65.1091L176.979 64.8011L177.437 62.911L173.109 61.8627L173.353 60.8559L178.953 62.2122ZM178.085 56.9529L177.839 57.9686L176.294 57.5942C176.129 58.4848 176.441 59.5327 177.644 60.2403L176.753 61.0623C175.931 60.5779 175.456 59.8739 175.267 59.0939C174.708 59.7582 173.926 60.2091 172.912 60.2816L172.496 59.1429C173.918 59.0432 174.716 58.2031 174.995 57.2797L173.397 56.8925L173.643 55.8768L178.085 56.9529ZM187.34 63.4675L187.094 64.4832L183.993 63.7323L183.364 66.329L182.101 66.0231L182.73 63.4264L179.683 62.6883L179.929 61.6726L187.34 63.4675ZM187.475 59.1618L186.675 62.4651L180.97 61.0831L181.77 57.7798L187.475 59.1618ZM182.771 59.0884L182.457 60.3867L185.645 61.159L185.96 59.8606L182.771 59.0884Z" fill="#F55A00"/>
<path d="M146.774 28.2529L147.132 30.4432L148.915 31.7638L146.725 32.1219L145.404 33.9056L145.046 31.7153L143.263 30.3947L145.453 30.0366L146.774 28.2529Z" fill="#F55A00"/>
<path d="M136.829 69.3301L137.187 71.5203L138.97 72.841L136.78 73.1991L135.459 74.9827L135.101 72.7925L133.318 71.4718L135.508 71.1137L136.829 69.3301Z" fill="#F55A00"/>
<path d="M193.129 39.4785L193.487 41.6688L195.271 42.9894L193.081 43.3475L191.76 45.1311L191.402 42.9409L189.618 41.6203L191.808 41.2621L193.129 39.4785Z" fill="#F55A00"/>
<path d="M183.179 80.5547L183.537 82.7449L185.321 84.0656L183.131 84.4237L181.81 86.2073L181.452 84.0171L179.668 82.6964L181.858 82.3383L183.179 80.5547Z" fill="#F55A00"/>
<path d="M143.494 73.8369L175.004 81.4689" stroke="#F55A00" stroke-width="0.469866" stroke-dasharray="2.82 2.82"/>
<path d="M153.448 32.7344L184.957 40.3664" stroke="#F55A00" stroke-width="0.469866" stroke-dasharray="2.82 2.82"/>
<path d="M130.978 79.4805L183.736 92.2591" stroke="#F55A00" stroke-width="0.465286"/>
<g clip-path="url(#clip2_25753_13549)">
<rect x="126.832" y="78.4766" width="62.8136" height="27.9171" rx="2.32643" transform="rotate(13.6155 126.832 78.4766)" fill="#FFFAF7"/>
<path d="M128.45 91.5915L129.353 87.8613L129.92 87.9986L129.528 89.6164L131.383 90.0656L131.775 88.4479L132.342 88.5851L131.438 92.3153L130.871 92.178L131.266 90.5499L129.411 90.1007L129.017 91.7288L128.45 91.5915ZM132.085 92.4718L132.988 88.7417L134.317 89.0637C135.183 89.2733 135.493 89.8612 135.327 90.5464C135.205 91.0488 134.886 91.3751 134.393 91.4327L134.851 93.142L134.207 92.986L133.791 91.396L133.754 91.3873L132.992 91.2026L132.651 92.6091L132.085 92.4718ZM133.11 90.7131L133.816 90.8841C134.368 91.0176 134.653 90.8304 134.755 90.4079C134.858 89.9854 134.695 89.6678 134.143 89.5342L133.437 89.3633L133.11 90.7131ZM136.123 89.501L136.813 89.6682L137.293 92.8444L137.339 92.8556L139.219 90.251L139.91 90.4182L139.006 94.1484L138.465 94.0173L139.118 91.3228L139.082 91.314L137.338 93.7389L136.89 93.6303L136.445 90.67L136.414 90.6625L135.76 93.3622L135.219 93.2312L136.123 89.501ZM140.87 93.2417C140.551 93.1643 140.352 92.8379 140.43 92.5134C140.508 92.1939 140.834 91.9948 141.153 92.0722C141.478 92.1508 141.677 92.4772 141.6 92.7966C141.521 93.1212 141.195 93.3203 140.87 93.2417ZM142.149 94.9095L143.052 91.1794L143.619 91.3167L143.227 92.9344L145.082 93.3837L145.474 91.7659L146.04 91.9032L145.137 95.6333L144.57 95.4961L144.965 93.868L143.11 93.4187L142.716 95.0468L142.149 94.9095ZM145.783 95.7899L146.687 92.0598L148.016 92.3817C148.882 92.5914 149.192 93.1792 149.026 93.8645C148.904 94.3668 148.585 94.6932 148.091 94.7508L148.55 96.46L147.906 96.304L147.489 94.7141L147.453 94.7053L146.691 94.5206L146.35 95.9272L145.783 95.7899ZM146.809 94.0312L147.515 94.2021C148.067 94.3357 148.352 94.1484 148.454 93.726C148.557 93.3035 148.393 92.9858 147.842 92.8523L147.136 92.6813L146.809 94.0312ZM150.129 96.8425L148.918 96.5492L149.822 92.8191L151.069 93.1211C152.166 93.3869 152.656 94.2473 152.375 95.4065C152.093 96.5709 151.263 97.117 150.129 96.8425ZM149.605 96.1919L150.218 96.3404C151.063 96.545 151.6 96.1515 151.813 95.2705C152.026 94.3946 151.727 93.8041 150.913 93.6069L150.269 93.4509L149.605 96.1919ZM153.662 96.3401C153.343 96.2628 153.144 95.9364 153.222 95.6118C153.3 95.2923 153.626 95.0932 153.946 95.1706C154.27 95.2492 154.469 95.5756 154.392 95.895C154.313 96.2196 153.987 96.4187 153.662 96.3401ZM159.085 98.4391L158.988 98.841L154.763 97.8177L154.861 97.4158L156.726 97.8676L156.99 96.7753L157.48 96.8939L157.215 97.9861L159.085 98.4391ZM157.898 95.1898C157.727 95.8956 158.373 96.7176 159.221 97.0701L158.931 97.4091C158.221 97.0871 157.638 96.4877 157.486 95.8099C157.036 96.35 156.245 96.6303 155.48 96.5948L155.372 96.1597C156.268 96.2239 157.217 95.7721 157.388 95.0662L157.398 95.025L155.899 94.6619L155.996 94.26L159.505 95.1098L159.407 95.5117L157.908 95.1485L157.898 95.1898ZM161.695 96.0985C161.551 96.691 161.857 97.365 162.513 97.764L162.169 98.0841C161.68 97.7804 161.367 97.3172 161.273 96.8036C160.943 97.2554 160.437 97.5529 159.839 97.6126L159.678 97.1753C160.454 97.1015 161.043 96.606 161.2 95.9787L161.232 95.8499L160.196 95.5991L160.292 95.2024L162.837 95.8188L162.741 96.2155L161.726 95.9697L161.695 96.0985ZM164.013 95.7819L163.338 98.5692L162.849 98.4506L163.524 95.6633L164.013 95.7819ZM163.282 98.801L162.895 100.398L162.406 100.28L162.697 99.0792L160.059 98.4403L160.155 98.0436L163.282 98.801ZM168.283 99.2869L168.187 99.6837L166.353 99.2394L166.136 100.136L165.652 100.019L165.869 99.1221L163.962 98.6604L164.058 98.2637L168.283 99.2869ZM168.25 97.0371L167.853 98.6755L164.715 97.9155L165.112 96.2772L168.25 97.0371ZM165.498 96.7796L165.288 97.6452L167.462 98.1718L167.672 97.3062L165.498 96.7796ZM167.381 100.961L167.285 101.358L164.055 100.575L164.377 99.2462L164.866 99.3647L164.64 100.297L167.381 100.961ZM172.689 97.8833L172.221 99.8154L172.917 99.9838L172.817 100.396L172.121 100.228L171.571 102.5L171.082 102.381L172.2 97.7648L172.689 97.8833ZM168.202 100.353C168.565 100.441 168.988 100.543 169.432 100.634L169.546 100.165C169.043 99.9673 168.779 99.5706 168.893 99.1236C169.013 98.602 169.545 98.3654 170.205 98.5251C170.859 98.6836 171.229 99.1386 171.108 99.6602C170.994 100.107 170.572 100.34 170.034 100.289L169.927 100.732C170.34 100.816 170.76 100.882 171.157 100.921L171.101 101.289C170.057 101.228 168.974 100.971 168.181 100.778L168.202 100.353ZM171.738 98.231L171.643 98.6226L168.876 97.9525L168.971 97.5609L170.11 97.8367L170.24 97.3009L170.729 97.4194L170.599 97.9552L171.738 98.231ZM170.112 98.9064C169.726 98.8128 169.422 98.941 169.351 99.2347C169.28 99.5284 169.494 99.7711 169.88 99.8647C170.267 99.9583 170.568 99.8404 170.639 99.5467C170.71 99.253 170.499 99 170.112 98.9064ZM173.933 101.25C173.613 101.172 173.414 100.846 173.493 100.522C173.57 100.202 173.897 100.003 174.216 100.08C174.541 100.159 174.74 100.485 174.662 100.805C174.584 101.129 174.257 101.328 173.933 101.25ZM126.802 98.3948L127.705 94.6646L129.035 94.9866C129.9 95.1962 130.202 95.8202 130.035 96.5106C129.869 97.1958 129.314 97.6177 128.448 97.4081L127.686 97.2234L127.369 98.532L126.802 98.3948ZM127.803 96.7391L128.509 96.9101C129.06 97.0436 129.362 96.7894 129.463 96.372C129.565 95.9496 129.412 95.5907 128.861 95.4572L128.155 95.2862L127.803 96.7391ZM131.015 99.4753C130.191 99.2756 129.823 98.5866 130.034 97.7159C130.243 96.8555 130.901 96.3878 131.679 96.5762C132.318 96.731 132.825 97.2737 132.58 98.2835L132.533 98.4793L130.544 97.9976C130.431 98.532 130.669 98.9115 131.13 99.0232C131.445 99.0993 131.678 99.014 131.812 98.8664L132.368 99.0012C132.135 99.4247 131.629 99.6238 131.015 99.4753ZM130.649 97.5867L132.092 97.9361C132.195 97.5085 131.997 97.1332 131.575 97.0309C131.134 96.9242 130.766 97.1949 130.649 97.5867ZM133.836 100.159C133.043 99.9663 132.667 99.2645 132.877 98.3989C133.088 97.5282 133.743 97.076 134.536 97.2682C135.324 97.4591 135.7 98.1609 135.489 99.0316C135.279 99.8972 134.624 100.349 133.836 100.159ZM133.947 99.7C134.452 99.8223 134.803 99.4327 134.933 98.8969C135.062 98.361 134.931 97.8438 134.426 97.7215C133.911 97.5968 133.558 97.9966 133.428 98.5325C133.298 99.0683 133.432 99.5752 133.947 99.7ZM135.324 101.572L136.256 97.7229L136.792 97.8526L136.682 98.306L136.728 98.3173C136.869 98.1658 137.135 97.8977 137.65 98.0225C138.325 98.186 138.697 98.8377 138.476 99.7496C138.257 100.651 137.636 101.079 136.956 100.914C136.446 100.791 136.319 100.433 136.266 100.224L136.236 100.216L135.875 101.705L135.324 101.572ZM136.459 99.2501C136.316 99.8375 136.477 100.302 136.945 100.415C137.43 100.533 137.786 100.166 137.922 99.6045C138.055 99.0533 137.908 98.5812 137.418 98.4626C136.944 98.3478 136.6 98.6679 136.459 99.2501ZM140.024 97.6482L139.12 101.378L138.569 101.245L139.472 97.5147L140.024 97.6482ZM140.866 101.861C140.041 101.662 139.674 100.972 139.885 100.102C140.093 99.2414 140.752 98.7737 141.53 98.9621C142.169 99.1168 142.675 99.6596 142.431 100.669L142.383 100.865L140.395 100.383C140.282 100.918 140.52 101.297 140.981 101.409C141.295 101.485 141.528 101.4 141.662 101.252L142.219 101.387C141.985 101.811 141.479 102.01 140.866 101.861ZM140.5 99.9725L141.942 100.322C142.046 99.8943 141.848 99.5191 141.425 99.4167C140.985 99.31 140.616 99.5808 140.5 99.9725ZM144.053 102.573L143.45 102.427L145.693 99.0215L146.347 99.1799L146.789 103.236L146.186 103.09L146.084 102.023L144.631 101.671L144.053 102.573ZM144.911 101.237L146.034 101.509L145.868 99.7839L145.843 99.7777L144.911 101.237ZM148.053 101.786L147.652 103.445L147.1 103.311L147.778 100.514L148.309 100.642L148.197 101.101L148.228 101.108C148.435 100.842 148.755 100.712 149.173 100.813C149.75 100.953 150.038 101.405 149.87 102.1L149.439 103.878L148.893 103.746L149.307 102.035C149.406 101.628 149.243 101.332 148.872 101.242C148.496 101.151 148.162 101.338 148.053 101.786ZM150.055 103.192C150.21 102.554 150.791 102.52 151.304 102.606C151.493 102.638 151.919 102.717 152.051 102.743L152.1 102.52C152.176 102.206 152.03 101.974 151.654 101.883C151.329 101.805 151.097 101.907 150.991 102.099L150.445 101.967C150.609 101.516 151.122 101.286 151.782 101.445C152.225 101.553 152.839 101.876 152.643 102.685L152.193 104.545L151.657 104.415L151.749 104.034L151.729 104.029C151.57 104.214 151.256 104.383 150.792 104.271C150.261 104.142 149.923 103.739 150.055 103.192ZM150.59 103.327C150.525 103.595 150.713 103.788 151.022 103.863C151.47 103.971 151.81 103.738 151.891 103.403L151.954 103.145L151.283 103.032C150.916 102.97 150.657 103.049 150.59 103.327ZM154.196 101.081L153.293 104.811L152.742 104.678L153.645 100.947L154.196 101.081ZM153.932 106.079C153.819 106.051 153.712 106.02 153.642 105.992L153.753 105.534C153.814 105.554 153.921 105.585 153.998 105.604C154.168 105.645 154.316 105.664 154.53 105.345L154.642 105.176L154.303 102.094L154.89 102.236L155.07 104.576L155.101 104.584L156.333 102.586L156.925 102.729L155.003 105.618C154.736 106.023 154.391 106.19 153.932 106.079ZM158.566 103.127L158.46 103.565L157.888 103.426L157.516 104.961C157.44 105.276 157.586 105.371 157.76 105.419C157.837 105.437 157.963 105.457 158.042 105.471L157.926 105.95C157.846 105.941 157.725 105.923 157.576 105.887C157.143 105.782 156.814 105.451 156.942 104.942L157.342 103.294L156.93 103.194L157.036 102.756L157.448 102.856L157.61 102.186L158.156 102.318L157.994 102.988L158.566 103.127ZM158.308 106.026L158.986 103.228L159.537 103.362L158.859 106.159L158.308 106.026ZM159.369 102.863C159.178 102.817 159.053 102.634 159.097 102.453C159.141 102.273 159.335 102.168 159.526 102.214C159.711 102.259 159.836 102.442 159.792 102.622C159.749 102.802 159.554 102.908 159.369 102.863ZM160.584 106.637C159.77 106.44 159.422 105.717 159.625 104.878C159.832 104.022 160.486 103.553 161.274 103.744C161.913 103.899 162.285 104.388 162.205 104.968L161.669 104.838C161.676 104.562 161.518 104.289 161.173 104.205C160.72 104.096 160.325 104.398 160.18 104.996C160.032 105.609 160.239 106.057 160.698 106.168C161.007 106.243 161.285 106.131 161.426 105.843L161.962 105.973C161.769 106.499 161.244 106.797 160.584 106.637ZM164.216 105.302C164.218 105.068 164.077 104.882 163.773 104.808C163.459 104.732 163.193 104.842 163.147 105.054C163.101 105.218 163.207 105.369 163.498 105.516L163.916 105.726C164.404 105.964 164.592 106.272 164.501 106.67C164.373 107.173 163.863 107.431 163.147 107.258C162.477 107.096 162.148 106.7 162.207 106.163L162.769 106.299C162.754 106.563 162.92 106.734 163.249 106.814C163.605 106.9 163.867 106.81 163.929 106.575C163.968 106.393 163.862 106.242 163.585 106.104L163.169 105.905C162.692 105.67 162.494 105.338 162.588 104.952C162.709 104.452 163.224 104.217 163.873 104.374C164.497 104.525 164.806 104.938 164.746 105.431L164.216 105.302Z" fill="#F55A00"/>
</g>
<path d="M201.198 107.464L157.526 123.578L155.892 131.985L189.988 130.818L201.198 107.464Z" fill="#161C2F"/>
</g>
<rect width="155.721" height="50.6512" transform="matrix(1 0 0 -1 76.6047 132.279)" fill="url(#paint8_linear_25753_13549)"/>
<path d="M17.3321 22.0703V16.7429H17.9943V21.4816H20.4667V22.0703H17.3321ZM21.1839 22.0703V16.7429H24.4142V17.3316H21.8462V19.1123H24.245V19.6936H21.8462V21.4816H24.451V22.0703H21.1839ZM24.999 17.3316V16.7429H29.0166V17.3316H27.3463V22.0703H26.6767V17.3316H24.999ZM30.5359 16.7503L29.9619 18.7517H29.4174L29.8221 16.7503H30.5359ZM34.1376 18.0821C34.0787 17.5597 33.6004 17.258 32.9602 17.258C32.2538 17.258 31.7903 17.6259 31.7903 18.1336C31.7903 18.6929 32.4157 18.8989 32.8204 19.0019L33.3502 19.1491C33.9242 19.2962 34.8587 19.6274 34.8587 20.6207C34.8587 21.489 34.1596 22.166 32.9235 22.166C31.7756 22.166 31.0618 21.5699 31.0029 20.687H31.6799C31.7388 21.283 32.2906 21.5626 32.9235 21.5626C33.6593 21.5626 34.2112 21.1873 34.2112 20.606C34.2112 20.0909 33.7181 19.8923 33.1589 19.7304L32.504 19.5538C31.6652 19.311 31.1501 18.8842 31.1501 18.1631C31.1501 17.2654 31.9522 16.6693 32.9823 16.6693C34.0125 16.6693 34.7557 17.2727 34.7851 18.0821H34.1376ZM41.0024 18.4206C40.8479 17.6848 40.2151 17.2874 39.5161 17.2874C38.5521 17.2874 37.8016 18.0306 37.8016 19.4066C37.8016 20.7826 38.5521 21.5258 39.5161 21.5258C40.2151 21.5258 40.8406 21.1285 41.0024 20.4H41.6647C41.4734 21.489 40.5977 22.1439 39.5161 22.1439C38.1474 22.1439 37.1614 21.0917 37.1614 19.4066C37.1614 17.7216 38.1474 16.6693 39.5161 16.6693C40.5904 16.6693 41.466 17.3169 41.6647 18.4206H41.0024ZM42.6542 22.0703H41.9625L43.9124 16.7429H44.6115L46.5614 22.0703H45.8624L45.3326 20.5692H43.1913L42.6542 22.0703ZM43.39 19.9879H45.1265L44.2803 17.6038H44.2362L43.39 19.9879ZM47.1168 22.0703V16.7429H48.9269C50.1778 16.7429 50.7444 17.4346 50.7444 18.3838C50.7444 19.0865 50.428 19.6421 49.751 19.8775L50.9504 22.0703H50.1778L49.0667 19.9953L48.9343 20.0026H47.779V22.0703H47.1168ZM47.779 19.3993H48.9048C49.751 19.3993 50.0895 19.0166 50.0895 18.3838C50.0895 17.7436 49.751 17.3316 48.8975 17.3316H47.779V19.3993ZM51.5352 22.0703V16.7429H54.7655V17.3316H52.1974V19.1123H54.5963V19.6936H52.1974V21.4816H54.8023V22.0703H51.5352ZM55.6446 22.0703V16.7429H58.8749V17.3316H56.3068V19.1123H58.7056V19.6936H56.3068V21.4816H58.9117V22.0703H55.6446ZM59.754 22.0703V16.7429H61.5641C62.815 16.7429 63.3816 17.4346 63.3816 18.3838C63.3816 19.0865 63.0652 19.6421 62.3883 19.8775L63.5877 22.0703H62.815L61.7039 19.9953L61.5715 20.0026H60.4162V22.0703H59.754ZM60.4162 19.3993H61.5421C62.3883 19.3993 62.7267 19.0166 62.7267 18.3838C62.7267 17.7436 62.3883 17.3316 61.5347 17.3316H60.4162V19.3993Z" fill="#FF9B61"/>
<g filter="url(#filter7_d_25753_13549)">
<path d="M17.4694 138.232V131.129H18.5486V134.21H22.0806V131.129H23.1598V138.232H22.0806V135.132H18.5486V138.232H17.4694ZM24.3908 138.232V131.129H26.9221C28.5704 131.129 29.3847 132.051 29.3847 133.356C29.3847 134.313 28.953 135.039 28.0896 135.358L29.6594 138.232H28.433L26.9908 135.554H26.9221H25.4701V138.232H24.3908ZM25.4701 134.622H26.8142C27.864 134.622 28.2956 134.161 28.2956 133.356C28.2956 132.552 27.864 132.051 26.8142 132.051H25.4701V134.622ZM39.5189 130.285V136.986H38.5869V135.171H37.1741V134.426H38.5869V133.337H37.1741V132.571H38.5869V130.285H39.5189ZM37.1447 131.306V132.061H32.1999V131.306H34.2602V130.276H35.1824V131.306H37.1447ZM34.7115 132.483C35.8987 132.483 36.7326 133.17 36.7424 134.171C36.7326 135.181 35.8987 135.868 34.7115 135.868C33.5244 135.868 32.6904 135.181 32.6904 134.171C32.6904 133.17 33.5244 132.483 34.7115 132.483ZM34.7115 133.209C34.0247 133.219 33.5636 133.592 33.5636 134.171C33.5636 134.769 34.0247 135.142 34.7115 135.142C35.3885 135.142 35.8594 134.769 35.8692 134.171C35.8594 133.592 35.3885 133.219 34.7115 133.209ZM39.7152 138.125V138.88H33.7795V136.398H34.7213V138.125H39.7152ZM43.9091 131.855C43.9091 132.984 44.7529 134.063 46.1068 134.494L45.626 135.22C44.6155 134.887 43.8502 134.19 43.4578 133.307C43.0604 134.264 42.2805 135.019 41.2307 135.387L40.7499 134.671C42.1137 134.2 42.9574 133.052 42.9672 131.855V131.61H40.9952V130.855H45.8419V131.61H43.9091V131.855ZM47.9414 130.276V135.583H47.0094V130.276H47.9414ZM47.9414 136.025V139.066H47.0094V136.78H41.9861V136.025H47.9414ZM52.1746 132.866C52.1746 134.259 53.0871 135.809 54.4214 136.437L53.8916 137.163C52.9056 136.687 52.1256 135.696 51.7331 134.543C51.326 135.804 50.5018 136.888 49.4962 137.389L48.9468 136.653C50.2811 136.015 51.2524 134.357 51.2524 132.866V131.934H49.2706V131.159H54.0878V131.934H52.1746V132.866ZM55.9617 130.276V133.759H57.3745V134.543H55.9617V139.066H55.0296V130.276H55.9617ZM67.3027 130.276V136.849H66.4197V130.276H67.3027ZM65.5858 130.433V136.584H64.7028V133.474H63.6138V135.181H60.1799V131.119H63.6138V132.709H64.7028V130.433H65.5858ZM67.5578 138.125V138.88H61.475V136.035H62.3972V138.125H67.5578ZM61.0531 131.855V134.455H62.7504V131.855H61.0531ZM75.4015 134.779V135.525H72.7427V137.242H76.3139V138.007H68.2688V137.242H71.8106V135.525H69.2794V130.953H75.3132V131.718H70.2212V132.846H75.1268V133.582H70.2212V134.779H75.4015ZM79.3698 130.835C80.7237 130.835 81.7342 131.688 81.7342 132.925C81.7342 134.014 80.9493 134.803 79.8407 134.975V136.368C80.6207 136.334 81.4006 136.275 82.1267 136.182L82.1953 136.878C80.3411 137.202 78.2905 137.212 76.7698 137.202L76.6227 136.437C77.3045 136.432 78.0894 136.427 78.9086 136.408V134.975C77.7706 134.813 76.9955 134.019 77.0053 132.925C76.9955 131.688 77.9864 130.835 79.3698 130.835ZM79.3698 131.62C78.526 131.63 77.9079 132.14 77.9079 132.925C77.9079 133.71 78.526 134.23 79.3698 134.22C80.2037 134.23 80.812 133.71 80.8218 132.925C80.812 132.14 80.2037 131.63 79.3698 131.62ZM83.5885 130.276V133.847H84.9424V134.632H83.5885V139.066H82.6565V130.276H83.5885ZM94.3311 130.276V132.552H95.6065V133.347H94.3311V135.574H93.399V130.276H94.3311ZM94.3311 136.035V138.958H88.7191V136.035H94.3311ZM89.6316 136.771V138.203H93.4088V136.771H89.6316ZM92.673 131.168V131.914H87.4339V131.168H89.5923V130.207H90.5244V131.168H92.673ZM90.0534 132.297C91.3191 132.297 92.1824 132.925 92.1824 133.867C92.1824 134.818 91.3191 135.436 90.0534 135.446C88.7682 135.436 87.9146 134.818 87.9146 133.867C87.9146 132.925 88.7682 132.297 90.0534 132.297ZM90.0534 133.013C89.3078 133.003 88.8074 133.337 88.8173 133.867C88.8074 134.416 89.3078 134.74 90.0534 134.74C90.7991 134.74 91.2994 134.416 91.3093 133.867C91.2994 133.337 90.7991 133.003 90.0534 133.013ZM98.0639 131.316C98.0541 133.288 97.8088 135.319 96.5824 137.045L95.8564 136.633C96.8817 135.26 97.1907 133.739 97.2594 132.081H96.0624V131.316H98.0639ZM100.016 131.316C100.016 132.056 100.002 132.866 99.9084 133.68H100.939V130.501H101.822V138.635H100.939V134.436H99.8004C99.5993 135.529 99.2314 136.614 98.5544 137.575L97.8284 137.153C98.9665 135.628 99.1725 133.778 99.2118 132.081H98.3288V131.316H100.016ZM103.489 130.276V139.066H102.597V130.276H103.489ZM113.427 130.276V133.837H114.84V134.612H113.427V139.066H112.505V130.276H113.427ZM111.74 131.649V132.414H106.53V131.649H108.699V130.393H109.631V131.649H111.74ZM109.169 133.062C110.425 133.062 111.347 133.906 111.357 135.103C111.347 136.309 110.425 137.143 109.169 137.153C107.904 137.143 106.982 136.309 106.982 135.103C106.982 133.906 107.904 133.062 109.169 133.062ZM109.169 133.827C108.424 133.827 107.865 134.347 107.874 135.103C107.865 135.868 108.424 136.378 109.169 136.368C109.915 136.378 110.465 135.868 110.465 135.103C110.465 134.347 109.915 133.827 109.169 133.827ZM122.154 132.846V133.592H116.101V130.59H117.023V132.846H122.154ZM123.076 134.7V135.446H115.031V134.7H123.076ZM122.213 138.095V138.86H116.032V136.28H116.964V138.095H122.213Z" fill="white"/>
</g>
<g filter="url(#filter8_d_25753_13549)">
<path d="M17.6311 156.744V146.208H19.8141V150.574H24.3838V146.208H26.5813V156.744H24.3838V152.378H19.8141V156.744H17.6311ZM28.0289 156.744V146.208H32.162C34.5632 146.208 35.9312 147.561 35.9312 149.642C35.9312 151.083 35.269 152.131 34.0684 152.64L36.3096 156.744H33.8938L31.8855 153.004H30.2119V156.744H28.0289ZM30.2119 151.229H31.7545C33.0497 151.229 33.6755 150.69 33.6755 149.642C33.6755 148.58 33.0497 147.998 31.7545 147.998H30.2119V151.229ZM41.6283 145.713L38.2229 158.33H36.3747L39.7655 145.713H41.6283ZM52.9138 144.854V154.372H51.051V144.854H52.9138ZM53.2631 156.366V157.85H44.0364V153.411H45.9138V156.366H53.2631ZM45.6518 145.698C47.6892 145.698 49.2755 147.095 49.2755 149.031C49.2755 151.01 47.6892 152.393 45.6518 152.393C43.6144 152.393 42.0281 151.01 42.0281 149.031C42.0281 147.095 43.6144 145.698 45.6518 145.698ZM45.6518 147.314C44.6186 147.299 43.8327 147.954 43.8472 149.031C43.8327 150.137 44.6186 150.777 45.6518 150.777C46.656 150.777 47.4418 150.137 47.4418 149.031C47.4418 147.954 46.656 147.299 45.6518 147.314ZM59.2512 147.838C59.2367 150.21 60.2554 152.611 62.3801 153.63L61.2596 155.114C59.8406 154.416 58.8874 153.106 58.3344 151.505C57.7596 153.222 56.7336 154.627 55.2346 155.362L54.0849 153.863C56.3261 152.829 57.3885 150.297 57.3885 147.838V145.858H59.2512V147.838ZM64.8251 144.84V149.948H66.7752V151.52H64.8251V158.083H62.9623V144.84H64.8251ZM81.1237 144.84V152.815H79.2609V144.84H81.1237ZM81.1237 153.397V158.083H79.2609V154.881H72.0135V153.397H81.1237ZM77.8638 145.611V147.095H75.2006C75.2151 148.645 76.1902 150.275 78.3586 150.923L77.4126 152.364C75.9282 151.905 74.8804 150.952 74.2837 149.744C73.6798 151.054 72.6028 152.094 71.053 152.611L70.0924 151.17C72.2754 150.464 73.2941 148.747 73.3087 147.095H70.5873V145.611H77.8638ZM94.694 152.247V153.732H89.5131V158.068H87.6794V153.732H82.5713V152.247H94.694ZM93.2387 145.48V150.821H83.9975V145.48H93.2387ZM85.8312 146.95V149.366H91.3904V146.95H85.8312ZM104.458 146.091V147.547H102.421C102.479 148.616 103.279 149.693 104.88 150.21L104.094 151.563C102.872 151.199 102.035 150.464 101.562 149.569C101.075 150.552 100.245 151.374 99.03 151.796L98.215 150.414C99.7867 149.824 100.602 148.638 100.66 147.547H98.6079V146.091H100.66V144.883H102.421V146.091H104.458ZM109.625 144.854V151.796H107.864V149.06H106.801V151.709H105.055V145.087H106.801V147.59H107.864V144.854H109.625ZM109.625 152.276V155.74H102.421V156.57H110.076V157.937H100.573V154.401H107.791V153.673H100.558V152.276H109.625ZM121.871 144.854V154.605H120.022V144.854H121.871ZM122.22 156.366V157.85H112.964V153.79H114.812V156.366H122.22ZM117.621 145.713V149.933H113.313V151.403C115.678 151.396 117.192 151.33 118.902 150.996L119.105 152.48C117.184 152.844 115.467 152.917 112.658 152.917H111.494V148.565H115.773V147.197H111.48V145.713H117.621ZM128.485 148.449C128.485 150.588 129.576 152.873 131.803 153.804L130.798 155.26C129.234 154.598 128.157 153.281 127.568 151.665C126.964 153.419 125.865 154.874 124.308 155.594L123.245 154.125C125.443 153.15 126.578 150.69 126.578 148.449V147.634H123.769V146.12H131.25V147.634H128.485V148.449ZM134.437 144.84V158.083H132.559V144.84H134.437Z" fill="white"/>
</g>
</g>
<defs>
<filter id="filter0_f_25753_13549" x="72.1637" y="60.1821" width="26.859" height="38.9152" filterUnits="userSpaceOnUse" color-interpolation-filters="sRGB">
<feFlood flood-opacity="0" result="BackgroundImageFix"/>
<feBlend mode="normal" in="SourceGraphic" in2="BackgroundImageFix" result="shape"/>
<feGaussianBlur stdDeviation="0.467077" result="effect1_foregroundBlur_25753_13549"/>
</filter>
<filter id="filter1_f_25753_13549" x="209.138" y="63.7914" width="21.4855" height="32.9289" filterUnits="userSpaceOnUse" color-interpolation-filters="sRGB">
<feFlood flood-opacity="0" result="BackgroundImageFix"/>
<feBlend mode="normal" in="SourceGraphic" in2="BackgroundImageFix" result="shape"/>
<feGaussianBlur stdDeviation="0.467077" result="effect1_foregroundBlur_25753_13549"/>
</filter>
<filter id="filter2_f_25753_13549" x="192.815" y="45.1772" width="26.3637" height="47.8078" filterUnits="userSpaceOnUse" color-interpolation-filters="sRGB">
<feFlood flood-opacity="0" result="BackgroundImageFix"/>
<feBlend mode="normal" in="SourceGraphic" in2="BackgroundImageFix" result="shape"/>
<feGaussianBlur stdDeviation="0.467077" result="effect1_foregroundBlur_25753_13549"/>
</filter>
<filter id="filter3_f_25753_13549" x="167.296" y="19.6323" width="41.0263" height="68.6818" filterUnits="userSpaceOnUse" color-interpolation-filters="sRGB">
<feFlood flood-opacity="0" result="BackgroundImageFix"/>
<feBlend mode="normal" in="SourceGraphic" in2="BackgroundImageFix" result="shape"/>
<feGaussianBlur stdDeviation="0.467077" result="effect1_foregroundBlur_25753_13549"/>
</filter>
<filter id="filter4_f_25753_13549" x="83.4159" y="37.56" width="30.4386" height="55.8908" filterUnits="userSpaceOnUse" color-interpolation-filters="sRGB">
<feFlood flood-opacity="0" result="BackgroundImageFix"/>
<feBlend mode="normal" in="SourceGraphic" in2="BackgroundImageFix" result="shape"/>
<feGaussianBlur stdDeviation="0.467077" result="effect1_foregroundBlur_25753_13549"/>
</filter>
<filter id="filter5_f_25753_13549" x="97.0707" y="25.8569" width="31.9643" height="63.8341" filterUnits="userSpaceOnUse" color-interpolation-filters="sRGB">
<feFlood flood-opacity="0" result="BackgroundImageFix"/>
<feBlend mode="normal" in="SourceGraphic" in2="BackgroundImageFix" result="shape"/>
<feGaussianBlur stdDeviation="0.467077" result="effect1_foregroundBlur_25753_13549"/>
</filter>
<filter id="filter6_f_25753_13549" x="112.111" y="15.3022" width="49.8856" height="70.2091" filterUnits="userSpaceOnUse" color-interpolation-filters="sRGB">
<feFlood flood-opacity="0" result="BackgroundImageFix"/>
<feBlend mode="normal" in="SourceGraphic" in2="BackgroundImageFix" result="shape"/>
<feGaussianBlur stdDeviation="0.467077" result="effect1_foregroundBlur_25753_13549"/>
</filter>
<filter id="filter7_d_25753_13549" x="9.09739" y="121.835" width="122.351" height="25.6036" filterUnits="userSpaceOnUse" color-interpolation-filters="sRGB">
<feFlood flood-opacity="0" result="BackgroundImageFix"/>
<feColorMatrix in="SourceAlpha" type="matrix" values="0 0 0 0 0 0 0 0 0 0 0 0 0 0 0 0 0 0 127 0" result="hardAlpha"/>
<feOffset/>
<feGaussianBlur stdDeviation="4.18605"/>
<feComposite in2="hardAlpha" operator="out"/>
<feColorMatrix type="matrix" values="0 0 0 0 0.220624 0 0 0 0 0.410158 0 0 0 0 0.995605 0 0 0 0.3 0"/>
<feBlend mode="normal" in2="BackgroundImageFix" result="effect1_dropShadow_25753_13549"/>
<feBlend mode="normal" in="SourceGraphic" in2="effect1_dropShadow_25753_13549" result="shape"/>
</filter>
<filter id="filter8_d_25753_13549" x="9.25901" y="136.468" width="133.55" height="30.2344" filterUnits="userSpaceOnUse" color-interpolation-filters="sRGB">
<feFlood flood-opacity="0" result="BackgroundImageFix"/>
<feColorMatrix in="SourceAlpha" type="matrix" values="0 0 0 0 0 0 0 0 0 0 0 0 0 0 0 0 0 0 127 0" result="hardAlpha"/>
<feOffset/>
<feGaussianBlur stdDeviation="4.18605"/>
<feComposite in2="hardAlpha" operator="out"/>
<feColorMatrix type="matrix" values="0 0 0 0 0.220624 0 0 0 0 0.410158 0 0 0 0 0.995605 0 0 0 0.3 0"/>
<feBlend mode="normal" in2="BackgroundImageFix" result="effect1_dropShadow_25753_13549"/>
<feBlend mode="normal" in="SourceGraphic" in2="effect1_dropShadow_25753_13549" result="shape"/>
</filter>
<linearGradient id="paint0_linear_25753_13549" x1="88.2849" y1="74.7678" x2="82.5614" y2="96.1282" gradientUnits="userSpaceOnUse">
<stop stop-color="#161C2F"/>
<stop offset="1" stop-color="#4C78FF"/>
</linearGradient>
<linearGradient id="paint1_linear_25753_13549" x1="219.768" y1="69.2791" x2="225.019" y2="95.6611" gradientUnits="userSpaceOnUse">
<stop stop-color="#161C2F"/>
<stop offset="1" stop-color="#3A5ABA"/>
</linearGradient>
<linearGradient id="paint2_linear_25753_13549" x1="205.954" y1="53.1634" x2="209.137" y2="89.4816" gradientUnits="userSpaceOnUse">
<stop stop-color="#161C2F"/>
<stop offset="1" stop-color="#3A5ABA"/>
</linearGradient>
<linearGradient id="paint3_linear_25753_13549" x1="192.668" y1="28.3597" x2="193.257" y2="84.8105" gradientUnits="userSpaceOnUse">
<stop stop-color="#161C2F"/>
<stop offset="1" stop-color="#3A5ABA"/>
</linearGradient>
<linearGradient id="paint4_linear_25753_13549" x1="100.048" y1="54.0005" x2="97.9745" y2="92.3916" gradientUnits="userSpaceOnUse">
<stop stop-color="#161C2F"/>
<stop offset="1" stop-color="#4C78FF"/>
</linearGradient>
<linearGradient id="paint5_linear_25753_13549" x1="114.698" y1="41.6515" x2="112.571" y2="87.2537" gradientUnits="userSpaceOnUse">
<stop stop-color="#161C2F"/>
<stop offset="1" stop-color="#4C78FF"/>
</linearGradient>
<linearGradient id="paint6_linear_25753_13549" x1="138.768" y1="26.791" x2="140.903" y2="84.9246" gradientUnits="userSpaceOnUse">
<stop stop-color="#161C2F"/>
<stop offset="1" stop-color="#4C78FF"/>
</linearGradient>
<linearGradient id="paint7_linear_25753_13549" x1="80.4583" y1="99.7169" x2="222.683" y2="99.7561" gradientUnits="userSpaceOnUse">
<stop stop-color="#4C78FF"/>
<stop offset="1" stop-color="#161C2F"/>
</linearGradient>
<linearGradient id="paint8_linear_25753_13549" x1="78.1124" y1="50.6512" x2="78.1124" y2="7.65243e-07" gradientUnits="userSpaceOnUse">
<stop stop-color="#161C2F" stop-opacity="0"/>
<stop offset="1" stop-color="#161C2F"/>
</linearGradient>
<clipPath id="clip0_25753_13549">
<rect width="240" height="180" rx="6.85714" fill="white"/>
</clipPath>
<clipPath id="clip1_25753_13549">
<rect width="164.512" height="115.535" fill="white" transform="translate(68.6514 13.8145)"/>
</clipPath>
<clipPath id="clip2_25753_13549">
<rect x="126.832" y="78.4766" width="62.8136" height="27.9171" rx="2.32643" transform="rotate(13.6155 126.832 78.4766)" fill="white"/>
</clipPath>
</defs>
</svg>
