<svg width="240" height="180" viewBox="0 0 240 180" fill="none" xmlns="http://www.w3.org/2000/svg">
<g clip-path="url(#clip0_25753_13414)">
<rect width="240" height="180.105" rx="6.85714" fill="#FFAE00"/>
<path fill-rule="evenodd" clip-rule="evenodd" d="M103.513 -43.1639C131.32 -58.7622 190.303 -10.0825 235.256 65.5656C256.743 101.725 271.135 137.501 277.269 166.701H280.628V251.728H-6.28319V176.184C-21.0322 142.469 -21.0769 111.517 -4.70799 102.335C7.02149 95.7556 24.5013 101.856 41.8115 116.612C25.4603 75.1391 23.8796 40.6384 40.3897 31.3772C55.037 23.1611 80.2712 36.8588 105.883 64.1408C85.1894 11.7519 82.9672 -31.6388 103.513 -43.1639Z" fill="url(#paint0_radial_25753_13414)" fill-opacity="0.3"/>
<g clip-path="url(#clip1_25753_13414)">
<path d="M203.423 33.6893C204.667 34.3592 205.218 36.3213 204.274 38.2148C203.329 40.1082 201.469 40.7711 200.225 40.1013C198.982 39.4313 198.43 37.47 199.374 35.5767C200.318 33.6833 202.179 33.0198 203.423 33.6893Z" stroke="#4673FF" stroke-width="1.34031"/>
<path d="M192.404 31.5507C193.648 32.2205 194.199 34.1826 193.254 36.0761C192.31 37.9695 190.45 38.6325 189.206 37.9626C187.962 37.2926 187.411 35.3313 188.355 33.438C189.299 31.5447 191.16 30.8811 192.404 31.5507Z" stroke="#4673FF" stroke-width="1.34031"/>
<path d="M180.957 29.8241C182.201 30.4939 182.752 32.4561 181.808 34.3496C180.864 36.243 179.004 36.9059 177.76 36.2361C176.516 35.5661 175.965 33.6047 176.909 31.7114C177.853 29.8181 179.713 29.1545 180.957 29.8241Z" stroke="#4673FF" stroke-width="1.34031"/>
<path d="M169.513 28.0975C170.756 28.7674 171.307 30.7295 170.363 32.623C169.419 34.5164 167.559 35.1793 166.315 34.5095C165.071 33.8395 164.52 31.8782 165.464 29.9849C166.408 28.0915 168.269 27.428 169.513 28.0975Z" stroke="#4673FF" stroke-width="1.34031"/>
<path d="M158.083 25.9432C159.327 26.6131 159.878 28.5752 158.933 30.4687C157.989 32.3621 156.129 33.025 154.885 32.3552C153.641 31.6852 153.09 29.7239 154.034 27.8306C154.978 25.9372 156.839 25.2737 158.083 25.9432Z" stroke="#4673FF" stroke-width="1.34031"/>
<path d="M146.243 23.7733C147.487 24.4432 148.038 26.4053 147.094 28.2988C146.15 30.1922 144.29 30.8551 143.046 30.1853C141.802 29.5153 141.251 27.5539 142.195 25.6607C143.139 23.7673 144.999 23.1037 146.243 23.7733Z" stroke="#4673FF" stroke-width="1.34031"/>
<path d="M139.993 31.4217L209.147 39.2102C210.099 39.3173 210.767 40.1983 210.614 41.1432L200.216 105.278C200.068 106.185 199.218 106.804 198.31 106.666L124.35 95.4338C123.373 95.2855 122.736 94.3286 122.976 93.3703L138.181 32.6794C138.385 31.8653 139.159 31.3278 139.993 31.4217Z" fill="url(#paint1_linear_25753_13414)"/>
<path d="M139.993 31.4217L209.147 39.2102C210.099 39.3173 210.767 40.1983 210.614 41.1432L200.216 105.278C200.068 106.185 199.218 106.804 198.31 106.666L124.35 95.4338C123.373 95.2855 122.736 94.3286 122.976 93.3703L138.181 32.6794C138.385 31.8653 139.159 31.3278 139.993 31.4217Z" stroke="url(#paint2_linear_25753_13414)" stroke-width="0.418848"/>
<path d="M139.993 31.4217L209.147 39.2102C210.099 39.3173 210.767 40.1983 210.614 41.1432L200.216 105.278C200.068 106.185 199.218 106.804 198.31 106.666L124.35 95.4338C123.373 95.2855 122.736 94.3286 122.976 93.3703L138.181 32.6794C138.385 31.8653 139.159 31.3278 139.993 31.4217Z" stroke="url(#paint3_linear_25753_13414)" stroke-opacity="0.2" stroke-width="0.418848"/>
<g filter="url(#filter0_f_25753_13414)">
<path d="M141.961 35.187L205.051 43.1966C206.002 43.3174 206.658 44.2103 206.489 45.1541L196.979 98.1834C196.819 99.0741 195.981 99.6771 195.085 99.5454L129.334 89.8764C128.362 89.7334 127.721 88.7887 127.948 87.8328L140.119 36.463C140.317 35.6295 141.111 35.0791 141.961 35.187Z" fill="url(#paint4_linear_25753_13414)"/>
</g>
<path d="M189.186 95.6247C197.964 81.1309 205.404 55.9623 208.27 44.2341C208.387 43.7568 208.065 43.2909 207.579 43.2189L135.593 32.5463C135.103 32.4736 134.657 32.8344 134.602 33.3268C133.589 42.3332 124.011 69.4132 118.866 83.1139C118.68 83.6069 118.993 84.138 119.512 84.2268L188.337 96.0063C188.674 96.0639 189.009 95.9168 189.186 95.6247Z" fill="#DAEEF6"/>
<g filter="url(#filter1_f_25753_13414)">
<path d="M186.527 92.1759C195.493 77.6141 204.747 53.2242 207.586 41.7151C207.646 41.4746 207.48 41.2466 207.235 41.213L142.669 32.3886C142.426 32.3553 142.208 32.5241 142.183 32.7687C141.321 41.237 127.218 66.9774 121.941 80.6462C121.846 80.8914 122.004 81.1518 122.262 81.1971L186.101 92.3649C186.27 92.3944 186.438 92.3216 186.527 92.1759Z" fill="#C6DEE8"/>
</g>
<path d="M137.905 27.7421L207.818 39.7588C208.276 39.8375 208.583 40.2727 208.495 40.7288C204.547 61.1704 189.156 80.8512 182.97 89.9912C182.778 90.2743 182.441 90.4058 182.106 90.3358L111.947 75.6661C111.373 75.5461 111.098 74.8861 111.421 74.3963C118.896 63.0294 122.636 62.7309 136.982 28.2621C137.132 27.9009 137.519 27.6758 137.905 27.7421Z" fill="white"/>
<path d="M167.301 45.8137L137.213 40.6561C137.011 40.6214 136.815 40.7339 136.746 40.9274C133.769 49.3233 125.556 63.0221 121.175 70.1082C121.022 70.3562 121.165 70.6774 121.45 70.7357L151.911 76.9444C152.086 76.9802 152.264 76.9033 152.354 76.7485C157.714 67.5465 164.599 53.0293 167.613 46.3945C167.727 46.1449 167.571 45.86 167.301 45.8137Z" fill="#FFF6E0"/>
<path d="M131.426 63.3528C133.413 60.5361 137.865 51.3334 140.199 46.4121C140.283 46.2357 140.475 46.1441 140.666 46.1861L145.159 47.1756C145.375 47.2231 145.518 47.4256 145.464 47.6401C144.684 50.76 139.73 60.0958 137.036 64.8625C136.947 65.0197 136.769 65.0983 136.592 65.063L131.704 64.0893C131.381 64.025 131.237 63.6218 131.426 63.3528Z" fill="#F8AE00"/>
<path d="M144.636 66.1931C146.495 63.6844 149.873 56.8616 152.221 51.897C152.304 51.7202 152.498 51.6263 152.689 51.6684L157.34 52.6959C157.556 52.7435 157.699 52.9477 157.649 53.1628C156.951 56.1468 153.144 62.9079 150.416 67.7315C150.327 67.889 150.148 67.9699 149.97 67.9344L144.9 66.9215C144.578 66.8571 144.44 66.4571 144.636 66.1931Z" fill="#F8AE00"/>
<path d="M137.878 64.9265C139.088 63.038 140.328 60.9445 142.489 56.3406C142.573 56.1628 142.769 56.0644 142.961 56.1071L147.267 57.0666C147.515 57.1217 147.657 57.3836 147.567 57.6208C146.455 60.575 145.638 62.0541 143.164 66.4732C143.072 66.6375 142.881 66.7225 142.698 66.6778L138.131 65.5616C137.851 65.4932 137.723 65.1692 137.878 64.9265Z" fill="#FFDC8C"/>
<path d="M126.314 68.1807L148.783 72.3809" stroke="#FFDC8A" stroke-width="1.25654" stroke-linecap="round"/>
<path d="M172.134 48.9785L196.821 53.2853" stroke="#FFDC8A" stroke-width="1.25654" stroke-linecap="round"/>
<path d="M170.425 52.7773L193.967 57.1616" stroke="#FFD779" stroke-width="0.418848" stroke-linecap="round"/>
<path d="M169.31 54.5791L193.553 58.8645" stroke="#FFD779" stroke-width="0.418848" stroke-linecap="round"/>
<path d="M168.4 56.3906L192.261 60.6288" stroke="#FFD779" stroke-width="0.418848" stroke-linecap="round"/>
<path d="M167.489 58.2021L190.929 62.6263" stroke="#FFD779" stroke-width="0.418848" stroke-linecap="round"/>
<path d="M166.255 60.29L190.216 64.6538" stroke="#FFD779" stroke-width="0.418848" stroke-linecap="round"/>
<path d="M207.796 47.0167L210.178 40.5129C210.321 40.1211 210.143 39.6844 209.766 39.5048C209.317 39.2908 208.783 39.5295 208.642 40.007L206.69 46.6522C206.597 46.9707 206.788 47.3029 207.11 47.3822C207.399 47.4531 207.694 47.2956 207.796 47.0167Z" fill="#2D5DF1"/>
<path d="M158.896 71.083C158.5 72.287 156.12 76.0456 155.206 77.4577L177.798 82.6922C178.861 81.6949 180.715 77.7363 181.509 75.8817L158.896 71.083Z" fill="#FFEEC3"/>
<path d="M133.406 33.6153L206.977 46.9833C207.18 47.0202 207.38 46.9037 207.447 46.7088L209.847 39.8064C209.932 39.562 209.777 39.2997 209.522 39.256L136.446 26.7382C136.262 26.7066 136.078 26.8014 135.998 26.9703L133.103 33.0225C132.984 33.2717 133.135 33.5659 133.406 33.6153Z" fill="url(#paint5_linear_25753_13414)"/>
<path d="M170.216 83.5942C170.816 82.0405 174.081 78.7403 175.079 77.9059L177.648 82.2464C173.397 83.3426 171.096 83.8456 170.384 83.8771C170.218 83.8844 170.156 83.7493 170.216 83.5942Z" fill="url(#paint6_linear_25753_13414)"/>
<path d="M171.527 81.6165C171.533 81.8159 171.288 83.0063 173.194 83.3507C173.194 83.3507 169.643 84.3022 169.634 83.979C169.625 83.6558 171.527 81.6165 171.527 81.6165Z" fill="#3B6BFF"/>
<path d="M175.255 77.5093L213.721 53.3589C213.919 53.235 214.161 53.1956 214.381 53.2719C216.712 54.0788 217.467 56.2708 217.554 57.5901C217.571 57.8488 217.448 58.0787 217.235 58.2267C207.797 64.7842 178.938 83.0587 177.33 82.1429C175.071 80.8564 174.907 79.3608 174.852 78.2884C174.836 77.9758 174.99 77.6757 175.255 77.5093Z" fill="url(#paint7_linear_25753_13414)"/>
<ellipse cx="170.848" cy="114.182" rx="34.8874" ry="2.80122" fill="url(#paint8_radial_25753_13414)"/>
</g>
<path d="M17.3429 22.0781V16.7476H18.0055V21.4891H20.4794V22.0781H17.3429ZM21.197 22.0781V16.7476H24.4292V17.3366H21.8596V19.1184H24.2598V19.7H21.8596V21.4891H24.466V22.0781H21.197ZM25.0143 17.3366V16.7476H29.0343V17.3366H27.3629V22.0781H26.693V17.3366H25.0143ZM30.5544 16.755L29.9801 18.7576H29.4353L29.8402 16.755H30.5544ZM34.1582 18.0876C34.0993 17.5649 33.6207 17.263 32.9802 17.263C32.2734 17.263 31.8095 17.6311 31.8095 18.1392C31.8095 18.6987 32.4353 18.9049 32.8403 19.0079L33.3704 19.1552C33.9447 19.3024 34.8797 19.6338 34.8797 20.6277C34.8797 21.4965 34.1803 22.1738 32.9434 22.1738C31.7948 22.1738 31.0806 21.5775 31.0217 20.694H31.6991C31.758 21.2903 32.3102 21.5701 32.9434 21.5701C33.6796 21.5701 34.2318 21.1946 34.2318 20.613C34.2318 20.0976 33.7385 19.8988 33.179 19.7368L32.5237 19.5601C31.6844 19.3172 31.169 18.8901 31.169 18.1686C31.169 17.2704 31.9715 16.674 33.0023 16.674C34.033 16.674 34.7766 17.2777 34.8061 18.0876H34.1582ZM41.027 18.4263C40.8724 17.69 40.2392 17.2925 39.5398 17.2925C38.5753 17.2925 37.8243 18.0361 37.8243 19.4129C37.8243 20.7897 38.5753 21.5333 39.5398 21.5333C40.2392 21.5333 40.8651 21.1357 41.027 20.4068H41.6897C41.4982 21.4965 40.6221 22.1518 39.5398 22.1518C38.1704 22.1518 37.1838 21.0989 37.1838 19.4129C37.1838 17.7268 38.1704 16.674 39.5398 16.674C40.6147 16.674 41.4909 17.3219 41.6897 18.4263H41.027ZM42.6797 22.0781H41.9877L43.9387 16.7476H44.6382L46.5893 22.0781H45.8898L45.3597 20.5762H43.2172L42.6797 22.0781ZM43.416 19.9945H45.1536L44.3069 17.609H44.2627L43.416 19.9945ZM47.1449 22.0781V16.7476H48.9561C50.2077 16.7476 50.7747 17.4397 50.7747 18.3895C50.7747 19.0926 50.4581 19.6485 49.7807 19.8841L50.9808 22.0781H50.2077L49.096 20.0019L48.9635 20.0092H47.8076V22.0781H47.1449ZM47.8076 19.4055H48.934C49.7807 19.4055 50.1194 19.0227 50.1194 18.3895C50.1194 17.7489 49.7807 17.3366 48.9267 17.3366H47.8076V19.4055ZM51.5659 22.0781V16.7476H54.7981V17.3366H52.2286V19.1184H54.6288V19.7H52.2286V21.4891H54.8349V22.0781H51.5659ZM55.6777 22.0781V16.7476H58.9099V17.3366H56.3404V19.1184H58.7406V19.7H56.3404V21.4891H58.9467V22.0781H55.6777ZM59.7895 22.0781V16.7476H61.6007C62.8523 16.7476 63.4193 17.4397 63.4193 18.3895C63.4193 19.0926 63.1027 19.6485 62.4253 19.8841L63.6254 22.0781H62.8523L61.7406 20.0019L61.6081 20.0092H60.4521V22.0781H59.7895ZM60.4521 19.4055H61.5786C62.4253 19.4055 62.764 19.0227 62.764 18.3895C62.764 17.7489 62.4253 17.3366 61.5713 17.3366H60.4521V19.4055Z" fill="white" fill-opacity="0.6"/>
<g filter="url(#filter2_d_25753_13414)">
<path d="M26.7179 129.172V130.065H25.126V135.391H24.0379V125.14H25.126V129.172H26.7179ZM18.5978 126.137V131.909C20.0294 131.909 21.524 131.789 23.1561 131.451L23.282 132.367C21.5298 132.722 19.9034 132.814 18.3688 132.814H17.5212V126.137H18.5978ZM30.3539 125.873C31.9802 125.862 33.1369 126.87 33.1484 128.313C33.1369 129.756 31.9802 130.764 30.3539 130.764C28.739 130.764 27.5479 129.756 27.5594 128.313C27.5479 126.87 28.739 125.862 30.3539 125.873ZM30.3539 126.813C29.3575 126.813 28.6245 127.408 28.6359 128.313C28.6245 129.218 29.3575 129.813 30.3539 129.813C31.3503 129.813 32.0833 129.218 32.0833 128.313C32.0833 127.408 31.3503 126.813 30.3539 126.813ZM35.4962 125.14V135.425H34.4082V125.14H35.4962ZM27.0669 132.31C28.9337 132.31 31.5221 132.287 33.7668 131.966L33.847 132.757C31.5221 133.203 29.0368 133.215 27.2043 133.215L27.0669 132.31ZM48.0479 125.152V131.222H46.9599V129.974H44.3716V129.08H46.9599V127.832H44.4746C43.8161 129.481 42.2757 130.644 40.0538 131.279L39.6186 130.432C42.0466 129.733 43.4668 128.433 43.6615 126.778H40.1454V125.885H44.8411C44.8411 126.263 44.801 126.629 44.7381 126.973H46.9599V125.152H48.0479ZM44.6693 131.336C46.7423 131.336 48.1052 132.092 48.1167 133.341C48.1052 134.589 46.7423 135.356 44.6693 135.356C42.562 135.356 41.2106 134.589 41.2106 133.341C41.2106 132.092 42.562 131.336 44.6693 131.336ZM44.6693 132.195C43.2034 132.195 42.2871 132.608 42.2871 133.341C42.2871 134.062 43.2034 134.486 44.6693 134.486C46.1124 134.486 47.0172 134.062 47.0286 133.341C47.0172 132.608 46.1124 132.195 44.6693 132.195ZM57.9257 125.14V131.359H56.8377V129.126H55.2343V128.221H56.8377V125.14H57.9257ZM57.9257 131.863V135.276H51.1571V131.863H57.9257ZM52.2336 132.722V134.394H56.8606V132.722H52.2336ZM55.3946 126.16V127.03H49.3819V126.16H51.8557V125.049H52.9323V126.16H55.3946ZM52.394 127.5C53.8027 127.5 54.7991 128.256 54.7991 129.332C54.7991 130.443 53.8027 131.165 52.394 131.176C50.9853 131.165 49.9774 130.443 49.9774 129.332C49.9774 128.256 50.9853 127.5 52.394 127.5ZM52.394 128.336C51.5694 128.324 51.0196 128.725 51.0196 129.332C51.0196 129.962 51.5694 130.351 52.394 130.351C53.2071 130.351 53.7569 129.962 53.7569 129.332C53.7569 128.725 53.2071 128.324 52.394 128.336ZM63.921 125.312C66.2345 125.312 67.5859 125.931 67.5859 127.076C67.5859 128.221 66.2345 128.851 63.921 128.851C61.6075 128.851 60.2561 128.221 60.2561 127.076C60.2561 125.931 61.6075 125.312 63.921 125.312ZM63.921 126.114C62.2832 126.114 61.3784 126.469 61.3899 127.076C61.3784 127.706 62.2832 128.038 63.921 128.038C65.5587 128.038 66.4635 127.706 66.4635 127.076C66.4635 126.469 65.5587 126.114 63.921 126.114ZM68.6052 129.481V130.351H59.2482V129.481H68.6052ZM67.4256 131.142V133.547H61.4472V134.463H67.7119V135.299H60.382V132.757H66.349V131.955H60.3706V131.142H67.4256ZM72.0862 134.429V133.512L74.9609 130.615C75.8657 129.664 76.3238 129.137 76.3238 128.416C76.3238 127.603 75.6595 127.076 74.7891 127.076C73.8729 127.076 73.2773 127.66 73.2773 128.542H72.0862C72.0748 127.03 73.2315 126.022 74.812 126.022C76.4154 126.022 77.5149 127.03 77.5264 128.382C77.5149 129.309 77.0797 130.042 75.5221 131.577L73.8385 133.283V133.352H77.6638V134.429H72.0862ZM81.6892 134.543C79.7651 134.543 78.6427 132.997 78.6427 130.283C78.6427 127.591 79.788 126.022 81.6892 126.022C83.5903 126.022 84.7356 127.591 84.7356 130.283C84.7356 132.997 83.6018 134.543 81.6892 134.543ZM81.6892 133.455C82.8115 133.455 83.4758 132.356 83.4758 130.283C83.4758 128.221 82.8001 127.087 81.6892 127.087C80.5782 127.087 79.9025 128.221 79.9025 130.283C79.9025 132.356 80.5668 133.455 81.6892 133.455ZM88.6694 134.543C86.7453 134.543 85.6229 132.997 85.6229 130.283C85.6229 127.591 86.7682 126.022 88.6694 126.022C90.5706 126.022 91.7158 127.591 91.7158 130.283C91.7158 132.997 90.582 134.543 88.6694 134.543ZM88.6694 133.455C89.7918 133.455 90.456 132.356 90.456 130.283C90.456 128.221 89.7803 127.087 88.6694 127.087C87.5585 127.087 86.8827 128.221 86.8827 130.283C86.8827 132.356 87.547 133.455 88.6694 133.455ZM94.6646 130.077C93.5308 130.088 92.9124 129.241 92.9238 128.015C92.9124 126.801 93.5537 125.965 94.6646 125.965C95.7985 125.965 96.4055 126.801 96.4055 128.015C96.4055 129.252 95.7756 130.088 94.6646 130.077ZM94.6646 129.275C95.2029 129.275 95.4549 128.771 95.4549 128.015C95.4549 127.271 95.2144 126.767 94.6646 126.767C94.1378 126.778 93.8629 127.271 93.8629 128.015C93.8629 128.771 94.1264 129.275 94.6646 129.275ZM99.8986 134.601C98.7648 134.601 98.1463 133.764 98.1578 132.539C98.1463 131.314 98.7991 130.477 99.8986 130.477C101.032 130.477 101.639 131.314 101.639 132.539C101.639 133.764 101.01 134.601 99.8986 134.601ZM99.8986 133.787C100.437 133.787 100.689 133.283 100.689 132.539C100.689 131.783 100.448 131.279 99.8986 131.279C99.3718 131.291 99.0969 131.795 99.0969 132.539C99.0969 133.283 99.3718 133.787 99.8986 133.787ZM93.8629 134.429L99.555 126.137H100.597L94.9052 134.429H93.8629ZM113.321 125.14V127.694H114.787V128.622H113.321V131.188H112.233V125.14H113.321ZM113.321 131.623V133.764H107.652V134.543H113.699V135.299H106.564V133.066H112.244V132.379H106.541V131.623H113.321ZM105.178 130.214C105.974 130.214 106.896 130.214 107.858 130.18V129.607C106.678 129.498 105.945 129.029 105.957 128.256C105.945 127.42 106.907 126.927 108.396 126.927C109.873 126.927 110.835 127.42 110.835 128.256C110.835 129.023 110.108 129.493 108.946 129.607V130.145C109.862 130.1 110.79 130.025 111.649 129.905L111.74 130.615C109.53 130.981 107.102 130.993 105.292 130.993L105.178 130.214ZM111.362 125.873V126.629H105.441V125.873H107.858V125.049H108.946V125.873H111.362ZM108.396 127.637C107.514 127.637 106.987 127.866 106.987 128.256C106.987 128.668 107.514 128.92 108.396 128.92C109.266 128.92 109.793 128.668 109.793 128.256C109.793 127.866 109.266 127.637 108.396 127.637ZM124.481 130.145V131.027H115.124V130.145H117.369V128.76C116.579 128.439 116.132 127.923 116.132 127.248C116.132 126.034 117.541 125.324 119.797 125.324C122.042 125.324 123.462 126.034 123.462 127.248C123.462 127.923 123.01 128.445 122.214 128.76V130.145H124.481ZM119.797 131.726C122.007 131.726 123.336 132.379 123.336 133.547C123.336 134.738 122.007 135.379 119.797 135.379C117.564 135.379 116.235 134.738 116.235 133.547C116.235 132.379 117.564 131.726 119.797 131.726ZM119.797 132.562C118.228 132.562 117.335 132.917 117.335 133.547C117.335 134.188 118.228 134.555 119.797 134.543C121.343 134.555 122.248 134.188 122.248 133.547C122.248 132.917 121.343 132.562 119.797 132.562ZM119.797 126.16C118.205 126.16 117.243 126.561 117.254 127.248C117.243 127.935 118.205 128.324 119.797 128.324C121.389 128.324 122.34 127.935 122.34 127.248C122.34 126.561 121.389 126.16 119.797 126.16ZM118.468 130.145H121.137V129.046C120.736 129.115 120.284 129.149 119.797 129.149C119.316 129.149 118.869 129.115 118.468 129.057V130.145ZM132.996 125.14V129.298H134.645V130.203H132.996V135.402H131.92V125.14H132.996ZM131.026 126.744V127.637H124.945V126.744H127.476V125.278H128.564V126.744H131.026ZM128.026 128.393C129.492 128.393 130.568 129.378 130.58 130.775C130.568 132.184 129.492 133.157 128.026 133.169C126.548 133.157 125.472 132.184 125.472 130.775C125.472 129.378 126.548 128.393 128.026 128.393ZM128.026 129.286C127.155 129.286 126.502 129.893 126.514 130.775C126.502 131.669 127.155 132.264 128.026 132.253C128.896 132.264 129.537 131.669 129.537 130.775C129.537 129.893 128.896 129.286 128.026 129.286ZM137.663 125.908C138.596 125.908 139.369 126.446 139.827 127.374H142.359V125.14H143.435V135.425H142.359V131.485H139.896C139.455 132.516 138.648 133.112 137.663 133.112C136.128 133.112 135.052 131.714 135.063 129.504C135.052 127.305 136.128 125.908 137.663 125.908ZM137.663 126.881C136.735 126.881 136.094 127.889 136.094 129.504C136.094 131.13 136.735 132.138 137.663 132.138C138.591 132.138 139.232 131.13 139.232 129.504C139.232 127.889 138.591 126.881 137.663 126.881ZM140.137 128.267C140.211 128.645 140.263 129.057 140.263 129.504C140.263 129.893 140.228 130.254 140.16 130.592H142.359V128.267H140.137ZM156.17 125.14V135.402H155.128V125.14H156.17ZM154.086 125.358V134.887H153.055V129.664H151.463V128.771H153.055V125.358H154.086ZM150.455 128.004C150.455 129.756 151.165 131.508 152.608 132.344L151.955 133.146C150.976 132.562 150.3 131.525 149.951 130.283C149.579 131.623 148.88 132.762 147.878 133.386L147.214 132.573C148.668 131.691 149.413 129.825 149.413 128.004V127.179H147.523V126.297H152.219V127.179H150.455V128.004ZM160.825 126.984C160.825 128.29 161.73 129.538 163.299 130.065L162.749 130.913C161.587 130.512 160.734 129.71 160.287 128.702C159.84 129.813 158.953 130.684 157.745 131.107L157.16 130.26C158.764 129.71 159.726 128.393 159.737 126.973V126.698H157.481V125.816H163.036V126.698H160.825V126.984ZM165.303 125.14V127.775H166.792V128.691H165.303V131.325H164.215V125.14H165.303ZM165.303 131.829V135.402H164.215V132.711H158.523V131.829H165.303ZM175.113 125.14V129.298H176.762V130.203H175.113V135.402H174.036V125.14H175.113ZM173.143 126.744V127.637H167.061V126.744H169.592V125.278H170.68V126.744H173.143ZM170.142 128.393C171.608 128.393 172.684 129.378 172.696 130.775C172.684 132.184 171.608 133.157 170.142 133.169C168.665 133.157 167.588 132.184 167.588 130.775C167.588 129.378 168.665 128.393 170.142 128.393ZM170.142 129.286C169.272 129.286 168.619 129.893 168.63 130.775C168.619 131.669 169.272 132.264 170.142 132.253C171.012 132.264 171.654 131.669 171.654 130.775C171.654 129.893 171.012 129.286 170.142 129.286ZM185.3 128.141V129.011H178.233V125.507H179.31V128.141H185.3ZM186.376 130.306V131.176H176.985V130.306H186.376ZM185.368 134.268V135.162H178.153V132.15H179.241V134.268H185.368Z" fill="white"/>
</g>
<g filter="url(#filter3_d_25753_13414)">
<path d="M31.5281 154.949V156.787H17.2177V154.949H23.2305V152.131H18.4031V150.413H20.499V145.947H18.3344V144.194H30.3256V145.947H28.1266V150.413H30.2569V152.131H25.4123V154.949H31.5281ZM22.698 150.413H25.962V145.947H22.698V150.413ZM44.7815 150.963V152.698H33.718V144.04H44.6612V145.809H35.9513V147.458H44.3005V149.176H35.9513V150.963H44.7815ZM46.3448 154.914V156.701H32.0344V154.914H46.3448ZM59.8387 143.267V144.882H57.7943V146.943H59.7356V148.575H55.0628V149.554H61.1099V151.255H46.8511V149.554H52.8639V148.575H48.2083V146.943H50.1324V144.882H48.1052V143.267H59.8387ZM59.3748 152.08V155.911H50.6649V156.804H59.7871V158.419H48.5175V154.433H57.2102V153.643H48.5003V152.08H59.3748ZM52.3313 146.943H55.5954V144.882H52.3313V146.943ZM74.7756 142.889V158.556H72.5938V142.889H74.7756ZM69.931 144.194V150.224H64.7772V153.093C67.1566 153.085 69.1837 152.947 71.4772 152.578L71.6662 154.347C69.0893 154.794 66.77 154.897 63.9183 154.897H62.5096V148.489H67.6977V145.964H62.4924V144.194H69.931ZM83.6139 143.696C86.981 143.696 89.4892 145.397 89.5064 147.974C89.4892 150.327 87.505 151.916 84.6962 152.234V154.897H90.7948V156.701H76.4845V154.897H82.5144V152.217C79.7142 151.916 77.7386 150.319 77.7386 147.974C77.7386 145.397 80.2467 143.696 83.6139 143.696ZM83.6139 145.448C81.4321 145.448 79.9032 146.41 79.9032 147.974C79.9032 149.623 81.4321 150.551 83.6139 150.551C85.8128 150.551 87.3246 149.623 87.3418 147.974C87.3246 146.41 85.8128 145.448 83.6139 145.448ZM95.4838 156.941L95.4667 155.069L99.9333 150.963C101.101 149.846 101.72 149.159 101.72 148.18C101.72 147.08 100.878 146.393 99.7443 146.393C98.5761 146.393 97.8202 147.132 97.8202 148.317H95.3636C95.3464 145.878 97.1502 144.332 99.7787 144.332C102.441 144.332 104.211 145.844 104.211 148.008C104.211 149.417 103.524 150.585 100.964 152.904L99.0743 154.742V154.811H104.383V156.941H95.4838ZM119.577 151.513V153.265H113.496V158.522H111.331V153.265H105.319V151.513H119.577ZM118.306 143.713V145.431H113.754C113.968 146.96 115.695 148.498 118.907 148.884L118.117 150.602C115.368 150.233 113.401 149.056 112.465 147.441C111.503 149.056 109.553 150.233 106.83 150.602L106.023 148.884C109.184 148.498 110.928 146.96 111.177 145.431H106.607V143.713H118.306ZM128.51 143.524C130.794 143.524 132.444 144.813 132.444 146.703C132.444 148.231 131.318 149.4 129.643 149.76V150.894C130.863 150.826 132.092 150.714 133.234 150.551L133.406 152.148C130.193 152.715 126.603 152.784 123.991 152.784L123.768 151.049C124.85 151.049 126.113 151.04 127.445 150.997V149.778C125.718 149.434 124.558 148.257 124.576 146.703C124.558 144.813 126.208 143.524 128.51 143.524ZM128.51 145.174C127.393 145.191 126.603 145.723 126.62 146.703C126.603 147.647 127.393 148.214 128.51 148.214C129.626 148.214 130.382 147.647 130.382 146.703C130.382 145.723 129.626 145.191 128.51 145.174ZM136.309 142.906V147.819H138.302V149.64H136.309V154.828H134.11V142.906H136.309ZM136.842 156.478V158.23H125.83V153.78H128.029V156.478H136.842ZM144.529 145.019C144.512 147.115 145.594 149.039 148.102 149.812L146.951 151.53C145.268 150.946 144.125 149.864 143.481 148.455C142.777 150.087 141.514 151.375 139.633 152.011L138.482 150.259C141.162 149.4 142.296 147.304 142.313 145.122V143.696H144.529V145.019ZM151.796 142.889V152.045H149.614V147.544H146.676V145.758H149.614V142.889H151.796ZM146.453 152.458C149.786 152.458 151.83 153.574 151.847 155.498C151.83 157.422 149.786 158.522 146.453 158.522C143.12 158.522 141.076 157.422 141.076 155.498C141.076 153.574 143.12 152.458 146.453 152.458ZM146.453 154.158C144.374 154.158 143.258 154.605 143.258 155.498C143.258 156.357 144.374 156.821 146.453 156.821C148.532 156.821 149.665 156.357 149.665 155.498C149.665 154.605 148.532 154.158 146.453 154.158ZM164.439 144.366V146.084H162.034C162.102 147.347 163.047 148.618 164.937 149.228L164.009 150.826C162.566 150.396 161.578 149.529 161.02 148.472C160.445 149.632 159.465 150.602 158.031 151.1L157.069 149.468C158.924 148.773 159.886 147.373 159.955 146.084H157.533V144.366H159.955V142.94H162.034V144.366H164.439ZM170.537 142.906V151.1H168.459V147.871H167.205V150.997H165.143V143.181H167.205V146.136H168.459V142.906H170.537ZM170.537 151.667V155.756H162.034V156.735H171.07V158.35H159.852V154.176H168.373V153.317H159.835V151.667H170.537ZM184.993 142.906V154.416H182.812V142.906H184.993ZM185.406 156.495V158.247H174.48V153.454H176.661V156.495H185.406ZM179.977 143.919V148.901H174.892V150.637C177.683 150.628 179.47 150.551 181.489 150.156L181.729 151.908C179.462 152.337 177.434 152.423 174.119 152.423H172.744V147.287H177.795V145.672H172.727V143.919H179.977ZM192.801 147.149C192.801 149.675 194.089 152.372 196.718 153.471L195.532 155.189C193.686 154.407 192.414 152.853 191.719 150.946C191.006 153.016 189.709 154.734 187.87 155.584L186.616 153.849C189.21 152.698 190.55 149.795 190.55 147.149V146.187H187.235V144.401H196.065V146.187H192.801V147.149ZM199.827 142.889V158.522H197.611V142.889H199.827Z" fill="white"/>
</g>
</g>
<defs>
<filter id="filter0_f_25753_13414" x="126.226" y="33.4984" width="81.9643" height="67.7404" filterUnits="userSpaceOnUse" color-interpolation-filters="sRGB">
<feFlood flood-opacity="0" result="BackgroundImageFix"/>
<feBlend mode="normal" in="SourceGraphic" in2="BackgroundImageFix" result="shape"/>
<feGaussianBlur stdDeviation="0.837696" result="effect1_foregroundBlur_25753_13414"/>
</filter>
<filter id="filter1_f_25753_13414" x="120.238" y="30.7094" width="89.0361" height="63.3371" filterUnits="userSpaceOnUse" color-interpolation-filters="sRGB">
<feFlood flood-opacity="0" result="BackgroundImageFix"/>
<feBlend mode="normal" in="SourceGraphic" in2="BackgroundImageFix" result="shape"/>
<feGaussianBlur stdDeviation="0.837696" result="effect1_foregroundBlur_25753_13414"/>
</filter>
<filter id="filter2_d_25753_13414" x="9.14428" y="116.672" width="185.609" height="27.1299" filterUnits="userSpaceOnUse" color-interpolation-filters="sRGB">
<feFlood flood-opacity="0" result="BackgroundImageFix"/>
<feColorMatrix in="SourceAlpha" type="matrix" values="0 0 0 0 0 0 0 0 0 0 0 0 0 0 0 0 0 0 127 0" result="hardAlpha"/>
<feOffset/>
<feGaussianBlur stdDeviation="4.18848"/>
<feComposite in2="hardAlpha" operator="out"/>
<feColorMatrix type="matrix" values="0 0 0 0 0.905859 0 0 0 0 0.611011 0 0 0 0 0 0 0 0 1 0"/>
<feBlend mode="normal" in2="BackgroundImageFix" result="effect1_dropShadow_25753_13414"/>
<feBlend mode="normal" in="SourceGraphic" in2="effect1_dropShadow_25753_13414" result="shape"/>
</filter>
<filter id="filter3_d_25753_13414" x="8.84081" y="134.512" width="199.363" height="32.4219" filterUnits="userSpaceOnUse" color-interpolation-filters="sRGB">
<feFlood flood-opacity="0" result="BackgroundImageFix"/>
<feColorMatrix in="SourceAlpha" type="matrix" values="0 0 0 0 0 0 0 0 0 0 0 0 0 0 0 0 0 0 127 0" result="hardAlpha"/>
<feOffset/>
<feGaussianBlur stdDeviation="4.18848"/>
<feComposite in2="hardAlpha" operator="out"/>
<feColorMatrix type="matrix" values="0 0 0 0 0.905859 0 0 0 0 0.611011 0 0 0 0 0 0 0 0 1 0"/>
<feBlend mode="normal" in2="BackgroundImageFix" result="effect1_dropShadow_25753_13414"/>
<feBlend mode="normal" in="SourceGraphic" in2="effect1_dropShadow_25753_13414" result="shape"/>
</filter>
<radialGradient id="paint0_radial_25753_13414" cx="0" cy="0" r="1" gradientUnits="userSpaceOnUse" gradientTransform="translate(131.728 141.571) rotate(90) scale(110.157 110.157)">
<stop stop-color="#ECA203"/>
<stop offset="1" stop-color="white"/>
</radialGradient>
<linearGradient id="paint1_linear_25753_13414" x1="208.085" y1="47.3125" x2="186.939" y2="102.208" gradientUnits="userSpaceOnUse">
<stop stop-color="#2952D0"/>
<stop offset="0.5" stop-color="#2C60FB"/>
<stop offset="1" stop-color="#3F6EFF"/>
</linearGradient>
<linearGradient id="paint2_linear_25753_13414" x1="181.171" y1="93.7021" x2="189.518" y2="102.893" gradientUnits="userSpaceOnUse">
<stop stop-color="#6187FF"/>
<stop offset="1" stop-color="#7394FF"/>
</linearGradient>
<linearGradient id="paint3_linear_25753_13414" x1="213.815" y1="48.7097" x2="201.607" y2="100.481" gradientUnits="userSpaceOnUse">
<stop stop-color="#B6C8FF"/>
<stop offset="1" stop-color="#6187FF" stop-opacity="0"/>
</linearGradient>
<linearGradient id="paint4_linear_25753_13414" x1="176.501" y1="58.7736" x2="167.536" y2="96.089" gradientUnits="userSpaceOnUse">
<stop stop-color="#2149C6"/>
<stop offset="1" stop-color="#426CEC"/>
</linearGradient>
<linearGradient id="paint5_linear_25753_13414" x1="172.203" y1="39.6422" x2="173.167" y2="32.9119" gradientUnits="userSpaceOnUse">
<stop stop-color="#3465FF"/>
<stop offset="1" stop-color="#517BFF"/>
</linearGradient>
<linearGradient id="paint6_linear_25753_13414" x1="171.912" y1="81.2298" x2="173.986" y2="83.7691" gradientUnits="userSpaceOnUse">
<stop stop-color="#EAF9FF"/>
<stop offset="0.5" stop-color="white"/>
<stop offset="1" stop-color="#D2E7F0"/>
</linearGradient>
<linearGradient id="paint7_linear_25753_13414" x1="196.938" y1="52.3438" x2="195.464" y2="83.0397" gradientUnits="userSpaceOnUse">
<stop stop-color="#547EFF"/>
<stop offset="1" stop-color="#3768FF"/>
</linearGradient>
<radialGradient id="paint8_radial_25753_13414" cx="0" cy="0" r="1" gradientUnits="userSpaceOnUse" gradientTransform="translate(170.848 114.182) scale(42.7952 3.43616)">
<stop stop-color="#EF9700"/>
<stop offset="1" stop-color="#FFAD00" stop-opacity="0"/>
</radialGradient>
<clipPath id="clip0_25753_13414">
<rect width="240" height="180.105" rx="6.85714" fill="white"/>
</clipPath>
<clipPath id="clip1_25753_13414">
<rect width="108.063" height="98.4293" fill="white" transform="translate(109.319 20.5234)"/>
</clipPath>
</defs>
</svg>
