<svg width="12" height="12" viewBox="0 0 12 12" fill="none" xmlns="http://www.w3.org/2000/svg">
<path d="M4.80012 0C3.52705 0 2.30612 0.505725 1.40592 1.40592C0.505725 2.30612 0 3.52705 0 4.80012C0 6.07318 0.505725 7.29411 1.40592 8.19431C2.30612 9.09451 3.52705 9.60023 4.80012 9.60023C6.07318 9.60023 7.29411 9.09451 8.19431 8.19431C9.09451 7.29411 9.60023 6.07318 9.60023 4.80012C9.60023 3.52705 9.09451 2.30612 8.19431 1.40592C7.29411 0.505725 6.07318 0 4.80012 0Z" fill="#8288F8"/>
<path fill-rule="evenodd" clip-rule="evenodd" d="M11.8244 11.8244C11.7119 11.9369 11.5593 12.0001 11.4002 12.0001C11.2411 12.0001 11.0885 11.9369 10.976 11.8244L8.87595 9.72437C8.76665 9.61121 8.70618 9.45964 8.70754 9.30232C8.70891 9.145 8.77201 8.99451 8.88326 8.88326C8.99451 8.77201 9.145 8.70891 9.30232 8.70754C9.45964 8.70618 9.61121 8.76665 9.72437 8.87595L11.8244 10.976C11.9369 11.0885 12.0001 11.2411 12.0001 11.4002C12.0001 11.5593 11.9369 11.7119 11.8244 11.8244Z" fill="#8288F8"/>
</svg>
