<svg xmlns="http://www.w3.org/2000/svg" width="20" height="21" viewBox="0 0 20 21" fill="none">
  <path d="M6.66536 3.52702H5.99886C5.06544 3.52702 4.59838 3.52702 4.24186 3.70867C3.92826 3.86846 3.67348 4.12325 3.51369 4.43685C3.33203 4.79337 3.33203 5.26043 3.33203 6.19385V6.86035M6.66536 3.52702H13.332M6.66536 3.52702V1.86035M13.332 3.52702H13.9989C14.9323 3.52702 15.3983 3.52702 15.7549 3.70867C16.0685 3.86846 16.3241 4.12325 16.4839 4.43685C16.6654 4.79302 16.6654 5.25951 16.6654 6.19111V6.86035M13.332 3.52702V1.86035M3.33203 6.86035V14.1938C3.33203 15.1273 3.33203 15.5937 3.51369 15.9503C3.67348 16.2639 3.92826 16.5191 4.24186 16.6789C4.59803 16.8604 5.06453 16.8604 5.99612 16.8604H14.0013C14.9329 16.8604 15.3987 16.8604 15.7549 16.6789C16.0685 16.5191 16.3241 16.2639 16.4839 15.9503C16.6654 15.5941 16.6654 15.1283 16.6654 14.1967V6.86035M3.33203 6.86035H16.6654M13.332 13.527H13.3337L13.3337 13.5287L13.332 13.5286V13.527ZM9.9987 13.527H10.0004L10.0003 13.5287L9.9987 13.5286V13.527ZM6.66536 13.527H6.66703L6.66699 13.5287L6.66536 13.5286V13.527ZM13.3337 10.1937V10.1954L13.332 10.1953V10.1937H13.3337ZM9.9987 10.1937H10.0004L10.0003 10.1954L9.9987 10.1953V10.1937ZM6.66536 10.1937H6.66703L6.66699 10.1954L6.66536 10.1953V10.1937Z" stroke="currentColor" stroke-width="1.4" stroke-linecap="round" stroke-linejoin="round"/>
</svg>