<svg xmlns="http://www.w3.org/2000/svg" width="20" height="21" viewBox="0 0 20 21" fill="none">
  <path d="M18.3346 8.52702H1.66797M9.16797 11.8604H5.0013M1.66797 7.02702L1.66797 13.3604C1.66797 14.2938 1.66797 14.7605 1.84962 15.117C2.00941 15.4306 2.26438 15.6856 2.57798 15.8454C2.9345 16.027 3.40121 16.027 4.33464 16.027L15.668 16.027C16.6014 16.027 17.0681 16.027 17.4246 15.8454C17.7382 15.6856 17.9932 15.4306 18.153 15.117C18.3346 14.7605 18.3346 14.2938 18.3346 13.3604V7.02702C18.3346 6.0936 18.3346 5.62689 18.153 5.27037C17.9932 4.95677 17.7382 4.7018 17.4246 4.54201C17.0681 4.36035 16.6014 4.36035 15.668 4.36035L4.33464 4.36035C3.40122 4.36035 2.9345 4.36035 2.57798 4.54201C2.26438 4.7018 2.00941 4.95676 1.84962 5.27037C1.66797 5.62689 1.66797 6.0936 1.66797 7.02702Z" stroke="currentColor" stroke-width="1.5" stroke-linecap="round" stroke-linejoin="round"/>
</svg>