<svg width="current" height="current" viewBox="0 0 32 32" fill="current" xmlns="http://www.w3.org/2000/svg">
<g id="Frame 1984080281">
<path id="Subtract" fill-rule="evenodd" clip-rule="evenodd" d="M16 8.28571C15.132 8.28571 14.2996 8.63189 13.6858 9.24808C13.0721 9.86427 12.7273 10.7 12.7273 11.5714V13.2143H19.2727V11.5714C19.2727 11.1399 19.1881 10.7127 19.0236 10.314C18.8591 9.9154 18.6181 9.55318 18.3142 9.24808C18.0103 8.94297 17.6495 8.70095 17.2524 8.53582C16.8554 8.3707 16.4298 8.28571 16 8.28571ZM9.45455 11.5714V13.2143C8.80356 13.2143 8.17924 13.4739 7.71892 13.9361C7.2586 14.3982 7 15.025 7 15.6786V25.5357C7 25.8593 7.06349 26.1798 7.18684 26.4788C7.31019 26.7777 7.49099 27.0494 7.71892 27.2782C7.94685 27.5071 8.21743 27.6886 8.51523 27.8124C8.81303 27.9363 9.13221 28 9.45455 28H22.5455C23.1964 28 23.8208 27.7404 24.2811 27.2782C24.7414 26.8161 25 26.1893 25 25.5357V15.6786C25 15.025 24.7414 14.3982 24.2811 13.9361C23.8208 13.4739 23.1964 13.2143 22.5455 13.2143V11.5714C22.5455 9.82858 21.8558 8.15711 20.6283 6.92473C19.4008 5.69234 17.736 5 16 5C14.264 5 12.5992 5.69234 11.3717 6.92473C10.1442 8.15711 9.45455 9.82858 9.45455 11.5714ZM16 22.6607C16.5425 22.6607 17.0628 22.4444 17.4464 22.0592C17.83 21.6741 18.0455 21.1518 18.0455 20.6071C18.0455 20.0625 17.83 19.5402 17.4464 19.155C17.0628 18.7699 16.5425 18.5536 16 18.5536C15.4575 18.5536 14.9372 18.7699 14.5536 19.155C14.17 19.5402 13.9545 20.0625 13.9545 20.6071C13.9545 21.1518 14.17 21.6741 14.5536 22.0592C14.9372 22.4444 15.4575 22.6607 16 22.6607Z" fill="#484848"/>
</g>
</svg>
