<svg xmlns="http://www.w3.org/2000/svg" width="20" height="21" viewBox="0 0 20 21" fill="none">
  <path d="M9.99955 12.6934C7.35782 12.6934 5.00855 13.9689 3.51288 15.9483C3.19097 16.3744 3.03002 16.5874 3.03528 16.8753C3.03935 17.0977 3.17902 17.3783 3.35402 17.5156C3.58054 17.6934 3.89444 17.6934 4.52224 17.6934H15.4769C16.1047 17.6934 16.4186 17.6934 16.6451 17.5156C16.8201 17.3783 16.9598 17.0977 16.9638 16.8753C16.9691 16.5874 16.8081 16.3744 16.4862 15.9483C14.9906 13.9689 12.6413 12.6934 9.99955 12.6934Z" stroke="currentColor" stroke-width="1.5" stroke-linecap="round" stroke-linejoin="round"/>
  <path d="M9.99955 10.1934C12.0706 10.1934 13.7496 8.51443 13.7496 6.44336C13.7496 4.37229 12.0706 2.69336 9.99955 2.69336C7.92848 2.69336 6.24955 4.37229 6.24955 6.44336C6.24955 8.51443 7.92848 10.1934 9.99955 10.1934Z" stroke="currentColor" stroke-width="1.5" stroke-linecap="round" stroke-linejoin="round"/>
</svg>