<svg xmlns="http://www.w3.org/2000/svg" width="20" height="20" viewBox="0 0 20 20" fill="none">
  <path d="M6.97967 13.0133L2.26562 17.7274M9.74441 5.53458L8.44367 6.83532C8.33757 6.94142 8.28452 6.99447 8.22407 7.03663C8.17042 7.07405 8.11255 7.10502 8.05166 7.1289C7.98306 7.15581 7.90949 7.17052 7.76235 7.19995L4.70863 7.8107C3.91504 7.96941 3.51825 8.04877 3.33262 8.25798C3.1709 8.44024 3.09705 8.68415 3.13051 8.92551C3.16891 9.20255 3.45505 9.48868 4.02731 10.0609L9.93209 15.9657C10.5044 16.538 10.7905 16.8241 11.0675 16.8625C11.3089 16.896 11.5528 16.8221 11.7351 16.6604C11.9443 16.4748 12.0236 16.078 12.1823 15.2844L12.7931 12.2307C12.8225 12.0835 12.8372 12.01 12.8641 11.9414C12.888 11.8805 12.919 11.8226 12.9564 11.769C12.9986 11.7085 13.0516 11.6555 13.1577 11.5494L14.4585 10.2486C14.5263 10.1808 14.5602 10.1469 14.5975 10.1173C14.6306 10.0909 14.6657 10.0672 14.7024 10.0462C14.7438 10.0226 14.7879 10.0037 14.876 9.96591L16.9547 9.07507C17.5611 8.81517 17.8643 8.68523 18.002 8.47524C18.1225 8.29161 18.1656 8.06786 18.1219 7.85263C18.072 7.60651 17.8388 7.37325 17.3723 6.90673L13.0863 2.62078C12.6198 2.15426 12.3865 1.921 12.1404 1.87111C11.9252 1.82748 11.7014 1.87057 11.5178 1.99101C11.3078 2.12874 11.1779 2.43195 10.918 3.03837L10.0271 5.117C9.98934 5.20518 9.97044 5.24927 9.94682 5.29061C9.92584 5.32734 9.90209 5.36242 9.87578 5.39554C9.84617 5.43282 9.81225 5.46674 9.74441 5.53458Z" stroke="currentColor" stroke-width="1.4" stroke-linecap="round" stroke-linejoin="round"/>
</svg>