<svg xmlns="http://www.w3.org/2000/svg" width="16" height="17" viewBox="0 0 16 17" fill="none">
  <path d="M7.52047 2.65849C7.67412 2.3472 7.75095 2.19155 7.85525 2.14183C7.946 2.09856 8.05142 2.09856 8.14217 2.14183C8.24647 2.19155 8.3233 2.3472 8.47695 2.65849L9.93474 5.6118C9.9801 5.70371 10.0028 5.74966 10.0359 5.78533C10.0653 5.81692 10.1005 5.84252 10.1396 5.8607C10.1837 5.88123 10.2344 5.88864 10.3358 5.90347L13.5967 6.38009C13.9401 6.43028 14.1118 6.45537 14.1912 6.53924C14.2604 6.61221 14.2929 6.71248 14.2797 6.81213C14.2646 6.92667 14.1403 7.04774 13.8917 7.28987L11.533 9.58723C11.4595 9.65884 11.4227 9.69465 11.399 9.73726C11.378 9.77498 11.3645 9.81642 11.3593 9.85929C11.3534 9.9077 11.3621 9.95828 11.3795 10.0594L11.936 13.3044C11.9947 13.6466 12.0241 13.8177 11.9689 13.9193C11.9209 14.0076 11.8356 14.0696 11.7367 14.0879C11.6231 14.109 11.4694 14.0282 11.1621 13.8666L8.24695 12.3335C8.15612 12.2857 8.11071 12.2619 8.06286 12.2525C8.0205 12.2442 7.97692 12.2442 7.93456 12.2525C7.88671 12.2619 7.8413 12.2857 7.75047 12.3335L4.83531 13.8666C4.52798 14.0282 4.37431 14.109 4.26068 14.0879C4.16182 14.0696 4.07651 14.0076 4.02852 13.9193C3.97336 13.8177 4.00271 13.6466 4.06141 13.3044L4.61796 10.0594C4.63531 9.95828 4.64398 9.9077 4.63811 9.85929C4.63291 9.81642 4.61944 9.77498 4.59844 9.73726C4.57471 9.69465 4.53795 9.65884 4.46442 9.58723L2.10574 7.28987C1.85714 7.04774 1.73284 6.92667 1.71772 6.81213C1.70456 6.71248 1.73707 6.61221 1.8062 6.53924C1.88565 6.45537 2.05735 6.43028 2.40073 6.38009L5.66157 5.90347C5.76298 5.88864 5.81368 5.88123 5.85784 5.8607C5.89694 5.84252 5.93214 5.81692 5.96149 5.78533C5.99464 5.74966 6.01732 5.70371 6.06268 5.6118L7.52047 2.65849Z" fill="currentColor"/>
</svg>