<svg width="240" height="180" viewBox="0 0 240 180" fill="none" xmlns="http://www.w3.org/2000/svg">
<g clip-path="url(#clip0_25753_13520)">
<rect width="240" height="180" rx="6.85714" fill="#FF8165"/>
<rect width="240" height="180" rx="6.85714" fill="#161C2F"/>
<g clip-path="url(#clip1_25753_13520)">
<rect width="164.512" height="115.535" transform="translate(68.6514 13.8145)" fill="#161C2F"/>
<g filter="url(#filter0_f_25753_13520)">
<path d="M82.6751 98.1627L73.0979 65.3199L88.745 61.1162L98.0887 93.7255L82.6751 98.1627Z" fill="url(#paint0_linear_25753_13520)" fill-opacity="0.7"/>
</g>
<g filter="url(#filter1_f_25753_13520)">
<path d="M225.486 95.7862L229.69 68.9293L214.043 64.7256L210.072 91.349L225.486 95.7862Z" fill="url(#paint1_linear_25753_13520)" fill-opacity="0.7"/>
</g>
<g filter="url(#filter2_f_25753_13520)">
<path d="M210.071 92.0505L218.245 50.7142L201.759 46.1113L193.75 87.2426L210.071 92.0505Z" fill="url(#paint2_linear_25753_13520)" fill-opacity="0.7"/>
</g>
<g filter="url(#filter3_f_25753_13520)">
<path d="M194.191 87.3798L207.388 30.0918L181.194 20.5664L168.231 77.6209L194.191 87.3798Z" fill="url(#paint3_linear_25753_13520)" fill-opacity="0.7"/>
</g>
<g filter="url(#filter4_f_25753_13520)">
<path d="M97.5069 92.5164L84.3501 42.6978L99.9972 38.4941L112.92 88.0792L97.5069 92.5164Z" fill="url(#paint4_linear_25753_13520)" fill-opacity="0.7"/>
</g>
<g filter="url(#filter5_f_25753_13520)">
<path d="M112.354 88.7569L98.0049 31.4133L114.28 26.791L128.101 84.1092L112.354 88.7569Z" fill="url(#paint5_linear_25753_13520)" fill-opacity="0.7"/>
</g>
<g filter="url(#filter6_f_25753_13520)">
<path d="M127.633 84.5767L113.045 22.6711L148.94 16.2363L161.063 77.5003L127.633 84.5767Z" fill="url(#paint6_linear_25753_13520)" fill-opacity="0.7"/>
</g>
<path d="M157.76 123.421L230.624 96.5641L153.089 76.0127L80.4583 96.5641L157.76 123.421Z" fill="url(#paint7_linear_25753_13520)"/>
<rect x="140.706" y="21.1963" width="62.8136" height="58.9362" rx="2.32643" transform="rotate(13.6155 140.706 21.1963)" fill="white"/>
<path d="M139.262 47.9985L141.126 48.4499L141.802 52.8775L141.873 52.8946L144.5 49.2671L146.363 49.7185L144.815 56.113L143.349 55.7579L144.311 51.7834L144.258 51.7706L141.75 55.3332L140.796 55.1022L140.2 50.7688L140.147 50.756L139.18 54.7482L137.714 54.3931L139.262 47.9985ZM146.912 56.6211L145.287 56.2274L149.009 50.3592L151.005 50.8426L151.62 57.7613L150.003 57.3698L149.902 55.896L147.676 55.3569L146.912 56.6211ZM148.317 54.2964L149.818 54.6601L149.65 52.1883L149.597 52.1754L148.317 54.2964ZM152.101 57.8778L153.65 51.4833L156.264 52.1165C157.704 52.4652 158.39 53.4917 158.073 54.7989C157.861 55.6777 157.306 56.2118 156.527 56.3597L157.268 59.1293L155.616 58.7292L154.974 56.2455L154.135 56.0423L153.602 58.2415L152.101 57.8778ZM154.426 54.8411L155.221 55.0336C155.927 55.2048 156.373 55.023 156.519 54.4224C156.664 53.8218 156.357 53.4295 155.651 53.2583L154.856 53.0658L154.426 54.8411ZM157.687 59.2308L159.236 52.8363L160.737 53.2L160.076 55.9291L160.164 55.9505L162.972 53.7412L164.756 54.1734L161.777 56.4721L163.242 60.5764L161.441 60.14L160.438 57.2137L159.612 57.8457L159.188 59.5945L157.687 59.2308ZM163.609 60.6652L165.157 54.2706L169.582 55.3424L169.285 56.5701L166.362 55.862L166.034 57.2133L168.728 57.8658L168.431 59.0935L165.737 58.441L165.407 59.8012L168.34 60.5114L168.042 61.7391L163.609 60.6652ZM169.828 56.7016L170.125 55.4739L175.504 56.7767L175.207 58.0044L173.264 57.5338L172.012 62.7006L170.52 62.3391L171.771 57.1722L169.828 56.7016ZM177.557 57.2741L176.009 63.6686L174.507 63.3049L176.056 56.9104L177.557 57.2741ZM183.753 58.7747L182.204 65.1692L180.923 64.859L179.236 60.4764L179.192 60.4657L178.283 64.2194L176.781 63.8557L178.33 57.4612L179.628 57.7757L181.289 62.1519L181.342 62.1647L182.252 58.411L183.753 58.7747ZM188.225 62.0645C188.205 61.4894 187.847 61.0754 187.22 60.9236C186.284 60.6968 185.512 61.2579 185.211 62.5032C184.907 63.7574 185.299 64.6097 186.27 64.8451C187.123 65.0515 187.712 64.7221 187.898 64.033L186.608 63.7207L186.876 62.6167L189.614 63.2798L189.41 64.1189C188.997 65.8235 187.575 66.5635 185.941 66.1678C184.112 65.7249 183.18 64.1713 183.67 62.1487C184.177 60.0554 185.81 59.1794 187.506 59.5902C188.981 59.9474 189.902 61.1243 189.753 62.4346L188.225 62.0645Z" fill="#4C78FF"/>
<path d="M146.773 28.2529L147.131 30.4432L148.915 31.7638L146.725 32.1219L145.404 33.9056L145.046 31.7153L143.262 30.3947L145.452 30.0366L146.773 28.2529Z" fill="#4C78FF"/>
<path d="M136.828 69.3301L137.186 71.5203L138.97 72.841L136.779 73.1991L135.459 74.9827L135.101 72.7925L133.317 71.4718L135.507 71.1137L136.828 69.3301Z" fill="#4C78FF"/>
<path d="M193.129 39.4785L193.487 41.6688L195.27 42.9894L193.08 43.3475L191.759 45.1311L191.401 42.9409L189.618 41.6203L191.808 41.2621L193.129 39.4785Z" fill="#4C78FF"/>
<path d="M183.179 80.5547L183.537 82.7449L185.32 84.0656L183.13 84.4237L181.809 86.2073L181.451 84.0171L179.668 82.6964L181.858 82.3383L183.179 80.5547Z" fill="#4C78FF"/>
<path d="M143.494 73.8369L175.003 81.4689" stroke="#4C78FF" stroke-width="0.469866" stroke-dasharray="2.82 2.82"/>
<path d="M153.447 32.7344L184.957 40.3664" stroke="#4C78FF" stroke-width="0.469866" stroke-dasharray="2.82 2.82"/>
<path d="M130.977 79.4805L183.735 92.2591" stroke="#4C78FF" stroke-width="0.465286"/>
<g clip-path="url(#clip2_25753_13520)">
<rect x="126.832" y="78.4766" width="62.8136" height="27.9171" rx="2.32643" transform="rotate(13.6155 126.832 78.4766)" fill="white"/>
<path d="M131.583 89.6887C131.606 89.1871 131.274 88.8231 130.8 88.7083C130.156 88.5523 129.557 88.9309 129.339 89.8325C129.119 90.7393 129.485 91.346 130.124 91.5008C130.593 91.6143 131.053 91.4476 131.266 90.9974L131.837 91.141C131.54 91.8491 130.812 92.2183 129.993 92.0199C129.019 91.784 128.489 90.8866 128.777 89.6965C129.067 88.5012 129.953 87.9521 130.921 88.1867C131.71 88.3776 132.221 88.9923 132.155 89.8272L131.583 89.6887ZM133.168 92.7943C132.374 92.6021 131.999 91.9003 132.208 91.0348C132.419 90.164 133.074 89.7118 133.868 89.904C134.656 90.0949 135.032 90.7967 134.821 91.6674C134.611 92.533 133.956 92.9853 133.168 92.7943ZM133.279 92.3358C133.784 92.4581 134.134 92.0685 134.264 91.5327C134.394 90.9969 134.263 90.4797 133.758 90.3574C133.243 90.2326 132.89 90.6325 132.76 91.1683C132.63 91.7041 132.764 92.211 133.279 92.3358ZM135.863 91.6308L135.461 93.2898L134.91 93.1563L135.587 90.3587L136.118 90.4872L136.007 90.9458L136.038 90.9532C136.244 90.6869 136.565 90.5572 136.982 90.6583C137.559 90.7981 137.848 91.2498 137.679 91.9454L137.249 93.7228L136.703 93.5906L137.117 91.8801C137.216 91.473 137.053 91.1772 136.682 91.0874C136.306 90.9963 135.972 91.1826 135.863 91.6308ZM139.789 91.3763L139.683 91.8142L139.111 91.6757L138.739 93.2111C138.663 93.5253 138.809 93.6207 138.983 93.6683C139.06 93.687 139.186 93.7067 139.265 93.7202L139.149 94.1994C139.069 94.191 138.948 94.1726 138.799 94.1364C138.366 94.0315 138.037 93.7009 138.165 93.1921L138.565 91.5435L138.153 91.4436L138.259 91.0057L138.671 91.1055L138.833 90.4357L139.379 90.568L139.217 91.2378L139.789 91.3763ZM140.692 94.6168C139.868 94.4171 139.5 93.7281 139.711 92.8574C139.919 91.997 140.578 91.5293 141.356 91.7177C141.995 91.8725 142.502 92.4152 142.257 93.425L142.21 93.6208L140.221 93.1391C140.108 93.6735 140.346 94.053 140.807 94.1647C141.121 94.2408 141.355 94.1555 141.489 94.0079L142.045 94.1427C141.811 94.5661 141.305 94.7653 140.692 94.6168ZM140.326 92.7282L141.768 93.0776C141.872 92.6499 141.674 92.2747 141.251 92.1723C140.811 92.0657 140.442 92.3364 140.326 92.7282ZM143.294 93.4308L142.893 95.0898L142.341 94.9563L143.019 92.1587L143.55 92.2872L143.439 92.7458L143.469 92.7533C143.676 92.4869 143.996 92.3572 144.414 92.4583C144.991 92.5981 145.279 93.0498 145.111 93.7454L144.68 95.5228L144.134 95.3906L144.549 93.6801C144.647 93.273 144.484 92.9772 144.113 92.8874C143.737 92.7963 143.403 92.9826 143.294 93.4308ZM147.22 93.1763L147.114 93.6143L146.542 93.4757L146.171 95.0111C146.094 95.3254 146.24 95.4207 146.414 95.4683C146.492 95.487 146.618 95.5067 146.696 95.5202L146.58 95.9994C146.5 95.991 146.379 95.9726 146.23 95.9364C145.797 95.8315 145.468 95.501 145.597 94.9921L145.996 93.3435L145.584 93.2436L145.69 92.8057L146.102 92.9055L146.265 92.2358L146.811 92.368L146.648 93.0378L147.22 93.1763ZM147.532 94.8718C147.331 94.8232 147.201 94.6171 147.255 94.4174C147.299 94.2152 147.509 94.0915 147.709 94.1402C147.905 94.1876 148.035 94.3937 147.987 94.5946C147.938 94.7956 147.728 94.9192 147.532 94.8718ZM151.32 94.4692C151.343 93.9676 151.011 93.6036 150.537 93.4888C149.893 93.3328 149.294 93.7113 149.076 94.6129C148.856 95.5197 149.222 96.1265 149.861 96.2812C150.33 96.3948 150.79 96.2281 151.003 95.7778L151.573 95.9215C151.276 96.6295 150.549 96.9988 149.729 96.8003C148.756 96.5645 148.226 95.6671 148.514 94.4769C148.804 93.2816 149.689 92.7325 150.658 92.9671C151.446 93.1581 151.957 93.7728 151.891 94.6077L151.32 94.4692ZM151.779 97.2423L152.683 93.5122L154.012 93.8341C154.878 94.0438 155.188 94.6317 155.022 95.3169C154.9 95.8192 154.581 96.1456 154.087 96.2032L154.546 97.9125L153.902 97.7565L153.485 96.1665L153.449 96.1578L152.687 95.9731L152.346 97.3796L151.779 97.2423ZM152.805 95.4836L153.511 95.6546C154.063 95.7881 154.348 95.6009 154.45 95.1784C154.553 94.7559 154.39 94.4382 153.838 94.3047L153.132 94.1338L152.805 95.4836ZM155.818 94.2715L156.508 94.4387L156.988 97.6148L157.034 97.6261L158.914 95.0215L159.605 95.1887L158.701 98.9189L158.16 98.7878L158.813 96.0933L158.777 96.0845L157.033 98.5094L156.585 98.4008L156.14 95.4404L156.109 95.433L155.455 98.1327L154.914 98.0016L155.818 94.2715ZM159.969 97.8841C159.768 97.8355 159.638 97.6294 159.692 97.4297C159.735 97.2276 159.945 97.1039 160.146 97.1525C160.342 97.2 160.472 97.406 160.423 97.6069C160.375 97.8079 160.165 97.9316 159.969 97.8841ZM163.76 97.4442C163.728 96.9674 163.458 96.6184 162.963 96.4986C162.335 96.3463 161.731 96.7236 161.512 97.6253C161.294 98.5269 161.653 99.1375 162.313 99.2973C162.908 99.4414 163.393 99.1608 163.548 98.5656L162.631 98.3435L162.745 97.8746L164.213 98.2303L164.111 98.6528C163.882 99.5956 163.088 100.036 162.182 99.8164C161.172 99.5718 160.665 98.6691 160.951 97.4892C161.239 96.2991 162.121 95.7436 163.084 95.977C163.893 96.1729 164.389 96.8275 164.342 97.5852L163.76 97.4442ZM164.242 100.261L164.92 97.4633L165.45 97.5918L165.343 98.0349L165.374 98.0424C165.549 97.7685 165.872 97.6504 166.202 97.7303C166.269 97.7465 166.376 97.7779 166.431 97.7968L166.304 98.3223C166.26 98.3007 166.136 98.2489 166.023 98.2215C165.642 98.1291 165.295 98.3233 165.206 98.6891L164.793 100.394L164.242 100.261ZM167.121 101.018C166.328 100.826 165.952 100.124 166.162 99.2587C166.373 98.3879 167.028 97.9357 167.821 98.1279C168.609 98.3188 168.985 99.0206 168.774 99.8913C168.564 100.757 167.909 101.209 167.121 101.018ZM167.232 100.56C167.737 100.682 168.088 100.292 168.217 99.7566C168.347 99.2208 168.216 98.7036 167.711 98.5813C167.196 98.4565 166.843 98.8564 166.713 99.3922C166.583 99.928 166.717 100.435 167.232 100.56ZM169.378 101.505L169.237 98.509L169.803 98.6462L169.853 100.829L169.884 100.837L170.927 98.9183L171.493 99.0555L171.54 101.227L171.571 101.234L172.606 99.3251L173.173 99.4624L171.676 102.062L171.115 101.926L171.036 99.7738L170.995 99.7638L169.945 101.642L169.378 101.505ZM174.819 99.861L174.713 100.299L174.141 100.16L173.769 101.696C173.693 102.01 173.839 102.105 174.013 102.153C174.09 102.172 174.216 102.191 174.295 102.205L174.179 102.684C174.099 102.676 173.978 102.657 173.829 102.621C173.396 102.516 173.067 102.186 173.195 101.677L173.595 100.028L173.183 99.9283L173.289 99.4904L173.701 99.5902L173.863 98.9205L174.409 99.0527L174.247 99.7225L174.819 99.861ZM175.576 101.25L175.174 102.909L174.623 102.775L175.526 99.0451L176.067 99.1762L175.73 100.567L175.766 100.576C175.974 100.304 176.278 100.176 176.716 100.282C177.293 100.422 177.588 100.87 177.418 101.571L176.988 103.348L176.436 103.215L176.851 101.504C176.951 101.092 176.786 100.801 176.415 100.711C176.029 100.618 175.685 100.802 175.576 101.25ZM126.802 98.3948L127.705 94.6646L129.034 94.9866C129.9 95.1962 130.201 95.8202 130.034 96.5106C129.868 97.1958 129.313 97.6177 128.448 97.4081L127.685 97.2234L127.368 98.532L126.802 98.3948ZM127.803 96.7391L128.508 96.9101C129.06 97.0436 129.361 96.7894 129.462 96.372C129.565 95.9496 129.412 95.5907 128.86 95.4572L128.154 95.2862L127.803 96.7391ZM131.015 99.4753C130.191 99.2756 129.823 98.5866 130.034 97.7159C130.242 96.8555 130.901 96.3878 131.679 96.5762C132.318 96.731 132.825 97.2737 132.58 98.2835L132.533 98.4793L130.544 97.9976C130.431 98.532 130.669 98.9115 131.13 99.0232C131.444 99.0993 131.678 99.014 131.812 98.8664L132.368 99.0012C132.134 99.4247 131.628 99.6238 131.015 99.4753ZM130.649 97.5867L132.091 97.9361C132.195 97.5085 131.997 97.1332 131.574 97.0309C131.134 96.9242 130.765 97.1949 130.649 97.5867ZM132.664 99.8148L133.342 97.0172L133.873 97.1457L133.765 97.5888L133.796 97.5963C133.972 97.3224 134.295 97.2044 134.625 97.2842C134.691 97.3004 134.798 97.3318 134.854 97.3507L134.727 97.8762C134.683 97.8547 134.559 97.8029 134.446 97.7754C134.064 97.6831 133.717 97.8772 133.629 98.243L133.216 99.9483L132.664 99.8148ZM136.642 97.8165L136.536 98.2544L135.933 98.1084L135.361 100.468L134.81 100.335L135.382 97.9749L134.949 97.87L135.055 97.4321L135.488 97.5369L135.566 97.2123C135.687 96.7126 136.075 96.5066 136.591 96.6314C136.725 96.6638 136.855 96.7117 136.958 96.7585L136.847 97.2171C136.748 97.1767 136.672 97.1528 136.62 97.1403C136.326 97.0692 136.164 97.1552 136.098 97.4283L136.039 97.6705L136.642 97.8165ZM137.406 101.023C136.612 100.831 136.237 100.129 136.447 99.2637C136.657 98.393 137.312 97.9407 138.106 98.1329C138.894 98.3238 139.27 99.0257 139.059 99.8964C138.849 100.762 138.194 101.214 137.406 101.023ZM137.517 100.565C138.022 100.687 138.372 100.297 138.502 99.7616C138.632 99.2258 138.501 98.7086 137.996 98.5863C137.481 98.4615 137.128 98.8614 136.998 99.3972C136.868 99.933 137.002 100.44 137.517 100.565ZM139.148 101.385L139.825 98.5876L140.356 98.7161L140.249 99.1592L140.28 99.1667C140.455 98.8928 140.778 98.7747 141.108 98.8546C141.175 98.8708 141.282 98.9022 141.337 98.9211L141.21 99.4466C141.166 99.4251 141.042 99.3732 140.929 99.3458C140.548 99.2534 140.201 99.4476 140.112 99.8134L139.699 101.519L139.148 101.385ZM140.948 101.821L141.626 99.0237L142.157 99.1522L142.046 99.6108L142.077 99.6183C142.271 99.3327 142.588 99.2185 142.959 99.3084C143.33 99.3982 143.548 99.6473 143.591 99.9852L143.622 99.9926C143.83 99.7211 144.175 99.6029 144.582 99.7014C145.087 99.8237 145.37 100.231 145.215 100.869L144.761 102.745L144.21 102.611L144.651 100.787C144.743 100.411 144.544 100.194 144.256 100.124C143.9 100.038 143.641 100.232 143.56 100.567L143.128 102.349L142.582 102.217L143.031 100.362C143.104 100.058 142.942 99.8061 142.643 99.7337C142.334 99.6588 142.009 99.8528 141.918 100.229L141.5 101.955L140.948 101.821ZM145.372 102.058C145.526 101.419 146.107 101.385 146.621 101.472C146.81 101.504 147.235 101.582 147.368 101.609L147.416 101.386C147.492 101.072 147.347 100.84 146.971 100.749C146.646 100.67 146.414 100.772 146.307 100.965L145.761 100.833C145.925 100.381 146.439 100.151 147.098 100.311C147.542 100.418 148.156 100.742 147.96 101.551L147.509 103.41L146.974 103.281L147.066 102.899L147.045 102.894C146.886 103.079 146.572 103.249 146.109 103.137C145.578 103.008 145.239 102.604 145.372 102.058ZM145.906 102.193C145.841 102.461 146.029 102.654 146.338 102.729C146.787 102.837 147.127 102.603 147.208 102.268L147.27 102.011L146.6 101.897C146.233 101.836 145.974 101.915 145.906 102.193ZM149.011 102.018L148.609 103.677L148.058 103.543L148.736 100.746L149.266 100.874L149.155 101.333L149.186 101.34C149.393 101.074 149.713 100.944 150.13 101.045C150.707 101.185 150.996 101.637 150.828 102.332L150.397 104.11L149.851 103.978L150.265 102.267C150.364 101.86 150.201 101.564 149.83 101.474C149.454 101.383 149.12 101.57 149.011 102.018ZM152.122 104.588C151.308 104.391 150.959 103.668 151.163 102.828C151.37 101.973 152.024 101.504 152.812 101.695C153.451 101.85 153.823 102.338 153.743 102.918L153.207 102.789C153.214 102.512 153.056 102.24 152.711 102.156C152.258 102.046 151.863 102.349 151.718 102.946C151.569 103.559 151.777 104.008 152.236 104.119C152.545 104.194 152.823 104.081 152.964 103.793L153.499 103.923C153.307 104.449 152.782 104.747 152.122 104.588ZM154.881 105.256C154.057 105.056 153.689 104.367 153.9 103.497C154.108 102.636 154.767 102.168 155.545 102.357C156.184 102.512 156.69 103.054 156.446 104.064L156.398 104.26L154.41 103.778C154.297 104.313 154.535 104.692 154.996 104.804C155.31 104.88 155.544 104.795 155.677 104.647L156.234 104.782C156 105.205 155.494 105.404 154.881 105.256ZM154.515 103.367L155.957 103.717C156.061 103.289 155.863 102.914 155.44 102.811C155 102.705 154.631 102.976 154.515 103.367ZM157.198 104.415C156.997 104.367 156.867 104.161 156.921 103.961C156.964 103.759 157.174 103.635 157.375 103.684C157.571 103.731 157.701 103.937 157.652 104.138C157.604 104.339 157.394 104.463 157.198 104.415ZM157.996 105.95L157.393 105.804L159.636 102.399L160.29 102.557L160.732 106.613L160.129 106.467L160.027 105.401L158.574 105.049L157.996 105.95ZM158.854 104.615L159.977 104.887L159.811 103.161L159.786 103.155L158.854 104.615ZM161.09 106.7L161.993 102.97L164.332 103.536L164.214 104.026L162.441 103.596L162.168 104.725L163.817 105.124L163.699 105.608L162.051 105.209L161.775 106.348L163.568 106.782L163.449 107.271L161.09 106.7Z" fill="#4C78FF"/>
</g>
<path d="M201.198 107.464L157.526 123.578L155.892 131.985L189.988 130.818L201.198 107.464Z" fill="#161C2F"/>
</g>
<rect width="155.721" height="50.6512" transform="matrix(1 0 0 -1 76.6047 132.279)" fill="url(#paint8_linear_25753_13520)"/>
<path d="M17.3321 22.0703V16.7429H17.9943V21.4816H20.4667V22.0703H17.3321ZM21.1839 22.0703V16.7429H24.4142V17.3316H21.8462V19.1123H24.245V19.6936H21.8462V21.4816H24.451V22.0703H21.1839ZM24.999 17.3316V16.7429H29.0166V17.3316H27.3463V22.0703H26.6767V17.3316H24.999ZM30.5359 16.7503L29.9619 18.7517H29.4174L29.8221 16.7503H30.5359ZM34.1376 18.0821C34.0787 17.5597 33.6004 17.258 32.9602 17.258C32.2538 17.258 31.7903 17.6259 31.7903 18.1336C31.7903 18.6929 32.4157 18.8989 32.8204 19.0019L33.3502 19.1491C33.9242 19.2962 34.8587 19.6274 34.8587 20.6207C34.8587 21.489 34.1596 22.166 32.9235 22.166C31.7756 22.166 31.0618 21.5699 31.0029 20.687H31.6799C31.7388 21.283 32.2906 21.5626 32.9235 21.5626C33.6593 21.5626 34.2112 21.1873 34.2112 20.606C34.2112 20.0909 33.7181 19.8923 33.1589 19.7304L32.504 19.5538C31.6652 19.311 31.1501 18.8842 31.1501 18.1631C31.1501 17.2654 31.9522 16.6693 32.9823 16.6693C34.0125 16.6693 34.7557 17.2727 34.7851 18.0821H34.1376ZM41.0024 18.4206C40.8479 17.6848 40.2151 17.2874 39.5161 17.2874C38.5521 17.2874 37.8016 18.0306 37.8016 19.4066C37.8016 20.7826 38.5521 21.5258 39.5161 21.5258C40.2151 21.5258 40.8406 21.1285 41.0024 20.4H41.6647C41.4734 21.489 40.5977 22.1439 39.5161 22.1439C38.1474 22.1439 37.1614 21.0917 37.1614 19.4066C37.1614 17.7216 38.1474 16.6693 39.5161 16.6693C40.5904 16.6693 41.466 17.3169 41.6647 18.4206H41.0024ZM42.6542 22.0703H41.9625L43.9124 16.7429H44.6115L46.5614 22.0703H45.8624L45.3326 20.5692H43.1913L42.6542 22.0703ZM43.39 19.9879H45.1265L44.2803 17.6038H44.2362L43.39 19.9879ZM47.1168 22.0703V16.7429H48.9269C50.1778 16.7429 50.7444 17.4346 50.7444 18.3838C50.7444 19.0865 50.428 19.6421 49.751 19.8775L50.9504 22.0703H50.1778L49.0667 19.9953L48.9343 20.0026H47.779V22.0703H47.1168ZM47.779 19.3993H48.9048C49.751 19.3993 50.0895 19.0166 50.0895 18.3838C50.0895 17.7436 49.751 17.3316 48.8975 17.3316H47.779V19.3993ZM51.5352 22.0703V16.7429H54.7655V17.3316H52.1974V19.1123H54.5963V19.6936H52.1974V21.4816H54.8023V22.0703H51.5352ZM55.6446 22.0703V16.7429H58.8749V17.3316H56.3068V19.1123H58.7056V19.6936H56.3068V21.4816H58.9117V22.0703H55.6446ZM59.754 22.0703V16.7429H61.5641C62.815 16.7429 63.3816 17.4346 63.3816 18.3838C63.3816 19.0865 63.0652 19.6421 62.3883 19.8775L63.5877 22.0703H62.815L61.7039 19.9953L61.5715 20.0026H60.4162V22.0703H59.754ZM60.4162 19.3993H61.5421C62.3883 19.3993 62.7267 19.0166 62.7267 18.3838C62.7267 17.7436 62.3883 17.3316 61.5347 17.3316H60.4162V19.3993Z" fill="#697FC2"/>
<g filter="url(#filter7_d_25753_13520)">
<path d="M21.5116 131.149V136.859H17.4007V131.149H21.5116ZM18.3132 131.885V136.103H20.5893V131.885H18.3132ZM23.9153 130.276V133.719H25.3281V134.504H23.9153V139.066H22.9832V130.276H23.9153ZM29.4141 131.296C29.4141 132.13 29.3307 132.939 29.1001 133.7H30.3462V130.501H31.2291V138.635H30.3462V134.455H28.8156C28.3251 135.529 27.4764 136.486 26.0882 137.261L25.5584 136.614C26.8338 135.902 27.604 135.044 28.0406 134.063L25.6859 134.308L25.5584 133.503L28.3055 133.337C28.4134 132.93 28.4771 132.503 28.5115 132.061H25.99V131.296H29.4141ZM33.0834 130.276V139.066H32.2004V130.276H33.0834ZM38.7196 130.913V131.659H35.4329V132.63H38.4743V133.366H35.4329V134.367C37.194 134.377 38.2192 134.347 39.4064 134.141L39.5045 134.897C38.2291 135.103 37.14 135.132 35.2171 135.132H34.491V130.913H38.7196ZM41.2803 130.285V135.691H40.3482V130.285H41.2803ZM38.337 135.809C40.1815 135.809 41.3293 136.408 41.3293 137.428C41.3293 138.458 40.1815 139.057 38.337 139.047C36.4729 139.057 35.3446 138.458 35.3446 137.428C35.3446 136.408 36.4729 135.809 38.337 135.809ZM38.337 136.545C37.0223 136.545 36.2767 136.869 36.2767 137.428C36.2767 138.007 37.0223 138.331 38.337 138.331C39.6222 138.331 40.3973 138.007 40.3973 137.428C40.3973 136.869 39.6222 136.545 38.337 136.545ZM52.013 130.285V136.986H51.081V135.171H49.6682V134.426H51.081V133.337H49.6682V132.571H51.081V130.285H52.013ZM49.6388 131.306V132.061H44.694V131.306H46.7543V130.276H47.6765V131.306H49.6388ZM47.2056 132.483C48.3927 132.483 49.2267 133.17 49.2365 134.171C49.2267 135.181 48.3927 135.868 47.2056 135.868C46.0185 135.868 45.1845 135.181 45.1845 134.171C45.1845 133.17 46.0185 132.483 47.2056 132.483ZM47.2056 133.209C46.5188 133.219 46.0577 133.592 46.0577 134.171C46.0577 134.769 46.5188 135.142 47.2056 135.142C47.8826 135.142 48.3535 134.769 48.3633 134.171C48.3535 133.592 47.8826 133.219 47.2056 133.209ZM52.2092 138.125V138.88H46.2736V136.398H47.2154V138.125H52.2092ZM56.4032 131.855C56.4032 132.984 57.2469 134.063 58.6009 134.494L58.1201 135.22C57.1096 134.887 56.3443 134.19 55.9519 133.307C55.5545 134.264 54.7746 135.019 53.7248 135.387L53.244 134.671C54.6078 134.2 55.4515 133.052 55.4613 131.855V131.61H53.4893V130.855H58.336V131.61H56.4032V131.855ZM60.4355 130.276V135.583H59.5035V130.276H60.4355ZM60.4355 136.025V139.066H59.5035V136.78H54.4802V136.025H60.4355ZM64.6687 132.866C64.6687 134.259 65.5812 135.809 66.9155 136.437L66.3857 137.163C65.3997 136.687 64.6197 135.696 64.2272 134.543C63.8201 135.804 62.9959 136.888 61.9903 137.389L61.4409 136.653C62.7752 136.015 63.7465 134.357 63.7465 132.866V131.934H61.7647V131.159H66.5819V131.934H64.6687V132.866ZM68.4558 130.276V133.759H69.8686V134.543H68.4558V139.066H67.5237V130.276H68.4558ZM79.7968 130.276V136.849H78.9138V130.276H79.7968ZM78.0799 130.433V136.584H77.1969V133.474H76.1079V135.181H72.674V131.119H76.1079V132.709H77.1969V130.433H78.0799ZM80.0519 138.125V138.88H73.9691V136.035H74.8913V138.125H80.0519ZM73.5472 131.855V134.455H75.2445V131.855H73.5472ZM87.8956 134.779V135.525H85.2368V137.242H88.808V138.007H80.7629V137.242H84.3047V135.525H81.7735V130.953H87.8073V131.718H82.7153V132.846H87.6209V133.582H82.7153V134.779H87.8956ZM91.8639 130.835C93.2178 130.835 94.2283 131.688 94.2283 132.925C94.2283 134.014 93.4434 134.803 92.3348 134.975V136.368C93.1148 136.334 93.8947 136.275 94.6208 136.182L94.6894 136.878C92.8351 137.202 90.7846 137.212 89.2639 137.202L89.1168 136.437C89.7986 136.432 90.5835 136.427 91.4027 136.408V134.975C90.2647 134.813 89.4896 134.019 89.4994 132.925C89.4896 131.688 90.4805 130.835 91.8639 130.835ZM91.8639 131.62C91.0201 131.63 90.402 132.14 90.402 132.925C90.402 133.71 91.0201 134.23 91.8639 134.22C92.6978 134.23 93.3061 133.71 93.3159 132.925C93.3061 132.14 92.6978 131.63 91.8639 131.62ZM96.0826 130.276V133.847H97.4365V134.632H96.0826V139.066H95.1506V130.276H96.0826ZM106.825 130.276V132.552H108.101V133.347H106.825V135.574H105.893V130.276H106.825ZM106.825 136.035V138.958H101.213V136.035H106.825ZM102.126 136.771V138.203H105.903V136.771H102.126ZM105.167 131.168V131.914H99.928V131.168H102.086V130.207H103.018V131.168H105.167ZM102.548 132.297C103.813 132.297 104.677 132.925 104.677 133.867C104.677 134.818 103.813 135.436 102.548 135.446C101.262 135.436 100.409 134.818 100.409 133.867C100.409 132.925 101.262 132.297 102.548 132.297ZM102.548 133.013C101.802 133.003 101.302 133.337 101.311 133.867C101.302 134.416 101.802 134.74 102.548 134.74C103.293 134.74 103.794 134.416 103.803 133.867C103.794 133.337 103.293 133.003 102.548 133.013ZM110.558 131.316C110.548 133.288 110.303 135.319 109.077 137.045L108.35 136.633C109.376 135.26 109.685 133.739 109.753 132.081H108.557V131.316H110.558ZM112.51 131.316C112.51 132.056 112.496 132.866 112.402 133.68H113.433V130.501H114.316V138.635H113.433V134.436H112.295C112.093 135.529 111.725 136.614 111.049 137.575L110.323 137.153C111.461 135.628 111.667 133.778 111.706 132.081H110.823V131.316H112.51ZM115.983 130.276V139.066H115.091V130.276H115.983ZM125.922 130.276V133.837H127.334V134.612H125.922V139.066H124.999V130.276H125.922ZM124.234 131.649V132.414H119.024V131.649H121.193V130.393H122.125V131.649H124.234ZM121.664 133.062C122.919 133.062 123.842 133.906 123.851 135.103C123.842 136.309 122.919 137.143 121.664 137.153C120.398 137.143 119.476 136.309 119.476 135.103C119.476 133.906 120.398 133.062 121.664 133.062ZM121.664 133.827C120.918 133.827 120.359 134.347 120.368 135.103C120.359 135.868 120.918 136.378 121.664 136.368C122.409 136.378 122.959 135.868 122.959 135.103C122.959 134.347 122.409 133.827 121.664 133.827ZM134.648 132.846V133.592H128.595V130.59H129.517V132.846H134.648ZM135.57 134.7V135.446H127.525V134.7H135.57ZM134.707 138.095V138.86H128.526V136.28H129.458V138.095H134.707Z" fill="white"/>
</g>
<g filter="url(#filter8_d_25753_13520)">
<path d="M23.9181 146.091V154.852H17.5584V146.091H23.9181ZM19.3921 147.547V153.382H22.0698V147.547H19.3921ZM27.5854 144.84V149.831H29.5355V151.374H27.5854V158.083H25.7226V144.84H27.5854ZM35.5819 146.324C35.5746 147.568 35.4728 148.747 35.189 149.846H36.6152V145.131H38.347V157.501H36.6152V151.345H34.6651C33.9374 152.917 32.7004 154.299 30.6775 155.449L29.6443 154.183C31.3252 153.208 32.373 152.109 33.006 150.821L29.9208 151.141L29.717 149.569L33.5299 149.366C33.6464 148.871 33.7191 148.354 33.7628 147.809H30.3719V146.324H35.5819ZM41.1703 144.84V158.083H39.4239V144.84H41.1703ZM49.3851 145.757V147.241H44.83V148.274H48.9922V149.715H44.83V150.777C47.1585 150.777 48.6356 150.748 50.3165 150.472L50.5057 151.927C48.6138 152.233 46.9402 152.276 44.1023 152.262H42.9672V145.757H49.3851ZM53.329 144.854V152.873H51.4662V144.854H53.329ZM48.8175 153.048C51.6117 153.048 53.3872 153.979 53.4017 155.565C53.3872 157.166 51.6117 158.083 48.8175 158.083C45.9797 158.083 44.2624 157.166 44.2624 155.565C44.2624 153.979 45.9797 153.048 48.8175 153.048ZM48.8175 154.488C47.042 154.488 46.1107 154.852 46.1107 155.565C46.1107 156.293 47.042 156.671 48.8175 156.671C50.5784 156.671 51.5389 156.293 51.5389 155.565C51.5389 154.852 50.5784 154.488 48.8175 154.488ZM62.9041 147.838C62.9041 150.326 63.9082 152.742 66.1203 153.703L64.9851 155.187C63.5153 154.467 62.533 153.15 61.9872 151.52C61.4051 153.251 60.3864 154.67 58.8729 155.42L57.7086 153.906C59.9789 152.888 61.0122 150.326 61.0267 147.838V145.858H62.9041V147.838ZM69.0746 144.84V158.112H67.2409V150.501H64.6359V149.002H67.2409V144.84H69.0746ZM82.5575 152.611V154.066H79.7634V158.083H77.886V154.066H75.1209V158.083H73.2727V154.066H70.4349V152.611H82.5575ZM81.1605 145.233V149.089H73.753V150.166H81.4661V151.651H71.8756V147.736H79.254V146.746H71.8319V145.233H81.1605ZM90.0952 145.378C92.0308 145.378 93.4279 146.47 93.4279 148.071C93.4279 149.366 92.4746 150.355 91.0557 150.661V151.621C92.089 151.563 93.1295 151.469 94.0973 151.33L94.2428 152.684C91.5214 153.164 88.4798 153.222 86.2678 153.222L86.0786 151.752C86.9954 151.752 88.0651 151.745 89.1929 151.709V150.676C87.7303 150.384 86.748 149.388 86.7626 148.071C86.748 146.47 88.1451 145.378 90.0952 145.378ZM90.0952 146.775C89.1493 146.79 88.4798 147.241 88.4944 148.071C88.4798 148.871 89.1493 149.351 90.0952 149.351C91.0412 149.351 91.6815 148.871 91.6815 148.071C91.6815 147.241 91.0412 146.79 90.0952 146.775ZM96.7023 144.854V149.016H98.3905V150.559H96.7023V154.954H94.8395V144.854H96.7023ZM97.1534 156.351V157.836H87.8249V154.066H89.6877V156.351H97.1534ZM103.666 146.644C103.651 148.42 104.568 150.05 106.693 150.705L105.718 152.16C104.291 151.665 103.324 150.748 102.778 149.555C102.181 150.937 101.111 152.029 99.5179 152.567L98.5429 151.083C100.813 150.355 101.774 148.58 101.788 146.732V145.524H103.666V146.644ZM109.821 144.84V152.597H107.973V148.784H105.485V147.27H107.973V144.84H109.821ZM105.295 152.946C108.119 152.946 109.851 153.892 109.865 155.522C109.851 157.152 108.119 158.083 105.295 158.083C102.472 158.083 100.74 157.152 100.74 155.522C100.74 153.892 102.472 152.946 105.295 152.946ZM105.295 154.387C103.535 154.387 102.589 154.765 102.589 155.522C102.589 156.249 103.535 156.642 105.295 156.642C107.056 156.642 108.017 156.249 108.017 155.522C108.017 154.765 107.056 154.387 105.295 154.387ZM120.357 144.956C123.399 144.956 125.16 145.757 125.174 147.226C125.16 148.536 123.741 149.315 121.245 149.453V150.224H126.397V151.694H114.318V150.224H119.411V149.453C116.937 149.3 115.525 148.522 115.525 147.226C115.525 145.757 117.301 144.956 120.357 144.956ZM120.357 146.324C118.407 146.324 117.461 146.615 117.476 147.226C117.461 147.867 118.407 148.129 120.357 148.129C122.322 148.129 123.253 147.867 123.253 147.226C123.253 146.615 122.322 146.324 120.357 146.324ZM124.927 152.422V155.798H117.548V156.599H125.276V157.996H115.729V154.503H123.093V153.804H115.715V152.422H124.927ZM137.959 144.854V154.372H136.096V144.854H137.959ZM138.308 156.366V157.85H129.081V153.411H130.959V156.366H138.308ZM130.697 145.698C132.734 145.698 134.32 147.095 134.32 149.031C134.32 151.01 132.734 152.393 130.697 152.393C128.659 152.393 127.073 151.01 127.073 149.031C127.073 147.095 128.659 145.698 130.697 145.698ZM130.697 147.314C129.663 147.299 128.877 147.954 128.892 149.031C128.877 150.137 129.663 150.777 130.697 150.777C131.701 150.777 132.487 150.137 132.487 149.031C132.487 147.954 131.701 147.299 130.697 147.314ZM150.641 144.854V154.852H148.778V153.804H146.246V152.538H148.778V144.854H150.641ZM150.932 156.366V157.85H141.065V153.892H142.913V152.131C141.727 152.182 140.6 152.189 139.595 152.189L139.377 150.719C141.807 150.705 145.082 150.676 147.876 150.326L147.978 151.651C146.93 151.825 145.846 151.949 144.776 152.029V154.547H142.913V156.366H150.932ZM143.685 145.305C145.606 145.291 146.988 146.266 146.988 147.678C146.988 149.089 145.606 150.006 143.685 150.006C141.72 150.006 140.352 149.089 140.352 147.678C140.352 146.266 141.706 145.291 143.685 145.305ZM143.685 146.659C142.739 146.659 142.099 147.023 142.113 147.678C142.099 148.318 142.739 148.667 143.685 148.667C144.573 148.667 145.213 148.318 145.227 147.678C145.213 147.023 144.573 146.659 143.685 146.659ZM161.293 146.091V147.547H159.256C159.314 148.616 160.114 149.693 161.715 150.21L160.929 151.563C159.707 151.199 158.87 150.464 158.397 149.569C157.91 150.552 157.08 151.374 155.865 151.796L155.05 150.414C156.622 149.824 157.437 148.638 157.495 147.547H155.443V146.091H157.495V144.883H159.256V146.091H161.293ZM166.459 144.854V151.796H164.699V149.06H163.636V151.709H161.89V145.087H163.636V147.59H164.699V144.854H166.459ZM166.459 152.276V155.74H159.256V156.57H166.911V157.937H157.408V154.401H164.626V153.673H157.393V152.276H166.459ZM178.705 144.854V154.605H176.857V144.854H178.705ZM179.055 156.366V157.85H169.799V153.79H171.647V156.366H179.055ZM174.456 145.713V149.933H170.148V151.403C172.513 151.396 174.027 151.33 175.737 150.996L175.94 152.48C174.019 152.844 172.302 152.917 169.493 152.917H168.329V148.565H172.608V147.197H168.315V145.713H174.456ZM185.319 148.449C185.319 150.588 186.411 152.873 188.638 153.804L187.633 155.26C186.069 154.598 184.992 153.281 184.403 151.665C183.799 153.419 182.7 154.874 181.143 155.594L180.08 154.125C182.278 153.15 183.413 150.69 183.413 148.449V147.634H180.604V146.12H188.085V147.634H185.319V148.449ZM191.272 144.84V158.083H189.394V144.84H191.272Z" fill="white"/>
</g>
</g>
<defs>
<filter id="filter0_f_25753_13520" x="72.1637" y="60.1821" width="26.859" height="38.9152" filterUnits="userSpaceOnUse" color-interpolation-filters="sRGB">
<feFlood flood-opacity="0" result="BackgroundImageFix"/>
<feBlend mode="normal" in="SourceGraphic" in2="BackgroundImageFix" result="shape"/>
<feGaussianBlur stdDeviation="0.467077" result="effect1_foregroundBlur_25753_13520"/>
</filter>
<filter id="filter1_f_25753_13520" x="209.138" y="63.7914" width="21.4855" height="32.9289" filterUnits="userSpaceOnUse" color-interpolation-filters="sRGB">
<feFlood flood-opacity="0" result="BackgroundImageFix"/>
<feBlend mode="normal" in="SourceGraphic" in2="BackgroundImageFix" result="shape"/>
<feGaussianBlur stdDeviation="0.467077" result="effect1_foregroundBlur_25753_13520"/>
</filter>
<filter id="filter2_f_25753_13520" x="192.815" y="45.1772" width="26.3637" height="47.8078" filterUnits="userSpaceOnUse" color-interpolation-filters="sRGB">
<feFlood flood-opacity="0" result="BackgroundImageFix"/>
<feBlend mode="normal" in="SourceGraphic" in2="BackgroundImageFix" result="shape"/>
<feGaussianBlur stdDeviation="0.467077" result="effect1_foregroundBlur_25753_13520"/>
</filter>
<filter id="filter3_f_25753_13520" x="167.296" y="19.6323" width="41.0263" height="68.6818" filterUnits="userSpaceOnUse" color-interpolation-filters="sRGB">
<feFlood flood-opacity="0" result="BackgroundImageFix"/>
<feBlend mode="normal" in="SourceGraphic" in2="BackgroundImageFix" result="shape"/>
<feGaussianBlur stdDeviation="0.467077" result="effect1_foregroundBlur_25753_13520"/>
</filter>
<filter id="filter4_f_25753_13520" x="83.4159" y="37.56" width="30.4386" height="55.8908" filterUnits="userSpaceOnUse" color-interpolation-filters="sRGB">
<feFlood flood-opacity="0" result="BackgroundImageFix"/>
<feBlend mode="normal" in="SourceGraphic" in2="BackgroundImageFix" result="shape"/>
<feGaussianBlur stdDeviation="0.467077" result="effect1_foregroundBlur_25753_13520"/>
</filter>
<filter id="filter5_f_25753_13520" x="97.0707" y="25.8569" width="31.9643" height="63.8341" filterUnits="userSpaceOnUse" color-interpolation-filters="sRGB">
<feFlood flood-opacity="0" result="BackgroundImageFix"/>
<feBlend mode="normal" in="SourceGraphic" in2="BackgroundImageFix" result="shape"/>
<feGaussianBlur stdDeviation="0.467077" result="effect1_foregroundBlur_25753_13520"/>
</filter>
<filter id="filter6_f_25753_13520" x="112.111" y="15.3022" width="49.8856" height="70.2091" filterUnits="userSpaceOnUse" color-interpolation-filters="sRGB">
<feFlood flood-opacity="0" result="BackgroundImageFix"/>
<feBlend mode="normal" in="SourceGraphic" in2="BackgroundImageFix" result="shape"/>
<feGaussianBlur stdDeviation="0.467077" result="effect1_foregroundBlur_25753_13520"/>
</filter>
<filter id="filter7_d_25753_13520" x="9.02854" y="121.835" width="134.914" height="25.6036" filterUnits="userSpaceOnUse" color-interpolation-filters="sRGB">
<feFlood flood-opacity="0" result="BackgroundImageFix"/>
<feColorMatrix in="SourceAlpha" type="matrix" values="0 0 0 0 0 0 0 0 0 0 0 0 0 0 0 0 0 0 127 0" result="hardAlpha"/>
<feOffset/>
<feGaussianBlur stdDeviation="4.18605"/>
<feComposite in2="hardAlpha" operator="out"/>
<feColorMatrix type="matrix" values="0 0 0 0 0.220624 0 0 0 0 0.410158 0 0 0 0 0.995605 0 0 0 0.3 0"/>
<feBlend mode="normal" in2="BackgroundImageFix" result="effect1_dropShadow_25753_13520"/>
<feBlend mode="normal" in="SourceGraphic" in2="effect1_dropShadow_25753_13520" result="shape"/>
</filter>
<filter id="filter8_d_25753_13520" x="9.18626" y="136.468" width="190.458" height="30.0166" filterUnits="userSpaceOnUse" color-interpolation-filters="sRGB">
<feFlood flood-opacity="0" result="BackgroundImageFix"/>
<feColorMatrix in="SourceAlpha" type="matrix" values="0 0 0 0 0 0 0 0 0 0 0 0 0 0 0 0 0 0 127 0" result="hardAlpha"/>
<feOffset/>
<feGaussianBlur stdDeviation="4.18605"/>
<feComposite in2="hardAlpha" operator="out"/>
<feColorMatrix type="matrix" values="0 0 0 0 0.220624 0 0 0 0 0.410158 0 0 0 0 0.995605 0 0 0 0.3 0"/>
<feBlend mode="normal" in2="BackgroundImageFix" result="effect1_dropShadow_25753_13520"/>
<feBlend mode="normal" in="SourceGraphic" in2="effect1_dropShadow_25753_13520" result="shape"/>
</filter>
<linearGradient id="paint0_linear_25753_13520" x1="88.2849" y1="74.7678" x2="82.5614" y2="96.1282" gradientUnits="userSpaceOnUse">
<stop stop-color="#161C2F"/>
<stop offset="1" stop-color="#4C78FF"/>
</linearGradient>
<linearGradient id="paint1_linear_25753_13520" x1="219.768" y1="69.2791" x2="225.019" y2="95.6611" gradientUnits="userSpaceOnUse">
<stop stop-color="#161C2F"/>
<stop offset="1" stop-color="#3A5ABA"/>
</linearGradient>
<linearGradient id="paint2_linear_25753_13520" x1="205.954" y1="53.1634" x2="209.137" y2="89.4816" gradientUnits="userSpaceOnUse">
<stop stop-color="#161C2F"/>
<stop offset="1" stop-color="#3A5ABA"/>
</linearGradient>
<linearGradient id="paint3_linear_25753_13520" x1="192.668" y1="28.3597" x2="193.257" y2="84.8105" gradientUnits="userSpaceOnUse">
<stop stop-color="#161C2F"/>
<stop offset="1" stop-color="#3A5ABA"/>
</linearGradient>
<linearGradient id="paint4_linear_25753_13520" x1="100.048" y1="54.0005" x2="97.9745" y2="92.3916" gradientUnits="userSpaceOnUse">
<stop stop-color="#161C2F"/>
<stop offset="1" stop-color="#4C78FF"/>
</linearGradient>
<linearGradient id="paint5_linear_25753_13520" x1="114.698" y1="41.6515" x2="112.571" y2="87.2537" gradientUnits="userSpaceOnUse">
<stop stop-color="#161C2F"/>
<stop offset="1" stop-color="#4C78FF"/>
</linearGradient>
<linearGradient id="paint6_linear_25753_13520" x1="138.768" y1="26.791" x2="140.903" y2="84.9246" gradientUnits="userSpaceOnUse">
<stop stop-color="#161C2F"/>
<stop offset="1" stop-color="#4C78FF"/>
</linearGradient>
<linearGradient id="paint7_linear_25753_13520" x1="80.4583" y1="99.7169" x2="222.683" y2="99.7561" gradientUnits="userSpaceOnUse">
<stop stop-color="#4C78FF"/>
<stop offset="1" stop-color="#161C2F"/>
</linearGradient>
<linearGradient id="paint8_linear_25753_13520" x1="78.1124" y1="50.6512" x2="78.1124" y2="7.65243e-07" gradientUnits="userSpaceOnUse">
<stop stop-color="#161C2F" stop-opacity="0"/>
<stop offset="1" stop-color="#161C2F"/>
</linearGradient>
<clipPath id="clip0_25753_13520">
<rect width="240" height="180" rx="6.85714" fill="white"/>
</clipPath>
<clipPath id="clip1_25753_13520">
<rect width="164.512" height="115.535" fill="white" transform="translate(68.6514 13.8145)"/>
</clipPath>
<clipPath id="clip2_25753_13520">
<rect x="126.832" y="78.4766" width="62.8136" height="27.9171" rx="2.32643" transform="rotate(13.6155 126.832 78.4766)" fill="white"/>
</clipPath>
</defs>
</svg>
