<svg width="54" height="55" viewBox="0 0 54 55" fill="none" xmlns="http://www.w3.org/2000/svg">
<path d="M2.3585 18.0347L7.79102 48.7182C7.98131 49.793 8.99815 50.5167 10.076 50.3445L44.4617 44.8503C45.5369 44.6785 46.2771 43.6782 46.1271 42.5997L41.1106 6.54712C40.9634 5.48889 40.0104 4.73327 38.9465 4.83116L23.6007 6.24305C22.6046 6.3347 21.8294 7.14815 21.7859 8.14748L21.6418 11.4507C21.6 12.4078 20.8855 13.2008 19.938 13.3418L4.03358 15.7078C2.91969 15.8735 2.16217 16.9258 2.3585 18.0347Z" fill="#4A76FF"/>
<path d="M49.0941 17.7234L13.1123 21.8894C12.1869 21.9965 11.458 22.7284 11.3547 23.6543L8.63371 48.0375C8.48702 49.352 9.63392 50.4444 10.9397 50.2338L44.9579 44.7486C45.7799 44.6161 46.4338 43.9882 46.5995 43.1722L51.2841 20.1082C51.5548 18.7754 50.4451 17.5669 49.0941 17.7234Z" fill="#7597FF"/>
</svg>
