<svg width="34" height="35" viewBox="0 0 34 35" fill="none" xmlns="http://www.w3.org/2000/svg">
<path d="M16.2365 1.55903C16.6359 1.08672 17.3641 1.08672 17.7635 1.55903L20.9564 5.33415C21.1853 5.60481 21.5404 5.73405 21.8897 5.67386L26.7622 4.83427C27.3718 4.72923 27.9296 5.19727 27.932 5.81585L27.9513 10.7601C27.9526 11.1146 28.1416 11.4418 28.4479 11.6203L32.7201 14.1091C33.2546 14.4204 33.381 15.1375 32.9853 15.6129L29.8219 19.4128C29.5951 19.6853 29.5295 20.0574 29.6494 20.391L31.3224 25.0436C31.5317 25.6257 31.1676 26.2563 30.5588 26.3661L25.6931 27.2436C25.3442 27.3065 25.0547 27.5494 24.9322 27.8821L23.2231 32.5215C23.0092 33.102 22.325 33.351 21.7881 33.0438L17.4966 30.5884C17.1889 30.4124 16.8111 30.4124 16.5034 30.5884L12.2119 33.0438C11.675 33.351 10.9908 33.102 10.7769 32.5215L9.06781 27.8821C8.94527 27.5494 8.65579 27.3065 8.30694 27.2436L3.44116 26.3661C2.8324 26.2563 2.46833 25.6257 2.67763 25.0436L4.35055 20.391C4.4705 20.0574 4.40488 19.6853 4.17808 19.4128L1.01474 15.6129C0.618975 15.1375 0.745417 14.4204 1.27992 14.1091L5.55212 11.6203C5.85842 11.4418 6.04736 11.1146 6.04874 10.7601L6.068 5.81585C6.07041 5.19727 6.62821 4.72923 7.23781 4.83427L12.1103 5.67386C12.4596 5.73405 12.8147 5.60481 13.0436 5.33415L16.2365 1.55903Z" fill="#4A76FF"/>
<path d="M12.5 17.2926L16.0357 21.6563L21.5 13.6562" stroke="white" stroke-width="1.6" stroke-linecap="round" stroke-linejoin="round"/>
</svg>
