<svg width="24" height="25" viewBox="0 0 24 25" fill="none" xmlns="http://www.w3.org/2000/svg">
<g id="Frame 1437261213">
<rect id="Rectangle 4734" x="3.13281" y="5.06641" width="16" height="9.6" rx="1" transform="rotate(-12.4305 3.13281 5.06641)" fill="#FFEFCB"/>
<path id="Vector 1234" d="M8.0542 8.78633L8.53392 9.14445C8.99957 9.49207 9.59339 9.61998 10.1609 9.4949L18.9811 7.55072C20.0598 7.31295 21.127 7.99465 21.3648 9.07332L22.932 16.1835C23.1698 17.2622 22.4881 18.3294 21.4094 18.5672L6.85513 21.7752C5.77645 22.013 4.70927 21.3313 4.4715 20.2526L2.50864 11.3476C2.27087 10.269 2.95257 9.20179 4.03124 8.96402L6.42726 8.43589C6.99474 8.3108 7.58855 8.43871 8.0542 8.78633Z" fill="#FFCE5B"/>
</g>
</svg>
