<svg width="26" height="26" viewBox="0 0 26 26" fill="none" xmlns="http://www.w3.org/2000/svg">
<g clip-path="url(#clip0_22007_25561)">
<path d="M9.75 4.6875C10.8772 4.6875 11.9579 5.13559 12.7549 5.93262C12.8408 6.01852 12.9223 6.10799 13 6.2002C13.0777 6.10799 13.1592 6.01852 13.2451 5.93262C14.0421 5.13559 15.1228 4.6875 16.25 4.6875H23.5625C24.1148 4.6875 24.5625 5.13522 24.5625 5.6875V20.3125C24.5625 20.8648 24.1148 21.3125 23.5625 21.3125H16.25C15.6533 21.3125 15.0811 21.5497 14.6592 21.9717C14.2372 22.3936 14 22.9658 14 23.5625L13.9951 23.665C13.9852 23.7627 13.9608 23.8561 13.9248 23.9434C13.9196 23.956 13.913 23.9681 13.9072 23.9805C13.8863 24.0258 13.8622 24.069 13.835 24.1104C13.8283 24.1206 13.8215 24.1307 13.8145 24.1406C13.8022 24.1579 13.7897 24.175 13.7764 24.1914C13.772 24.1968 13.7672 24.2017 13.7627 24.207C13.7476 24.2248 13.7321 24.2421 13.7158 24.2588C13.7094 24.2654 13.7029 24.2719 13.6963 24.2783C13.6784 24.2957 13.6598 24.3121 13.6406 24.3281C13.6369 24.3312 13.6336 24.3348 13.6299 24.3379C13.6122 24.3523 13.5939 24.3657 13.5752 24.3789C13.5652 24.3859 13.5552 24.3927 13.5449 24.3994C13.5258 24.4119 13.5063 24.4234 13.4863 24.4346C13.4814 24.4373 13.4767 24.4407 13.4717 24.4434C13.4545 24.4526 13.4367 24.4605 13.4189 24.4688C13.4024 24.4764 13.3861 24.4845 13.3691 24.4912C13.364 24.4933 13.3587 24.4951 13.3535 24.4971C13.3298 24.506 13.3058 24.5143 13.2812 24.5215C13.2362 24.5347 13.19 24.544 13.1426 24.5508C13.0959 24.5575 13.0485 24.5625 13 24.5625C12.4477 24.5625 12 24.1148 12 23.5625C12 22.9658 11.7628 22.3936 11.3408 21.9717C10.9189 21.5497 10.3467 21.3125 9.75 21.3125H2.4375C1.88522 21.3125 1.4375 20.8648 1.4375 20.3125V5.6875C1.4375 5.13522 1.88522 4.6875 2.4375 4.6875H9.75ZM3.4375 19.3125H9.75C10.5521 19.3125 11.3303 19.54 12 19.958V8.9375C12 8.34076 11.7628 7.76864 11.3408 7.34668C10.9717 6.97753 10.4876 6.74943 9.97266 6.69824L9.75 6.6875H3.4375V19.3125ZM16.25 6.6875C15.6533 6.6875 15.0811 6.92472 14.6592 7.34668C14.2372 7.76864 14 8.34076 14 8.9375V19.958C14.6696 19.5399 15.4479 19.3125 16.25 19.3125H22.5625V6.6875H16.25ZM20.3125 15.25C20.8648 15.25 21.3125 15.6977 21.3125 16.25C21.3125 16.8023 20.8648 17.25 20.3125 17.25H16.25C15.6977 17.25 15.25 16.8023 15.25 16.25C15.25 15.6977 15.6977 15.25 16.25 15.25H20.3125ZM20.3125 12C20.8648 12 21.3125 12.4477 21.3125 13C21.3125 13.5523 20.8648 14 20.3125 14H16.25C15.6977 14 15.25 13.5523 15.25 13C15.25 12.4477 15.6977 12 16.25 12H20.3125ZM20.3125 8.75C20.8648 8.75 21.3125 9.19772 21.3125 9.75C21.3125 10.3023 20.8648 10.75 20.3125 10.75H16.25C15.6977 10.75 15.25 10.3023 15.25 9.75C15.25 9.19772 15.6977 8.75 16.25 8.75H20.3125Z" fill="black"/>
</g>
<defs>
<clipPath id="clip0_22007_25561">
<rect width="26" height="26" fill="white"/>
</clipPath>
</defs>
</svg>
