<svg width="41" height="42" viewBox="0 0 41 42" fill="none" xmlns="http://www.w3.org/2000/svg">
<g id="Arrow / Caret_Circle_Left">
<g id="Vector" filter="url(#filter0_b_4933_129679)">
<path d="M20 5.25C28.6985 5.25 35.75 12.3015 35.75 21C35.75 29.6985 28.6985 36.75 20 36.75C11.3015 36.75 4.25 29.6985 4.25 21C4.25 12.3015 11.3015 5.25 20 5.25Z" fill="#FAFAFA" fill-opacity="0.7"/>
<path d="M20 5.25C28.6985 5.25 35.75 12.3015 35.75 21C35.75 29.6985 28.6985 36.75 20 36.75C11.3015 36.75 4.25 29.6985 4.25 21C4.25 12.3015 11.3015 5.25 20 5.25Z" stroke="#E7E7E7" stroke-linecap="round" stroke-linejoin="round"/>
</g>
<path id="Vector_2" d="M21.75 26.25L16.5 21L21.75 15.75" stroke="#BDBDBD" stroke-linecap="round" stroke-linejoin="round"/>
</g>
<defs>
<filter id="filter0_b_4933_129679" x="-0.25" y="0.75" width="40.5" height="40.5" filterUnits="userSpaceOnUse" color-interpolation-filters="sRGB">
<feFlood flood-opacity="0" result="BackgroundImageFix"/>
<feGaussianBlur in="BackgroundImageFix" stdDeviation="2"/>
<feComposite in2="SourceAlpha" operator="in" result="effect1_backgroundBlur_4933_129679"/>
<feBlend mode="normal" in="SourceGraphic" in2="effect1_backgroundBlur_4933_129679" result="shape"/>
</filter>
</defs>
</svg>
