<svg width="40" height="40" viewBox="0 0 40 40" fill="none" xmlns="http://www.w3.org/2000/svg">
<g id="Frame 1437260625">
<g id="Group 1422241820">
<circle id="Ellipse 2554" cx="19.9164" cy="19.7084" r="13.9914" fill="#F3F4FF" stroke="#4D55F5" stroke-width="3.4"/>
<rect id="Rectangle 4627" x="15.1562" y="2.40039" width="9.03042" height="4.01352" rx="2" fill="#4D55F5"/>
<path id="Vector 26793" d="M12 32L10 35" stroke="#4D55F5" stroke-width="3.4" stroke-linecap="round"/>
<path id="Vector 26794" d="M27 32L29 35" stroke="#4D55F5" stroke-width="3.4" stroke-linecap="round"/>
</g>
<path id="Ellipse 2555" d="M12.0017 15.3807C10.9799 17.1506 10.5738 19.2093 10.8471 21.2346C11.1203 23.2599 12.0575 25.1374 13.5118 26.5732C14.9661 28.009 16.8555 28.9219 18.8842 29.1692C20.9128 29.4164 22.9661 28.9839 24.7227 27.9395C26.4793 26.895 27.84 25.2975 28.5916 23.3971C29.3433 21.4967 29.4436 19.4007 28.8767 17.4373C28.3099 15.4738 27.1079 13.7537 25.459 12.5464C23.8101 11.339 21.8074 10.7125 19.7645 10.765L20.0016 19.9995L12.0017 15.3807Z" fill="#4D55F5"/>
</g>
</svg>
