<svg width="12" height="12" viewBox="0 0 12 12" fill="none" xmlns="http://www.w3.org/2000/svg">
<g id="Interface / Checkbox_Check">
<g id="Vector">
<path d="M2 3.6001V8.4001C2 8.96015 2 9.24003 2.10899 9.45394C2.20487 9.6421 2.35774 9.79524 2.5459 9.89111C2.7596 10 3.0395 10 3.59846 10H8.40155C8.9605 10 9.24 10 9.4537 9.89111C9.64186 9.79524 9.79524 9.6421 9.89111 9.45394C10 9.24024 10 8.96075 10 8.40179V3.59846C10 3.0395 10 2.7596 9.89111 2.5459C9.79524 2.35774 9.64186 2.20487 9.4537 2.10899C9.23979 2 8.96015 2 8.4001 2H3.6001C3.04005 2 2.75981 2 2.5459 2.10899C2.35774 2.20487 2.20487 2.35774 2.10899 2.5459C2 2.75981 2 3.04005 2 3.6001Z" fill="#FF6578"/>
<path d="M4 6L5.5 7.5L8 4.5M2 8.4001V3.6001C2 3.04005 2 2.75981 2.10899 2.5459C2.20487 2.35774 2.35774 2.20487 2.5459 2.10899C2.75981 2 3.04005 2 3.6001 2H8.4001C8.96015 2 9.23979 2 9.4537 2.10899C9.64186 2.20487 9.79524 2.35774 9.89111 2.5459C10 2.7596 10 3.0395 10 3.59846V8.40179C10 8.96075 10 9.24024 9.89111 9.45394C9.79524 9.6421 9.64186 9.79524 9.4537 9.89111C9.24 10 8.9605 10 8.40155 10H3.59846C3.0395 10 2.7596 10 2.5459 9.89111C2.35774 9.79524 2.20487 9.6421 2.10899 9.45394C2 9.24003 2 8.96015 2 8.4001Z" stroke="#FF6578" stroke-width="1.6" stroke-linecap="round" stroke-linejoin="round"/>
</g>
<path id="Vector (Stroke)" fill-rule="evenodd" clip-rule="evenodd" d="M8.38401 4.03996C8.63858 4.2521 8.67297 4.63044 8.46084 4.885L5.96084 7.885C5.85292 8.01451 5.69549 8.09264 5.52709 8.10028C5.35869 8.10792 5.19484 8.04436 5.07564 7.92516L3.57564 6.42516C3.34132 6.19084 3.34132 5.81094 3.57564 5.57663C3.80995 5.34232 4.18985 5.34232 4.42417 5.57663L5.45958 6.61205L7.53897 4.11678C7.75111 3.86222 8.12945 3.82782 8.38401 4.03996Z" fill="#FFEBEB"/>
</g>
</svg>
