<svg width="32" height="32" viewBox="0 0 32 32" fill="none" xmlns="http://www.w3.org/2000/svg">
<g id="Interface / Checkbox_Unchecked">
<path id="Vector" d="M5.33325 9.60018V22.4002C5.33325 23.8937 5.33325 24.64 5.6239 25.2104C5.87956 25.7122 6.28722 26.1206 6.78898 26.3762C7.35885 26.6666 8.10524 26.6666 9.5958 26.6666H22.404C23.8946 26.6666 24.6399 26.6666 25.2098 26.3762C25.7115 26.1206 26.1206 25.7122 26.3762 25.2104C26.6666 24.6406 26.6666 23.8952 26.6666 22.4047V9.5958C26.6666 8.10524 26.6666 7.35885 26.3762 6.78898C26.1206 6.28722 25.7115 5.87956 25.2098 5.6239C24.6393 5.33325 23.8937 5.33325 22.4002 5.33325H9.60018C8.10671 5.33325 7.35941 5.33325 6.78898 5.6239C6.28722 5.87956 5.87956 6.28722 5.6239 6.78898C5.33325 7.35941 5.33325 8.10671 5.33325 9.60018Z" fill="#EFEFEF" stroke="#BDBDBD" stroke-width="1.53846" stroke-linecap="round" stroke-linejoin="round"/>
</g>
</svg>
