<svg width="24" height="24" viewBox="0 0 24 24" fill="none" xmlns="http://www.w3.org/2000/svg">
<path d="M4.00012 7.2002V16.8002C4.00012 17.9203 4.00012 18.4801 4.21811 18.9079C4.40986 19.2842 4.71559 19.5905 5.09192 19.7822C5.51932 20 6.07912 20 7.19703 20H16.8032C17.9211 20 18.4801 20 18.9075 19.7822C19.2838 19.5905 19.5906 19.2842 19.7823 18.9079C20.0001 18.4805 20.0001 17.9215 20.0001 16.8036V7.19691C20.0001 6.07899 20.0001 5.5192 19.7823 5.0918C19.5906 4.71547 19.2838 4.40973 18.9075 4.21799C18.4797 4 17.9204 4 16.8003 4H7.20032C6.08021 4 5.51974 4 5.09192 4.21799C4.71559 4.40973 4.40986 4.71547 4.21811 5.0918C4.00012 5.51962 4.00012 6.08009 4.00012 7.2002Z" stroke="#CFCFCF" stroke-width="1.2" stroke-linecap="round" stroke-linejoin="round"/>
<path d="M8.00024 12L11.0002 15L16.0002 9" stroke="#CFCFCF" stroke-width="1.2" stroke-linecap="round" stroke-linejoin="round"/>
</svg>
