<svg width="26" height="26" viewBox="0 0 26 26" fill="none" xmlns="http://www.w3.org/2000/svg">
<path d="M9.75 11.9168H16.25M7.7172 20.2598L6.06624 21.5805C5.16473 22.3017 4.71375 22.6625 4.33439 22.6629C4.00447 22.6633 3.69248 22.5133 3.48666 22.2554C3.25 21.9589 3.25 21.3818 3.25 20.2273V7.80037C3.25 6.58693 3.25 5.97975 3.48615 5.51628C3.69388 5.10859 4.0251 4.77737 4.43278 4.56965C4.89626 4.3335 5.50343 4.3335 6.71688 4.3335H19.2835C20.497 4.3335 21.1029 4.3335 21.5663 4.56965C21.974 4.77737 22.3064 5.10859 22.5141 5.51628C22.75 5.9793 22.75 6.58574 22.75 7.79682V16.0374C22.75 17.2484 22.75 17.854 22.5141 18.317C22.3064 18.7247 21.9747 19.0565 21.567 19.2642C21.104 19.5002 20.4978 19.5002 19.2867 19.5002H9.88224C9.43154 19.5002 9.20701 19.5002 8.99146 19.5444C8.80022 19.5836 8.61484 19.6483 8.44099 19.7371C8.24721 19.8361 8.07353 19.9751 7.72934 20.2504L7.7172 20.2598Z" stroke="black" stroke-width="2" stroke-linecap="round" stroke-linejoin="round"/>
</svg>
