<svg width="24" height="24" viewBox="0 0 24 24" fill="none" xmlns="http://www.w3.org/2000/svg">
<path d="M20 11.9995H9.3146M5.54292 11.9995H4M5.54292 11.9995C5.54292 11.4732 5.74156 10.9684 6.09514 10.5962C6.44872 10.224 6.92828 10.0149 7.42832 10.0149C7.92837 10.0149 8.40793 10.224 8.76151 10.5962C9.11509 10.9684 9.31373 11.4732 9.31373 11.9995C9.31373 12.5259 9.11509 13.0307 8.76151 13.4029C8.40793 13.7751 7.92837 13.9842 7.42832 13.9842C6.92828 13.9842 6.44872 13.7751 6.09514 13.4029C5.74156 13.0307 5.54292 12.5259 5.54292 11.9995ZM20 18.0145H15.0288M15.0288 18.0145C15.0288 18.5409 14.8296 19.0463 14.476 19.4186C14.1223 19.7909 13.6426 20 13.1425 20C12.6424 20 12.1629 19.79 11.8093 19.4178C11.4557 19.0456 11.2571 18.5408 11.2571 18.0145M15.0288 18.0145C15.0288 17.488 14.8296 16.9835 14.476 16.6112C14.1223 16.239 13.6426 16.0298 13.1425 16.0298C12.6424 16.0298 12.1629 16.2389 11.8093 16.6111C11.4557 16.9833 11.2571 17.4881 11.2571 18.0145M11.2571 18.0145H4M20 5.98464H17.3146M13.5429 5.98464H4M13.5429 5.98464C13.5429 5.45828 13.7416 4.95348 14.0951 4.58129C14.4487 4.2091 14.9283 4 15.4283 4C15.6759 4 15.9211 4.05133 16.1498 4.15107C16.3786 4.25081 16.5864 4.397 16.7615 4.58129C16.9366 4.76558 17.0755 4.98436 17.1702 5.22515C17.265 5.46594 17.3137 5.72401 17.3137 5.98464C17.3137 6.24526 17.265 6.50334 17.1702 6.74413C17.0755 6.98491 16.9366 7.2037 16.7615 7.38799C16.5864 7.57228 16.3786 7.71847 16.1498 7.8182C15.9211 7.91794 15.6759 7.96927 15.4283 7.96927C14.9283 7.96927 14.4487 7.76018 14.0951 7.38799C13.7416 7.0158 13.5429 6.511 13.5429 5.98464Z" stroke="#3E4148" stroke-width="1.5" stroke-miterlimit="10" stroke-linecap="round"/>
</svg>
