<svg width="20" height="20" viewBox="0 0 20 20" fill="none" xmlns="http://www.w3.org/2000/svg">
<path d="M17 10.334C17 14.2001 13.8661 17.334 10 17.334C6.1339 17.334 3 14.2001 3 10.334C3 6.46788 6.1339 3.33398 10 3.33398V4.73398C8.65917 4.73414 7.3629 5.21537 6.34681 6.09022C5.33071 6.96507 4.66223 8.17546 4.46288 9.50139C4.26353 10.8273 4.54653 12.1808 5.26046 13.3157C5.97439 14.4507 7.07184 15.2918 8.35334 15.6862C9.63484 16.0806 11.0153 16.0022 12.2439 15.4651C13.4724 14.9279 14.4675 13.9679 15.0482 12.7593C15.6289 11.5508 15.7567 10.174 15.4084 8.87917C15.06 7.58438 14.2587 6.45755 13.15 5.70348V7.53398H11.75V3.33398H15.95V4.73398H14.2C15.0698 5.38564 15.7757 6.23105 16.2617 7.20312C16.7478 8.17519 17.0005 9.24717 17 10.334Z" fill="#4D55F5"/>
</svg>
