<svg width="36" height="34" viewBox="0 0 36 34" fill="none" xmlns="http://www.w3.org/2000/svg">
<path d="M0.258572 9.6515L4.17771 31.7872C4.31499 32.5626 5.04855 33.0847 5.82611 32.9604L30.6327 28.9968C31.4084 28.8729 31.9424 28.1512 31.8342 27.3732L28.2152 1.36411C28.109 0.600687 27.4215 0.0555641 26.6539 0.126182L15.5832 1.14475C14.8646 1.21087 14.3053 1.79771 14.2739 2.51865L14.1699 4.90167C14.1398 5.59211 13.6243 6.16424 12.9408 6.26593L1.46701 7.97282C0.663424 8.09237 0.116933 8.85152 0.258572 9.6515Z" fill="#4A76FF"/>
<path d="M33.9757 9.42603L8.01768 12.4315C7.35006 12.5088 6.82422 13.0368 6.74968 13.7047L4.78671 31.2953C4.68088 32.2436 5.50828 33.0317 6.45033 32.8798L30.9917 28.9226C31.5847 28.827 32.0565 28.374 32.176 27.7854L35.5556 11.1465C35.7509 10.185 34.9503 9.31319 33.9757 9.42603Z" fill="#7597FF"/>
</svg>
