<svg width="30" height="30" viewBox="0 0 30 30" fill="none" xmlns="http://www.w3.org/2000/svg">
<g id="Frame 1437261213">
<rect id="Rectangle 4734" x="3.91797" y="6.26562" width="20" height="12" rx="1" transform="rotate(-12.4305 3.91797 6.26562)" fill="#FFE1C2"/>
<path id="Vector 1234" d="M9.88443 10.7806L10.8507 11.502C11.3164 11.8496 11.9102 11.9775 12.4777 11.8524L24.2147 9.26534C25.2934 9.02757 26.3606 9.70927 26.5983 10.7879L28.7726 20.6523C29.0104 21.7309 28.3287 22.7981 27.25 23.0359L8.08063 27.2612C7.00195 27.499 5.93477 26.8173 5.69701 25.7386L3.02817 13.6309C2.7904 12.5522 3.4721 11.485 4.55078 11.2472L8.25749 10.4302C8.82496 10.3051 9.41878 10.433 9.88443 10.7806Z" fill="#FB8100"/>
</g>
</svg>
