<svg width="24" height="24" viewBox="0 0 24 24" fill="none" xmlns="http://www.w3.org/2000/svg">
<path d="M0 12C0 5.3726 5.3726 0 12 0C18.6274 0 24 5.3726 24 12C24 18.6274 18.6274 24 12 24C5.3726 24 0 18.6274 0 12Z" fill="#DBDDFD"/>
<path d="M12 5.5C7.5817 5.5 4 8.3241 4 11.8077C4 14.0599 5.4974 16.0361 7.74985 17.1521C7.6273 17.5747 6.9624 19.8709 6.9359 20.0513C6.9359 20.0513 6.92 20.1868 7.00775 20.2385C7.09555 20.2901 7.19875 20.25 7.19875 20.25C7.45045 20.2149 10.1175 18.3415 10.5791 18.0162C11.0403 18.0815 11.5151 18.1154 12 18.1154C16.4183 18.1154 20 15.2914 20 11.8077C20 8.3241 16.4183 5.5 12 5.5Z" fill="#7177F7"/>
<path d="M8.75879 9.92383C9.00849 9.92389 9.21191 10.1269 9.21191 10.376C9.21178 10.625 9.00836 10.8281 8.75879 10.8281H8.03809V13.5693C8.03809 13.8124 7.83162 14.0107 7.57715 14.0107C7.3226 14.0107 7.11523 13.8124 7.11523 13.5693V10.8281H6.39551C6.14584 10.8281 5.94252 10.625 5.94238 10.376C5.94238 10.1268 6.14581 9.92383 6.39551 9.92383H8.75879ZM10.3076 9.92383C10.6089 9.93074 10.8449 10.1585 10.9229 10.3799L12.0264 13.2842C12.1668 13.7205 12.0442 13.8819 11.917 13.9404C11.825 13.9824 11.7252 14.004 11.624 14.0039C11.4317 14.0039 11.2848 13.9263 11.2402 13.8008L11.0117 13.2021H9.60449L9.375 13.8008C9.33072 13.9262 9.18362 14.0039 8.99121 14.0039C8.89007 14.004 8.79019 13.9824 8.69824 13.9404C8.57099 13.8817 8.44872 13.7205 8.58887 13.2852L9.69238 10.3799C9.77018 10.1589 10.007 9.93068 10.3076 9.92383ZM15.333 9.92383C15.5876 9.92383 15.7949 10.1312 15.7949 10.3857V11.377L17.083 10.0898C17.1492 10.0236 17.2401 9.9873 17.3389 9.9873C17.4539 9.98736 17.5696 10.0366 17.6562 10.123C17.7371 10.2038 17.7853 10.3081 17.792 10.416C17.7987 10.5248 17.7627 10.6249 17.6904 10.6973L16.6387 11.748L17.7744 13.2539C17.811 13.3022 17.8383 13.3574 17.8535 13.416C17.8687 13.4746 17.8719 13.5358 17.8633 13.5957C17.8551 13.6557 17.8344 13.7134 17.8037 13.7656C17.773 13.8178 17.7321 13.8631 17.6836 13.8994C17.6038 13.9601 17.5065 13.9934 17.4062 13.9932C17.3348 13.9935 17.2642 13.9771 17.2002 13.9453C17.1362 13.9134 17.0809 13.8667 17.0381 13.8096L15.9551 12.375L15.7949 12.5352V13.543C15.7947 13.6652 15.7465 13.7827 15.6602 13.8691C15.5736 13.9557 15.4554 14.0037 15.333 14.0039C15.0787 14.0037 14.8721 13.7973 14.8721 13.543V10.3857C14.8721 10.1313 15.0787 9.92406 15.333 9.92383ZM12.7979 9.92383C13.0576 9.92383 13.2695 10.1312 13.2695 10.3857V13.0967H14.25C14.4938 13.0967 14.6921 13.2865 14.6924 13.5195C14.6924 13.7528 14.4939 13.9434 14.25 13.9434H12.7695C12.5256 13.9434 12.3271 13.7528 12.3271 13.5195V10.3857C12.3271 10.1313 12.5382 9.92398 12.7979 9.92383ZM9.84668 12.3848H10.7686L10.3076 11.0752L9.84668 12.3848Z" fill="#DBDDFD"/>
</svg>
