<svg width="26" height="24" viewBox="0 0 26 24" fill="none" xmlns="http://www.w3.org/2000/svg">
<path d="M25.2459 7.5H0.75413C0.649039 7.50008 0.545121 7.52547 0.449032 7.57453C0.352944 7.6236 0.266804 7.69526 0.19613 7.78493C0.125457 7.87459 0.0718073 7.98029 0.038619 8.09525C0.00543067 8.21021 -0.0065649 8.33189 0.00340068 8.4525L1.20431 22.956C1.22823 23.2417 1.34355 23.5068 1.52779 23.6998C1.71204 23.8928 1.95201 23.9998 2.20094 24H23.7991C24.048 23.9998 24.288 23.8928 24.4722 23.6998C24.6564 23.5068 24.7718 23.2417 24.7957 22.956L25.9966 8.4525C26.0066 8.33189 25.9946 8.21021 25.9614 8.09525C25.9282 7.98029 25.8745 7.87459 25.8039 7.78493C25.7332 7.69526 25.6471 7.6236 25.551 7.57453C25.4549 7.52547 25.351 7.50008 25.2459 7.5Z" fill="#9499F9"/>
<path d="M22.3614 3C23.0835 3 23.7913 3.5385 23.9357 4.1985L24.1972 6H2.16846L2.54838 1.491C2.62774 0.6705 3.28349 0 4.0056 0H8.24065C8.96145 0 9.9698 0.474 10.4798 1.0575L11.2553 1.9395C11.7653 2.523 12.775 3 13.4958 3H22.3614Z" fill="url(#paint0_linear_25042_3186)"/>
<defs>
<linearGradient id="paint0_linear_25042_3186" x1="13.1828" y1="0" x2="13.1828" y2="6" gradientUnits="userSpaceOnUse">
<stop stop-color="#7177F7"/>
<stop offset="1" stop-color="#474EE8"/>
</linearGradient>
</defs>
</svg>
