<svg width="48" height="48" viewBox="0 0 48 48" fill="none" xmlns="http://www.w3.org/2000/svg">
<g id="Component 1">
<path id="Union" fill-rule="evenodd" clip-rule="evenodd" d="M12.1206 35.8794C13.9951 37.7539 17.0343 37.7539 18.9088 35.8794L24 30.7882L29.0912 35.8794C30.9657 37.7539 34.0049 37.7539 35.8794 35.8794C37.7539 34.0049 37.7539 30.9657 35.8794 29.0912L30.7882 24L35.8794 18.9088C37.7539 17.0343 37.7539 13.9951 35.8794 12.1206C34.0049 10.2461 30.9657 10.2461 29.0912 12.1206L24 17.2118L18.9088 12.1206C17.0343 10.2461 13.9951 10.2461 12.1206 12.1206C10.2461 13.9951 10.2461 17.0343 12.1206 18.9088L17.2118 24L12.1206 29.0912C10.2461 30.9657 10.2461 34.0049 12.1206 35.8794Z" fill="#D9D9D9"/>
</g>
</svg>
