<svg width="42" height="25" viewBox="0 0 42 25" fill="none" xmlns="http://www.w3.org/2000/svg">
<mask id="path-1-inside-1_1122_5847" fill="white">
<path d="M5 2C5 0.895431 5.89543 0 7 0H40C41.1046 0 42 0.895431 42 2V18C42 19.1046 41.1046 20 40 20H7C5.89543 20 5 19.1046 5 18V2Z"/>
</mask>
<path d="M7 1H40V-1H7V1ZM41 2V18H43V2H41ZM40 19H7V21H40V19ZM6 18V2H4V18H6ZM7 19C6.44772 19 6 18.5523 6 18H4C4 19.6569 5.34315 21 7 21V19ZM41 18C41 18.5523 40.5523 19 40 19V21C41.6569 21 43 19.6569 43 18H41ZM40 1C40.5523 1 41 1.44772 41 2H43C43 0.343145 41.6569 -1 40 -1V1ZM7 -1C5.34315 -1 4 0.343147 4 2H6C6 1.44772 6.44772 1 7 1V-1Z" fill="#6A63F5" mask="url(#path-1-inside-1_1122_5847)"/>
<path d="M0 7C0 5.89543 0.89543 5 2 5H35C36.1046 5 37 5.89543 37 7V23C37 24.1046 36.1046 25 35 25H2C0.895432 25 0 24.1046 0 23V7Z" fill="#6A63F5"/>
<ellipse cx="18.5" cy="15" rx="4.5" ry="6" fill="white"/>
</svg>
