<svg width="14" height="14" viewBox="0 0 14 14" fill="none" xmlns="http://www.w3.org/2000/svg">
<circle cx="7" cy="7" r="6" fill="#959595" stroke="#959595" stroke-width="2"/>
<path d="M5.2996 5.14167C4.96627 5 4.8246 4.5875 5.0246 4.2875C5.42877 3.6875 6.10377 3.25 6.99543 3.25C7.9746 3.25 8.64543 3.69583 8.9871 4.25417C9.27877 4.73333 9.4496 5.62917 8.9996 6.29583C8.4996 7.03333 8.02043 7.25833 7.7621 7.73333C7.6996 7.84583 7.6621 7.9375 7.6371 8.125C7.5996 8.42917 7.3496 8.66667 7.04127 8.66667C6.67877 8.66667 6.38293 8.35417 6.4246 7.99167C6.4496 7.77917 6.4996 7.55833 6.61627 7.35C6.9371 6.77083 7.55377 6.42917 7.9121 5.91667C8.29127 5.37917 8.07877 4.375 7.00377 4.375C6.51627 4.375 6.1996 4.62917 6.00377 4.93333C5.85793 5.17083 5.55377 5.24583 5.2996 5.14167ZM7.83293 10.3333C7.83293 10.7917 7.45793 11.1667 6.9996 11.1667C6.54127 11.1667 6.16627 10.7917 6.16627 10.3333C6.16627 9.875 6.54127 9.5 6.9996 9.5C7.45793 9.5 7.83293 9.875 7.83293 10.3333Z" fill="white"/>
</svg>
