<svg width="26" height="26" viewBox="0 0 26 26" fill="none" xmlns="http://www.w3.org/2000/svg">
<path d="M3.25 13C3.25 18.3848 7.61522 22.75 13 22.75C18.3848 22.75 22.75 18.3848 22.75 13C22.75 7.61522 18.3848 3.25 13 3.25C7.61522 3.25 3.25 7.61522 3.25 13Z" stroke="black" stroke-width="2" stroke-linecap="round" stroke-linejoin="round"/>
<mask id="mask0_7573_9366" style="mask-type:alpha" maskUnits="userSpaceOnUse" x="2" y="2" width="22" height="22">
<path d="M3.25 13C3.25 18.3848 7.61522 22.75 13 22.75C18.3848 22.75 22.75 18.3848 22.75 13C22.75 7.61522 18.3848 3.25 13 3.25C7.61522 3.25 3.25 7.61522 3.25 13Z" fill="#A9C1FF" stroke="black" stroke-linecap="round" stroke-linejoin="round"/>
</mask>
<g mask="url(#mask0_7573_9366)">
<path d="M18.6505 20.9431L19.2517 21.7422C19.4755 21.5739 19.6184 21.3194 19.6458 21.0407C19.6731 20.7621 19.5823 20.4847 19.3955 20.2761L18.6505 20.9431ZM7.34766 20.9431L6.60266 20.2761C6.41586 20.4847 6.3251 20.7621 6.35243 21.0408C6.37977 21.3194 6.5227 21.5739 6.74647 21.7422L7.34766 20.9431ZM12.9992 14.1665C11.7565 14.1665 10.7492 13.1591 10.7492 11.9165H8.74919C8.74919 14.2637 10.652 16.1665 12.9992 16.1665V14.1665ZM15.2492 11.9165C15.2492 13.1591 14.2418 14.1665 12.9992 14.1665V16.1665C15.3464 16.1665 17.2492 14.2637 17.2492 11.9165H15.2492ZM12.9992 9.6665C14.2418 9.6665 15.2492 10.6739 15.2492 11.9165H17.2492C17.2492 9.56929 15.3464 7.6665 12.9992 7.6665V9.6665ZM10.7492 11.9165C10.7492 10.6739 11.7565 9.6665 12.9992 9.6665V7.6665C10.652 7.6665 8.74919 9.56929 8.74919 11.9165H10.7492ZM12.9992 19.4165C14.9484 19.4165 16.6987 20.2623 17.9055 21.6102L19.3955 20.2761C17.8253 18.5224 15.5407 17.4165 12.9992 17.4165V19.4165ZM8.09266 21.6102C9.29949 20.2624 11.05 19.4165 12.9992 19.4165V17.4165C10.4576 17.4165 8.17287 18.5224 6.60266 20.2761L8.09266 21.6102ZM12.9992 21.7498C10.6708 21.7498 8.62562 20.6532 7.94884 20.144L6.74647 21.7422C7.67071 22.4376 10.1275 23.7498 12.9992 23.7498V21.7498ZM18.0493 20.144C17.3726 20.6532 15.3275 21.7498 12.9992 21.7498V23.7498C15.8708 23.7498 18.3276 22.4376 19.2517 21.7422L18.0493 20.144Z" fill="black"/>
</g>
</svg>
