<svg width="28" height="28" viewBox="0 0 28 28" fill="none" xmlns="http://www.w3.org/2000/svg">
<g id="User / User_Circle">
<path id="Vector" d="M20.0861 22.5543C18.5907 20.8843 16.4181 19.8333 14 19.8333C11.5819 19.8333 9.40907 20.8843 7.91374 22.5543M14 24.5C8.20101 24.5 3.5 19.799 3.5 14C3.5 8.20101 8.20101 3.5 14 3.5C19.799 3.5 24.5 8.20101 24.5 14C24.5 19.799 19.799 24.5 14 24.5ZM14 16.3333C12.067 16.3333 10.5 14.7663 10.5 12.8333C10.5 10.9003 12.067 9.33333 14 9.33333C15.933 9.33333 17.5 10.9003 17.5 12.8333C17.5 14.7663 15.933 16.3333 14 16.3333Z" stroke="#4D55F5" stroke-width="2" stroke-linecap="round" stroke-linejoin="round"/>
</g>
</svg>
