<svg width="30" height="30" viewBox="0 0 30 30" fill="none" xmlns="http://www.w3.org/2000/svg">
<path d="M2.41992 13.6768L25.8574 8.51084L28.6556 21.2061C28.8933 22.2848 28.2116 23.352 27.1329 23.5897L7.60174 27.8947C6.52306 28.1324 5.45588 27.4507 5.21813 26.372L2.41992 13.6768Z" fill="#FEEAF3"/>
<path d="M6.10176 16.4487C6.04233 16.1791 6.21275 15.9123 6.48242 15.8528L7.94726 15.53C8.4866 15.4111 9.02019 15.7519 9.13907 16.2913L9.56956 18.2444C9.629 18.5141 9.45857 18.7809 9.1889 18.8403L7.23578 19.2708C6.96611 19.3302 6.69932 19.1598 6.63988 18.8901L6.10176 16.4487Z" fill="#97B2FF" fill-opacity="0.65"/>
<path d="M1.559 9.77051C1.44012 9.23117 1.78097 8.69758 2.32031 8.5787L23.8046 3.84327C24.344 3.72439 24.8776 4.06525 24.9964 4.60458L25.965 8.9991L2.52761 14.165L1.559 9.77051Z" fill="#F26254"/>
<rect x="4.81836" y="5.97949" width="2" height="4" rx="1" transform="rotate(-12.43 4.81836 5.97949)" fill="#F26254"/>
<rect x="18.4902" y="2.96631" width="2" height="4" rx="1" transform="rotate(-12.43 18.4902 2.96631)" fill="#F26254"/>
<path d="M10.9846 15.3726C10.9251 15.1029 11.0956 14.8361 11.3652 14.7767L12.8301 14.4538C13.3694 14.3349 13.903 14.6758 14.0219 15.2151L14.4524 17.1682C14.5118 17.4379 14.3414 17.7047 14.0717 17.7641L12.1186 18.1946C11.8489 18.2541 11.5821 18.0836 11.5227 17.814L10.9846 15.3726Z" fill="#97B2FF" fill-opacity="0.65"/>
<path d="M15.8674 14.2964C15.808 14.0267 15.9784 13.7599 16.248 13.7005L17.7129 13.3776C18.2522 13.2587 18.7858 13.5996 18.9047 14.1389L19.3352 16.092C19.3946 16.3617 19.2242 16.6285 18.9545 16.6879L17.0014 17.1184C16.7317 17.1779 16.4649 17.0075 16.4055 16.7378L15.8674 14.2964Z" fill="#97B2FF" fill-opacity="0.65"/>
<path d="M20.7502 13.2202C20.6908 12.9505 20.8612 12.6837 21.1309 12.6243L22.5957 12.3014C23.135 12.1826 23.6686 12.5234 23.7875 13.0628L24.218 15.0159C24.2774 15.2855 24.107 15.5523 23.8373 15.6118L21.8842 16.0423C21.6146 16.1017 21.3478 15.9313 21.2883 15.6616L20.7502 13.2202Z" fill="#97B2FF" fill-opacity="0.65"/>
<rect x="12.0625" y="20.2554" width="3" height="3.5" rx="0.5" transform="rotate(-12.43 12.0625 20.2554)" fill="#F26154" fill-opacity="0.8"/>
<path d="M7.28731 21.8198C7.22787 21.5502 7.3983 21.2834 7.66797 21.2239L9.13281 20.901C9.67215 20.7822 10.2057 21.123 10.3246 21.6624L10.7551 23.6155C10.8145 23.8852 10.6441 24.1519 10.3745 24.2114L8.42133 24.6419C8.15166 24.7013 7.88487 24.5309 7.82543 24.2612L7.28731 21.8198Z" fill="#97B2FF" fill-opacity="0.65"/>
<path d="M17.0529 19.6675C16.9935 19.3978 17.1639 19.131 17.4336 19.0716L18.8984 18.7487C19.4378 18.6298 19.9714 18.9707 20.0902 19.51L20.5207 21.4631C20.5802 21.7328 20.4097 21.9996 20.1401 22.059L18.187 22.4895C17.9173 22.549 17.6505 22.3785 17.5911 22.1089L17.0529 19.6675Z" fill="#97B2FF" fill-opacity="0.65"/>
<path d="M21.9357 18.5913C21.8763 18.3216 22.0467 18.0548 22.3164 17.9954L23.7812 17.6725C24.3206 17.5537 24.8542 17.8945 24.9731 18.4338L25.4035 20.387C25.463 20.6566 25.2926 20.9234 25.0229 20.9829L23.0698 21.4134C22.8001 21.4728 22.5333 21.3024 22.4739 21.0327L21.9357 18.5913Z" fill="#97B2FF" fill-opacity="0.65"/>
</svg>
