<svg width="30" height="30" viewBox="0 0 30 30" fill="none" xmlns="http://www.w3.org/2000/svg">
<path d="M2.41992 13.6768L25.8574 8.51084L28.6556 21.2061C28.8933 22.2848 28.2116 23.352 27.1329 23.5897L7.60174 27.8947C6.52306 28.1324 5.45588 27.4507 5.21813 26.372L2.41992 13.6768Z" fill="#FEEAF3"/>
<path d="M6.10274 16.449C6.0433 16.1793 6.21373 15.9125 6.4834 15.8531L7.94824 15.5302C8.48758 15.4113 9.02117 15.7522 9.14004 16.2915L9.57054 18.2446C9.62998 18.5143 9.45955 18.7811 9.18988 18.8405L7.23676 19.271C6.96709 19.3305 6.7003 19.16 6.64086 18.8904L6.10274 16.449Z" fill="#97B2FF" fill-opacity="0.65"/>
<path d="M1.559 9.77051C1.44012 9.23117 1.78097 8.69758 2.32031 8.5787L23.8046 3.84327C24.344 3.72439 24.8776 4.06525 24.9964 4.60458L25.965 8.9991L2.52761 14.165L1.559 9.77051Z" fill="#F2D054"/>
<rect x="4.81934" y="5.97974" width="2" height="4" rx="1" transform="rotate(-12.43 4.81934 5.97974)" fill="#F2D054"/>
<rect x="18.4912" y="2.96631" width="2" height="4" rx="1" transform="rotate(-12.43 18.4912 2.96631)" fill="#F2D054"/>
<path d="M10.9856 15.3728C10.9261 15.1031 11.0965 14.8363 11.3662 14.7769L12.831 14.454C13.3704 14.3352 13.904 14.676 14.0229 15.2153L14.4533 17.1685C14.5128 17.4381 14.3424 17.7049 14.0727 17.7644L12.1196 18.1949C11.8499 18.2543 11.5831 18.0839 11.5237 17.8142L10.9856 15.3728Z" fill="#97B2FF" fill-opacity="0.65"/>
<path d="M15.8684 14.2964C15.8089 14.0267 15.9794 13.7599 16.249 13.7005L17.7139 13.3776C18.2532 13.2587 18.7868 13.5996 18.9057 14.1389L19.3362 16.092C19.3956 16.3617 19.2252 16.6285 18.9555 16.6879L17.0024 17.1184C16.7327 17.1779 16.4659 17.0075 16.4065 16.7378L15.8684 14.2964Z" fill="#97B2FF" fill-opacity="0.65"/>
<path d="M20.7512 13.2202C20.6917 12.9505 20.8622 12.6837 21.1318 12.6243L22.5967 12.3014C23.136 12.1826 23.6696 12.5234 23.7885 13.0628L24.219 15.0159C24.2784 15.2855 24.108 15.5523 23.8383 15.6118L21.8852 16.0423C21.6155 16.1017 21.3487 15.9313 21.2893 15.6616L20.7512 13.2202Z" fill="#97B2FF" fill-opacity="0.65"/>
<rect x="12.0625" y="20.2556" width="3" height="3.5" rx="0.5" transform="rotate(-12.43 12.0625 20.2556)" fill="#F2D054" fill-opacity="0.8"/>
<path d="M7.28731 21.8201C7.22787 21.5504 7.3983 21.2836 7.66797 21.2242L9.13281 20.9013C9.67215 20.7824 10.2057 21.1233 10.3246 21.6626L10.7551 23.6157C10.8145 23.8854 10.6441 24.1522 10.3745 24.2116L8.42133 24.6421C8.15166 24.7016 7.88487 24.5311 7.82543 24.2615L7.28731 21.8201Z" fill="#97B2FF" fill-opacity="0.65"/>
<path d="M17.0529 19.6675C16.9935 19.3978 17.1639 19.131 17.4336 19.0716L18.8984 18.7487C19.4378 18.6298 19.9714 18.9707 20.0902 19.51L20.5207 21.4631C20.5802 21.7328 20.4097 21.9996 20.1401 22.059L18.187 22.4895C17.9173 22.549 17.6505 22.3785 17.5911 22.1089L17.0529 19.6675Z" fill="#97B2FF" fill-opacity="0.65"/>
<path d="M21.9357 18.5913C21.8763 18.3216 22.0467 18.0548 22.3164 17.9954L23.7812 17.6725C24.3206 17.5537 24.8542 17.8945 24.9731 18.4338L25.4035 20.387C25.463 20.6566 25.2926 20.9234 25.0229 20.9829L23.0698 21.4134C22.8001 21.4728 22.5333 21.3024 22.4739 21.0327L21.9357 18.5913Z" fill="#97B2FF" fill-opacity="0.65"/>
</svg>
