<svg width="146" height="136" viewBox="0 0 146 136" fill="none" xmlns="http://www.w3.org/2000/svg">
<g clip-path="url(#clip0_24383_2839)">
<path d="M10.0017 137.156H136.502C135.835 122.323 122.002 92.6562 72.0017 92.6562C22.0017 92.6562 9.83501 122.323 10.0017 137.156Z" fill="#FF7B2E"/>
<path d="M74 18.6562C90.2141 18.6562 103.923 29.3759 108.43 44.1143C113.945 45.619 118 50.6637 118 56.6562C118 63.2282 113.123 68.6596 106.791 69.5322C101.13 81.9917 88.5772 90.6562 74 90.6562C59.4629 90.6562 46.9394 82.0392 41.2559 69.6348C34.4224 69.2491 29 63.5862 29 56.6562C29 50.2809 33.5893 44.9774 39.6445 43.8691C44.2279 29.257 57.8758 18.6562 74 18.6562Z" fill="#FFCCA8"/>
<path d="M72.4989 7.65752C42.4989 10.4575 35.3322 34.1575 35.4989 45.6575C51.0988 45.6575 58.6656 32.3233 60.499 25.6562C67.999 42.6562 84.999 45.6575 112.999 45.6575C109.399 14.0575 84.499 7.15752 72.4989 7.65752Z" fill="#27272D"/>
<path d="M125 136.656H22.5L17.4151 83.0339C17.1925 80.6861 19.0389 78.6562 21.3973 78.6562H125.178C127.509 78.6562 129.346 80.6416 129.166 82.9657L125 136.656Z" fill="#DED6D1"/>
<path d="M67 71.1575C69.1667 69.8242 75.3 67.9575 82.5 71.1575" stroke="#27272D" stroke-width="1.6" stroke-linecap="round"/>
<ellipse cx="65" cy="55.1562" rx="3" ry="3.5" fill="#27272D"/>
<ellipse cx="83" cy="55.1562" rx="3" ry="3.5" fill="#27272D"/>
</g>
<defs>
<clipPath id="clip0_24383_2839">
<rect width="146" height="136" fill="white"/>
</clipPath>
</defs>
</svg>
