<svg width="331" height="305" viewBox="0 0 331 305" fill="none" xmlns="http://www.w3.org/2000/svg">
<rect width="331" height="305" fill="white"/>
<rect x="31" y="51" width="223" height="136" fill="#A8A8A8" fill-opacity="0.07"/>
<rect x="9" y="35" width="223" height="136" fill="#A8A8A8" fill-opacity="0.07"/>
<rect x="12" y="213" width="310" height="80" fill="#A8A8A8" fill-opacity="0.07"/>
<path d="M16.44 13.7H17.4C17.4 16.256 16.092 18.152 13.188 19.244L12.732 18.524C15.312 17.588 16.44 16.016 16.44 14.024V13.7ZM13.188 13.7H16.776V14.504H13.188V13.7ZM16.332 15.596V16.28L12.84 16.64L12.684 15.836L16.332 15.596ZM20.784 13.088H21.732V18.788H20.784V13.088ZM19.056 15.584H21.108V16.4H19.056V15.584ZM18.42 13.292H19.356V18.704H18.42V13.292ZM14.58 19.292H21.732V21.836H15.588V23.456H14.604V21.104H20.772V20.072H14.58V19.292ZM14.604 23.012H22.152V23.792H14.604V23.012ZM30.8231 13.1H31.8191V21.092H30.8231V13.1ZM24.7511 22.88H32.1191V23.696H24.7511V22.88ZM24.7511 20.456H25.7471V23.288H24.7511V20.456ZM23.4911 18.728H24.3671C26.4191 18.728 27.8471 18.656 29.5271 18.368L29.6351 19.184C27.9071 19.484 26.4671 19.544 24.3671 19.544H23.4911V18.728ZM23.4671 13.856H28.3871V17H24.4631V18.98H23.4911V16.232H27.4151V14.672H23.4671V13.856ZM33.8181 20.432H34.6461C36.6621 20.432 37.9581 20.384 39.4701 20.096L39.5781 20.912C38.0181 21.2 36.7101 21.272 34.6461 21.272H33.8181V20.432ZM33.8181 14.12H38.7501V14.936H34.8021V20.744H33.8181V14.12ZM41.2221 13.088H42.2181V23.96H41.2221V13.088ZM38.1141 17.012H41.6301V17.84H38.1141V17.012ZM49.9448 13.832H50.8088V14.66C50.8088 17.024 48.6128 18.86 46.4408 19.352L45.9968 18.524C47.9048 18.164 49.9448 16.508 49.9448 14.66V13.832ZM50.1248 13.832H50.9888V14.66C50.9888 16.52 53.0408 18.164 54.9368 18.524L54.4928 19.352C52.3328 18.86 50.1248 17.036 50.1248 14.66V13.832ZM45.6008 21.656H55.4288V22.472H45.6008V21.656ZM56.6238 20.504H57.4878C59.5158 20.504 60.9318 20.444 62.5998 20.168L62.6958 20.972C60.9918 21.272 59.5518 21.332 57.4878 21.332H56.6238V20.504ZM56.6238 14.072H61.8798V14.9H57.6078V20.792H56.6238V14.072ZM57.3678 17.108H61.4838V17.912H57.3678V17.108ZM63.8358 13.088H64.8318V23.936H63.8358V13.088ZM70.7789 14.216H71.7389C71.7389 17.348 70.6589 20.228 66.8429 22.148L66.2789 21.38C69.6269 19.7 70.7789 17.288 70.7789 14.324V14.216ZM66.8669 14.216H71.3789V15.02H66.8669V14.216ZM70.7189 16.904V17.66L66.4829 18.056L66.3149 17.192L70.7189 16.904ZM74.1989 13.088H75.1949V23.936H74.1989V13.088ZM71.7149 17.432H74.6789V18.26H71.7149V17.432ZM81.01 17.3H83.062V18.128H81.01V17.3ZM84.874 13.088H85.834V23.936H84.874V13.088ZM82.726 13.316H83.674V23.396H82.726V13.316ZM79.054 13.988C80.458 13.988 81.37 15.44 81.37 17.768C81.37 20.096 80.458 21.548 79.054 21.548C77.65 21.548 76.75 20.096 76.75 17.768C76.75 15.44 77.65 13.988 79.054 13.988ZM79.054 14.912C78.202 14.912 77.662 16.016 77.662 17.768C77.662 19.52 78.202 20.624 79.054 20.624C79.918 20.624 80.458 19.52 80.458 17.768C80.458 16.016 79.918 14.912 79.054 14.912ZM92.369 16.76H95.393V17.576H92.369V16.76ZM89.753 14.024H90.569V15.956C90.569 18.392 89.285 20.72 87.569 21.644L86.933 20.852C88.529 20.06 89.753 17.972 89.753 15.956V14.024ZM89.945 14.024H90.749V15.956C90.749 17.936 91.973 19.904 93.545 20.648L92.957 21.452C91.205 20.564 89.945 18.332 89.945 15.956V14.024ZM94.901 13.076H95.885V23.948H94.901V13.076ZM107.524 13.088H108.484V23.936H107.524V13.088ZM103.576 16.976H105.652V17.804H103.576V16.976ZM105.352 13.34H106.288V23.384H105.352V13.34ZM101.488 14.768H102.256V16.148C102.256 18.524 101.344 20.768 99.7477 21.776L99.1357 21.032C100.648 20.12 101.488 18.14 101.488 16.148V14.768ZM101.692 14.768H102.46V16.148C102.46 18.032 103.276 19.916 104.764 20.78L104.152 21.512C102.568 20.552 101.692 18.416 101.692 16.148V14.768ZM99.4357 14.348H104.392V15.176H99.4357V14.348ZM114.011 18.488H115.007V20.132H114.011V18.488ZM109.619 17.9H119.411V18.668H109.619V17.9ZM114.023 13.016H115.007V14.336H114.023V13.016ZM113.975 14.432H114.851V14.6C114.851 16.304 112.823 17.216 110.423 17.42L110.135 16.652C112.271 16.52 113.975 15.764 113.975 14.6V14.432ZM114.179 14.432H115.055V14.6C115.055 15.764 116.759 16.52 118.883 16.652L118.595 17.42C116.195 17.216 114.179 16.304 114.179 14.6V14.432ZM110.615 14.036H118.415V14.792H110.615V14.036ZM110.795 19.652H118.163V22.04H111.803V23.348H110.819V21.332H117.179V20.408H110.795V19.652ZM110.819 23.06H118.487V23.816H110.819V23.06ZM124.569 13.652H125.397V14.756C125.397 16.844 124.221 18.572 122.409 19.28L121.881 18.476C123.513 17.876 124.569 16.412 124.569 14.756V13.652ZM124.749 13.652H125.565V14.828C125.565 16.292 126.645 17.648 128.205 18.188L127.677 18.968C125.937 18.32 124.749 16.712 124.749 14.828V13.652ZM129.357 13.088H130.353V19.664H129.357V13.088ZM130.077 15.884H131.961V16.724H130.077V15.884ZM126.897 19.964C129.117 19.964 130.461 20.696 130.461 21.944C130.461 23.192 129.117 23.912 126.897 23.912C124.677 23.912 123.333 23.192 123.333 21.944C123.333 20.696 124.677 19.964 126.897 19.964ZM126.897 20.756C125.289 20.756 124.305 21.188 124.305 21.944C124.305 22.7 125.289 23.132 126.897 23.132C128.505 23.132 129.489 22.7 129.489 21.944C129.489 21.188 128.505 20.756 126.897 20.756ZM132.7 20.42H133.408C135.124 20.42 136.144 20.384 137.356 20.144L137.464 20.972C136.204 21.224 135.148 21.26 133.408 21.26H132.7V20.42ZM132.7 14.324H136.972V15.14H133.648V20.732H132.7V14.324ZM133.36 17.192H136.804V17.996H133.36V17.192ZM140.536 13.088H141.496V23.936H140.536V13.088ZM138.82 17.432H140.896V18.26H138.82V17.432ZM138.148 13.316H139.096V23.396H138.148V13.316ZM142.608 18.128H152.448V18.884H142.608V18.128ZM143.772 19.76H151.212V22.076H144.792V23.348H143.808V21.392H150.24V20.468H143.772V19.76ZM143.808 23.084H151.56V23.804H143.808V23.084ZM143.856 13.4H151.176V15.656H144.864V16.832H143.88V14.984H150.204V14.108H143.856V13.4ZM143.88 16.592H151.38V17.312H143.88V16.592ZM157.774 18.176H158.77V19.568H157.774V18.176ZM162.346 13.1H163.342V20.372H162.346V13.1ZM162.922 16.376H164.926V17.204H162.922V16.376ZM155.002 20.06L154.87 19.244C156.814 19.244 159.454 19.244 161.698 18.92L161.782 19.628C159.466 20.036 156.898 20.048 155.002 20.06ZM156.214 20.912H163.342V23.936H162.346V21.704H156.214V20.912ZM155.146 14.072H161.374V14.816H155.146V14.072ZM158.266 15.236C159.79 15.236 160.786 15.848 160.786 16.844C160.786 17.84 159.79 18.452 158.266 18.452C156.73 18.452 155.734 17.84 155.734 16.844C155.734 15.848 156.73 15.236 158.266 15.236ZM158.266 15.92C157.294 15.92 156.67 16.268 156.67 16.844C156.67 17.396 157.294 17.756 158.266 17.756C159.226 17.756 159.85 17.396 159.85 16.844C159.85 16.268 159.226 15.92 158.266 15.92ZM157.774 13.004H158.77V14.432H157.774V13.004ZM173.165 13.1H174.173V21.02H173.165V13.1ZM167.201 22.88H174.497V23.696H167.201V22.88ZM167.201 20.204H168.185V23.156H167.201V20.204ZM168.353 13.844C169.973 13.844 171.173 14.948 171.173 16.52C171.173 18.08 169.973 19.196 168.353 19.196C166.733 19.196 165.521 18.08 165.521 16.52C165.521 14.948 166.733 13.844 168.353 13.844ZM168.353 14.708C167.297 14.708 166.493 15.452 166.493 16.52C166.493 17.576 167.297 18.32 168.353 18.32C169.409 18.32 170.213 17.576 170.213 16.52C170.213 15.452 169.409 14.708 168.353 14.708ZM182.964 13.088H183.96V23.936H182.964V13.088ZM183.72 17.54H185.736V18.38H183.72V17.54ZM175.56 14.816H181.956V15.632H175.56V14.816ZM178.8 16.532C180.336 16.532 181.44 17.564 181.44 19.028C181.44 20.492 180.336 21.524 178.8 21.524C177.276 21.524 176.16 20.492 176.16 19.028C176.16 17.564 177.276 16.532 178.8 16.532ZM178.8 17.36C177.816 17.36 177.108 18.044 177.108 19.028C177.108 20 177.816 20.696 178.8 20.696C179.784 20.696 180.492 20 180.492 19.028C180.492 18.044 179.784 17.36 178.8 17.36ZM178.284 13.22H179.28V15.188H178.284V13.22ZM193.843 13.088H194.839V18.704H193.843V13.088ZM187.831 19.256H194.851V21.86H188.827V23.348H187.855V21.116H193.867V20.036H187.831V19.256ZM187.855 23.024H195.211V23.816H187.855V23.024ZM188.779 13.4H189.607V14.228C189.607 16.232 188.359 17.936 186.523 18.608L186.031 17.816C187.663 17.24 188.779 15.8 188.779 14.228V13.4ZM188.959 13.4H189.775V14.228C189.775 15.728 190.915 17.084 192.523 17.612L192.031 18.392C190.207 17.768 188.959 16.172 188.959 14.228V13.4ZM202.662 13.472H203.538V14.072C203.538 16.148 201.426 17.636 199.17 18.02L198.774 17.216C200.754 16.916 202.662 15.62 202.662 14.072V13.472ZM202.842 13.472H203.706V14.072C203.706 15.584 205.638 16.916 207.594 17.216L207.198 18.02C204.966 17.636 202.842 16.124 202.842 14.072V13.472ZM202.662 19.808H203.646V23.936H202.662V19.808ZM198.282 19.196H208.086V20.024H198.282V19.196ZM213.305 19.76H214.073V20.348C214.073 21.764 213.185 23.192 211.625 23.792L211.121 23.048C212.489 22.556 213.305 21.392 213.305 20.348V19.76ZM213.521 19.76H214.265V20.348C214.265 21.44 214.913 22.604 216.209 23.132L215.789 23.888C214.229 23.276 213.521 21.788 213.521 20.348V19.76ZM217.313 19.76H218.057V20.348C218.057 21.62 217.337 23.228 215.789 23.888L215.369 23.132C216.653 22.544 217.313 21.284 217.313 20.348V19.76ZM217.517 19.76H218.285V20.348C218.285 21.464 219.089 22.58 220.469 23.048L219.965 23.792C218.381 23.216 217.517 21.848 217.517 20.348V19.76ZM218.489 13.1H219.497V19.292H218.489V13.1ZM213.677 13.724C215.321 13.724 216.497 14.756 216.497 16.256C216.497 17.756 215.321 18.776 213.677 18.776C212.033 18.776 210.845 17.756 210.845 16.256C210.845 14.756 212.033 13.724 213.677 13.724ZM213.677 14.552C212.597 14.552 211.817 15.248 211.817 16.256C211.817 17.264 212.597 17.948 213.677 17.948C214.757 17.948 215.537 17.264 215.537 16.256C215.537 15.248 214.757 14.552 213.677 14.552ZM222.18 19.592H223.164V20.852H228.468V19.592H229.464V23.792H222.18V19.592ZM223.164 21.62V22.988H228.468V21.62H223.164ZM220.932 18.032H230.736V18.836H220.932V18.032ZM225.336 13.208H226.188V13.688C226.188 15.572 224.088 16.928 221.856 17.264L221.496 16.484C223.452 16.22 225.336 15.056 225.336 13.688V13.208ZM225.492 13.208H226.344V13.688C226.344 15.032 228.252 16.22 230.184 16.484L229.812 17.264C227.604 16.928 225.492 15.548 225.492 13.688V13.208ZM239.167 13.088H240.163V23.936H239.167V13.088ZM231.967 14.144H232.951V20.864H231.967V14.144ZM231.967 20.276H232.855C234.499 20.276 236.215 20.156 238.051 19.772L238.171 20.624C236.287 21.008 234.571 21.14 232.855 21.14H231.967V20.276ZM248.954 13.076H249.962V23.948H248.954V13.076ZM249.722 17.36H251.738V18.2H249.722V17.36ZM242.078 20.408H242.93C244.934 20.408 246.338 20.336 247.958 20.036L248.066 20.876C246.398 21.188 244.97 21.248 242.93 21.248H242.078V20.408ZM242.078 14.132H247.118V14.948H243.062V20.78H242.078V14.132ZM253.017 23.168C252.585 23.168 252.237 22.82 252.237 22.328C252.237 21.824 252.585 21.488 253.017 21.488C253.461 21.488 253.821 21.824 253.821 22.328C253.821 22.82 253.461 23.168 253.017 23.168Z" fill="black"/>
<path d="M16.504 201.588C17.536 201.588 18.268 200.46 18.268 198.708C18.268 196.968 17.536 195.84 16.504 195.84C15.46 195.84 14.728 196.968 14.728 198.708C14.728 200.46 15.46 201.588 16.504 201.588ZM16.504 194.952C18.088 194.952 19.204 196.416 19.204 198.708C19.204 201 18.088 202.464 16.504 202.464C14.92 202.464 13.792 201 13.792 198.708C13.792 196.416 14.92 194.952 16.504 194.952ZM23.692 198.42V199.248H21.916V204.888H20.932V194.136H21.916V198.42H23.692ZM31.7991 194.124H32.7831V204.912H31.7991V194.124ZM27.1071 194.952C28.7031 194.952 29.8431 196.416 29.8431 198.708C29.8431 201 28.7031 202.464 27.1071 202.464C25.5111 202.464 24.3711 201 24.3711 198.708C24.3711 196.416 25.5111 194.952 27.1071 194.952ZM27.1071 195.84C26.0511 195.84 25.3071 196.968 25.3071 198.708C25.3071 200.46 26.0511 201.588 27.1071 201.588C28.1511 201.588 28.8951 200.46 28.8951 198.708C28.8951 196.968 28.1511 195.84 27.1071 195.84ZM35.2021 196.824L41.8621 196.608C41.8741 196.236 41.8741 195.9 41.8741 195.564V195.444H35.4661V194.64H42.8461V195.564C42.8461 196.56 42.8461 197.64 42.5461 199.116L41.5741 199.044C41.7061 198.408 41.7781 197.856 41.8141 197.352L35.3461 197.652L35.2021 196.824ZM36.5341 201.552V203.916H43.0741V204.72H35.5501V201.552H36.5341ZM39.2581 199.836H44.0341V200.628H34.3261V199.836H38.2741V198.276H39.2581V199.836ZM49.7928 201.672C50.7768 201.672 51.4848 200.976 51.4848 200.016C51.4848 199.044 50.7768 198.348 49.7928 198.348C48.8208 198.348 48.1128 199.044 48.1128 200.016C48.1128 200.976 48.8208 201.672 49.7928 201.672ZM49.7928 197.532C51.3288 197.532 52.4208 198.564 52.4208 200.016C52.4208 201.48 51.3288 202.488 49.7928 202.488C48.2808 202.488 47.1888 201.48 47.1888 200.016C47.1888 198.564 48.2808 197.532 49.7928 197.532ZM50.2728 194.256V195.852H52.9248V196.644H46.5768V195.852H49.2888V194.256H50.2728ZM56.6928 198.552V199.38H54.9288V204.888H53.9448V194.136H54.9288V198.552H56.6928ZM63.2038 198.84L63.3118 199.632C61.8358 199.932 60.5638 200.004 58.3078 200.004H57.4678V195.06H62.2318V195.852H58.4518V199.2C60.5758 199.2 61.7998 199.116 63.2038 198.84ZM59.6158 201.132V203.844H65.8078V204.648H58.6318V201.132H59.6158ZM65.3278 197.316H66.9238V198.132H65.3278V201.912H64.3438V194.124H65.3278V197.316ZM76.0665 197.724V200.496H75.1305V194.34H76.0665V196.92H77.4465V194.136H78.3825V201.444H77.4465V197.724H76.0665ZM73.0305 199.08V197.328H70.7145V199.08H73.0305ZM73.9545 194.868V199.872H69.7785V194.868H70.7145V196.548H73.0305V194.868H73.9545ZM75.2865 201.036V201.384C75.2865 202.74 77.0625 203.82 78.9705 204.096L78.5985 204.852C76.9785 204.6 75.4425 203.82 74.7945 202.656C74.1345 203.82 72.6105 204.6 70.9905 204.852L70.6185 204.096C72.5265 203.82 74.2905 202.74 74.2905 201.384V201.036H75.2865ZM83.4776 196.044V197.412C83.4776 199.236 84.7736 201.096 86.3576 201.768L85.8056 202.56C84.5576 201.984 83.5016 200.748 82.9856 199.272C82.4936 200.844 81.4376 202.2 80.2136 202.824L79.6376 202.032C81.1856 201.3 82.4936 199.272 82.4936 197.412V196.044H79.9976V195.228H86.0096V196.044H83.4776ZM87.4616 194.136H88.4456V204.888H87.4616V194.136ZM98.6046 197.364V198.168H91.2846V194.52H92.2686V197.364H98.6046ZM92.1966 201.48V203.82H98.6646V204.624H91.2126V201.48H92.1966ZM89.9646 199.608H99.7206V200.4H89.9646V199.608ZM103.259 198.24C102.731 198.24 102.419 197.808 102.419 197.04C102.419 195.972 102.923 195.204 103.847 194.664L104.159 195.18C103.487 195.624 103.151 196.092 103.151 196.848C103.187 196.836 103.223 196.836 103.259 196.836C103.631 196.836 103.967 197.076 103.967 197.508C103.967 197.976 103.679 198.24 103.259 198.24ZM108.779 196.044V197.412C108.779 199.236 110.075 201.096 111.659 201.768L111.107 202.56C109.859 201.984 108.803 200.748 108.287 199.272C107.795 200.844 106.739 202.2 105.515 202.824L104.939 202.032C106.487 201.3 107.795 199.272 107.795 197.412V196.044H105.299V195.228H111.311V196.044H108.779ZM112.763 194.136H113.747V204.888H112.763V194.136ZM115.746 194.808H120.702C120.702 197.532 118.806 199.464 115.662 200.328L115.254 199.548C117.87 198.84 119.466 197.436 119.646 195.612H115.746V194.808ZM116.634 201.72V200.928H123.63V204.888H122.646V201.72H116.634ZM125.226 196.848V197.664H123.63V200.436H122.646V194.112H123.63V196.848H125.226ZM126.301 198.204L126.085 195.984L126.061 194.748H127.213L127.189 195.984L126.973 198.204H126.301ZM133.873 200.16L132.889 200.064C133.189 198.276 133.213 196.968 133.213 196.104H128.737V195.3H134.173V195.888C134.173 196.752 134.173 198.156 133.873 200.16ZM131.401 198.372V201.66C132.577 201.612 133.777 201.54 134.869 201.408L134.929 202.128C132.697 202.488 130.165 202.536 128.257 202.536L128.149 201.72C128.833 201.72 129.625 201.708 130.429 201.684V198.372H131.401ZM138.229 198.624V199.452H136.513V204.888H135.529V194.124H136.513V198.624H138.229ZM145.44 195.192C143.796 195.192 142.704 195.708 142.704 196.56C142.704 197.4 143.796 197.916 145.44 197.916C147.096 197.916 148.176 197.4 148.176 196.56C148.176 195.708 147.096 195.192 145.44 195.192ZM145.44 198.72C143.16 198.72 141.672 197.892 141.672 196.56C141.672 195.228 143.16 194.4 145.44 194.4C147.72 194.4 149.208 195.228 149.208 196.56C149.208 197.892 147.72 198.72 145.44 198.72ZM142.8 201.504V203.832H149.256V204.648H141.816V201.504H142.8ZM140.568 199.584H150.324V200.388H146.028V202.56H145.032V200.388H140.568V199.584ZM152.023 197.316C152.023 198.324 152.815 199.044 153.859 199.044C154.915 199.044 155.683 198.324 155.683 197.316C155.683 196.32 154.915 195.6 153.859 195.6C152.815 195.6 152.023 196.32 152.023 197.316ZM158.791 196.476H156.487C156.571 196.728 156.619 197.004 156.619 197.316C156.619 197.616 156.571 197.892 156.475 198.156H158.791V196.476ZM158.791 198.96H156.031C155.539 199.536 154.771 199.884 153.859 199.884C152.263 199.884 151.087 198.828 151.087 197.316C151.087 195.816 152.263 194.772 153.859 194.772C154.771 194.772 155.539 195.12 156.031 195.672H158.791V194.124H159.787V200.496H158.791V198.96ZM156.223 204.096C157.867 204.096 158.851 203.616 158.851 202.812C158.851 201.996 157.867 201.516 156.223 201.516C154.603 201.516 153.619 201.996 153.619 202.812C153.619 203.616 154.603 204.096 156.223 204.096ZM156.223 200.748C158.443 200.748 159.823 201.504 159.823 202.812C159.823 204.12 158.443 204.876 156.223 204.876C154.015 204.876 152.647 204.12 152.647 202.812C152.647 201.504 154.015 200.748 156.223 200.748ZM170.09 194.136V202.008H169.106V194.136H170.09ZM167.834 199.692L167.354 200.472C166.118 200.04 165.134 199.152 164.642 198.024C164.186 199.248 163.19 200.22 161.918 200.676L161.402 199.908C163.034 199.344 164.126 197.94 164.126 196.404V195.816H161.666V195.024H167.57V195.816H165.134V196.404C165.134 197.856 166.25 199.164 167.834 199.692ZM164.15 203.844H170.414V204.648H163.166V201.264H164.15V203.844ZM175.089 194.916C176.769 194.916 177.969 195.936 177.969 197.448C177.969 198.948 176.769 199.98 175.089 199.98C173.421 199.98 172.209 198.948 172.209 197.448C172.209 195.936 173.421 194.916 175.089 194.916ZM175.089 195.756C173.985 195.756 173.169 196.44 173.169 197.448C173.169 198.444 173.985 199.14 175.089 199.14C176.205 199.14 177.009 198.444 177.009 197.448C177.009 196.44 176.205 195.756 175.089 195.756ZM179.385 194.124H180.369V204.912H179.385V194.124ZM171.789 202.548L171.669 201.72C173.625 201.72 176.325 201.708 178.677 201.348L178.761 202.08C176.337 202.524 173.733 202.548 171.789 202.548ZM184.88 198.24C184.352 198.24 184.04 197.808 184.04 197.04C184.04 195.972 184.544 195.204 185.468 194.664L185.78 195.18C185.108 195.624 184.772 196.092 184.772 196.848C184.808 196.836 184.844 196.836 184.88 196.836C185.252 196.836 185.588 197.076 185.588 197.508C185.588 197.976 185.3 198.24 184.88 198.24ZM187.183 195.18H192.127V202.176H187.183V195.18ZM191.167 195.972H188.143V201.396H191.167V195.972ZM194.383 194.124H195.367V204.912H194.383V194.124ZM204.77 202.164V198.732H202.598V197.928H204.77V196.512H202.598V195.72H204.77V194.124H205.766V202.164H204.77ZM203.174 199.776L202.634 200.556C201.47 200.064 200.558 199.092 200.09 197.892C199.646 199.188 198.698 200.22 197.438 200.736L196.91 199.956C198.518 199.332 199.598 197.796 199.598 196.104V194.724H200.582V196.104C200.582 197.688 201.626 199.164 203.174 199.776ZM199.826 203.844H206.018V204.648H198.842V201.348H199.826V203.844ZM215.617 195.108V195.852H209.437V195.108H212.041V194.052H213.025V195.108H215.617ZM210.949 197.844C210.949 198.408 211.561 198.768 212.533 198.768C213.481 198.768 214.105 198.408 214.105 197.844C214.105 197.28 213.481 196.932 212.533 196.932C211.561 196.932 210.949 197.28 210.949 197.844ZM215.941 199.908L216.013 200.616C213.709 201.012 211.165 201.024 209.281 201.036L209.173 200.244C210.025 200.244 211.009 200.244 212.041 200.208V199.428C210.793 199.308 210.013 198.732 210.013 197.844C210.013 196.86 211.009 196.248 212.533 196.248C214.033 196.248 215.041 196.86 215.041 197.844C215.041 198.72 214.261 199.296 213.025 199.428V200.172C214.009 200.124 215.005 200.052 215.941 199.908ZM210.481 202.668V201.888H217.561V204.888H216.577V202.668H210.481ZM219.133 197.388V198.204H217.561V201.348H216.577V194.136H217.561V197.388H219.133ZM228.392 194.136V201.996H227.408V194.136H228.392ZM220.772 197.52C220.772 198.588 221.564 199.332 222.608 199.332C223.676 199.332 224.468 198.588 224.468 197.52C224.468 196.476 223.676 195.732 222.608 195.732C221.564 195.732 220.772 196.476 220.772 197.52ZM225.428 197.52C225.428 199.08 224.216 200.184 222.608 200.184C221.012 200.184 219.812 199.08 219.812 197.52C219.812 195.972 221.012 194.88 222.608 194.88C224.216 194.88 225.428 195.972 225.428 197.52ZM222.452 203.844H228.716V204.648H221.468V201.192H222.452V203.844ZM238.099 199.188L237.583 199.956C236.419 199.524 235.495 198.636 235.015 197.532C234.571 198.792 233.611 199.776 232.351 200.256L231.835 199.476C233.467 198.888 234.511 197.424 234.511 195.78V194.676H235.495V195.864C235.495 197.316 236.551 198.66 238.099 199.188ZM236.815 204.108C238.399 204.108 239.371 203.664 239.371 202.92C239.371 202.164 238.399 201.72 236.815 201.72C235.219 201.72 234.247 202.164 234.247 202.92C234.247 203.664 235.219 204.108 236.815 204.108ZM236.815 200.952C238.999 200.952 240.355 201.66 240.355 202.92C240.355 204.168 238.999 204.876 236.815 204.876C234.619 204.876 233.263 204.168 233.263 202.92C233.263 201.66 234.619 200.952 236.815 200.952ZM240.235 196.908H241.831V197.724H240.235V200.652H239.251V194.136H240.235V196.908ZM243.59 198.984V201.408C245.162 201.408 246.122 201.36 247.274 201.132L247.37 201.948C246.122 202.188 245.09 202.224 243.35 202.224H242.642V195.36H246.89V196.164H243.59V198.204H246.722V198.984H243.59ZM250.43 194.124H251.366V204.888H250.43V199.248H249.002V204.36H248.066V194.364H249.002V198.444H250.43V194.124ZM253.245 198.204L253.029 195.984L253.005 194.748H254.157L254.133 195.984L253.917 198.204H253.245ZM255.777 195.276H260.697C260.697 198.336 259.293 201.108 255.813 202.848L255.273 202.08C258.021 200.7 259.497 198.636 259.725 196.092H255.777V195.276ZM265.209 198.492V199.308H263.481V204.888H262.497V194.124H263.481V198.492H265.209ZM272.887 202.692H277.291V203.496H267.511V202.692H271.903V199.812H268.711V195.048H269.695V199.02H276.175V199.812H272.887V202.692ZM278.667 198.42L278.379 197.676C280.371 197.544 282.015 196.884 282.183 195.816H278.859V195.072H282.243V194.052H283.227V195.072H286.599V195.816H283.287C283.455 196.884 285.075 197.544 287.079 197.676L286.779 198.42C284.979 198.276 283.395 197.724 282.735 196.728C282.075 197.724 280.479 198.276 278.667 198.42ZM287.583 199.656H283.227V200.652H286.347V203.004H280.023V204.024H286.671V204.768H279.063V202.296H285.375V201.384H279.027V200.652H282.231V199.656H277.875V198.9H287.583V199.656ZM295.174 198.912L295.234 199.62C292.894 200.016 290.314 200.052 288.382 200.064L288.238 199.272C289.138 199.272 290.194 199.272 291.274 199.224V198.072H289.21V194.664H294.274V195.468H290.182V197.268H294.382V198.072H292.258V199.188C293.254 199.128 294.238 199.056 295.174 198.912ZM296.062 203.952V202.704H290.962V203.952H296.062ZM296.062 201.936V200.808H297.034V204.744H289.978V200.808H290.962V201.936H296.062ZM296.05 194.136H297.034V200.328H296.05V194.136ZM300.197 195.168V201.264C301.817 201.264 303.485 201.12 305.273 200.76L305.381 201.6C303.509 201.984 301.817 202.104 300.101 202.104H299.213V195.168H300.197ZM306.377 194.124H307.361V204.876H306.377V194.124ZM310.32 195.972V201.384C312.228 201.384 313.608 201.3 315.168 201.024L315.276 201.84C313.632 202.152 312.216 202.224 310.188 202.224H309.336V195.156H314.34V195.972H310.32ZM318.936 198.372V199.188H317.16V204.912H316.176V194.124H317.16V198.372H318.936ZM320.251 204.156C319.819 204.156 319.459 203.82 319.459 203.328C319.459 202.824 319.819 202.476 320.251 202.476C320.683 202.476 321.043 202.824 321.043 203.328C321.043 203.82 320.683 204.156 320.251 204.156Z" fill="black"/>
<g clip-path="url(#clip0_3626_3533)">
<path d="M32 89L54 68H108V144H32V89Z" fill="#6A63F5" fill-opacity="0.73"/>
<path d="M54.2227 84.1914C54.2227 86.9528 51.9841 89.1914 49.2227 89.1914H32.0004L54.2227 67.9994V84.1914Z" fill="#6A63F5"/>
<path d="M56.8877 131V125.4H58.0877L58.1977 126.14H58.2277C58.7177 125.66 59.2877 125.26 60.0477 125.26C61.2577 125.26 61.7777 126.1 61.7777 127.51V131H60.3077V127.69C60.3077 126.82 60.0677 126.52 59.5177 126.52C59.0577 126.52 58.7677 126.74 58.3577 127.15V131H56.8877ZM70.5839 122.65V127.26H69.2539V122.65H70.5839ZM64.3439 125.02C64.3439 125.68 64.8539 126.06 65.5339 126.06C66.2139 126.06 66.7039 125.68 66.7039 125.02C66.7039 124.37 66.2139 123.98 65.5339 123.98C64.8539 123.98 64.3439 124.37 64.3439 125.02ZM67.9839 125.02C67.9839 126.25 66.9339 127.13 65.5339 127.13C64.1239 127.13 63.0639 126.25 63.0639 125.02C63.0639 123.8 64.1239 122.92 65.5339 122.92C66.9339 122.92 67.9839 123.8 67.9839 125.02ZM65.7639 130.73H70.8139V131.75H64.4539V129.21H69.2739V128.65H64.4439V127.64H70.5839V130.15H65.7639V130.73ZM75.4631 125.2V125.52C75.4631 126.82 76.1131 128.31 77.5531 129L76.8531 130C75.8731 129.55 75.2031 128.69 74.8231 127.67C74.4231 128.77 73.7131 129.7 72.6831 130.16L71.9731 129.15C73.4631 128.46 74.1531 126.9 74.1531 125.52V125.2H72.2831V124.15H74.1531V122.87H75.4731V124.15H77.2931V125.2H75.4631ZM80.6831 126.23V127.32H79.3431V131.86H78.0231V122.66H79.3431V126.23H80.6831Z" fill="white"/>
<path d="M65.6211 110.168C64.8945 110.168 64.2891 109.879 63.8047 109.301L57.7578 101.977C57.5469 101.734 57.3984 101.5 57.3125 101.273C57.2266 101.047 57.1836 100.812 57.1836 100.57C57.1836 100.016 57.3672 99.5586 57.7344 99.1992C58.1094 98.832 58.5781 98.6484 59.1406 98.6484C59.7656 98.6484 60.2852 98.9023 60.6992 99.4102L65.5742 105.445L75.1484 90.3164C75.3906 89.9492 75.6406 89.6914 75.8984 89.543C76.1641 89.3867 76.4883 89.3086 76.8711 89.3086C77.4336 89.3086 77.8984 89.4883 78.2656 89.8477C78.6328 90.207 78.8164 90.6602 78.8164 91.207C78.8164 91.4102 78.7812 91.6211 78.7109 91.8398C78.6406 92.0586 78.5312 92.2852 78.3828 92.5195L67.4727 109.219C67.043 109.852 66.4258 110.168 65.6211 110.168Z" fill="white" fill-opacity="0.55"/>
</g>
<g clip-path="url(#clip1_3626_3533)">
<path d="M133 89L155 68H209V144H133V89Z" fill="#D9D9D9" fill-opacity="0.73"/>
<path d="M155.223 84.1914C155.223 86.9528 152.984 89.1914 150.223 89.1914H133L155.223 67.9994V84.1914Z" fill="#D9D9D9"/>
<path d="M157.888 131V125.4H159.088L159.198 126.14H159.228C159.718 125.66 160.288 125.26 161.048 125.26C162.258 125.26 162.778 126.1 162.778 127.51V131H161.308V127.69C161.308 126.82 161.068 126.52 160.518 126.52C160.058 126.52 159.768 126.74 159.358 127.15V131H157.888ZM171.584 122.65V127.26H170.254V122.65H171.584ZM165.344 125.02C165.344 125.68 165.854 126.06 166.534 126.06C167.214 126.06 167.704 125.68 167.704 125.02C167.704 124.37 167.214 123.98 166.534 123.98C165.854 123.98 165.344 124.37 165.344 125.02ZM168.984 125.02C168.984 126.25 167.934 127.13 166.534 127.13C165.124 127.13 164.064 126.25 164.064 125.02C164.064 123.8 165.124 122.92 166.534 122.92C167.934 122.92 168.984 123.8 168.984 125.02ZM166.764 130.73H171.814V131.75H165.454V129.21H170.274V128.65H165.444V127.64H171.584V130.15H166.764V130.73ZM176.463 125.2V125.52C176.463 126.82 177.113 128.31 178.553 129L177.853 130C176.873 129.55 176.203 128.69 175.823 127.67C175.423 128.77 174.713 129.7 173.683 130.16L172.973 129.15C174.463 128.46 175.153 126.9 175.153 125.52V125.2H173.283V124.15H175.153V122.87H176.473V124.15H178.293V125.2H176.463ZM181.683 126.23V127.32H180.343V131.86H179.023V122.66H180.343V126.23H181.683Z" fill="white"/>
<path d="M163.094 111.352C161.916 111.352 161.072 110.596 161.072 109.541C161.072 109.031 161.248 108.627 161.617 108.1L166.346 101.701L161.688 95.2676C161.371 94.8457 161.213 94.4062 161.213 93.8965C161.213 92.8242 162.127 91.998 163.322 91.998C164.184 91.998 164.623 92.2969 165.186 93.1758L169.07 98.9062H169.158L172.955 93.2109C173.518 92.3496 173.992 91.998 174.766 91.998C175.996 91.998 176.857 92.7715 176.857 93.8613C176.857 94.3711 176.699 94.8105 176.312 95.3203L171.672 101.578L176.33 108.082C176.646 108.539 176.805 108.961 176.805 109.418C176.805 110.578 175.891 111.352 174.713 111.352C173.904 111.352 173.43 111.018 172.973 110.314L168.947 104.32H168.859L164.852 110.244C164.307 111.088 163.832 111.352 163.094 111.352Z" fill="white" fill-opacity="0.55"/>
</g>
<rect x="260" y="256" width="32" height="20" rx="5" fill="#E3E3E3"/>
<path d="M273.327 261.1H274.323V269.056H273.327V261.1ZM274.011 264.376H275.931V265.204H274.011V264.376ZM267.567 270.88H274.815V271.696H267.567V270.88ZM267.567 268.288H268.563V271.072H267.567V268.288ZM266.355 261.868H267.339V263.68H270.399V261.868H271.371V267.244H266.355V261.868ZM267.339 264.46V266.44H270.399V264.46H267.339ZM284.17 261.076H285.166V271.948H284.17V261.076ZM282.034 263.56H284.434V264.376H282.034V263.56ZM276.646 268.588H277.45C279.13 268.588 280.51 268.54 282.166 268.276L282.262 269.104C280.558 269.368 279.166 269.428 277.45 269.428H276.646V268.588ZM276.622 262.06H281.362V265.948H277.63V268.78H276.646V265.132H280.378V262.888H276.622V262.06ZM281.962 266.524H284.362V267.34H281.962V266.524Z" fill="#909090"/>
<rect x="27" y="256" width="32" height="20" rx="5" fill="#E3E3E3"/>
<path d="M35.7789 262.636H36.5829V264.4C36.5829 266.692 35.2029 268.996 33.4749 269.848L32.8989 269.056C34.4709 268.312 35.7789 266.272 35.7789 264.4V262.636ZM35.9709 262.636H36.7749V264.4C36.7749 266.236 38.0829 268.108 39.6789 268.792L39.1149 269.584C37.3629 268.768 35.9709 266.656 35.9709 264.4V262.636ZM33.2589 262.192H39.3189V263.032H33.2589V262.192ZM40.7829 261.088H41.7789V271.936H40.7829V261.088ZM50.666 261.088H51.662V267.448H50.666V261.088ZM51.386 263.824H53.27V264.664H51.386V263.824ZM47.666 261.784H48.71C48.71 264.52 46.802 266.476 43.634 267.34L43.226 266.56C46.034 265.792 47.666 264.22 47.666 262.216V261.784ZM43.706 261.784H48.218V262.588H43.706V261.784ZM44.618 267.952H51.662V271.936H50.666V268.756H44.618V267.952Z" fill="#909090"/>
<rect x="132" y="256" width="55" height="20" rx="5" fill="#928DF8" fill-opacity="0.22"/>
<path d="M145.484 261.088H146.48V269.584H145.484V261.088ZM146.06 264.868H148.064V265.696H146.06V264.868ZM139.616 270.88H146.864V271.696H139.616V270.88ZM139.616 269.02H140.612V271.132H139.616V269.02ZM140.912 266.392H141.908V267.868H140.912V266.392ZM138.14 268.336L138.008 267.532C139.928 267.532 142.604 267.496 144.836 267.148L144.92 267.856C142.628 268.276 140.024 268.324 138.14 268.336ZM138.284 262.144H144.512V262.9H138.284V262.144ZM141.404 263.344C142.928 263.344 143.924 263.98 143.924 265.012C143.924 266.056 142.928 266.692 141.404 266.692C139.88 266.692 138.872 266.056 138.872 265.012C138.872 263.98 139.88 263.344 141.404 263.344ZM141.404 264.052C140.432 264.052 139.808 264.424 139.808 265.012C139.808 265.612 140.432 265.972 141.404 265.972C142.364 265.972 142.988 265.612 142.988 265.012C142.988 264.424 142.364 264.052 141.404 264.052ZM140.912 261.04H141.908V262.48H140.912V261.04ZM149.691 267.292H150.675V268.72H155.979V267.292H156.975V271.792H149.691V267.292ZM150.675 269.512V270.988H155.979V269.512H150.675ZM149.667 261.58H156.651V262.396H149.667V261.58ZM148.419 265.504H158.247V266.332H148.419V265.504ZM156.003 261.58H156.975V262.372C156.975 263.26 156.975 264.28 156.639 265.732L155.643 265.744C156.003 264.292 156.003 263.26 156.003 262.372V261.58ZM163.538 265.588H164.534V267.232H163.538V265.588ZM164.006 261.58C165.578 261.58 166.682 262.444 166.682 263.728C166.682 265.012 165.578 265.864 164.006 265.864C162.446 265.864 161.342 265.012 161.342 263.728C161.342 262.444 162.446 261.58 164.006 261.58ZM164.006 262.348C162.986 262.348 162.278 262.912 162.278 263.728C162.278 264.556 162.986 265.108 164.006 265.108C165.038 265.108 165.746 264.556 165.746 263.728C165.746 262.912 165.038 262.348 164.006 262.348ZM168.146 261.1H169.142V269.392H168.146V261.1ZM168.722 264.76H170.726V265.588H168.722V264.76ZM162.278 270.868H169.526V271.696H162.278V270.868ZM162.278 268.684H163.274V271.228H162.278V268.684ZM160.85 267.784L160.718 266.968C162.626 266.968 165.266 266.944 167.474 266.608L167.546 267.34C165.278 267.76 162.71 267.784 160.85 267.784ZM173.817 267.448H174.801V270.112H173.817V267.448ZM177.285 267.424H178.257V270.1H177.285V267.424ZM171.081 269.776H180.909V270.604H171.081V269.776ZM172.269 261.892H179.697V265.168H173.289V267.352H172.305V264.376H178.713V262.696H172.269V261.892ZM172.305 266.908H179.949V267.724H172.305V266.908Z" fill="#6A63F5"/>
<rect x="68" y="256" width="55" height="20" rx="5" fill="#FFE81D" fill-opacity="0.22"/>
<path d="M82.0816 266.176H83.0776V267.568H82.0816V266.176ZM86.6536 261.1H87.6496V268.372H86.6536V261.1ZM87.2296 264.376H89.2336V265.204H87.2296V264.376ZM79.3096 268.06L79.1776 267.244C81.1216 267.244 83.7616 267.244 86.0056 266.92L86.0896 267.628C83.7736 268.036 81.2056 268.048 79.3096 268.06ZM80.5216 268.912H87.6496V271.936H86.6536V269.704H80.5216V268.912ZM79.4536 262.072H85.6816V262.816H79.4536V262.072ZM82.5736 263.236C84.0976 263.236 85.0936 263.848 85.0936 264.844C85.0936 265.84 84.0976 266.452 82.5736 266.452C81.0376 266.452 80.0416 265.84 80.0416 264.844C80.0416 263.848 81.0376 263.236 82.5736 263.236ZM82.5736 263.92C81.6016 263.92 80.9776 264.268 80.9776 264.844C80.9776 265.396 81.6016 265.756 82.5736 265.756C83.5336 265.756 84.1576 265.396 84.1576 264.844C84.1576 264.268 83.5336 263.92 82.5736 263.92ZM82.0816 261.004H83.0776V262.432H82.0816V261.004ZM97.4727 261.1H98.4807V269.02H97.4727V261.1ZM91.5087 270.88H98.8047V271.696H91.5087V270.88ZM91.5087 268.204H92.4927V271.156H91.5087V268.204ZM92.6607 261.844C94.2807 261.844 95.4807 262.948 95.4807 264.52C95.4807 266.08 94.2807 267.196 92.6607 267.196C91.0407 267.196 89.8287 266.08 89.8287 264.52C89.8287 262.948 91.0407 261.844 92.6607 261.844ZM92.6607 262.708C91.6047 262.708 90.8007 263.452 90.8007 264.52C90.8007 265.576 91.6047 266.32 92.6607 266.32C93.7167 266.32 94.5207 265.576 94.5207 264.52C94.5207 263.452 93.7167 262.708 92.6607 262.708ZM106.303 266.512H107.299V268.408H106.303V266.512ZM101.899 266.164H111.703V266.968H101.899V266.164ZM106.795 268.108C109.123 268.108 110.515 268.792 110.515 270.016C110.515 271.228 109.123 271.912 106.795 271.912C104.467 271.912 103.075 271.228 103.075 270.016C103.075 268.792 104.467 268.108 106.795 268.108ZM106.795 268.876C105.103 268.876 104.083 269.284 104.083 270.016C104.083 270.736 105.103 271.144 106.795 271.144C108.499 271.144 109.507 270.736 109.507 270.016C109.507 269.284 108.499 268.876 106.795 268.876ZM106.159 261.976H107.047V262.3C107.047 264.052 105.055 265.228 102.811 265.504L102.451 264.712C104.395 264.508 106.159 263.536 106.159 262.3V261.976ZM106.579 261.976H107.455V262.3C107.455 263.536 109.219 264.508 111.163 264.712L110.803 265.504C108.559 265.228 106.579 264.052 106.579 262.3V261.976ZM102.799 261.58H110.827V262.384H102.799V261.58Z" fill="#D3CB00"/>
<path d="M33.13 49.5V51.42H32.35V46.94H33.13V48.83H34.31V46.78H35.1V51.49H34.31V49.5H33.13ZM28.03 47.28H31.52C31.52 49.39 30.42 50.96 28.02 51.87L27.65 51.27C28.87 50.83 29.7 50.2 30.19 49.45L27.74 49.7L27.61 49.04L30.49 48.85C30.6 48.56 30.67 48.26 30.7 47.94H28.03V47.28ZM30.01 54.98H35.44V55.62H29.2V53.4H34.29V52.55H29.18V51.91H35.1V54.01H30.01V54.98ZM43.3792 46.78V53.38H42.5592V46.78H43.3792ZM41.4892 51.14L41.5692 51.81C40.1392 52.05 38.9392 52.11 37.2192 52.11H36.4992V49.38H39.7392V48.07H36.4692V47.41H40.5492V50H37.2992V51.44C38.9392 51.44 40.1092 51.38 41.4892 51.14ZM38.3492 54.87H43.6292V55.54H37.5292V52.87H38.3492V54.87ZM45.7984 48.3V52.85C47.3884 52.85 48.4384 52.79 49.6484 52.56L49.7484 53.24C48.4484 53.48 47.3684 53.54 45.6684 53.54H44.9784V47.62H49.0584V48.3H45.7984ZM51.0984 46.77H51.9184V55.76H51.0984V50.7H48.5284V50.02H51.0984V46.77ZM56.954 52.99C57.814 52.99 58.424 52.05 58.424 50.59C58.424 49.14 57.814 48.2 56.954 48.2C56.084 48.2 55.474 49.14 55.474 50.59C55.474 52.05 56.084 52.99 56.954 52.99ZM56.954 47.46C58.274 47.46 59.204 48.68 59.204 50.59C59.204 52.5 58.274 53.72 56.954 53.72C55.634 53.72 54.694 52.5 54.694 50.59C54.694 48.68 55.634 47.46 56.954 47.46ZM62.944 50.35V51.04H61.464V55.74H60.644V46.78H61.464V50.35H62.944ZM69.5832 46.77H70.4032V55.76H69.5832V46.77ZM65.6732 47.46C67.0032 47.46 67.9532 48.68 67.9532 50.59C67.9532 52.5 67.0032 53.72 65.6732 53.72C64.3432 53.72 63.3932 52.5 63.3932 50.59C63.3932 48.68 64.3432 47.46 65.6732 47.46ZM65.6732 48.2C64.7932 48.2 64.1732 49.14 64.1732 50.59C64.1732 52.05 64.7932 52.99 65.6732 52.99C66.5432 52.99 67.1632 52.05 67.1632 50.59C67.1632 49.14 66.5432 48.2 65.6732 48.2ZM72.3024 49.02L77.8524 48.84C77.8624 48.53 77.8624 48.25 77.8624 47.97V47.87H72.5224V47.2H78.6724V47.97C78.6724 48.8 78.6724 49.7 78.4224 50.93L77.6124 50.87C77.7224 50.34 77.7824 49.88 77.8124 49.46L72.4224 49.71L72.3024 49.02ZM73.4124 52.96V54.93H78.8624V55.6H72.5924V52.96H73.4124ZM75.6824 51.53H79.6624V52.19H71.5724V51.53H74.8624V50.23H75.6824V51.53Z" fill="black" fill-opacity="0.7"/>
<path d="M33.17 231.77V234.08H32.39V228.95H33.17V231.1H34.32V228.78H35.1V234.87H34.32V231.77H33.17ZM30.64 232.9V231.44H28.71V232.9H30.64ZM31.41 229.39V233.56H27.93V229.39H28.71V230.79H30.64V229.39H31.41ZM32.52 234.53V234.82C32.52 235.95 34 236.85 35.59 237.08L35.28 237.71C33.93 237.5 32.65 236.85 32.11 235.88C31.56 236.85 30.29 237.5 28.94 237.71L28.63 237.08C30.22 236.85 31.69 235.95 31.69 234.82V234.53H32.52ZM39.2292 230.37V231.51C39.2292 233.03 40.3092 234.58 41.6292 235.14L41.1692 235.8C40.1292 235.32 39.2492 234.29 38.8192 233.06C38.4092 234.37 37.5292 235.5 36.5092 236.02L36.0292 235.36C37.3192 234.75 38.4092 233.06 38.4092 231.51V230.37H36.3292V229.69H41.3392V230.37H39.2292ZM42.5492 228.78H43.3692V237.74H42.5492V228.78ZM46.8148 232.4L46.5148 231.75C48.0948 231.59 49.5248 230.83 49.5948 229.84H46.8148V229.18H53.4448V229.84H50.6548C50.7248 230.83 52.1648 231.59 53.7348 231.75L53.4448 232.4C51.9648 232.23 50.6248 231.58 50.1248 230.6C49.6248 231.58 48.2848 232.23 46.8148 232.4ZM50.1148 237.1C51.5248 237.1 52.3548 236.77 52.3548 236.18C52.3548 235.6 51.5248 235.27 50.1148 235.27C48.6948 235.27 47.8748 235.6 47.8748 236.18C47.8748 236.77 48.6948 237.1 50.1148 237.1ZM50.1148 234.64C52.0348 234.64 53.1848 235.19 53.1848 236.18C53.1848 237.18 52.0348 237.73 50.1148 237.73C48.1948 237.73 47.0448 237.18 47.0448 236.18C47.0448 235.19 48.1948 234.64 50.1148 234.64ZM50.5248 233.24H54.1748V233.9H46.0648V233.24H49.7048V231.95H50.5248V233.24ZM60.884 230.81V229.78H55.524V229.12H61.714V231.43H56.374V232.53H61.914V233.19H55.554V230.81H60.884ZM62.694 234.12V234.78H60.574V237.75H59.754V234.78H57.494V237.75H56.674V234.78H54.554V234.12H62.694Z" fill="black" fill-opacity="0.7"/>
<rect x="196" y="256" width="55" height="20" rx="5" fill="#928DF8" fill-opacity="0.22"/>
<path d="M204.912 266.176H205.908V267.568H204.912V266.176ZM209.484 261.1H210.48V268.372H209.484V261.1ZM210.06 264.376H212.064V265.204H210.06V264.376ZM202.14 268.06L202.008 267.244C203.952 267.244 206.592 267.244 208.836 266.92L208.92 267.628C206.604 268.036 204.036 268.048 202.14 268.06ZM203.352 268.912H210.48V271.936H209.484V269.704H203.352V268.912ZM202.284 262.072H208.512V262.816H202.284V262.072ZM205.404 263.236C206.928 263.236 207.924 263.848 207.924 264.844C207.924 265.84 206.928 266.452 205.404 266.452C203.868 266.452 202.872 265.84 202.872 264.844C202.872 263.848 203.868 263.236 205.404 263.236ZM205.404 263.92C204.432 263.92 203.808 264.268 203.808 264.844C203.808 265.396 204.432 265.756 205.404 265.756C206.364 265.756 206.988 265.396 206.988 264.844C206.988 264.268 206.364 263.92 205.404 263.92ZM204.912 261.004H205.908V262.432H204.912V261.004ZM220.303 261.1H221.311V269.02H220.303V261.1ZM214.339 270.88H221.635V271.696H214.339V270.88ZM214.339 268.204H215.323V271.156H214.339V268.204ZM215.491 261.844C217.111 261.844 218.311 262.948 218.311 264.52C218.311 266.08 217.111 267.196 215.491 267.196C213.871 267.196 212.659 266.08 212.659 264.52C212.659 262.948 213.871 261.844 215.491 261.844ZM215.491 262.708C214.435 262.708 213.631 263.452 213.631 264.52C213.631 265.576 214.435 266.32 215.491 266.32C216.547 266.32 217.351 265.576 217.351 264.52C217.351 263.452 216.547 262.708 215.491 262.708ZM227.538 265.588H228.534V267.232H227.538V265.588ZM228.006 261.58C229.578 261.58 230.682 262.444 230.682 263.728C230.682 265.012 229.578 265.864 228.006 265.864C226.446 265.864 225.342 265.012 225.342 263.728C225.342 262.444 226.446 261.58 228.006 261.58ZM228.006 262.348C226.986 262.348 226.278 262.912 226.278 263.728C226.278 264.556 226.986 265.108 228.006 265.108C229.038 265.108 229.746 264.556 229.746 263.728C229.746 262.912 229.038 262.348 228.006 262.348ZM232.146 261.1H233.142V269.392H232.146V261.1ZM232.722 264.76H234.726V265.588H232.722V264.76ZM226.278 270.868H233.526V271.696H226.278V270.868ZM226.278 268.684H227.274V271.228H226.278V268.684ZM224.85 267.784L224.718 266.968C226.626 266.968 229.266 266.944 231.474 266.608L231.546 267.34C229.278 267.76 226.71 267.784 224.85 267.784ZM237.817 267.448H238.801V270.112H237.817V267.448ZM241.285 267.424H242.257V270.1H241.285V267.424ZM235.081 269.776H244.909V270.604H235.081V269.776ZM236.269 261.892H243.697V265.168H237.289V267.352H236.305V264.376H242.713V262.696H236.269V261.892ZM236.305 266.908H243.949V267.724H236.305V266.908Z" fill="#6A63F5"/>
<path d="M55.9334 151.188V152.16C55.9334 154.032 56.7374 155.904 58.2254 156.744L57.6254 157.464C56.5814 156.84 55.8374 155.688 55.4654 154.32C55.0934 155.796 54.3134 157.056 53.2454 157.728L52.6454 156.996C54.1454 156.096 54.9854 154.14 54.9854 152.16V151.188H52.9454V150.384H57.8534V151.188H55.9334ZM58.8134 152.988V149.364H59.7494V159.324H58.8134V153.792H57.0374V152.988H58.8134ZM60.9734 149.112H61.9214V159.876H60.9734V149.112ZM63.9205 153.42L63.6325 152.676C65.6245 152.544 67.2685 151.884 67.4365 150.816H64.1125V150.072H67.4965V149.052H68.4805V150.072H71.8525V150.816H68.5405C68.7085 151.884 70.3285 152.544 72.3325 152.676L72.0325 153.42C70.2325 153.276 68.6485 152.724 67.9885 151.728C67.3285 152.724 65.7325 153.276 63.9205 153.42ZM72.8365 154.656H68.4805V155.652H71.6005V158.004H65.2765V159.024H71.9245V159.768H64.3165V157.296H70.6285V156.384H64.2805V155.652H67.4845V154.656H63.1285V153.9H72.8365V154.656ZM77.2715 150.06V151.992C77.2715 153.96 78.5555 155.94 80.1515 156.66L79.5635 157.452C78.3395 156.852 77.3075 155.58 76.7915 154.044C76.2995 155.664 75.2675 157.008 74.0075 157.656L73.4075 156.852C74.9915 156.096 76.2995 154.032 76.2995 151.992V150.06H77.2715ZM81.2795 149.124H82.2635V159.912H81.2795V149.124Z" fill="black" fill-opacity="0.7"/>
<path d="M137.58 154.44V152.472H134.532V154.44H137.58ZM138.54 149.904V155.232H133.56V149.904H134.532V151.704H137.58V149.904H138.54ZM135.756 156.276V158.844H141.948V159.648H134.772V156.276H135.756ZM141.468 152.388H143.052V153.216H141.468V157.032H140.484V149.136H141.468V152.388ZM144.823 153.948V156.576C146.407 156.576 147.727 156.504 149.335 156.252L149.419 157.068C147.727 157.332 146.347 157.392 144.667 157.392H143.851V153.144H147.559V150.888H143.827V150.096H148.531V153.948H144.823ZM151.327 149.112H152.311V159.9H151.327V155.328H149.131V154.524H151.327V152.376H149.203V151.572H151.327V149.112ZM164.597 149.124V155.304H163.613V149.124H164.597ZM160.409 153.432V150.6H157.301V153.432H160.409ZM161.369 149.82V154.224H156.341V149.82H161.369ZM164.849 156.792H161.705C161.717 157.824 163.385 158.868 165.233 159.096L164.897 159.852C163.277 159.624 161.837 158.88 161.201 157.884C160.553 158.904 159.065 159.624 157.445 159.852L157.121 159.096C158.957 158.88 160.673 157.86 160.685 156.792H157.541V156.036H160.697V154.992H161.693V156.036H164.849V156.792ZM168.724 150.18H173.668V157.176H168.724V150.18ZM172.708 150.972H169.684V156.396H172.708V150.972ZM175.924 149.124H176.908V159.912H175.924V149.124ZM181.595 151.188V152.16C181.595 154.032 182.399 155.904 183.887 156.744L183.287 157.464C182.243 156.84 181.499 155.688 181.127 154.32C180.755 155.796 179.975 157.056 178.907 157.728L178.307 156.996C179.807 156.096 180.647 154.14 180.647 152.16V151.188H178.607V150.384H183.515V151.188H181.595ZM184.475 152.988V149.364H185.411V159.324H184.475V153.792H182.699V152.988H184.475ZM186.635 149.112H187.583V159.876H186.635V149.112ZM189.582 153.42L189.294 152.676C191.286 152.544 192.93 151.884 193.098 150.816H189.774V150.072H193.158V149.052H194.142V150.072H197.514V150.816H194.202C194.37 151.884 195.99 152.544 197.994 152.676L197.694 153.42C195.894 153.276 194.31 152.724 193.65 151.728C192.99 152.724 191.394 153.276 189.582 153.42ZM198.498 154.656H194.142V155.652H197.262V158.004H190.938V159.024H197.586V159.768H189.978V157.296H196.29V156.384H189.942V155.652H193.146V154.656H188.79V153.9H198.498V154.656ZM202.933 150.06V151.992C202.933 153.96 204.217 155.94 205.813 156.66L205.225 157.452C204.001 156.852 202.969 155.58 202.453 154.044C201.961 155.664 200.929 157.008 199.669 157.656L199.069 156.852C200.653 156.096 201.961 154.032 201.961 151.992V150.06H202.933ZM206.941 149.124H207.925V159.912H206.941V149.124Z" fill="black" fill-opacity="0.7"/>
<defs>
<clipPath id="clip0_3626_3533">
<rect x="32" y="68" width="72" height="72" rx="5" fill="white"/>
</clipPath>
<clipPath id="clip1_3626_3533">
<rect x="133" y="68" width="72" height="72" rx="5" fill="white"/>
</clipPath>
</defs>
</svg>
