<svg width="374" height="343" viewBox="0 0 374 343" fill="none" xmlns="http://www.w3.org/2000/svg">
<rect width="374" height="342.4" rx="4" fill="white"/>
<path d="M22.5684 16.9668V26.2363H21.4883V23.625H19.3828V22.75H21.4883V21.0957H19.3828V20.207H21.4883V16.9668H22.5684ZM19.3828 18.457V19.332H12.5059V18.457H15.459V16.9531H16.5254V18.457H19.3828ZM15.9785 20.002C17.6055 20.002 18.7539 20.9316 18.7539 22.3262C18.7539 23.707 17.6055 24.6504 15.9785 24.6504C14.3516 24.6504 13.2168 23.707 13.2305 22.3262C13.2168 20.9316 14.3516 20.002 15.9785 20.002ZM15.9785 20.8496C14.9395 20.8633 14.2285 21.4512 14.2285 22.3262C14.2285 23.2012 14.9395 23.7891 15.9785 23.7891C17.0176 23.7891 17.7285 23.2012 17.7422 22.3262C17.7285 21.4512 17.0176 20.8633 15.9785 20.8496ZM22.8418 27.9453V28.8477H14.707V25.416H15.7871V27.9453H22.8418ZM33.8701 16.9668V20.6309H35.6884V21.5332H33.8701V25.2109H32.79V16.9668H33.8701ZM29.9462 25.3613C32.4755 25.3477 33.9384 26.0176 33.9521 27.2344C33.9384 28.4512 32.4755 29.0938 29.9462 29.1074C27.4033 29.0938 25.9541 28.4512 25.9541 27.2344C25.9541 26.0176 27.4033 25.3477 29.9462 25.3613ZM29.9462 26.168C28.0732 26.1543 27.0205 26.5508 27.0341 27.2344C27.0205 27.8906 28.0732 28.2871 29.9462 28.2871C31.8056 28.2871 32.8584 27.8906 32.8584 27.2344C32.8584 26.5508 31.8056 26.1543 29.9462 26.168ZM24.3271 23.7891C25.3046 23.7891 26.4394 23.7822 27.622 23.748V22.7773C26.2002 22.6611 25.2978 22.0254 25.2978 21.0684C25.2978 19.9883 26.4189 19.3457 28.1416 19.3457C29.8779 19.3457 30.9853 19.9883 30.999 21.0684C30.9853 22.0186 30.1103 22.6543 28.6884 22.7773V23.6934C29.83 23.6455 30.9785 23.5566 32.038 23.4062L32.1337 24.1582C29.5224 24.6094 26.6103 24.6504 24.4502 24.6504L24.3271 23.7891ZM31.6689 18.0059V18.8398H24.6279V18.0059H27.622V16.8574H28.6884V18.0059H31.6689ZM28.1416 20.0977C27.0205 20.0977 26.3232 20.4805 26.3232 21.0684C26.3232 21.6836 27.0205 22.0527 28.1416 22.0527C29.2627 22.0527 29.9736 21.6836 29.9736 21.0684C29.9736 20.4805 29.2627 20.0977 28.1416 20.0977ZM45.8778 18.2246C45.8641 21.7383 44.6747 24.9512 40.2997 27.0977L39.6981 26.2773C41.9882 25.1699 43.3622 23.7617 44.1005 22.1211L39.9305 22.5176L39.7528 21.5742L44.4286 21.2598C44.6405 20.5762 44.7636 19.8584 44.8114 19.1133H40.368V18.2246H45.8778ZM48.9813 16.9531V21.9023H50.9501V22.8047H48.9813V29.1074H47.9149V16.9531H48.9813ZM61.2811 22.8047V23.6934H52.8866V18.0879H61.158V18.9766H53.953V22.8047H61.2811ZM62.5936 26.5508V27.4531H51.4647V26.5508H62.5936ZM73.7723 16.9531V29.1074H72.7332V16.9531H73.7723ZM71.325 17.2129V28.4922H70.2996V22.5859H68.741C68.6248 24.9512 67.6199 26.4277 66.116 26.4277C64.5301 26.4277 63.5047 24.7871 63.5047 22.2031C63.5047 19.6191 64.5301 17.9785 66.116 17.9785C67.5926 17.9785 68.5906 19.4072 68.7273 21.6973H70.2996V17.2129H71.325ZM66.116 18.9902C65.1316 18.9902 64.5027 20.2207 64.5164 22.2031C64.5027 24.1719 65.1316 25.416 66.116 25.4023C67.1004 25.416 67.7293 24.1719 67.7293 22.2031C67.7293 20.2207 67.1004 18.9902 66.116 18.9902ZM79.5232 20.2207C79.5232 22.4219 80.9314 24.6367 82.6951 25.4434L82.0525 26.3184C80.6716 25.6074 79.53 24.1514 78.99 22.4219C78.45 24.2402 77.3084 25.7988 75.9275 26.5371L75.2302 25.6758C77.0076 24.8008 78.4295 22.4629 78.4295 20.2207V18.0059H79.5232V20.2207ZM85.3201 16.9531V29.1348H84.2537V21.9844H81.3689V21.1094H84.2537V16.9531H85.3201ZM100.828 16.9531V29.1074H99.8024V16.9531H100.828ZM98.3669 17.2539V28.4785H97.3552V22.2168H95.3044V21.3418H97.3552V17.2539H98.3669ZM94.0055 20.4258C94.0055 22.5312 94.9489 24.623 96.6305 25.5938L95.9743 26.3867C94.778 25.6689 93.9304 24.3564 93.5134 22.8047C93.069 24.4795 92.1872 25.9082 90.9704 26.6738L90.2868 25.8672C91.9821 24.8555 92.9665 22.6406 92.9665 20.4258V19.2773H90.6286V18.3887H96.2341V19.2773H94.0055V20.4258ZM113.401 22.3672V23.2012H108.383V24.3359H111.979V26.9609H104.76V28.1504H112.348V28.9707H103.694V26.1953H110.926V25.1426H103.667V24.3359H107.331V23.2012H102.34V22.3672H113.401ZM108.383 16.8848V18.0195H112.28V18.8672H108.465C108.664 20.0771 110.564 20.8428 112.799 20.9863L112.471 21.8066C110.441 21.6357 108.609 21.0068 107.864 19.8516C107.119 21.0068 105.287 21.6357 103.243 21.8066L102.928 20.9863C105.15 20.8428 107.05 20.0771 107.262 18.8672H103.475V18.0195H107.331V16.8848H108.383ZM121.581 18.9219C121.581 20.5762 122.838 22.0938 124.602 22.6953L124.014 23.543C122.668 23.0508 121.608 22.0459 121.075 20.7812C120.555 22.21 119.475 23.3379 118.053 23.8848L117.479 23.0234C119.297 22.3398 120.514 20.7129 120.528 18.8398V17.582H121.581V18.9219ZM127.022 16.9531V20.125H128.854V21.0273H127.022V24.3496H125.956V16.9531H127.022ZM123.126 24.6641C125.628 24.6641 127.131 25.4707 127.131 26.8652C127.131 28.2871 125.628 29.0801 123.126 29.0801C120.624 29.0801 119.092 28.2871 119.092 26.8652C119.092 25.4707 120.624 24.6641 123.126 24.6641ZM123.126 25.5254C121.294 25.5254 120.159 26.0312 120.172 26.8652C120.159 27.7266 121.294 28.2188 123.126 28.2324C124.971 28.2188 126.092 27.7266 126.092 26.8652C126.092 26.0312 124.971 25.5254 123.126 25.5254ZM134.714 18.3613V19.2363H130.927V21.5742H134.537V22.4355H130.927V25.1836C132.732 25.1768 133.846 25.1289 135.179 24.8828L135.275 25.7715C133.853 26.0449 132.677 26.0996 130.681 26.0996H129.902V18.3613H134.714ZM139.828 16.9531V29.1074H138.789V22.7363H137.121V28.4922H136.082V17.2129H137.121V21.8477H138.789V16.9531H139.828ZM152.415 22.5996V23.4473H141.286V22.5996H152.415ZM151.02 24.418V27.002H143.719V28.1641H151.416V28.9434H142.639V26.2637H149.954V25.2246H142.625V24.418H151.02ZM150.979 17.3223V19.8379H143.801V20.9043H151.198V21.6836H142.735V19.0996H149.899V18.1016H142.694V17.3223H150.979ZM165.981 16.9668V20.6445H167.799V21.5469H165.981V25.1152H164.901V16.9668H165.981ZM156.438 23.8711C157.409 23.8711 158.543 23.8711 159.733 23.8301V22.9414C158.318 22.8184 157.409 22.1553 157.409 21.1504C157.409 20.043 158.543 19.3594 160.252 19.3594C161.975 19.3594 163.096 20.043 163.11 21.1504C163.096 22.1484 162.207 22.8115 160.799 22.9414V23.7891C161.934 23.7344 163.082 23.6455 164.149 23.4883L164.245 24.2676C161.606 24.7324 158.694 24.7461 156.561 24.7461L156.438 23.8711ZM165.981 25.7168V29.1074H164.901V26.5781H157.928V25.7168H165.981ZM163.78 18.0742V18.8945H156.739V18.0742H159.733V16.8574H160.799V18.0742H163.78ZM160.252 20.125C159.131 20.1113 158.434 20.5078 158.434 21.1504C158.434 21.7793 159.131 22.2168 160.252 22.2031C161.373 22.2168 162.084 21.7793 162.084 21.1504C162.084 20.5078 161.373 20.1113 160.252 20.125ZM178.417 16.9668V25.8535H177.351V16.9668H178.417ZM178.8 27.9453V28.8477H170.57V24.9512H171.636V27.9453H178.8ZM171.855 17.8145C173.673 17.8145 175.04 19.0449 175.04 20.7949C175.04 22.5723 173.673 23.7891 171.855 23.7891C170.036 23.7891 168.669 22.5723 168.669 20.7949C168.669 19.0449 170.036 17.8145 171.855 17.8145ZM171.855 18.7578C170.624 18.7578 169.708 19.6055 169.722 20.7949C169.708 22.0117 170.624 22.8457 171.855 22.8457C173.058 22.8457 173.988 22.0117 173.988 20.7949C173.988 19.6055 173.058 18.7578 171.855 18.7578ZM189.678 16.9531V21.9707H191.715V22.8594H189.678V29.1074H188.612V16.9531H189.678ZM187.436 18.9082V19.7969H180.203V18.9082H183.334V17.1035H184.401V18.9082H187.436ZM183.881 20.8086C185.604 20.8086 186.848 21.957 186.862 23.5977C186.848 25.2383 185.604 26.3867 183.881 26.3867C182.145 26.3867 180.887 25.2383 180.901 23.5977C180.887 21.957 182.145 20.8086 183.881 20.8086ZM183.881 21.7109C182.746 21.7109 181.912 22.5039 181.926 23.5977C181.912 24.7051 182.746 25.4844 183.881 25.4707C185.002 25.4844 185.823 24.7051 185.836 23.5977C185.823 22.5039 185.002 21.7109 183.881 21.7109ZM202.183 16.9531V23.2559H201.13V16.9531H202.183ZM202.197 23.8711V26.7832H195.374V28.0957H202.634V28.9707H194.322V25.9492H201.13V24.7324H194.294V23.8711H202.197ZM196.468 18.2383C196.454 19.9609 197.767 21.4785 199.572 22.0664L199.038 22.9004C197.616 22.415 196.482 21.3965 195.935 20.084C195.388 21.499 194.246 22.6133 192.804 23.1328L192.243 22.2852C194.075 21.6426 195.374 20.0293 195.374 18.2383V17.3086H196.468V18.2383ZM213.452 18.0879C213.452 19.7969 215.695 21.2871 217.882 21.5879L217.445 22.4629C215.558 22.1484 213.692 21.1025 212.905 19.6055C212.126 21.1094 210.253 22.1484 208.366 22.4629L207.929 21.5879C210.116 21.2871 212.345 19.8242 212.345 18.0879V17.3906H213.452V18.0879ZM218.429 23.8027V24.7051H213.398V29.1074H212.345V24.7051H207.355V23.8027H218.429ZM226.663 25.1152C226.663 26.1885 227.237 27.3301 228.4 27.9863C229.548 27.2686 230.163 26.0586 230.163 25.1152V24.4453H231.216V25.1152C231.216 26.3594 232.132 27.6172 233.691 28.1504L233.157 28.9434C231.941 28.5127 231.086 27.665 230.669 26.6465C230.293 27.6309 229.548 28.5605 228.427 29.0391C227.244 28.5879 226.492 27.6924 226.13 26.6738C225.699 27.6582 224.859 28.5059 223.696 28.9434L223.15 28.1504C224.681 27.5762 225.61 26.2773 225.624 25.1152V24.4453H226.663V25.1152ZM232.583 16.9668V23.9121H231.517V16.9668H232.583ZM226.021 17.6777C227.866 17.6777 229.206 18.8262 229.206 20.5215C229.206 22.1895 227.866 23.3379 226.021 23.3379C224.175 23.3379 222.835 22.1895 222.835 20.5215C222.835 18.8262 224.175 17.6777 226.021 17.6777ZM226.021 18.5938C224.776 18.5801 223.874 19.3867 223.888 20.5215C223.874 21.6426 224.776 22.4355 226.021 22.4492C227.251 22.4355 228.153 21.6426 228.153 20.5215C228.153 19.3867 227.251 18.5801 226.021 18.5938ZM236.912 24.2539V25.6758H242.982V24.2539H244.063V28.9434H235.846V24.2539H236.912ZM236.912 28.082H242.982V26.5234H236.912V28.082ZM245.512 22.5039V23.3926H234.438V22.5039H245.512ZM240.535 17.6641C240.535 19.168 242.75 20.5078 244.883 20.7812L244.486 21.6426C242.6 21.3623 240.754 20.3984 239.988 19.0312C239.209 20.4053 237.35 21.3623 235.477 21.6426L235.066 20.7812C237.227 20.4941 239.428 19.209 239.428 17.6641V17.0898H240.535V17.6641ZM256.349 16.9531V29.1074H255.282V16.9531H256.349ZM248.173 18.1562V25.0469C250.025 25.04 251.946 24.8896 253.983 24.459L254.134 25.375C251.974 25.8262 250.046 25.9766 248.105 25.9766H247.12V18.1562H248.173ZM267.623 16.9531V21.7656H269.66V22.668H267.623V29.1348H266.557V16.9531H267.623ZM264.424 18.1426V19.0312H259.816V25.1836C262.018 25.1836 263.576 25.0811 265.381 24.7461L265.518 25.6758C263.617 26.0176 262.018 26.0859 259.707 26.0859H258.75V18.1426H264.424ZM271.392 28.082C270.913 28.082 270.503 27.6855 270.517 27.1934C270.503 26.7148 270.913 26.3184 271.392 26.3184C271.87 26.3184 272.267 26.7148 272.267 27.1934C272.267 27.6855 271.87 28.082 271.392 28.082Z" fill="#27272D"/>
<rect width="350" height="122.2" transform="translate(12 44)" fill="#F9F9F8"/>
<rect x="24.4" y="52.4" width="59.04" height="83.4" rx="2.8" fill="white"/>
<rect x="24.4" y="52.4" width="59.04" height="83.4" rx="2.8" stroke="#E7E7E7" stroke-width="0.8"/>
<rect x="30.7984" y="60.4" width="10.4" height="10.4" rx="5.2" stroke="#5F66F6" stroke-width="0.8"/>
<circle cx="33.5969" cy="65.6008" r="0.8" fill="#5F66F6"/>
<circle cx="35.9953" cy="65.6008" r="0.8" fill="#5F66F6"/>
<circle cx="38.3977" cy="65.6008" r="0.8" fill="#5F66F6"/>
<path d="M37.6391 76.4816V84.4004H36.3703L32.6187 78.9863H32.5531V84.4004H31.1312V76.4816H32.4219L36.1516 81.8957H36.2281V76.4816H37.6391ZM46.6559 75.4863V85.3738H45.4419V75.4863H46.6559ZM38.4637 82.6285C39.2512 82.623 40.1427 82.623 41.0778 82.5957V81.6879C39.9677 81.5129 39.2403 80.8348 39.2403 79.8941C39.2403 78.7785 40.2302 78.0402 41.6684 78.0348C43.1231 78.0402 44.1294 78.7785 44.1294 79.8941C44.1294 80.8293 43.402 81.502 42.2919 81.6824V82.552C43.1614 82.5137 44.0364 82.4426 44.8622 82.3332L44.9497 83.241C42.7786 83.6074 40.4161 83.6348 38.6387 83.6348L38.4637 82.6285ZM38.6716 77.5863V76.6238H41.0778V75.5191H42.2919V76.6238H44.6872V77.5863H38.6716ZM40.3997 79.8941C40.3887 80.4629 40.9192 80.7965 41.6684 80.791C42.4395 80.7965 42.9645 80.4629 42.9591 79.8941C42.9645 79.3199 42.4395 78.9699 41.6684 78.9645C40.9192 78.9699 40.3887 79.3199 40.3997 79.8941ZM51.2978 78.6254C51.2978 80.091 52.1236 81.6879 53.6494 82.4098L52.9712 83.3285C51.8994 82.8363 51.1283 81.852 50.7127 80.698C50.2806 81.9449 49.4658 82.9949 48.3337 83.5035L47.6666 82.5629C49.2252 81.8629 50.0947 80.1785 50.0947 78.6254V78.1113H47.9837V77.1379H50.0947V75.6941H51.3087V77.1379H53.3869V78.1113H51.2978V78.6254ZM54.3494 85.3738V75.4863H55.5634V79.402H57.0837V80.4191H55.5634V85.3738H54.3494ZM34.4781 90.4988C34.4781 91.7293 35.3203 92.9324 36.8953 93.4191L36.2719 94.3707C35.1508 94.0098 34.3359 93.266 33.882 92.3254C33.4391 93.348 32.5969 94.1629 31.4266 94.5676L30.8031 93.6051C32.3945 93.0801 33.2422 91.8004 33.2531 90.4988V90.2145H31.1203V89.241H36.5562V90.2145H34.4781V90.4988ZM32.4219 98.177V95.016H33.6469V97.1926H39.2359V98.177H32.4219ZM37.7375 95.6723V88.4973H38.9625V95.6723H37.7375ZM48.5809 88.4863V94.6988H47.4216V92.0082H46.4591V94.3707H45.3216V88.6832H46.4591V91.0238H47.4216V88.4863H48.5809ZM40.0716 90.5098V89.5582H41.9419V88.5738H43.145V89.5582H44.9934V90.5098H40.0716ZM40.4216 92.6207C40.4106 91.5926 41.3075 90.909 42.5434 90.9145C43.8013 90.909 44.6872 91.5926 44.6981 92.6207C44.6872 93.6488 43.8013 94.327 42.5434 94.327C41.3075 94.327 40.4106 93.6488 40.4216 92.6207ZM41.5044 92.6207C41.5044 93.1293 41.9255 93.452 42.5434 93.452C43.1669 93.452 43.5934 93.1293 43.5934 92.6207C43.5934 92.1121 43.1669 91.7895 42.5434 91.7895C41.9255 91.7895 41.5044 92.1121 41.5044 92.6207ZM41.8544 96.602C41.8489 95.4645 43.1286 94.8246 45.245 94.8191C47.3559 94.8246 48.6302 95.4645 48.6356 96.602C48.6302 97.7176 47.3559 98.3629 45.245 98.3629C43.1286 98.3629 41.8489 97.7176 41.8544 96.602ZM43.0684 96.602C43.063 97.1434 43.8341 97.4387 45.245 97.4332C46.6505 97.4387 47.4052 97.1434 47.4106 96.602C47.4052 96.0277 46.6505 95.7379 45.245 95.7488C43.8341 95.7379 43.063 96.0277 43.0684 96.602ZM58.5384 93.0254V94.0098H54.6228V94.841C56.3892 94.9559 57.4392 95.5684 57.4447 96.591C57.4392 97.7285 56.1486 98.3629 54.0213 98.3629C51.8611 98.3629 50.5759 97.7285 50.5759 96.591C50.5759 95.5684 51.6259 94.9504 53.4197 94.8355V94.0098H49.5259V93.0254H58.5384ZM49.9634 91.6145C51.7791 91.4449 52.9658 90.7066 53.1681 89.8973H50.3463V88.9238H57.7291V89.8973H54.8798C55.0767 90.7121 56.2525 91.4449 58.1119 91.6145L57.6853 92.577C55.8861 92.391 54.5572 91.6746 54.0213 90.6738C53.4853 91.6746 52.1728 92.391 50.3791 92.577L49.9634 91.6145ZM51.8119 96.591C51.8064 97.1379 52.583 97.4387 54.0213 97.4332C55.4377 97.4387 56.2197 97.1379 56.2306 96.591C56.2197 96.0441 55.4377 95.7543 54.0213 95.7488C52.583 95.7543 51.8064 96.0441 51.8119 96.591Z" fill="#5F66F6"/>
<path d="M32.4922 113.285C31.4688 113.281 30.7188 112.457 30.7188 111.09C30.7188 109.707 31.4805 108.902 32.5 108.902C33.2891 108.902 33.5742 109.379 33.7266 109.645H33.7656V107.543H34.6016V113.199H33.7891V112.535H33.7266C33.5703 112.812 33.2656 113.281 32.4922 113.285ZM31.5703 111.074C31.5664 111.926 31.9492 112.57 32.6797 112.574C33.3906 112.57 33.7891 111.965 33.7891 111.074C33.7891 110.191 33.3984 109.609 32.6797 109.613C31.9414 109.609 31.5664 110.238 31.5703 111.074ZM37.0734 113.285C36.05 113.281 35.3 112.457 35.3 111.09C35.3 109.707 36.0617 108.902 37.0813 108.902C37.8703 108.902 38.1555 109.379 38.3078 109.645H38.3469V107.543H39.1828V113.199H38.3703V112.535H38.3078C38.1516 112.812 37.8469 113.281 37.0734 113.285ZM36.1516 111.074C36.1477 111.926 36.5305 112.57 37.2609 112.574C37.9719 112.57 38.3703 111.965 38.3703 111.074C38.3703 110.191 37.9797 109.609 37.2609 109.613C36.5227 109.609 36.1477 110.238 36.1516 111.074ZM40.6156 113.254C40.3109 113.25 40.057 113.004 40.0609 112.699C40.057 112.395 40.3109 112.145 40.6156 112.145C40.9164 112.145 41.1664 112.395 41.1703 112.699C41.1664 113.004 40.9164 113.25 40.6156 113.254ZM43.5641 113.285C42.5406 113.281 41.7906 112.457 41.7906 111.09C41.7906 109.707 42.5523 108.902 43.5719 108.902C44.3609 108.902 44.6461 109.379 44.7984 109.645H44.8375V107.543H45.6734V113.199H44.8609V112.535H44.7984C44.6422 112.812 44.3375 113.281 43.5641 113.285ZM42.6422 111.074C42.6383 111.926 43.0211 112.57 43.7516 112.574C44.4625 112.57 44.8609 111.965 44.8609 111.074C44.8609 110.191 44.4703 109.609 43.7516 109.613C43.0133 109.609 42.6383 110.238 42.6422 111.074ZM48.1453 113.285C47.1219 113.281 46.3719 112.457 46.3719 111.09C46.3719 109.707 47.1336 108.902 48.1531 108.902C48.9422 108.902 49.2273 109.379 49.3797 109.645H49.4187V107.543H50.2547V113.199H49.4422V112.535H49.3797C49.2234 112.812 48.9187 113.281 48.1453 113.285ZM47.2234 111.074C47.2195 111.926 47.6023 112.57 48.3328 112.574C49.0437 112.57 49.4422 111.965 49.4422 111.074C49.4422 110.191 49.0516 109.609 48.3328 109.613C47.5945 109.609 47.2195 110.238 47.2234 111.074ZM33.4062 122.449V123.168H30.8984V122.449H33.4062ZM35.8 125.285C34.7766 125.281 34.0266 124.457 34.0266 123.09C34.0266 121.707 34.7883 120.902 35.8078 120.902C36.5969 120.902 36.882 121.379 37.0344 121.645H37.0734V119.543H37.9094V125.199H37.0969V124.535H37.0344C36.8781 124.812 36.5734 125.281 35.8 125.285ZM34.8781 123.074C34.8742 123.926 35.257 124.57 35.9875 124.574C36.6984 124.57 37.0969 123.965 37.0969 123.074C37.0969 122.191 36.7062 121.609 35.9875 121.613C35.2492 121.609 34.8742 122.238 34.8781 123.074ZM40.3812 125.285C39.3578 125.281 38.6078 124.457 38.6078 123.09C38.6078 121.707 39.3695 120.902 40.3891 120.902C41.1781 120.902 41.4633 121.379 41.6156 121.645H41.6547V119.543H42.4906V125.199H41.6781V124.535H41.6156C41.4594 124.812 41.1547 125.281 40.3812 125.285ZM39.4594 123.074C39.4555 123.926 39.8383 124.57 40.5687 124.574C41.2797 124.57 41.6781 123.965 41.6781 123.074C41.6781 122.191 41.2875 121.609 40.5687 121.613C39.8305 121.609 39.4555 122.238 39.4594 123.074ZM43.9234 125.254C43.6187 125.25 43.3648 125.004 43.3687 124.699C43.3648 124.395 43.6187 124.145 43.9234 124.145C44.2242 124.145 44.4742 124.395 44.4781 124.699C44.4742 125.004 44.2242 125.25 43.9234 125.254ZM46.8719 125.285C45.8484 125.281 45.0984 124.457 45.0984 123.09C45.0984 121.707 45.8602 120.902 46.8797 120.902C47.6687 120.902 47.9539 121.379 48.1062 121.645H48.1453V119.543H48.9812V125.199H48.1687V124.535H48.1062C47.95 124.812 47.6453 125.281 46.8719 125.285ZM45.95 123.074C45.9461 123.926 46.3289 124.57 47.0594 124.574C47.7703 124.57 48.1687 123.965 48.1687 123.074C48.1687 122.191 47.7781 121.609 47.0594 121.613C46.3211 121.609 45.9461 122.238 45.95 123.074ZM51.4531 125.285C50.4297 125.281 49.6797 124.457 49.6797 123.09C49.6797 121.707 50.4414 120.902 51.4609 120.902C52.25 120.902 52.5352 121.379 52.6875 121.645H52.7266V119.543H53.5625V125.199H52.75V124.535H52.6875C52.5312 124.812 52.2266 125.281 51.4531 125.285ZM50.5312 123.074C50.5273 123.926 50.9102 124.57 51.6406 124.574C52.3516 124.57 52.75 123.965 52.75 123.074C52.75 122.191 52.3594 121.609 51.6406 121.613C50.9023 121.609 50.5273 122.238 50.5312 123.074Z" fill="#4D55F5"/>
<path d="M46.6356 144.73V155.148H45.7567V144.73H46.6356ZM44.5263 144.988V154.609H43.6591V149.242H41.9013V148.492H43.6591V144.988H44.5263ZM40.788 147.707C40.788 149.512 41.5966 151.305 43.038 152.137L42.4755 152.816C41.4501 152.201 40.7235 151.076 40.3661 149.746C39.9852 151.182 39.2294 152.406 38.1864 153.062L37.6005 152.371C39.0536 151.504 39.8973 149.605 39.8973 147.707V146.723H37.8934V145.961H42.6981V146.723H40.788V147.707ZM57.2927 149.371V150.086H52.9919V151.059H56.0739V153.309H49.8864V154.328H56.3903V155.031H48.9723V152.652H55.1716V151.75H48.9489V151.059H52.0895V150.086H47.8122V149.371H57.2927ZM52.9919 144.672V145.645H56.3317V146.371H53.0622C53.2321 147.408 54.861 148.064 56.777 148.188L56.4958 148.891C54.7556 148.744 53.1852 148.205 52.5466 147.215C51.9079 148.205 50.3376 148.744 48.5856 148.891L48.3161 148.188C50.2204 148.064 51.8493 147.408 52.0309 146.371H48.7848V145.645H52.0895V144.672H52.9919ZM69.22 144.742V152.383H68.2942V148.387H66.1497V147.625H68.2942V144.742H69.22ZM69.513 154.152V154.926H62.5286V151.691H63.4544V154.152H69.513ZM64.2044 146.887C64.2044 148.234 65.2473 149.547 66.7708 150.062L66.2903 150.801C65.1126 150.379 64.2044 149.5 63.7591 148.422C63.3079 149.623 62.347 150.584 61.1106 151.047L60.6302 150.297C62.1653 149.758 63.2786 148.387 63.2786 146.887V146.348H60.9231V145.586H66.5364V146.348H64.2044V146.887Z" fill="#27272D"/>
<rect x="108.24" y="52.4" width="59.04" height="83.4" rx="2.8" fill="white"/>
<rect x="108.24" y="52.4" width="59.04" height="83.4" rx="2.8" stroke="#E7E7E7" stroke-width="0.8"/>
<rect x="114.638" y="60.4" width="10.4" height="10.4" rx="5.2" stroke="#5F66F6" stroke-width="0.8"/>
<circle cx="117.437" cy="65.6008" r="0.8" fill="#5F66F6"/>
<circle cx="119.835" cy="65.6008" r="0.8" fill="#5F66F6"/>
<circle cx="122.238" cy="65.6008" r="0.8" fill="#5F66F6"/>
<path d="M123.076 75.4863V85.3738H121.916V75.4863H123.076ZM121.063 75.6723V84.8926H119.915V79.916H118.493V78.9316H119.915V75.6723H121.063ZM117.618 78.1879C117.618 79.8613 118.22 81.5348 119.63 82.3441L118.909 83.241C117.995 82.6941 117.388 81.7535 117.049 80.627C116.699 81.8465 116.07 82.8855 115.135 83.4707L114.391 82.5629C115.824 81.6988 116.448 79.9051 116.448 78.1879V77.5316H114.73V76.5473H119.215V77.5316H117.618V78.1879ZM132.957 79.7629V80.6598H129.063V81.3816H131.852V83.7004H126.23V84.3785H132.125V85.2863H125.038V82.8691H130.66V82.2566H125.027V81.3816H127.86V80.6598H123.988V79.7629H132.957ZM129.063 75.4645V76.2957H132.093V77.2035H129.194C129.429 77.9035 130.578 78.4285 132.552 78.527L132.191 79.4348C130.419 79.3254 129.085 78.8441 128.461 78.0457C127.838 78.8441 126.509 79.3254 124.721 79.4348L124.382 78.527C126.334 78.4285 127.483 77.9035 127.74 77.2035H124.852V76.2957H127.86V75.4645H129.063ZM122.398 88.4973V91.3738H123.732V92.3801H122.398V95.1801H121.184V88.4973H122.398ZM114.479 93.9988C115.223 93.9988 116.081 93.9934 116.973 93.966V93.3645C115.873 93.2277 115.179 92.6973 115.179 91.9207C115.179 91.0129 116.13 90.4441 117.563 90.4551C119.007 90.4441 119.948 91.0129 119.948 91.9207C119.948 92.6918 119.27 93.2168 118.187 93.3535V93.9223C119.029 93.884 119.877 93.8184 120.67 93.7145L120.768 94.5566C118.657 94.9285 116.349 94.9504 114.61 94.9504L114.479 93.9988ZM122.398 95.6066V98.3738H121.184V96.5582H115.726V95.6066H122.398ZM120.407 89.2738V90.1707H114.73V89.2738H116.973V88.4098H118.187V89.2738H120.407ZM117.563 91.2754C116.798 91.2645 116.338 91.4941 116.349 91.9207C116.338 92.3254 116.798 92.5879 117.563 92.577C118.329 92.5879 118.788 92.3254 118.788 91.9207C118.788 91.4941 118.329 91.2645 117.563 91.2754ZM132.202 88.4973V95.6395H130.977V88.4973H132.202ZM132.475 97.1926V98.177H125.661V94.9176H126.886V97.1926H132.475ZM126.81 89.1426C128.308 89.1426 129.468 90.1816 129.468 91.6145C129.468 93.0801 128.308 94.0973 126.81 94.0973C125.3 94.0973 124.141 93.0801 124.141 91.6145C124.141 90.1816 125.3 89.1426 126.81 89.1426ZM126.81 90.2035C125.968 90.2035 125.322 90.7613 125.333 91.6145C125.322 92.4895 125.968 93.0363 126.81 93.0363C127.63 93.0363 128.275 92.4895 128.275 91.6145C128.275 90.7613 127.63 90.2035 126.81 90.2035ZM142.378 93.0254V94.0098H138.463V94.8301C140.235 94.9504 141.274 95.5629 141.285 96.591C141.274 97.7285 139.994 98.3629 137.861 98.3629C135.706 98.3629 134.416 97.7285 134.416 96.591C134.416 95.5629 135.466 94.9449 137.26 94.8301V94.0098H133.366V93.0254H142.378ZM137.861 95.7488C136.417 95.7598 135.641 96.0441 135.652 96.591C135.641 97.1379 136.417 97.4332 137.861 97.4332C139.272 97.4332 140.06 97.1379 140.07 96.591C140.06 96.0441 139.272 95.7598 137.861 95.7488ZM141.569 88.9238V89.8973H138.725C138.917 90.7121 140.098 91.4449 141.952 91.6145L141.525 92.577C139.731 92.3965 138.397 91.6801 137.861 90.6738C137.325 91.6746 136.013 92.3965 134.219 92.577L133.803 91.6145C135.619 91.4449 136.8 90.7012 137.008 89.8973H134.186V88.9238H141.569Z" fill="#5F66F6"/>
<path d="M116.332 113.285C115.309 113.285 114.559 112.457 114.559 111.09C114.559 109.707 115.316 108.902 116.34 108.902C117.129 108.902 117.418 109.379 117.566 109.645H117.605V107.543H118.441V113.199H117.629V112.535H117.566C117.41 112.816 117.105 113.285 116.332 113.285ZM116.52 112.574C117.23 112.574 117.629 111.965 117.629 111.074C117.629 110.191 117.238 109.613 116.52 109.613C115.777 109.613 115.41 110.238 115.41 111.074C115.41 111.926 115.793 112.574 116.52 112.574ZM120.913 113.285C119.89 113.285 119.14 112.457 119.14 111.09C119.14 109.707 119.898 108.902 120.921 108.902C121.71 108.902 121.999 109.379 122.148 109.645H122.187V107.543H123.023V113.199H122.21V112.535H122.148C121.991 112.816 121.687 113.285 120.913 113.285ZM121.101 112.574C121.812 112.574 122.21 111.965 122.21 111.074C122.21 110.191 121.82 109.613 121.101 109.613C120.359 109.613 119.991 110.238 119.991 111.074C119.991 111.926 120.374 112.574 121.101 112.574ZM124.455 113.254C124.151 113.254 123.893 113.004 123.901 112.699C123.893 112.395 124.151 112.145 124.455 112.145C124.752 112.145 125.01 112.395 125.01 112.699C125.01 113.004 124.752 113.254 124.455 113.254ZM127.404 113.285C126.38 113.285 125.63 112.457 125.63 111.09C125.63 109.707 126.388 108.902 127.412 108.902C128.201 108.902 128.49 109.379 128.638 109.645H128.677V107.543H129.513V113.199H128.701V112.535H128.638C128.482 112.816 128.177 113.285 127.404 113.285ZM127.591 112.574C128.302 112.574 128.701 111.965 128.701 111.074C128.701 110.191 128.31 109.613 127.591 109.613C126.849 109.613 126.482 110.238 126.482 111.074C126.482 111.926 126.865 112.574 127.591 112.574ZM131.985 113.285C130.962 113.285 130.212 112.457 130.212 111.09C130.212 109.707 130.97 108.902 131.993 108.902C132.782 108.902 133.071 109.379 133.22 109.645H133.259V107.543H134.095V113.199H133.282V112.535H133.22C133.063 112.816 132.759 113.285 131.985 113.285ZM132.173 112.574C132.884 112.574 133.282 111.965 133.282 111.074C133.282 110.191 132.891 109.613 132.173 109.613C131.43 109.613 131.063 110.238 131.063 111.074C131.063 111.926 131.446 112.574 132.173 112.574ZM117.246 122.449V123.168H114.738V122.449H117.246ZM119.64 125.285C118.616 125.285 117.866 124.457 117.866 123.09C117.866 121.707 118.624 120.902 119.648 120.902C120.437 120.902 120.726 121.379 120.874 121.645H120.913V119.543H121.749V125.199H120.937V124.535H120.874C120.718 124.816 120.413 125.285 119.64 125.285ZM119.827 124.574C120.538 124.574 120.937 123.965 120.937 123.074C120.937 122.191 120.546 121.613 119.827 121.613C119.085 121.613 118.718 122.238 118.718 123.074C118.718 123.926 119.101 124.574 119.827 124.574ZM124.221 125.285C123.198 125.285 122.448 124.457 122.448 123.09C122.448 121.707 123.205 120.902 124.229 120.902C125.018 120.902 125.307 121.379 125.455 121.645H125.495V119.543H126.33V125.199H125.518V124.535H125.455C125.299 124.816 124.995 125.285 124.221 125.285ZM124.409 124.574C125.12 124.574 125.518 123.965 125.518 123.074C125.518 122.191 125.127 121.613 124.409 121.613C123.666 121.613 123.299 122.238 123.299 123.074C123.299 123.926 123.682 124.574 124.409 124.574ZM127.763 125.254C127.459 125.254 127.201 125.004 127.209 124.699C127.201 124.395 127.459 124.145 127.763 124.145C128.06 124.145 128.318 124.395 128.318 124.699C128.318 125.004 128.06 125.254 127.763 125.254ZM130.712 125.285C129.688 125.285 128.938 124.457 128.938 123.09C128.938 121.707 129.696 120.902 130.72 120.902C131.509 120.902 131.798 121.379 131.946 121.645H131.985V119.543H132.821V125.199H132.009V124.535H131.946C131.79 124.816 131.485 125.285 130.712 125.285ZM130.899 124.574C131.61 124.574 132.009 123.965 132.009 123.074C132.009 122.191 131.618 121.613 130.899 121.613C130.157 121.613 129.79 122.238 129.79 123.074C129.79 123.926 130.173 124.574 130.899 124.574ZM135.293 125.285C134.27 125.285 133.52 124.457 133.52 123.09C133.52 121.707 134.277 120.902 135.301 120.902C136.09 120.902 136.379 121.379 136.527 121.645H136.566V119.543H137.402V125.199H136.59V124.535H136.527C136.371 124.816 136.066 125.285 135.293 125.285ZM135.48 124.574C136.191 124.574 136.59 123.965 136.59 123.074C136.59 122.191 136.199 121.613 135.48 121.613C134.738 121.613 134.371 122.238 134.371 123.074C134.371 123.926 134.754 124.574 135.48 124.574Z" fill="#4D55F5"/>
<path d="M130.475 144.73V155.148H129.597V144.73H130.475ZM128.366 144.988V154.609H127.499V149.242H125.741V148.492H127.499V144.988H128.366ZM124.628 147.707C124.628 149.512 125.436 151.305 126.878 152.137L126.315 152.816C125.29 152.201 124.563 151.076 124.206 149.746C123.825 151.182 123.069 152.406 122.026 153.062L121.44 152.371C122.893 151.504 123.737 149.605 123.737 147.707V146.723H121.733V145.961H126.538V146.723H124.628V147.707ZM141.133 149.371V150.086H136.832V151.059H139.914V153.309H133.726V154.328H140.23V155.031H132.812V152.652H139.011V151.75H132.789V151.059H135.929V150.086H131.652V149.371H141.133ZM136.832 144.672V145.645H140.172V146.371H136.902C137.072 147.408 138.701 148.064 140.617 148.188L140.336 148.891C138.595 148.744 137.025 148.205 136.386 147.215C135.748 148.205 134.177 148.744 132.425 148.891L132.156 148.188C134.06 148.064 135.689 147.408 135.871 146.371H132.625V145.645H135.929V144.672H136.832ZM153.365 145.926V146.688H144.915V145.926H148.712V144.672H149.615V145.926H153.365ZM153.962 151.48V152.242H149.615V155.172H148.712V152.242H144.423V151.48H153.962ZM149.169 147.285C151.29 147.285 152.568 147.906 152.568 149.031C152.568 150.133 151.29 150.754 149.169 150.766C147.036 150.754 145.759 150.133 145.771 149.031C145.759 147.906 147.036 147.285 149.169 147.285ZM149.169 147.988C147.611 147.988 146.708 148.375 146.72 149.031C146.708 149.676 147.611 150.051 149.169 150.051C150.704 150.051 151.607 149.676 151.618 149.031C151.607 148.375 150.704 147.988 149.169 147.988Z" fill="#27272D"/>
<rect x="192.08" y="52.4" width="59.04" height="83.4" rx="2.8" fill="white"/>
<rect x="192.08" y="52.4" width="59.04" height="83.4" rx="2.8" stroke="#E7E7E7" stroke-width="0.8"/>
<rect x="198.478" y="60.4" width="10.4" height="10.4" rx="5.2" stroke="#BDBDBD" stroke-width="0.8"/>
<path d="M201.68 64.8733L203.457 67.2146L205.68 63.9844" stroke="#BDBDBD" stroke-width="0.8" stroke-linecap="round" stroke-linejoin="round"/>
<path d="M198.688 84.4004V83.4457L201.288 80.9371C202.029 80.1957 202.415 79.759 202.415 79.1395C202.415 78.4539 201.871 78.0223 201.155 78.0223C200.399 78.0223 199.911 78.4945 199.916 79.241H198.657C198.652 77.8496 199.698 76.9457 201.166 76.9457C202.669 76.9457 203.679 77.8445 203.684 79.0785C203.679 79.9062 203.283 80.5766 201.836 81.9426L200.526 83.2426V83.2934H203.796V84.4004H198.688ZM212.037 76.123V85.3043H210.91V76.123H212.037ZM204.43 82.7551C205.161 82.75 205.989 82.75 206.857 82.7246V81.8816C205.826 81.7191 205.151 81.0895 205.151 80.216C205.151 79.1801 206.07 78.4945 207.406 78.4895C208.756 78.4945 209.691 79.1801 209.691 80.216C209.691 81.0844 209.015 81.709 207.985 81.8766V82.684C208.792 82.6484 209.604 82.5824 210.371 82.4809L210.453 83.3238C208.436 83.6641 206.243 83.6895 204.592 83.6895L204.43 82.7551ZM204.623 78.073V77.1793H206.857V76.1535H207.985V77.1793H210.209V78.073H204.623ZM206.228 80.216C206.217 80.7441 206.71 81.0539 207.406 81.0488C208.122 81.0539 208.609 80.7441 208.604 80.216C208.609 79.6828 208.122 79.3578 207.406 79.3527C206.71 79.3578 206.217 79.6828 206.228 80.216ZM216.347 79.0379C216.347 80.3988 217.114 81.8816 218.531 82.552L217.901 83.4051C216.906 82.948 216.19 82.034 215.804 80.9625C215.403 82.1203 214.646 83.0953 213.595 83.5676L212.975 82.6941C214.423 82.0441 215.23 80.4801 215.23 79.0379V78.5605H213.27V77.6566H215.23V76.316H216.357V77.6566H218.287V78.5605H216.347V79.0379ZM219.181 85.3043V76.123H220.308V79.759H221.72V80.7035H220.308V85.3043H219.181ZM203.238 89.9863V96.0699H198.87V89.9863H203.238ZM199.988 95.166H202.141V90.8699H199.988V95.166ZM204.883 98.3145V89.123H206.02V98.3145H204.883ZM215.013 89.123V98.3043H213.936V89.123H215.013ZM206.949 95.6941C208.274 94.8867 208.858 93.2312 208.858 91.6316V91.0223H207.263V90.1082H211.428V91.0223H209.945V91.6316C209.945 93.1805 210.498 94.7344 211.813 95.491L211.143 96.3238C210.295 95.8211 209.731 94.9477 209.411 93.9016C209.086 95.034 208.503 95.9988 207.639 96.5371L206.949 95.6941ZM210.757 93.2363V92.3223H212.078V89.2957H213.144V97.8574H212.078V93.2363H210.757ZM224.188 93.0941V93.927H220.572V94.5973H223.162V96.7504H217.942V97.3801H223.416V98.223H216.835V95.9785H222.055V95.4098H216.825V94.5973H219.455V93.927H215.86V93.0941H224.188ZM216.225 91.9465C218.038 91.8551 219.105 91.3676 219.338 90.7176H216.662V89.8746H219.455V89.1027H220.572V89.8746H223.385V90.7176H220.689C220.912 91.3676 221.979 91.8551 223.812 91.9465L223.477 92.7895C221.826 92.6879 220.593 92.241 220.014 91.4996C219.435 92.241 218.206 92.6879 216.54 92.7895L216.225 91.9465Z" fill="#F64E39"/>
<path d="M200.547 113.277C199.238 113.277 198.469 112.223 198.469 110.371C198.469 108.531 199.246 107.465 200.547 107.465C201.844 107.465 202.621 108.531 202.625 110.371C202.621 112.223 201.855 113.277 200.547 113.277ZM199.328 110.371C199.324 111.781 199.781 112.535 200.547 112.535C201.309 112.535 201.766 111.781 201.766 110.371C201.766 108.965 201.305 108.195 200.547 108.191C199.785 108.195 199.328 108.965 199.328 110.371ZM203.355 113.199L205.878 108.324V108.277H202.964V107.543H206.769V108.309L204.253 113.199H203.355ZM207.014 113.254C206.709 113.25 206.455 113.004 206.459 112.699C206.455 112.395 206.709 112.145 207.014 112.145C207.315 112.145 207.565 112.395 207.569 112.699C207.565 113.004 207.315 113.25 207.014 113.254ZM208.369 113.199V112.574L210.33 110.598C210.951 109.953 211.259 109.594 211.259 109.098C211.259 108.539 210.806 108.184 210.212 108.184C209.584 108.184 209.185 108.582 209.181 109.184H208.369C208.361 108.148 209.15 107.465 210.228 107.465C211.318 107.465 212.072 108.156 212.08 109.074C212.072 109.707 211.775 110.211 210.712 111.254L209.564 112.418V112.465H212.173V113.199H208.369ZM214.903 113.277C213.673 113.277 212.817 112.613 212.825 111.691C212.817 110.965 213.337 110.371 214.005 110.27V110.238C213.423 110.105 213.036 109.59 213.036 108.973C213.036 108.102 213.821 107.465 214.903 107.465C215.97 107.465 216.759 108.102 216.762 108.973C216.759 109.59 216.364 110.105 215.794 110.238V110.27C216.454 110.371 216.977 110.965 216.981 111.691C216.977 112.613 216.114 113.277 214.903 113.277ZM213.7 111.629C213.688 112.184 214.157 112.566 214.903 112.566C215.637 112.566 216.106 112.184 216.106 111.629C216.106 111.047 215.598 110.621 214.903 110.621C214.2 110.621 213.688 111.047 213.7 111.629ZM213.872 109.051C213.876 109.578 214.298 109.945 214.903 109.941C215.493 109.945 215.923 109.582 215.919 109.051C215.923 108.523 215.509 108.164 214.903 108.168C214.282 108.164 213.876 108.523 213.872 109.051ZM217.852 111.043C217.859 109.57 218.277 108.348 219.008 107.301H219.773C219.234 108.074 218.719 109.648 218.719 111.043C218.719 112.441 219.234 114.016 219.773 114.793H219.008C218.277 113.742 217.859 112.52 217.852 111.043ZM225.683 107.215V107.746C225.687 108.293 225.687 108.926 225.503 109.77H226.495V110.379H220.089V109.77H224.753C224.941 108.953 224.948 108.355 224.948 107.824H220.894V107.215H225.683ZM220.87 113.777V111.27H225.691V113.777H220.87ZM221.597 113.176H224.956V111.855H221.597V113.176ZM228.725 111.043C228.717 112.52 228.299 113.742 227.569 114.793H226.803C227.342 114.016 227.858 112.441 227.858 111.043C227.858 109.648 227.342 108.074 226.803 107.301H227.569C228.299 108.348 228.717 109.57 228.725 111.043ZM201.086 122.449V123.168H198.578V122.449H201.086ZM203.855 125.277C202.546 125.277 201.777 124.223 201.777 122.371C201.777 120.531 202.554 119.465 203.855 119.465C205.152 119.465 205.929 120.531 205.933 122.371C205.929 124.223 205.163 125.277 203.855 125.277ZM202.636 122.371C202.632 123.781 203.089 124.535 203.855 124.535C204.616 124.535 205.073 123.781 205.073 122.371C205.073 120.965 204.612 120.195 203.855 120.191C203.093 120.195 202.636 120.965 202.636 122.371ZM206.662 125.199L209.186 120.324V120.277H206.272V119.543H210.077V120.309L207.561 125.199H206.662ZM210.322 125.254C210.017 125.25 209.763 125.004 209.767 124.699C209.763 124.395 210.017 124.145 210.322 124.145C210.623 124.145 210.873 124.395 210.877 124.699C210.873 125.004 210.623 125.25 210.322 125.254ZM211.677 125.199V124.574L213.637 122.598C214.259 121.953 214.567 121.594 214.567 121.098C214.567 120.539 214.114 120.184 213.52 120.184C212.891 120.184 212.493 120.582 212.489 121.184H211.677C211.669 120.148 212.458 119.465 213.536 119.465C214.626 119.465 215.38 120.156 215.387 121.074C215.38 121.707 215.083 122.211 214.02 123.254L212.872 124.418V124.465H215.481V125.199H211.677ZM218.211 125.277C216.98 125.277 216.125 124.613 216.133 123.691C216.125 122.965 216.645 122.371 217.312 122.27V122.238C216.73 122.105 216.344 121.59 216.344 120.973C216.344 120.102 217.129 119.465 218.211 119.465C219.277 119.465 220.066 120.102 220.07 120.973C220.066 121.59 219.672 122.105 219.102 122.238V122.27C219.762 122.371 220.285 122.965 220.289 123.691C220.285 124.613 219.422 125.277 218.211 125.277ZM217.008 123.629C216.996 124.184 217.465 124.566 218.211 124.566C218.945 124.566 219.414 124.184 219.414 123.629C219.414 123.047 218.906 122.621 218.211 122.621C217.508 122.621 216.996 123.047 217.008 123.629ZM217.18 121.051C217.184 121.578 217.605 121.945 218.211 121.941C218.801 121.945 219.23 121.582 219.227 121.051C219.23 120.523 218.816 120.164 218.211 120.168C217.59 120.164 217.184 120.523 217.18 121.051ZM221.159 123.043C221.167 121.57 221.585 120.348 222.316 119.301H223.081C222.542 120.074 222.027 121.648 222.027 123.043C222.027 124.441 222.542 126.016 223.081 126.793H222.316C221.585 125.742 221.167 124.52 221.159 123.043ZM229.077 122.449V123.043H226.959V124.41H229.803V125.02H223.397V124.41H226.217V123.043H224.202V119.402H229.006V120.012H224.952V120.91H228.858V121.496H224.952V122.449H229.077ZM232.033 123.043C232.025 124.52 231.607 125.742 230.877 126.793H230.111C230.65 126.016 231.166 124.441 231.166 123.043C231.166 121.648 230.65 120.074 230.111 119.301H230.877C231.607 120.348 232.025 121.57 232.033 123.043Z" fill="#4C4F56"/>
<path d="M212.191 145.762V152.535H207.374V145.762H212.191ZM208.277 151.785H211.288V146.5H208.277V151.785ZM214.429 155.172V144.73H215.355V155.172H214.429ZM225.742 144.73V155.148H224.863V144.73H225.742ZM216.707 152.371C218.16 151.504 219.01 149.6 219.004 147.707V146.723H217V145.961H221.805V146.723H219.895V147.707C219.895 149.506 220.709 151.305 222.145 152.137L221.582 152.816C220.557 152.201 219.83 151.076 219.467 149.752C219.092 151.188 218.336 152.412 217.293 153.062L216.707 152.371ZM221.008 149.242V148.492H222.766V144.988H223.633V154.609H222.766V149.242H221.008ZM236.399 149.371V150.086H232.099V151.059H235.181V153.309H228.993V154.328H235.497V155.031H228.079V152.652H234.278V151.75H228.056V151.059H231.196V150.086H226.919V149.371H236.399ZM227.423 148.188C229.333 148.064 230.962 147.414 231.132 146.371H227.891V145.645H231.196V144.672H232.099V145.645H235.438V146.371H232.169C232.333 147.414 233.962 148.064 235.884 148.188L235.602 148.891C233.862 148.744 232.292 148.205 231.653 147.215C231.009 148.205 229.438 148.744 227.692 148.891L227.423 148.188Z" fill="#27272D"/>
<path d="M22.8828 181.152V193.307H21.8574V181.152H22.8828ZM12.3418 190.066C14.0371 189.055 15.0283 186.833 15.0215 184.625V183.477H12.6836V182.588H18.2891V183.477H16.0605V184.625C16.0605 186.724 17.0107 188.822 18.6855 189.793L18.0293 190.586C16.833 189.868 15.9854 188.556 15.5615 187.011C15.124 188.686 14.2422 190.114 13.0254 190.873L12.3418 190.066ZM17.3594 186.416V185.541H19.4102V181.453H20.4219V192.678H19.4102V186.416H17.3594ZM35.456 186.566V187.4H30.4384V188.535H34.0341V191.16H26.8154V192.35H34.4033V193.17H25.749V190.395H32.9814V189.342H25.7216V188.535H29.3857V187.4H24.3955V186.566H35.456ZM24.9834 185.186C27.2119 185.042 29.1123 184.283 29.3105 183.066H25.5302V182.219H29.3857V181.084H30.4384V182.219H34.3349V183.066H30.5205C30.7119 184.283 32.6123 185.042 34.8545 185.186L34.5263 186.006C32.4961 185.835 30.664 185.206 29.9189 184.051C29.167 185.206 27.3349 185.835 25.2978 186.006L24.9834 185.186ZM41.8085 181.371C44.5087 181.371 46.0946 182.116 46.1015 183.463C46.0946 184.844 44.5087 185.589 41.8085 185.596C39.0946 185.589 37.5019 184.844 37.5019 183.463C37.5019 182.116 39.0946 181.371 41.8085 181.371ZM36.2714 187.291V186.416H47.3456V187.291H36.2714ZM37.6112 189.164V188.344H45.9237V191.064H38.705V192.322H46.2929V193.17H37.6386V190.271H44.871V189.164H37.6112ZM38.623 183.463C38.6093 184.311 39.7919 184.775 41.8085 184.775C43.8251 184.775 45.0009 184.311 45.0077 183.463C45.0009 182.663 43.8251 182.185 41.8085 182.178C39.7919 182.185 38.6093 182.663 38.623 183.463ZM55.1698 181.727C56.9471 181.727 58.1844 182.684 58.1912 184.133C58.1844 185.391 57.2069 186.293 55.744 186.478V187.667C56.8787 187.605 58.034 187.503 59.0936 187.346L59.1756 188.152C56.5985 188.61 53.6864 188.651 51.5877 188.645L51.451 187.756C52.3944 187.763 53.5018 187.756 54.6639 187.715V186.484C53.16 186.32 52.1551 185.411 52.162 184.133C52.1551 182.684 53.3924 181.727 55.1698 181.727ZM53.1737 184.133C53.16 185.056 53.9871 185.685 55.1698 185.691C56.3592 185.685 57.1727 185.056 57.1795 184.133C57.1727 183.189 56.3592 182.561 55.1698 182.561C53.9871 182.561 53.16 183.189 53.1737 184.133ZM53.2284 193.033V189.656H54.3084V192.131H61.3905V193.033H53.2284ZM59.8729 190.463V181.166H60.953V185.281H62.7713V186.197H60.953V190.463H59.8729ZM74.4832 190.9V191.803H63.3543V190.9H66.4852V188.59H64.7488V184.844H72.0223V182.943H64.7215V182.055H73.075V185.732H65.8152V187.701H73.3621V188.59H71.4617V190.9H74.4832ZM67.5379 190.9H70.409V188.59H67.5379V190.9ZM85.5662 181.166V188.699H84.5408V185.404H82.9548V188.508H81.9295V181.357H82.9548V184.516H84.5408V181.166H85.5662ZM75.1755 183.436V182.547H77.7732V181.207H78.8396V182.547H81.4099V183.436H75.1755ZM75.7088 186.129C75.7019 184.851 76.7752 184.051 78.3064 184.051C79.8445 184.051 80.9109 184.851 80.9177 186.129C80.9109 187.373 79.8445 188.207 78.3064 188.207C76.7752 188.207 75.7019 187.373 75.7088 186.129ZM76.0232 192.35C77.5476 191.83 78.491 190.586 78.4978 189.479V189.041H79.5505V189.479C79.5369 190.518 80.1043 191.604 81.2527 192.227C82.408 191.543 82.9959 190.367 83.0095 189.479V189.041H84.0623V189.479C84.0554 190.661 84.9783 191.871 86.5369 192.35L86.031 193.17C84.8074 192.746 83.9461 191.919 83.5222 190.928C83.1531 191.885 82.4148 192.808 81.2732 193.266C80.1043 192.828 79.3591 191.967 78.99 190.982C78.5457 191.926 77.7048 192.746 76.5427 193.17L76.0232 192.35ZM76.6658 186.129C76.6658 186.895 77.3357 187.394 78.3064 187.4C79.2771 187.394 79.947 186.895 79.947 186.129C79.947 185.343 79.2771 184.851 78.3064 184.857C77.3357 184.851 76.6658 185.343 76.6658 186.129ZM96.5398 181.152V185.965H98.5769V186.867H96.5398V193.334H95.4734V181.152H96.5398ZM87.6667 190.285V182.342H93.3405V183.23H88.7331V189.383C90.9343 189.376 92.4861 189.28 94.2976 188.945L94.4343 189.875C92.5271 190.217 90.9343 190.285 88.6237 190.285H87.6667ZM105.175 182.219V183.299H108.019V181.166H109.099V190.039H108.019V186.799H105.175V187.893H99.5973V182.219H105.175ZM100.664 187.031H104.123V183.107H100.664V187.031ZM101.238 193.047V189.246H102.318V192.145H109.373V193.047H101.238ZM105.175 185.91H108.019V184.201H105.175V185.91ZM112.909 191.283L111.842 195.002H110.831L111.583 191.283H112.909ZM128.704 187.332V188.221H123.768V190.709H122.688V188.221H117.575V187.332H128.704ZM118.833 183.914C118.826 182.403 120.528 181.474 123.126 181.467C125.723 181.474 127.405 182.403 127.405 183.914C127.405 185.411 125.723 186.341 123.126 186.334C120.528 186.341 118.826 185.411 118.833 183.914ZM119.01 193.047V189.492H120.09V192.131H127.46V193.047H119.01ZM119.981 183.914C119.967 184.857 121.232 185.459 123.126 185.459C125.012 185.459 126.27 184.857 126.27 183.914C126.27 182.943 125.012 182.349 123.126 182.342C121.232 182.349 119.967 182.943 119.981 183.914ZM132.828 181.891C133.853 181.884 134.721 182.273 135.289 182.916H138.474V181.152H139.554V188.357H138.474V186.621H135.289C134.728 187.264 133.853 187.653 132.828 187.646C131.009 187.653 129.663 186.464 129.669 184.775C129.663 183.073 131.009 181.884 132.828 181.891ZM130.695 184.775C130.695 185.903 131.584 186.737 132.828 186.73C134.031 186.737 134.933 185.903 134.933 184.775C134.933 183.62 134.031 182.813 132.828 182.82C131.584 182.813 130.695 183.62 130.695 184.775ZM131.447 190.955C131.44 189.492 132.999 188.645 135.521 188.645C138.037 188.645 139.595 189.492 139.595 190.955C139.595 192.432 138.037 193.279 135.521 193.279C132.999 193.279 131.44 192.432 131.447 190.955ZM132.5 190.955C132.493 191.871 133.655 192.425 135.521 192.418C137.387 192.425 138.549 191.871 138.543 190.955C138.549 190.032 137.387 189.485 135.521 189.479C133.655 189.485 132.493 190.032 132.5 190.955ZM135.801 183.791C135.911 184.092 135.972 184.42 135.972 184.775C135.972 185.117 135.911 185.438 135.808 185.732H138.474V183.791H135.801ZM145.743 183.764C145.749 185.404 147.041 186.881 148.86 187.455L148.313 188.316C146.898 187.831 145.777 186.833 145.223 185.555C144.697 186.936 143.555 188.029 142.106 188.562L141.545 187.701C143.371 187.065 144.656 185.486 144.663 183.764V183.053H141.819V182.178H148.545V183.053H145.743V183.764ZM143.555 193.047V189.232H144.622V192.145H151.786V193.047H143.555ZM150.336 190.08V181.166H151.403V190.08H150.336ZM166.049 181.166V184.844H167.868V185.746H166.049V189.314H164.969V181.166H166.049ZM156.506 188.07C157.477 188.07 158.612 188.07 159.801 188.036V187.141C158.386 187.011 157.47 186.361 157.477 185.35C157.47 184.242 158.612 183.559 160.321 183.559C162.043 183.559 163.164 184.242 163.178 185.35C163.164 186.354 162.276 187.004 160.868 187.141V187.995C162.002 187.94 163.151 187.845 164.217 187.688L164.313 188.467C161.674 188.932 158.769 188.952 156.629 188.945L156.506 188.07ZM156.807 183.094V182.273H159.801V181.057H160.868V182.273H163.848V183.094H156.807ZM157.996 190.777V189.916H166.049V193.307H164.969V190.777H157.996ZM158.502 185.35C158.496 185.985 159.2 186.416 160.321 186.402C161.442 186.416 162.153 185.985 162.153 185.35C162.153 184.707 161.442 184.311 160.321 184.324C159.2 184.311 158.496 184.707 158.502 185.35ZM178.486 181.166V190.053H177.419V181.166H178.486ZM168.738 184.994C168.731 183.244 170.105 182.021 171.923 182.014C173.742 182.021 175.102 183.244 175.109 184.994C175.102 186.765 173.742 187.995 171.923 187.988C170.105 187.995 168.731 186.765 168.738 184.994ZM169.79 184.994C169.777 186.204 170.693 187.045 171.923 187.045C173.133 187.045 174.056 186.204 174.056 184.994C174.056 183.805 173.133 182.957 171.923 182.957C170.693 182.957 169.777 183.805 169.79 184.994ZM170.638 193.047V189.15H171.704V192.145H178.869V193.047H170.638ZM194.075 182.547V183.436H184.218V182.547H188.648V181.084H189.7V182.547H194.075ZM183.644 189.916V189.027H194.773V189.916H189.7V193.334H188.648V189.916H183.644ZM185.216 186.17C185.202 184.857 186.693 184.133 189.181 184.133C191.649 184.133 193.139 184.857 193.146 186.17C193.139 187.455 191.649 188.18 189.181 188.193C186.693 188.18 185.202 187.455 185.216 186.17ZM186.324 186.17C186.31 186.922 187.369 187.366 189.181 187.359C190.972 187.366 192.025 186.922 192.038 186.17C192.025 185.404 190.972 184.96 189.181 184.953C187.369 184.96 186.31 185.404 186.324 186.17ZM205.167 182.355V190.258H199.548V182.355H205.167ZM200.601 189.383H204.114V183.217H200.601V189.383ZM207.779 193.334V181.152H208.859V193.334H207.779ZM214.883 183.408C214.883 185.192 216.107 186.874 217.863 187.564L217.262 188.398C215.929 187.845 214.883 186.737 214.37 185.356C213.851 186.847 212.757 188.029 211.342 188.617L210.754 187.756C212.566 187.059 213.823 185.315 213.83 183.408V181.85H214.883V183.408ZM212.942 193.047V189.301H214.022V192.145H221.076V193.047H212.942ZM217.221 186.348V185.473H219.723V183.859H217.221V182.971H219.723V181.166H220.803V190.244H219.723V186.348H217.221ZM235.408 181.166V184.844H237.227V185.746H235.408V189.314H234.328V181.166H235.408ZM225.865 188.07C226.836 188.07 227.971 188.07 229.16 188.036V187.141C227.745 187.011 226.829 186.361 226.836 185.35C226.829 184.242 227.971 183.559 229.68 183.559C231.402 183.559 232.524 184.242 232.537 185.35C232.524 186.354 231.635 187.004 230.227 187.141V187.995C231.361 187.94 232.51 187.845 233.576 187.688L233.672 188.467C231.033 188.932 228.128 188.952 225.988 188.945L225.865 188.07ZM226.166 183.094V182.273H229.16V181.057H230.227V182.273H233.207V183.094H226.166ZM227.356 190.777V189.916H235.408V193.307H234.328V190.777H227.356ZM227.861 185.35C227.855 185.985 228.559 186.416 229.68 186.402C230.801 186.416 231.512 185.985 231.512 185.35C231.512 184.707 230.801 184.311 229.68 184.324C228.559 184.311 227.855 184.707 227.861 185.35ZM247.845 181.166V190.053H246.778V181.166H247.845ZM238.097 184.994C238.09 183.244 239.464 182.021 241.282 182.014C243.101 182.021 244.461 183.244 244.468 184.994C244.461 186.765 243.101 187.995 241.282 187.988C239.464 187.995 238.09 186.765 238.097 184.994ZM239.149 184.994C239.136 186.204 240.052 187.045 241.282 187.045C242.492 187.045 243.415 186.204 243.415 184.994C243.415 183.805 242.492 182.957 241.282 182.957C240.052 182.957 239.136 183.805 239.149 184.994ZM239.997 193.047V189.15H241.064V192.145H248.228V193.047H239.997ZM257.063 183.121C257.063 184.775 258.321 186.293 260.085 186.895L259.497 187.742C258.157 187.25 257.098 186.245 256.564 184.974C256.045 186.416 254.958 187.53 253.536 188.084L252.962 187.223C254.78 186.546 256.004 184.919 256.011 183.039V181.781H257.063V183.121ZM254.575 191.064C254.582 189.677 256.106 188.863 258.608 188.863C261.103 188.863 262.614 189.677 262.614 191.064C262.614 192.479 261.103 193.279 258.608 193.279C256.106 193.279 254.582 192.479 254.575 191.064ZM255.655 191.064C255.642 191.926 256.776 192.425 258.608 192.432C260.447 192.425 261.568 191.926 261.575 191.064C261.568 190.237 260.447 189.725 258.608 189.725C256.776 189.725 255.642 190.237 255.655 191.064ZM261.438 188.549V181.152H262.505V184.324H264.337V185.227H262.505V188.549H261.438ZM270.197 182.561V183.436H266.41V185.773H270.019V186.635H266.41V189.383C268.215 189.376 269.336 189.321 270.662 189.082L270.758 189.971C269.329 190.244 268.16 190.306 266.164 190.299H265.385V182.561H270.197ZM271.564 192.691V181.412H272.603V186.047H274.271V181.152H275.31V193.307H274.271V186.936H272.603V192.691H271.564ZM286.188 181.152V186.102H288.157V187.004H286.188V193.307H285.122V181.152H286.188ZM276.864 190.148C280.002 188.59 281.711 186.245 281.957 183.367H277.425V182.465H283.044C283.037 185.903 281.424 189.041 277.466 190.996L276.864 190.148ZM302.052 181.166V190.162H300.971V186.895H298.1V188.084H292.591V181.973H293.657V184.133H297.048V181.973H298.1V183.395H300.971V181.166H302.052ZM293.657 187.195H297.048V184.98H293.657V187.195ZM294.19 193.047V189.273H295.27V192.145H302.325V193.047H294.19ZM298.1 186.006H300.971V184.297H298.1V186.006ZM313.941 181.166V188.467H312.861V186.826H309.635V185.938H312.861V184.297H309.758C308.958 186.252 307.085 187.667 304.48 188.439L304.029 187.592C306.962 186.724 308.801 185.076 309.012 182.971H304.644V182.068H310.181C310.181 182.547 310.127 183.005 310.024 183.436H312.861V181.166H313.941ZM305.902 190.914C305.895 189.465 307.474 188.59 309.963 188.59C312.424 188.59 314.01 189.465 314.01 190.914C314.01 192.37 312.424 193.252 309.963 193.252C307.474 193.252 305.895 192.37 305.902 190.914ZM306.955 190.914C306.962 191.83 308.131 192.384 309.963 192.377C311.767 192.384 312.936 191.83 312.943 190.914C312.936 189.998 311.767 189.444 309.963 189.451C308.131 189.444 306.962 189.998 306.955 190.914ZM325.79 181.166V188.152H324.71V181.166H325.79ZM315.796 186.963C316.828 186.963 318.031 186.963 319.282 186.922V185.609H316.903V181.768H322.673V182.656H317.983V184.748H322.782V185.609H320.362V186.874C321.49 186.819 322.632 186.73 323.698 186.58L323.766 187.359C321.1 187.811 318.154 187.852 315.96 187.852L315.796 186.963ZM317.778 193.143V188.699H318.844V189.998H324.737V188.699H325.79V193.143H317.778ZM318.844 192.268H324.737V190.832H318.844V192.268ZM337.666 181.152V193.307H336.599V181.152H337.666ZM328.437 190.176V182.355H329.49V189.246C331.349 189.232 333.263 189.089 335.3 188.658L335.451 189.574C333.291 190.025 331.37 190.176 329.422 190.176H328.437ZM348.94 181.152V185.965H350.977V186.867H348.94V193.334H347.874V181.152H348.94ZM340.067 190.285V182.342H345.741V183.23H341.133V189.383C343.335 189.376 344.886 189.28 346.698 188.945L346.835 189.875C344.927 190.217 343.335 190.285 341.024 190.285H340.067ZM352.709 192.281C352.23 192.274 351.82 191.878 351.834 191.393C351.82 190.914 352.23 190.518 352.709 190.518C353.194 190.518 353.59 190.914 353.584 191.393C353.59 191.878 353.194 192.274 352.709 192.281Z" fill="#27272D"/>
<rect width="350" height="122.2" transform="translate(12 208.199)" fill="#F9F9F8"/>
<rect x="24.4" y="216.599" width="59.04" height="83.4" rx="2.8" fill="white"/>
<rect x="24.4" y="216.599" width="59.04" height="83.4" rx="2.8" stroke="#E7E7E7" stroke-width="0.8"/>
<rect x="30.3984" y="224.199" width="11.2" height="11.2" rx="5.6" fill="#7177F7"/>
<path d="M34 229.072L35.7778 231.414L38 228.184" stroke="white" stroke-width="0.8" stroke-linecap="round" stroke-linejoin="round"/>
<path d="M37.6391 240.681V248.6H36.3703L32.6187 243.186H32.5531V248.6H31.1312V240.681H32.4219L36.1516 246.095H36.2281V240.681H37.6391ZM46.6559 239.686V249.573H45.4419V239.686H46.6559ZM38.4637 246.828C39.2512 246.822 40.1427 246.822 41.0778 246.795V245.887C39.9677 245.712 39.2403 245.034 39.2403 244.093C39.2403 242.978 40.2302 242.239 41.6684 242.234C43.1231 242.239 44.1294 242.978 44.1294 244.093C44.1294 245.029 43.402 245.701 42.2919 245.882V246.751C43.1614 246.713 44.0364 246.642 44.8622 246.532L44.9497 247.44C42.7786 247.807 40.4161 247.834 38.6387 247.834L38.4637 246.828ZM38.6716 241.786V240.823H41.0778V239.718H42.2919V240.823H44.6872V241.786H38.6716ZM40.3997 244.093C40.3887 244.662 40.9192 244.996 41.6684 244.99C42.4395 244.996 42.9645 244.662 42.9591 244.093C42.9645 243.519 42.4395 243.169 41.6684 243.164C40.9192 243.169 40.3887 243.519 40.3997 244.093ZM51.2978 242.825C51.2978 244.29 52.1236 245.887 53.6494 246.609L52.9712 247.528C51.8994 247.036 51.1283 246.051 50.7127 244.897C50.2806 246.144 49.4658 247.194 48.3337 247.703L47.6666 246.762C49.2252 246.062 50.0947 244.378 50.0947 242.825V242.311H47.9837V241.337H50.0947V239.893H51.3087V241.337H53.3869V242.311H51.2978V242.825ZM54.3494 249.573V239.686H55.5634V243.601H57.0837V244.618H55.5634V249.573H54.3494ZM39.2359 252.686V262.573H38.0766V252.686H39.2359ZM30.5516 259.762C31.9789 258.893 32.6078 257.11 32.6078 255.387V254.731H30.8906V253.746H35.375V254.731H33.7781V255.387C33.7781 257.055 34.3742 258.729 35.7906 259.543L35.0687 260.44C34.1555 259.899 33.5484 258.958 33.2039 257.832C32.8539 259.051 32.225 260.09 31.2953 260.67L30.5516 259.762ZM34.6531 257.115V256.131H36.075V252.871H37.2234V262.092H36.075V257.115H34.6531ZM49.1169 256.962V257.859H45.2231V258.581H48.0122V260.9H42.3903V261.578H48.2856V262.486H41.1981V260.068H46.82V259.456H41.1872V258.581H44.02V257.859H40.1481V256.962H49.1169ZM40.5419 255.726C42.4942 255.628 43.6427 255.103 43.8942 254.403H41.0122V253.495H44.02V252.664H45.2231V253.495H48.2528V254.403H45.3489C45.5895 255.103 46.738 255.628 48.7122 255.726L48.3513 256.634C46.5739 256.525 45.245 256.043 44.6216 255.245C43.9981 256.043 42.6747 256.525 40.8809 256.634L40.5419 255.726ZM55.5241 254.107C55.5186 255.453 56.3061 256.683 57.8537 257.17L57.1975 258.121C56.1202 257.739 55.3655 257.017 54.9444 256.082C54.5069 257.159 53.6811 258.007 52.4834 258.428L51.8381 257.443C53.4733 256.907 54.2936 255.589 54.2991 254.162V253.221H55.5241V254.107ZM53.4787 260.67C53.4678 259.467 54.753 258.761 56.8366 258.767C58.9311 258.761 60.2108 259.467 60.2162 260.67C60.2108 261.873 58.9311 262.562 56.8366 262.562C54.753 262.562 53.4678 261.873 53.4787 260.67ZM54.6819 260.67C54.6764 261.271 55.4639 261.605 56.8366 261.611C58.2202 261.605 59.0022 261.271 59.0022 260.67C59.0022 260.046 58.2202 259.713 56.8366 259.707C55.4639 259.713 54.6764 260.046 54.6819 260.67ZM57.0006 255.595V254.6H58.9694V252.686H60.1834V258.504H58.9694V255.595H57.0006ZM65.755 258.865C67.9042 258.871 69.2605 259.549 69.2659 260.725C69.2605 261.873 67.9042 262.562 65.755 262.562C63.6277 262.562 62.255 261.873 62.255 260.725C62.255 259.549 63.6277 258.871 65.755 258.865ZM61.3253 258.154V257.17H64.8034V255.376H66.0066V257.17H70.2941V258.154H61.3253ZM62.3534 254.118V253.156H69.2003V253.976C69.2058 254.758 69.2058 255.589 68.9269 256.601L67.7238 256.492C67.9698 255.535 67.9863 254.835 67.9863 254.118H62.3534ZM63.48 260.725C63.4691 261.304 64.3277 261.621 65.755 261.621C67.1878 261.621 68.0519 261.304 68.0628 260.725C68.0519 260.123 67.1878 259.784 65.755 259.784C64.3277 259.784 63.4691 260.123 63.48 260.725Z" fill="#5F66F6"/>
<path d="M32.4922 277.484C31.4688 277.48 30.7188 276.656 30.7188 275.289C30.7188 273.906 31.4805 273.102 32.5 273.102C33.2891 273.102 33.5742 273.578 33.7266 273.844H33.7656V271.742H34.6016V277.398H33.7891V276.734H33.7266C33.5703 277.012 33.2656 277.48 32.4922 277.484ZM31.5703 275.273C31.5664 276.125 31.9492 276.77 32.6797 276.773C33.3906 276.77 33.7891 276.164 33.7891 275.273C33.7891 274.391 33.3984 273.809 32.6797 273.812C31.9414 273.809 31.5664 274.438 31.5703 275.273ZM37.0734 277.484C36.05 277.48 35.3 276.656 35.3 275.289C35.3 273.906 36.0617 273.102 37.0813 273.102C37.8703 273.102 38.1555 273.578 38.3078 273.844H38.3469V271.742H39.1828V277.398H38.3703V276.734H38.3078C38.1516 277.012 37.8469 277.48 37.0734 277.484ZM36.1516 275.273C36.1477 276.125 36.5305 276.77 37.2609 276.773C37.9719 276.77 38.3703 276.164 38.3703 275.273C38.3703 274.391 37.9797 273.809 37.2609 273.812C36.5227 273.809 36.1477 274.438 36.1516 275.273ZM40.6156 277.453C40.3109 277.449 40.057 277.203 40.0609 276.898C40.057 276.594 40.3109 276.344 40.6156 276.344C40.9164 276.344 41.1664 276.594 41.1703 276.898C41.1664 277.203 40.9164 277.449 40.6156 277.453ZM43.5641 277.484C42.5406 277.48 41.7906 276.656 41.7906 275.289C41.7906 273.906 42.5523 273.102 43.5719 273.102C44.3609 273.102 44.6461 273.578 44.7984 273.844H44.8375V271.742H45.6734V277.398H44.8609V276.734H44.7984C44.6422 277.012 44.3375 277.48 43.5641 277.484ZM42.6422 275.273C42.6383 276.125 43.0211 276.77 43.7516 276.773C44.4625 276.77 44.8609 276.164 44.8609 275.273C44.8609 274.391 44.4703 273.809 43.7516 273.812C43.0133 273.809 42.6383 274.438 42.6422 275.273ZM48.1453 277.484C47.1219 277.48 46.3719 276.656 46.3719 275.289C46.3719 273.906 47.1336 273.102 48.1531 273.102C48.9422 273.102 49.2273 273.578 49.3797 273.844H49.4187V271.742H50.2547V277.398H49.4422V276.734H49.3797C49.2234 277.012 48.9187 277.48 48.1453 277.484ZM47.2234 275.273C47.2195 276.125 47.6023 276.77 48.3328 276.773C49.0437 276.77 49.4422 276.164 49.4422 275.273C49.4422 274.391 49.0516 273.809 48.3328 273.812C47.5945 273.809 47.2195 274.438 47.2234 275.273ZM33.4062 286.648V287.367H30.8984V286.648H33.4062ZM35.8 289.484C34.7766 289.48 34.0266 288.656 34.0266 287.289C34.0266 285.906 34.7883 285.102 35.8078 285.102C36.5969 285.102 36.882 285.578 37.0344 285.844H37.0734V283.742H37.9094V289.398H37.0969V288.734H37.0344C36.8781 289.012 36.5734 289.48 35.8 289.484ZM34.8781 287.273C34.8742 288.125 35.257 288.77 35.9875 288.773C36.6984 288.77 37.0969 288.164 37.0969 287.273C37.0969 286.391 36.7062 285.809 35.9875 285.812C35.2492 285.809 34.8742 286.438 34.8781 287.273ZM40.3812 289.484C39.3578 289.48 38.6078 288.656 38.6078 287.289C38.6078 285.906 39.3695 285.102 40.3891 285.102C41.1781 285.102 41.4633 285.578 41.6156 285.844H41.6547V283.742H42.4906V289.398H41.6781V288.734H41.6156C41.4594 289.012 41.1547 289.48 40.3812 289.484ZM39.4594 287.273C39.4555 288.125 39.8383 288.77 40.5687 288.773C41.2797 288.77 41.6781 288.164 41.6781 287.273C41.6781 286.391 41.2875 285.809 40.5687 285.812C39.8305 285.809 39.4555 286.438 39.4594 287.273ZM43.9234 289.453C43.6187 289.449 43.3648 289.203 43.3687 288.898C43.3648 288.594 43.6187 288.344 43.9234 288.344C44.2242 288.344 44.4742 288.594 44.4781 288.898C44.4742 289.203 44.2242 289.449 43.9234 289.453ZM46.8719 289.484C45.8484 289.48 45.0984 288.656 45.0984 287.289C45.0984 285.906 45.8602 285.102 46.8797 285.102C47.6687 285.102 47.9539 285.578 48.1062 285.844H48.1453V283.742H48.9812V289.398H48.1687V288.734H48.1062C47.95 289.012 47.6453 289.48 46.8719 289.484ZM45.95 287.273C45.9461 288.125 46.3289 288.77 47.0594 288.773C47.7703 288.77 48.1687 288.164 48.1687 287.273C48.1687 286.391 47.7781 285.809 47.0594 285.812C46.3211 285.809 45.9461 286.438 45.95 287.273ZM51.4531 289.484C50.4297 289.48 49.6797 288.656 49.6797 287.289C49.6797 285.906 50.4414 285.102 51.4609 285.102C52.25 285.102 52.5352 285.578 52.6875 285.844H52.7266V283.742H53.5625V289.398H52.75V288.734H52.6875C52.5312 289.012 52.2266 289.48 51.4531 289.484ZM50.5312 287.273C50.5273 288.125 50.9102 288.77 51.6406 288.773C52.3516 288.77 52.75 288.164 52.75 287.273C52.75 286.391 52.3594 285.809 51.6406 285.812C50.9023 285.809 50.5273 286.438 50.5312 287.273Z" fill="#4C4F56"/>
<path d="M41.6001 308.93V319.348H40.7212V308.93H41.6001ZM32.5649 316.57C34.018 315.703 34.8677 313.799 34.8618 311.906V310.922H32.8579V310.16H37.6626V310.922H35.7524V311.906C35.7524 313.705 36.5669 315.504 38.0024 316.336L37.4399 317.016C36.4145 316.4 35.688 315.275 35.3247 313.951C34.9497 315.387 34.1938 316.611 33.1509 317.262L32.5649 316.57ZM36.8657 313.441V312.691H38.6235V309.188H39.4907V318.809H38.6235V313.441H36.8657ZM52.2571 313.57V314.285H47.9563V315.258H51.0384V317.508H44.8509V318.527H51.3548V319.23H43.9368V316.852H50.136V315.949H43.9134V315.258H47.054V314.285H42.7766V313.57H52.2571ZM43.2805 312.387C45.1907 312.264 46.8196 311.613 46.9895 310.57H43.7493V309.844H47.054V308.871H47.9563V309.844H51.2962V310.57H48.0266C48.1907 311.613 49.8196 312.264 51.7415 312.387L51.4602 313.09C49.72 312.943 48.1497 312.404 47.511 311.414C46.8665 312.404 45.2962 312.943 43.5501 313.09L43.2805 312.387ZM59.1337 310.57C59.122 312.059 60.1825 313.365 61.7118 313.887L61.1962 314.602C60.0477 314.174 59.1454 313.324 58.6942 312.229C58.2489 313.477 57.2997 314.443 56.0399 314.918L55.536 314.168C57.1415 313.605 58.2079 312.223 58.2196 310.605V309.527H59.1337V310.57ZM57.2352 317.379C57.2294 316.125 58.5595 315.404 60.7274 315.41C62.8895 315.404 64.2196 316.125 64.2196 317.379C64.2196 318.621 62.8895 319.324 60.7274 319.324C58.5595 319.324 57.2294 318.621 57.2352 317.379ZM58.1493 317.379C58.1434 318.135 59.1278 318.592 60.7274 318.586C62.3212 318.592 63.3055 318.135 63.3055 317.379C63.3055 316.6 62.3212 316.137 60.7274 316.137C59.1278 316.137 58.1434 316.6 58.1493 317.379ZM60.9384 311.93V311.168H63.2587V308.93H64.1845V315.105H63.2587V311.93H60.9384ZM70.3298 315.516C72.5622 315.516 73.9802 316.219 73.986 317.426C73.9802 318.621 72.5622 319.324 70.3298 319.324C68.0973 319.324 66.6794 318.621 66.6852 317.426C66.6794 316.219 68.0973 315.516 70.3298 315.516ZM65.6305 314.543V313.793H69.5563V311.777H70.4587V313.793H75.111V314.543H65.6305ZM66.7555 310.219V309.469H73.904V310.348C73.8981 311.191 73.8981 312.035 73.611 313.113L72.7087 313.008C72.9899 311.936 72.9899 311.162 72.9899 310.348V310.219H66.7555ZM67.5993 317.426C67.5934 318.152 68.6716 318.598 70.3298 318.598C71.9938 318.598 73.0602 318.152 73.072 317.426C73.0602 316.682 71.9938 316.225 70.3298 316.219C68.6716 316.225 67.5934 316.682 67.5993 317.426Z" fill="#27272D"/>
<rect x="108.24" y="216.599" width="59.04" height="83.4" rx="2.8" fill="white"/>
<rect x="108.24" y="216.599" width="59.04" height="83.4" rx="2.8" stroke="#E7E7E7" stroke-width="0.8"/>
<rect x="114.238" y="224.199" width="11.2" height="11.2" rx="5.6" fill="#7A7D84"/>
<path d="M117.84 229.072L119.618 231.414L121.84 228.184" stroke="white" stroke-width="0.8" stroke-linecap="round" stroke-linejoin="round"/>
<path d="M120.962 241.246V248.6H119.784L116.3 243.572H116.239V248.6H114.919V241.246H116.117L119.58 246.274H119.652V241.246H120.962ZM129.335 240.322V249.504H128.207V240.322H129.335ZM121.728 246.954C122.459 246.949 123.286 246.949 124.155 246.924V246.081C123.124 245.918 122.449 245.289 122.449 244.415C122.449 243.379 123.368 242.694 124.703 242.689C126.054 242.694 126.988 243.379 126.988 244.415C126.988 245.284 126.313 245.908 125.282 246.076V246.883C126.09 246.848 126.902 246.782 127.669 246.68L127.75 247.523C125.734 247.863 123.54 247.889 121.89 247.889L121.728 246.954ZM121.92 242.272V241.379H124.155V240.353H125.282V241.379H127.506V242.272H121.92ZM123.525 244.415C123.515 244.943 124.008 245.253 124.703 245.248C125.419 245.253 125.907 244.943 125.902 244.415C125.907 243.882 125.419 243.557 124.703 243.552C124.008 243.557 123.515 243.882 123.525 244.415ZM133.645 243.237C133.645 244.598 134.412 246.081 135.828 246.751L135.199 247.604C134.203 247.147 133.487 246.233 133.101 245.162C132.7 246.32 131.944 247.295 130.893 247.767L130.273 246.893C131.72 246.243 132.528 244.679 132.528 243.237V242.76H130.568V241.856H132.528V240.515H133.655V241.856H135.585V242.76H133.645V243.237ZM136.478 249.504V240.322H137.606V243.958H139.018V244.903H137.606V249.504H136.478ZM118.006 255.932C118.006 257.436 118.89 259.02 120.373 259.639L119.753 260.533C118.666 260.061 117.874 259.101 117.453 257.933C117.031 259.193 116.224 260.249 115.152 260.757L114.502 259.873C115.95 259.203 116.854 257.491 116.859 255.932V255.161H114.838V254.226H120.017V255.161H118.006V255.932ZM121.043 262.504V253.322H122.18V262.504H121.043ZM130.513 253.322V255.536H131.792V256.481H130.513V258.675H129.385V253.322H130.513ZM123.18 257.761C125.323 257.207 126.547 256.11 126.74 254.775H123.637V253.861H127.953C127.948 256.268 126.384 257.928 123.647 258.624L123.18 257.761ZM124.399 259.964V259.061H130.513V262.504H129.385V259.964H124.399ZM142.109 253.322V262.504H141.033V253.322H142.109ZM134.045 259.893C135.37 259.086 135.954 257.43 135.954 255.831V255.221H134.36V254.307H138.524V255.221H137.041V255.831C137.041 257.38 137.595 258.934 138.91 259.69L138.24 260.523C137.391 260.02 136.828 259.147 136.508 258.101C136.183 259.233 135.599 260.198 134.736 260.736L134.045 259.893ZM137.854 257.436V256.521H139.174V253.495H140.24V262.057H139.174V257.436H137.854ZM151.284 257.293V258.126H147.669V258.796H150.258V260.95H145.038V261.579H150.512V262.422H143.931V260.178H149.151V259.609H143.921V258.796H146.551V258.126H142.956V257.293H151.284ZM143.322 256.146C145.135 256.054 146.201 255.567 146.435 254.917H143.758V254.074H146.551V253.302H147.669V254.074H150.482V254.917H147.785C148.009 255.567 149.075 256.054 150.908 256.146L150.573 256.989C148.923 256.887 147.689 256.44 147.11 255.699C146.531 256.44 145.302 256.887 143.637 256.989L143.322 256.146Z" fill="#4C4F56"/>
<path d="M116.332 277.484C115.309 277.48 114.559 276.656 114.559 275.289C114.559 273.906 115.32 273.102 116.34 273.102C117.129 273.102 117.414 273.578 117.566 273.844H117.605V271.742H118.441V277.398H117.629V276.734H117.566C117.41 277.012 117.105 277.48 116.332 277.484ZM115.41 275.273C115.406 276.125 115.789 276.77 116.52 276.773C117.23 276.77 117.629 276.164 117.629 275.273C117.629 274.391 117.238 273.809 116.52 273.812C115.781 273.809 115.406 274.438 115.41 275.273ZM120.913 277.484C119.89 277.48 119.14 276.656 119.14 275.289C119.14 273.906 119.902 273.102 120.921 273.102C121.71 273.102 121.995 273.578 122.148 273.844H122.187V271.742H123.023V277.398H122.21V276.734H122.148C121.991 277.012 121.687 277.48 120.913 277.484ZM119.991 275.273C119.988 276.125 120.37 276.77 121.101 276.773C121.812 276.77 122.21 276.164 122.21 275.273C122.21 274.391 121.82 273.809 121.101 273.812C120.363 273.809 119.988 274.438 119.991 275.273ZM124.455 277.453C124.151 277.449 123.897 277.203 123.901 276.898C123.897 276.594 124.151 276.344 124.455 276.344C124.756 276.344 125.006 276.594 125.01 276.898C125.006 277.203 124.756 277.449 124.455 277.453ZM127.404 277.484C126.38 277.48 125.63 276.656 125.63 275.289C125.63 273.906 126.392 273.102 127.412 273.102C128.201 273.102 128.486 273.578 128.638 273.844H128.677V271.742H129.513V277.398H128.701V276.734H128.638C128.482 277.012 128.177 277.48 127.404 277.484ZM126.482 275.273C126.478 276.125 126.861 276.77 127.591 276.773C128.302 276.77 128.701 276.164 128.701 275.273C128.701 274.391 128.31 273.809 127.591 273.812C126.853 273.809 126.478 274.438 126.482 275.273ZM131.985 277.484C130.962 277.48 130.212 276.656 130.212 275.289C130.212 273.906 130.973 273.102 131.993 273.102C132.782 273.102 133.067 273.578 133.22 273.844H133.259V271.742H134.095V277.398H133.282V276.734H133.22C133.063 277.012 132.759 277.48 131.985 277.484ZM131.063 275.273C131.059 276.125 131.442 276.77 132.173 276.773C132.884 276.77 133.282 276.164 133.282 275.273C133.282 274.391 132.891 273.809 132.173 273.812C131.434 273.809 131.059 274.438 131.063 275.273ZM117.246 286.648V287.367H114.738V286.648H117.246ZM119.64 289.484C118.616 289.48 117.866 288.656 117.866 287.289C117.866 285.906 118.628 285.102 119.648 285.102C120.437 285.102 120.722 285.578 120.874 285.844H120.913V283.742H121.749V289.398H120.937V288.734H120.874C120.718 289.012 120.413 289.48 119.64 289.484ZM118.718 287.273C118.714 288.125 119.097 288.77 119.827 288.773C120.538 288.77 120.937 288.164 120.937 287.273C120.937 286.391 120.546 285.809 119.827 285.812C119.089 285.809 118.714 286.438 118.718 287.273ZM124.221 289.484C123.198 289.48 122.448 288.656 122.448 287.289C122.448 285.906 123.209 285.102 124.229 285.102C125.018 285.102 125.303 285.578 125.455 285.844H125.495V283.742H126.33V289.398H125.518V288.734H125.455C125.299 289.012 124.995 289.48 124.221 289.484ZM123.299 287.273C123.295 288.125 123.678 288.77 124.409 288.773C125.12 288.77 125.518 288.164 125.518 287.273C125.518 286.391 125.127 285.809 124.409 285.812C123.67 285.809 123.295 286.438 123.299 287.273ZM127.763 289.453C127.459 289.449 127.205 289.203 127.209 288.898C127.205 288.594 127.459 288.344 127.763 288.344C128.064 288.344 128.314 288.594 128.318 288.898C128.314 289.203 128.064 289.449 127.763 289.453ZM130.712 289.484C129.688 289.48 128.938 288.656 128.938 287.289C128.938 285.906 129.7 285.102 130.72 285.102C131.509 285.102 131.794 285.578 131.946 285.844H131.985V283.742H132.821V289.398H132.009V288.734H131.946C131.79 289.012 131.485 289.48 130.712 289.484ZM129.79 287.273C129.786 288.125 130.169 288.77 130.899 288.773C131.61 288.77 132.009 288.164 132.009 287.273C132.009 286.391 131.618 285.809 130.899 285.812C130.161 285.809 129.786 286.438 129.79 287.273ZM135.293 289.484C134.27 289.48 133.52 288.656 133.52 287.289C133.52 285.906 134.281 285.102 135.301 285.102C136.09 285.102 136.375 285.578 136.527 285.844H136.566V283.742H137.402V289.398H136.59V288.734H136.527C136.371 289.012 136.066 289.48 135.293 289.484ZM134.371 287.273C134.367 288.125 134.75 288.77 135.48 288.773C136.191 288.77 136.59 288.164 136.59 287.273C136.59 286.391 136.199 285.809 135.48 285.812C134.742 285.809 134.367 286.438 134.371 287.273Z" fill="#4C4F56"/>
<path d="M131.687 312.129C131.693 313.898 132.976 315.697 134.511 316.359L133.996 317.086C132.777 316.535 131.728 315.334 131.242 313.893C130.756 315.422 129.701 316.746 128.511 317.344L127.961 316.617C129.455 315.902 130.756 313.934 130.761 312.129V310.77H128.3V310.008H134.172V310.77H131.687V312.129ZM135.625 319.348V308.93H136.55V319.348H135.625ZM146.176 308.93V311.578H147.747V312.363H146.176V315.047H145.262V308.93H146.176ZM138.02 314.215C140.575 313.523 142.151 312.129 142.338 310.359H138.489V309.598H143.317C143.311 312.234 141.471 314.115 138.395 314.93L138.02 314.215ZM139.356 316.277V315.527H146.176V319.348H145.262V316.277H139.356Z" fill="#27272D"/>
<rect x="192.08" y="216.599" width="59.04" height="83.4" rx="2.8" fill="white"/>
<rect x="192.08" y="216.599" width="59.04" height="83.4" rx="2.8" stroke="#E7E7E7" stroke-width="0.8"/>
<rect x="198.478" y="224.599" width="10.4" height="10.4" rx="5.2" stroke="#BDBDBD" stroke-width="0.8"/>
<path d="M201.68 229.072L203.457 231.414L205.68 228.184" stroke="#BDBDBD" stroke-width="0.8" stroke-linecap="round" stroke-linejoin="round"/>
<path d="M204.802 241.246V248.6H203.623L200.14 243.572H200.079V248.6H198.759V241.246H199.957L203.42 246.274H203.491V241.246H204.802ZM213.174 240.322V249.504H212.047V240.322H213.174ZM205.567 246.954C206.299 246.949 207.126 246.949 207.995 246.924V246.081C206.964 245.918 206.288 245.289 206.288 244.415C206.288 243.379 207.208 242.694 208.543 242.689C209.894 242.694 210.828 243.379 210.828 244.415C210.828 245.284 210.153 245.908 209.122 246.076V246.883C209.929 246.848 210.742 246.782 211.509 246.68L211.59 247.523C209.574 247.863 207.38 247.889 205.73 247.889L205.567 246.954ZM205.76 242.272V241.379H207.995V240.353H209.122V241.379H211.346V242.272H205.76ZM207.365 244.415C207.355 244.943 207.847 245.253 208.543 245.248C209.259 245.253 209.747 244.943 209.742 244.415C209.747 243.882 209.259 243.557 208.543 243.552C207.847 243.557 207.355 243.882 207.365 244.415ZM217.485 243.237C217.485 244.598 218.251 246.081 219.668 246.751L219.039 247.604C218.043 247.147 217.327 246.233 216.941 245.162C216.54 246.32 215.784 247.295 214.732 247.767L214.113 246.893C215.56 246.243 216.368 244.679 216.368 243.237V242.76H214.407V241.856H216.368V240.515H217.495V241.856H219.425V242.76H217.485V243.237ZM220.318 249.504V240.322H221.446V243.958H222.857V244.903H221.446V249.504H220.318ZM206.284 253.322V262.504H205.208V253.322H206.284ZM198.22 259.893C199.546 259.086 200.13 257.43 200.13 255.831V255.221H198.535V254.307H202.699V255.221H201.216V255.831C201.216 257.38 201.77 258.934 203.085 259.69L202.415 260.523C201.567 260.02 201.003 259.147 200.683 258.101C200.358 259.233 199.774 260.198 198.911 260.736L198.22 259.893ZM202.029 257.436V256.521H203.349V253.495H204.416V262.057H203.349V257.436H202.029ZM215.46 257.293V258.126H211.844V258.796H214.434V260.95H209.213V261.579H214.688V262.422H208.106V260.178H213.327V259.609H208.096V258.796H210.727V258.126H207.131V257.293H215.46ZM207.497 256.146C209.31 256.054 210.376 255.567 210.61 254.917H207.934V254.074H210.727V253.302H211.844V254.074H214.657V254.917H211.961C212.184 255.567 213.251 256.054 215.084 256.146L214.749 256.989C213.098 256.887 211.864 256.44 211.285 255.699C210.706 256.44 209.478 256.887 207.812 256.989L207.497 256.146ZM225.289 253.332V255.983H226.568V256.918H225.289V260.086H224.161V253.332H225.289ZM218.362 258.593V253.982H219.479V255.384H221.622V253.982H222.74V258.593H218.362ZM219.408 262.321V259.406H220.536V261.407H225.654V262.321H219.408ZM219.479 257.7H221.622V256.257H219.479V257.7ZM234.464 253.322V262.514H233.337V258.746H231.661V257.821H233.337V256.247H231.691V255.323H233.337V253.322H234.464ZM227.08 255.018V254.114H231.173V257.547H228.228V259.497C229.442 259.492 230.493 259.436 231.732 259.254L231.823 260.178C230.417 260.401 229.249 260.432 227.822 260.432H227.111V256.664H230.066V255.018H227.08Z" fill="#4C4F56"/>
<path d="M200.172 277.484C199.148 277.48 198.398 276.656 198.398 275.289C198.398 273.906 199.16 273.102 200.18 273.102C200.969 273.102 201.254 273.578 201.406 273.844H201.445V271.742H202.281V277.398H201.469V276.734H201.406C201.25 277.012 200.945 277.48 200.172 277.484ZM199.25 275.273C199.246 276.125 199.629 276.77 200.359 276.773C201.07 276.77 201.469 276.164 201.469 275.273C201.469 274.391 201.078 273.809 200.359 273.812C199.621 273.809 199.246 274.438 199.25 275.273ZM204.753 277.484C203.73 277.48 202.98 276.656 202.98 275.289C202.98 273.906 203.741 273.102 204.761 273.102C205.55 273.102 205.835 273.578 205.988 273.844H206.027V271.742H206.863V277.398H206.05V276.734H205.988C205.831 277.012 205.527 277.48 204.753 277.484ZM203.831 275.273C203.827 276.125 204.21 276.77 204.941 276.773C205.652 276.77 206.05 276.164 206.05 275.273C206.05 274.391 205.659 273.809 204.941 273.812C204.202 273.809 203.827 274.438 203.831 275.273ZM208.295 277.453C207.991 277.449 207.737 277.203 207.741 276.898C207.737 276.594 207.991 276.344 208.295 276.344C208.596 276.344 208.846 276.594 208.85 276.898C208.846 277.203 208.596 277.449 208.295 277.453ZM211.244 277.484C210.22 277.48 209.47 276.656 209.47 275.289C209.47 273.906 210.232 273.102 211.252 273.102C212.041 273.102 212.326 273.578 212.478 273.844H212.517V271.742H213.353V277.398H212.541V276.734H212.478C212.322 277.012 212.017 277.48 211.244 277.484ZM210.322 275.273C210.318 276.125 210.701 276.77 211.431 276.773C212.142 276.77 212.541 276.164 212.541 275.273C212.541 274.391 212.15 273.809 211.431 273.812C210.693 273.809 210.318 274.438 210.322 275.273ZM215.825 277.484C214.802 277.48 214.052 276.656 214.052 275.289C214.052 273.906 214.813 273.102 215.833 273.102C216.622 273.102 216.907 273.578 217.059 273.844H217.098V271.742H217.934V277.398H217.122V276.734H217.059C216.903 277.012 216.598 277.48 215.825 277.484ZM214.903 275.273C214.899 276.125 215.282 276.77 216.012 276.773C216.723 276.77 217.122 276.164 217.122 275.273C217.122 274.391 216.731 273.809 216.012 273.812C215.274 273.809 214.899 274.438 214.903 275.273ZM201.086 286.648V287.367H198.578V286.648H201.086ZM203.48 289.484C202.456 289.48 201.706 288.656 201.706 287.289C201.706 285.906 202.468 285.102 203.487 285.102C204.277 285.102 204.562 285.578 204.714 285.844H204.753V283.742H205.589V289.398H204.777V288.734H204.714C204.558 289.012 204.253 289.48 203.48 289.484ZM202.558 287.273C202.554 288.125 202.937 288.77 203.667 288.773C204.378 288.77 204.777 288.164 204.777 287.273C204.777 286.391 204.386 285.809 203.667 285.812C202.929 285.809 202.554 286.438 202.558 287.273ZM208.061 289.484C207.037 289.48 206.287 288.656 206.287 287.289C206.287 285.906 207.049 285.102 208.069 285.102C208.858 285.102 209.143 285.578 209.295 285.844H209.334V283.742H210.17V289.398H209.358V288.734H209.295C209.139 289.012 208.834 289.48 208.061 289.484ZM207.139 287.273C207.135 288.125 207.518 288.77 208.248 288.773C208.959 288.77 209.358 288.164 209.358 287.273C209.358 286.391 208.967 285.809 208.248 285.812C207.51 285.809 207.135 286.438 207.139 287.273ZM211.603 289.453C211.298 289.449 211.045 289.203 211.048 288.898C211.045 288.594 211.298 288.344 211.603 288.344C211.904 288.344 212.154 288.594 212.158 288.898C212.154 289.203 211.904 289.449 211.603 289.453ZM214.552 289.484C213.528 289.48 212.778 288.656 212.778 287.289C212.778 285.906 213.54 285.102 214.559 285.102C215.348 285.102 215.634 285.578 215.786 285.844H215.825V283.742H216.661V289.398H215.848V288.734H215.786C215.63 289.012 215.325 289.48 214.552 289.484ZM213.63 287.273C213.626 288.125 214.009 288.77 214.739 288.773C215.45 288.77 215.848 288.164 215.848 287.273C215.848 286.391 215.458 285.809 214.739 285.812C214.001 285.809 213.626 286.438 213.63 287.273ZM219.133 289.484C218.109 289.48 217.359 288.656 217.359 287.289C217.359 285.906 218.121 285.102 219.141 285.102C219.93 285.102 220.215 285.578 220.367 285.844H220.406V283.742H221.242V289.398H220.43V288.734H220.367C220.211 289.012 219.906 289.48 219.133 289.484ZM218.211 287.273C218.207 288.125 218.59 288.77 219.32 288.773C220.031 288.77 220.43 288.164 220.43 287.273C220.43 286.391 220.039 285.809 219.32 285.812C218.582 285.809 218.207 286.438 218.211 287.273Z" fill="#4C4F56"/>
<path d="M219.945 308.941V312.094H221.515V312.867H219.945V316.594H219.031V308.941H219.945ZM212.246 314.836V309.691H213.148V311.449H216.183V309.691H217.097V314.836H212.246ZM213.148 314.086H216.183V312.176H213.148V314.086ZM213.429 319.125V315.844H214.332V318.352H220.425V319.125H213.429ZM230.497 308.93V319.371H229.583V314.93H227.415V314.156H229.583V312.082H227.497V311.309H229.583V308.93H230.497ZM222.235 310.641V309.879H226.817V313.582H223.184V316.148C224.749 316.148 226.043 316.09 227.625 315.844L227.708 316.617C226.043 316.875 224.708 316.934 223.043 316.934H222.27V312.832H225.915V310.641H222.235Z" fill="#27272D"/>
</svg>
