<svg width="325" height="295" viewBox="0 0 325 295" fill="none" xmlns="http://www.w3.org/2000/svg">
<rect width="325" height="295" fill="white"/>
<rect x="6" y="32" width="223" height="136" fill="#A8A8A8" fill-opacity="0.07"/>
<rect x="9" y="210" width="232" height="80" fill="#A8A8A8" fill-opacity="0.07"/>
<path d="M16.356 13.4V15.704H15.42V10.328H16.356V12.596H17.772V10.136H18.72V15.788H17.772V13.4H16.356ZM10.236 10.736H14.424C14.424 13.268 13.104 15.152 10.224 16.244L9.78 15.524C11.244 14.996 12.24 14.24 12.828 13.34L9.888 13.64L9.732 12.848L13.188 12.62C13.32 12.272 13.404 11.912 13.44 11.528H10.236V10.736ZM12.612 19.976H19.128V20.744H11.64V18.08H17.748V17.06H11.616V16.292H18.72V18.812H12.612V19.976ZM28.7951 10.136V18.056H27.8111V10.136H28.7951ZM26.5271 15.368L26.6231 16.172C24.9071 16.46 23.4671 16.532 21.4031 16.532H20.5391V13.256H24.4271V11.684H20.5031V10.892H25.3991V14H21.4991V15.728C23.4671 15.728 24.8711 15.656 26.5271 15.368ZM22.7591 19.844H29.0951V20.648H21.7751V17.444H22.7591V19.844ZM31.8381 11.96V17.42C33.7461 17.42 35.0061 17.348 36.4581 17.072L36.5781 17.888C35.0181 18.176 33.7221 18.248 31.6821 18.248H30.8541V11.144H35.7501V11.96H31.8381ZM38.1981 10.124H39.1821V20.912H38.1981V14.84H35.1141V14.024H38.1981V10.124ZM51.9128 15.536L51.4688 16.352C49.8368 15.98 48.1568 14.828 47.4728 13.244C46.7888 14.816 45.1088 15.968 43.4888 16.352L43.0448 15.536C44.9288 15.164 46.9568 13.544 46.9568 11.708V10.88H47.9888V11.708C47.9888 13.544 50.0288 15.176 51.9128 15.536ZM42.6368 18.632H52.3928V19.448H42.6368V18.632ZM54.6318 14.912V17.492C56.5878 17.492 57.9798 17.42 59.5878 17.132L59.6838 17.936C58.0038 18.224 56.5638 18.296 54.5118 18.296H53.6598V11.096H58.8798V11.9H54.6318V14.12H58.4838V14.912H54.6318ZM60.8238 10.124H61.8078V20.876H60.8238V10.124ZM63.9029 11.24H68.7389C68.7389 14.36 67.6469 17.204 63.8669 19.124L63.3149 18.344C65.2709 17.384 66.4589 16.148 67.1189 14.72L63.5309 15.056L63.3509 14.204L67.4189 13.94C67.6229 13.34 67.7189 12.704 67.7669 12.044H63.9029V11.24ZM71.1869 10.136H72.1709V20.888H71.1869V15.248H68.7029V14.444H71.1869V10.136ZM76.09 17.612C76.93 17.612 77.482 16.52 77.482 14.756C77.482 13.028 76.93 11.936 76.09 11.936C75.226 11.936 74.686 13.028 74.686 14.756C74.686 16.52 75.226 17.612 76.09 17.612ZM79.726 14.312V10.364H80.662V20.36H79.726V15.116H78.37C78.286 17.228 77.41 18.524 76.09 18.524C74.686 18.524 73.786 17.084 73.786 14.756C73.786 12.464 74.686 11.024 76.09 11.024C77.386 11.024 78.25 12.284 78.37 14.312H79.726ZM81.862 10.124H82.798V20.888H81.862V10.124ZM87.761 11.048V12.98C87.761 14.936 88.985 16.892 90.545 17.636L89.969 18.416C88.745 17.804 87.761 16.52 87.269 15.008C86.801 16.604 85.805 17.96 84.593 18.608L83.993 17.828C85.553 17.048 86.777 14.972 86.777 12.98V11.048H87.761ZM91.877 10.124H92.861V20.9H91.877V14.576H89.381V13.772H91.877V10.124ZM99.4717 12.188V13.16C99.4717 15.032 100.276 16.904 101.764 17.744L101.164 18.464C100.12 17.84 99.3757 16.688 99.0037 15.32C98.6317 16.796 97.8517 18.056 96.7837 18.728L96.1837 17.996C97.6837 17.096 98.5237 15.14 98.5237 13.16V12.188H96.4837V11.384H101.392V12.188H99.4717ZM102.352 13.988V10.364H103.288V20.324H102.352V14.792H100.576V13.988H102.352ZM104.512 10.112H105.46V20.876H104.512V10.112ZM107.459 14.42L107.171 13.676C109.163 13.544 110.807 12.884 110.975 11.816H107.651V11.072H111.035V10.052H112.019V11.072H115.391V11.816H112.079C112.247 12.884 113.867 13.544 115.871 13.676L115.571 14.42C113.771 14.276 112.187 13.724 111.527 12.728C110.867 13.724 109.271 14.276 107.459 14.42ZM116.375 15.656H112.019V16.652H115.139V19.004H108.815V20.024H115.463V20.768H107.855V18.296H114.167V17.384H107.819V16.652H111.023V15.656H106.667V14.9H116.375V15.656ZM125.193 15.188L124.677 15.956C123.513 15.524 122.589 14.636 122.109 13.532C121.665 14.792 120.705 15.776 119.445 16.256L118.929 15.476C120.561 14.888 121.605 13.424 121.605 11.78V10.676H122.589V11.864C122.589 13.316 123.645 14.66 125.193 15.188ZM123.909 20.108C125.493 20.108 126.465 19.664 126.465 18.92C126.465 18.164 125.493 17.72 123.909 17.72C122.313 17.72 121.341 18.164 121.341 18.92C121.341 19.664 122.313 20.108 123.909 20.108ZM123.909 16.952C126.093 16.952 127.449 17.66 127.449 18.92C127.449 20.168 126.093 20.876 123.909 20.876C121.713 20.876 120.357 20.168 120.357 18.92C120.357 17.66 121.713 16.952 123.909 16.952ZM127.329 12.908H128.925V13.724H127.329V16.652H126.345V10.136H127.329V12.908ZM130.684 14.984V17.408C132.256 17.408 133.216 17.36 134.368 17.132L134.464 17.948C133.216 18.188 132.184 18.224 130.444 18.224H129.736V11.36H133.984V12.164H130.684V14.204H133.816V14.984H130.684ZM137.524 10.124H138.46V20.888H137.524V15.248H136.096V20.36H135.16V10.364H136.096V14.444H137.524V10.124ZM147.192 12.008V11.132H140.88V10.436H148.164V12.68H141.876V13.604H148.356V14.312H140.904V12.008H147.192ZM141.816 19.04V20.036H148.536V20.744H140.844V18.356H147.228V17.456H140.82V16.748H148.2V19.04H141.816ZM139.656 15.128H149.412V15.872H139.656V15.128ZM158.374 11.108V11.852H152.194V11.108H154.798V10.052H155.782V11.108H158.374ZM153.706 13.844C153.706 14.408 154.318 14.768 155.29 14.768C156.238 14.768 156.862 14.408 156.862 13.844C156.862 13.28 156.238 12.932 155.29 12.932C154.318 12.932 153.706 13.28 153.706 13.844ZM158.698 15.908L158.77 16.616C156.466 17.012 153.922 17.024 152.038 17.036L151.93 16.244C152.782 16.244 153.766 16.244 154.798 16.208V15.428C153.55 15.308 152.77 14.732 152.77 13.844C152.77 12.86 153.766 12.248 155.29 12.248C156.79 12.248 157.798 12.86 157.798 13.844C157.798 14.72 157.018 15.296 155.782 15.428V16.172C156.766 16.124 157.762 16.052 158.698 15.908ZM153.238 18.668V17.888H160.318V20.888H159.334V18.668H153.238ZM161.89 13.388V14.204H160.318V17.348H159.334V10.136H160.318V13.388H161.89ZM171.149 10.136V17.996H170.165V10.136H171.149ZM163.529 13.52C163.529 14.588 164.321 15.332 165.365 15.332C166.433 15.332 167.225 14.588 167.225 13.52C167.225 12.476 166.433 11.732 165.365 11.732C164.321 11.732 163.529 12.476 163.529 13.52ZM168.185 13.52C168.185 15.08 166.973 16.184 165.365 16.184C163.769 16.184 162.569 15.08 162.569 13.52C162.569 11.972 163.769 10.88 165.365 10.88C166.973 10.88 168.185 11.972 168.185 13.52ZM165.209 19.844H171.473V20.648H164.225V17.192H165.209V19.844ZM175.812 17.672C176.796 17.672 177.504 16.976 177.504 16.016C177.504 15.044 176.796 14.348 175.812 14.348C174.84 14.348 174.132 15.044 174.132 16.016C174.132 16.976 174.84 17.672 175.812 17.672ZM175.812 13.532C177.348 13.532 178.44 14.564 178.44 16.016C178.44 17.48 177.348 18.488 175.812 18.488C174.3 18.488 173.208 17.48 173.208 16.016C173.208 14.564 174.3 13.532 175.812 13.532ZM176.292 10.256V11.852H178.944V12.644H172.596V11.852H175.308V10.256H176.292ZM182.712 14.552V15.38H180.948V20.888H179.964V10.136H180.948V14.552H182.712ZM191.815 10.136V15.704H190.831V10.136H191.815ZM189.511 14.624L189.019 15.392C187.783 14.96 186.799 14.06 186.307 12.92C185.839 14.156 184.843 15.14 183.571 15.596L183.067 14.828C184.687 14.264 185.803 12.824 185.803 11.264V10.448H186.787V11.264C186.787 12.752 187.915 14.096 189.511 14.624ZM185.851 19.988H192.187V20.768H184.879V18.092H190.855V17.012H184.855V16.244H191.827V18.836H185.851V19.988ZM204.582 14.228L204.174 15.02C202.506 14.732 200.886 13.796 200.19 12.5C199.518 13.808 197.898 14.732 196.218 15.02L195.822 14.228C197.778 13.94 199.674 12.644 199.674 11.108V10.508H200.706V11.108C200.706 12.608 202.626 13.94 204.582 14.228ZM205.05 16.184L205.062 17H200.658V20.9H199.674V17H195.33V16.184H205.05ZM216.473 10.136V16.28H215.489V10.136H216.473ZM210.689 11.576C209.621 11.576 208.853 12.284 208.853 13.268C208.853 14.264 209.621 14.96 210.689 14.96C211.757 14.96 212.549 14.264 212.549 13.268C212.549 12.284 211.757 11.576 210.689 11.576ZM210.689 15.776C209.069 15.776 207.893 14.756 207.893 13.268C207.893 11.78 209.069 10.76 210.689 10.76C212.321 10.76 213.509 11.78 213.509 13.268C213.509 14.756 212.321 15.776 210.689 15.776ZM215.273 16.748V17.324C215.273 18.44 216.065 19.544 217.433 20L216.941 20.744C215.885 20.36 215.141 19.616 214.781 18.716C214.445 19.592 213.785 20.408 212.789 20.84C211.757 20.432 211.109 19.652 210.785 18.752C210.401 19.616 209.669 20.36 208.661 20.744L208.169 20C209.525 19.52 210.329 18.356 210.329 17.324V16.748H211.277V17.324C211.277 18.272 211.769 19.292 212.765 19.88C213.797 19.244 214.313 18.164 214.313 17.324V16.748H215.273ZM227.16 13.484L226.8 14.276C225.132 14.012 223.536 13.172 222.852 11.972C222.18 13.172 220.572 14.012 218.892 14.276L218.532 13.484C220.464 13.244 222.348 12.092 222.348 10.724V10.244H223.356V10.724C223.356 12.056 225.252 13.244 227.16 13.484ZM225.468 19.952V18.584H220.176V19.952H225.468ZM225.468 17.828V16.568H226.44V20.744H219.204V16.568H220.176V17.828H225.468ZM217.968 15.032H227.712V15.824H217.968V15.032ZM229.975 11.168V17.264C231.595 17.264 233.263 17.12 235.051 16.76L235.159 17.6C233.287 17.984 231.595 18.104 229.879 18.104H228.991V11.168H229.975ZM236.155 10.124H237.139V20.876H236.155V10.124ZM240.098 11.972V17.384C242.006 17.384 243.386 17.3 244.946 17.024L245.054 17.84C243.41 18.152 241.994 18.224 239.966 18.224H239.114V11.156H244.118V11.972H240.098ZM248.714 14.372V15.188H246.938V20.912H245.954V10.124H246.938V14.372H248.714ZM250.029 20.156C249.597 20.156 249.237 19.82 249.237 19.328C249.237 18.824 249.597 18.476 250.029 18.476C250.461 18.476 250.821 18.824 250.821 19.328C250.821 19.82 250.461 20.156 250.029 20.156Z" fill="black"/>
<path d="M13.504 198.588C14.536 198.588 15.268 197.46 15.268 195.708C15.268 193.968 14.536 192.84 13.504 192.84C12.46 192.84 11.728 193.968 11.728 195.708C11.728 197.46 12.46 198.588 13.504 198.588ZM13.504 191.952C15.088 191.952 16.204 193.416 16.204 195.708C16.204 198 15.088 199.464 13.504 199.464C11.92 199.464 10.792 198 10.792 195.708C10.792 193.416 11.92 191.952 13.504 191.952ZM20.692 195.42V196.248H18.916V201.888H17.932V191.136H18.916V195.42H20.692ZM28.7991 191.124H29.7831V201.912H28.7991V191.124ZM24.1071 191.952C25.7031 191.952 26.8431 193.416 26.8431 195.708C26.8431 198 25.7031 199.464 24.1071 199.464C22.5111 199.464 21.3711 198 21.3711 195.708C21.3711 193.416 22.5111 191.952 24.1071 191.952ZM24.1071 192.84C23.0511 192.84 22.3071 193.968 22.3071 195.708C22.3071 197.46 23.0511 198.588 24.1071 198.588C25.1511 198.588 25.8951 197.46 25.8951 195.708C25.8951 193.968 25.1511 192.84 24.1071 192.84ZM32.2021 193.824L38.8621 193.608C38.8741 193.236 38.8741 192.9 38.8741 192.564V192.444H32.4661V191.64H39.8461V192.564C39.8461 193.56 39.8461 194.64 39.5461 196.116L38.5741 196.044C38.7061 195.408 38.7781 194.856 38.8141 194.352L32.3461 194.652L32.2021 193.824ZM33.5341 198.552V200.916H40.0741V201.72H32.5501V198.552H33.5341ZM36.2581 196.836H41.0341V197.628H31.3261V196.836H35.2741V195.276H36.2581V196.836ZM46.7928 198.672C47.7768 198.672 48.4848 197.976 48.4848 197.016C48.4848 196.044 47.7768 195.348 46.7928 195.348C45.8208 195.348 45.1128 196.044 45.1128 197.016C45.1128 197.976 45.8208 198.672 46.7928 198.672ZM46.7928 194.532C48.3288 194.532 49.4208 195.564 49.4208 197.016C49.4208 198.48 48.3288 199.488 46.7928 199.488C45.2808 199.488 44.1888 198.48 44.1888 197.016C44.1888 195.564 45.2808 194.532 46.7928 194.532ZM47.2728 191.256V192.852H49.9248V193.644H43.5768V192.852H46.2888V191.256H47.2728ZM53.6928 195.552V196.38H51.9288V201.888H50.9448V191.136H51.9288V195.552H53.6928ZM60.2038 195.84L60.3118 196.632C58.8358 196.932 57.5638 197.004 55.3078 197.004H54.4678V192.06H59.2318V192.852H55.4518V196.2C57.5758 196.2 58.7998 196.116 60.2038 195.84ZM56.6158 198.132V200.844H62.8078V201.648H55.6318V198.132H56.6158ZM62.3278 194.316H63.9238V195.132H62.3278V198.912H61.3438V191.124H62.3278V194.316ZM73.0665 194.724V197.496H72.1305V191.34H73.0665V193.92H74.4465V191.136H75.3825V198.444H74.4465V194.724H73.0665ZM70.0305 196.08V194.328H67.7145V196.08H70.0305ZM70.9545 191.868V196.872H66.7785V191.868H67.7145V193.548H70.0305V191.868H70.9545ZM72.2865 198.036V198.384C72.2865 199.74 74.0625 200.82 75.9705 201.096L75.5985 201.852C73.9785 201.6 72.4425 200.82 71.7945 199.656C71.1345 200.82 69.6105 201.6 67.9905 201.852L67.6185 201.096C69.5265 200.82 71.2905 199.74 71.2905 198.384V198.036H72.2865ZM80.4776 193.044V194.412C80.4776 196.236 81.7736 198.096 83.3576 198.768L82.8056 199.56C81.5576 198.984 80.5016 197.748 79.9856 196.272C79.4936 197.844 78.4376 199.2 77.2136 199.824L76.6376 199.032C78.1856 198.3 79.4936 196.272 79.4936 194.412V193.044H76.9976V192.228H83.0096V193.044H80.4776ZM84.4616 191.136H85.4456V201.888H84.4616V191.136ZM95.6046 194.364V195.168H88.2846V191.52H89.2686V194.364H95.6046ZM89.1966 198.48V200.82H95.6646V201.624H88.2126V198.48H89.1966ZM86.9646 196.608H96.7206V197.4H86.9646V196.608ZM100.259 195.24C99.7313 195.24 99.4193 194.808 99.4193 194.04C99.4193 192.972 99.9233 192.204 100.847 191.664L101.159 192.18C100.487 192.624 100.151 193.092 100.151 193.848C100.187 193.836 100.223 193.836 100.259 193.836C100.631 193.836 100.967 194.076 100.967 194.508C100.967 194.976 100.679 195.24 100.259 195.24ZM105.779 193.044V194.412C105.779 196.236 107.075 198.096 108.659 198.768L108.107 199.56C106.859 198.984 105.803 197.748 105.287 196.272C104.795 197.844 103.739 199.2 102.515 199.824L101.939 199.032C103.487 198.3 104.795 196.272 104.795 194.412V193.044H102.299V192.228H108.311V193.044H105.779ZM109.763 191.136H110.747V201.888H109.763V191.136ZM112.746 191.808H117.702C117.702 194.532 115.806 196.464 112.662 197.328L112.254 196.548C114.87 195.84 116.466 194.436 116.646 192.612H112.746V191.808ZM113.634 198.72V197.928H120.63V201.888H119.646V198.72H113.634ZM122.226 193.848V194.664H120.63V197.436H119.646V191.112H120.63V193.848H122.226ZM123.301 195.204L123.085 192.984L123.061 191.748H124.213L124.189 192.984L123.973 195.204H123.301ZM130.873 197.16L129.889 197.064C130.189 195.276 130.213 193.968 130.213 193.104H125.737V192.3H131.173V192.888C131.173 193.752 131.173 195.156 130.873 197.16ZM128.401 195.372V198.66C129.577 198.612 130.777 198.54 131.869 198.408L131.929 199.128C129.697 199.488 127.165 199.536 125.257 199.536L125.149 198.72C125.833 198.72 126.625 198.708 127.429 198.684V195.372H128.401ZM135.229 195.624V196.452H133.513V201.888H132.529V191.124H133.513V195.624H135.229ZM142.44 192.192C140.796 192.192 139.704 192.708 139.704 193.56C139.704 194.4 140.796 194.916 142.44 194.916C144.096 194.916 145.176 194.4 145.176 193.56C145.176 192.708 144.096 192.192 142.44 192.192ZM142.44 195.72C140.16 195.72 138.672 194.892 138.672 193.56C138.672 192.228 140.16 191.4 142.44 191.4C144.72 191.4 146.208 192.228 146.208 193.56C146.208 194.892 144.72 195.72 142.44 195.72ZM139.8 198.504V200.832H146.256V201.648H138.816V198.504H139.8ZM137.568 196.584H147.324V197.388H143.028V199.56H142.032V197.388H137.568V196.584ZM149.023 194.316C149.023 195.324 149.815 196.044 150.859 196.044C151.915 196.044 152.683 195.324 152.683 194.316C152.683 193.32 151.915 192.6 150.859 192.6C149.815 192.6 149.023 193.32 149.023 194.316ZM155.791 193.476H153.487C153.571 193.728 153.619 194.004 153.619 194.316C153.619 194.616 153.571 194.892 153.475 195.156H155.791V193.476ZM155.791 195.96H153.031C152.539 196.536 151.771 196.884 150.859 196.884C149.263 196.884 148.087 195.828 148.087 194.316C148.087 192.816 149.263 191.772 150.859 191.772C151.771 191.772 152.539 192.12 153.031 192.672H155.791V191.124H156.787V197.496H155.791V195.96ZM153.223 201.096C154.867 201.096 155.851 200.616 155.851 199.812C155.851 198.996 154.867 198.516 153.223 198.516C151.603 198.516 150.619 198.996 150.619 199.812C150.619 200.616 151.603 201.096 153.223 201.096ZM153.223 197.748C155.443 197.748 156.823 198.504 156.823 199.812C156.823 201.12 155.443 201.876 153.223 201.876C151.015 201.876 149.647 201.12 149.647 199.812C149.647 198.504 151.015 197.748 153.223 197.748ZM167.09 191.136V199.008H166.106V191.136H167.09ZM164.834 196.692L164.354 197.472C163.118 197.04 162.134 196.152 161.642 195.024C161.186 196.248 160.19 197.22 158.918 197.676L158.402 196.908C160.034 196.344 161.126 194.94 161.126 193.404V192.816H158.666V192.024H164.57V192.816H162.134V193.404C162.134 194.856 163.25 196.164 164.834 196.692ZM161.15 200.844H167.414V201.648H160.166V198.264H161.15V200.844ZM172.089 191.916C173.769 191.916 174.969 192.936 174.969 194.448C174.969 195.948 173.769 196.98 172.089 196.98C170.421 196.98 169.209 195.948 169.209 194.448C169.209 192.936 170.421 191.916 172.089 191.916ZM172.089 192.756C170.985 192.756 170.169 193.44 170.169 194.448C170.169 195.444 170.985 196.14 172.089 196.14C173.205 196.14 174.009 195.444 174.009 194.448C174.009 193.44 173.205 192.756 172.089 192.756ZM176.385 191.124H177.369V201.912H176.385V191.124ZM168.789 199.548L168.669 198.72C170.625 198.72 173.325 198.708 175.677 198.348L175.761 199.08C173.337 199.524 170.733 199.548 168.789 199.548ZM181.88 195.24C181.352 195.24 181.04 194.808 181.04 194.04C181.04 192.972 181.544 192.204 182.468 191.664L182.78 192.18C182.108 192.624 181.772 193.092 181.772 193.848C181.808 193.836 181.844 193.836 181.88 193.836C182.252 193.836 182.588 194.076 182.588 194.508C182.588 194.976 182.3 195.24 181.88 195.24ZM184.183 192.18H189.127V199.176H184.183V192.18ZM188.167 192.972H185.143V198.396H188.167V192.972ZM191.383 191.124H192.367V201.912H191.383V191.124ZM201.77 199.164V195.732H199.598V194.928H201.77V193.512H199.598V192.72H201.77V191.124H202.766V199.164H201.77ZM200.174 196.776L199.634 197.556C198.47 197.064 197.558 196.092 197.09 194.892C196.646 196.188 195.698 197.22 194.438 197.736L193.91 196.956C195.518 196.332 196.598 194.796 196.598 193.104V191.724H197.582V193.104C197.582 194.688 198.626 196.164 200.174 196.776ZM196.826 200.844H203.018V201.648H195.842V198.348H196.826V200.844ZM212.617 192.108V192.852H206.437V192.108H209.041V191.052H210.025V192.108H212.617ZM207.949 194.844C207.949 195.408 208.561 195.768 209.533 195.768C210.481 195.768 211.105 195.408 211.105 194.844C211.105 194.28 210.481 193.932 209.533 193.932C208.561 193.932 207.949 194.28 207.949 194.844ZM212.941 196.908L213.013 197.616C210.709 198.012 208.165 198.024 206.281 198.036L206.173 197.244C207.025 197.244 208.009 197.244 209.041 197.208V196.428C207.793 196.308 207.013 195.732 207.013 194.844C207.013 193.86 208.009 193.248 209.533 193.248C211.033 193.248 212.041 193.86 212.041 194.844C212.041 195.72 211.261 196.296 210.025 196.428V197.172C211.009 197.124 212.005 197.052 212.941 196.908ZM207.481 199.668V198.888H214.561V201.888H213.577V199.668H207.481ZM216.133 194.388V195.204H214.561V198.348H213.577V191.136H214.561V194.388H216.133ZM225.392 191.136V198.996H224.408V191.136H225.392ZM217.772 194.52C217.772 195.588 218.564 196.332 219.608 196.332C220.676 196.332 221.468 195.588 221.468 194.52C221.468 193.476 220.676 192.732 219.608 192.732C218.564 192.732 217.772 193.476 217.772 194.52ZM222.428 194.52C222.428 196.08 221.216 197.184 219.608 197.184C218.012 197.184 216.812 196.08 216.812 194.52C216.812 192.972 218.012 191.88 219.608 191.88C221.216 191.88 222.428 192.972 222.428 194.52ZM219.452 200.844H225.716V201.648H218.468V198.192H219.452V200.844ZM235.099 196.188L234.583 196.956C233.419 196.524 232.495 195.636 232.015 194.532C231.571 195.792 230.611 196.776 229.351 197.256L228.835 196.476C230.467 195.888 231.511 194.424 231.511 192.78V191.676H232.495V192.864C232.495 194.316 233.551 195.66 235.099 196.188ZM233.815 201.108C235.399 201.108 236.371 200.664 236.371 199.92C236.371 199.164 235.399 198.72 233.815 198.72C232.219 198.72 231.247 199.164 231.247 199.92C231.247 200.664 232.219 201.108 233.815 201.108ZM233.815 197.952C235.999 197.952 237.355 198.66 237.355 199.92C237.355 201.168 235.999 201.876 233.815 201.876C231.619 201.876 230.263 201.168 230.263 199.92C230.263 198.66 231.619 197.952 233.815 197.952ZM237.235 193.908H238.831V194.724H237.235V197.652H236.251V191.136H237.235V193.908ZM240.59 195.984V198.408C242.162 198.408 243.122 198.36 244.274 198.132L244.37 198.948C243.122 199.188 242.09 199.224 240.35 199.224H239.642V192.36H243.89V193.164H240.59V195.204H243.722V195.984H240.59ZM247.43 191.124H248.366V201.888H247.43V196.248H246.002V201.36H245.066V191.364H246.002V195.444H247.43V191.124ZM250.245 195.204L250.029 192.984L250.005 191.748H251.157L251.133 192.984L250.917 195.204H250.245ZM252.777 192.276H257.697C257.697 195.336 256.293 198.108 252.813 199.848L252.273 199.08C255.021 197.7 256.497 195.636 256.725 193.092H252.777V192.276ZM262.209 195.492V196.308H260.481V201.888H259.497V191.124H260.481V195.492H262.209ZM269.887 199.692H274.291V200.496H264.511V199.692H268.903V196.812H265.711V192.048H266.695V196.02H273.175V196.812H269.887V199.692ZM275.667 195.42L275.379 194.676C277.371 194.544 279.015 193.884 279.183 192.816H275.859V192.072H279.243V191.052H280.227V192.072H283.599V192.816H280.287C280.455 193.884 282.075 194.544 284.079 194.676L283.779 195.42C281.979 195.276 280.395 194.724 279.735 193.728C279.075 194.724 277.479 195.276 275.667 195.42ZM284.583 196.656H280.227V197.652H283.347V200.004H277.023V201.024H283.671V201.768H276.063V199.296H282.375V198.384H276.027V197.652H279.231V196.656H274.875V195.9H284.583V196.656ZM292.174 195.912L292.234 196.62C289.894 197.016 287.314 197.052 285.382 197.064L285.238 196.272C286.138 196.272 287.194 196.272 288.274 196.224V195.072H286.21V191.664H291.274V192.468H287.182V194.268H291.382V195.072H289.258V196.188C290.254 196.128 291.238 196.056 292.174 195.912ZM293.062 200.952V199.704H287.962V200.952H293.062ZM293.062 198.936V197.808H294.034V201.744H286.978V197.808H287.962V198.936H293.062ZM293.05 191.136H294.034V197.328H293.05V191.136ZM297.197 192.168V198.264C298.817 198.264 300.485 198.12 302.273 197.76L302.381 198.6C300.509 198.984 298.817 199.104 297.101 199.104H296.213V192.168H297.197ZM303.377 191.124H304.361V201.876H303.377V191.124ZM307.32 192.972V198.384C309.228 198.384 310.608 198.3 312.168 198.024L312.276 198.84C310.632 199.152 309.216 199.224 307.188 199.224H306.336V192.156H311.34V192.972H307.32ZM315.936 195.372V196.188H314.16V201.912H313.176V191.124H314.16V195.372H315.936ZM317.251 201.156C316.819 201.156 316.459 200.82 316.459 200.328C316.459 199.824 316.819 199.476 317.251 199.476C317.683 199.476 318.043 199.824 318.043 200.328C318.043 200.82 317.683 201.156 317.251 201.156Z" fill="black"/>
<g clip-path="url(#clip0_4728_224)">
<path d="M29 86L51 65H105V141H29V86Z" fill="#6A63F5" fill-opacity="0.73"/>
<path d="M51.2227 81.1921C51.2227 83.9536 48.9841 86.1921 46.2227 86.1921H29.0004L51.2227 65.0001V81.1921Z" fill="#6A63F5"/>
<path d="M53.8877 128V122.4H55.0877L55.1977 123.14H55.2277C55.7177 122.66 56.2877 122.26 57.0477 122.26C58.2577 122.26 58.7777 123.1 58.7777 124.51V128H57.3077V124.69C57.3077 123.82 57.0677 123.52 56.5177 123.52C56.0577 123.52 55.7677 123.74 55.3577 124.15V128H53.8877ZM67.5839 119.65V124.26H66.2539V119.65H67.5839ZM61.3439 122.02C61.3439 122.68 61.8539 123.06 62.5339 123.06C63.2139 123.06 63.7039 122.68 63.7039 122.02C63.7039 121.37 63.2139 120.98 62.5339 120.98C61.8539 120.98 61.3439 121.37 61.3439 122.02ZM64.9839 122.02C64.9839 123.25 63.9339 124.13 62.5339 124.13C61.1239 124.13 60.0639 123.25 60.0639 122.02C60.0639 120.8 61.1239 119.92 62.5339 119.92C63.9339 119.92 64.9839 120.8 64.9839 122.02ZM62.7639 127.73H67.8139V128.75H61.4539V126.21H66.2739V125.65H61.4439V124.64H67.5839V127.15H62.7639V127.73ZM72.4631 122.2V122.52C72.4631 123.82 73.1131 125.31 74.5531 126L73.8531 127C72.8731 126.55 72.2031 125.69 71.8231 124.67C71.4231 125.77 70.7131 126.7 69.6831 127.16L68.9731 126.15C70.4631 125.46 71.1531 123.9 71.1531 122.52V122.2H69.2831V121.15H71.1531V119.87H72.4731V121.15H74.2931V122.2H72.4631ZM77.6831 123.23V124.32H76.3431V128.86H75.0231V119.66H76.3431V123.23H77.6831Z" fill="white"/>
<path d="M62.6211 107.168C61.8945 107.168 61.2891 106.879 60.8047 106.301L54.7578 98.9766C54.5469 98.7344 54.3984 98.5 54.3125 98.2734C54.2266 98.0469 54.1836 97.8125 54.1836 97.5703C54.1836 97.0156 54.3672 96.5586 54.7344 96.1992C55.1094 95.832 55.5781 95.6484 56.1406 95.6484C56.7656 95.6484 57.2852 95.9023 57.6992 96.4102L62.5742 102.445L72.1484 87.3164C72.3906 86.9492 72.6406 86.6914 72.8984 86.543C73.1641 86.3867 73.4883 86.3086 73.8711 86.3086C74.4336 86.3086 74.8984 86.4883 75.2656 86.8477C75.6328 87.207 75.8164 87.6602 75.8164 88.207C75.8164 88.4102 75.7812 88.6211 75.7109 88.8398C75.6406 89.0586 75.5312 89.2852 75.3828 89.5195L64.4727 106.219C64.043 106.852 63.4258 107.168 62.6211 107.168Z" fill="white" fill-opacity="0.55"/>
</g>
<g clip-path="url(#clip1_4728_224)">
<path d="M130 86L152 65H206V141H130V86Z" fill="#D9D9D9" fill-opacity="0.73"/>
<path d="M152.223 81.1921C152.223 83.9536 149.984 86.1921 147.223 86.1921H130L152.223 65.0001V81.1921Z" fill="#D9D9D9"/>
<path d="M154.888 128V122.4H156.088L156.198 123.14H156.228C156.718 122.66 157.288 122.26 158.048 122.26C159.258 122.26 159.778 123.1 159.778 124.51V128H158.308V124.69C158.308 123.82 158.068 123.52 157.518 123.52C157.058 123.52 156.768 123.74 156.358 124.15V128H154.888ZM168.584 119.65V124.26H167.254V119.65H168.584ZM162.344 122.02C162.344 122.68 162.854 123.06 163.534 123.06C164.214 123.06 164.704 122.68 164.704 122.02C164.704 121.37 164.214 120.98 163.534 120.98C162.854 120.98 162.344 121.37 162.344 122.02ZM165.984 122.02C165.984 123.25 164.934 124.13 163.534 124.13C162.124 124.13 161.064 123.25 161.064 122.02C161.064 120.8 162.124 119.92 163.534 119.92C164.934 119.92 165.984 120.8 165.984 122.02ZM163.764 127.73H168.814V128.75H162.454V126.21H167.274V125.65H162.444V124.64H168.584V127.15H163.764V127.73ZM173.463 122.2V122.52C173.463 123.82 174.113 125.31 175.553 126L174.853 127C173.873 126.55 173.203 125.69 172.823 124.67C172.423 125.77 171.713 126.7 170.683 127.16L169.973 126.15C171.463 125.46 172.153 123.9 172.153 122.52V122.2H170.283V121.15H172.153V119.87H173.473V121.15H175.293V122.2H173.463ZM178.683 123.23V124.32H177.343V128.86H176.023V119.66H177.343V123.23H178.683Z" fill="white"/>
<path d="M160.094 108.352C158.916 108.352 158.072 107.596 158.072 106.541C158.072 106.031 158.248 105.627 158.617 105.1L163.346 98.7012L158.688 92.2676C158.371 91.8457 158.213 91.4062 158.213 90.8965C158.213 89.8242 159.127 88.998 160.322 88.998C161.184 88.998 161.623 89.2969 162.186 90.1758L166.07 95.9062H166.158L169.955 90.2109C170.518 89.3496 170.992 88.998 171.766 88.998C172.996 88.998 173.857 89.7715 173.857 90.8613C173.857 91.3711 173.699 91.8105 173.312 92.3203L168.672 98.5781L173.33 105.082C173.646 105.539 173.805 105.961 173.805 106.418C173.805 107.578 172.891 108.352 171.713 108.352C170.904 108.352 170.43 108.018 169.973 107.314L165.947 101.32H165.859L161.852 107.244C161.307 108.088 160.832 108.352 160.094 108.352Z" fill="white" fill-opacity="0.55"/>
</g>
<rect x="193" y="253" width="32" height="20" rx="5" fill="#E3E3E3"/>
<path d="M206.327 258.1H207.323V266.056H206.327V258.1ZM207.011 261.376H208.931V262.204H207.011V261.376ZM200.567 267.88H207.815V268.696H200.567V267.88ZM200.567 265.288H201.563V268.072H200.567V265.288ZM199.355 258.868H200.339V260.68H203.399V258.868H204.371V264.244H199.355V258.868ZM200.339 261.46V263.44H203.399V261.46H200.339ZM217.17 258.076H218.166V268.948H217.17V258.076ZM215.034 260.56H217.434V261.376H215.034V260.56ZM209.646 265.588H210.45C212.13 265.588 213.51 265.54 215.166 265.276L215.262 266.104C213.558 266.368 212.166 266.428 210.45 266.428H209.646V265.588ZM209.622 259.06H214.362V262.948H210.63V265.78H209.646V262.132H213.378V259.888H209.622V259.06ZM214.962 263.524H217.362V264.34H214.962V263.524Z" fill="#909090"/>
<rect x="24" y="253" width="32" height="20" rx="5" fill="#E3E3E3"/>
<path d="M32.7789 259.636H33.5829V261.4C33.5829 263.692 32.2029 265.996 30.4749 266.848L29.8989 266.056C31.4709 265.312 32.7789 263.272 32.7789 261.4V259.636ZM32.9709 259.636H33.7749V261.4C33.7749 263.236 35.0829 265.108 36.6789 265.792L36.1149 266.584C34.3629 265.768 32.9709 263.656 32.9709 261.4V259.636ZM30.2589 259.192H36.3189V260.032H30.2589V259.192ZM37.7829 258.088H38.7789V268.936H37.7829V258.088ZM47.666 258.088H48.662V264.448H47.666V258.088ZM48.386 260.824H50.27V261.664H48.386V260.824ZM44.666 258.784H45.71C45.71 261.52 43.802 263.476 40.634 264.34L40.226 263.56C43.034 262.792 44.666 261.22 44.666 259.216V258.784ZM40.706 258.784H45.218V259.588H40.706V258.784ZM41.618 264.952H48.662V268.936H47.666V265.756H41.618V264.952Z" fill="#909090"/>
<rect x="65" y="253" width="55" height="20" rx="5" fill="#FFE81D" fill-opacity="0.22"/>
<path d="M79.0816 263.176H80.0776V264.568H79.0816V263.176ZM83.6536 258.1H84.6496V265.372H83.6536V258.1ZM84.2296 261.376H86.2336V262.204H84.2296V261.376ZM76.3096 265.06L76.1776 264.244C78.1216 264.244 80.7616 264.244 83.0056 263.92L83.0896 264.628C80.7736 265.036 78.2056 265.048 76.3096 265.06ZM77.5216 265.912H84.6496V268.936H83.6536V266.704H77.5216V265.912ZM76.4536 259.072H82.6816V259.816H76.4536V259.072ZM79.5736 260.236C81.0976 260.236 82.0936 260.848 82.0936 261.844C82.0936 262.84 81.0976 263.452 79.5736 263.452C78.0376 263.452 77.0416 262.84 77.0416 261.844C77.0416 260.848 78.0376 260.236 79.5736 260.236ZM79.5736 260.92C78.6016 260.92 77.9776 261.268 77.9776 261.844C77.9776 262.396 78.6016 262.756 79.5736 262.756C80.5336 262.756 81.1576 262.396 81.1576 261.844C81.1576 261.268 80.5336 260.92 79.5736 260.92ZM79.0816 258.004H80.0776V259.432H79.0816V258.004ZM94.4727 258.1H95.4807V266.02H94.4727V258.1ZM88.5087 267.88H95.8047V268.696H88.5087V267.88ZM88.5087 265.204H89.4927V268.156H88.5087V265.204ZM89.6607 258.844C91.2807 258.844 92.4807 259.948 92.4807 261.52C92.4807 263.08 91.2807 264.196 89.6607 264.196C88.0407 264.196 86.8287 263.08 86.8287 261.52C86.8287 259.948 88.0407 258.844 89.6607 258.844ZM89.6607 259.708C88.6047 259.708 87.8007 260.452 87.8007 261.52C87.8007 262.576 88.6047 263.32 89.6607 263.32C90.7167 263.32 91.5207 262.576 91.5207 261.52C91.5207 260.452 90.7167 259.708 89.6607 259.708ZM103.303 263.512H104.299V265.408H103.303V263.512ZM98.8993 263.164H108.703V263.968H98.8993V263.164ZM103.795 265.108C106.123 265.108 107.515 265.792 107.515 267.016C107.515 268.228 106.123 268.912 103.795 268.912C101.467 268.912 100.075 268.228 100.075 267.016C100.075 265.792 101.467 265.108 103.795 265.108ZM103.795 265.876C102.103 265.876 101.083 266.284 101.083 267.016C101.083 267.736 102.103 268.144 103.795 268.144C105.499 268.144 106.507 267.736 106.507 267.016C106.507 266.284 105.499 265.876 103.795 265.876ZM103.159 258.976H104.047V259.3C104.047 261.052 102.055 262.228 99.8113 262.504L99.4513 261.712C101.395 261.508 103.159 260.536 103.159 259.3V258.976ZM103.579 258.976H104.455V259.3C104.455 260.536 106.219 261.508 108.163 261.712L107.803 262.504C105.559 262.228 103.579 261.052 103.579 259.3V258.976ZM99.7993 258.58H107.827V259.384H99.7993V258.58Z" fill="#D3CB00"/>
<path d="M30.13 46.5V48.42H29.35V43.94H30.13V45.83H31.31V43.78H32.1V48.49H31.31V46.5H30.13ZM25.03 44.28H28.52C28.52 46.39 27.42 47.96 25.02 48.87L24.65 48.27C25.87 47.83 26.7 47.2 27.19 46.45L24.74 46.7L24.61 46.04L27.49 45.85C27.6 45.56 27.67 45.26 27.7 44.94H25.03V44.28ZM27.01 51.98H32.44V52.62H26.2V50.4H31.29V49.55H26.18V48.91H32.1V51.01H27.01V51.98ZM40.3792 43.78V50.38H39.5592V43.78H40.3792ZM38.4892 48.14L38.5692 48.81C37.1392 49.05 35.9392 49.11 34.2192 49.11H33.4992V46.38H36.7392V45.07H33.4692V44.41H37.5492V47H34.2992V48.44C35.9392 48.44 37.1092 48.38 38.4892 48.14ZM35.3492 51.87H40.6292V52.54H34.5292V49.87H35.3492V51.87ZM42.7984 45.3V49.85C44.3884 49.85 45.4384 49.79 46.6484 49.56L46.7484 50.24C45.4484 50.48 44.3684 50.54 42.6684 50.54H41.9784V44.62H46.0584V45.3H42.7984ZM48.0984 43.77H48.9184V52.76H48.0984V47.7H45.5284V47.02H48.0984V43.77ZM53.954 49.99C54.814 49.99 55.424 49.05 55.424 47.59C55.424 46.14 54.814 45.2 53.954 45.2C53.084 45.2 52.474 46.14 52.474 47.59C52.474 49.05 53.084 49.99 53.954 49.99ZM53.954 44.46C55.274 44.46 56.204 45.68 56.204 47.59C56.204 49.5 55.274 50.72 53.954 50.72C52.634 50.72 51.694 49.5 51.694 47.59C51.694 45.68 52.634 44.46 53.954 44.46ZM59.944 47.35V48.04H58.464V52.74H57.644V43.78H58.464V47.35H59.944ZM66.5832 43.77H67.4032V52.76H66.5832V43.77ZM62.6732 44.46C64.0032 44.46 64.9532 45.68 64.9532 47.59C64.9532 49.5 64.0032 50.72 62.6732 50.72C61.3432 50.72 60.3932 49.5 60.3932 47.59C60.3932 45.68 61.3432 44.46 62.6732 44.46ZM62.6732 45.2C61.7932 45.2 61.1732 46.14 61.1732 47.59C61.1732 49.05 61.7932 49.99 62.6732 49.99C63.5432 49.99 64.1632 49.05 64.1632 47.59C64.1632 46.14 63.5432 45.2 62.6732 45.2ZM69.3024 46.02L74.8524 45.84C74.8624 45.53 74.8624 45.25 74.8624 44.97V44.87H69.5224V44.2H75.6724V44.97C75.6724 45.8 75.6724 46.7 75.4224 47.93L74.6124 47.87C74.7224 47.34 74.7824 46.88 74.8124 46.46L69.4224 46.71L69.3024 46.02ZM70.4124 49.96V51.93H75.8624V52.6H69.5924V49.96H70.4124ZM72.6824 48.53H76.6624V49.19H68.5724V48.53H71.8624V47.23H72.6824V48.53Z" fill="black" fill-opacity="0.7"/>
<path d="M30.17 228.77V231.08H29.39V225.95H30.17V228.1H31.32V225.78H32.1V231.87H31.32V228.77H30.17ZM27.64 229.9V228.44H25.71V229.9H27.64ZM28.41 226.39V230.56H24.93V226.39H25.71V227.79H27.64V226.39H28.41ZM29.52 231.53V231.82C29.52 232.95 31 233.85 32.59 234.08L32.28 234.71C30.93 234.5 29.65 233.85 29.11 232.88C28.56 233.85 27.29 234.5 25.94 234.71L25.63 234.08C27.22 233.85 28.69 232.95 28.69 231.82V231.53H29.52ZM36.2292 227.37V228.51C36.2292 230.03 37.3092 231.58 38.6292 232.14L38.1692 232.8C37.1292 232.32 36.2492 231.29 35.8192 230.06C35.4092 231.37 34.5292 232.5 33.5092 233.02L33.0292 232.36C34.3192 231.75 35.4092 230.06 35.4092 228.51V227.37H33.3292V226.69H38.3392V227.37H36.2292ZM39.5492 225.78H40.3692V234.74H39.5492V225.78ZM43.8148 229.4L43.5148 228.75C45.0948 228.59 46.5248 227.83 46.5948 226.84H43.8148V226.18H50.4448V226.84H47.6548C47.7248 227.83 49.1648 228.59 50.7348 228.75L50.4448 229.4C48.9648 229.23 47.6248 228.58 47.1248 227.6C46.6248 228.58 45.2848 229.23 43.8148 229.4ZM47.1148 234.1C48.5248 234.1 49.3548 233.77 49.3548 233.18C49.3548 232.6 48.5248 232.27 47.1148 232.27C45.6948 232.27 44.8748 232.6 44.8748 233.18C44.8748 233.77 45.6948 234.1 47.1148 234.1ZM47.1148 231.64C49.0348 231.64 50.1848 232.19 50.1848 233.18C50.1848 234.18 49.0348 234.73 47.1148 234.73C45.1948 234.73 44.0448 234.18 44.0448 233.18C44.0448 232.19 45.1948 231.64 47.1148 231.64ZM47.5248 230.24H51.1748V230.9H43.0648V230.24H46.7048V228.95H47.5248V230.24ZM57.884 227.81V226.78H52.524V226.12H58.714V228.43H53.374V229.53H58.914V230.19H52.554V227.81H57.884ZM59.694 231.12V231.78H57.574V234.75H56.754V231.78H54.494V234.75H53.674V231.78H51.554V231.12H59.694Z" fill="black" fill-opacity="0.7"/>
<rect x="129" y="253" width="55" height="20" rx="5" fill="#928DF8" fill-opacity="0.22"/>
<path d="M137.912 263.176H138.908V264.568H137.912V263.176ZM142.484 258.1H143.48V265.372H142.484V258.1ZM143.06 261.376H145.064V262.204H143.06V261.376ZM135.14 265.06L135.008 264.244C136.952 264.244 139.592 264.244 141.836 263.92L141.92 264.628C139.604 265.036 137.036 265.048 135.14 265.06ZM136.352 265.912H143.48V268.936H142.484V266.704H136.352V265.912ZM135.284 259.072H141.512V259.816H135.284V259.072ZM138.404 260.236C139.928 260.236 140.924 260.848 140.924 261.844C140.924 262.84 139.928 263.452 138.404 263.452C136.868 263.452 135.872 262.84 135.872 261.844C135.872 260.848 136.868 260.236 138.404 260.236ZM138.404 260.92C137.432 260.92 136.808 261.268 136.808 261.844C136.808 262.396 137.432 262.756 138.404 262.756C139.364 262.756 139.988 262.396 139.988 261.844C139.988 261.268 139.364 260.92 138.404 260.92ZM137.912 258.004H138.908V259.432H137.912V258.004ZM153.303 258.1H154.311V266.02H153.303V258.1ZM147.339 267.88H154.635V268.696H147.339V267.88ZM147.339 265.204H148.323V268.156H147.339V265.204ZM148.491 258.844C150.111 258.844 151.311 259.948 151.311 261.52C151.311 263.08 150.111 264.196 148.491 264.196C146.871 264.196 145.659 263.08 145.659 261.52C145.659 259.948 146.871 258.844 148.491 258.844ZM148.491 259.708C147.435 259.708 146.631 260.452 146.631 261.52C146.631 262.576 147.435 263.32 148.491 263.32C149.547 263.32 150.351 262.576 150.351 261.52C150.351 260.452 149.547 259.708 148.491 259.708ZM160.538 262.588H161.534V264.232H160.538V262.588ZM161.006 258.58C162.578 258.58 163.682 259.444 163.682 260.728C163.682 262.012 162.578 262.864 161.006 262.864C159.446 262.864 158.342 262.012 158.342 260.728C158.342 259.444 159.446 258.58 161.006 258.58ZM161.006 259.348C159.986 259.348 159.278 259.912 159.278 260.728C159.278 261.556 159.986 262.108 161.006 262.108C162.038 262.108 162.746 261.556 162.746 260.728C162.746 259.912 162.038 259.348 161.006 259.348ZM165.146 258.1H166.142V266.392H165.146V258.1ZM165.722 261.76H167.726V262.588H165.722V261.76ZM159.278 267.868H166.526V268.696H159.278V267.868ZM159.278 265.684H160.274V268.228H159.278V265.684ZM157.85 264.784L157.718 263.968C159.626 263.968 162.266 263.944 164.474 263.608L164.546 264.34C162.278 264.76 159.71 264.784 157.85 264.784ZM170.817 264.448H171.801V267.112H170.817V264.448ZM174.285 264.424H175.257V267.1H174.285V264.424ZM168.081 266.776H177.909V267.604H168.081V266.776ZM169.269 258.892H176.697V262.168H170.289V264.352H169.305V261.376H175.713V259.696H169.269V258.892ZM169.305 263.908H176.949V264.724H169.305V263.908Z" fill="#6A63F5"/>
<path d="M52.9334 148.188V149.16C52.9334 151.032 53.7374 152.904 55.2254 153.744L54.6254 154.464C53.5814 153.84 52.8374 152.688 52.4654 151.32C52.0934 152.796 51.3134 154.056 50.2454 154.728L49.6454 153.996C51.1454 153.096 51.9854 151.14 51.9854 149.16V148.188H49.9454V147.384H54.8534V148.188H52.9334ZM55.8134 149.988V146.364H56.7494V156.324H55.8134V150.792H54.0374V149.988H55.8134ZM57.9734 146.112H58.9214V156.876H57.9734V146.112ZM60.9205 150.42L60.6325 149.676C62.6245 149.544 64.2685 148.884 64.4365 147.816H61.1125V147.072H64.4965V146.052H65.4805V147.072H68.8525V147.816H65.5405C65.7085 148.884 67.3285 149.544 69.3325 149.676L69.0325 150.42C67.2325 150.276 65.6485 149.724 64.9885 148.728C64.3285 149.724 62.7325 150.276 60.9205 150.42ZM69.8365 151.656H65.4805V152.652H68.6005V155.004H62.2765V156.024H68.9245V156.768H61.3165V154.296H67.6285V153.384H61.2805V152.652H64.4845V151.656H60.1285V150.9H69.8365V151.656ZM74.2715 147.06V148.992C74.2715 150.96 75.5555 152.94 77.1515 153.66L76.5635 154.452C75.3395 153.852 74.3075 152.58 73.7915 151.044C73.2995 152.664 72.2675 154.008 71.0075 154.656L70.4075 153.852C71.9915 153.096 73.2995 151.032 73.2995 148.992V147.06H74.2715ZM78.2795 146.124H79.2635V156.912H78.2795V146.124Z" fill="black" fill-opacity="0.7"/>
<path d="M134.58 151.44V149.472H131.532V151.44H134.58ZM135.54 146.904V152.232H130.56V146.904H131.532V148.704H134.58V146.904H135.54ZM132.756 153.276V155.844H138.948V156.648H131.772V153.276H132.756ZM138.468 149.388H140.052V150.216H138.468V154.032H137.484V146.136H138.468V149.388ZM141.823 150.948V153.576C143.407 153.576 144.727 153.504 146.335 153.252L146.419 154.068C144.727 154.332 143.347 154.392 141.667 154.392H140.851V150.144H144.559V147.888H140.827V147.096H145.531V150.948H141.823ZM148.327 146.112H149.311V156.9H148.327V152.328H146.131V151.524H148.327V149.376H146.203V148.572H148.327V146.112ZM161.597 146.124V152.304H160.613V146.124H161.597ZM157.409 150.432V147.6H154.301V150.432H157.409ZM158.369 146.82V151.224H153.341V146.82H158.369ZM161.849 153.792H158.705C158.717 154.824 160.385 155.868 162.233 156.096L161.897 156.852C160.277 156.624 158.837 155.88 158.201 154.884C157.553 155.904 156.065 156.624 154.445 156.852L154.121 156.096C155.957 155.88 157.673 154.86 157.685 153.792H154.541V153.036H157.697V151.992H158.693V153.036H161.849V153.792ZM165.724 147.18H170.668V154.176H165.724V147.18ZM169.708 147.972H166.684V153.396H169.708V147.972ZM172.924 146.124H173.908V156.912H172.924V146.124ZM178.595 148.188V149.16C178.595 151.032 179.399 152.904 180.887 153.744L180.287 154.464C179.243 153.84 178.499 152.688 178.127 151.32C177.755 152.796 176.975 154.056 175.907 154.728L175.307 153.996C176.807 153.096 177.647 151.14 177.647 149.16V148.188H175.607V147.384H180.515V148.188H178.595ZM181.475 149.988V146.364H182.411V156.324H181.475V150.792H179.699V149.988H181.475ZM183.635 146.112H184.583V156.876H183.635V146.112ZM186.582 150.42L186.294 149.676C188.286 149.544 189.93 148.884 190.098 147.816H186.774V147.072H190.158V146.052H191.142V147.072H194.514V147.816H191.202C191.37 148.884 192.99 149.544 194.994 149.676L194.694 150.42C192.894 150.276 191.31 149.724 190.65 148.728C189.99 149.724 188.394 150.276 186.582 150.42ZM195.498 151.656H191.142V152.652H194.262V155.004H187.938V156.024H194.586V156.768H186.978V154.296H193.29V153.384H186.942V152.652H190.146V151.656H185.79V150.9H195.498V151.656ZM199.933 147.06V148.992C199.933 150.96 201.217 152.94 202.813 153.66L202.225 154.452C201.001 153.852 199.969 152.58 199.453 151.044C198.961 152.664 197.929 154.008 196.669 154.656L196.069 153.852C197.653 153.096 198.961 151.032 198.961 148.992V147.06H199.933ZM203.941 146.124H204.925V156.912H203.941V146.124Z" fill="black" fill-opacity="0.7"/>
<defs>
<clipPath id="clip0_4728_224">
<rect x="29" y="65" width="72" height="72" rx="5" fill="white"/>
</clipPath>
<clipPath id="clip1_4728_224">
<rect x="130" y="65" width="72" height="72" rx="5" fill="white"/>
</clipPath>
</defs>
</svg>
