<svg width="155" height="116" viewBox="0 0 155 116" fill="none" xmlns="http://www.w3.org/2000/svg">
<g clip-path="url(#clip0_16967_6456)">
<rect width="154.358" height="115.63" fill="#EDEEFE"/>
<path d="M77.1095 140.38C71.2285 143.634 60.4757 136.98 50.0707 124.667C53.3657 134.603 53.2488 142.532 49.0563 144.853C44.3305 147.468 35.7548 142.221 27.5139 132.482C28.8012 138.678 27.856 143.692 24.4985 145.55C18.9268 148.633 8.82207 141.856 1.92892 130.413C-4.96423 118.97 -6.0355 107.194 -0.463833 104.11C2.8936 102.252 7.89707 103.975 12.8519 108.142C8.17158 96.4309 7.71905 86.6891 12.4449 84.074C16.6375 81.754 23.8605 85.6216 31.1916 93.3253C25.2683 78.5322 24.6322 66.2799 30.5132 63.0256C38.4727 58.6211 55.3561 72.3669 68.2233 93.7277C81.0905 115.089 85.069 135.976 77.1095 140.38Z" fill="#F5F6FF"/>
<path d="M163.141 49.3781C157.26 52.6325 146.507 45.9781 136.102 33.6646C139.397 43.6014 139.281 51.5305 135.088 53.8506C130.362 56.4656 121.787 51.2194 113.546 41.4796C114.833 47.6758 113.888 52.6903 110.53 54.5483C104.959 57.6315 94.8538 50.8542 87.9607 39.4109C81.0675 27.9676 79.9962 16.1916 85.5679 13.1084C88.9253 11.2505 93.9288 12.9731 98.8837 17.1396C94.2033 5.42894 93.7508 -4.31281 98.4766 -6.92792C102.669 -9.24798 109.892 -5.38031 117.223 2.32338C111.3 -12.4698 110.664 -24.722 116.545 -27.9763C124.504 -32.3809 141.388 -18.6351 154.255 2.72579C167.122 24.0866 171.101 44.9736 163.141 49.3781Z" fill="#F5F6FF"/>
</g>
<defs>
<clipPath id="clip0_16967_6456">
<rect width="154.358" height="115.63" fill="white"/>
</clipPath>
</defs>
</svg>
