<svg width="232" height="144" viewBox="0 0 232 144" fill="none" xmlns="http://www.w3.org/2000/svg">
<rect y="68.8281" width="249" height="88" rx="4" transform="rotate(-16 0 68.8281)" fill="white"/>
<path d="M61.2226 104.017C63.5655 112.188 58.7298 118.724 51.3761 120.832C47.0985 122.059 42.0371 122.366 38.8823 119.89C37.0747 118.483 36.5227 115.833 37.7434 113.922C38.7446 112.335 40.6671 111.784 42.2193 111.755C43.2014 111.733 44.1291 112.247 44.7542 112.432C46.0526 112.788 47.2337 112.553 48.6756 112.14C51.0787 111.451 52.4638 109.025 51.7196 106.43C50.9202 103.642 47.8838 102.848 44.7116 103.758L42.4046 104.419C41.0108 104.819 39.3204 104.003 38.5981 102.754C37.6694 101.148 37.6404 99.5958 38.8473 97.6372L44.3472 88.8821L34.8787 91.5971C32.043 92.4103 30.3312 90.6125 29.7937 88.738C29.27 86.9116 29.7895 84.37 32.5772 83.5706L47.5248 79.2844C52.7156 77.796 56.4227 83.2869 54.0916 87.4924L49.2784 96.1026C53.838 95.3153 59.4999 98.009 61.2226 104.017ZM81.7739 112.22C74.18 114.398 67.0621 111.705 64.6227 103.198L60.5846 89.1155C58.159 80.6564 62.7548 74.5532 70.3488 72.3757C77.9427 70.1981 85.0744 72.9386 87.5 81.3977L91.5381 95.4801C93.9775 103.987 89.3679 110.042 81.7739 112.22ZM79.431 104.049C81.1132 103.567 82.9524 101.999 82.0703 98.9232L77.6463 83.4949C76.7919 80.515 74.3739 80.064 72.6917 80.5464C71.0095 81.0288 69.1979 82.6926 70.0524 85.6725L74.4764 101.101C75.3584 104.177 77.7488 104.532 79.431 104.049ZM111.976 103.56C104.382 105.737 97.2645 103.045 94.8251 94.5376L90.787 80.4551C88.3614 71.996 92.9572 65.8928 100.551 63.7153C108.145 61.5377 115.277 64.2782 117.702 72.7373L121.74 86.8197C124.18 95.3269 119.57 101.382 111.976 103.56ZM109.633 95.3888C111.316 94.9065 113.155 93.3388 112.273 90.2628L107.849 74.8345C106.994 71.8546 104.576 71.4036 102.894 71.886C101.212 72.3684 99.4003 74.0322 100.255 77.0121L104.679 92.4403C105.561 95.5164 107.951 95.8712 109.633 95.3888ZM142.179 94.8992C134.585 97.0767 127.467 94.3844 125.028 85.8772L120.989 71.7947C118.564 63.3356 123.16 57.2324 130.754 55.0549C138.348 52.8773 145.479 55.6178 147.905 64.0769L151.943 78.1593C154.382 86.6665 149.773 92.7216 142.179 94.8992ZM139.836 86.7285C141.518 86.2461 143.357 84.6784 142.475 81.6024L138.051 66.1741C137.197 63.1942 134.779 62.7432 133.096 63.2256C131.414 63.708 129.603 65.3718 130.457 68.3517L134.881 83.7799C135.763 86.856 138.154 87.2108 139.836 86.7285ZM172.381 86.2388C164.787 88.4163 157.669 85.724 155.23 77.2168L151.192 63.1343C148.766 54.6752 153.362 48.572 160.956 46.3945C168.55 44.2169 175.682 46.9574 178.107 55.4165L182.145 69.4989C184.585 78.0061 179.975 84.0612 172.381 86.2388ZM170.038 78.0681C171.72 77.5857 173.56 76.018 172.678 72.942L168.254 57.5137C167.399 54.5338 164.981 54.0828 163.299 54.5652C161.617 55.0476 159.805 56.7114 160.66 59.6913L165.084 75.1195C165.966 78.1956 168.356 78.5504 170.038 78.0681ZM180.306 58.843C179.893 57.4011 180.29 55.8829 182.453 55.2627L184.279 54.739L180.343 46.8171C178.974 44.0368 179.534 41.6393 181.779 40.5795C184.12 39.4921 186.401 39.8265 187.722 42.6205L192.306 52.4374L197.256 51.0179L196.737 40.1394C196.57 37.0147 198.862 35.577 200.641 35.0671C202.419 34.5572 205.125 34.5615 206.638 37.3004L211.915 46.8144L216.914 45.3811L215.599 34.627C215.239 31.5574 216.995 30.0653 219.557 29.747C221.974 29.4699 223.72 31.2059 224.019 34.2413L224.844 43.1071L226.719 42.5696C228.882 41.9494 230.023 43.0266 230.436 44.4685C230.85 45.9104 230.446 47.5866 228.331 48.193L225.447 49.0199L226.939 64.1969C227.237 67.2322 225.57 69.5827 223.462 70.3951C221.21 71.2489 218.291 71.0457 216.613 68.094L208.77 53.8022L203.675 55.2631L204.597 71.5395C204.738 74.9321 202.37 76.6514 200.008 77.1207C197.79 77.5486 195.131 76.4385 193.775 73.7063L186.949 60.0592L184.065 60.8861C181.95 61.4925 180.72 60.2849 180.306 58.843ZM194.783 57.8128L197.976 64.5953L197.571 57.0134L194.783 57.8128ZM214.825 52.0657L218.534 58.6486L217.613 51.2664L214.825 52.0657ZM202.983 43.2378L203.312 49.2814L205.859 48.551L202.983 43.2378Z" fill="#DFE2FF"/>
</svg>
