<svg width="240" height="143" viewBox="0 0 240 143" fill="none" xmlns="http://www.w3.org/2000/svg">
<rect y="68.6338" width="249" height="88" rx="4" transform="rotate(-16 0 68.6338)" fill="white"/>
<path d="M61.2226 103.823C63.5655 111.993 58.7298 118.529 51.3761 120.638C47.0985 121.865 42.0371 122.172 38.8823 119.695C37.0747 118.289 36.5227 115.639 37.7434 113.728C38.7446 112.141 40.6671 111.589 42.2193 111.56C43.2014 111.539 44.1291 112.053 44.7542 112.238C46.0526 112.594 47.2337 112.359 48.6756 111.946C51.0787 111.257 52.4638 108.831 51.7196 106.235C50.9202 103.448 47.8838 102.654 44.7116 103.564L42.4046 104.225C41.0108 104.625 39.3204 103.809 38.5981 102.56C37.6694 100.954 37.6404 99.4014 38.8473 97.4429L44.3472 88.6878L34.8787 91.4028C32.043 92.2159 30.3312 90.4181 29.7937 88.5437C29.27 86.7173 29.7895 84.1756 32.5772 83.3763L47.5248 79.0901C52.7156 77.6017 56.4227 83.0926 54.0916 87.298L49.2784 95.9083C53.838 95.1209 59.4999 97.8147 61.2226 103.823ZM81.7739 112.026C74.18 114.203 67.0621 111.511 64.6227 103.004L60.5846 88.9212C58.159 80.4621 62.7548 74.3589 70.3488 72.1813C77.9427 70.0038 85.0744 72.7442 87.5 81.2033L91.5381 95.2858C93.9775 103.793 89.3679 109.848 81.7739 112.026ZM79.431 103.855C81.1132 103.373 82.9524 101.805 82.0703 98.7288L77.6463 83.3006C76.7919 80.3207 74.3739 79.8697 72.6917 80.3521C71.0095 80.8344 69.1979 82.4982 70.0524 85.4781L74.4764 100.906C75.3584 103.982 77.7488 104.337 79.431 103.855ZM111.976 103.365C104.382 105.543 97.2645 102.85 94.8251 94.3433L90.787 80.2608C88.3614 71.8017 92.9572 65.6985 100.551 63.5209C108.145 61.3434 115.277 64.0838 117.702 72.5429L121.74 86.6254C124.18 95.1326 119.57 101.188 111.976 103.365ZM109.633 95.1945C111.316 94.7121 113.155 93.1445 112.273 90.0684L107.849 74.6402C106.994 71.6603 104.576 71.2093 102.894 71.6917C101.212 72.174 99.4003 73.8378 100.255 76.8177L104.679 92.246C105.561 95.322 107.951 95.6769 109.633 95.1945ZM142.179 94.7048C134.585 96.8824 127.467 94.19 125.028 85.6829L120.989 71.6004C118.564 63.1413 123.16 57.0381 130.754 54.8605C138.348 52.683 145.479 55.4234 147.905 63.8825L151.943 77.965C154.382 86.4722 149.773 92.5273 142.179 94.7048ZM139.836 86.5341C141.518 86.0518 143.357 84.4841 142.475 81.408L138.051 65.9798C137.197 62.9999 134.779 62.5489 133.096 63.0313C131.414 63.5136 129.603 65.1774 130.457 68.1573L134.881 83.5856C135.763 86.6616 138.154 87.0165 139.836 86.5341ZM172.381 86.0444C164.787 88.222 157.669 85.5296 155.23 77.0225L151.192 62.94C148.766 54.4809 153.362 48.3777 160.956 46.2001C168.55 44.0226 175.682 46.763 178.107 55.2221L182.145 69.3046C184.585 77.8118 179.975 83.8669 172.381 86.0444ZM170.038 77.8737C171.72 77.3914 173.56 75.8237 172.678 72.7477L168.254 57.3194C167.399 54.3395 164.981 53.8885 163.299 54.3709C161.617 54.8532 159.805 56.517 160.66 59.4969L165.084 74.9252C165.966 78.0012 168.356 78.3561 170.038 77.8737ZM180.306 58.6487C179.893 57.2068 180.29 55.6886 182.453 55.0684L184.279 54.5447L180.343 46.6227C178.974 43.8425 179.534 41.445 181.779 40.3852C184.12 39.2978 186.401 39.6322 187.722 42.4262L192.306 52.2431L197.256 50.8236L196.737 39.9451C196.57 36.8203 198.862 35.3827 200.641 34.8728C202.419 34.3629 205.125 34.3671 206.638 37.106L211.915 46.6201L216.914 45.1868L215.599 34.4327C215.239 31.363 216.995 29.871 219.557 29.5526C221.974 29.2756 223.72 31.0116 224.019 34.0469L224.844 42.9128L226.719 42.3753C228.882 41.7551 230.023 42.8323 230.436 44.2742C230.85 45.7161 230.446 47.3923 228.331 47.9987L225.447 48.8256L226.939 64.0025C227.237 67.0379 225.57 69.3884 223.462 70.2008C221.21 71.0546 218.291 70.8513 216.613 67.8997L208.77 53.6079L203.675 55.0688L204.597 71.3451C204.738 74.7378 202.37 76.4571 200.008 76.9263C197.79 77.3543 195.131 76.2442 193.775 73.512L186.949 59.8649L184.065 60.6918C181.95 61.2982 180.72 60.0906 180.306 58.6487ZM194.783 57.6184L197.976 64.401L197.571 56.8191L194.783 57.6184ZM214.825 51.8714L218.534 58.4543L217.613 51.072L214.825 51.8714ZM202.983 43.0435L203.312 49.0871L205.859 48.3566L202.983 43.0435Z" fill="#C3EEFF"/>
</svg>
