<svg width="177" height="143" viewBox="0 0 177 143" fill="none" xmlns="http://www.w3.org/2000/svg">
<g clip-path="url(#clip0_11035_15862)">
<rect y="70.3535" width="163" height="156" rx="2" transform="rotate(-25.5449 0 70.3535)" fill="#EFEFEF"/>
<path d="M74.7468 92.823L78.7989 94.8694L81.5289 96.0974L88.4043 99.5221L83.9283 101.661L79.2864 99.3772L77.2359 98.2574L70.5881 94.8106L74.7468 92.823ZM81.8529 84.2746C83.1331 86.9532 83.7425 89.5266 83.6811 91.9949C83.6258 94.4458 82.9638 96.6238 81.6952 98.529C80.421 100.422 78.6619 101.905 76.4181 102.978C74.1742 104.05 71.9154 104.488 69.6418 104.29C67.3742 104.075 65.2608 103.216 63.3016 101.713C61.3424 100.211 59.7255 98.1262 58.4509 95.4594C57.1595 92.7573 56.5473 90.178 56.6143 87.7215C56.6814 85.2649 57.3461 83.0928 58.6086 81.205C59.8828 79.3116 61.6419 77.8286 63.8858 76.7562C66.1296 75.6838 68.3884 75.2464 70.6621 75.4442C72.9357 75.6419 75.0435 76.489 76.9854 77.9854C78.939 79.4762 80.5615 81.5726 81.8529 84.2746ZM77.2536 86.4728C76.344 84.5696 75.2668 83.0857 74.0219 82.0211C72.7888 80.9508 71.4721 80.3245 70.0717 80.1424C68.6831 79.9546 67.2781 80.2004 65.8566 80.8798C64.4586 81.5479 63.3848 82.4869 62.6352 83.6966C61.8974 84.9006 61.5518 86.3214 61.5984 87.9587C61.6567 89.5905 62.1406 91.358 63.0502 93.2612C63.9598 95.1643 65.0312 96.6511 66.2643 97.7213C67.5092 98.786 68.8318 99.4094 70.2321 99.5916C71.6442 99.7682 73.0492 99.5224 74.4473 98.8542C75.8688 98.1748 76.9426 97.2359 77.6686 96.0374C78.4064 94.8333 78.7461 93.4154 78.6878 91.7837C78.6413 90.1463 78.1632 88.376 77.2536 86.4728Z" fill="white"/>
<path d="M99.5256 91.9554C97.8456 92.7584 96.2166 93.1545 94.6384 93.1439C93.0721 93.1276 91.684 92.7447 90.4743 91.9952C89.2708 91.2283 88.349 90.1752 87.7089 88.8359C87.2316 87.8374 87.0074 86.8549 87.0362 85.8887C87.0712 84.905 87.284 83.9158 87.6744 82.921C88.0649 81.9263 88.6295 80.7977 89.3683 79.5354L92.4233 74.287C92.9036 73.4802 93.19 72.7661 93.2826 72.1445C93.3814 71.5057 93.2819 70.8749 92.9844 70.2523C92.7991 69.8646 92.5165 69.545 92.1366 69.2937C91.7628 69.0249 91.3256 68.8803 90.8251 68.8597C90.319 68.8274 89.8075 68.9348 89.2906 69.1818C88.7619 69.4345 88.3451 69.7853 88.0401 70.2341C87.7351 70.6829 87.5633 71.1691 87.5249 71.6926C87.4865 72.2161 87.5795 72.7128 87.8041 73.1827C88.0231 73.6408 88.3767 74.0636 88.8648 74.4508C89.353 74.8381 89.8942 75.1855 90.4886 75.4931C91.083 75.8007 91.8827 76.1906 92.8877 76.6628C93.165 76.79 93.4423 76.9173 93.7195 77.0445L112.389 85.3529L107.543 87.669L92.1634 81.0354C91.6777 80.8345 91.2327 80.6431 90.8282 80.4612C89.5919 79.8976 88.5614 79.3871 87.7367 78.9298C86.912 78.4725 86.153 77.9261 85.4596 77.2905C84.7606 76.6433 84.2034 75.885 83.7879 75.0156C83.2151 73.8173 82.9775 72.6104 83.0748 71.3949C83.1783 70.1621 83.603 69.0427 84.3489 68.0368C85.101 67.0135 86.1408 66.1846 87.4683 65.5501C88.7723 64.9269 90.0354 64.6407 91.2575 64.6916C92.4914 64.7369 93.5833 65.0737 94.533 65.7022C95.4772 66.3188 96.2019 67.1558 96.7073 68.2132C97.2631 69.3762 97.4806 70.5711 97.3598 71.7978C97.2333 73.0128 96.8173 74.3012 96.1116 75.6631L92.7507 81.9019C92.3838 82.5535 92.1253 83.175 91.9749 83.7664C91.8246 84.3578 91.754 84.8894 91.7631 85.3613C91.7783 85.8158 91.8645 86.2076 92.0217 86.5365C92.3418 87.2062 92.81 87.7328 93.4263 88.1166C94.0426 88.5003 94.7407 88.7078 95.5206 88.7392C96.2948 88.7588 97.0873 88.5749 97.8979 88.1874C99.1314 87.5979 100.156 86.661 100.971 85.3767C101.78 84.0807 102.234 82.6008 102.334 80.9369C102.428 79.2613 102.076 77.5893 101.279 75.9211L105.156 74.0682C105.886 75.5955 106.366 77.0396 106.598 78.4008C106.825 79.7501 106.865 80.9506 106.718 82.0021C106.571 83.0537 106.271 84.0559 105.817 85.0088C105.702 85.2513 105.579 85.4763 105.447 85.6836C105.41 85.7878 105.355 85.9004 105.283 86.0214C105.223 86.1368 105.157 86.255 105.085 86.376C104.604 87.573 103.865 88.6548 102.869 89.6213C101.885 90.5822 100.771 91.3603 99.5256 91.9554Z" fill="white"/>
<path d="M113.038 85.0429L109.829 55.2309L115.486 52.5273L136.669 73.7487L131.77 76.0901L115.248 59.0489L115.036 59.15L117.919 82.7099L113.038 85.0429ZM126.775 66.1818L128.535 69.8648L115.089 76.291L113.329 72.608L126.775 66.1818Z" fill="white"/>
</g>
<defs>
<clipPath id="clip0_11035_15862">
<rect width="177" height="143" fill="white"/>
</clipPath>
</defs>
</svg>
