<svg width="129" height="93" viewBox="0 0 129 93" fill="none" xmlns="http://www.w3.org/2000/svg">
<g clip-path="url(#clip0_11035_15843)">
<rect y="49.9551" width="115.083" height="110.14" rx="2" transform="rotate(-25.5449 0 49.9551)" fill="#EFEFEF"/>
<path d="M55.5595 63.4442L58.3959 64.8768L60.3069 65.7364L65.1197 68.1336L61.9865 69.6311L58.7372 68.0322L57.3019 67.2483L52.6484 64.8356L55.5595 63.4442ZM60.5338 57.4604C61.4299 59.3354 61.8565 61.1368 61.8135 62.8646C61.7748 64.5802 61.3114 66.1049 60.4234 67.4385C59.5314 68.7639 58.3001 69.8019 56.7294 70.5526C55.1587 71.3033 53.5775 71.6094 51.986 71.471C50.3987 71.3205 48.9193 70.7193 47.5478 69.6675C46.1764 68.6157 45.0445 67.1565 44.1523 65.2897C43.2484 63.3983 42.8198 61.5928 42.8668 59.8732C42.9137 58.1536 43.379 56.6331 44.2627 55.3116C45.1547 53.9863 46.386 52.9482 47.9568 52.1975C49.5275 51.4468 51.1086 51.1407 52.7002 51.2791C54.2917 51.4175 55.7672 52.0104 57.1265 53.0579C58.494 54.1015 59.6298 55.569 60.5338 57.4604ZM57.3142 58.9991C56.6775 57.6669 55.9234 56.6282 55.0521 55.8829C54.1889 55.1337 53.2672 54.6953 52.2869 54.5678C51.3149 54.4364 50.3314 54.6084 49.3363 55.084C48.3577 55.5517 47.6061 56.209 47.0814 57.0558C46.5649 57.8986 46.323 58.8931 46.3556 60.0393C46.3964 61.1815 46.7352 62.4187 47.3719 63.751C48.0086 65.0832 48.7586 66.1239 49.6217 66.8731C50.4931 67.6184 51.419 68.0548 52.3992 68.1823C53.3877 68.3059 54.3712 68.1338 55.3498 67.6661C56.3449 67.1905 57.0965 66.5333 57.6047 65.6944C58.1212 64.8515 58.359 63.859 58.3182 62.7167C58.2856 61.5706 57.951 60.3314 57.3142 58.9991Z" fill="white"/>
<path d="M72.9046 62.837C71.7286 63.399 70.5883 63.6763 69.4836 63.6689C68.3872 63.6575 67.4155 63.3895 66.5688 62.8648C65.7263 62.328 65.081 61.5908 64.6329 60.6533C64.2988 59.9543 64.1419 59.2666 64.1621 58.5902C64.1866 57.9017 64.3355 57.2092 64.6088 56.5129C64.8821 55.8165 65.2774 55.0266 65.7945 54.143L67.933 50.4691C68.2692 49.9043 68.4697 49.4044 68.5346 48.9693C68.6037 48.5221 68.5341 48.0806 68.3258 47.6447C68.1961 47.3734 67.9982 47.1497 67.7323 46.9737C67.4707 46.7856 67.1647 46.6844 66.8143 46.67C66.46 46.6474 66.102 46.7225 65.7401 46.8955C65.3701 47.0723 65.0783 47.3178 64.8648 47.632C64.6513 47.9462 64.5311 48.2865 64.5041 48.653C64.4772 49.0194 64.5424 49.3671 64.6996 49.696C64.8529 50.0168 65.1004 50.3127 65.4421 50.5837C65.7838 50.8548 66.1627 51.098 66.5788 51.3133C66.9948 51.5287 67.5546 51.8016 68.2581 52.1321C68.4522 52.2212 68.6463 52.3102 68.8404 52.3993L81.909 58.2152L78.5168 59.8365L67.7511 55.1929C67.4111 55.0523 67.0996 54.9184 66.8165 54.791C65.9511 54.3965 65.2297 54.0391 64.6524 53.719C64.0752 53.3989 63.5438 53.0164 63.0584 52.5715C62.5691 52.1185 62.1791 51.5876 61.8882 50.9791C61.4873 50.1403 61.3209 49.2955 61.3891 48.4446C61.4615 47.5816 61.7588 46.7981 62.281 46.0939C62.8074 45.3776 63.5353 44.7974 64.4645 44.3533C65.3773 43.917 66.2615 43.7167 67.117 43.7523C67.9807 43.784 68.745 44.0198 69.4098 44.4597C70.0707 44.8913 70.5781 45.4773 70.9318 46.2174C71.3209 47.0315 71.4732 47.8679 71.3886 48.7266C71.3 49.5771 71.0088 50.479 70.5148 51.4323L68.1622 55.7995C67.9054 56.2556 67.7244 56.6907 67.6192 57.1046C67.514 57.5186 67.4645 57.8907 67.4709 58.2211C67.4815 58.5393 67.5419 58.8135 67.6519 59.0437C67.876 59.5125 68.2037 59.8812 68.6351 60.1498C69.0666 60.4184 69.5552 60.5636 70.1011 60.5856C70.6431 60.5993 71.1978 60.4706 71.7652 60.1994C72.6287 59.7867 73.3457 59.1309 73.9161 58.2319C74.4827 57.3247 74.8007 56.2887 74.8704 55.124C74.9361 53.951 74.6899 52.7807 74.1318 51.6129L76.8456 50.3159C77.3566 51.385 77.6933 52.3959 77.8557 53.3487C78.0142 54.2933 78.042 55.1336 77.9392 55.8697C77.8364 56.6057 77.6262 57.3073 77.3085 57.9743C77.2281 58.1441 77.1417 58.3015 77.0494 58.4467C77.0237 58.5196 76.9856 58.5984 76.9351 58.6831C76.8929 58.7639 76.8466 58.8467 76.7962 58.9314C76.4592 59.7693 75.9422 60.5265 75.2453 61.2031C74.5565 61.8757 73.7763 62.4204 72.9046 62.837Z" fill="white"/>
<path d="M82.3631 57.9982L80.1173 37.1298L84.077 35.2373L98.9048 50.0922L95.4756 51.7312L83.9101 39.8024L83.7621 39.8731L85.78 56.3651L82.3631 57.9982ZM91.9789 44.7954L93.2111 47.3735L83.7991 51.8719L82.567 49.2938L91.9789 44.7954Z" fill="white"/>
</g>
<defs>
<clipPath id="clip0_11035_15843">
<rect width="129" height="93" fill="white"/>
</clipPath>
</defs>
</svg>
