<svg width="441" height="180" viewBox="0 0 441 180" fill="none" xmlns="http://www.w3.org/2000/svg">
<g clip-path="url(#clip0_16652_20500)">
<rect x="0.5" y="0.5" width="179" height="179" rx="89.5" fill="white"/>
<rect x="0.5" y="0.5" width="179" height="179" rx="89.5" stroke="#D8D8D8"/>
<path d="M64.5303 71.8506H61.4541V70.2773H64.5303V71.8506ZM64.4863 74.9971H61.419V73.4238H64.4863V74.9971ZM61.3223 69.8027H52.4541V68.2471H61.3223V69.8027ZM56.9717 70.4355C57.6807 70.4355 58.3193 70.5615 58.8877 70.8135C59.4561 71.0596 59.8955 71.4082 60.2061 71.8594C60.5225 72.3047 60.6807 72.8145 60.6807 73.3887C60.6807 73.9746 60.5225 74.4932 60.2061 74.9443C59.8955 75.3896 59.4561 75.7354 58.8877 75.9814C58.3193 76.2275 57.6807 76.3506 56.9717 76.3506C56.2568 76.3506 55.6182 76.2275 55.0557 75.9814C54.4932 75.7354 54.0596 75.3896 53.7549 74.9443C53.4502 74.4932 53.2979 73.9746 53.2979 73.3887C53.2979 72.8086 53.4502 72.2959 53.7549 71.8506C54.0596 71.3994 54.4932 71.0508 55.0557 70.8047C55.6182 70.5586 56.2568 70.4355 56.9717 70.4355ZM56.9717 71.8945C56.6025 71.8945 56.2774 71.9561 55.9961 72.0791C55.7149 72.1963 55.4951 72.3662 55.3369 72.5889C55.1846 72.8115 55.1084 73.0781 55.1084 73.3887C55.1084 73.6992 55.1846 73.9658 55.3369 74.1885C55.4951 74.4111 55.7119 74.584 55.9873 74.707C56.2686 74.8242 56.5967 74.8828 56.9717 74.8828C57.3467 74.8828 57.6748 74.8242 57.9561 74.707C58.2432 74.584 58.4658 74.4111 58.624 74.1885C58.7881 73.9658 58.8701 73.6992 58.8701 73.3887C58.8701 73.0781 58.7881 72.8115 58.624 72.5889C58.4658 72.3662 58.2432 72.1963 57.9561 72.0791C57.6748 71.9561 57.3467 71.8945 56.9717 71.8945ZM57.9649 69.3193H56.0137V66.5508H57.9649V69.3193ZM65.7344 76.8428H63.7832V66.6738H65.7344V76.8428ZM60.3994 77.0186C61.5127 77.0186 62.4766 77.127 63.291 77.3438C64.1055 77.5605 64.7295 77.8799 65.1631 78.3018C65.6025 78.7178 65.8223 79.2129 65.8223 79.7871C65.8223 80.3555 65.6025 80.8447 65.1631 81.2549C64.7295 81.6709 64.1025 81.9873 63.2822 82.2041C62.4678 82.4268 61.5068 82.5381 60.3994 82.5381C59.2803 82.5381 58.3135 82.4268 57.499 82.2041C56.6846 81.9873 56.0576 81.6709 55.6182 81.2549C55.1787 80.8447 54.959 80.3555 54.959 79.7871C54.959 79.2129 55.1787 78.7178 55.6182 78.3018C56.0576 77.8799 56.6846 77.5605 57.499 77.3438C58.3135 77.127 59.2803 77.0186 60.3994 77.0186ZM60.3994 78.5127C59.6729 78.5127 59.0576 78.5596 58.5537 78.6533C58.0557 78.7471 57.6719 78.8906 57.4024 79.084C57.1387 79.2715 57.0068 79.5059 57.0068 79.7871C57.0068 80.0566 57.1387 80.2852 57.4024 80.4727C57.6719 80.6602 58.0586 80.8066 58.5625 80.9121C59.0664 81.0117 59.6787 81.0615 60.3994 81.0615C61.1025 81.0615 61.7031 81.0117 62.2012 80.9121C62.6992 80.8066 63.0772 80.6602 63.335 80.4727C63.5986 80.2852 63.7305 80.0566 63.7305 79.7871C63.7305 79.5059 63.5986 79.2715 63.335 79.084C63.0772 78.8906 62.7022 78.7471 62.21 78.6533C61.7178 78.5596 61.1143 78.5127 60.3994 78.5127ZM73.1343 68.9414C73.1343 69.9551 72.9556 70.9072 72.5981 71.7979C72.2407 72.6885 71.7222 73.4648 71.0425 74.127C70.3628 74.7832 69.5454 75.2754 68.5903 75.6035L67.606 74.0654C68.438 73.7842 69.147 73.3799 69.7329 72.8525C70.3247 72.3252 70.7671 71.7246 71.0601 71.0508C71.353 70.377 71.4995 69.6738 71.4995 68.9414V67.4209H73.1343V68.9414ZM73.521 68.9414C73.521 69.6562 73.6646 70.333 73.9517 70.9717C74.2388 71.6104 74.6694 72.1758 75.2437 72.668C75.8237 73.1602 76.5239 73.5381 77.3442 73.8018L76.3687 75.3398C75.4194 75.0234 74.6079 74.5518 73.9341 73.9248C73.2603 73.2979 72.7505 72.5596 72.4048 71.71C72.0591 70.8604 71.8862 69.9375 71.8862 68.9414V67.4209H73.521V68.9414ZM80.8159 82.5469H78.856V78.4775H69.9878V76.8955H80.8159V82.5469ZM80.8159 76.1836H78.856V66.6738H80.8159V76.1836ZM88.1982 69.416C88.1982 70.4062 88.0225 71.3408 87.6709 72.2197C87.3252 73.0986 86.8154 73.8662 86.1416 74.5225C85.4736 75.1729 84.668 75.6562 83.7246 75.9727L82.7139 74.4346C83.5342 74.1533 84.2373 73.7549 84.8232 73.2393C85.4092 72.7178 85.8516 72.126 86.1504 71.4639C86.4492 70.7959 86.5986 70.1133 86.5986 69.416V68.2646H88.1982V69.416ZM88.585 69.3984C88.585 70.0547 88.7256 70.6934 89.0068 71.3145C89.2939 71.9297 89.7188 72.4834 90.2812 72.9756C90.8496 73.4619 91.5293 73.8398 92.3203 74.1094L91.3447 75.6299C90.4189 75.3252 89.6309 74.8623 88.9805 74.2412C88.3301 73.6143 87.835 72.8818 87.4951 72.0439C87.1611 71.2061 86.9941 70.3242 86.9941 69.3984V68.2646H88.585V69.3984ZM94.667 72.2197H91.415V70.6113H94.667V72.2197ZM91.8809 69.2051H83.2852V67.6318H91.8809V69.2051ZM96.0557 82.5469H94.1045V78.4775H85.2275V76.8955H96.0557V82.5469ZM96.0557 76.1484H94.1045V66.6738H96.0557V76.1484ZM111.128 82.5908H109.151V66.6738H111.128V82.5908ZM102.568 67.834C103.365 67.834 104.077 68.0654 104.704 68.5283C105.331 68.9854 105.82 69.6387 106.171 70.4883C106.523 71.332 106.699 72.3164 106.699 73.4414C106.699 74.5723 106.523 75.5625 106.171 76.4121C105.82 77.2559 105.331 77.9092 104.704 78.3721C104.077 78.835 103.365 79.0664 102.568 79.0664C101.765 79.0664 101.05 78.835 100.423 78.3721C99.7964 77.9092 99.3042 77.2559 98.9468 76.4121C98.5952 75.5625 98.4194 74.5723 98.4194 73.4414C98.4194 72.3164 98.5952 71.332 98.9468 70.4883C99.3042 69.6387 99.7964 68.9854 100.423 68.5283C101.05 68.0654 101.765 67.834 102.568 67.834ZM102.568 69.5918C102.123 69.5859 101.727 69.7383 101.381 70.0488C101.042 70.3535 100.778 70.7959 100.59 71.376C100.403 71.9561 100.309 72.6445 100.309 73.4414C100.309 74.2383 100.403 74.9297 100.59 75.5156C100.778 76.0957 101.042 76.5381 101.381 76.8428C101.727 77.1416 102.123 77.291 102.568 77.291C103.013 77.291 103.406 77.1416 103.746 76.8428C104.085 76.5381 104.349 76.0957 104.537 75.5156C104.724 74.9297 104.818 74.2383 104.818 73.4414C104.818 72.6445 104.724 71.9561 104.537 71.376C104.349 70.7959 104.085 70.3535 103.746 70.0488C103.412 69.7383 103.019 69.5859 102.568 69.5918ZM124.795 69.6973H114.573V68.124H124.795V69.6973ZM127.546 80.5078H113.079V78.917H127.546V80.5078ZM120.348 79.7344H118.423V73.3799H120.348V79.7344ZM126.034 69.6621C126.034 70.5938 126.022 71.3848 125.999 72.0352C125.976 72.6797 125.92 73.4414 125.832 74.3203C125.744 75.1934 125.606 76.1426 125.419 77.168L123.441 76.957C123.635 75.9961 123.778 75.0908 123.872 74.2412C123.966 73.3857 124.021 72.627 124.039 71.9648C124.057 71.3027 124.065 70.5352 124.065 69.6621V68.124H126.034V69.6621ZM71.7197 108.416H69.7861V96.6738H71.7197V108.416ZM60.0127 100.418H61.3486V97.8691H62.957V105.85H58.3867V97.8691H60.0127V100.418ZM61.3486 104.276V101.903H60.0127V104.276H61.3486ZM65.3477 100.418H66.6484V97.8691H68.2129V105.85H63.7481V97.8691H65.3477V100.418ZM66.6484 104.276V101.903H65.3477V104.276H66.6484ZM70.419 102.624H67.7559V101.024H70.419V102.624ZM72.1328 112.266H60.6191V110.666H72.1328V112.266ZM62.5791 111.009H60.6191V107.186H62.5791V111.009ZM85.7554 108.565H83.8042V96.6914H85.7554V108.565ZM87.979 103.292H85.1753V101.684H87.979V103.292ZM82.6616 100.005H73.231V98.4492H82.6616V100.005ZM77.9507 100.664C78.7065 100.664 79.3774 100.79 79.9634 101.042C80.5552 101.294 81.0151 101.651 81.3433 102.114C81.6714 102.571 81.8355 103.102 81.8355 103.705C81.8355 104.297 81.6714 104.818 81.3433 105.27C81.0151 105.721 80.5552 106.072 79.9634 106.324C79.3774 106.576 78.7065 106.702 77.9507 106.702C77.1948 106.702 76.5181 106.576 75.9204 106.324C75.3286 106.072 74.8687 105.721 74.5405 105.27C74.2183 104.818 74.0571 104.297 74.0571 103.705C74.0571 103.102 74.2183 102.571 74.5405 102.114C74.8687 101.651 75.3286 101.294 75.9204 101.042C76.5181 100.79 77.1948 100.664 77.9507 100.664ZM77.9507 102.176C77.5581 102.176 77.2065 102.234 76.896 102.352C76.5913 102.469 76.3569 102.647 76.1929 102.888C76.0288 103.122 75.9468 103.395 75.9468 103.705C75.9468 104.016 76.0288 104.285 76.1929 104.514C76.3569 104.736 76.5913 104.906 76.896 105.023C77.2065 105.141 77.5581 105.199 77.9507 105.199C78.355 105.199 78.7095 105.141 79.0142 105.023C79.3189 104.906 79.5562 104.736 79.7261 104.514C79.896 104.285 79.981 104.016 79.981 103.705C79.981 103.395 79.896 103.122 79.7261 102.888C79.5562 102.647 79.3189 102.469 79.0142 102.352C78.7095 102.234 78.355 102.176 77.9507 102.176ZM78.9351 99.2227H76.9751V96.6826H78.9351V99.2227ZM86.3794 112.266H75.5776V110.666H86.3794V112.266ZM77.52 111.334H75.5776V107.634H77.52V111.334ZM105.925 112.547H104.036V96.6738H105.925V112.547ZM104.554 104.522H101.733V102.923H104.554V104.522ZM102.287 111.765H100.45V96.9727H102.287V111.765ZM94.9214 107.66H92.9702V98.502H94.9214V107.66ZM94.0161 106.896C94.9478 106.896 95.853 106.86 96.7319 106.79C97.6108 106.72 98.519 106.594 99.4565 106.412L99.6675 108.117C98.6538 108.287 97.6841 108.413 96.7583 108.495C95.8384 108.571 94.9243 108.609 94.0161 108.609H92.9702V106.896H94.0161ZM112.771 104.962H110.812V102.026H112.771V104.962ZM118.493 104.962H116.542V102.026H118.493V104.962ZM121.912 105.894H107.445V104.312H121.912V105.894ZM114.661 106.843C115.81 106.843 116.794 106.951 117.614 107.168C118.44 107.385 119.07 107.707 119.504 108.135C119.943 108.557 120.163 109.072 120.163 109.682C120.163 110.291 119.943 110.807 119.504 111.229C119.07 111.65 118.44 111.973 117.614 112.195C116.794 112.418 115.81 112.529 114.661 112.529C113.507 112.529 112.514 112.418 111.682 112.195C110.855 111.973 110.223 111.65 109.783 111.229C109.344 110.807 109.124 110.291 109.124 109.682C109.124 109.072 109.344 108.557 109.783 108.135C110.223 107.707 110.855 107.385 111.682 107.168C112.514 106.951 113.507 106.843 114.661 106.843ZM114.661 108.319C113.888 108.319 113.237 108.372 112.71 108.478C112.188 108.577 111.793 108.729 111.523 108.935C111.254 109.14 111.119 109.389 111.119 109.682C111.119 109.975 111.254 110.224 111.523 110.429C111.793 110.634 112.191 110.792 112.719 110.903C113.246 111.009 113.894 111.062 114.661 111.062C115.417 111.062 116.062 111.009 116.595 110.903C117.128 110.792 117.529 110.634 117.799 110.429C118.068 110.224 118.203 109.975 118.203 109.682C118.203 109.389 118.068 109.14 117.799 108.935C117.529 108.729 117.131 108.577 116.604 108.478C116.076 108.372 115.429 108.319 114.661 108.319ZM114.679 96.9287C115.839 96.9287 116.847 97.0518 117.702 97.2979C118.563 97.5381 119.226 97.8838 119.688 98.335C120.151 98.7861 120.383 99.3252 120.383 99.9521C120.383 100.567 120.151 101.101 119.688 101.552C119.226 101.997 118.566 102.34 117.711 102.58C116.855 102.814 115.845 102.932 114.679 102.932C113.507 102.932 112.49 102.814 111.629 102.58C110.768 102.34 110.103 101.997 109.634 101.552C109.171 101.101 108.939 100.567 108.939 99.9521C108.939 99.3252 109.171 98.7861 109.634 98.335C110.103 97.8838 110.768 97.5381 111.629 97.2979C112.49 97.0518 113.507 96.9287 114.679 96.9287ZM114.679 98.4404C113.888 98.4404 113.214 98.502 112.657 98.625C112.106 98.7422 111.687 98.9121 111.4 99.1348C111.113 99.3574 110.97 99.6299 110.97 99.9521C110.97 100.274 111.113 100.547 111.4 100.77C111.687 100.986 112.106 101.153 112.657 101.271C113.214 101.388 113.888 101.446 114.679 101.446C115.458 101.446 116.123 101.388 116.674 101.271C117.225 101.153 117.646 100.986 117.939 100.77C118.232 100.547 118.379 100.274 118.379 99.9521C118.379 99.6299 118.232 99.3574 117.939 99.1348C117.646 98.9121 117.225 98.7422 116.674 98.625C116.123 98.502 115.458 98.4404 114.679 98.4404Z" fill="#2A2D34"/>
<rect x="261.7" y="0.7" width="178.6" height="178.6" rx="89.3" fill="#F26646" fill-opacity="0.1"/>
<rect x="261.7" y="0.7" width="178.6" height="178.6" rx="89.3" stroke="#FFBAAA" stroke-width="1.4"/>
<path d="M323.426 70.4707H318.662V68.8711H323.426V70.4707ZM323.426 73.9512H318.662V72.3779H323.426V73.9512ZM324.788 82.5469H322.837V78.3721H313.96V76.8164H324.788V82.5469ZM324.788 76.0518H322.837V66.6738H324.788V76.0518ZM315.893 67.5439C316.673 67.5439 317.379 67.708 318.011 68.0361C318.65 68.3643 319.151 68.8242 319.514 69.416C319.878 70.002 320.059 70.6641 320.059 71.4023C320.059 72.1523 319.878 72.8232 319.514 73.415C319.151 74.001 318.65 74.4609 318.011 74.7949C317.379 75.1289 316.673 75.2959 315.893 75.2959C315.102 75.2959 314.387 75.1289 313.749 74.7949C313.11 74.4609 312.609 74.001 312.246 73.415C311.883 72.8232 311.701 72.1523 311.701 71.4023C311.701 70.6641 311.883 70.002 312.246 69.416C312.609 68.8242 313.11 68.3643 313.749 68.0361C314.387 67.708 315.102 67.5439 315.893 67.5439ZM315.893 69.2051C315.442 69.2051 315.038 69.2959 314.68 69.4775C314.329 69.6533 314.053 69.9082 313.854 70.2422C313.655 70.5703 313.555 70.957 313.555 71.4023C313.555 71.8535 313.655 72.249 313.854 72.5889C314.053 72.9287 314.329 73.1895 314.68 73.3711C315.038 73.5527 315.442 73.6436 315.893 73.6436C316.321 73.6436 316.711 73.5498 317.062 73.3623C317.414 73.1748 317.689 72.9111 317.888 72.5713C318.088 72.2314 318.187 71.8418 318.187 71.4023C318.187 70.9629 318.088 70.5762 317.888 70.2422C317.689 69.9082 317.414 69.6533 317.062 69.4775C316.711 69.2959 316.321 69.2051 315.893 69.2051ZM341.416 70.5586H338.586V68.9414H341.416V70.5586ZM341.416 73.916H338.586V72.29H341.416V73.916ZM339.175 76.2803H337.224V66.6914H339.175V76.2803ZM328.567 73.8984C330.196 73.8984 331.552 73.8662 332.636 73.8018C333.726 73.7314 334.822 73.6025 335.923 73.415L336.125 74.9883C335.018 75.1934 333.905 75.3311 332.785 75.4014C331.672 75.4717 330.266 75.5068 328.567 75.5068H327.266V73.8984H328.567ZM334.508 72.2285H329.208V74.9004H327.266V70.752H332.592V69.2051H327.24V67.6494H334.508V72.2285ZM333.99 76.5967C335.073 76.5967 336.017 76.7168 336.82 76.957C337.622 77.1914 338.24 77.5342 338.674 77.9854C339.108 78.4365 339.324 78.9727 339.324 79.5938C339.324 80.2031 339.111 80.7275 338.683 81.167C338.255 81.6123 337.64 81.9492 336.837 82.1777C336.034 82.4121 335.085 82.5293 333.99 82.5293C332.876 82.5293 331.918 82.4121 331.115 82.1777C330.313 81.9492 329.695 81.6152 329.261 81.1758C328.827 80.7363 328.611 80.209 328.611 79.5938C328.611 78.9727 328.827 78.4365 329.261 77.9854C329.695 77.5342 330.316 77.1914 331.124 76.957C331.933 76.7168 332.888 76.5967 333.99 76.5967ZM333.99 78.1172C333.257 78.1172 332.63 78.1758 332.109 78.293C331.587 78.4043 331.195 78.5713 330.931 78.7939C330.667 79.0107 330.535 79.2773 330.535 79.5938C330.535 79.9043 330.667 80.1709 330.931 80.3936C331.195 80.6104 331.584 80.7773 332.1 80.8945C332.621 81.0059 333.251 81.0615 333.99 81.0615C334.722 81.0615 335.343 81.0059 335.853 80.8945C336.363 80.7773 336.746 80.6104 337.004 80.3936C337.268 80.1768 337.4 79.9102 337.4 79.5938C337.4 79.2773 337.268 79.0107 337.004 78.7939C336.746 78.5713 336.363 78.4043 335.853 78.293C335.343 78.1758 334.722 78.1172 333.99 78.1172ZM354.309 68.2471C354.309 69.9697 354.095 71.5371 353.667 72.9492C353.24 74.3613 352.484 75.6768 351.4 76.8955C350.316 78.1084 348.83 79.1807 346.944 80.1123L345.898 78.5918C347.515 77.8008 348.801 76.9072 349.756 75.9111C350.711 74.915 351.391 73.8135 351.795 72.6064C352.205 71.3994 352.41 70.0283 352.41 68.4932V68.2471H354.309ZM353.395 69.8291H346.821V68.2471H353.395V69.8291ZM346.267 74.2236L346.003 72.5361L352.287 72.1582V73.6611L346.267 74.2236ZM358.967 82.5469H356.99V66.6738H358.967V82.5469ZM366.885 82.0811H364.908V75.5684H366.885V82.0811ZM374.277 82.5557H372.291V66.6914H374.277V82.5557ZM360.795 74.8477C362.834 74.8477 364.694 74.8154 366.376 74.751C368.063 74.6865 369.669 74.5547 371.192 74.3555L371.306 75.7881C369.742 76.0518 368.122 76.2305 366.446 76.3242C364.77 76.4121 362.966 76.4561 361.032 76.4561L360.795 74.8477ZM372.721 78.9082H368.907V77.4316H372.721V78.9082ZM365.998 67.3857C366.777 67.3857 367.471 67.5205 368.081 67.79C368.69 68.0596 369.171 68.4375 369.522 68.9238C369.874 69.4102 370.05 69.9668 370.05 70.5938C370.05 71.2207 369.877 71.7773 369.531 72.2637C369.185 72.75 368.705 73.1279 368.09 73.3975C367.474 73.6611 366.777 73.793 365.998 73.793C365.207 73.793 364.504 73.6611 363.888 73.3975C363.273 73.1279 362.793 72.75 362.447 72.2637C362.107 71.7773 361.937 71.2207 361.937 70.5938C361.937 69.9668 362.11 69.4102 362.456 68.9238C362.802 68.4375 363.282 68.0596 363.897 67.79C364.512 67.5205 365.213 67.3857 365.998 67.3857ZM365.998 68.8623C365.558 68.8623 365.169 68.9355 364.829 69.082C364.495 69.2227 364.237 69.4248 364.055 69.6885C363.874 69.9463 363.783 70.248 363.783 70.5938C363.783 70.9395 363.874 71.2412 364.055 71.499C364.243 71.7568 364.504 71.9531 364.838 72.0879C365.172 72.2227 365.558 72.29 365.998 72.29C366.426 72.29 366.806 72.2227 367.14 72.0879C367.474 71.9531 367.732 71.7568 367.914 71.499C368.101 71.2412 368.195 70.9395 368.195 70.5938C368.195 70.248 368.101 69.9463 367.914 69.6885C367.732 69.4248 367.471 69.2227 367.132 69.082C366.798 68.9355 366.42 68.8623 365.998 68.8623ZM388.919 75.7002H377.775V74.127H388.919V75.7002ZM390.545 80.5518H376.026V78.9346H390.545V80.5518ZM388.787 69.6445H379.717V74.7949H377.775V68.0537H388.787V69.6445ZM302.442 104.637H294.919V97.7197H302.442V104.637ZM296.844 103.072H300.526V99.2842H296.844V103.072ZM306.907 105.63H304.956V96.6738H306.907V105.63ZM309.131 101.859H306.354V100.251H309.131V101.859ZM302.434 107.563C302.434 108.384 302.193 109.137 301.713 109.822C301.232 110.502 300.55 111.073 299.665 111.536C298.78 112.005 297.749 112.318 296.571 112.477L295.851 111C296.864 110.865 297.743 110.625 298.487 110.279C299.231 109.934 299.8 109.526 300.192 109.058C300.591 108.583 300.79 108.085 300.79 107.563V107.15H302.434V107.563ZM302.864 107.563C302.864 108.067 303.063 108.557 303.462 109.031C303.86 109.506 304.435 109.922 305.185 110.279C305.935 110.631 306.808 110.877 307.804 111.018L307.101 112.512C305.917 112.342 304.877 112.022 303.98 111.554C303.09 111.085 302.401 110.505 301.915 109.813C301.429 109.122 301.186 108.372 301.186 107.563V107.15H302.864V107.563ZM307.136 107.994H296.51V106.438H307.136V107.994ZM315.248 99.7676C315.248 100.547 315.078 101.259 314.738 101.903C314.398 102.548 313.897 103.096 313.235 103.547C312.579 103.998 311.788 104.329 310.862 104.54L310.044 103.055C310.8 102.896 311.451 102.653 311.996 102.325C312.541 101.997 312.951 101.613 313.226 101.174C313.507 100.729 313.648 100.26 313.648 99.7676V99.5303H315.248V99.7676ZM315.696 99.7676C315.696 100.225 315.834 100.661 316.109 101.077C316.39 101.487 316.8 101.845 317.339 102.149C317.878 102.448 318.52 102.671 319.264 102.817L318.464 104.338C317.544 104.139 316.759 103.819 316.109 103.38C315.464 102.94 314.972 102.413 314.632 101.798C314.298 101.183 314.131 100.506 314.131 99.7676V99.5303H315.696V99.7676ZM318.842 99.8203H310.449V98.2998H318.842V99.8203ZM315.643 99.3193H313.709V96.7178H315.643V99.3193ZM315.564 112.081H313.586V105.691H315.564V112.081ZM322.956 112.556H320.969V96.6914H322.956V112.556ZM309.473 105.313C311.418 105.319 313.25 105.29 314.966 105.226C316.683 105.161 318.309 105.021 319.844 104.804L319.959 106.263C318.376 106.538 316.745 106.72 315.063 106.808C313.381 106.896 311.597 106.934 309.71 106.922L309.473 105.313ZM321.4 109.26H317.585V107.739H321.4V109.26ZM340.471 102.229H337.237V100.638H340.471V102.229ZM341.895 106.122H339.944V96.6738H341.895V106.122ZM336.525 106.518C337.65 106.518 338.617 106.638 339.425 106.878C340.24 107.112 340.864 107.458 341.297 107.915C341.731 108.366 341.948 108.908 341.948 109.541C341.948 110.174 341.731 110.716 341.297 111.167C340.864 111.618 340.24 111.961 339.425 112.195C338.617 112.436 337.65 112.562 336.525 112.573C335.412 112.562 334.448 112.436 333.633 112.195C332.825 111.961 332.201 111.618 331.761 111.167C331.328 110.716 331.111 110.174 331.111 109.541C331.111 108.908 331.328 108.366 331.761 107.915C332.201 107.458 332.825 107.112 333.633 106.878C334.448 106.638 335.412 106.518 336.525 106.518ZM336.525 108.012C335.792 108.012 335.166 108.07 334.644 108.188C334.123 108.299 333.727 108.469 333.458 108.697C333.188 108.926 333.053 109.207 333.053 109.541C333.053 109.857 333.188 110.13 333.458 110.358C333.727 110.587 334.123 110.763 334.644 110.886C335.166 111.003 335.792 111.062 336.525 111.062C337.269 111.062 337.899 111.003 338.415 110.886C338.936 110.763 339.329 110.587 339.592 110.358C339.862 110.13 339.997 109.857 339.997 109.541C339.997 109.207 339.862 108.926 339.592 108.697C339.329 108.469 338.936 108.299 338.415 108.188C337.899 108.07 337.269 108.012 336.525 108.012ZM334.038 99.4072C334.038 100.409 333.862 101.355 333.51 102.246C333.165 103.131 332.655 103.907 331.981 104.575C331.313 105.243 330.507 105.744 329.564 106.078L328.544 104.522C329.376 104.235 330.085 103.828 330.671 103.301C331.257 102.768 331.697 102.164 331.99 101.49C332.289 100.816 332.438 100.122 332.438 99.4072V98.2734H334.038V99.4072ZM334.424 99.3896C334.424 100.052 334.565 100.69 334.846 101.306C335.133 101.921 335.558 102.475 336.121 102.967C336.689 103.453 337.369 103.834 338.16 104.109L337.184 105.656C336.258 105.34 335.47 104.868 334.82 104.241C334.169 103.608 333.674 102.876 333.334 102.044C333 101.206 332.833 100.321 332.833 99.3896V98.2734H334.424V99.3896ZM337.72 99.293H329.125V97.7021H337.72V99.293ZM356.985 112.591H355.043V96.6738H356.985V112.591ZM346.017 107.212C347.499 107.218 348.844 107.18 350.051 107.098C351.264 107.016 352.506 106.872 353.777 106.667L353.953 108.267C352.688 108.483 351.439 108.633 350.209 108.715C348.984 108.791 347.587 108.829 346.017 108.829H344.628V107.212H346.017ZM352.099 104.013H346.641V107.818H344.628V102.466H350.112V99.6445H344.61V98.0537H352.099V104.013ZM368.165 103.23H360.36V101.666H368.165V103.23ZM365.194 105.735H363.243V102.659H365.194V105.735ZM368.033 99.2402H362.32V102.334H360.36V97.6582H368.033V99.2402ZM372.164 108.601H370.186V96.6826H372.164V108.601ZM372.621 112.266H361.52V110.666H372.621V112.266ZM363.489 111.308H361.52V107.739H363.489V111.308ZM358.989 105.173C361.004 105.161 362.83 105.129 364.464 105.076C366.099 105.018 367.64 104.909 369.087 104.751L369.237 106.166C367.696 106.377 366.087 106.523 364.412 106.605C362.736 106.682 361.016 106.72 359.252 106.72L358.989 105.173ZM390.321 103.389H386.014V101.815H390.321V103.389ZM383.439 100.488C383.439 101.777 383.269 103.005 382.929 104.171C382.589 105.331 382.088 106.359 381.426 107.256C380.764 108.152 379.97 108.838 379.044 109.312L377.805 107.722C378.649 107.329 379.375 106.755 379.985 105.999C380.594 105.243 381.057 104.391 381.374 103.441C381.69 102.486 381.848 101.502 381.848 100.488V97.9482H383.439V100.488ZM383.834 100.488C383.834 101.496 383.987 102.46 384.291 103.38C384.602 104.3 385.053 105.117 385.645 105.832C386.243 106.547 386.952 107.089 387.772 107.458L386.594 109.022C385.668 108.565 384.88 107.909 384.23 107.054C383.585 106.192 383.096 105.202 382.762 104.083C382.428 102.964 382.261 101.766 382.261 100.488V97.9482H383.834V100.488ZM391.279 112.591H389.345V96.6738H391.279V112.591ZM407.635 107.59H393.115V106.052H407.635V107.59ZM398.6 112.547H396.631V106.86H398.6V112.547ZM404.128 112.547H402.159V106.86H404.128V112.547ZM405.93 101.648H396.824V104.215H394.847V100.198H403.926V98.792H394.812V97.21H405.93V101.648ZM406.29 104.742H394.847V103.16H406.29V104.742Z" fill="#F26646"/>
<path fill-rule="evenodd" clip-rule="evenodd" d="M236.847 96.8549C237.251 96.4621 237.251 95.8126 236.847 95.4198L216.312 75.4895C215.678 74.874 214.616 75.3233 214.616 76.2071V81.9992H199V109.999H214.616V116.068C214.616 116.951 215.678 117.401 216.312 116.785L236.847 96.8549Z" fill="url(#paint0_linear_16652_20500)"/>
</g>
<defs>
<linearGradient id="paint0_linear_16652_20500" x1="237.741" y1="95.9467" x2="199" y2="95.9467" gradientUnits="userSpaceOnUse">
<stop stop-color="#FFA894"/>
<stop offset="1" stop-color="#F9F9F8"/>
</linearGradient>
<clipPath id="clip0_16652_20500">
<rect width="441" height="180" fill="white"/>
</clipPath>
</defs>
</svg>
