<svg xmlns="http://www.w3.org/2000/svg" width="235" height="85" viewBox="0 0 235 85" fill="none">
  <mask id="path-1-inside-1_8823_255" fill="white">
    <path fill-rule="evenodd" clip-rule="evenodd" d="M230 85C232.761 85 235 82.7614 235 80L235 18C235 15.2386 232.761 13 230 13L127.023 13L117.557 -2.63777e-06L108.092 13L5.00001 13C2.23858 13 6.09874e-06 15.2386 5.85733e-06 18L4.37114e-07 80C1.95703e-07 82.7614 2.23857 85 5 85L230 85Z"/>
  </mask>
  <path fill-rule="evenodd" clip-rule="evenodd" d="M230 85C232.761 85 235 82.7614 235 80L235 18C235 15.2386 232.761 13 230 13L127.023 13L117.557 -2.63777e-06L108.092 13L5.00001 13C2.23858 13 6.09874e-06 15.2386 5.85733e-06 18L4.37114e-07 80C1.95703e-07 82.7614 2.23857 85 5 85L230 85Z" fill="white"/>
  <path d="M235 80L236 80L235 80ZM235 18L234 18L235 18ZM127.023 13L126.214 13.5886L126.514 14L127.023 14L127.023 13ZM117.557 -2.63777e-06L118.366 -0.588609L117.557 -1.69893L116.749 -0.588609L117.557 -2.63777e-06ZM108.092 13L108.092 14L108.601 14L108.901 13.5886L108.092 13ZM5.85733e-06 18L-0.999994 18L5.85733e-06 18ZM4.37114e-07 80L1 80L4.37114e-07 80ZM234 80C234 82.2091 232.209 84 230 84L230 86C233.314 86 236 83.3137 236 80L234 80ZM234 18L234 80L236 80L236 18L234 18ZM230 14C232.209 14 234 15.7909 234 18L236 18C236 14.6863 233.314 12 230 12L230 14ZM127.023 14L230 14L230 12L127.023 12L127.023 14ZM116.749 0.588604L126.214 13.5886L127.831 12.4114L118.366 -0.588609L116.749 0.588604ZM108.901 13.5886L118.366 0.588603L116.749 -0.588609L107.284 12.4114L108.901 13.5886ZM5.00001 14L108.092 14L108.092 12L5.00001 12L5.00001 14ZM1.00001 18C1.00001 15.7908 2.79086 14 5.00001 14L5.00001 12C1.68629 12 -0.999994 14.6863 -0.999994 18L1.00001 18ZM1 80L1.00001 18L-0.999994 18L-1 80L1 80ZM5 84C2.79086 84 1 82.2091 1 80L-1 80C-1 83.3137 1.68629 86 5 86L5 84ZM230 84L5 84L5 86L230 86L230 84Z" fill="#ACAFB6" mask="url(#path-1-inside-1_8823_255)"/>
</svg>