<svg width="72" height="71" viewBox="0 0 72 71" fill="none" xmlns="http://www.w3.org/2000/svg">
<g clip-path="url(#clip0_18188_21100)">
<path d="M4.93149 70.92H67.3151C66.9863 63.2852 60.1644 48.0156 35.5068 48.0156C10.8493 48.0156 4.8493 63.2852 4.93149 70.92Z" fill="#4A76FF"/>
<path d="M36.4932 9.92188C44.4893 9.9221 51.2493 15.4401 53.4717 23.0264C56.1918 23.8008 58.1924 26.396 58.1924 29.4805C58.1923 32.863 55.7867 35.6573 52.6641 36.1064C49.8725 42.5201 43.6823 46.9803 36.4932 46.9805C29.3236 46.9805 23.1473 42.5446 20.3447 36.1592C16.9754 35.9601 14.3019 33.0469 14.3018 29.4805C14.3018 26.1999 16.5639 23.4719 19.5488 22.9004C21.8087 15.3786 28.5409 9.92188 36.4932 9.92188Z" fill="#FFCCA8"/>
<path d="M35.7538 4.26272C20.9593 5.70389 17.4251 17.9024 17.5072 23.8215C25.2004 23.8215 28.9319 16.9584 29.8361 13.5268C33.5347 22.2768 41.9183 23.8215 55.7265 23.8215C53.9511 7.55683 41.6717 4.00536 35.7538 4.26272Z" fill="black"/>
<path d="M61.6441 70.6576H11.0961L8.7801 45.1666C8.56728 42.8242 10.4116 40.8047 12.7637 40.8047H59.5549C61.8808 40.8047 63.7163 42.7817 63.5439 45.1012L61.6441 70.6576Z" fill="#C7CDDC"/>
<path d="M33.041 36.9407C34.1095 36.2544 37.1342 35.2936 40.6849 36.9407" stroke="black" stroke-width="1.4" stroke-linecap="round"/>
<ellipse cx="32.0546" cy="28.7077" rx="1.47945" ry="1.80147" fill="black"/>
<ellipse cx="40.9316" cy="28.7077" rx="1.47945" ry="1.80147" fill="black"/>
</g>
<defs>
<clipPath id="clip0_18188_21100">
<rect width="72" height="70" fill="white" transform="translate(0 0.320312)"/>
</clipPath>
</defs>
</svg>
