<svg xmlns="http://www.w3.org/2000/svg" width="18" height="18" viewBox="0 0 18 18" fill="none">
  <path d="M15.4128 6.08392L9.84728 1.91306C9.61606 1.73979 9.28305 1.86129 9.21775 2.14275L8.43219 5.52874C8.37167 5.7896 8.20905 6.01529 7.98076 6.15526L2.53437 9.49462C2.29353 9.64228 2.27751 9.9863 2.50357 10.1557L9.56317 15.4462C9.78923 15.6157 10.1149 15.5037 10.189 15.2311L11.8652 9.06627C11.9354 8.80787 12.1064 8.58844 12.3398 8.45712L15.3691 6.75261C15.6209 6.61093 15.644 6.25719 15.4128 6.08392Z" fill="#EF4452"/>
  <path d="M2.88684 15.5871C2.63844 15.9186 2.70577 16.3887 3.03724 16.6371C3.3687 16.8855 3.83878 16.8181 4.08718 16.4867L2.88684 15.5871ZM5.41448 12.2143L2.88684 15.5871L4.08718 16.4867L6.61482 13.1138L5.41448 12.2143Z" fill="#7A7D84"/>
</svg>