<svg xmlns="http://www.w3.org/2000/svg" width="24" height="25" viewBox="0 0 24 25" fill="none">
  <rect x="3.13281" y="5.53516" width="16" height="9.6" rx="1" transform="rotate(-12.4305 3.13281 5.53516)" fill="white"/>
  <path d="M8.0542 9.25508L8.53392 9.6132C8.99957 9.96082 9.59339 10.0887 10.1609 9.96365L18.9811 8.01947C20.0598 7.7817 21.127 8.4634 21.3648 9.54207L22.932 16.6523C23.1698 17.731 22.4881 18.7981 21.4094 19.0359L6.85513 22.244C5.77645 22.4818 4.70927 21.8001 4.4715 20.7214L2.50864 11.8164C2.27087 10.7377 2.95257 9.67054 4.03124 9.43277L6.42726 8.90464C6.99474 8.77955 7.58855 8.90746 8.0542 9.25508Z" fill="#9297FF"/>
</svg>