<svg width="current" height="current" viewBox="0 0 22 22" fill="none" xmlns="http://www.w3.org/2000/svg">
<g id="Path">
<mask id="path-1-outside-1_8426_3315" maskUnits="userSpaceOnUse" x="0" y="0.599609" width="22" height="21" fill="black">
<rect fill="white" y="0.599609" width="22" height="21"/>
<path fill-rule="evenodd" clip-rule="evenodd" d="M11 2.59961C6.02917 2.59961 2 5.71257 2 9.55189C2 11.9396 3.5584 14.0446 5.93152 15.2966L4.93303 18.9441C4.84481 19.2664 5.21341 19.5233 5.49646 19.3365L9.87334 16.4478C10.2427 16.4835 10.6181 16.5043 11 16.5043C15.9705 16.5043 19.9999 13.3914 19.9999 9.55189C19.9999 5.71257 15.9705 2.59961 11 2.59961Z"/>
</mask>
<path d="M5.93152 15.2966L7.86055 15.8246L8.28433 14.2766L6.86475 13.5276L5.93152 15.2966ZM4.93303 18.9441L3.004 18.416L3.00398 18.4161L4.93303 18.9441ZM5.49646 19.3365L6.59794 21.0059L6.59814 21.0058L5.49646 19.3365ZM9.87334 16.4478L10.0655 14.4571L9.36174 14.3891L8.77166 14.7786L9.87334 16.4478ZM11 0.599609C5.43535 0.599609 0 4.15861 0 9.55189H4C4 7.26652 6.623 4.59961 11 4.59961V0.599609ZM0 9.55189C0 12.8802 2.16565 15.5711 4.9983 17.0655L6.86475 13.5276C4.95115 12.5181 4 10.9991 4 9.55189H0ZM4.0025 14.7685L3.004 18.416L6.86206 19.4722L7.86055 15.8246L4.0025 14.7685ZM3.00398 18.4161C2.39106 20.6554 4.89435 22.1299 6.59794 21.0059L4.39499 17.6672C5.53247 16.9166 7.29856 17.8774 6.86207 19.4721L3.00398 18.4161ZM6.59814 21.0058L10.975 18.117L8.77166 14.7786L4.39478 17.6673L6.59814 21.0058ZM9.68121 18.4386C10.1054 18.4795 10.5455 18.5043 11 18.5043V14.5043C10.6907 14.5043 10.38 14.4874 10.0655 14.4571L9.68121 18.4386ZM11 18.5043C16.5643 18.5043 21.9999 14.9454 21.9999 9.55189H17.9999C17.9999 11.8374 15.3767 14.5043 11 14.5043V18.5043ZM21.9999 9.55189C21.9999 4.15859 16.5643 0.599609 11 0.599609V4.59961C15.3767 4.59961 17.9999 7.26654 17.9999 9.55189H21.9999Z" fill="current" mask="url(#path-1-outside-1_8426_3315)"/>
</g>
</svg>
