<svg xmlns="http://www.w3.org/2000/svg" width="36" height="37" viewBox="0 0 36 37" fill="none">
  <g clip-path="url(#clip0_12466_6858)">
    <rect y="0.157227" width="36" height="36" rx="18" fill="#CFCFCF"/>
    <path fill-rule="evenodd" clip-rule="evenodd" d="M24.9993 16.0803C24.9994 16.9896 24.8184 17.8899 24.4668 18.73C24.1151 19.5701 23.5996 20.3334 22.9497 20.9764C22.2999 21.6194 21.5283 22.1295 20.6792 22.4775C19.83 22.8255 18.9199 23.0047 18.0007 23.0048C16.1444 23.005 14.364 22.2757 13.0513 20.9774C11.7385 19.679 11.0009 17.918 11.0007 16.0817C11.0006 15.1725 11.1816 14.2721 11.5332 13.4321C11.8849 12.592 12.4004 11.8287 13.0503 11.1857C14.3627 9.88706 16.143 9.15741 17.9993 9.15723C19.8556 9.15704 21.636 9.88633 22.9487 11.1847C24.2615 12.483 24.9991 14.244 24.9993 16.0803ZM18 25.123C7.92074 25.123 4 31.4682 4 34.4202C4 37.3708 12.3462 38.1572 18 38.1572C23.6538 38.1572 32 37.3708 32 34.4202C32 31.4682 28.0793 25.123 18 25.123Z" fill="white"/>
  </g>
  <defs>
    <clipPath id="clip0_12466_6858">
      <rect y="0.157227" width="36" height="36" rx="18" fill="white"/>
    </clipPath>
  </defs>
</svg>