<svg xmlns="http://www.w3.org/2000/svg" width="24" height="25" viewBox="0 0 24 25" fill="none">
  <path d="M12 9.19336C10.3431 9.19336 9 10.5365 9 12.1934C9 13.8502 10.3431 15.1934 12 15.1934C13.6569 15.1934 15 13.8502 15 12.1934C15 10.5365 13.6569 9.19336 12 9.19336Z" fill="#27272D"/>
  <path d="M12 4.19336C7.58172 4.19336 4 7.77508 4 12.1934C4 16.6116 7.58172 20.1934 12 20.1934C16.4183 20.1934 20 16.6116 20 12.1934C20 7.77508 16.4183 4.19336 12 4.19336Z" stroke="currentColor" stroke-width="2" stroke-linecap="round" stroke-linejoin="round"/>
  <path d="M12 9.19336C10.3431 9.19336 9 10.5365 9 12.1934C9 13.8502 10.3431 15.1934 12 15.1934C13.6569 15.1934 15 13.8502 15 12.1934C15 10.5365 13.6569 9.19336 12 9.19336Z" stroke="currentColor" stroke-width="2" stroke-linecap="round" stroke-linejoin="round"/>
  <path d="M12 9.19336C10.3431 9.19336 9 10.5365 9 12.1934C9 13.8502 10.3431 15.1934 12 15.1934C13.6569 15.1934 15 13.8502 15 12.1934C15 10.5365 13.6569 9.19336 12 9.19336Z" fill="currentColor"/>
</svg>