<svg width="41" height="42" viewBox="0 0 41 42" fill="none" xmlns="http://www.w3.org/2000/svg">
<g id="Arrow / Caret_Circle_Right">
<g id="Vector" filter="url(#filter0_b_4933_129680)">
<path d="M21 5.25C29.6985 5.25 36.75 12.3015 36.75 21C36.75 29.6985 29.6985 36.75 21 36.75C12.3015 36.75 5.25 29.6985 5.25 21C5.25 12.3015 12.3015 5.25 21 5.25Z" fill="#FAFAFA" fill-opacity="0.7"/>
<path d="M21 5.25C29.6985 5.25 36.75 12.3015 36.75 21C36.75 29.6985 29.6985 36.75 21 36.75C12.3015 36.75 5.25 29.6985 5.25 21C5.25 12.3015 12.3015 5.25 21 5.25Z" stroke="#E7E7E7" stroke-linecap="round" stroke-linejoin="round"/>
</g>
<path id="Vector_2" d="M19.25 15.75L24.5 21L19.25 26.25" stroke="#BDBDBD" stroke-linecap="round" stroke-linejoin="round"/>
</g>
<defs>
<filter id="filter0_b_4933_129680" x="0.75" y="0.75" width="40.5" height="40.5" filterUnits="userSpaceOnUse" color-interpolation-filters="sRGB">
<feFlood flood-opacity="0" result="BackgroundImageFix"/>
<feGaussianBlur in="BackgroundImageFix" stdDeviation="2"/>
<feComposite in2="SourceAlpha" operator="in" result="effect1_backgroundBlur_4933_129680"/>
<feBlend mode="normal" in="SourceGraphic" in2="effect1_backgroundBlur_4933_129680" result="shape"/>
</filter>
</defs>
</svg>
