<svg width="35" height="35" viewBox="0 0 35 35" fill="none" xmlns="http://www.w3.org/2000/svg">
<g id="Logo/Resource/Lets">
<path id="Union" d="M32.8642 32.1086C30.5185 33.4245 26.2296 30.7339 22.0794 25.7552C23.3937 29.773 23.3471 32.9789 21.6748 33.917C19.7899 34.9743 16.3694 32.8531 13.0824 28.915C13.5959 31.4203 13.2188 33.4478 11.8796 34.1991C9.65731 35.4457 5.62691 32.7055 2.87749 28.0786C0.128065 23.4518 -0.299227 18.6904 1.92311 17.4438C3.26226 16.6926 5.25796 17.3891 7.23428 19.0737C5.36745 14.3388 5.18696 10.4 7.07191 9.3426C8.7442 8.40453 11.6252 9.96834 14.5493 13.0831C12.1867 7.10189 11.933 2.14797 14.2787 0.832164C17.4535 -0.948705 24.1876 4.60909 29.3199 13.2458C34.4521 21.8826 36.039 30.3278 32.8642 32.1086Z" fill="white"/>
</g>
</svg>
