<svg width="28" height="28" viewBox="0 0 28 28" fill="none" xmlns="http://www.w3.org/2000/svg">
<g id="Interface / Checkbox_Fill">
<path id="Vector" d="M4.66675 8.40031V19.6003C4.66675 20.9071 4.66675 21.5602 4.92107 22.0593C5.14477 22.4983 5.50147 22.8556 5.94051 23.0793C6.43915 23.3334 7.09224 23.3334 8.39648 23.3334H19.6037C20.9079 23.3334 21.5601 23.3334 22.0587 23.0793C22.4978 22.8556 22.8556 22.4983 23.0793 22.0593C23.3334 21.5606 23.3334 20.9085 23.3334 19.6043V8.39648C23.3334 7.09224 23.3334 6.43915 23.0793 5.94051C22.8556 5.50147 22.4978 5.14477 22.0587 4.92107C21.5596 4.66675 20.9071 4.66675 19.6003 4.66675H8.40031C7.09352 4.66675 6.43964 4.66675 5.94051 4.92107C5.50147 5.14477 5.14477 5.50147 4.92107 5.94051C4.66675 6.43964 4.66675 7.09352 4.66675 8.40031Z" fill="#4D55F5" stroke="#4D55F5" stroke-width="1.53846" stroke-linecap="round" stroke-linejoin="round"/>
<path id="Vector_2" d="M9.33325 14L12.8333 17.5L18.6666 10.5" stroke="white" stroke-width="2" stroke-linecap="round" stroke-linejoin="round"/>
</g>
</svg>
