<svg width="22" height="22" viewBox="0 0 22 22" fill="none" xmlns="http://www.w3.org/2000/svg">
<path d="M8.62109 21.168C7.89453 21.168 7.28906 20.8789 6.80469 20.3008L0.757812 12.9766C0.546875 12.7344 0.398438 12.5 0.3125 12.2734C0.226562 12.0469 0.183594 11.8125 0.183594 11.5703C0.183594 11.0156 0.367188 10.5586 0.734375 10.1992C1.10938 9.83203 1.57812 9.64844 2.14062 9.64844C2.76562 9.64844 3.28516 9.90234 3.69922 10.4102L8.57422 16.4453L18.1484 1.31641C18.3906 0.949219 18.6406 0.691406 18.8984 0.542969C19.1641 0.386719 19.4883 0.308594 19.8711 0.308594C20.4336 0.308594 20.8984 0.488281 21.2656 0.847656C21.6328 1.20703 21.8164 1.66016 21.8164 2.20703C21.8164 2.41016 21.7812 2.62109 21.7109 2.83984C21.6406 3.05859 21.5312 3.28516 21.3828 3.51953L10.4727 20.2188C10.043 20.8516 9.42578 21.168 8.62109 21.168Z" fill="white" fill-opacity="0.55"/>
</svg>
