<svg width="12" height="12" viewBox="0 0 12 12" fill="none" xmlns="http://www.w3.org/2000/svg">
<g id="search-eye-line">
<path id="Vector (Stroke)" fill-rule="evenodd" clip-rule="evenodd" d="M1.60008 2.26683V4.40016H7.06675V2.26683H1.60008ZM1.60008 7.60016V9.7335H10.4001V7.60016H1.60008ZM1.33341 1.3335C0.965225 1.3335 0.666748 1.63197 0.666748 2.00016V4.66683C0.666748 5.03502 0.965225 5.3335 1.33341 5.3335H7.33342C7.7016 5.3335 8.00008 5.03502 8.00008 4.66683V2.00016C8.00008 1.63197 7.7016 1.3335 7.33342 1.3335H1.33341ZM1.33341 6.66683C0.965225 6.66683 0.666748 6.96531 0.666748 7.3335V10.0002C0.666748 10.3684 0.965225 10.6668 1.33341 10.6668H10.6667C11.0349 10.6668 11.3334 10.3684 11.3334 10.0002V7.3335C11.3334 6.96531 11.0349 6.66683 10.6667 6.66683H1.33341Z" fill="#FFC700"/>
</g>
</svg>
