<svg width="138" height="128" viewBox="0 0 138 128" fill="none" xmlns="http://www.w3.org/2000/svg">
<g id="Exclude">
<mask id="path-1-outside-1_7499_3246" maskUnits="userSpaceOnUse" x="-12.9279" y="-17.1447" width="185.564" height="161.406" fill="black">
<rect fill="white" x="-12.9279" y="-17.1447" width="185.564" height="161.406"/>
<path fill-rule="evenodd" clip-rule="evenodd" d="M68.4164 20.0045C62.7045 16.7067 55.4006 18.6638 52.1028 24.3757L49.3633 29.1208L39.0392 17.4327C36.7772 14.8718 32.6701 15.2837 30.9617 18.2428L15.8258 44.4588C14.1174 47.4179 15.8142 51.1807 19.163 51.8593L34.4473 54.9561L32.4828 58.3587C29.185 64.0706 31.1421 71.3745 36.854 74.6723L98.8375 110.458C104.549 113.756 111.853 111.799 115.151 106.087L126.886 85.762L130.085 87.6093C131.369 88.3505 132.977 88.2245 134.13 87.2923L144.835 78.6352C146.79 77.0542 146.551 74.0039 144.373 72.7467L136.221 68.0401C136.989 63.2872 134.817 58.341 130.4 55.7907L68.4164 20.0045ZM61.0045 49.2389C66.0715 52.1643 72.5506 50.4283 75.4761 45.3613C78.4015 40.2943 76.6654 33.8152 71.5984 30.8897C66.5314 27.9643 60.0523 29.7004 57.1269 34.7674C54.2014 39.8344 55.9375 46.3135 61.0045 49.2389Z"/>
</mask>
<path d="M49.3633 29.1208L38.121 39.0511L51.9267 54.6809L62.3536 36.6208L49.3633 29.1208ZM39.0392 17.4327L27.7969 27.363L39.0392 17.4327ZM30.9617 18.2428L17.9713 10.7428L30.9617 18.2428ZM15.8258 44.4588L2.83544 36.9588L15.8258 44.4588ZM19.163 51.8593L22.1418 37.158L22.1418 37.158L19.163 51.8593ZM34.4473 54.9561L47.4376 62.4561L57.8646 44.396L37.426 40.2548L34.4473 54.9561ZM32.4828 58.3587L45.4732 65.8587L32.4828 58.3587ZM115.151 106.087L102.161 98.5872L115.151 106.087ZM126.886 85.762L134.386 72.7716L121.395 65.2716L113.895 78.262L126.886 85.762ZM134.13 87.2923L124.698 75.629L124.698 75.629L134.13 87.2923ZM144.835 78.6352L135.403 66.9718L135.403 66.9718L144.835 78.6352ZM136.221 68.0401L121.413 65.6483L119.764 75.859L128.721 81.0305L136.221 68.0401ZM65.0932 31.8757C64.2489 33.3382 62.3789 33.8392 60.9164 32.9949L75.9164 7.01414C63.0301 -0.425783 46.5524 3.98939 39.1125 16.8757L65.0932 31.8757ZM62.3536 36.6208L65.0932 31.8757L39.1125 16.8757L36.3729 21.6208L62.3536 36.6208ZM27.7969 27.363L38.121 39.0511L60.6056 19.1905L50.2815 7.50244L27.7969 27.363ZM43.952 25.7428C40.5352 31.661 32.321 32.4848 27.7969 27.363L50.2815 7.50244C41.2334 -2.74115 24.805 -1.09357 17.9713 10.7428L43.952 25.7428ZM28.8162 51.9588L43.952 25.7428L17.9713 10.7428L2.83544 36.9588L28.8162 51.9588ZM22.1418 37.158C28.8394 38.515 32.2331 46.0407 28.8162 51.9588L2.83544 36.9588C-3.99828 48.7952 2.78904 63.8464 16.1843 66.5605L22.1418 37.158ZM37.426 40.2548L22.1418 37.158L16.1843 66.5605L31.4685 69.6574L37.426 40.2548ZM45.4732 65.8587L47.4376 62.4561L21.4569 47.4561L19.4924 50.8587L45.4732 65.8587ZM44.354 61.6819C45.8164 62.5262 46.3175 64.3962 45.4732 65.8587L19.4924 50.8587C12.0525 63.745 16.4677 80.2227 29.354 87.6626L44.354 61.6819ZM106.337 97.4681L44.354 61.6819L29.354 87.6626L91.3375 123.449L106.337 97.4681ZM102.161 98.5872C103.005 97.1248 104.875 96.6237 106.337 97.4681L91.3375 123.449C104.224 130.889 120.701 126.474 128.141 113.587L102.161 98.5872ZM113.895 78.262L102.161 98.5872L128.141 113.587L139.876 93.262L113.895 78.262ZM137.585 74.6189L134.386 72.7716L119.386 98.7524L122.585 100.6L137.585 74.6189ZM124.698 75.629C128.371 72.6584 133.494 72.2568 137.585 74.6189L122.585 100.6C129.244 104.444 137.583 103.791 143.562 98.9557L124.698 75.629ZM135.403 66.9718L124.698 75.629L143.562 98.9557L154.267 90.2986L135.403 66.9718ZM136.873 85.7371C129.934 81.7309 129.172 72.0101 135.403 66.9718L154.267 90.2986C164.407 82.0983 163.167 66.2768 151.873 59.7563L136.873 85.7371ZM128.721 81.0305L136.873 85.7371L151.873 59.7563L143.721 55.0497L128.721 81.0305ZM122.9 68.7811C121.748 68.1163 121.221 66.8395 121.413 65.6483L151.029 70.432C152.757 59.7349 147.886 48.5657 137.9 42.8003L122.9 68.7811ZM60.9164 32.9949L122.9 68.7811L137.9 42.8003L75.9164 7.01414L60.9164 32.9949ZM62.4857 37.8613C63.7024 35.7539 66.3971 35.0318 68.5045 36.2485L53.5045 62.2293C65.7459 69.2969 81.3989 65.1026 88.4664 52.8613L62.4857 37.8613ZM64.0984 43.8801C61.991 42.6634 61.269 39.9687 62.4857 37.8613L88.4664 52.8613C95.534 40.6199 91.3398 24.9669 79.0984 17.8993L64.0984 43.8801ZM70.1173 42.2674C68.9005 44.3748 66.2058 45.0968 64.0984 43.8801L79.0984 17.8993C66.857 10.8318 51.2041 15.026 44.1365 27.2674L70.1173 42.2674ZM68.5045 36.2485C70.6119 37.4652 71.334 40.16 70.1173 42.2674L44.1365 27.2674C37.0689 39.5087 41.2631 55.1617 53.5045 62.2293L68.5045 36.2485Z" fill="white" fill-opacity="0.16" mask="url(#path-1-outside-1_7499_3246)"/>
</g>
</svg>
