<svg width="30" height="30" viewBox="0 0 30 30" fill="none" xmlns="http://www.w3.org/2000/svg">
<g id="Frame 1437261213">
<rect id="Rectangle 4734" x="3.91406" y="6.26562" width="20" height="12" rx="1" transform="rotate(-12.4305 3.91406 6.26562)" fill="white"/>
<path id="Vector 1234" d="M9.88052 10.7806L10.8468 11.502C11.3125 11.8496 11.9063 11.9775 12.4738 11.8524L24.2108 9.26534C25.2895 9.02757 26.3567 9.70927 26.5944 10.7879L28.7687 20.6523C29.0065 21.7309 28.3248 22.7981 27.2461 23.0359L8.07672 27.2612C6.99805 27.499 5.93086 26.8173 5.6931 25.7386L3.02426 13.6309C2.7865 12.5522 3.46819 11.485 4.54687 11.2472L8.25359 10.4302C8.82106 10.3051 9.41487 10.433 9.88052 10.7806Z" fill="#9297FF"/>
</g>
</svg>
