<svg width="44" height="45" viewBox="0 0 44 45" fill="none" xmlns="http://www.w3.org/2000/svg">
<g id="Frame 26085908">
<path id="Vector (Stroke)" fill-rule="evenodd" clip-rule="evenodd" d="M28.4913 3.18689C29.0774 3.52703 29.3627 4.21791 29.1873 4.87248L25.6932 17.9125L33.2999 19.9507C33.8187 20.0897 34.2236 20.4955 34.3614 21.0146C34.4993 21.5337 34.3491 22.0869 33.9676 22.465L15.4664 40.8013C14.9851 41.2783 14.2437 41.3734 13.6576 41.0332C13.0714 40.6931 12.7862 40.0022 12.9616 39.3477L16.4556 26.3077L8.84897 24.2695C8.33017 24.1305 7.92529 23.7247 7.78744 23.2056C7.64959 22.6865 7.79981 22.1333 8.18129 21.7552L26.6825 3.41885C27.1638 2.94182 27.9052 2.84675 28.4913 3.18689ZM12.148 22.0476L18.681 23.7981C19.4812 24.0125 19.9561 24.835 19.7416 25.6352L17.2954 34.7648L30.0009 22.1725L23.4679 20.422C22.6677 20.2076 22.1928 19.3851 22.4072 18.5849L24.8535 9.45534L12.148 22.0476Z" fill="white" fill-opacity="0.44"/>
</g>
</svg>
