<svg width="44" height="45" viewBox="0 0 44 45" fill="none" xmlns="http://www.w3.org/2000/svg">
<g id="lucide:mouse-pointer-2">
<path id="Vector (Stroke)" fill-rule="evenodd" clip-rule="evenodd" d="M6.03702 6.28702C6.56203 5.76202 7.35184 5.6055 8.03738 5.89061L39.2041 18.8523C39.9077 19.1449 40.3569 19.8423 40.3324 20.604C40.3079 21.3657 39.8148 22.0328 39.0938 22.2796L26.3429 26.6444L22.031 39.3397C21.7856 40.062 21.1186 40.5569 20.3562 40.5824C19.5937 40.6078 18.8952 40.1584 18.6023 39.4541L5.64061 8.28738C5.3555 7.60184 5.51202 6.81203 6.03702 6.28702ZM10.7326 10.9826L20.1219 33.5593L23.1608 24.6121C23.3435 24.0741 23.7654 23.6512 24.303 23.4672L33.3255 20.3786L10.7326 10.9826Z" fill="white" fill-opacity="0.44"/>
</g>
</svg>
