<svg width="12" height="12" viewBox="0 0 12 12" fill="none" xmlns="http://www.w3.org/2000/svg">
<g id="mingcute:celebrate-fill">
<path id="Vector" fill-rule="evenodd" clip-rule="evenodd" d="M4.08553 3.67135L4.03803 3.62985L3.98653 3.59435C3.92342 3.55709 3.8529 3.53416 3.77994 3.52718C3.70699 3.52019 3.6334 3.52934 3.56437 3.55395C3.49534 3.57857 3.43257 3.61805 3.38049 3.66962C3.32842 3.72119 3.28832 3.78357 3.26303 3.85235L1.35003 9.04485L1.32503 9.11785C1.02853 10.0924 1.97903 11.0099 2.95503 10.6499L8.14753 8.73635L8.20553 8.71135C8.27529 8.67514 8.33554 8.62298 8.38137 8.55912C8.4272 8.49526 8.45733 8.42149 8.46931 8.3438C8.48129 8.26611 8.47479 8.1867 8.45033 8.11199C8.42587 8.03729 8.38414 7.96941 8.32853 7.91385L4.08553 3.67135Z" fill="#8444FF"/>
<path id="Vector_2" fill-rule="evenodd" clip-rule="evenodd" d="M10.1765 6.24786C9.63345 5.92186 9.00895 5.82586 8.55345 5.80186V5.80136C8.27791 5.78361 8.00129 5.79249 7.72745 5.82786C7.59748 5.84798 7.48068 5.9185 7.40234 6.02414C7.324 6.12977 7.29044 6.26202 7.30892 6.39223C7.3274 6.52244 7.39643 6.64012 7.50107 6.71979C7.60571 6.79946 7.73752 6.83469 7.86795 6.81786L8.02595 6.80236C8.18409 6.79187 8.34273 6.7912 8.50095 6.80036C8.88495 6.82036 9.32095 6.90036 9.66195 7.10536L9.71395 7.13286C9.83038 7.18597 9.96274 7.19242 10.0838 7.15087C10.2048 7.10933 10.3053 7.02296 10.3646 6.90954C10.4239 6.79612 10.4374 6.66429 10.4024 6.5412C10.3674 6.41811 10.2865 6.31312 10.1765 6.24786Z" fill="#8444FF"/>
<path id="Vector_3" fill-rule="evenodd" clip-rule="evenodd" d="M9.90843 4.54537C9.81585 4.45784 9.69336 4.40896 9.56597 4.40869H9.21197L9.15397 4.41219C9.02746 4.42724 8.91147 4.49 8.82967 4.58768C8.74788 4.68535 8.70646 4.81056 8.71386 4.93774C8.72126 5.06493 8.77693 5.18449 8.8695 5.27201C8.96208 5.35954 9.08457 5.40842 9.21197 5.40869H9.56597L9.62396 5.40519C9.75047 5.39015 9.86646 5.32738 9.94826 5.2297C10.0301 5.13203 10.0715 5.00682 10.0641 4.87964C10.0567 4.75245 10.001 4.63289 9.90843 4.54537Z" fill="#8444FF"/>
<path id="Vector_4" fill-rule="evenodd" clip-rule="evenodd" d="M9.53532 2.96523C9.53532 2.83264 9.48266 2.70549 9.38893 2.61173C9.29516 2.51799 9.16801 2.46533 9.03542 2.46533C8.90284 2.46533 8.77569 2.51799 8.68193 2.61173L8.32843 2.96523C8.28067 3.01135 8.24258 3.06652 8.21638 3.12752C8.19017 3.18853 8.17638 3.25414 8.1758 3.32052C8.17522 3.38691 8.18787 3.45275 8.21301 3.5142C8.23815 3.57565 8.27528 3.63148 8.32223 3.67842C8.36917 3.72537 8.425 3.7625 8.48645 3.78764C8.5479 3.81278 8.61374 3.82543 8.68013 3.82485C8.74652 3.82427 8.81213 3.81048 8.87313 3.78428C8.93413 3.75807 8.9893 3.71998 9.03542 3.67223L9.38893 3.31873C9.48266 3.22496 9.53532 3.09781 9.53532 2.96523Z" fill="#8444FF"/>
<path id="Vector_5" fill-rule="evenodd" clip-rule="evenodd" d="M8.12045 4.34721C8.11281 4.2257 8.06109 4.11115 7.97501 4.02505C7.92857 3.97856 7.87343 3.94218 7.81273 3.91702C7.75203 3.89186 7.68696 3.87891 7.62126 3.87891C7.55555 3.87891 7.49049 3.89186 7.42979 3.91702C7.36909 3.94218 7.31394 3.97906 7.26751 4.02555L6.73751 4.55555L6.69601 4.60255C6.6183 4.70305 6.58176 4.82935 6.59381 4.95581C6.60585 5.08227 6.66558 5.19941 6.76087 5.28343C6.85615 5.36744 6.97984 5.41204 7.10681 5.40816C7.23379 5.40429 7.35453 5.35222 7.44451 5.26255L7.97501 4.73205L8.01651 4.68505C8.09113 4.58885 8.12809 4.46872 8.12045 4.34721Z" fill="#8444FF"/>
<path id="Vector_6" d="M6.6815 1.39247C6.9055 2.06547 6.7855 2.80247 6.6455 3.31747C6.56136 3.63854 6.44581 3.95055 6.3005 4.24897C6.24129 4.36765 6.13736 4.45795 6.01157 4.50001C5.88578 4.54206 5.74844 4.53243 5.62975 4.47322C5.51107 4.41401 5.42077 4.31008 5.37871 4.18429C5.33666 4.0585 5.34629 3.92115 5.4055 3.80247C5.52145 3.56274 5.61356 3.31221 5.6805 3.05447C5.794 2.63847 5.851 2.18697 5.7635 1.81697L5.733 1.70897C5.71121 1.64644 5.70206 1.5802 5.70608 1.5141C5.71009 1.44801 5.7272 1.38337 5.7564 1.32394C5.7856 1.2645 5.82632 1.21147 5.87619 1.1679C5.92605 1.12433 5.98408 1.0911 6.04689 1.07014C6.10971 1.04918 6.17606 1.04091 6.24209 1.0458C6.30813 1.05069 6.37254 1.06865 6.43158 1.09864C6.49062 1.12863 6.54311 1.17004 6.58602 1.22048C6.62892 1.27092 6.66138 1.32938 6.6815 1.39247Z" fill="#8444FF"/>
</g>
</svg>
