<svg width="211" height="217" viewBox="0 0 211 217" fill="none" xmlns="http://www.w3.org/2000/svg">
<g id="Group 1422241695">
<path id="Union" fill-rule="evenodd" clip-rule="evenodd" d="M109.942 60.9875C125.5 75.1597 126.623 99.2608 112.451 114.819C98.279 130.377 74.178 131.5 58.6201 117.328C43.0621 103.155 41.9388 79.0545 56.111 63.4965C70.2832 47.9386 94.3843 46.8153 109.942 60.9875ZM128.205 119.018C142.868 97.5081 139.843 67.9343 120.043 49.8986C98.3613 30.1476 64.7731 31.7131 45.0221 53.3953C25.2711 75.0774 26.8366 108.666 48.5188 128.417C68.3199 146.454 98.0509 146.713 118.104 130.108L155.786 164.434C158.848 167.223 163.592 167.002 166.381 163.94C169.17 160.878 168.949 156.134 165.887 153.345L128.205 119.018Z" fill="white" fill-opacity="0.16"/>
<path id="Vector 195" d="M66.8306 75.3712C62.7647 79.9293 60.46 89.2934 64.4163 99.3522" stroke="white" stroke-opacity="0.16" stroke-width="15" stroke-linecap="round"/>
</g>
</svg>
