<svg width="26" height="26" viewBox="0 0 26 26" fill="none" xmlns="http://www.w3.org/2000/svg">
<path d="M18.6514 20.9433C17.2628 19.3925 15.2454 18.4167 13 18.4167C10.7546 18.4167 8.737 19.3925 7.34847 20.9433M13 22.75C7.61522 22.75 3.25 18.3848 3.25 13C3.25 7.61522 7.61522 3.25 13 3.25C18.3848 3.25 22.75 7.61522 22.75 13C22.75 18.3848 18.3848 22.75 13 22.75ZM13 15.1667C11.2051 15.1667 9.75 13.7116 9.75 11.9167C9.75 10.1217 11.2051 8.66667 13 8.66667C14.7949 8.66667 16.25 10.1217 16.25 11.9167C16.25 13.7116 14.7949 15.1667 13 15.1667Z" stroke="#4D55F5" stroke-width="2" stroke-linecap="round" stroke-linejoin="round"/>
</svg>
