<svg width="24" height="24" viewBox="0 0 24 24" fill="none" xmlns="http://www.w3.org/2000/svg">
<g id="Frame 26085901">
<path id="Subtract" fill-rule="evenodd" clip-rule="evenodd" d="M20.0842 21.4282C21.609 21.4282 22.573 19.7901 21.8326 18.4571L13.749 3.90304C12.987 2.53118 11.0141 2.53118 10.2521 3.90304L2.16852 18.4571C1.42812 19.7901 2.39206 21.4282 3.91694 21.4282H20.0842ZM11.0279 14.7206C11.0425 15.2459 11.4726 15.6641 11.9981 15.6641C12.5232 15.6641 12.9531 15.2465 12.9683 14.7216L13.1149 9.65448C13.1331 9.02647 12.629 8.50752 12.0007 8.50752C11.3729 8.50752 10.8689 9.02576 10.8864 9.65333L11.0279 14.7206ZM11.3798 18.6819C11.5721 18.79 11.7793 18.844 12.0013 18.844C12.2183 18.844 12.4206 18.79 12.608 18.6819C12.8004 18.5691 12.9533 18.4233 13.0668 18.2447C13.1851 18.0614 13.2443 17.864 13.2443 17.6525C13.2443 17.4456 13.1851 17.2529 13.0668 17.0743C12.9533 16.891 12.8004 16.7476 12.608 16.6442C12.4206 16.5408 12.2183 16.4891 12.0013 16.4891C11.7793 16.4891 11.5721 16.5408 11.3798 16.6442C11.1874 16.7476 11.0345 16.891 10.921 17.0743C10.8125 17.2529 10.7583 17.4456 10.7583 17.6525C10.7583 17.864 10.8125 18.0614 10.921 18.2447C11.0345 18.4233 11.1874 18.5691 11.3798 18.6819Z" fill="#FFBB38"/>
</g>
</svg>
