<svg viewBox="0 0 45 44" fill="none" xmlns="http://www.w3.org/2000/svg">
<path d="M37.624 4.99902C41.1995 4.99902 41.2421 8.99902 40.8164 10.999H14V4.99902L37.624 4.99902Z" fill="#40B69A"/>
<path d="M38 4.99902L10 4.99902C8.89543 4.99902 8 5.89446 8 6.99902L8 40.999H32.7456C33.8502 40.999 34.7456 40.1036 34.7456 38.999V9.2314C34.7456 8.16811 35.169 7.14858 35.9222 6.39804L36.4873 5.83484C36.6523 5.67044 36.8447 5.53611 37.0559 5.43793L38 4.99902Z" fill="url(#paint0_linear_418_166)"/>
<path d="M28.4491 35.999C28.4491 38.999 30.1497 40.5824 31 40.999H6.76656C3.7055 39.999 3.79053 37.249 4.21567 35.999H28.4491Z" fill="url(#paint1_linear_418_166)"/>
<path d="M14 12.999H28" stroke="white" stroke-width="2" stroke-linecap="round"/>
<path d="M14 17.999H23" stroke="white" stroke-width="2" stroke-linecap="round"/>
<path d="M14 22.999H18" stroke="white" stroke-width="2" stroke-linecap="round"/>
<defs>
<linearGradient id="paint0_linear_418_166" x1="11.5441" y1="5.05693" x2="29.9397" y2="41.2424" gradientUnits="userSpaceOnUse">
<stop stop-color="#56E0C0"/>
<stop offset="1" stop-color="#83F2D8"/>
</linearGradient>
<linearGradient id="paint1_linear_418_166" x1="13.4533" y1="31.2742" x2="18.0263" y2="41.1249" gradientUnits="userSpaceOnUse">
<stop stop-color="#5FCAB1"/>
<stop offset="1" stop-color="#44C0A2"/>
</linearGradient>
</defs>
</svg>
