<svg width="84" height="25" viewBox="0 0 84 25" fill="none" xmlns="http://www.w3.org/2000/svg">
<rect width="84" height="25" rx="2" fill="white"/>
<g clip-path="url(#clip0_18539_15637)">
<path d="M13.0057 14.1338C13.0057 14.8428 13.1613 15.3871 13.3647 15.7165C13.6314 16.1478 14.0292 16.3306 14.4347 16.3306C14.9578 16.3306 15.4362 16.2008 16.3584 14.9254C17.0971 13.9032 17.9676 12.4684 18.5532 11.5689L19.5451 10.0449C20.2341 8.98656 21.0316 7.81001 21.946 7.01252C22.6924 6.36162 23.4977 6 24.3081 6C25.6687 6 26.9647 6.78845 27.9565 8.2672C29.042 9.88672 29.5689 11.9266 29.5689 14.0317C29.5689 15.2832 29.3223 16.2027 28.9025 16.9292C28.497 17.6317 27.7066 18.3337 26.377 18.3337V16.3306C27.5155 16.3306 27.7996 15.2845 27.7996 14.0873C27.7996 12.3812 27.4018 10.4879 26.5256 9.13508C25.9037 8.1755 25.0978 7.58917 24.2112 7.58917C23.2523 7.58917 22.4806 8.3124 21.6134 9.60195C21.1524 10.2871 20.679 11.122 20.1476 12.0642L19.5625 13.1006C18.3873 15.1844 18.0896 15.659 17.502 16.4423C16.472 17.8138 15.5925 18.3337 14.4347 18.3337C13.0612 18.3337 12.1927 17.7389 11.6548 16.8426C11.2157 16.1123 11 15.154 11 14.0621L13.0057 14.1338Z" fill="#0081FB"/>
<path d="M12.5808 8.40862C13.5003 6.99121 14.8273 6 16.3494 6C17.2308 6 18.1071 6.26088 19.0221 7.008C20.023 7.82487 21.0897 9.16995 22.4206 11.3868L22.8978 12.1823C24.0498 14.1015 24.7053 15.0888 25.0888 15.5544C25.5822 16.1524 25.9276 16.3306 26.3764 16.3306C27.5149 16.3306 27.799 15.2845 27.799 14.0873L29.5683 14.0317C29.5683 15.2832 29.3217 16.2027 28.9019 16.9292C28.4964 17.6317 27.706 18.3337 26.3764 18.3337C25.5499 18.3337 24.8176 18.1542 24.0079 17.3902C23.3854 16.8039 22.6576 15.7623 22.0978 14.826L20.4324 12.0441C19.5968 10.648 18.8303 9.60711 18.3867 9.13572C17.9095 8.62881 17.296 8.01665 16.3171 8.01665C15.5247 8.01665 14.8519 8.57264 14.2888 9.42308L12.5808 8.40862Z" fill="url(#paint0_linear_18539_15637)"/>
<path d="M16.3177 8.01665C15.5254 8.01665 14.8525 8.57264 14.2894 9.42308C13.4932 10.6248 13.0057 12.4148 13.0057 14.1338C13.0057 14.8428 13.1613 15.3871 13.3647 15.7165L11.6548 16.8426C11.2157 16.1123 11 15.154 11 14.0621C11 12.0764 11.545 10.0068 12.5814 8.40862C13.501 6.99121 14.828 6 16.35 6L16.3177 8.01665Z" fill="url(#paint1_linear_18539_15637)"/>
<path d="M33.4678 6.39844H35.7879L39.7328 13.5352L43.6782 6.39844H45.948V18.1251H44.0554V9.13767L40.5955 15.3613H38.8197L35.3604 9.13767V18.1251H33.4678V6.39844ZM51.8785 10.7708C50.5212 10.7708 49.7037 11.7923 49.508 13.0573H54.1147C54.0198 11.7542 53.2681 10.7708 51.8785 10.7708ZM47.6315 13.778C47.6315 11.1162 49.3517 9.179 51.9114 9.179C54.4292 9.179 55.9325 11.0917 55.9325 13.92V14.4399H49.508C49.7359 15.8159 50.649 16.7432 52.1213 16.7432C53.2959 16.7432 54.0301 16.3848 54.7262 15.7294L55.7317 16.9608C54.7843 17.8319 53.5794 18.3343 52.0542 18.3343C49.2833 18.3343 47.6315 16.3138 47.6315 13.778ZM58.2274 10.9386L56.4852 10.9386V9.38887H58.2274V6.82592H60.0536V9.38887H62.7005V10.9386H60.0536V14.8667C60.0536 16.2079 60.4824 16.6845 61.5362 16.6845C62.0173 16.6845 62.293 16.6431 62.7005 16.5753V18.1083C62.1929 18.2517 61.7086 18.3175 61.1843 18.3175C59.2128 18.3175 58.2274 17.2404 58.2274 15.0843V10.9386ZM70.39 12.4458C70.0232 11.5198 69.2051 10.8379 68.0027 10.8379C66.44 10.8379 65.4397 11.9467 65.4397 13.7528C65.4397 15.5137 66.3606 16.6761 67.9278 16.6761C69.1599 16.6761 70.0394 15.9593 70.39 15.0675V12.4458ZM72.2161 18.1251H70.4236V16.9021C69.9225 17.6221 69.0107 18.3343 67.5339 18.3343C65.1588 18.3343 63.5716 16.3461 63.5716 13.7528C63.5716 11.135 65.1969 9.179 67.6346 9.179C68.8396 9.179 69.7849 9.66073 70.4236 10.5112V9.38887H72.2161V18.1251Z" fill="#192830"/>
</g>
<defs>
<linearGradient id="paint0_linear_18539_15637" x1="14.9384" y1="13.5552" x2="27.7241" y2="14.2009" gradientUnits="userSpaceOnUse">
<stop stop-color="#0064E1"/>
<stop offset="0.4" stop-color="#0064E1"/>
<stop offset="0.83" stop-color="#0073EE"/>
<stop offset="1" stop-color="#0082FB"/>
</linearGradient>
<linearGradient id="paint1_linear_18539_15637" x1="13.9058" y1="14.9758" x2="13.9058" y2="10.2619" gradientUnits="userSpaceOnUse">
<stop stop-color="#0082FB"/>
<stop offset="1" stop-color="#0064E0"/>
</linearGradient>
<clipPath id="clip0_18539_15637">
<rect width="61.2163" height="12.3337" fill="white" transform="translate(11 6)"/>
</clipPath>
</defs>
</svg>
