<svg width="1024" height="768" viewBox="0 0 1024 768" fill="none" xmlns="http://www.w3.org/2000/svg">
<g clip-path="url(#clip0_13428_29264)">
<rect width="1024" height="767.525" transform="translate(0 0.237305)" fill="black"/>
<path d="M613.641 157.147C663.352 159.141 754.417 149.287 720.98 93.9227C679.184 24.7173 567.095 116.991 638.338 140.06C695.333 158.514 731.746 159.141 742.828 157.147" stroke="#2CE282" stroke-width="3.79963" stroke-linecap="round"/>
<path d="M351.465 156.022L574.693 140.824" stroke="#2CE282" stroke-width="3.79963" stroke-linecap="round"/>
<path d="M121.531 96.3578H126.532C126.532 98.9111 126.443 101.482 126.266 104.071C126.088 106.66 125.84 109.231 125.521 111.784C126.691 116.359 128.447 120.827 130.787 125.189C133.128 129.551 135.947 133.293 139.245 136.413L135.575 139.818C133.022 137.3 130.752 134.428 128.766 131.2C126.78 127.938 125.131 124.622 123.819 121.253C123.003 124.657 121.992 127.991 120.787 131.254C119.616 134.481 118.198 137.548 116.531 140.456L112.063 138.116C113.8 135.066 115.272 131.856 116.478 128.487C117.684 125.118 118.659 121.661 119.404 118.114C120.148 114.568 120.68 110.969 120.999 107.316C121.354 103.663 121.531 100.01 121.531 96.3578ZM148.554 95.879H153.555V141.839H148.554V118.7H134.032V114.231H148.554V95.879ZM202.398 117.104V121.625H162.874V106.837H196.865V101.358H162.874V96.8365H201.866V111.359H167.874V117.104H202.398ZM204.366 126.36V130.881H193.887V142.318H188.886V130.881H175.907V142.318H170.906V130.881H160.374V126.36H204.366ZM249.219 141.307H211.238V128.062H216.238V136.839H249.219V141.307ZM243.208 95.879H248.209V110.348H254.698V114.87H248.209V129.711H243.208V95.879ZM220.441 95.879H225.441C228.562 95.879 231.133 96.7479 233.154 98.4856C235.211 100.188 236.24 102.475 236.24 105.348C236.24 108.22 235.211 110.525 233.154 112.263C231.133 114.001 228.562 114.87 225.441 114.87V120.242H239.538V124.711H208.206V120.242H220.441V114.87C217.32 114.87 214.749 114.001 212.728 112.263C210.706 110.525 209.696 108.22 209.696 105.348C209.696 102.475 210.706 100.188 212.728 98.4856C214.749 96.7479 217.32 95.879 220.441 95.879ZM225.441 100.347H220.441C218.703 100.347 217.302 100.808 216.238 101.73C215.21 102.652 214.696 103.858 214.696 105.348C214.696 106.873 215.21 108.096 216.238 109.018C217.302 109.905 218.703 110.348 220.441 110.348H225.441C227.179 110.348 228.58 109.905 229.644 109.018C230.707 108.096 231.239 106.873 231.239 105.348C231.239 103.858 230.707 102.652 229.644 101.73C228.58 100.808 227.179 100.347 225.441 100.347ZM267.05 95.879H272.05C272.05 97.2266 271.979 98.5565 271.837 99.8686C271.695 101.145 271.483 102.404 271.199 103.645C272.688 106.128 274.621 108.486 276.997 110.72C279.373 112.919 281.926 114.763 284.657 116.253L281.572 120.083C279.302 118.735 277.103 117.121 274.976 115.242C272.848 113.327 270.986 111.306 269.39 109.178C268.326 111.66 266.943 113.948 265.241 116.04C263.539 118.097 261.553 119.888 259.283 121.413L255.453 118.008C259.248 115.667 262.12 112.618 264.071 108.859C266.057 105.064 267.05 100.737 267.05 95.879ZM271.039 123.859H286.04C289.764 123.859 292.69 124.728 294.817 126.466C296.981 128.168 298.062 130.385 298.062 133.115C298.062 135.846 296.981 138.062 294.817 139.765C292.69 141.467 289.764 142.318 286.04 142.318H271.039C267.28 142.318 264.337 141.467 262.209 139.765C260.117 138.062 259.07 135.846 259.07 133.115C259.07 130.385 260.117 128.168 262.209 126.466C264.337 124.728 267.28 123.859 271.039 123.859ZM286.04 128.275H271.039C269.018 128.275 267.387 128.718 266.145 129.605C264.904 130.456 264.284 131.626 264.284 133.115C264.284 134.605 264.904 135.775 266.145 136.626C267.387 137.477 269.018 137.903 271.039 137.903H286.04C288.026 137.903 289.64 137.477 290.881 136.626C292.158 135.775 292.796 134.605 292.796 133.115C292.796 131.626 292.158 130.456 290.881 129.605C289.64 128.718 288.026 128.275 286.04 128.275ZM292.051 103.858V95.879H297.052V122.21H292.051V108.38H279.976V103.858H292.051ZM303.871 139.818V135.296H336.213V139.818H303.871ZM339.883 141.839V95.879H344.884V141.839H339.883ZM332.383 108.859C332.383 110.738 332.046 112.476 331.372 114.072C330.734 115.667 329.812 117.033 328.606 118.168C327.436 119.338 326.017 120.242 324.351 120.881C322.684 121.519 320.857 121.838 318.872 121.838C316.85 121.838 315.006 121.519 313.339 120.881C311.708 120.242 310.289 119.338 309.084 118.168C307.913 117.033 306.991 115.667 306.318 114.072C305.679 112.476 305.36 110.738 305.36 108.859C305.36 107.014 305.679 105.294 306.318 103.699C306.991 102.103 307.913 100.737 309.084 99.6026C310.289 98.4324 311.708 97.528 313.339 96.8897C315.006 96.2159 316.85 95.879 318.872 95.879C320.857 95.879 322.684 96.2159 324.351 96.8897C326.017 97.528 327.436 98.4324 328.606 99.6026C329.812 100.737 330.734 102.103 331.372 103.699C332.046 105.294 332.383 107.014 332.383 108.859ZM327.383 108.859C327.383 106.518 326.62 104.514 325.095 102.848C323.57 101.181 321.496 100.347 318.872 100.347C316.212 100.347 314.119 101.181 312.595 102.848C311.105 104.514 310.36 106.518 310.36 108.859C310.36 111.235 311.105 113.256 312.595 114.923C314.119 116.554 316.212 117.37 318.872 117.37C321.496 117.37 323.57 116.554 325.095 114.923C326.62 113.256 327.383 111.235 327.383 108.859ZM373.148 96.3578H378.149C378.149 98.9111 378.06 101.482 377.883 104.071C377.705 106.66 377.457 109.231 377.138 111.784C378.308 116.359 380.064 120.827 382.404 125.189C384.745 129.551 387.564 133.293 390.862 136.413L387.192 139.818C384.639 137.3 382.369 134.428 380.383 131.2C378.397 127.938 376.748 124.622 375.436 121.253C374.62 124.657 373.609 127.991 372.404 131.254C371.233 134.481 369.815 137.548 368.148 140.456L363.68 138.116C365.417 135.066 366.889 131.856 368.095 128.487C369.301 125.118 370.276 121.661 371.021 118.114C371.765 114.568 372.297 110.969 372.616 107.316C372.971 103.663 373.148 100.01 373.148 96.3578ZM400.171 95.879H405.172V141.839H400.171V95.879ZM414.012 96.8365H438.429V101.358H428.428C428.357 102.387 428.233 103.379 428.056 104.337C427.878 105.294 427.683 106.234 427.47 107.156C428.96 109.603 430.928 111.873 433.375 113.965C435.858 116.058 438.482 117.848 441.248 119.338L438.003 123.062C435.627 121.714 433.357 120.118 431.194 118.274C429.066 116.43 427.205 114.497 425.609 112.476C424.474 114.887 423.091 117.104 421.459 119.125C419.828 121.111 417.984 122.867 415.927 124.391L411.991 121.2C415.253 119.072 417.895 116.324 419.917 112.955C421.938 109.586 423.109 105.72 423.428 101.358H414.012V96.8365ZM458.483 107.369V111.837H451.993V124.232H446.993V95.879H451.993V107.369H458.483ZM451.993 126.838V142.318H446.993V131.36H414.491V126.838H451.993ZM499.826 118.7V141.839H494.825V95.879H499.826V114.231H506.315V118.7H499.826ZM491.155 135.296V139.818H459.823V135.296H468.813V113.859H473.813V135.296H491.155ZM486.314 126.838H481.314V101.358H461.844V96.8365H486.314V126.838ZM520.111 111.837H564.103V116.306H520.111V111.837ZM522.132 96.8365H539.633V109.869H534.633V101.358H522.132V96.8365ZM542.134 96.8365H561.603V109.869H556.603V101.358H542.134V96.8365ZM562.135 136.839V141.307H522.611V120.083H561.603V124.498H527.611V128.381H561.603V132.796H527.611V136.839H562.135ZM609.967 136.839V141.307H570.443V129.339H575.444V136.839H609.967ZM567.943 120.349H611.935V124.87H567.943V120.349ZM597.466 115.88H582.465C578.423 115.88 575.32 115.029 573.156 113.327C571.029 111.625 569.965 109.142 569.965 105.88C569.965 102.901 571.029 100.489 573.156 98.6451C575.32 96.8011 578.423 95.879 582.465 95.879H597.466C601.438 95.879 604.506 96.8011 606.669 98.6451C608.868 100.489 609.967 102.901 609.967 105.88C609.967 109.142 608.868 111.625 606.669 113.327C604.506 115.029 601.438 115.88 597.466 115.88ZM582.465 111.359H597.466C599.949 111.359 601.722 110.862 602.786 109.869C603.885 108.841 604.435 107.511 604.435 105.88C604.435 104.284 603.885 102.972 602.786 101.943C601.722 100.879 599.949 100.347 597.466 100.347H582.465C580.196 100.347 578.458 100.879 577.252 101.943C576.047 102.972 575.444 104.284 575.444 105.88C575.444 107.511 575.976 108.841 577.04 109.869C578.139 110.862 579.948 111.359 582.465 111.359ZM630.253 96.8365H654.669V101.358H644.722C644.615 102.457 644.473 103.539 644.296 104.603C644.154 105.631 643.977 106.642 643.764 107.635C645.254 110.082 647.222 112.369 649.669 114.497C652.116 116.59 654.722 118.38 657.488 119.87L654.243 123.54C651.867 122.193 649.598 120.615 647.435 118.806C645.307 116.962 643.445 115.029 641.849 113.008C640.714 115.419 639.313 117.636 637.647 119.657C636.015 121.643 634.189 123.398 632.168 124.923L628.231 121.732C631.565 119.498 634.242 116.678 636.264 113.274C638.285 109.834 639.438 105.862 639.721 101.358H630.253V96.8365ZM669.244 95.879V130.615H664.244V95.879H669.244ZM670.255 136.839V141.307H631.742V127.37H636.742V136.839H670.255ZM722.556 109.656V114.178H716.066V130.615H711.066V95.879H716.066V109.656H722.556ZM717.077 136.839V141.307H679.096V126.838H684.096V136.839H717.077ZM706.065 116.838V121.359H678.085V96.8365H703.086V101.358H683.085V116.838H706.065ZM764.909 141.839H759.909V95.879H764.909V141.839ZM730.385 106.358V130.349C730.385 132.371 730.776 133.789 731.556 134.605C732.336 135.42 733.364 135.828 734.641 135.828C735.882 135.828 736.893 135.42 737.673 134.605C738.489 133.789 738.897 132.371 738.897 130.349V106.358C738.897 104.372 738.489 102.972 737.673 102.156C736.893 101.305 735.882 100.879 734.641 100.879C733.364 100.879 732.336 101.305 731.556 102.156C730.776 102.972 730.385 104.372 730.385 106.358ZM725.385 130.349V106.358C725.385 104.621 725.616 103.131 726.077 101.89C726.573 100.613 727.247 99.5672 728.098 98.7515C728.949 97.9359 729.924 97.333 731.024 96.9429C732.159 96.5528 733.364 96.3578 734.641 96.3578C735.882 96.3578 737.053 96.5528 738.152 96.9429C739.287 97.333 740.28 97.9359 741.131 98.7515C741.982 99.5672 742.656 100.613 743.152 101.89C743.649 103.131 743.897 104.621 743.897 106.358V114.338H749.642V96.0918H754.642V141.307H749.642V118.859H743.897V130.349C743.897 132.122 743.649 133.63 743.152 134.871C742.656 136.112 741.982 137.14 741.131 137.956C740.28 138.772 739.287 139.357 738.152 139.712C737.053 140.102 735.882 140.297 734.641 140.297C733.364 140.297 732.159 140.102 731.024 139.712C729.924 139.357 728.949 138.772 728.098 137.956C727.247 137.14 726.573 136.112 726.077 134.871C725.616 133.63 725.385 132.122 725.385 130.349ZM780.718 96.3578H785.718C785.718 98.9111 785.63 101.482 785.452 104.071C785.275 106.66 785.027 109.231 784.708 111.784C785.878 116.359 787.633 120.827 789.974 125.189C792.314 129.551 795.134 133.293 798.432 136.413L794.761 139.818C792.208 137.3 789.938 134.428 787.952 131.2C785.966 127.938 784.317 124.622 783.005 121.253C782.19 124.657 781.179 127.991 779.973 131.254C778.803 134.481 777.384 137.548 775.718 140.456L771.249 138.116C772.987 135.066 774.459 131.856 775.664 128.487C776.87 125.118 777.845 121.661 778.59 118.114C779.335 114.568 779.867 110.969 780.186 107.316C780.541 103.663 780.718 100.01 780.718 96.3578ZM807.741 95.879H812.741V141.839H807.741V118.7H793.219V114.231H807.741V95.879ZM861.052 96.8365V120.349H822.06V96.8365H827.061V103.858H856.052V96.8365H861.052ZM863.552 125.349V129.87H844.083V142.318H839.083V129.87H819.56V125.349H863.552ZM827.061 115.88H856.052V108.38H827.061V115.88ZM893.405 139.818H869.414V96.8365H890.905V101.358H874.414V114.87H890.426V119.338H874.414V135.296H893.405V139.818ZM903.405 119.338H892.926V114.87H903.405V95.879H908.406V141.839H903.405V119.338Z" fill="white"/>
<path d="M145.547 183.222V270.218H132.256V183.222H145.547ZM82.2133 210.207V240.918C82.2133 245.818 83.1531 249.443 85.0326 251.792C86.9122 254.075 89.6308 255.216 93.1885 255.216C96.7462 255.216 99.4649 254.075 101.344 251.792C103.291 249.443 104.264 245.818 104.264 240.918V210.207C104.264 205.374 103.291 201.783 101.344 199.433C99.4649 197.084 96.7462 195.909 93.1885 195.909C89.6308 195.909 86.9122 197.084 85.0326 199.433C83.1531 201.783 82.2133 205.374 82.2133 210.207ZM69.4256 240.918V210.207C69.4256 201.615 71.5737 195.036 75.8698 190.472C80.2331 185.907 86.006 183.625 93.1885 183.625C100.438 183.625 106.245 185.907 110.608 190.472C114.971 195.036 117.153 201.615 117.153 210.207V240.918C117.153 249.51 114.971 256.055 110.608 260.552C106.245 265.05 100.438 267.298 93.1885 267.298C86.006 267.298 80.2331 265.05 75.8698 260.552C71.5737 256.055 69.4256 249.51 69.4256 240.918ZM207.793 223.901V234.776H160.872V204.166H190.776V195.506H160.872V184.632H203.665V214.94H173.76V223.901H207.793ZM236.087 183.222V238.3H222.796V222.491H207.894V211.214H222.796V203.864H207.894V192.486H222.796V183.222H236.087ZM236.087 242.126V271.125H222.796V254.007H162.785V242.126H236.087ZM258.963 267.601C257.889 267.131 256.815 266.661 255.741 266.191C254.734 265.721 253.727 265.218 252.72 264.681C251.713 264.211 250.706 263.741 249.699 263.271C248.693 262.801 247.686 262.298 246.679 261.761C253.123 250.215 257.553 237.83 259.97 224.606C262.386 211.382 263.595 197.889 263.595 184.128H276.986C276.986 188.962 276.852 193.828 276.584 198.728C276.315 203.629 275.879 208.529 275.275 213.429C276.349 217.524 277.725 221.652 279.403 225.814C281.081 229.909 283.028 233.869 285.243 237.696C287.391 241.589 289.774 245.281 292.392 248.771C295.077 252.262 297.93 255.417 300.951 258.236C300.078 258.975 299.205 259.713 298.333 260.452C297.527 261.19 296.722 261.895 295.916 262.566C295.044 263.304 294.171 264.009 293.298 264.681C292.493 265.419 291.687 266.157 290.882 266.896C286.787 262.868 283.028 258.27 279.604 253.101C276.248 247.865 273.362 242.428 270.945 236.789C269.535 242.227 267.824 247.563 265.81 252.799C263.863 257.968 261.581 262.902 258.963 267.601ZM313.336 227.627H288.767V214.839H313.336V183.222H326.627V270.218H313.336V227.627ZM416.175 184.632V196.815H365.528V184.632H416.175ZM419.498 254.41V266.392H364.621V254.41H371.871V204.468H384.659V254.41H392.21L398.151 204.468H410.939L404.998 254.41H419.498ZM440.743 183.222V270.218H427.452V183.222H440.743ZM470.365 221.484H532.692V233.869H456.973V184.632H531.786V196.916H470.365V221.484ZM536.015 254.612V266.896H452.744V254.612H536.015ZM621.822 240.314V271.125H608.531V252.296H548.52V240.314H621.822ZM621.822 183.222V236.487H609.135V215.04H601.584V236.487H589.199V183.625H601.584V203.461H609.135V183.222H621.822ZM582.755 184.632V233.467H546.607V184.632H558.891V198.225H570.47V184.632H582.755ZM558.891 222.391H570.47V209.2H558.891V222.391ZM702.006 241.421V263.069H688.614V242.327C688.614 239.709 688.111 237.696 687.104 236.286C686.097 234.876 684.486 233.903 682.271 233.366H671.799V263.069H658.508V186.545H680.257C687.507 186.545 693.246 188.525 697.475 192.486C701.771 196.446 703.919 201.85 703.919 208.697C703.919 213.463 702.879 217.49 700.798 220.78C698.784 224.069 696.166 226.418 692.944 227.828C695.831 228.902 698.046 230.647 699.59 233.064C701.201 235.48 702.006 238.266 702.006 241.421ZM679.25 198.829H671.799V221.082H679.25C682.54 221.082 685.225 220.075 687.306 218.061C689.454 215.98 690.528 213.026 690.528 209.2C690.528 205.71 689.521 203.125 687.507 201.447C685.56 199.702 682.808 198.829 679.25 198.829ZM711.289 186.545H750.961V198.829H724.58V217.255H748.142V229.54H724.58V250.886H752.874V263.069H711.289V186.545ZM806.651 211.415C806.651 219.336 804.57 225.445 800.408 229.741C796.246 234.037 790.138 236.185 782.082 236.185H773.624V263.069H760.333V186.545H782.082C790.138 186.545 796.246 188.727 800.408 193.09C804.57 197.386 806.651 203.494 806.651 211.415ZM793.36 211.415C793.36 206.784 792.252 203.528 790.037 201.648C787.889 199.769 784.902 198.829 781.075 198.829H773.624V223.901H781.075C784.902 223.901 787.889 222.995 790.037 221.182C792.252 219.303 793.36 216.047 793.36 211.415ZM846.948 241.421V208.294C846.948 204.736 846.009 202.118 844.129 200.44C842.317 198.695 839.665 197.822 836.175 197.822C832.55 197.822 829.831 198.695 828.019 200.44C826.273 202.118 825.401 204.736 825.401 208.294V241.421C825.401 244.979 826.273 247.597 828.019 249.275C829.831 250.953 832.55 251.792 836.175 251.792C839.665 251.792 842.317 250.953 844.129 249.275C846.009 247.597 846.948 244.979 846.948 241.421ZM860.34 207.287V242.327C860.34 249.174 858.192 254.477 853.896 258.236C849.6 262.063 843.693 263.976 836.175 263.976C828.522 263.976 822.581 262.063 818.352 258.236C814.123 254.477 812.009 249.174 812.009 242.327V207.287C812.009 200.44 814.123 195.104 818.352 191.277C822.581 187.451 828.522 185.538 836.175 185.538C843.693 185.538 849.6 187.451 853.896 191.277C858.192 195.104 860.34 200.44 860.34 207.287ZM912.146 241.421V263.069H898.755V242.327C898.755 239.709 898.251 237.696 897.244 236.286C896.237 234.876 894.626 233.903 892.411 233.366H881.939V263.069H868.648V186.545H890.397C897.647 186.545 903.386 188.525 907.615 192.486C911.911 196.446 914.059 201.85 914.059 208.697C914.059 213.463 913.019 217.49 910.938 220.78C908.924 224.069 906.306 226.418 903.084 227.828C905.971 228.902 908.186 230.647 909.73 233.064C911.341 235.48 912.146 238.266 912.146 241.421ZM889.39 198.829H881.939V221.082H889.39C892.68 221.082 895.365 220.075 897.446 218.061C899.594 215.98 900.668 213.026 900.668 209.2C900.668 205.71 899.661 203.125 897.647 201.447C895.7 199.702 892.948 198.829 889.39 198.829ZM961.806 198.829H945.796V263.573H932.404V198.829H917.301V186.545H961.806V198.829Z" fill="white"/>
<rect x="513.223" y="383.592" width="22.1459" height="489.222" fill="url(#paint0_linear_13428_29264)"/>
<g filter="url(#filter0_d_13428_29264)">
<path d="M859.05 505.56C858.508 510.75 853.861 514.52 848.671 513.978L197.071 449.652C194.429 449.377 192.025 448.002 190.448 445.865L138.152 375.018C135.251 371.087 135.824 365.593 139.474 362.346L205.262 303.813C207.246 302.048 209.882 301.199 212.524 301.475L864.124 365.801C869.315 366.342 873.084 370.989 872.542 376.18L859.05 505.56Z" fill="url(#paint1_linear_13428_29264)"/>
</g>
<path fill-rule="evenodd" clip-rule="evenodd" d="M765.761 410.601C755.963 409.579 747.191 416.694 746.169 426.492C745.21 435.691 751.422 443.984 760.292 445.811L759.121 457.048C759.068 457.555 759.627 457.895 760.053 457.615L775.46 447.481L790.447 449.044C800.245 450.066 809.017 442.951 810.039 433.153C811.061 423.354 803.946 414.583 794.148 413.561L765.761 410.601Z" fill="white"/>
<circle cx="763.658" cy="428.598" r="3.62387" transform="rotate(5.95374 763.658 428.598)" fill="#38EDF3"/>
<circle cx="778.076" cy="430.103" r="3.62387" transform="rotate(5.95374 778.076 430.103)" fill="#38EDF3"/>
<circle cx="792.49" cy="431.607" r="3.62387" transform="rotate(5.95374 792.49 431.607)" fill="#38EDF3"/>
<path d="M236.577 367.284C236.51 367.412 236.442 367.539 236.375 367.667C236.334 367.798 236.282 367.914 236.217 368.015C236.15 368.143 236.083 368.271 236.015 368.399C235.948 368.527 235.895 368.643 235.858 368.747C236.942 369.994 238.266 371.144 239.829 372.197C241.393 373.251 243.066 374.154 244.85 374.907C244.571 375.256 244.305 375.606 244.052 375.958C243.803 376.282 243.553 376.607 243.303 376.932C243.053 377.257 242.802 377.595 242.55 377.946C242.3 378.271 242.063 378.597 241.84 378.925C240.217 378.189 238.625 377.281 237.064 376.2C235.533 375.096 234.188 373.89 233.029 372.581C231.816 373.858 230.448 374.944 228.924 375.837C227.43 376.707 225.869 377.313 224.241 377.656C224.004 377.335 223.769 377 223.536 376.652C223.302 376.304 223.069 375.955 222.835 375.607C222.628 375.262 222.408 374.915 222.174 374.567C221.941 374.218 221.707 373.87 221.474 373.522C223.711 373.027 225.648 372.189 227.282 371.01C228.946 369.807 230.229 368.376 231.13 366.716L223.882 365.96L224.358 361.394L231.566 362.146L231.959 358.381L237.325 358.941L236.933 362.706L244.382 363.482L243.906 368.048L236.577 367.284ZM245.634 396.121L249.242 361.52L254.528 362.071L250.92 396.673L245.634 396.121ZM220.697 383.683L221.169 379.158L244.998 381.643L244.526 386.168L233.593 385.028L232.578 394.76L227.252 394.204L228.266 384.473L220.697 383.683ZM264.009 372.169C263.875 373.45 264.136 374.57 264.792 375.529C265.474 376.491 266.456 377.039 267.738 377.173C269.019 377.306 270.093 376.973 270.959 376.173C271.852 375.375 272.365 374.336 272.499 373.054C272.63 371.799 272.341 370.69 271.632 369.725C270.949 368.763 269.967 368.215 268.686 368.082C267.404 367.948 266.33 368.281 265.464 369.082C264.625 369.885 264.14 370.914 264.009 372.169ZM258.763 371.622C258.893 370.367 259.243 369.216 259.811 368.168C260.379 367.121 261.12 366.227 262.034 365.485C262.945 364.771 263.998 364.246 265.194 363.912C266.419 363.554 267.739 363.449 269.154 363.596C270.542 363.741 271.798 364.115 272.923 364.718C274.05 365.295 274.986 366.026 275.73 366.914C276.498 367.83 277.052 368.86 277.392 370.002C277.758 371.147 277.876 372.346 277.745 373.601C277.612 374.883 277.246 376.059 276.649 377.13C276.081 378.178 275.328 379.057 274.39 379.769C273.476 380.51 272.408 381.047 271.186 381.378C269.964 381.71 268.658 381.803 267.27 381.658C265.855 381.51 264.584 381.148 263.456 380.572C262.356 379.998 261.435 379.255 260.693 378.341C259.949 377.453 259.407 376.439 259.067 375.297C258.731 374.128 258.629 372.903 258.763 371.622ZM288.489 385.49L286.952 400.228L258.157 397.225L259.694 382.487L265.02 383.043L264.711 386.006L282.933 387.907L283.242 384.943L288.489 385.49ZM263.89 393.491L282.152 395.396L282.49 392.152L264.229 390.247L263.89 393.491ZM290.539 365.827L288.647 383.968L283.361 383.417L284.063 376.689L278.616 376.121L279.126 371.235L284.572 371.803L285.253 365.275L290.539 365.827ZM303.963 378.157L304.117 376.675C304.256 375.34 304.613 374.123 305.186 373.022C305.787 371.924 306.544 371.004 307.458 370.263C308.399 369.524 309.48 368.989 310.702 368.658C311.927 368.3 313.247 368.195 314.662 368.342C316.05 368.487 317.307 368.861 318.431 369.464C319.559 370.041 320.506 370.787 321.274 371.704C322.042 372.621 322.607 373.678 322.968 374.876C323.329 376.074 323.439 377.341 323.3 378.676L323.146 380.158C323.004 381.519 322.633 382.749 322.032 383.847C321.435 384.918 320.666 385.823 319.725 386.562C318.784 387.3 317.702 387.849 316.477 388.207C315.255 388.538 313.949 388.631 312.561 388.486C311.146 388.339 309.875 387.977 308.747 387.401C307.623 386.797 306.676 386.038 305.908 385.121C305.167 384.207 304.615 383.164 304.251 381.993C303.917 380.797 303.821 379.519 303.963 378.157ZM335.927 370.56L333.254 396.191L327.968 395.639L328.878 386.909L323.512 386.349L324.009 381.584L329.375 382.143L329.781 378.259L324.414 377.699L324.911 372.933L330.278 373.493L330.641 370.009L335.927 370.56ZM333.406 400.174L332.9 405.02L303.545 401.958L304.731 390.585L310.058 391.14L309.377 397.668L333.406 400.174ZM309.364 377.222L309.209 378.704C309.067 380.066 309.321 381.253 309.971 382.265C310.648 383.281 311.667 383.859 313.029 384.001C314.364 384.14 315.467 383.783 316.339 382.929C317.21 382.076 317.717 380.968 317.859 379.606L318.014 378.125C318.156 376.763 317.888 375.575 317.212 374.559C316.535 373.544 315.529 372.967 314.194 372.828C312.832 372.686 311.716 373.042 310.844 373.895C309.999 374.752 309.506 375.861 309.364 377.222ZM370.196 392.959L364.87 392.403L366.244 379.227L341.815 376.68L342.324 371.794L372.08 374.897L370.196 392.959ZM371.644 395.377L371.131 400.303L357.394 398.87L356.438 408.041L350.791 407.452L351.747 398.281L338.011 396.849L338.525 391.923L371.644 395.377ZM396.765 392.531L396.318 396.817L375.974 394.695L377.975 375.512L396.477 377.441L396.03 381.727L382.654 380.332L382.328 383.455L395.344 384.813L394.901 389.058L381.885 387.7L381.547 390.944L396.765 392.531ZM407.949 378.071L405.765 399.016L400.478 398.465L402.663 377.52L407.949 378.071ZM405.623 400.378L404.361 412.472L375.567 409.469L376.828 397.375L405.623 400.378ZM381.34 405.74L399.522 407.636L399.889 404.112L381.708 402.215L381.34 405.74ZM408.797 415.04C408.686 414.813 408.59 414.573 408.508 414.322C408.423 414.097 408.339 413.872 408.254 413.647C408.17 413.423 408.087 413.185 408.005 412.933C407.92 412.709 407.836 412.484 407.751 412.259C408.784 411.935 409.499 411.416 409.897 410.702C410.296 409.987 410.573 408.883 410.729 407.388L410.938 405.385L416.785 405.995L416.534 408.398C416.3 410.641 415.547 412.303 414.273 413.385C412.997 414.493 411.172 415.045 408.797 415.04ZM450.464 397.767C450.347 398.888 450.011 399.906 449.457 400.82C448.906 401.707 448.195 402.443 447.324 403.026C446.451 403.637 445.434 404.071 444.274 404.328C443.14 404.587 441.919 404.649 440.611 404.512C439.276 404.373 438.081 404.06 437.025 403.572C435.969 403.084 435.077 402.451 434.349 401.673C433.617 400.922 433.073 400.056 432.717 399.074C432.39 398.068 432.285 397.005 432.402 395.884C432.519 394.762 432.84 393.757 433.364 392.867C433.918 391.953 434.631 391.204 435.501 390.62C436.375 390.009 437.378 389.574 438.512 389.315C439.648 389.028 440.884 388.955 442.219 389.094C443.527 389.23 444.708 389.556 445.76 390.071C446.843 390.561 447.748 391.196 448.477 391.973C449.208 392.724 449.751 393.604 450.104 394.612C450.461 395.594 450.58 396.646 450.464 397.767ZM463.692 383.884L460.981 409.876L455.695 409.324L456.338 403.157L451.212 402.622L451.68 398.137L456.806 398.671L457.153 395.347L452.027 394.813L452.494 390.328L457.621 390.862L458.406 383.333L463.692 383.884ZM461.371 413.519L460.865 418.365L431.31 415.283L432.387 404.95L437.714 405.506L437.142 410.992L461.371 413.519ZM453.372 384.63L452.921 388.955L432.016 386.775L432.467 382.45L440.076 383.243L440.402 380.12L445.728 380.675L445.402 383.799L453.372 384.63ZM445.377 397.237C445.48 396.249 445.209 395.357 444.563 394.561C443.944 393.768 443.021 393.307 441.793 393.179C440.511 393.045 439.499 393.304 438.756 393.955C438.014 394.607 437.591 395.426 437.488 396.414C437.385 397.402 437.631 398.278 438.226 399.041C438.824 399.778 439.764 400.214 441.045 400.347C442.273 400.476 443.269 400.242 444.033 399.647C444.826 399.028 445.274 398.225 445.377 397.237ZM469.728 385.081L488.511 387.039L488.039 391.565L481.191 390.851C481.049 391.43 480.896 391.994 480.731 392.544C480.592 393.096 480.427 393.645 480.235 394.192C481.13 395.959 482.34 397.691 483.863 399.388C485.416 401.061 487.062 402.488 488.801 403.668C488.474 403.958 488.147 404.248 487.82 404.537C487.522 404.803 487.224 405.069 486.927 405.335C486.6 405.625 486.286 405.916 485.986 406.208C485.688 406.474 485.39 406.74 485.093 407.006C483.663 405.966 482.302 404.785 481.009 403.463C479.746 402.116 478.638 400.705 477.686 399.23C476.664 400.742 475.511 402.093 474.227 403.282C472.945 404.443 471.56 405.433 470.071 406.249C469.752 405.946 469.433 405.643 469.114 405.339C468.794 405.036 468.49 404.721 468.2 404.394C467.881 404.091 467.562 403.788 467.242 403.484C466.95 403.184 466.659 402.87 466.369 402.543C468.754 401.415 470.77 399.804 472.419 397.709C474.068 395.614 475.243 393.145 475.945 390.304L469.257 389.606L469.728 385.081ZM497.335 410.347L496.057 422.602L490.77 422.05L491.551 414.562L467.683 412.072L468.18 407.307L497.335 410.347ZM499.703 387.64L497.514 408.625L492.228 408.074L494.416 387.089L499.703 387.64ZM505.739 388.836L524.962 390.841L524.457 395.687L516.888 394.897C516.676 396.414 516.441 397.887 516.184 399.318C515.927 400.748 515.62 402.133 515.265 403.473C515.997 406.545 517.086 409.56 518.532 412.517C520.004 415.478 521.795 418.107 523.903 420.405C523.526 420.662 523.149 420.907 522.774 421.137C522.397 421.395 522.034 421.64 521.685 421.874C521.308 422.131 520.931 422.376 520.556 422.606C520.179 422.864 519.816 423.109 519.468 423.343C518.027 421.627 516.728 419.724 515.569 417.633C514.411 415.542 513.42 413.401 512.596 411.21C511.682 413.247 510.629 415.188 509.438 417.034C508.276 418.856 506.964 420.568 505.502 422.17C504.742 421.686 503.985 421.188 503.228 420.678C502.499 420.17 501.77 419.649 501.043 419.114C504.156 415.66 506.54 411.955 508.194 407.998C509.848 404.041 510.984 399.491 511.602 394.346L505.234 393.682L505.739 388.836ZM533.105 409.422L531.384 425.922L526.058 425.366L529.666 390.765L534.993 391.32L533.635 404.336L538.121 404.804L537.59 409.89L533.105 409.422ZM571.271 395.67L570.766 400.516L550.622 398.415L551.127 393.57L571.271 395.67ZM569.699 423.562L569.202 428.327L547.376 426.051L547.873 421.285L550.756 421.586L552.828 401.722L557.914 402.253L555.842 422.116L558.846 422.43L563.28 402.812L568.366 403.343L563.932 422.96L569.699 423.562ZM581.102 396.129L577.493 430.73L572.207 430.179L575.815 395.578L581.102 396.129ZM591.296 412.576L616.086 415.161L615.572 420.087L585.456 416.946L587.499 397.363L617.254 400.466L616.745 405.352L592.315 402.804L591.296 412.576ZM616.034 428.475L615.524 433.36L582.404 429.907L582.914 425.021L616.034 428.475ZM650.755 426.347L649.477 438.602L644.191 438.05L644.972 430.561L621.103 428.072L621.6 423.307L650.755 426.347ZM653.123 403.64L650.914 424.825L645.868 424.299L646.757 415.769L643.754 415.455L642.864 423.986L637.938 423.472L640.131 402.447L645.057 402.961L644.234 410.85L647.238 411.163L648.077 403.114L653.123 403.64ZM637.526 402.58L635.501 422.003L621.123 420.504L623.149 401.081L628.035 401.59L627.471 406.997L632.076 407.477L632.64 402.07L637.526 402.58ZM626.469 416.608L631.074 417.088L631.621 411.842L627.016 411.362L626.469 416.608ZM688.055 435.986L687.546 440.871L654.426 437.417L654.935 432.532L688.055 435.986ZM676.914 426.363L667.863 425.419C666.154 425.241 664.644 424.84 663.332 424.218C662.024 423.568 660.935 422.753 660.065 421.772C659.196 420.79 658.559 419.658 658.153 418.374C657.774 417.093 657.66 415.718 657.814 414.25C657.964 412.808 658.357 411.5 658.992 410.324C659.654 409.152 660.512 408.175 661.565 407.394C662.618 406.614 663.852 406.041 665.266 405.675C666.681 405.31 668.242 405.217 669.951 405.395L679.002 406.339C680.684 406.514 682.179 406.926 683.488 407.576C684.797 408.225 685.886 409.04 686.755 410.022C687.624 411.003 688.262 412.135 688.668 413.419C689.074 414.703 689.201 416.066 689.051 417.508C688.898 418.976 688.49 420.296 687.828 421.469C687.166 422.641 686.309 423.618 685.256 424.399C684.203 425.18 682.969 425.753 681.554 426.118C680.143 426.456 678.596 426.538 676.914 426.363ZM668.452 420.541L677.303 421.464C679.012 421.642 680.437 421.305 681.578 420.453C682.749 419.576 683.411 418.404 683.564 416.935C683.715 415.494 683.308 414.223 682.343 413.124C681.404 412.027 680.081 411.39 678.372 411.212L669.522 410.289C667.786 410.108 666.346 410.457 665.202 411.336C664.085 412.218 663.451 413.38 663.3 414.822C663.147 416.29 663.526 417.571 664.438 418.665C665.379 419.735 666.717 420.36 668.452 420.541ZM723.868 428.83L723.388 433.436L693.271 430.295L694.65 417.079L719.079 419.627L719.48 415.782L695.051 413.235L695.531 408.629L725.287 411.732L723.933 424.708L699.504 422.16L699.078 426.245L723.868 428.83ZM724.062 439.781L723.556 444.627L690.437 441.173L690.942 436.327L704.638 437.756L705.144 432.91L710.751 433.494L710.245 438.34L724.062 439.781Z" fill="#0E3436"/>
<rect x="564.281" y="310.138" width="293.531" height="48.5175" rx="24.2588" transform="rotate(5.95374 564.281 310.138)" fill="#FF9100"/>
<path d="M587.817 338.461L587.545 341.067C587.404 342.418 586.845 343.417 585.867 344.063C584.887 344.725 583.521 344.965 581.768 344.782C579.998 344.597 578.702 344.08 577.881 343.23C577.073 342.398 576.74 341.306 576.881 339.955L577.029 338.532L580.238 338.866L580.125 339.952C580.059 340.579 580.198 341.041 580.541 341.337C580.886 341.617 581.396 341.792 582.072 341.862C582.748 341.933 583.283 341.867 583.678 341.664C584.075 341.445 584.306 341.022 584.371 340.395L584.585 338.344C584.644 337.781 584.527 337.346 584.234 337.039C583.942 336.716 583.483 336.522 582.855 336.456L580.829 336.245L581.138 333.277L583.068 333.478C583.599 333.534 584.023 333.448 584.339 333.221C584.657 332.977 584.843 332.598 584.897 332.084L585.04 330.708C585.092 330.21 584.971 329.807 584.678 329.5C584.387 329.177 583.943 328.984 583.348 328.922C582.753 328.86 582.28 328.957 581.928 329.213C581.594 329.455 581.401 329.825 581.349 330.323L581.278 330.999L578.093 330.667L578.211 329.533C578.352 328.182 578.924 327.217 579.928 326.639C580.933 326.044 582.175 325.824 583.655 325.979C585.119 326.131 586.289 326.603 587.166 327.394C588.061 328.17 588.438 329.234 588.297 330.585L588.096 332.515C588.023 333.207 587.792 333.784 587.403 334.248C587.031 334.697 586.559 335.013 585.987 335.197C586.689 335.482 587.188 335.916 587.485 336.5C587.782 337.084 587.892 337.738 587.817 338.461ZM588.5 348.142C588.433 348.005 588.375 347.861 588.326 347.71C588.275 347.574 588.224 347.439 588.173 347.303C588.122 347.168 588.072 347.025 588.023 346.873C587.972 346.738 587.921 346.602 587.87 346.467C588.492 346.272 588.923 345.959 589.163 345.529C589.403 345.098 589.57 344.433 589.664 343.532L589.79 342.326L593.312 342.693L593.161 344.141C593.02 345.492 592.566 346.493 591.799 347.145C591.03 347.813 589.931 348.145 588.5 348.142ZM602.636 342.056L603.583 332.984C603.646 332.372 603.519 331.879 603.2 331.505C602.898 331.132 602.457 330.915 601.878 330.855C601.266 330.791 600.774 330.91 600.401 331.213C600.044 331.517 599.834 331.975 599.77 332.586L598.824 341.658C598.759 342.286 598.869 342.785 599.156 343.156C599.46 343.513 599.918 343.723 600.529 343.787C601.108 343.848 601.583 343.735 601.955 343.448C602.344 343.147 602.571 342.683 602.636 342.056ZM606.79 333.099L605.796 342.629C605.65 344.029 605.091 345.1 604.119 345.845C603.164 346.59 601.865 346.878 600.225 346.707C598.568 346.534 597.341 345.983 596.543 345.054C595.762 344.127 595.444 342.964 595.59 341.565L596.584 332.034C596.732 330.619 597.283 329.538 598.239 328.792C599.213 328.032 600.528 327.738 602.185 327.911C603.825 328.082 605.036 328.639 605.815 329.582C606.613 330.511 606.938 331.683 606.79 333.099ZM614.624 343.306L615.57 334.234C615.634 333.623 615.507 333.13 615.188 332.755C614.885 332.382 614.445 332.165 613.866 332.105C613.254 332.041 612.762 332.16 612.389 332.463C612.032 332.767 611.822 333.225 611.758 333.836L610.812 342.908C610.747 343.536 610.857 344.035 611.144 344.406C611.448 344.763 611.906 344.974 612.517 345.037C613.096 345.098 613.571 344.985 613.943 344.698C614.332 344.397 614.559 343.933 614.624 343.306ZM618.778 334.349L617.784 343.879C617.638 345.279 617.079 346.351 616.107 347.095C615.151 347.841 613.853 348.128 612.212 347.957C610.556 347.784 609.329 347.233 608.531 346.305C607.75 345.378 607.432 344.214 607.578 342.815L608.572 333.284C608.719 331.869 609.271 330.788 610.227 330.042C611.201 329.282 612.516 328.988 614.173 329.161C615.813 329.332 617.023 329.889 617.803 330.833C618.601 331.761 618.926 332.933 618.778 334.349ZM626.612 344.556L627.558 335.484C627.622 334.873 627.495 334.38 627.176 334.005C626.873 333.632 626.433 333.415 625.853 333.355C625.242 333.291 624.75 333.411 624.377 333.713C624.02 334.017 623.81 334.475 623.746 335.086L622.8 344.159C622.735 344.786 622.845 345.285 623.132 345.657C623.436 346.013 623.894 346.224 624.505 346.288C625.084 346.348 625.559 346.235 625.93 345.948C626.319 345.648 626.547 345.183 626.612 344.556ZM630.766 335.599L629.772 345.13C629.626 346.529 629.067 347.601 628.095 348.345C627.139 349.091 625.841 349.378 624.2 349.207C622.544 349.034 621.316 348.484 620.519 347.555C619.738 346.628 619.42 345.465 619.566 344.065L620.56 334.535C620.707 333.119 621.259 332.038 622.215 331.293C623.188 330.532 624.504 330.239 626.16 330.411C627.801 330.583 629.011 331.14 629.791 332.083C630.589 333.011 630.913 334.184 630.766 335.599ZM644.599 353.066L637.457 352.321C635.768 352.145 634.472 351.636 633.568 350.794C632.68 349.953 632.308 348.841 632.452 347.458C632.583 346.203 633.173 345.224 634.222 344.52C635.287 343.819 636.664 343.556 638.353 343.732L645.495 344.477C647.152 344.649 648.429 345.189 649.326 346.096C650.223 347.002 650.607 348.083 650.476 349.338C650.331 350.721 649.73 351.731 648.672 352.369C647.613 353.006 646.256 353.239 644.599 353.066ZM644.372 332.091L643.285 342.514L632.741 341.415L633.828 330.992L644.372 332.091ZM637.739 349.619L644.326 350.306C645.146 350.391 645.811 350.331 646.321 350.124C646.844 349.934 647.136 349.558 647.194 348.995C647.253 348.432 647.046 348.004 646.572 347.711C646.116 347.403 645.478 347.207 644.658 347.121L638.578 346.487C637.79 346.405 637.134 346.458 636.61 346.648C636.086 346.837 635.794 347.221 635.734 347.8C635.683 348.283 635.836 348.689 636.192 349.019C636.548 349.348 637.063 349.549 637.739 349.619ZM648.508 334.059L648.702 332.201L651.887 332.533L650.634 344.549L647.449 344.217L647.733 341.49L644.355 341.138L644.65 338.315L648.028 338.668L648.214 336.882L644.836 336.53L645.13 333.707L648.508 334.059ZM636.082 339.08L640.497 339.541L641.028 334.45L636.613 333.989L636.082 339.08ZM667.189 340.202C667.099 341.071 666.862 341.859 666.479 342.567C666.112 343.277 665.628 343.869 665.026 344.343C664.423 344.816 663.72 345.166 662.916 345.391C662.114 345.6 661.246 345.656 660.314 345.559C659.348 345.458 658.495 345.223 657.753 344.853C657.029 344.468 656.421 343.982 655.93 343.394C655.454 342.808 655.11 342.13 654.898 341.36C654.685 340.59 654.625 339.77 654.715 338.902C654.804 338.049 655.031 337.276 655.396 336.582C655.763 335.873 656.24 335.272 656.828 334.78C657.43 334.307 658.125 333.956 658.913 333.73C659.717 333.504 660.602 333.442 661.567 333.543C662.5 333.64 663.336 333.882 664.076 334.268C664.817 334.654 665.432 335.141 665.924 335.729C666.414 336.333 666.765 337.02 666.977 337.79C667.208 338.546 667.278 339.35 667.189 340.202ZM664.077 339.878C664.174 338.945 663.974 338.135 663.476 337.449C662.98 336.747 662.25 336.346 661.285 336.245C660.32 336.145 659.522 336.387 658.892 336.971C658.264 337.54 657.901 338.291 657.803 339.224C657.704 340.173 657.904 340.99 658.401 341.676C658.899 342.362 659.63 342.756 660.595 342.856C661.56 342.957 662.357 342.723 662.986 342.154C663.614 341.586 663.978 340.827 664.077 339.878ZM668.223 355.31L670.397 334.464L673.582 334.796L671.408 355.642L668.223 355.31ZM652.672 352.884L652.976 349.964L667.236 351.451L666.931 354.371L652.672 352.884ZM689.379 353.663L689.077 356.558L680.826 355.698L682.869 336.106L690.662 336.919L690.358 339.838L685.773 339.36L684.336 353.137L689.379 353.663ZM695.875 337.218L693.736 357.727L690.575 357.397L691.559 347.963L687.53 347.543L687.849 344.479L691.879 344.899L692.714 336.889L695.875 337.218ZM698.753 358.494L695.569 358.162L697.743 337.316L700.928 337.648L698.753 358.494ZM722.623 339.91L720.449 360.757L717.264 360.425L719.438 339.578L722.623 339.91ZM706.772 344.794L706.005 352.153C705.882 353.327 706.017 354.219 706.409 354.829C706.802 355.423 707.425 355.764 708.277 355.853C709.13 355.942 709.81 355.737 710.317 355.237C710.843 354.722 711.166 353.878 711.289 352.704L712.056 345.345C712.177 344.187 712.034 343.302 711.626 342.69C711.234 342.08 710.612 341.731 709.76 341.642C708.907 341.553 708.226 341.767 707.717 342.283C707.208 342.799 706.893 343.636 706.772 344.794ZM702.941 351.833L703.708 344.474C703.923 342.415 704.602 340.893 705.745 339.906C706.905 338.922 708.345 338.519 710.067 338.698C711.804 338.88 713.138 339.572 714.07 340.774C715.001 341.977 715.359 343.608 715.145 345.667L714.377 353.026C714.163 355.085 713.476 356.599 712.318 357.567C711.16 358.536 709.713 358.93 707.976 358.749C706.254 358.569 704.927 357.886 703.994 356.699C703.077 355.514 702.726 353.892 702.941 351.833ZM735.34 361.383L724.217 360.223L726.26 340.631L736.418 341.69L736.113 344.61L729.164 343.885L728.644 348.88L735.375 349.582L735.071 352.501L728.339 351.799L727.728 357.662L735.642 358.488L735.34 361.383ZM739.971 352.988L736.014 352.575L736.334 349.511L740.291 349.924L741.134 341.841L744.319 342.173L742.145 363.019L738.96 362.687L739.971 352.988ZM746.218 351.834L766.172 353.915L765.933 356.208L745.979 354.127L746.218 351.834ZM764.42 363.001L764.191 365.197L746.046 363.304L746.59 358.093L761.308 359.628L761.394 358.807L746.675 357.272L746.907 355.053L764.834 356.922L764.291 362.134L749.572 360.599L749.484 361.443L764.42 363.001ZM765.685 350.865L765.456 353.06L747.312 351.168L747.856 345.956L762.574 347.491L762.659 346.671L747.941 345.136L748.173 342.916L766.1 344.786L765.554 350.022L750.836 348.487L750.75 349.307L765.685 350.865ZM793.445 347.638L792.121 360.329L774.194 358.459L775.518 345.768L778.727 346.103L778.365 349.577L789.874 350.777L790.236 347.303L793.445 347.638ZM792.709 364.512L792.402 367.456L772.449 365.375L772.756 362.431L781.007 363.292L781.34 360.107L784.717 360.459L784.385 363.644L792.709 364.512ZM777.705 355.899L789.214 357.099L789.569 353.697L778.06 352.497L777.705 355.899ZM808.184 359.541L802.055 358.902C801.09 358.801 800.226 358.589 799.463 358.265C798.702 357.926 798.072 357.494 797.574 356.971C797.076 356.447 796.707 355.848 796.469 355.173C796.246 354.499 796.177 353.76 796.261 352.956C796.427 351.363 797.131 350.144 798.374 349.298C799.634 348.438 801.23 348.108 803.16 348.309L809.288 348.948C810.238 349.047 811.085 349.266 811.83 349.604C812.591 349.943 813.229 350.376 813.743 350.901C814.242 351.424 814.609 352.032 814.846 352.723C815.085 353.398 815.163 354.13 815.081 354.918C814.997 355.723 814.768 356.431 814.396 357.042C814.023 357.654 813.539 358.164 812.943 358.574C812.332 358.981 811.618 359.273 810.803 359.448C810.006 359.609 809.133 359.64 808.184 359.541ZM802.408 355.987L808.416 356.614C809.381 356.714 810.159 356.584 810.749 356.223C811.356 355.863 811.698 355.314 811.775 354.574C811.851 353.85 811.629 353.241 811.112 352.748C810.612 352.241 809.879 351.937 808.914 351.836L802.906 351.21C801.941 351.109 801.162 351.255 800.568 351.649C799.976 352.026 799.642 352.577 799.566 353.3C799.489 354.04 799.702 354.648 800.205 355.123C800.709 355.598 801.443 355.886 802.408 355.987ZM814.853 362.48L814.546 365.424L810.275 364.978L809.722 370.286L806.513 369.952L807.066 364.644L802.072 364.123L801.518 369.431L798.333 369.099L798.887 363.791L794.592 363.343L794.899 360.399L814.853 362.48ZM828.781 360.176C828.71 360.852 828.508 361.465 828.174 362.016C827.842 362.55 827.414 362.993 826.889 363.345C826.363 363.713 825.751 363.974 825.051 364.129C824.369 364.285 823.633 364.323 822.845 364.24C822.04 364.156 821.32 363.968 820.684 363.674C820.048 363.38 819.511 362.998 819.072 362.53C818.631 362.077 818.304 361.555 818.089 360.964C817.892 360.358 817.829 359.717 817.899 359.042C817.97 358.366 818.163 357.76 818.479 357.224C818.813 356.673 819.242 356.222 819.766 355.871C820.293 355.503 820.897 355.24 821.58 355.084C822.265 354.912 823.009 354.867 823.814 354.951C824.602 355.033 825.313 355.229 825.947 355.539C826.599 355.835 827.145 356.217 827.584 356.686C828.024 357.138 828.351 357.668 828.564 358.276C828.779 358.867 828.851 359.501 828.781 360.176ZM834.894 369.619L834.589 372.538L817.024 370.707L817.673 364.482L820.858 364.814L820.513 368.119L834.894 369.619ZM838.4 357.984L838.083 361.025L835.38 360.743L834.683 367.426L831.474 367.092L833.107 351.433L836.316 351.767L835.697 357.703L838.4 357.984ZM830.533 352.262L830.261 354.867L817.667 353.554L817.938 350.948L822.523 351.426L822.719 349.544L825.928 349.879L825.732 351.761L830.533 352.262ZM825.717 359.857C825.779 359.262 825.615 358.724 825.226 358.245C824.853 357.767 824.297 357.489 823.557 357.412C822.785 357.332 822.175 357.488 821.728 357.88C821.28 358.272 821.025 358.766 820.963 359.361C820.901 359.956 821.049 360.484 821.408 360.944C821.768 361.388 822.334 361.651 823.106 361.731C823.846 361.808 824.446 361.668 824.907 361.309C825.384 360.936 825.654 360.452 825.717 359.857Z" fill="white"/>
<g filter="url(#filter1_d_13428_29264)">
<path d="M246.128 554.761C245.576 549.571 249.336 544.917 254.526 544.365L773.643 489.177C776.311 488.893 778.974 489.757 780.967 491.553L851.937 555.489C855.522 558.719 856.098 564.132 853.271 568.044L797.331 645.472C795.76 647.647 793.338 649.051 790.67 649.335L271.552 704.523C266.363 705.075 261.708 701.315 261.157 696.125L246.128 554.761Z" fill="url(#paint2_linear_13428_29264)"/>
<path d="M317.129 634.568C316.682 634.427 316.235 634.285 315.788 634.144C315.368 634 314.946 633.842 314.523 633.671C314.103 633.527 313.683 633.382 313.263 633.238C312.842 633.094 312.421 632.936 311.998 632.765C314.072 627.902 315.31 622.789 315.712 617.429C316.114 612.068 316.024 606.652 315.442 601.18L320.768 600.613C320.972 602.535 321.124 604.476 321.225 606.436C321.325 608.396 321.359 610.363 321.326 612.337C321.926 613.92 322.647 615.504 323.491 617.088C324.331 618.645 325.273 620.138 326.315 621.565C327.334 623.023 328.438 624.39 329.626 625.668C330.842 626.942 332.109 628.076 333.43 629.069C333.114 629.4 332.798 629.73 332.482 630.061C332.193 630.389 331.903 630.703 331.611 631.004C331.295 631.335 330.978 631.652 330.659 631.956C330.37 632.283 330.081 632.611 329.792 632.939C327.993 631.51 326.304 629.841 324.724 627.93C323.168 625.99 321.791 623.95 320.591 621.81C320.261 624.031 319.806 626.226 319.226 628.393C318.671 630.531 317.972 632.589 317.129 634.568ZM337.061 616.374L327.291 617.412L326.75 612.327L336.52 611.289L335.184 598.716L340.469 598.155L344.147 632.749L338.861 633.311L337.061 616.374ZM378.667 609.643L379.14 614.087L349.03 617.288L347.766 605.396L372.19 602.8L371.879 599.877L347.455 602.473L346.982 598.029L376.732 594.866L377.979 606.598L353.555 609.194L353.883 612.277L378.667 609.643ZM380.75 616.669L381.265 621.514L374.178 622.267L374.983 629.835L369.658 630.401L368.853 622.834L360.565 623.715L361.369 631.282L356.084 631.844L355.28 624.277L348.153 625.034L347.638 620.189L380.75 616.669ZM423.36 610.56L424.786 623.973L396.358 626.996L394.932 613.582L400.217 613.02L400.486 615.543L418.343 613.644L418.075 611.122L423.36 610.56ZM404.048 611.722L402.566 611.88C401.365 612.008 400.242 611.979 399.196 611.793C398.177 611.604 397.263 611.256 396.453 610.748C395.646 610.267 394.986 609.649 394.474 608.893C393.986 608.109 393.686 607.196 393.576 606.155C393.471 605.167 393.576 604.251 393.891 603.408C394.23 602.535 394.744 601.779 395.431 601.139C396.116 600.472 396.937 599.939 397.894 599.541C398.874 599.113 399.965 598.835 401.166 598.707L402.647 598.549C403.822 598.425 404.933 598.468 405.982 598.681C407.027 598.867 407.941 599.215 408.725 599.725C409.532 600.207 410.193 600.838 410.708 601.62C411.22 602.376 411.528 603.247 411.633 604.235C411.744 605.276 411.63 606.233 411.291 607.106C410.949 607.952 410.434 608.695 409.746 609.335C409.088 609.999 408.267 610.531 407.284 610.933C406.301 611.334 405.222 611.598 404.048 611.722ZM426.397 596.47L426.934 601.515L422.449 601.992L423.207 609.119L417.882 609.685L415.805 590.145L421.13 589.579L421.913 596.947L426.397 596.47ZM411.878 592.061L412.333 596.345L391.433 598.567L390.977 594.283L398.585 593.474L398.287 590.672L403.612 590.105L403.91 592.908L411.878 592.061ZM401.156 622.234L419.054 620.331L418.777 617.728L400.88 619.631L401.156 622.234ZM402.132 607.796L403.613 607.638C404.521 607.542 405.259 607.247 405.828 606.755C406.393 606.236 406.634 605.576 406.548 604.775C406.472 604.055 406.1 603.473 405.432 603.031C404.764 602.59 403.976 602.417 403.069 602.513L401.587 602.671C400.626 602.773 399.879 603.109 399.346 603.678C398.812 604.248 398.584 604.893 398.661 605.614C398.746 606.415 399.106 607.011 399.742 607.402C400.374 607.767 401.171 607.898 402.132 607.796ZM457.854 585.675L460.02 606.055L454.735 606.617L454.339 602.894L447.012 603.672L446.531 599.148L453.858 598.369L453.488 594.886L446.561 595.622L446.08 591.098L453.007 590.361L452.568 586.237L457.854 585.675ZM428.004 589.415L444.74 587.636L445.047 590.519C445.277 592.681 445.092 594.752 444.493 596.733C443.89 598.686 442.947 600.474 441.661 602.095C440.406 603.74 438.844 605.175 436.976 606.4C435.109 607.624 433.023 608.574 430.72 609.251C430.246 608.6 429.773 607.962 429.302 607.337C428.854 606.683 428.407 606.028 427.959 605.374C429.693 604.92 431.273 604.293 432.699 603.493C434.123 602.667 435.345 601.714 436.363 600.634C437.409 599.551 438.214 598.359 438.777 597.057C439.364 595.726 439.688 594.328 439.749 592.864L428.497 594.06L428.004 589.415ZM460.186 607.617L461.57 620.63L456.285 621.192L455.408 612.943L431.544 615.48L431.038 610.716L460.186 607.617ZM497.687 612.538L498.074 616.182L467.964 619.383L467.045 610.734L491.469 608.138L491.324 606.777L466.9 609.373L466.513 605.73L471.958 605.151L471.792 603.589L464.665 604.347L464.265 600.583L497.378 597.063L497.778 600.827L490.651 601.584L490.817 603.146L496.262 602.567L497.177 611.175L472.753 613.772L472.902 615.173L497.687 612.538ZM477.203 604.593L485.531 603.708L485.365 602.146L477.037 603.031L477.203 604.593ZM495.533 592.278L495.924 595.962L465.815 599.163L464.899 590.555L489.323 587.958L489.183 586.637L464.759 589.233L464.367 585.55L494.117 582.387L495.032 590.995L470.608 593.592L470.748 594.913L495.533 592.278ZM511.62 612.069L510.858 604.902C510.685 603.274 510.785 601.927 511.158 600.862C511.557 599.794 512.312 598.768 513.422 597.787L519.303 592.545C519.893 591.997 520.314 591.385 520.566 590.71C520.845 590.033 520.942 589.294 520.857 588.493C520.732 587.318 520.37 586.453 519.771 585.895C519.198 585.335 518.378 585.112 517.31 585.226C516.216 585.342 515.449 585.747 515.01 586.442C514.571 587.137 514.417 588.098 514.547 589.326L509.262 589.887C508.941 586.871 509.47 584.601 510.846 583.078C512.247 581.526 514.229 580.613 516.791 580.341C519.327 580.071 521.441 580.535 523.134 581.732C524.854 582.925 525.87 584.991 526.182 587.927C526.378 589.769 526.211 591.379 525.683 592.758C525.179 594.107 524.333 595.29 523.145 596.308L517.506 601.159C516.961 601.622 516.569 602.122 516.329 602.661C516.116 603.196 516.05 603.838 516.129 604.585L516.35 606.667L528.042 605.424L528.557 610.269L511.62 612.069ZM542.5 601.012L540.899 585.957C540.791 584.943 540.414 584.187 539.767 583.689C539.147 583.188 538.357 582.988 537.396 583.09C536.381 583.198 535.624 583.562 535.123 584.182C534.648 584.8 534.465 585.615 534.573 586.63L536.174 601.685C536.284 602.726 536.636 603.498 537.23 604.002C537.847 604.476 538.663 604.659 539.677 604.552C540.638 604.449 541.371 604.102 541.874 603.508C542.402 602.885 542.61 602.053 542.5 601.012ZM546.146 585.035L547.828 600.851C548.074 603.173 547.538 605.106 546.217 606.65C544.923 608.192 542.915 609.107 540.192 609.396C537.443 609.689 535.26 609.219 533.645 607.987C532.056 606.752 531.138 604.973 530.891 602.651L529.209 586.836C528.96 584.487 529.482 582.541 530.776 581C532.093 579.429 534.127 578.498 536.876 578.205C539.599 577.916 541.756 578.402 543.348 579.664C544.964 580.896 545.897 582.686 546.146 585.035ZM562.393 598.897L560.793 583.842C560.685 582.828 560.308 582.072 559.661 581.574C559.041 581.073 558.25 580.873 557.289 580.975C556.275 581.083 555.517 581.447 555.016 582.067C554.542 582.685 554.359 583.501 554.467 584.515L556.067 599.57C556.178 600.611 556.53 601.383 557.123 601.887C557.741 602.361 558.556 602.544 559.571 602.437C560.532 602.334 561.264 601.987 561.768 601.393C562.296 600.77 562.504 599.938 562.393 598.897ZM566.04 582.92L567.721 598.736C567.968 601.058 567.431 602.991 566.111 604.535C564.817 606.077 562.809 606.992 560.086 607.281C557.336 607.574 555.154 607.104 553.538 605.872C551.949 604.637 551.031 602.859 550.784 600.536L549.103 584.721C548.853 582.372 549.375 580.427 550.669 578.885C551.987 577.314 554.02 576.383 556.77 576.091C559.493 575.801 561.65 576.287 563.242 577.549C564.857 578.781 565.79 580.571 566.04 582.92ZM586.436 573.342L591.561 572.797L578.66 604.942L573.535 605.487L586.436 573.342ZM576.224 583.174L575.883 579.97C575.824 579.41 575.66 579.009 575.391 578.768C575.12 578.499 574.744 578.391 574.263 578.442C573.729 578.499 573.358 578.687 573.149 579.006C572.964 579.296 572.901 579.721 572.961 580.281L573.301 583.484C573.361 584.045 573.513 584.461 573.758 584.732C574.026 584.973 574.428 585.065 574.961 585.009C575.442 584.957 575.788 584.786 576 584.493C576.209 584.174 576.284 583.734 576.224 583.174ZM580.547 579.272L580.926 582.836C581.127 584.731 580.704 586.207 579.655 587.263C578.633 588.316 577.215 588.94 575.4 589.133C573.558 589.328 572.027 589.019 570.806 588.204C569.586 587.389 568.875 586.033 568.674 584.138L568.295 580.575C568.096 578.706 568.508 577.245 569.529 576.192C570.548 575.112 571.979 574.474 573.821 574.278C575.636 574.085 577.155 574.409 578.378 575.251C579.625 576.063 580.348 577.404 580.547 579.272ZM592.259 598.03L591.919 594.827C591.859 594.266 591.693 593.852 591.422 593.584C591.177 593.313 590.801 593.205 590.294 593.259C589.76 593.315 589.402 593.502 589.22 593.818C589.038 594.134 588.976 594.573 589.036 595.133L589.376 598.337C589.436 598.897 589.588 599.313 589.833 599.584C590.075 599.828 590.463 599.922 590.996 599.865C591.504 599.811 591.85 599.639 592.035 599.35C592.244 599.031 592.319 598.591 592.259 598.03ZM596.622 594.125L597.001 597.688C597.199 599.557 596.775 601.019 595.726 602.075C594.678 603.132 593.246 603.756 591.431 603.949C589.589 604.145 588.058 603.835 586.837 603.02C585.617 602.205 584.907 600.863 584.709 598.995L584.33 595.431C584.131 593.563 584.543 592.102 585.565 591.048C586.583 589.968 588.014 589.33 589.856 589.134C591.671 588.941 593.203 589.264 594.453 590.103C595.7 590.916 596.423 592.256 596.622 594.125ZM640.017 591.414L634.692 591.98L632.632 572.601L608.208 575.198L607.689 570.313L637.438 567.15L640.017 591.414ZM642.078 594.799L642.597 599.684L609.485 603.204L608.965 598.319L619.696 597.178L618.155 582.684L623.48 582.118L625.021 596.612L642.078 594.799ZM668.649 598.615L657.518 599.798C654.315 600.139 651.697 599.891 649.665 599.054C647.662 598.241 646.524 596.553 646.251 593.991C646.03 591.909 646.639 590.143 648.077 588.695C649.543 587.243 651.637 586.373 654.36 586.083L665.451 584.904C668.654 584.564 671.262 584.853 673.277 585.773C675.315 586.663 676.463 588.322 676.722 590.752C676.954 592.94 676.347 594.719 674.9 596.088C673.455 597.483 671.372 598.325 668.649 598.615ZM655.4 595.488L667.131 594.241C668.413 594.105 669.449 593.819 670.239 593.384C671.059 592.973 671.418 592.287 671.316 591.326C671.214 590.365 670.717 589.757 669.826 589.5C668.962 589.241 667.889 589.18 666.608 589.316L655.837 590.461C654.609 590.592 653.573 590.877 652.729 591.318C651.886 591.759 651.515 592.459 651.617 593.42C651.699 594.195 652.057 594.764 652.689 595.129C653.349 595.49 654.252 595.61 655.4 595.488ZM659.483 578.29L676.54 576.477L677.026 581.042L643.913 584.562L643.428 579.997L654.158 578.857L653.571 573.331L658.896 572.765L659.483 578.29ZM674.659 574.774L669.333 575.34L668.622 568.654L644.198 571.25L643.692 566.485L673.441 563.323L674.659 574.774ZM723.047 564.366L723.584 569.411L719.099 569.887L719.925 577.655L714.6 578.221L712.514 558.602L717.839 558.036L718.563 564.842L723.047 564.366ZM694.656 560.5L699.982 559.934C700.095 561.002 700.14 562.063 700.118 563.119C700.122 564.171 700.068 565.189 699.956 566.173C701.256 567.735 702.853 569.172 704.747 570.482C706.641 571.792 708.56 572.83 710.504 573.595L707.758 577.855C706.146 577.163 704.54 576.281 702.942 575.209C701.343 574.137 699.896 572.968 698.601 571.702C697.97 573.389 697.165 574.959 696.186 576.413C695.204 577.84 694.059 579.136 692.753 580.301L688.423 577.279C690.851 575.239 692.59 572.8 693.638 569.962C694.683 567.098 695.022 563.944 694.656 560.5ZM713.267 593.871L701.776 595.093C698.973 595.391 696.692 595.013 694.933 593.958C693.204 592.927 692.216 591.25 691.969 588.928C691.748 586.846 692.367 585.053 693.827 583.548C695.313 582.04 697.458 581.137 700.26 580.839L711.752 579.617C714.501 579.325 716.761 579.76 718.531 580.921C720.301 582.083 721.297 583.705 721.518 585.787C721.765 588.109 721.138 589.957 719.638 591.332C718.14 592.733 716.016 593.579 713.267 593.871ZM701.299 590.609L712.79 589.387C713.831 589.276 714.66 588.945 715.276 588.394C715.892 587.842 716.158 587.166 716.073 586.366C715.991 585.591 715.59 585 714.872 584.59C714.151 584.154 713.269 583.991 712.228 584.102L700.737 585.323C699.616 585.443 698.762 585.79 698.175 586.365C697.612 586.911 697.372 587.571 697.454 588.345C697.54 589.146 697.915 589.754 698.58 590.169C699.271 590.581 700.178 590.728 701.299 590.609ZM726.686 570.336L724.077 566.362C725.742 566.023 727.311 565.546 728.784 564.93C730.254 564.288 731.59 563.525 732.792 562.641C733.994 561.758 735.02 560.744 735.87 559.601C736.718 558.431 737.336 557.137 737.725 555.719L743.228 556.065C743.111 556.483 742.978 556.888 742.831 557.282C742.708 557.646 742.583 557.997 742.457 558.334C744.452 559.58 746.769 560.548 749.407 561.239C752.072 561.928 754.781 562.274 757.535 562.279L756.028 566.771C753.168 566.779 750.306 566.394 747.443 565.619C744.604 564.814 742.114 563.742 739.975 562.404C738.379 564.409 736.413 566.103 734.077 567.485C731.764 568.838 729.3 569.788 726.686 570.336ZM724.873 571.946L757.986 568.426L758.48 573.07L725.367 576.591L724.873 571.946ZM758.137 582.42C758.367 584.582 757.741 586.309 756.259 587.6C754.776 588.892 752.634 589.686 749.831 589.984L737.419 591.304C734.589 591.605 732.314 591.28 730.593 590.329C728.872 589.378 727.897 587.821 727.667 585.659C727.449 583.604 728.078 581.904 729.555 580.559C731.031 579.214 733.184 578.392 736.014 578.091L748.426 576.771C751.229 576.473 753.493 576.826 755.22 577.831C756.946 578.835 757.919 580.365 758.137 582.42ZM752.692 582.999C752.621 582.332 752.269 581.816 751.637 581.451C751.031 581.083 750.087 580.968 748.806 581.104L736.514 582.411C735.312 582.539 734.428 582.849 733.859 583.341C733.29 583.833 733.042 584.413 733.113 585.08C733.189 585.801 733.529 586.332 734.132 586.673C734.765 587.037 735.722 587.152 737.003 587.015L749.295 585.709C750.577 585.572 751.475 585.261 751.99 584.774C752.535 584.311 752.769 583.72 752.692 582.999ZM760.237 552.962L765.522 552.4L768.102 576.664L762.816 577.226L760.237 552.962ZM769.596 586.911L763.51 587.558L762.876 581.592L768.962 580.945L769.596 586.911Z" fill="#104328"/>
</g>
</g>
<defs>
<filter id="filter0_d_13428_29264" x="75.9069" y="241.026" width="857.085" height="333.402" filterUnits="userSpaceOnUse" color-interpolation-filters="sRGB">
<feFlood flood-opacity="0" result="BackgroundImageFix"/>
<feColorMatrix in="SourceAlpha" type="matrix" values="0 0 0 0 0 0 0 0 0 0 0 0 0 0 0 0 0 0 127 0" result="hardAlpha"/>
<feOffset/>
<feGaussianBlur stdDeviation="30.1989"/>
<feComposite in2="hardAlpha" operator="out"/>
<feColorMatrix type="matrix" values="0 0 0 0 0 0 0 0 0 0 0 0 0 0 0 0 0 0 0.8 0"/>
<feBlend mode="normal" in2="BackgroundImageFix" result="effect1_dropShadow_13428_29264"/>
<feBlend mode="normal" in="SourceGraphic" in2="effect1_dropShadow_13428_29264" result="shape"/>
</filter>
<filter id="filter1_d_13428_29264" x="205.809" y="448.858" width="689.519" height="295.984" filterUnits="userSpaceOnUse" color-interpolation-filters="sRGB">
<feFlood flood-opacity="0" result="BackgroundImageFix"/>
<feColorMatrix in="SourceAlpha" type="matrix" values="0 0 0 0 0 0 0 0 0 0 0 0 0 0 0 0 0 0 127 0" result="hardAlpha"/>
<feOffset/>
<feGaussianBlur stdDeviation="20.1326"/>
<feComposite in2="hardAlpha" operator="out"/>
<feColorMatrix type="matrix" values="0 0 0 0 0 0 0 0 0 0 0 0 0 0 0 0 0 0 0.25 0"/>
<feBlend mode="normal" in2="BackgroundImageFix" result="effect1_dropShadow_13428_29264"/>
<feBlend mode="normal" in="SourceGraphic" in2="effect1_dropShadow_13428_29264" result="shape"/>
</filter>
<linearGradient id="paint0_linear_13428_29264" x1="524.296" y1="383.592" x2="524.296" y2="872.814" gradientUnits="userSpaceOnUse">
<stop stop-color="#E8F9FD"/>
<stop offset="1" stop-color="#193029"/>
</linearGradient>
<linearGradient id="paint1_linear_13428_29264" x1="136.543" y1="366.631" x2="865.609" y2="442.664" gradientUnits="userSpaceOnUse">
<stop stop-color="#38EDF3"/>
<stop offset="1" stop-color="#00DDFF"/>
</linearGradient>
<linearGradient id="paint2_linear_13428_29264" x1="253.642" y1="625.443" x2="858.24" y2="561.167" gradientUnits="userSpaceOnUse">
<stop stop-color="#00FA76"/>
<stop offset="1" stop-color="#B2FFD6"/>
</linearGradient>
<clipPath id="clip0_13428_29264">
<rect width="1024" height="767.525" fill="white" transform="translate(0 0.237305)"/>
</clipPath>
</defs>
</svg>
