<svg width="1034" height="776" viewBox="0 0 1034 776" fill="none" xmlns="http://www.w3.org/2000/svg">
<g clip-path="url(#clip0_13486_8284)">
<rect width="1034" height="775.5" transform="translate(0 0.25)" fill="black"/>
<path d="M619.629 158.692C669.826 160.706 761.78 150.755 728.017 94.8504C685.813 24.9691 572.629 118.144 644.568 141.438C702.119 160.073 738.887 160.706 750.078 158.692" stroke="#CA60FF" stroke-width="3.83673" stroke-linecap="round"/>
<path d="M354.895 157.556L580.303 142.209" stroke="#CA60FF" stroke-width="3.83673" stroke-linecap="round"/>
<path d="M122.712 96.831H127.762C127.762 99.4093 127.672 102.006 127.493 104.62C127.314 107.234 127.063 109.83 126.741 112.408C127.923 117.028 129.695 121.54 132.059 125.944C134.422 130.349 137.269 134.127 140.599 137.278L136.893 140.716C134.315 138.173 132.023 135.273 130.018 132.014C128.012 128.719 126.347 125.371 125.022 121.969C124.199 125.407 123.178 128.773 121.96 132.068C120.779 135.326 119.346 138.424 117.663 141.36L113.151 138.997C114.906 135.917 116.392 132.676 117.61 129.274C118.827 125.873 119.812 122.381 120.564 118.8C121.316 115.219 121.853 111.585 122.175 107.896C122.533 104.208 122.712 100.519 122.712 96.831ZM149.999 96.3476H155.048V142.757H149.999V119.391H135.335V114.879H149.999V96.3476ZM204.368 117.78V122.345H164.459V107.413H198.782V101.88H164.459V97.3145H203.831V111.978H169.508V117.78H204.368ZM206.356 127.126V131.692H195.774V143.24H190.725V131.692H177.619V143.24H172.57V131.692H161.934V127.126H206.356ZM251.647 142.22H213.295V128.845H218.344V137.708H251.647V142.22ZM245.578 96.3476H250.627V110.958H257.18V115.524H250.627V130.51H245.578V96.3476ZM222.588 96.3476H227.637C230.788 96.3476 233.384 97.225 235.426 98.9796C237.502 100.698 238.541 103.008 238.541 105.909C238.541 108.809 237.502 111.137 235.426 112.892C233.384 114.646 230.788 115.524 227.637 115.524V120.949H241.871V125.461H210.234V120.949H222.588V115.524C219.437 115.524 216.84 114.646 214.799 112.892C212.758 111.137 211.738 108.809 211.738 105.909C211.738 103.008 212.758 100.698 214.799 98.9796C216.84 97.225 219.437 96.3476 222.588 96.3476ZM227.637 100.86H222.588C220.833 100.86 219.419 101.325 218.344 102.256C217.306 103.187 216.787 104.405 216.787 105.909C216.787 107.449 217.306 108.684 218.344 109.615C219.419 110.51 220.833 110.958 222.588 110.958H227.637C229.392 110.958 230.806 110.51 231.88 109.615C232.955 108.684 233.492 107.449 233.492 105.909C233.492 104.405 232.955 103.187 231.88 102.256C230.806 101.325 229.392 100.86 227.637 100.86ZM269.652 96.3476H274.701C274.701 97.7084 274.629 99.0512 274.486 100.376C274.343 101.665 274.128 102.937 273.841 104.19C275.345 106.697 277.297 109.078 279.696 111.334C282.096 113.554 284.674 115.416 287.431 116.92L284.316 120.788C282.024 119.427 279.804 117.798 277.655 115.9C275.507 113.966 273.627 111.925 272.015 109.776C270.941 112.283 269.544 114.593 267.825 116.705C266.107 118.782 264.101 120.591 261.809 122.13L257.942 118.693C261.774 116.329 264.674 113.25 266.644 109.454C268.649 105.622 269.652 101.254 269.652 96.3476ZM273.68 124.601H288.828C292.588 124.601 295.542 125.479 297.691 127.233C299.875 128.952 300.967 131.19 300.967 133.948C300.967 136.705 299.875 138.943 297.691 140.662C295.542 142.381 292.588 143.24 288.828 143.24H273.68C269.885 143.24 266.912 142.381 264.764 140.662C262.651 138.943 261.595 136.705 261.595 133.948C261.595 131.19 262.651 128.952 264.764 127.233C266.912 125.479 269.885 124.601 273.68 124.601ZM288.828 129.06H273.68C271.639 129.06 269.992 129.507 268.739 130.402C267.485 131.262 266.859 132.444 266.859 133.948C266.859 135.452 267.485 136.633 268.739 137.493C269.992 138.352 271.639 138.782 273.68 138.782H288.828C290.833 138.782 292.462 138.352 293.716 137.493C295.005 136.633 295.649 135.452 295.649 133.948C295.649 132.444 295.005 131.262 293.716 130.402C292.462 129.507 290.833 129.06 288.828 129.06ZM294.897 104.405V96.3476H299.947V122.936H294.897V108.97H282.704V104.405H294.897ZM306.832 140.716V136.15H339.491V140.716H306.832ZM343.197 142.757V96.3476H348.246V142.757H343.197ZM335.623 109.454C335.623 111.352 335.283 113.106 334.603 114.718C333.958 116.329 333.027 117.708 331.809 118.854C330.628 120.036 329.195 120.949 327.512 121.593C325.829 122.238 323.985 122.56 321.98 122.56C319.939 122.56 318.076 122.238 316.393 121.593C314.746 120.949 313.314 120.036 312.096 118.854C310.915 117.708 309.984 116.329 309.303 114.718C308.659 113.106 308.336 111.352 308.336 109.454C308.336 107.592 308.659 105.855 309.303 104.244C309.984 102.632 310.915 101.254 312.096 100.108C313.314 98.9259 314.746 98.0128 316.393 97.3682C318.076 96.6878 319.939 96.3476 321.98 96.3476C323.985 96.3476 325.829 96.6878 327.512 97.3682C329.195 98.0128 330.628 98.9259 331.809 100.108C333.027 101.254 333.958 102.632 334.603 104.244C335.283 105.855 335.623 107.592 335.623 109.454ZM330.574 109.454C330.574 107.09 329.804 105.067 328.264 103.384C326.724 101.701 324.63 100.86 321.98 100.86C319.294 100.86 317.181 101.701 315.641 103.384C314.137 105.067 313.385 107.09 313.385 109.454C313.385 111.853 314.137 113.894 315.641 115.577C317.181 117.225 319.294 118.048 321.98 118.048C324.63 118.048 326.724 117.225 328.264 115.577C329.804 113.894 330.574 111.853 330.574 109.454ZM376.787 96.831H381.836C381.836 99.4093 381.746 102.006 381.567 104.62C381.388 107.234 381.138 109.83 380.815 112.408C381.997 117.028 383.77 121.54 386.133 125.944C388.496 130.349 391.343 134.127 394.674 137.278L390.967 140.716C388.389 138.173 386.097 135.273 384.092 132.014C382.086 128.719 380.421 125.371 379.096 121.969C378.273 125.407 377.252 128.773 376.035 132.068C374.853 135.326 373.421 138.424 371.738 141.36L367.226 138.997C368.98 135.917 370.466 132.676 371.684 129.274C372.901 125.873 373.886 122.381 374.638 118.8C375.39 115.219 375.927 111.585 376.25 107.896C376.608 104.208 376.787 100.519 376.787 96.831ZM404.074 96.3476H409.123V142.757H404.074V96.3476ZM418.05 97.3145H442.704V101.88H432.606C432.534 102.919 432.409 103.921 432.23 104.888C432.051 105.855 431.854 106.804 431.639 107.735C433.143 110.206 435.131 112.498 437.602 114.61C440.108 116.723 442.758 118.532 445.551 120.036L442.275 123.796C439.875 122.435 437.584 120.823 435.399 118.961C433.251 117.099 431.371 115.148 429.759 113.106C428.613 115.542 427.217 117.78 425.57 119.821C423.922 121.826 422.06 123.599 419.983 125.138L416.008 121.916C419.303 119.767 421.971 116.992 424.012 113.59C426.053 110.188 427.235 106.285 427.557 101.88H418.05V97.3145ZM462.955 107.95V112.462H456.402V124.977H451.352V96.3476H456.402V107.95H462.955ZM456.402 127.609V143.24H451.352V132.175H418.533V127.609H456.402ZM504.701 119.391V142.757H499.652V96.3476H504.701V114.879H511.254V119.391H504.701ZM495.945 136.15V140.716H464.308V136.15H473.385V114.503H478.435V136.15H495.945ZM491.057 127.609H486.008V101.88H466.349V97.3145H491.057V127.609ZM525.184 112.462H569.606V116.974H525.184V112.462ZM527.226 97.3145H544.898V110.474H539.848V101.88H527.226V97.3145ZM547.422 97.3145H567.082V110.474H562.032V101.88H547.422V97.3145ZM567.619 137.708V142.22H527.709V120.788H567.082V125.246H532.758V129.167H567.082V133.625H532.758V137.708H567.619ZM615.918 137.708V142.22H576.008V130.134H581.057V137.708H615.918ZM573.484 121.056H617.905V125.622H573.484V121.056ZM603.295 116.544H588.148C584.065 116.544 580.932 115.685 578.748 113.966C576.599 112.247 575.525 109.74 575.525 106.446C575.525 103.438 576.599 101.003 578.748 99.1408C580.932 97.2787 584.065 96.3476 588.148 96.3476H603.295C607.306 96.3476 610.403 97.2787 612.588 99.1408C614.808 101.003 615.918 103.438 615.918 106.446C615.918 109.74 614.808 112.247 612.588 113.966C610.403 115.685 607.306 116.544 603.295 116.544ZM588.148 111.978H603.295C605.802 111.978 607.592 111.477 608.667 110.474C609.777 109.436 610.332 108.093 610.332 106.446C610.332 104.834 609.777 103.51 608.667 102.471C607.592 101.397 605.802 100.86 603.295 100.86H588.148C585.856 100.86 584.101 101.397 582.884 102.471C581.666 103.51 581.057 104.834 581.057 106.446C581.057 108.093 581.595 109.436 582.669 110.474C583.779 111.477 585.605 111.978 588.148 111.978ZM636.402 97.3145H661.056V101.88H651.012C650.904 102.99 650.761 104.082 650.582 105.157C650.439 106.195 650.26 107.216 650.045 108.218C651.549 110.689 653.536 112.999 656.007 115.148C658.478 117.26 661.11 119.069 663.903 120.573L660.627 124.279C658.227 122.918 655.936 121.325 653.751 119.498C651.603 117.636 649.723 115.685 648.111 113.644C646.965 116.079 645.551 118.317 643.868 120.358C642.221 122.363 640.376 124.136 638.335 125.676L634.36 122.453C637.727 120.197 640.43 117.35 642.471 113.912C644.512 110.439 645.676 106.428 645.963 101.88H636.402V97.3145ZM675.774 96.3476V131.423H670.725V96.3476H675.774ZM676.795 137.708V142.22H637.906V128.146H642.955V137.708H676.795ZM729.606 110.26V114.825H723.053V131.423H718.004V96.3476H723.053V110.26H729.606ZM724.074 137.708V142.22H685.722V127.609H690.771V137.708H724.074ZM712.955 117.511V122.077H684.701V97.3145H709.947V101.88H689.75V117.511H712.955ZM772.373 142.757H767.324V96.3476H772.373V142.757ZM737.512 106.929V131.154C737.512 133.196 737.906 134.628 738.694 135.452C739.482 136.275 740.52 136.687 741.809 136.687C743.063 136.687 744.083 136.275 744.871 135.452C745.695 134.628 746.107 133.196 746.107 131.154V106.929C746.107 104.924 745.695 103.51 744.871 102.686C744.083 101.826 743.063 101.397 741.809 101.397C740.52 101.397 739.482 101.826 738.694 102.686C737.906 103.51 737.512 104.924 737.512 106.929ZM732.463 131.154V106.929C732.463 105.175 732.696 103.671 733.161 102.417C733.663 101.128 734.343 100.072 735.203 99.2482C736.062 98.4246 737.047 97.8158 738.157 97.4219C739.303 97.028 740.52 96.831 741.809 96.831C743.063 96.831 744.245 97.028 745.355 97.4219C746.501 97.8158 747.503 98.4246 748.363 99.2482C749.222 100.072 749.902 101.128 750.404 102.417C750.905 103.671 751.156 105.175 751.156 106.929V114.986H756.957V96.5625H762.006V142.22H756.957V119.552H751.156V131.154C751.156 132.945 750.905 134.467 750.404 135.72C749.902 136.974 749.222 138.012 748.363 138.836C747.503 139.659 746.501 140.25 745.355 140.608C744.245 141.002 743.063 141.199 741.809 141.199C740.52 141.199 739.303 141.002 738.157 140.608C737.047 140.25 736.062 139.659 735.203 138.836C734.343 138.012 733.663 136.974 733.161 135.72C732.696 134.467 732.463 132.945 732.463 131.154ZM788.336 96.831H793.385C793.385 99.4093 793.296 102.006 793.117 104.62C792.938 107.234 792.687 109.83 792.365 112.408C793.547 117.028 795.319 121.54 797.683 125.944C800.046 130.349 802.893 134.127 806.223 137.278L802.517 140.716C799.939 138.173 797.647 135.273 795.641 132.014C793.636 128.719 791.971 125.371 790.646 121.969C789.822 125.407 788.802 128.773 787.584 132.068C786.403 135.326 784.97 138.424 783.287 141.36L778.775 138.997C780.53 135.917 782.016 132.676 783.233 129.274C784.451 125.873 785.436 122.381 786.188 118.8C786.94 115.219 787.477 111.585 787.799 107.896C788.157 104.208 788.336 100.519 788.336 96.831ZM815.623 96.3476H820.672V142.757H815.623V119.391H800.959V114.879H815.623V96.3476ZM869.455 97.3145V121.056H830.083V97.3145H835.132V104.405H864.406V97.3145H869.455ZM871.98 126.105V130.671H852.32V143.24H847.271V130.671H827.558V126.105H871.98ZM835.132 116.544H864.406V108.97H835.132V116.544ZM902.124 140.716H877.899V97.3145H899.599V101.88H882.948V115.524H899.116V120.036H882.948V136.15H902.124V140.716ZM912.222 120.036H901.64V115.524H912.222V96.3476H917.271V142.757H912.222V120.036Z" fill="white"/>
<path d="M21.3859 189.401H66.5059V200.775H48.7399C48.6146 204.347 48.4266 207.825 48.1759 211.209C47.9252 214.593 47.5492 217.883 47.0479 221.079C49.4919 228.035 52.7506 234.771 56.8239 241.289C60.9599 247.806 65.7539 253.477 71.2059 258.303C70.3912 258.992 69.5766 259.65 68.7619 260.277C67.9472 260.966 67.1639 261.624 66.4119 262.251C65.5972 262.94 64.7826 263.598 63.9679 264.225C63.1532 264.914 62.3699 265.572 61.6179 266.199C57.8579 262.564 54.3799 258.459 51.1839 253.885C47.9879 249.31 45.1679 244.579 42.7239 239.691C41.0946 244.641 39.1206 249.404 36.8019 253.979C34.5459 258.491 31.9139 262.783 28.9059 266.857C27.0259 265.917 25.1459 264.945 23.2659 263.943C21.4486 262.94 19.6312 261.906 17.8139 260.841C24.2059 252.067 28.8432 242.887 31.7259 233.299C34.6086 223.711 36.1439 212.869 36.3319 200.775H21.3859V189.401ZM89.9119 230.573V269.301H77.4099V188.085H89.9119V218.635H100.44V230.573H89.9119ZM176.128 188.085V269.301H163.72V188.085H176.128ZM106.38 189.401H146.142V208.671C146.142 214.812 145.327 220.703 143.698 226.343C142.131 231.92 139.844 237.153 136.836 242.041C133.828 246.929 130.13 251.409 125.744 255.483C121.357 259.493 116.406 262.94 110.892 265.823L102.338 256.799C107.288 254.417 111.675 251.566 115.498 248.245C119.383 244.861 122.673 241.163 125.368 237.153C128.062 233.142 130.099 228.849 131.478 224.275C132.919 219.637 133.64 214.843 133.64 209.893V200.775H106.38V189.401ZM194.476 236.495L186.862 226.813C196.074 223.554 203.688 218.478 209.704 211.585C215.782 204.691 219.636 196.701 221.266 187.615L234.238 189.777C233.862 191.97 233.36 194.132 232.734 196.263C232.107 198.331 231.355 200.367 230.478 202.373C234.802 207.449 239.972 211.835 245.988 215.533C252.066 219.167 258.584 221.862 265.54 223.617L258.772 233.675C252.066 231.92 245.768 229.257 239.878 225.685C233.987 222.05 228.817 217.883 224.368 213.183C220.608 218.509 216.127 223.209 210.926 227.283C205.724 231.356 200.241 234.427 194.476 236.495ZM265.07 254.731V266.199H187.332V254.731H219.48V232.359H232.64V254.731H265.07ZM274.958 189.401H304.568V211.679C304.568 222.52 302.75 232.609 299.116 241.947C295.481 251.221 289.622 259.305 281.538 266.199L271.292 259.055C279 252.851 284.389 245.801 287.46 237.905C290.53 229.946 292.066 221.611 292.066 212.901V200.775H274.958V189.401ZM345.176 188.085V269.301H332.768V230.573H323.932V268.361H311.618V188.461H323.932V219.199H332.768V188.085H345.176ZM366.532 266.857C365.529 266.418 364.526 265.979 363.524 265.541C362.584 265.102 361.644 264.632 360.704 264.131C359.764 263.692 358.824 263.253 357.884 262.815C356.944 262.376 356.004 261.906 355.064 261.405C361.08 250.626 365.216 239.064 367.472 226.719C369.728 214.373 370.856 201.777 370.856 188.931H383.358C383.358 193.443 383.232 197.986 382.982 202.561C382.731 207.135 382.324 211.71 381.76 216.285C382.762 220.107 384.047 223.961 385.614 227.847C387.18 231.669 388.998 235.367 391.066 238.939C393.071 242.573 395.296 246.02 397.74 249.279C400.246 252.537 402.91 255.483 405.73 258.115C404.915 258.804 404.1 259.493 403.286 260.183C402.534 260.872 401.782 261.53 401.03 262.157C400.215 262.846 399.4 263.504 398.586 264.131C397.834 264.82 397.082 265.509 396.33 266.199C392.507 262.439 388.998 258.146 385.802 253.321C382.668 248.433 379.974 243.357 377.718 238.093C376.402 243.169 374.804 248.151 372.924 253.039C371.106 257.864 368.976 262.47 366.532 266.857ZM417.292 229.539H394.356V217.601H417.292V188.085H429.7V269.301H417.292V229.539ZM513.298 189.401V200.775H466.016V189.401H513.298ZM516.4 254.543V265.729H465.17V254.543H471.938V207.919H483.876V254.543H490.926L496.472 207.919H508.41L502.864 254.543H516.4ZM536.234 188.085V269.301H523.826V188.085H536.234ZM563.888 223.805H622.074V235.367H551.386V189.401H621.228V200.869H563.888V223.805ZM625.176 254.731V266.199H547.438V254.731H625.176ZM705.282 241.383V270.147H692.874V252.569H636.85V241.383H705.282ZM705.282 188.085V237.811H693.438V217.789H686.388V237.811H674.826V188.461H686.388V206.979H693.438V188.085H705.282ZM668.81 189.401V234.991H635.064V189.401H646.532V202.091H657.342V189.401H668.81ZM646.532 224.651H657.342V212.337H646.532V224.651ZM780.138 242.417V262.627H767.636V243.263C767.636 240.819 767.166 238.939 766.226 237.623C765.286 236.307 763.782 235.398 761.714 234.897H751.938V262.627H739.53V191.187H759.834C766.602 191.187 771.96 193.035 775.908 196.733C779.918 200.43 781.924 205.475 781.924 211.867C781.924 216.316 780.952 220.076 779.01 223.147C777.13 226.217 774.686 228.411 771.678 229.727C774.372 230.729 776.44 232.359 777.882 234.615C779.386 236.871 780.138 239.471 780.138 242.417ZM758.894 202.655H751.938V223.429H758.894C761.964 223.429 764.471 222.489 766.414 220.609C768.419 218.666 769.422 215.909 769.422 212.337C769.422 209.078 768.482 206.665 766.602 205.099C764.784 203.469 762.215 202.655 758.894 202.655ZM788.804 191.187H825.84V202.655H801.212V219.857H823.208V231.325H801.212V251.253H827.626V262.627H788.804V191.187ZM877.829 214.405C877.829 221.799 875.887 227.502 872.001 231.513C868.116 235.523 862.413 237.529 854.893 237.529H846.997V262.627H834.589V191.187H854.893C862.413 191.187 868.116 193.223 872.001 197.297C875.887 201.307 877.829 207.01 877.829 214.405ZM865.421 214.405C865.421 210.081 864.387 207.041 862.319 205.287C860.314 203.532 857.525 202.655 853.953 202.655H846.997V226.061H853.953C857.525 226.061 860.314 225.215 862.319 223.523C864.387 221.768 865.421 218.729 865.421 214.405ZM915.449 242.417V211.491C915.449 208.169 914.572 205.725 912.817 204.159C911.125 202.529 908.65 201.715 905.391 201.715C902.007 201.715 899.469 202.529 897.777 204.159C896.148 205.725 895.333 208.169 895.333 211.491V242.417C895.333 245.738 896.148 248.182 897.777 249.749C899.469 251.315 902.007 252.099 905.391 252.099C908.65 252.099 911.125 251.315 912.817 249.749C914.572 248.182 915.449 245.738 915.449 242.417ZM927.951 210.551V243.263C927.951 249.655 925.946 254.605 921.935 258.115C917.925 261.687 912.41 263.473 905.391 263.473C898.247 263.473 892.701 261.687 888.753 258.115C884.805 254.605 882.831 249.655 882.831 243.263V210.551C882.831 204.159 884.805 199.177 888.753 195.605C892.701 192.033 898.247 190.247 905.391 190.247C912.41 190.247 917.925 192.033 921.935 195.605C925.946 199.177 927.951 204.159 927.951 210.551ZM976.315 242.417V262.627H963.813V243.263C963.813 240.819 963.343 238.939 962.403 237.623C961.463 236.307 959.959 235.398 957.891 234.897H948.115V262.627H935.707V191.187H956.011C962.779 191.187 968.137 193.035 972.085 196.733C976.096 200.43 978.101 205.475 978.101 211.867C978.101 216.316 977.13 220.076 975.187 223.147C973.307 226.217 970.863 228.411 967.855 229.727C970.55 230.729 972.618 232.359 974.059 234.615C975.563 236.871 976.315 239.471 976.315 242.417ZM955.071 202.655H948.115V223.429H955.071C958.142 223.429 960.649 222.489 962.591 220.609C964.597 218.666 965.599 215.909 965.599 212.337C965.599 209.078 964.659 206.665 962.779 205.099C960.962 203.469 958.393 202.655 955.071 202.655ZM1022.68 202.655H1007.73V263.097H995.227V202.655H981.127V191.187H1022.68V202.655Z" fill="white"/>
<rect x="518.238" y="387.349" width="22.3621" height="494" fill="url(#paint0_linear_13486_8284)"/>
<g filter="url(#filter0_d_13486_8284)">
<path d="M867.462 510.507C866.915 515.748 862.223 519.554 856.981 519.008L199.018 454.054C196.35 453.775 193.923 452.388 192.331 450.23L139.524 378.691C136.594 374.722 137.173 369.174 140.859 365.895L207.29 306.791C209.293 305.008 211.955 304.151 214.622 304.429L872.585 369.383C877.827 369.93 881.633 374.622 881.086 379.864L867.462 510.507Z" fill="url(#paint1_linear_13486_8284)"/>
</g>
<path fill-rule="evenodd" clip-rule="evenodd" d="M773.27 414.622C763.376 413.59 754.519 420.775 753.487 430.669C752.519 439.957 758.791 448.332 767.748 450.176L766.565 461.523C766.511 462.035 767.077 462.379 767.507 462.096L783.064 451.863L798.197 453.441C808.091 454.473 816.949 447.289 817.98 437.395C819.012 427.501 811.828 418.643 801.934 417.611L773.27 414.622Z" fill="white"/>
<circle cx="771.147" cy="432.796" r="3.65926" transform="rotate(5.95374 771.147 432.796)" fill="#E84EFF"/>
<circle cx="785.701" cy="434.314" r="3.65926" transform="rotate(5.95374 785.701 434.314)" fill="#E84EFF"/>
<circle cx="800.26" cy="435.833" r="3.65926" transform="rotate(5.95374 800.26 435.833)" fill="#E84EFF"/>
<path d="M240.008 370.592C239.94 370.722 239.872 370.851 239.804 370.98C239.763 371.112 239.71 371.229 239.645 371.331C239.577 371.46 239.509 371.59 239.441 371.719C239.373 371.848 239.32 371.965 239.282 372.07C240.377 373.329 241.714 374.49 243.292 375.554C244.871 376.618 246.561 377.53 248.362 378.29C248.08 378.642 247.812 378.996 247.557 379.351C247.304 379.679 247.052 380.007 246.8 380.335C246.548 380.663 246.294 381.004 246.039 381.359C245.787 381.687 245.548 382.017 245.323 382.347C243.683 381.604 242.076 380.687 240.5 379.596C238.954 378.481 237.596 377.263 236.425 375.942C235.201 377.231 233.819 378.327 232.281 379.229C230.772 380.108 229.195 380.72 227.551 381.066C227.313 380.742 227.076 380.404 226.84 380.052C226.604 379.7 226.368 379.349 226.132 378.997C225.923 378.648 225.701 378.298 225.465 377.946C225.229 377.595 224.993 377.243 224.757 376.891C227.017 376.391 228.972 375.546 230.622 374.355C232.302 373.141 233.598 371.695 234.508 370.019L227.189 369.255L227.67 364.645L234.949 365.405L235.345 361.603L240.764 362.168L240.368 365.97L247.889 366.754L247.408 371.364L240.008 370.592ZM249.153 399.712L252.797 364.772L258.135 365.329L254.491 400.268L249.153 399.712ZM223.974 387.152L224.45 382.582L248.511 385.092L248.035 389.661L236.995 388.51L235.97 398.337L230.592 397.776L231.617 387.949L223.974 387.152ZM267.708 375.525C267.573 376.819 267.837 377.95 268.499 378.919C269.188 379.89 270.179 380.443 271.473 380.578C272.767 380.713 273.852 380.376 274.726 379.568C275.628 378.763 276.146 377.713 276.281 376.419C276.413 375.152 276.121 374.031 275.405 373.057C274.716 372.086 273.725 371.533 272.431 371.398C271.137 371.263 270.052 371.6 269.178 372.408C268.33 373.219 267.84 374.258 267.708 375.525ZM262.41 374.973C262.543 373.705 262.895 372.543 263.469 371.486C264.043 370.428 264.791 369.525 265.714 368.776C266.634 368.055 267.697 367.525 268.904 367.188C270.141 366.826 271.474 366.72 272.903 366.869C274.305 367.015 275.574 367.393 276.709 368.002C277.848 368.584 278.792 369.323 279.544 370.219C280.319 371.144 280.879 372.184 281.222 373.337C281.592 374.493 281.711 375.704 281.579 376.972C281.444 378.266 281.074 379.453 280.471 380.535C279.897 381.593 279.137 382.481 278.19 383.2C277.267 383.948 276.189 384.49 274.955 384.824C273.721 385.159 272.403 385.253 271.001 385.107C269.572 384.958 268.288 384.593 267.15 384.011C266.039 383.431 265.109 382.68 264.36 381.757C263.609 380.861 263.061 379.837 262.718 378.684C262.378 377.504 262.275 376.267 262.41 374.973ZM292.427 388.977L290.875 403.858L261.799 400.826L263.351 385.944L268.729 386.505L268.417 389.498L286.817 391.417L287.129 388.424L292.427 388.977ZM267.588 397.056L286.028 398.979L286.37 395.703L267.93 393.78L267.588 397.056ZM294.497 369.121L292.587 387.44L287.249 386.883L287.958 380.09L282.458 379.516L282.972 374.582L288.472 375.156L289.159 368.564L294.497 369.121ZM308.052 381.572L308.208 380.076C308.349 378.728 308.708 377.498 309.288 376.387C309.894 375.278 310.658 374.349 311.581 373.601C312.531 372.855 313.623 372.315 314.857 371.98C316.094 371.619 317.427 371.512 318.856 371.661C320.257 371.808 321.526 372.185 322.662 372.794C323.8 373.376 324.757 374.13 325.533 375.056C326.308 375.981 326.878 377.049 327.243 378.259C327.607 379.469 327.719 380.748 327.578 382.096L327.422 383.592C327.279 384.967 326.904 386.209 326.298 387.317C325.695 388.399 324.918 389.313 323.968 390.059C323.018 390.804 321.925 391.358 320.688 391.72C319.454 392.054 318.136 392.148 316.734 392.002C315.305 391.853 314.022 391.488 312.883 390.906C311.748 390.297 310.792 389.529 310.017 388.604C309.268 387.681 308.71 386.628 308.343 385.445C308.006 384.238 307.909 382.947 308.052 381.572ZM340.329 373.901L337.63 399.782L332.292 399.225L333.211 390.409L327.792 389.844L328.294 385.032L333.713 385.597L334.122 381.675L328.703 381.109L329.205 376.297L334.624 376.862L334.991 373.344L340.329 373.901ZM337.783 403.804L337.272 408.697L307.63 405.606L308.828 394.121L314.206 394.682L313.519 401.273L337.783 403.804ZM313.506 380.628L313.349 382.124C313.206 383.499 313.463 384.698 314.119 385.72C314.803 386.745 315.832 387.33 317.207 387.473C318.555 387.614 319.669 387.253 320.549 386.391C321.429 385.529 321.941 384.41 322.084 383.035L322.24 381.539C322.384 380.164 322.114 378.964 321.43 377.939C320.747 376.914 319.731 376.331 318.383 376.191C317.008 376.047 315.881 376.406 315.001 377.269C314.147 378.133 313.649 379.253 313.506 380.628ZM374.932 396.518L369.554 395.957L370.941 382.653L346.274 380.08L346.788 375.147L376.834 378.28L374.932 396.518ZM376.395 398.96L375.876 403.934L362.005 402.487L361.04 411.748L355.338 411.153L356.303 401.893L342.433 400.446L342.951 395.472L376.395 398.96ZM401.761 396.087L401.31 400.414L380.766 398.271L382.787 378.901L401.469 380.849L401.018 385.176L387.512 383.768L387.183 386.922L400.325 388.293L399.878 392.579L386.736 391.208L386.394 394.484L401.761 396.087ZM413.054 381.485L410.848 402.635L405.51 402.078L407.716 380.928L413.054 381.485ZM410.705 404.01L409.431 416.222L380.355 413.19L381.629 400.977L410.705 404.01ZM386.185 409.424L404.544 411.339L404.915 407.78L386.556 405.865L386.185 409.424ZM413.91 418.815C413.798 418.585 413.701 418.344 413.618 418.09C413.533 417.863 413.447 417.636 413.362 417.409C413.277 417.182 413.193 416.942 413.11 416.688C413.025 416.461 412.94 416.234 412.854 416.007C413.897 415.68 414.619 415.155 415.021 414.434C415.423 413.713 415.703 412.598 415.861 411.088L416.072 409.066L421.976 409.682L421.723 412.108C421.487 414.373 420.726 416.051 419.44 417.143C418.151 418.263 416.308 418.82 413.91 418.815ZM455.983 401.374C455.865 402.506 455.527 403.533 454.967 404.456C454.41 405.352 453.692 406.095 452.813 406.684C451.931 407.301 450.905 407.739 449.733 407.998C448.588 408.26 447.355 408.322 446.034 408.185C444.686 408.044 443.48 407.727 442.414 407.235C441.348 406.742 440.447 406.103 439.711 405.318C438.973 404.559 438.423 403.685 438.063 402.693C437.733 401.678 437.627 400.604 437.745 399.471C437.863 398.339 438.187 397.324 438.717 396.425C439.277 395.502 439.996 394.746 440.875 394.157C441.757 393.54 442.77 393.101 443.915 392.838C445.062 392.549 446.31 392.475 447.658 392.616C448.979 392.753 450.171 393.082 451.234 393.602C452.327 394.097 453.242 394.738 453.977 395.523C454.716 396.281 455.264 397.17 455.621 398.188C455.981 399.179 456.102 400.241 455.983 401.374ZM469.341 387.355L466.604 413.6L461.266 413.043L461.916 406.816L456.739 406.276L457.212 401.747L462.388 402.287L462.738 398.93L457.562 398.39L458.034 393.861L463.21 394.401L464.003 386.799L469.341 387.355ZM466.997 417.279L466.487 422.173L436.643 419.06L437.731 408.627L443.109 409.188L442.531 414.728L466.997 417.279ZM458.92 388.108L458.465 392.475L437.356 390.274L437.811 385.907L445.494 386.708L445.823 383.554L451.202 384.114L450.873 387.269L458.92 388.108ZM450.848 400.838C450.952 399.84 450.678 398.94 450.026 398.136C449.401 397.335 448.468 396.87 447.228 396.74C445.934 396.605 444.912 396.867 444.162 397.524C443.412 398.182 442.985 399.01 442.881 400.007C442.777 401.005 443.026 401.889 443.626 402.66C444.23 403.404 445.179 403.844 446.473 403.979C447.713 404.108 448.719 403.873 449.49 403.272C450.291 402.647 450.744 401.835 450.848 400.838ZM475.437 388.563L494.402 390.541L493.926 395.111L487.011 394.39C486.868 394.974 486.713 395.544 486.546 396.099C486.406 396.657 486.24 397.212 486.046 397.764C486.95 399.548 488.171 401.296 489.709 403.01C491.277 404.7 492.939 406.141 494.695 407.332C494.365 407.625 494.035 407.917 493.704 408.21C493.404 408.478 493.103 408.747 492.803 409.015C492.473 409.308 492.156 409.602 491.852 409.897C491.552 410.165 491.251 410.434 490.951 410.702C489.507 409.652 488.132 408.46 486.827 407.125C485.552 405.765 484.433 404.34 483.471 402.85C482.44 404.378 481.276 405.742 479.979 406.942C478.685 408.115 477.286 409.114 475.783 409.938C475.46 409.632 475.138 409.326 474.816 409.02C474.493 408.714 474.186 408.395 473.893 408.065C473.571 407.759 473.249 407.453 472.926 407.147C472.631 406.843 472.337 406.526 472.044 406.196C474.452 405.057 476.489 403.43 478.154 401.315C479.819 399.199 481.005 396.707 481.713 393.837L474.96 393.133L475.437 388.563ZM503.312 414.076L502.022 426.451L496.684 425.894L497.473 418.332L473.371 415.818L473.873 411.006L503.312 414.076ZM505.704 391.147L503.494 412.337L498.156 411.781L500.366 390.591L505.704 391.147ZM511.799 392.355L531.21 394.38L530.699 399.273L523.056 398.476C522.842 400.007 522.605 401.495 522.346 402.939C522.086 404.384 521.777 405.782 521.418 407.135C522.157 410.237 523.257 413.281 524.717 416.268C526.203 419.257 528.011 421.912 530.14 424.232C529.759 424.492 529.379 424.739 529 424.972C528.619 425.232 528.253 425.48 527.901 425.716C527.519 425.976 527.14 426.222 526.761 426.455C526.38 426.715 526.013 426.963 525.661 427.199C524.207 425.467 522.895 423.545 521.725 421.433C520.555 419.322 519.555 417.16 518.722 414.948C517.799 417.004 516.736 418.965 515.534 420.829C514.361 422.669 513.036 424.397 511.559 426.015C510.792 425.526 510.027 425.024 509.263 424.508C508.527 423.995 507.791 423.469 507.057 422.929C510.201 419.441 512.608 415.7 514.278 411.704C515.948 407.709 517.095 403.114 517.719 397.919L511.289 397.248L511.799 392.355ZM539.432 413.142L537.694 429.803L532.316 429.242L535.96 394.303L541.338 394.864L539.967 408.006L544.497 408.479L543.961 413.614L539.432 413.142ZM577.971 399.256L577.461 404.149L557.12 402.028L557.63 397.135L577.971 399.256ZM576.383 427.42L575.881 432.232L553.842 429.934L554.344 425.121L557.255 425.425L559.347 405.367L564.483 405.903L562.391 425.961L565.424 426.277L569.902 406.468L575.038 407.004L570.56 426.812L576.383 427.42ZM587.897 399.719L584.254 434.659L578.916 434.102L582.559 399.163L587.897 399.719ZM598.192 416.327L623.223 418.937L622.705 423.911L592.294 420.74L594.357 400.965L624.403 404.099L623.888 409.032L599.221 406.46L598.192 416.327ZM623.17 432.381L622.656 437.314L589.213 433.827L589.727 428.893L623.17 432.381ZM658.231 430.232L656.941 442.607L651.603 442.05L652.391 434.488L628.29 431.975L628.791 427.162L658.231 430.232ZM660.622 407.304L658.391 428.696L653.296 428.164L654.194 419.551L651.161 419.235L650.263 427.848L645.289 427.329L647.503 406.099L652.477 406.618L651.646 414.584L654.679 414.9L655.527 406.772L660.622 407.304ZM644.873 406.233L642.827 425.846L628.31 424.332L630.355 404.719L635.289 405.234L634.719 410.693L639.37 411.178L639.939 405.719L644.873 406.233ZM633.707 420.399L638.358 420.884L638.91 415.586L634.26 415.101L633.707 420.399ZM695.895 439.965L695.381 444.899L661.938 441.411L662.452 436.478L695.895 439.965ZM684.645 430.248L675.506 429.295C673.78 429.115 672.255 428.711 670.931 428.082C669.61 427.427 668.51 426.603 667.632 425.613C666.754 424.622 666.111 423.478 665.701 422.182C665.318 420.888 665.204 419.5 665.358 418.017C665.51 416.561 665.907 415.24 666.548 414.053C667.217 412.869 668.083 411.883 669.146 411.095C670.21 410.306 671.455 409.728 672.884 409.359C674.312 408.99 675.889 408.896 677.614 409.076L686.754 410.029C688.452 410.206 689.962 410.622 691.284 411.278C692.605 411.933 693.705 412.757 694.582 413.748C695.46 414.738 696.104 415.882 696.514 417.178C696.924 418.475 697.053 419.851 696.901 421.307C696.746 422.789 696.335 424.123 695.666 425.307C694.998 426.491 694.132 427.477 693.068 428.265C692.005 429.054 690.759 429.632 689.331 430.001C687.905 430.343 686.343 430.425 684.645 430.248ZM676.101 424.37L685.038 425.302C686.764 425.482 688.203 425.142 689.355 424.281C690.538 423.396 691.206 422.212 691.361 420.729C691.513 419.273 691.101 417.99 690.127 416.88C689.18 415.773 687.843 415.13 686.118 414.95L677.181 414.018C675.428 413.835 673.974 414.187 672.819 415.075C671.691 415.966 671.05 417.139 670.899 418.595C670.744 420.078 671.127 421.371 672.047 422.476C672.997 423.556 674.349 424.187 676.101 424.37ZM732.058 432.74L731.573 437.391L701.163 434.219L702.554 420.874L727.222 423.447L727.627 419.565L702.959 416.992L703.444 412.342L733.49 415.475L732.124 428.577L707.456 426.005L707.026 430.13L732.058 432.74ZM732.254 443.798L731.743 448.691L698.3 445.203L698.81 440.31L712.641 441.752L713.151 436.859L718.812 437.45L718.302 442.343L732.254 443.798Z" fill="white"/>
<rect x="569.801" y="313.176" width="296.397" height="48.9913" rx="24.4957" transform="rotate(5.95374 569.801 313.176)" fill="#009DFF"/>
<path d="M592.841 341.331L592.567 343.962C592.425 345.326 591.86 346.335 590.872 346.987C589.883 347.656 588.503 347.898 586.733 347.713C584.946 347.527 583.638 347.004 582.808 346.146C581.993 345.306 581.656 344.203 581.798 342.839L581.948 341.402L585.189 341.74L585.074 342.836C585.008 343.469 585.148 343.936 585.495 344.234C585.843 344.517 586.358 344.694 587.04 344.765C587.723 344.836 588.263 344.769 588.662 344.565C589.063 344.344 589.296 343.917 589.362 343.283L589.578 341.212C589.638 340.644 589.519 340.204 589.223 339.894C588.929 339.568 588.465 339.372 587.831 339.306L585.785 339.093L586.097 336.096L588.046 336.299C588.582 336.355 589.01 336.268 589.33 336.039C589.651 335.793 589.839 335.411 589.893 334.891L590.038 333.502C590.09 332.999 589.968 332.592 589.672 332.282C589.378 331.956 588.93 331.761 588.329 331.698C587.728 331.636 587.25 331.734 586.895 331.992C586.557 332.236 586.362 332.61 586.31 333.113L586.239 333.796L583.023 333.46L583.142 332.315C583.285 330.951 583.862 329.977 584.875 329.393C585.89 328.792 587.145 328.57 588.639 328.726C590.117 328.88 591.299 329.357 592.185 330.155C593.088 330.939 593.468 332.013 593.326 333.377L593.123 335.326C593.05 336.025 592.817 336.608 592.423 337.076C592.048 337.529 591.571 337.849 590.993 338.035C591.702 338.322 592.206 338.761 592.506 339.35C592.806 339.94 592.918 340.6 592.841 341.331ZM593.531 351.106C593.464 350.968 593.405 350.822 593.355 350.669C593.304 350.533 593.252 350.396 593.201 350.259C593.15 350.123 593.099 349.978 593.049 349.825C592.998 349.688 592.946 349.551 592.895 349.415C593.523 349.217 593.958 348.902 594.201 348.467C594.443 348.033 594.612 347.361 594.706 346.451L594.833 345.233L598.39 345.604L598.238 347.066C598.096 348.43 597.637 349.441 596.863 350.099C596.086 350.774 594.976 351.109 593.531 351.106ZM607.806 344.96L608.761 335.8C608.825 335.182 608.697 334.685 608.375 334.306C608.069 333.93 607.624 333.711 607.04 333.65C606.422 333.585 605.925 333.706 605.549 334.011C605.188 334.319 604.976 334.781 604.912 335.398L603.956 344.559C603.89 345.192 604.002 345.696 604.291 346.071C604.598 346.432 605.061 346.644 605.678 346.709C606.262 346.77 606.742 346.655 607.117 346.366C607.51 346.062 607.74 345.594 607.806 344.96ZM612 335.916L610.996 345.539C610.849 346.952 610.285 348.035 609.303 348.786C608.338 349.539 607.027 349.829 605.37 349.657C603.697 349.482 602.458 348.926 601.653 347.988C600.864 347.052 600.543 345.878 600.691 344.464L601.694 334.841C601.843 333.412 602.4 332.32 603.366 331.567C604.349 330.8 605.677 330.503 607.35 330.677C609.006 330.85 610.228 331.413 611.016 332.365C611.821 333.303 612.149 334.486 612 335.916ZM619.911 346.223L620.866 337.062C620.93 336.445 620.802 335.947 620.48 335.569C620.174 335.192 619.729 334.973 619.145 334.912C618.527 334.848 618.03 334.968 617.654 335.274C617.293 335.581 617.081 336.043 617.017 336.66L616.061 345.821C615.995 346.455 616.107 346.959 616.396 347.334C616.703 347.694 617.165 347.907 617.783 347.971C618.367 348.032 618.847 347.918 619.222 347.629C619.615 347.325 619.845 346.856 619.911 346.223ZM624.105 337.178L623.101 346.802C622.954 348.215 622.39 349.297 621.408 350.048C620.443 350.802 619.132 351.092 617.475 350.919C615.802 350.745 614.563 350.188 613.758 349.251C612.969 348.315 612.648 347.14 612.795 345.727L613.799 336.103C613.948 334.674 614.505 333.583 615.47 332.83C616.454 332.062 617.782 331.765 619.455 331.94C621.111 332.113 622.333 332.675 623.121 333.627C623.926 334.565 624.254 335.749 624.105 337.178ZM632.016 347.485L632.971 338.324C633.035 337.707 632.907 337.209 632.585 336.831C632.279 336.454 631.834 336.236 631.25 336.175C630.632 336.11 630.135 336.231 629.759 336.536C629.398 336.843 629.186 337.306 629.122 337.923L628.166 347.084C628.1 347.717 628.212 348.221 628.501 348.596C628.808 348.957 629.27 349.169 629.888 349.233C630.472 349.294 630.952 349.18 631.327 348.891C631.72 348.587 631.95 348.118 632.016 347.485ZM636.21 338.44L635.206 348.064C635.059 349.477 634.494 350.559 633.513 351.311C632.548 352.064 631.237 352.354 629.58 352.181C627.907 352.007 626.668 351.451 625.863 350.513C625.074 349.577 624.753 348.402 624.9 346.989L625.904 337.366C626.053 335.936 626.61 334.845 627.575 334.092C628.559 333.324 629.887 333.028 631.56 333.202C633.216 333.375 634.438 333.938 635.226 334.89C636.031 335.828 636.359 337.011 636.21 338.44ZM650.178 356.078L642.967 355.326C641.261 355.148 639.952 354.634 639.039 353.784C638.142 352.935 637.767 351.812 637.913 350.415C638.045 349.148 638.64 348.16 639.7 347.449C640.775 346.74 642.166 346.475 643.871 346.653L651.083 347.405C652.756 347.579 654.045 348.124 654.951 349.04C655.857 349.955 656.244 351.046 656.112 352.313C655.967 353.71 655.359 354.73 654.291 355.374C653.222 356.018 651.851 356.253 650.178 356.078ZM649.949 334.898L648.851 345.423L638.204 344.313L639.302 333.788L649.949 334.898ZM643.251 352.597L649.902 353.291C650.731 353.377 651.402 353.316 651.916 353.107C652.445 352.916 652.74 352.536 652.799 351.968C652.858 351.399 652.649 350.967 652.171 350.671C651.71 350.36 651.066 350.161 650.238 350.075L644.098 349.435C643.302 349.352 642.64 349.406 642.111 349.597C641.582 349.788 641.287 350.176 641.226 350.761C641.175 351.248 641.33 351.658 641.689 351.991C642.048 352.324 642.569 352.526 643.251 352.597ZM654.125 336.885L654.321 335.009L657.537 335.345L656.272 347.478L653.056 347.143L653.343 344.389L649.932 344.034L650.229 341.183L653.64 341.539L653.828 339.736L650.417 339.38L650.714 336.53L654.125 336.885ZM641.578 341.956L646.036 342.421L646.573 337.28L642.114 336.815L641.578 341.956ZM672.989 343.089C672.897 343.966 672.658 344.762 672.272 345.477C671.902 346.194 671.412 346.791 670.804 347.269C670.196 347.748 669.486 348.101 668.674 348.328C667.864 348.539 666.988 348.596 666.046 348.497C665.072 348.396 664.21 348.158 663.461 347.784C662.729 347.396 662.116 346.905 661.619 346.312C661.139 345.72 660.792 345.035 660.577 344.257C660.363 343.48 660.302 342.652 660.393 341.775C660.483 340.914 660.712 340.134 661.081 339.433C661.451 338.717 661.933 338.11 662.526 337.614C663.134 337.135 663.836 336.782 664.632 336.553C665.444 336.325 666.337 336.263 667.311 336.364C668.253 336.462 669.098 336.707 669.846 337.096C670.593 337.486 671.215 337.978 671.711 338.572C672.206 339.182 672.561 339.875 672.775 340.653C673.007 341.416 673.079 342.228 672.989 343.089ZM669.846 342.761C669.944 341.819 669.742 341.002 669.24 340.309C668.739 339.6 668.001 339.195 667.027 339.093C666.052 338.991 665.247 339.236 664.611 339.826C663.976 340.4 663.61 341.158 663.512 342.1C663.412 343.059 663.613 343.884 664.115 344.577C664.618 345.27 665.356 345.667 666.331 345.769C667.305 345.87 668.11 345.634 668.744 345.06C669.379 344.486 669.746 343.719 669.846 342.761ZM674.033 358.344L676.228 337.294L679.444 337.63L677.249 358.68L674.033 358.344ZM658.329 355.894L658.637 352.946L673.036 354.447L672.728 357.395L658.329 355.894ZM695.396 356.681L695.091 359.604L686.758 358.735L688.822 338.952L696.691 339.773L696.384 342.721L691.754 342.238L690.304 356.15L695.396 356.681ZM701.955 340.076L699.795 360.785L696.603 360.452L697.597 350.926L693.528 350.501L693.851 347.407L697.919 347.831L698.763 339.743L701.955 340.076ZM704.861 361.559L701.645 361.224L703.841 340.174L707.057 340.509L704.861 361.559ZM728.964 342.794L726.769 363.844L723.553 363.509L725.748 342.458L728.964 342.794ZM712.959 347.725L712.184 355.156C712.06 356.342 712.196 357.242 712.591 357.858C712.989 358.458 713.618 358.803 714.478 358.893C715.339 358.982 716.026 358.775 716.538 358.27C717.069 357.751 717.396 356.898 717.519 355.712L718.294 348.282C718.416 347.112 718.271 346.219 717.859 345.601C717.464 344.985 716.836 344.632 715.975 344.542C715.114 344.453 714.427 344.668 713.913 345.189C713.399 345.71 713.081 346.556 712.959 347.725ZM709.089 354.833L709.864 347.402C710.081 345.323 710.767 343.786 711.922 342.79C713.093 341.795 714.547 341.389 716.285 341.57C718.039 341.753 719.387 342.452 720.327 343.666C721.268 344.881 721.63 346.528 721.413 348.607L720.638 356.038C720.421 358.117 719.728 359.645 718.559 360.623C717.389 361.602 715.928 361.999 714.174 361.816C712.436 361.635 711.096 360.945 710.153 359.747C709.227 358.55 708.873 356.912 709.089 354.833ZM741.805 364.476L730.573 363.305L732.636 343.522L742.894 344.591L742.586 347.539L735.569 346.808L735.043 351.851L741.841 352.56L741.533 355.508L734.736 354.799L734.119 360.719L742.11 361.553L741.805 364.476ZM746.482 355.999L742.486 355.582L742.809 352.488L746.804 352.905L747.656 344.743L750.872 345.079L748.676 366.129L745.46 365.793L746.482 355.999ZM752.79 354.834L772.938 356.936L772.697 359.25L752.548 357.149L752.79 354.834ZM771.169 366.11L770.938 368.327L752.616 366.416L753.165 361.154L768.027 362.704L768.113 361.875L753.251 360.326L753.485 358.084L771.587 359.972L771.038 365.234L756.177 363.685L756.088 364.537L771.169 366.11ZM772.447 353.855L772.216 356.072L753.894 354.162L754.443 348.899L769.305 350.449L769.391 349.621L754.529 348.071L754.763 345.829L772.865 347.717L772.314 353.004L757.452 351.454L757.366 352.282L772.447 353.855ZM800.478 350.597L799.141 363.412L781.039 361.524L782.375 348.709L785.616 349.047L785.25 352.555L796.871 353.767L797.237 350.259L800.478 350.597ZM799.735 367.636L799.425 370.608L779.276 368.507L779.586 365.535L787.919 366.404L788.254 363.188L791.665 363.543L791.33 366.759L799.735 367.636ZM784.584 358.938L796.206 360.15L796.564 356.715L784.942 355.503L784.584 358.938ZM815.36 362.616L809.172 361.971C808.198 361.869 807.325 361.655 806.555 361.328C805.786 360.985 805.15 360.549 804.647 360.021C804.144 359.492 803.772 358.887 803.531 358.205C803.306 357.525 803.236 356.779 803.321 355.967C803.489 354.359 804.2 353.128 805.455 352.273C806.728 351.404 808.338 351.072 810.288 351.275L816.476 351.92C817.434 352.02 818.29 352.241 819.042 352.582C819.811 352.925 820.455 353.361 820.974 353.892C821.477 354.42 821.849 355.034 822.088 355.732C822.329 356.414 822.408 357.153 822.325 357.949C822.24 358.761 822.009 359.475 821.633 360.093C821.257 360.71 820.768 361.226 820.166 361.639C819.549 362.051 818.828 362.345 818.005 362.522C817.2 362.685 816.319 362.716 815.36 362.616ZM809.528 359.028L815.595 359.66C816.569 359.762 817.355 359.63 817.951 359.266C818.564 358.903 818.909 358.348 818.987 357.6C819.063 356.87 818.84 356.255 818.317 355.757C817.812 355.245 817.072 354.938 816.098 354.836L810.031 354.204C809.057 354.102 808.27 354.25 807.67 354.647C807.072 355.028 806.735 355.584 806.659 356.315C806.581 357.062 806.796 357.675 807.304 358.155C807.812 358.635 808.554 358.926 809.528 359.028ZM822.095 365.584L821.785 368.556L817.472 368.107L816.913 373.467L813.673 373.129L814.232 367.769L809.189 367.243L808.63 372.603L805.414 372.267L805.973 366.907L801.636 366.455L801.946 363.483L822.095 365.584ZM836.159 363.258C836.087 363.94 835.883 364.559 835.546 365.115C835.211 365.655 834.778 366.102 834.249 366.457C833.717 366.829 833.099 367.093 832.393 367.249C831.703 367.407 830.96 367.444 830.165 367.361C829.352 367.277 828.625 367.086 827.983 366.789C827.341 366.492 826.798 366.107 826.355 365.634C825.91 365.177 825.579 364.65 825.362 364.053C825.163 363.441 825.099 362.794 825.171 362.112C825.242 361.43 825.437 360.818 825.756 360.277C826.093 359.721 826.526 359.265 827.056 358.91C827.587 358.538 828.198 358.274 828.888 358.116C829.579 357.942 830.331 357.897 831.143 357.982C831.939 358.065 832.657 358.263 833.297 358.576C833.956 358.874 834.507 359.26 834.95 359.733C835.395 360.19 835.725 360.725 835.94 361.339C836.157 361.936 836.23 362.576 836.159 363.258ZM842.331 372.793L842.024 375.741L824.287 373.891L824.943 367.605L828.158 367.94L827.81 371.278L842.331 372.793ZM845.871 361.044L845.551 364.114L842.822 363.83L842.119 370.578L838.878 370.24L840.527 354.429L843.768 354.766L843.143 360.76L845.871 361.044ZM837.928 355.266L837.653 357.897L824.936 356.571L825.21 353.939L829.839 354.422L830.037 352.522L833.278 352.86L833.08 354.76L837.928 355.266ZM833.064 362.935C833.127 362.334 832.962 361.792 832.569 361.307C832.193 360.825 831.631 360.545 830.884 360.467C830.104 360.385 829.488 360.543 829.036 360.939C828.585 361.335 828.327 361.834 828.265 362.435C828.202 363.036 828.352 363.568 828.714 364.033C829.077 364.482 829.649 364.746 830.429 364.828C831.176 364.906 831.782 364.764 832.246 364.402C832.729 364.025 833.002 363.536 833.064 362.935Z" fill="white"/>
<g filter="url(#filter1_d_13486_8284)">
<path d="M248.528 560.189C247.971 554.948 251.768 550.249 257.008 549.691L781.195 493.964C783.889 493.678 786.578 494.55 788.591 496.364L860.253 560.924C863.874 564.186 864.455 569.652 861.601 573.602L805.114 651.786C803.527 653.982 801.082 655.4 798.388 655.687L274.201 711.414C268.961 711.971 264.261 708.174 263.704 702.934L248.528 560.189Z" fill="url(#paint2_linear_13486_8284)"/>
<path d="M320.186 640.428C319.734 640.285 319.283 640.142 318.832 639.999C318.407 639.853 317.982 639.694 317.554 639.522C317.13 639.376 316.706 639.23 316.281 639.085C315.857 638.939 315.431 638.78 315.004 638.607C317.099 633.696 318.349 628.534 318.755 623.121C319.161 617.708 319.07 612.239 318.482 606.713L323.86 606.141C324.066 608.082 324.22 610.042 324.321 612.021C324.422 614 324.456 615.986 324.423 617.98C325.029 619.578 325.758 621.177 326.609 622.776C327.458 624.349 328.409 625.856 329.462 627.298C330.49 628.77 331.605 630.15 332.805 631.44C334.032 632.727 335.312 633.872 336.646 634.875C336.327 635.209 336.008 635.543 335.689 635.876C335.397 636.207 335.104 636.525 334.809 636.829C334.49 637.162 334.17 637.483 333.848 637.789C333.556 638.12 333.264 638.451 332.972 638.782C331.156 637.34 329.45 635.654 327.855 633.725C326.284 631.765 324.893 629.705 323.682 627.544C323.348 629.788 322.888 632.004 322.303 634.192C321.742 636.351 321.036 638.429 320.186 640.428ZM340.312 622.056L330.447 623.104L329.901 617.97L339.766 616.921L338.416 604.226L343.753 603.658L347.467 638.59L342.13 639.158L340.312 622.056ZM382.324 615.259L382.802 619.746L352.398 622.979L351.121 610.971L375.784 608.349L375.47 605.397L350.807 608.019L350.33 603.532L380.37 600.338L381.63 612.184L356.967 614.806L357.298 617.919L382.324 615.259ZM384.428 622.354L384.948 627.246L377.792 628.007L378.604 635.648L373.227 636.22L372.415 628.578L364.046 629.468L364.858 637.11L359.521 637.677L358.709 630.036L351.512 630.801L350.992 625.909L384.428 622.354ZM427.454 616.185L428.894 629.729L400.188 632.781L398.748 619.237L404.085 618.669L404.356 621.217L422.388 619.3L422.117 616.752L427.454 616.185ZM407.953 617.359L406.457 617.518C405.244 617.647 404.11 617.617 403.054 617.43C402.025 617.239 401.102 616.888 400.284 616.375C399.469 615.889 398.803 615.265 398.286 614.502C397.793 613.71 397.49 612.788 397.379 611.737C397.273 610.739 397.379 609.815 397.697 608.963C398.04 608.082 398.558 607.318 399.253 606.672C399.944 605.998 400.773 605.461 401.739 605.058C402.729 604.626 403.83 604.345 405.043 604.216L406.539 604.057C407.725 603.931 408.847 603.975 409.906 604.19C410.961 604.377 411.885 604.729 412.675 605.245C413.49 605.73 414.158 606.368 414.678 607.158C415.195 607.921 415.507 608.801 415.613 609.798C415.725 610.849 415.609 611.816 415.267 612.697C414.922 613.551 414.402 614.302 413.707 614.948C413.042 615.618 412.214 616.156 411.221 616.562C410.228 616.967 409.139 617.233 407.953 617.359ZM430.521 601.957L431.063 607.052L426.534 607.533L427.299 614.73L421.922 615.301L419.825 595.571L425.202 594.999L425.993 602.439L430.521 601.957ZM415.86 597.506L416.32 601.832L395.215 604.075L394.755 599.749L402.437 598.933L402.136 596.102L407.513 595.531L407.814 598.361L415.86 597.506ZM405.033 627.973L423.106 626.052L422.827 623.424L404.754 625.345L405.033 627.973ZM406.019 613.394L407.514 613.235C408.431 613.137 409.176 612.84 409.75 612.343C410.321 611.819 410.564 611.153 410.478 610.344C410.401 609.616 410.025 609.029 409.351 608.583C408.676 608.137 407.881 607.962 406.964 608.06L405.468 608.219C404.498 608.322 403.744 608.661 403.205 609.236C402.667 609.811 402.436 610.463 402.513 611.191C402.599 611.999 402.963 612.601 403.605 612.996C404.244 613.365 405.048 613.497 406.019 613.394ZM462.284 591.057L464.472 611.636L459.135 612.204L458.736 608.444L451.337 609.23L450.851 604.662L458.25 603.875L457.876 600.358L450.881 601.101L450.396 596.533L457.39 595.789L456.948 591.625L462.284 591.057ZM432.143 594.834L449.043 593.037L449.352 595.948C449.584 598.132 449.398 600.223 448.793 602.223C448.185 604.195 447.232 606 445.934 607.638C444.666 609.299 443.089 610.748 441.203 611.984C439.318 613.22 437.212 614.18 434.886 614.864C434.407 614.206 433.929 613.561 433.453 612.931C433.002 612.27 432.55 611.609 432.098 610.948C433.848 610.49 435.444 609.857 436.884 609.049C438.322 608.215 439.555 607.253 440.584 606.162C441.64 605.068 442.453 603.864 443.022 602.55C443.615 601.206 443.942 599.795 444.003 598.316L432.642 599.524L432.143 594.834ZM464.64 613.213L466.037 626.353L460.7 626.92L459.814 618.592L435.718 621.154L435.206 616.342L464.64 613.213ZM502.506 618.183L502.897 621.862L472.494 625.094L471.565 616.361L496.228 613.739L496.082 612.365L471.419 614.987L471.028 611.307L476.526 610.723L476.359 609.146L469.162 609.911L468.758 606.111L502.194 602.556L502.598 606.357L495.402 607.122L495.569 608.698L501.068 608.114L501.992 616.806L477.329 619.428L477.48 620.843L502.506 618.183ZM481.823 610.16L490.232 609.266L490.065 607.689L481.655 608.583L481.823 610.16ZM500.331 597.725L500.727 601.445L470.323 604.677L469.399 595.984L494.062 593.362L493.92 592.028L469.257 594.65L468.862 590.93L498.902 587.737L499.826 596.429L475.163 599.051L475.305 600.386L500.331 597.725ZM516.576 617.709L515.807 610.472C515.632 608.828 515.733 607.468 516.109 606.392C516.512 605.313 517.274 604.278 518.396 603.287L524.334 597.994C524.929 597.44 525.354 596.823 525.609 596.142C525.891 595.457 525.989 594.711 525.903 593.902C525.777 592.716 525.411 591.842 524.806 591.28C524.228 590.714 523.4 590.489 522.322 590.603C521.217 590.721 520.442 591.13 519.999 591.831C519.556 592.533 519.4 593.503 519.532 594.743L514.195 595.311C513.871 592.265 514.404 589.973 515.795 588.435C517.209 586.867 519.21 585.946 521.797 585.671C524.358 585.398 526.493 585.867 528.202 587.075C529.939 588.281 530.965 590.366 531.28 593.331C531.478 595.191 531.31 596.817 530.776 598.209C530.267 599.572 529.413 600.766 528.213 601.793L522.519 606.692C521.969 607.159 521.573 607.665 521.331 608.208C521.116 608.749 521.049 609.397 521.129 610.152L521.352 612.254L533.158 610.999L533.678 615.891L516.576 617.709ZM547.757 606.544L546.141 591.342C546.032 590.318 545.651 589.554 544.998 589.051C544.372 588.545 543.573 588.344 542.603 588.447C541.579 588.556 540.814 588.924 540.308 589.55C539.829 590.173 539.644 590.997 539.753 592.021L541.369 607.223C541.481 608.274 541.836 609.054 542.436 609.563C543.059 610.042 543.883 610.227 544.907 610.118C545.877 610.015 546.617 609.664 547.126 609.064C547.658 608.435 547.869 607.595 547.757 606.544ZM551.439 590.411L553.137 606.381C553.386 608.726 552.844 610.678 551.511 612.237C550.204 613.793 548.176 614.718 545.427 615.01C542.651 615.305 540.447 614.831 538.816 613.587C537.211 612.34 536.284 610.544 536.035 608.199L534.337 592.229C534.085 589.857 534.612 587.893 535.919 586.337C537.249 584.75 539.303 583.81 542.079 583.515C544.828 583.222 547.006 583.713 548.614 584.987C550.245 586.231 551.187 588.039 551.439 590.411ZM567.845 604.408L566.229 589.206C566.12 588.182 565.739 587.419 565.086 586.916C564.46 586.41 563.661 586.208 562.691 586.312C561.667 586.42 560.902 586.788 560.396 587.414C559.917 588.038 559.732 588.861 559.841 589.886L561.457 605.087C561.569 606.139 561.924 606.919 562.523 607.427C563.147 607.906 563.971 608.091 564.995 607.982C565.965 607.879 566.705 607.528 567.213 606.929C567.746 606.3 567.957 605.46 567.845 604.408ZM571.527 588.275L573.225 604.245C573.474 606.59 572.932 608.542 571.599 610.102C570.292 611.658 568.264 612.582 565.515 612.874C562.739 613.17 560.535 612.695 558.903 611.451C557.299 610.204 556.372 608.408 556.123 606.063L554.425 590.093C554.173 587.721 554.7 585.757 556.006 584.201C557.337 582.615 559.39 581.674 562.167 581.379C564.916 581.087 567.094 581.577 568.702 582.851C570.333 584.095 571.275 585.903 571.527 588.275ZM592.122 578.603L597.297 578.053L584.27 610.513L579.095 611.063L592.122 578.603ZM581.811 588.531L581.467 585.297C581.407 584.731 581.241 584.326 580.97 584.082C580.696 583.811 580.316 583.702 579.831 583.753C579.292 583.811 578.917 584.001 578.706 584.323C578.519 584.615 578.455 585.044 578.515 585.611L578.859 588.845C578.919 589.411 579.073 589.831 579.32 590.104C579.591 590.348 579.997 590.441 580.536 590.384C581.021 590.332 581.37 590.159 581.584 589.864C581.795 589.541 581.871 589.097 581.811 588.531ZM586.176 584.592L586.558 588.19C586.762 590.104 586.334 591.594 585.275 592.66C584.244 593.724 582.811 594.354 580.978 594.548C579.119 594.746 577.573 594.433 576.34 593.61C575.108 592.787 574.39 591.419 574.187 589.505L573.804 585.907C573.603 584.02 574.019 582.545 575.051 581.481C576.08 580.391 577.524 579.746 579.384 579.549C581.217 579.354 582.751 579.681 583.986 580.531C585.245 581.351 585.975 582.705 586.176 584.592ZM598.002 603.533L597.659 600.298C597.598 599.732 597.431 599.314 597.157 599.043C596.91 598.77 596.53 598.66 596.018 598.715C595.479 598.772 595.118 598.96 594.933 599.28C594.749 599.599 594.687 600.042 594.748 600.608L595.091 603.842C595.152 604.408 595.305 604.828 595.552 605.102C595.797 605.348 596.188 605.443 596.727 605.386C597.24 605.331 597.589 605.158 597.776 604.865C597.987 604.543 598.063 604.099 598.002 603.533ZM602.408 599.589L602.79 603.187C602.991 605.074 602.562 606.551 601.503 607.617C600.444 608.684 598.999 609.315 597.166 609.51C595.306 609.707 593.76 609.395 592.528 608.572C591.295 607.749 590.579 606.394 590.378 604.507L589.996 600.909C589.795 599.022 590.211 597.547 591.242 596.483C592.271 595.392 593.716 594.748 595.575 594.55C597.408 594.355 598.956 594.682 600.218 595.529C601.477 596.349 602.207 597.702 602.408 599.589ZM646.227 596.852L640.85 597.424L638.77 577.856L614.107 580.477L613.583 575.545L643.622 572.351L646.227 596.852ZM648.308 600.27L648.832 605.203L615.396 608.757L614.872 603.825L625.707 602.673L624.151 588.037L629.528 587.465L631.084 602.101L648.308 600.27ZM675.139 604.123L663.899 605.318C660.664 605.662 658.021 605.411 655.969 604.567C653.946 603.746 652.797 602.042 652.522 599.454C652.299 597.352 652.913 595.569 654.366 594.106C655.846 592.64 657.96 591.762 660.709 591.469L671.909 590.279C675.143 589.935 677.777 590.227 679.811 591.156C681.869 592.055 683.029 593.73 683.29 596.183C683.525 598.393 682.911 600.189 681.45 601.571C679.992 602.98 677.888 603.831 675.139 604.123ZM661.76 600.966L673.606 599.707C674.9 599.569 675.946 599.281 676.744 598.842C677.572 598.426 677.935 597.734 677.832 596.763C677.728 595.793 677.227 595.179 676.327 594.92C675.454 594.658 674.371 594.596 673.077 594.734L662.201 595.89C660.962 596.022 659.916 596.31 659.063 596.755C658.211 597.2 657.837 597.908 657.94 598.878C658.023 599.66 658.384 600.235 659.023 600.603C659.688 600.968 660.601 601.089 661.76 600.966ZM665.883 583.6L683.107 581.769L683.597 586.378L650.161 589.933L649.671 585.324L660.506 584.172L659.913 578.593L665.29 578.021L665.883 583.6ZM681.207 580.05L675.829 580.621L675.111 573.869L650.449 576.491L649.937 571.68L679.977 568.486L681.207 580.05ZM730.068 569.54L730.609 574.634L726.081 575.115L726.915 582.959L721.538 583.531L719.432 563.72L724.809 563.148L725.54 570.021L730.068 569.54ZM701.399 565.637L706.777 565.065C706.891 566.143 706.937 567.215 706.914 568.28C706.918 569.343 706.864 570.371 706.751 571.364C708.064 572.942 709.676 574.392 711.589 575.716C713.501 577.039 715.439 578.087 717.402 578.859L714.629 583.161C713.001 582.462 711.38 581.571 709.766 580.489C708.152 579.407 706.69 578.226 705.382 576.948C704.746 578.651 703.933 580.237 702.944 581.705C701.953 583.146 700.797 584.454 699.477 585.63L695.105 582.579C697.557 580.519 699.313 578.057 700.371 575.191C701.426 572.298 701.769 569.114 701.399 565.637ZM720.192 599.334L708.588 600.567C705.758 600.868 703.455 600.486 701.679 599.421C699.933 598.38 698.935 596.687 698.686 594.342C698.463 592.239 699.088 590.428 700.562 588.909C702.063 587.386 704.228 586.475 707.058 586.174L718.662 584.94C721.438 584.645 723.72 585.084 725.507 586.257C727.295 587.43 728.3 589.067 728.524 591.17C728.773 593.515 728.14 595.381 726.625 596.769C725.113 598.183 722.968 599.038 720.192 599.334ZM708.107 596.039L719.711 594.805C720.762 594.694 721.599 594.359 722.221 593.802C722.843 593.246 723.111 592.563 723.025 591.754C722.942 590.973 722.538 590.375 721.812 589.962C721.084 589.521 720.194 589.357 719.143 589.468L707.54 590.702C706.408 590.822 705.545 591.173 704.953 591.754C704.385 592.305 704.142 592.971 704.225 593.753C704.311 594.562 704.69 595.176 705.361 595.595C706.06 596.011 706.975 596.159 708.107 596.039ZM733.742 575.568L731.108 571.555C732.788 571.213 734.373 570.731 735.86 570.11C737.345 569.461 738.694 568.691 739.908 567.798C741.121 566.906 742.157 565.883 743.016 564.729C743.872 563.547 744.496 562.241 744.889 560.809L750.446 561.158C750.327 561.58 750.194 561.989 750.045 562.387C749.921 562.754 749.795 563.108 749.667 563.449C751.682 564.707 754.021 565.685 756.685 566.383C759.376 567.078 762.111 567.428 764.892 567.432L763.371 571.969C760.482 571.976 757.593 571.588 754.702 570.805C751.835 569.992 749.321 568.91 747.16 567.559C745.549 569.584 743.564 571.294 741.205 572.69C738.869 574.056 736.382 575.015 733.742 575.568ZM731.911 577.194L765.348 573.639L765.846 578.329L732.41 581.884L731.911 577.194ZM765.501 587.77C765.733 589.953 765.1 591.697 763.603 593.001C762.107 594.305 759.943 595.108 757.113 595.408L744.579 596.741C741.722 597.045 739.425 596.716 737.687 595.756C735.95 594.796 734.965 593.224 734.733 591.041C734.512 588.966 735.147 587.249 736.639 585.891C738.13 584.533 740.304 583.702 743.161 583.399L755.694 582.066C758.525 581.765 760.811 582.122 762.555 583.136C764.298 584.15 765.28 585.695 765.501 587.77ZM760.002 588.355C759.93 587.681 759.575 587.16 758.936 586.792C758.324 586.421 757.372 586.304 756.078 586.441L743.666 587.761C742.453 587.89 741.559 588.203 740.985 588.7C740.411 589.197 740.16 589.783 740.231 590.457C740.309 591.184 740.652 591.72 741.261 592.064C741.9 592.433 742.866 592.548 744.16 592.41L756.572 591.091C757.866 590.953 758.773 590.639 759.293 590.147C759.843 589.68 760.079 589.083 760.002 588.355ZM767.62 558.024L772.957 557.457L775.562 581.958L770.225 582.525L767.62 558.024ZM777.071 592.305L770.926 592.959L770.285 586.934L776.431 586.281L777.071 592.305Z" fill="white"/>
</g>
</g>
<defs>
<filter id="filter0_d_13486_8284" x="76.6725" y="243.39" width="865.452" height="336.657" filterUnits="userSpaceOnUse" color-interpolation-filters="sRGB">
<feFlood flood-opacity="0" result="BackgroundImageFix"/>
<feColorMatrix in="SourceAlpha" type="matrix" values="0 0 0 0 0 0 0 0 0 0 0 0 0 0 0 0 0 0 127 0" result="hardAlpha"/>
<feOffset/>
<feGaussianBlur stdDeviation="30.4938"/>
<feComposite in2="hardAlpha" operator="out"/>
<feColorMatrix type="matrix" values="0 0 0 0 0 0 0 0 0 0 0 0 0 0 0 0 0 0 0.8 0"/>
<feBlend mode="normal" in2="BackgroundImageFix" result="effect1_dropShadow_13486_8284"/>
<feBlend mode="normal" in="SourceGraphic" in2="effect1_dropShadow_13486_8284" result="shape"/>
</filter>
<filter id="filter1_d_13486_8284" x="207.814" y="453.253" width="696.254" height="298.873" filterUnits="userSpaceOnUse" color-interpolation-filters="sRGB">
<feFlood flood-opacity="0" result="BackgroundImageFix"/>
<feColorMatrix in="SourceAlpha" type="matrix" values="0 0 0 0 0 0 0 0 0 0 0 0 0 0 0 0 0 0 127 0" result="hardAlpha"/>
<feOffset/>
<feGaussianBlur stdDeviation="20.3292"/>
<feComposite in2="hardAlpha" operator="out"/>
<feColorMatrix type="matrix" values="0 0 0 0 0 0 0 0 0 0 0 0 0 0 0 0 0 0 0.25 0"/>
<feBlend mode="normal" in2="BackgroundImageFix" result="effect1_dropShadow_13486_8284"/>
<feBlend mode="normal" in="SourceGraphic" in2="effect1_dropShadow_13486_8284" result="shape"/>
</filter>
<linearGradient id="paint0_linear_13486_8284" x1="529.419" y1="387.349" x2="529.419" y2="881.348" gradientUnits="userSpaceOnUse">
<stop stop-color="#E8F9FD"/>
<stop offset="1" stop-color="#193029"/>
</linearGradient>
<linearGradient id="paint1_linear_13486_8284" x1="137.9" y1="370.222" x2="874.085" y2="446.997" gradientUnits="userSpaceOnUse">
<stop stop-color="#EE7DFF"/>
<stop offset="1" stop-color="#E84DFF"/>
</linearGradient>
<linearGradient id="paint2_linear_13486_8284" x1="256.116" y1="631.561" x2="866.618" y2="566.658" gradientUnits="userSpaceOnUse">
<stop stop-color="#8A84FF"/>
<stop offset="1" stop-color="#CA60FF"/>
</linearGradient>
<clipPath id="clip0_13486_8284">
<rect width="1034" height="775.5" fill="white" transform="translate(0 0.25)"/>
</clipPath>
</defs>
</svg>
