<svg viewBox="0 0 44 44" fill="none" xmlns="http://www.w3.org/2000/svg">
<path d="M35.6786 37.4007H30.5214C30.0075 37.4007 29.5772 37.0112 29.5263 36.4998L27.2434 13.5665C27.1848 12.9779 27.647 12.4674 28.2385 12.4674H41.9568C42.6165 12.4674 43.0955 13.0951 42.9213 13.7315L36.6431 36.6648C36.5242 37.0994 36.1292 37.4007 35.6786 37.4007Z" fill="#C772E6"/>
<path d="M10.7382 6.75566C10.7944 6.24922 11.2225 5.86609 11.7321 5.86609H37.7494C38.3454 5.86609 38.8091 6.38415 38.7433 6.97652L35.4618 36.5099C35.4055 37.0163 34.9775 37.3994 34.4679 37.3994H8.45058C7.85457 37.3994 7.39088 36.8814 7.45669 36.289L10.7382 6.75566Z" fill="url(#paint0_linear_418_127)"/>
<path d="M31.4502 12.5206H14.4403C13.9467 12.5206 13.5269 12.1604 13.4519 11.6725L13.1408 9.64874C13.0658 9.16085 12.6461 8.80066 12.1524 8.80066H2.57222C1.98062 8.80066 1.51834 9.31145 1.57718 9.90012L4.23603 36.5001C4.28713 37.0113 4.7173 37.4007 5.23107 37.4007H34.0791C34.6766 37.4007 35.1408 36.8801 35.0726 36.2865L32.4436 13.4064C32.3856 12.9016 31.9583 12.5206 31.4502 12.5206Z" fill="url(#paint1_linear_418_127)"/>
<defs>
<linearGradient id="paint0_linear_418_127" x1="21.7374" y1="5.86609" x2="31.6384" y2="35.5503" gradientUnits="userSpaceOnUse">
<stop stop-color="#F1CAFF"/>
<stop offset="1" stop-color="#F7E2FF"/>
</linearGradient>
<linearGradient id="paint1_linear_418_127" x1="7.62134" y1="8.55911" x2="17.4965" y2="33.6718" gradientUnits="userSpaceOnUse">
<stop stop-color="#E18FFF"/>
<stop offset="1" stop-color="#EBB3FF"/>
</linearGradient>
</defs>
</svg>
