<svg width="32" height="32" viewBox="0 0 32 32" fill="none" xmlns="http://www.w3.org/2000/svg">
<g clip-path="url(#clip0_20878_17961)">
<path d="M32 16C32 7.16344 24.8366 0 16 0C7.16344 0 0 7.16344 0 16C0 24.8366 7.16344 32 16 32C24.8366 32 32 24.8366 32 16Z" fill="#68DBF2"/>
<path d="M9 21C10.3807 21 11.5 19.8807 11.5 18.5C11.5 17.1193 10.3807 16 9 16C7.61929 16 6.5 17.1193 6.5 18.5C6.5 19.8807 7.61929 21 9 21Z" fill="#EAC0B3"/>
<path d="M9 20.5H17.5V32.935C17.5 32.935 15.6785 34 13.25 34C10.8215 34 9 32.2615 9 32.2615V20.5Z" fill="#EAC0B3"/>
<path d="M17.4053 26.556C17.4053 29.2485 16.9703 28.9935 14.1388 28.9935C11.3073 28.9935 10.0008 26.811 10.0008 24.1185C10.0008 21.4265 9.89329 19 12.1783 19C18.6398 19.238 17.4053 23.8635 17.4053 26.556Z" fill="#C99688"/>
<path d="M22.9439 18.05C22.9439 22.511 22.2509 27.9965 16.7509 27.9965C11.2509 27.9965 8.71486 22.511 8.71486 18.05C7.50086 12.75 7.75086 6.5 16.0009 6.5C24.2509 6.5 22.9439 13.5885 22.9439 18.05Z" fill="#F5D0C5"/>
<path d="M19 20.5H18.5C18.2239 20.5 18 20.7239 18 21C18 21.2761 18.2239 21.5 18.5 21.5H19C19.2761 21.5 19.5 21.2761 19.5 21C19.5 20.7239 19.2761 20.5 19 20.5Z" fill="#EAC0B3"/>
<path d="M19 30H8C5.51472 30 3.5 32.0147 3.5 34.5V37C3.5 39.4853 5.51472 41.5 8 41.5H19C21.4853 41.5 23.5 39.4853 23.5 37V34.5C23.5 32.0147 21.4853 30 19 30Z" fill="#E05A33"/>
<path fill-rule="evenodd" clip-rule="evenodd" d="M14.4816 13.1013C17.2866 14.0328 21.1761 15.3238 25.2491 11.2508C27.2491 9.25081 18.2491 0.750813 10.9991 5.50081C5.3326 6.34031 5.6561 9.73581 5.9061 12.3558C5.9541 12.8573 5.9991 13.3298 5.9991 13.7508C5.9991 14.0173 6.0341 14.2168 6.0991 14.3598C6.03178 14.9042 5.99839 15.4523 5.9991 16.0008C5.9991 16.5312 6.20982 17.04 6.58489 17.415C6.95996 17.7901 7.46867 18.0008 7.9991 18.0008C8.52954 18.0008 9.03824 17.7901 9.41332 17.415C9.78839 17.04 9.9991 16.5312 9.9991 16.0008C10.3044 16.0009 10.6058 15.931 10.8799 15.7965C11.1541 15.6621 11.3938 15.4667 11.5807 15.2253C11.7677 14.9838 11.8969 14.7028 11.9584 14.4037C12.0199 14.1046 12.0121 13.7954 11.9356 13.4998L11.9991 13.5008C12.6111 13.5008 13.1586 13.2258 13.5256 12.7933C13.8276 12.8843 14.1471 12.9903 14.4816 13.1013Z" fill="#1B0B47"/>
<path d="M15.1345 20.269C16.3134 20.269 17.269 19.3134 17.269 18.1345C17.269 16.9556 16.3134 16 15.1345 16C13.9556 16 13 16.9556 13 18.1345C13 19.3134 13.9556 20.269 15.1345 20.269Z" stroke="black"/>
<path d="M22.1345 20.269C23.3134 20.269 24.269 19.3134 24.269 18.1345C24.269 16.9556 23.3134 16 22.1345 16C20.9556 16 20 16.9556 20 18.1345C20 19.3134 20.9556 20.269 22.1345 20.269Z" stroke="black"/>
<path d="M16.9922 17.552L20.4922 17.5" stroke="black"/>
</g>
<defs>
<clipPath id="clip0_20878_17961">
<rect width="32" height="32" rx="16" fill="white"/>
</clipPath>
</defs>
</svg>
