<svg width="201" height="186" viewBox="0 0 201 186" fill="none" xmlns="http://www.w3.org/2000/svg">
<g clip-path="url(#clip0_16747_24075)">
<path fill-rule="evenodd" clip-rule="evenodd" d="M14.2163 -8.20964C14.3212 -8.64506 14.7592 -8.91299 15.1947 -8.80807L141.15 21.5425C141.586 21.6474 141.853 22.0855 141.749 22.5209L136.357 44.8978C136.313 45.0805 136.125 45.1884 135.942 45.1444C132.42 44.2958 128.914 46.3125 128.11 49.6489C127.306 52.9853 129.509 56.3778 133.031 57.2264C133.213 57.2705 133.331 57.4521 133.287 57.6348L127.734 80.6829C127.629 81.1183 127.191 81.3863 126.755 81.2813L0.799823 50.9307C0.364398 50.8258 0.0964728 50.3878 0.201394 49.9524L5.75513 26.9043C5.79915 26.7216 5.98696 26.6136 6.16966 26.6576C9.69136 27.5062 13.198 25.4895 14.0019 22.1531C14.8059 18.8168 12.6027 15.4242 9.08097 14.5756C8.89827 14.5316 8.78026 14.3499 8.82428 14.1672L14.2163 -8.20964Z" fill="#E9ABFF"/>
<path d="M46.5141 15.7753L44.5439 23.9519L43.8189 23.7772L45.7891 15.6006L46.5141 15.7753ZM39.2522 17.7054C39.6747 15.9721 40.8038 15.0742 42.0209 15.3626C43.2311 15.659 43.841 16.976 43.4185 18.7094C43.0041 20.4495 41.8623 21.3395 40.6521 21.043C39.435 20.7546 38.8378 19.4456 39.2522 17.7054ZM39.9497 17.8735C39.6301 19.1995 39.989 20.2084 40.8069 20.4007C41.6271 20.6032 42.4015 19.8674 42.7211 18.5413C43.0406 17.2152 42.6863 16.2074 41.8661 16.0049C41.0482 15.8127 40.2692 16.5474 39.9497 17.8735ZM51.66 17.5493L51.1094 19.8343L48.3013 19.1577L47.9961 20.4241C49.5276 20.798 50.3291 20.9571 51.3301 21.0138L51.2598 21.628C50.2059 21.5489 49.3688 21.3763 47.7169 20.9782L47.1388 20.8389L47.7182 18.4346L50.5263 19.1113L50.8049 17.955L47.9784 17.2739L48.1177 16.6957L51.66 17.5493ZM47.7182 22.4641L47.8597 21.8768L53.3566 23.2014L52.7021 25.9177L51.9771 25.743L52.4901 23.614L47.7182 22.4641ZM51.4784 20.6806L51.6221 20.0841L53.2464 20.4755L53.5118 19.3743L51.8874 18.9829L52.029 18.3956L53.6533 18.787L53.9452 17.5756L54.6701 17.7503L53.4628 22.7609L52.7378 22.5862L53.1027 21.072L51.4784 20.6806ZM58.3744 20.9538C58.0138 22.4302 58.6054 24.1457 59.6587 24.9724L59.0859 25.4558C58.274 24.7552 57.7421 23.5978 57.6594 22.3496C57.0028 23.4828 55.9844 24.3443 54.9393 24.612L54.6105 23.921C55.9497 23.6223 57.273 22.2808 57.6402 20.7769L57.9985 19.2902L58.7326 19.4672L58.3744 20.9538ZM59.328 22.4361L59.4695 21.8488L61.4059 22.3154L62.0781 19.5256L62.7939 19.6981L60.8236 27.8747L60.1078 27.7022L61.2643 22.9027L59.328 22.4361ZM68.9046 21.5784C70.0976 21.8658 70.7733 22.7083 70.5435 23.6822C70.3354 24.5254 69.5334 24.9729 68.5216 24.8602L68.3292 25.6586C69.1008 25.8008 69.8929 25.9189 70.6295 25.9847L70.5541 26.5394C68.7502 26.43 66.7889 25.9865 65.3813 25.6425L65.4333 25.0239C66.0654 25.1811 66.8098 25.3556 67.5965 25.516L67.7955 24.6901C66.8126 24.3367 66.2851 23.564 66.4965 22.707C66.7263 21.7332 67.7116 21.2909 68.9046 21.5784ZM67.1756 22.8707C67.0171 23.4879 67.4706 24.0438 68.2633 24.2397C69.0628 24.4275 69.7105 24.1369 69.8644 23.5186C70.0124 22.8843 69.5681 22.3305 68.7697 22.1382C67.9759 21.9469 67.319 22.2352 67.1756 22.8707ZM65.7727 28.8536L66.3189 26.587L67.0439 26.7616L66.6436 28.4227L71.3973 29.5681L71.2513 30.1738L65.7727 28.8536ZM70.6484 28.2031L72.1521 21.9628L72.8771 22.1375L72.2115 24.8997L73.432 25.1938L73.2838 25.8087L72.0633 25.5146L71.3734 28.3778L70.6484 28.2031ZM77.1306 24.5121C76.8406 25.6753 77.4245 26.8987 78.5237 27.5956L77.985 28.0581C77.1664 27.5065 76.6201 26.6709 76.4736 25.7277C75.8893 26.621 74.9636 27.199 73.8875 27.3329L73.6344 26.6505C74.9978 26.513 76.0938 25.6313 76.4082 24.3671L76.6116 23.5229L77.3274 23.6953L77.1306 24.5121ZM74.3592 29.4856C74.5912 28.5026 75.7688 28.1892 77.4654 28.6029C79.1596 29.0063 80.0652 29.8216 79.8286 30.8035C79.5942 31.7763 78.4199 32.0759 76.7268 31.6679C75.0291 31.2589 74.1202 30.4573 74.3592 29.4856ZM75.075 29.6581C74.9278 30.2489 75.6124 30.7926 76.8661 31.0898C78.1131 31.3951 78.9702 31.223 79.1128 30.6311C79.2598 30.0208 78.5763 29.4726 77.3283 29.1718C76.0756 28.87 75.2174 29.0467 75.075 29.6581ZM78.2873 25.9171L78.4311 25.3206L80.2481 25.7585L80.6704 24.0057L81.3954 24.1804L80.2301 29.0166L79.5051 28.8419L80.1043 26.355L78.2873 25.9171ZM87.1452 27.236C86.9462 28.0619 87.4275 29.0663 88.3656 29.6662L87.9162 30.121C87.1669 29.6443 86.7086 28.927 86.574 28.1761C86.1023 28.8441 85.3532 29.3335 84.4648 29.4544L84.2487 28.8198C85.3716 28.6729 86.2502 27.9281 86.4661 27.0723L86.4838 26.9989L84.9788 26.6363L85.1159 26.0673L86.6209 26.4299L86.8354 25.5398L87.5145 25.7034L87.3 26.5936L88.7775 26.9496L88.6404 27.5186L87.1629 27.1625L87.1452 27.236ZM85.3503 30.7359L85.4852 30.1761L90.8995 31.4807L90.4462 33.362L85.766 32.2343L85.556 33.1061L90.5665 34.3134L90.4316 34.8732L84.7053 33.4934L85.1807 31.5203L89.8701 32.6503L90.058 31.8703L85.3503 30.7359ZM88.5533 30.459L89.5505 26.3203L90.248 26.4883L89.8389 28.186L90.9034 28.4425L91.3501 26.5888L92.0384 26.7547L90.988 31.1137L90.2997 30.9478L90.7597 29.039L89.6952 28.7825L89.2507 30.6271L88.5533 30.459ZM99.958 28.663L98.5118 34.6647L97.8052 34.4944L99.2514 28.4927L99.958 28.663ZM93.3635 28.3071L93.505 27.7198L97.2308 28.6176L96.6625 30.976L93.6525 30.2507L93.3385 31.5538C94.8573 31.9198 95.9374 32.1315 97.2866 32.2139L97.2163 32.8281C95.8304 32.7369 94.7227 32.5185 93.1558 32.1507L92.4951 31.9914L93.0922 29.5137L96.0838 30.2346L96.3735 29.0324L93.3635 28.3071ZM92.6863 35.3485L93.2745 32.9075L93.9995 33.0822L93.5572 34.9175L98.4209 36.0895L98.275 36.6952L92.6863 35.3485ZM103.67 32.1984C103.34 33.5852 104.006 35.236 105.083 36.0442L104.542 36.5158C103.692 35.8546 103.097 34.716 102.988 33.4955C102.319 34.6013 101.243 35.4393 100.199 35.6829L99.9045 35.01C101.209 34.7321 102.6 33.4359 102.945 32.0237L103.201 30.9592L101.274 30.4948L101.418 29.8983L106.015 31.0062L105.872 31.6027L103.926 31.1339L103.67 32.1984ZM105.391 38.5944L107.357 30.4361L108.082 30.6108L106.116 38.769L105.391 38.5944Z" fill="#11141F"/>
<path d="M42.2933 34.5204C42.3864 32.974 41.4073 31.8365 39.9075 31.4751C37.888 30.9885 36.0827 32.1944 35.4177 34.9914C34.7254 37.827 35.8021 39.6823 37.8131 40.1669C39.2788 40.5201 40.6604 39.9874 41.3077 38.6107L43.5403 39.1486C42.6286 41.4355 40.2214 42.857 37.2986 42.1527C34.0434 41.3683 32.2177 38.4309 33.1851 34.4535C34.1375 30.4634 37.1243 28.6947 40.3539 29.4729C43.0808 30.1299 44.8036 32.2221 44.5259 35.0584L42.2933 34.5204ZM56.9598 40.1823C56.0073 44.1723 53.0035 45.937 49.7739 45.1588C46.5272 44.3765 44.6759 41.4329 45.6434 37.4555C46.5958 33.4654 49.5826 31.6966 52.8292 32.479C56.0588 33.2572 57.9292 36.1963 56.9598 40.1823ZM47.876 37.9934C47.1878 40.8119 48.2433 42.6802 50.2544 43.1648C52.2739 43.6514 54.056 42.4669 54.7272 39.6443C55.4153 36.8258 54.3683 34.9596 52.3488 34.473C50.3377 33.9884 48.5471 35.1708 47.876 37.9934ZM68.2119 36.3659L70.4445 36.9039L68.502 44.9651C67.8549 47.6132 65.4236 48.9478 62.4155 48.223C59.3904 47.494 57.8508 45.2026 58.4809 42.5504L60.4233 34.4892L62.6389 35.023L60.7416 42.8968C60.3744 44.4583 61.1897 45.8268 62.8919 46.246C64.5982 46.6482 65.9388 45.7991 66.3146 44.2397L68.2119 36.3659ZM69.755 49.7932L72.7282 37.4542L77.3638 38.5712C80.1929 39.2529 81.2864 41.3377 80.7241 43.7087C80.1468 46.067 78.2088 47.4123 75.3627 46.7265L72.9767 46.1515L71.9705 50.327L69.755 49.7932ZM73.4161 44.328L75.4953 44.829C77.1675 45.2229 78.1433 44.4663 78.4575 43.1625C78.7757 41.8417 78.2455 40.7492 76.5754 40.3467L74.4961 39.8457L73.4161 44.328ZM93.0222 48.872C92.0698 52.8621 89.066 54.6267 85.8364 53.8485C82.5897 53.0662 80.7384 50.1226 81.7058 46.1452C82.6583 42.1551 85.6451 40.3864 88.8917 41.1687C92.1213 41.9469 93.9917 44.886 93.0222 48.872ZM83.9385 46.6831C83.2503 49.5017 84.3058 51.3699 86.3168 51.8545C88.3364 52.3411 90.1185 51.1567 90.7896 48.334C91.4778 45.5155 90.4308 43.6493 88.4112 43.1627C86.4002 42.6781 84.6096 43.8605 83.9385 46.6831ZM106.626 45.6224L103.653 57.9613L101.676 57.4849L97.8632 47.6402L97.761 47.6156L95.7281 56.0517L93.5126 55.5179L96.4858 43.1789L98.4969 43.6635L102.276 53.5L102.395 53.5288L104.428 45.0926L106.626 45.6224Z" fill="#11141F"/>
</g>
<g clip-path="url(#clip1_16747_24075)">
<path fill-rule="evenodd" clip-rule="evenodd" d="M56.7305 83.0453C56.5773 82.6244 56.7943 82.159 57.2152 82.0058L178.963 37.6946C179.384 37.5414 179.849 37.7585 180.002 38.1793L187.874 59.8086C187.939 59.9852 187.842 60.179 187.665 60.2433C184.261 61.4822 182.453 65.1009 183.627 68.3258C184.801 71.5506 188.512 73.1606 191.916 71.9216C192.092 71.8574 192.291 71.9436 192.355 72.1201L200.464 94.3982C200.617 94.8191 200.4 95.2845 199.979 95.4377L78.2313 139.749C77.8105 139.902 77.3451 139.685 77.1919 139.264L69.0836 116.986C69.0193 116.809 69.1162 116.616 69.2928 116.551C72.6968 115.313 74.5048 111.694 73.3311 108.469C72.1574 105.244 68.4464 103.634 65.0423 104.873C64.8657 104.937 64.667 104.851 64.6027 104.675L56.7305 83.0453Z" fill="#FFC346"/>
<path d="M92.0703 94.0993L92.2866 94.6936L85.0661 97.3216L84.8498 96.7273L88.0875 95.5489L87.4257 93.7305L84.8444 94.67L84.641 94.1111L85.874 93.6624L84.9313 91.0723L83.6806 91.5275L83.4707 90.9509L89.3606 88.8072L89.5705 89.3838L88.3197 89.839L89.2624 92.4291L90.4954 91.9804L90.6988 92.5392L88.1087 93.4819L88.7705 95.3003L92.0703 94.0993ZM86.5659 93.4106L88.5794 92.6777L87.6367 90.0876L85.6232 90.8204L86.5659 93.4106ZM98.3409 89.4966L98.5475 90.0643L93.0923 92.0498L91.5814 87.8985L96.9479 85.9453L97.161 86.5307L92.5041 88.2257L92.9302 89.3965L97.4186 87.763L97.622 88.3218L93.1336 89.9554L93.5953 91.2238L98.3409 89.4966ZM92.897 94.4112L92.6871 93.8346L99.9075 91.2067L100.117 91.7833L92.897 94.4112ZM104.831 82.5438L105.028 83.0849L103.813 83.5271L104.374 85.0706L105.563 84.638L105.757 85.1702L103.211 86.0967L103.492 86.8685L106.747 85.6836L106.951 86.2425L99.7657 88.8575L99.5624 88.2987L102.8 87.1203L102.519 86.3486L99.9822 87.2719L99.7885 86.7397L100.977 86.3071L100.415 84.7636L99.2002 85.2059L99.0032 84.6648L104.831 82.5438ZM101.051 89.6854L100.864 89.1709L106.257 87.208L106.874 88.9022L102.191 90.6068L102.475 91.3874L107.398 89.5956L107.591 90.1279L101.976 92.1715L101.315 90.353L106.007 88.6452L105.762 87.9711L101.051 89.6854ZM101.669 86.0552L103.683 85.3224L103.121 83.779L101.107 84.5118L101.669 86.0552ZM112.613 79.4705L115.489 87.3739L114.797 87.6257L111.921 79.7223L112.613 79.4705ZM107.023 82.9915L106.813 82.415L110.486 81.0784L111.506 83.8814L108.561 84.9532L109.239 86.816C110.549 86.3442 111.693 85.8576 113.021 85.1181L113.305 85.6777C111.937 86.4318 110.76 86.9253 109.399 87.4208L108.742 87.6597L107.645 84.6438L110.598 83.5688L109.995 81.91L107.023 82.9915ZM117.732 78.19C119.411 77.5887 120.915 77.9657 121.367 79.2075C121.795 80.3828 121.03 81.5399 119.568 82.1875L120.171 83.8418L123.461 82.6441L123.674 83.2295L116.454 85.8575L116.241 85.272L119.488 84.0904L118.885 82.4361C117.356 82.872 116.027 82.4769 115.601 81.306C115.149 80.0641 116.063 78.8074 117.732 78.19ZM116.275 81.0606C116.602 81.9714 117.752 82.2207 119.033 81.7647C120.307 81.2909 121.024 80.3621 120.693 79.4529C120.368 78.5614 119.217 78.2972 117.942 78.7665C116.663 79.227 115.946 80.1708 116.275 81.0606ZM126.621 74.7938C127.774 74.3741 128.803 74.7028 129.15 75.6415C129.442 76.4591 129.021 77.2754 128.116 77.7406L128.397 78.5123C129.118 78.2044 129.844 77.8651 130.494 77.5129L130.738 78.0169C129.174 78.9226 127.294 79.6369 125.931 80.128L125.632 79.5837C126.246 79.3654 126.963 79.0994 127.707 78.7984L127.417 78.0001C126.402 78.2488 125.535 77.8962 125.238 77.0652C124.891 76.1266 125.468 75.2135 126.621 74.7938ZM125.894 76.8263C126.104 77.4283 126.789 77.641 127.558 77.3662C128.328 77.0809 128.707 76.4807 128.493 75.8804C128.266 75.2699 127.59 75.054 126.818 75.3349C126.051 75.6141 125.663 76.2175 125.894 76.8263ZM128.032 82.5879L127.234 80.397L127.935 80.1419L128.519 81.7475L133.114 80.0751L133.327 80.6606L128.032 82.5879ZM131.736 79.3513L129.54 73.3195L130.241 73.0645L131.213 75.7344L132.393 75.305L132.609 75.8994L131.429 76.3287L132.436 79.0963L131.736 79.3513ZM135.098 72.6929C135.5 73.8227 136.662 74.5195 137.963 74.4929L137.77 75.1761C136.783 75.1687 135.866 74.7742 135.223 74.0691C135.229 75.1365 134.777 76.1298 133.954 76.8361L133.366 76.4072C134.427 75.5391 134.853 74.1987 134.416 72.9713L134.119 72.1553L134.811 71.9035L135.098 72.6929ZM135.537 78.3696C135.187 77.422 135.995 76.5101 137.638 75.9173C139.273 75.3172 140.478 75.4963 140.824 76.4454C141.166 77.3857 140.353 78.2843 138.716 78.8799C137.075 79.4772 135.875 79.3114 135.537 78.3696ZM136.229 78.1177C136.433 78.6915 137.304 78.7662 138.513 78.3211C139.721 77.8865 140.34 77.2694 140.132 76.6972C139.917 76.1074 139.045 76.0282 137.838 76.4672C136.627 76.9079 136.01 77.5295 136.229 78.1177ZM136.839 73.2247L136.629 72.6481L138.385 72.0089L137.769 70.3147L138.469 70.0596L140.171 74.7343L139.47 74.9893L138.595 72.5855L136.839 73.2247ZM144.95 69.4287C145.241 70.227 146.197 70.7982 147.31 70.7797L147.187 71.4072C146.299 71.424 145.521 71.0794 144.994 70.5279C144.97 71.3453 144.616 72.1672 143.942 72.7589L143.411 72.3494C144.266 71.6064 144.587 70.5002 144.294 69.6676L144.268 69.5967L142.813 70.1261L142.613 69.5762L144.068 69.0467L143.755 68.1863L144.411 67.9474L144.724 68.8078L146.152 68.288L146.352 68.838L144.924 69.3578L144.95 69.4287ZM145.388 73.3376L145.191 72.7965L150.425 70.8917L151.087 72.7101L146.563 74.3566L146.87 75.1993L151.713 73.4366L151.91 73.9777L146.375 75.9922L145.681 74.0851L150.213 72.4354L149.939 71.6814L145.388 73.3376ZM147.905 71.3368L146.449 67.3363L147.123 67.0909L147.72 68.7319L148.749 68.3574L148.097 66.5656L148.762 66.3235L150.296 70.5369L149.63 70.779L148.959 68.934L147.93 69.3085L148.579 71.0914L147.905 71.3368ZM156.417 63.5374L158.529 69.3385L157.846 69.5871L155.734 63.786L156.417 63.5374ZM150.725 66.8851L150.518 66.3174L154.119 65.0066L154.949 67.2863L152.04 68.3452L152.498 69.6048C153.966 69.0705 154.983 68.65 156.153 67.9731L156.434 68.5238C155.229 69.2137 154.185 69.6438 152.676 70.2031L152.037 70.4356L151.165 68.0406L154.057 66.9881L153.634 65.8261L150.725 66.8851ZM154.051 73.1278L153.193 70.7683L153.893 70.5133L154.539 72.2873L159.24 70.5763L159.453 71.1617L154.051 73.1278ZM161.464 64.4327C161.956 65.7705 163.423 66.7786 164.768 66.8569L164.578 67.5489C163.503 67.4677 162.379 66.8475 161.613 65.8904C161.666 67.1819 161.233 68.4748 160.497 69.2549L159.88 68.8567C160.814 67.904 161.256 66.0554 160.764 64.6878L160.389 63.6588L158.526 64.3368L158.317 63.7602L162.761 62.1428L162.97 62.7194L161.09 63.4038L161.464 64.4327ZM166.434 68.8121L163.564 60.9264L164.264 60.6713L167.134 68.557L166.434 68.8121Z" fill="#11141F"/>
<path d="M103.745 103.144C102.968 101.803 101.524 101.396 100.074 101.924C98.1219 102.634 97.2837 104.637 98.2752 107.336C99.2653 110.082 101.188 111.033 103.132 110.325C104.548 109.81 105.406 108.602 105.184 107.097L107.342 106.312C107.846 108.721 106.625 111.236 103.8 112.265C100.654 113.41 97.509 111.971 96.1172 108.121C94.706 104.269 96.2178 101.145 99.3395 100.009C101.975 99.0492 104.567 99.8408 105.903 102.358L103.745 103.144ZM119.098 99.7573C120.509 103.609 118.981 106.74 115.859 107.876C112.721 109.018 109.551 107.588 108.159 103.738C106.748 99.8866 108.26 96.7619 111.398 95.6197C114.52 94.4835 117.703 95.8995 119.098 99.7573ZM110.317 102.953C111.301 105.682 113.213 106.656 115.157 105.949C117.109 105.238 117.94 103.266 116.94 100.543C115.956 97.8134 114.052 96.8366 112.1 97.5471C110.156 98.2546 109.317 100.23 110.317 102.953ZM126.366 90.3584L128.524 89.573L131.36 97.3649C132.284 99.9295 130.996 102.385 128.088 103.444C125.164 104.508 122.615 103.449 121.674 100.89L118.838 93.0984L120.98 92.319L123.75 99.9297C124.306 101.434 125.742 102.124 127.393 101.533C129.037 100.925 129.685 99.4764 129.136 97.9691L126.366 90.3584ZM135.073 100.696L130.732 88.7695L135.213 87.1387C137.947 86.1434 140.011 87.2766 140.852 89.5634C141.674 91.848 140.803 94.0402 138.052 95.0415L135.745 95.8809L137.214 99.9168L135.073 100.696ZM135.104 94.1182L137.114 93.3867C138.725 92.7909 139.12 91.6211 138.661 90.3609C138.197 89.0842 137.151 88.4667 135.537 89.0542L133.527 89.7857L135.104 94.1182ZM153.955 87.0705C155.367 90.9222 153.838 94.053 150.717 95.1891C147.578 96.3313 144.409 94.9011 143.017 91.0516C141.606 87.1998 143.118 84.0751 146.256 82.9329C149.377 81.7967 152.561 83.2127 153.955 87.0705ZM145.175 90.2662C146.159 92.9955 148.071 93.9692 150.015 93.2617C151.967 92.5513 152.798 90.5792 151.797 87.8559C150.813 85.1266 148.909 84.1498 146.957 84.8603C145.013 85.5678 144.174 87.5428 145.175 90.2662ZM163.497 76.8442L167.838 88.7709L165.927 89.4664L157.309 83.3686L157.21 83.4046L160.178 91.5589L158.037 92.3383L153.696 80.4116L155.64 79.7041L164.225 85.8139L164.34 85.772L161.372 77.6176L163.497 76.8442Z" fill="#11141F"/>
</g>
<g clip-path="url(#clip2_16747_24075)">
<path fill-rule="evenodd" clip-rule="evenodd" d="M26.0286 119.227C26.0818 118.782 26.4855 118.465 26.9302 118.518L155.573 133.916C156.017 133.97 156.335 134.373 156.281 134.818L153.546 157.672C153.523 157.859 153.35 157.988 153.163 157.966C149.566 157.535 146.32 159.949 145.912 163.356C145.504 166.764 148.089 169.875 151.686 170.306C151.873 170.328 152.011 170.494 151.989 170.681L149.171 194.221C149.118 194.665 148.714 194.983 148.269 194.93L19.6271 179.531C19.1824 179.478 18.865 179.074 18.9182 178.63L21.7359 155.09C21.7582 154.903 21.9321 154.774 22.1187 154.797C25.7155 155.227 28.962 152.814 29.3699 149.406C29.7777 145.999 27.1926 142.887 23.5957 142.457C23.4091 142.434 23.2707 142.268 23.293 142.081L26.0286 119.227Z" fill="#6FD6FF"/>
<path d="M48.2567 140.348C48.0875 141.682 48.8767 143.269 50.0168 143.99L49.5255 144.521C48.6432 143.95 47.969 142.871 47.7293 141.696C47.1986 142.874 46.2354 143.852 45.2456 144.218L44.8653 143.583C46.1351 143.141 47.3557 141.68 47.535 140.261L47.6652 139.174L45.725 138.942L45.798 138.333L50.3343 138.876L50.2614 139.485L48.3869 139.261L48.2567 140.348ZM50.4618 146.468L51.4591 138.136L52.1902 138.223L51.7863 141.597L53.1828 141.765L53.1077 142.393L51.7112 142.225L51.1928 146.556L50.4618 146.468ZM60.9255 139.269L59.9281 147.601L59.1877 147.512L60.1851 139.18L60.9255 139.269ZM53.4015 144.624C55.7835 143.825 57.1276 142.365 57.5301 140.393L54.3434 140.012L54.4152 139.412L58.3517 139.883C58.0557 142.277 56.6862 144.266 53.7327 145.272L53.4015 144.624ZM69.1664 146.986L69.0935 147.595L61.4642 146.682L61.5371 146.073L64.9487 146.481L65.1933 144.438L65.915 144.524L65.6704 146.568L69.1664 146.986ZM62.1433 143.55C63.6305 143.476 65.3978 142.452 65.5702 141.051L65.6465 140.414L66.415 140.506L66.3387 141.143C66.1768 142.536 67.6747 143.96 69.0978 144.383L68.6968 144.953C67.4582 144.538 66.2206 143.52 65.8253 142.256C65.1339 143.385 63.7045 144.089 62.3984 144.199L62.1433 143.55ZM77.74 141.281L76.7426 149.614L76.0209 149.527L76.5426 145.169L75.3898 145.031L74.9175 148.977L74.2145 148.893L75.1356 141.198L75.8385 141.282L75.4627 144.422L76.6155 144.56L77.0183 141.195L77.74 141.281ZM69.9142 146.458C71.9792 145.607 72.9582 144.179 73.2911 142.47L70.7511 142.166L70.8241 141.556L74.0857 141.947C73.8228 144.064 72.8382 145.976 70.2836 147.025L69.9142 146.458ZM81.5864 144.014C81.4011 145.522 82.1894 147.157 83.3323 147.855L82.82 148.402C81.9317 147.801 81.268 146.714 81.0397 145.484C80.5203 146.686 79.6098 147.661 78.6031 148.049L78.1958 147.401C79.4907 146.948 80.6479 145.461 80.8366 143.924L81.0184 142.406L81.7682 142.496L81.5864 144.014ZM82.707 145.375L82.7788 144.775L84.7564 145.011L85.0975 142.162L85.8286 142.25L84.829 150.601L84.0979 150.513L84.6846 145.611L82.707 145.375ZM92.1173 143.402C93.3358 143.548 94.1055 144.305 93.9912 145.299C93.8833 146.161 93.1391 146.699 92.1211 146.706L92.0235 147.521C92.8065 147.572 93.6069 147.597 94.3462 147.576L94.3362 148.136C92.5319 148.238 90.5322 148.027 89.094 147.85L89.0732 147.23C89.7194 147.312 90.4791 147.398 91.2792 147.465L91.3801 146.622C90.3626 146.386 89.7483 145.68 89.8579 144.804C89.9721 143.81 90.8989 143.256 92.1173 143.402ZM90.5515 144.888C90.4664 145.519 90.9818 146.018 91.792 146.12C92.608 146.213 93.2172 145.848 93.2977 145.216C93.3704 144.569 92.8643 144.071 92.0489 143.973C91.2382 143.876 90.6195 144.24 90.5515 144.888ZM89.8586 150.994L90.1357 148.679L90.8762 148.767L90.6731 150.464L95.5281 151.045L95.4541 151.663L89.8586 150.994ZM94.6246 149.777L95.3875 143.403L96.128 143.492L95.7903 146.313L97.0368 146.462L96.9617 147.09L95.7151 146.941L95.3651 149.865L94.6246 149.777ZM100.63 145.352C100.478 146.542 101.201 147.688 102.375 148.252L101.894 148.774C101.016 148.322 100.376 147.556 100.12 146.637C99.6443 147.592 98.7926 148.274 97.7396 148.533L97.4084 147.885C98.7463 147.589 99.7316 146.585 99.8958 145.293L99.999 144.431L100.73 144.518L100.63 145.352ZM98.46 150.616C98.5754 149.613 99.7082 149.164 101.442 149.376C103.171 149.578 104.166 150.282 104.046 151.285C103.927 152.278 102.796 152.713 101.067 152.506C99.3329 152.299 98.3364 151.609 98.46 150.616ZM99.1911 150.704C99.114 151.308 99.8576 151.767 101.138 151.916C102.412 152.073 103.243 151.802 103.315 151.197C103.39 150.574 102.647 150.11 101.372 149.957C100.093 149.804 99.261 150.08 99.1911 150.704ZM101.943 146.612L102.016 146.003L103.872 146.225L104.086 144.435L104.827 144.524L104.236 149.463L103.495 149.374L103.799 146.835L101.943 146.612ZM110.895 146.885C110.794 147.729 111.389 148.67 112.391 149.156L111.998 149.66C111.198 149.275 110.659 148.616 110.438 147.886C110.047 148.604 109.361 149.178 108.493 149.402L108.204 148.797C109.302 148.52 110.087 147.677 110.201 146.802L110.21 146.727L108.673 146.543L108.743 145.962L110.28 146.146L110.389 145.237L111.082 145.32L110.973 146.229L112.482 146.41L112.413 146.991L110.904 146.81L110.895 146.885ZM109.522 150.571L109.59 149.999L115.12 150.661L114.89 152.583L110.11 152.011L110.004 152.901L115.121 153.514L115.053 154.085L109.204 153.385L109.445 151.37L114.235 151.943L114.33 151.147L109.522 150.571ZM112.67 149.921L113.176 145.694L113.889 145.78L113.681 147.513L114.768 147.644L114.995 145.75L115.698 145.834L115.165 150.286L114.462 150.202L114.696 148.253L113.608 148.123L113.383 150.007L112.67 149.921ZM123.787 146.803L123.053 152.932L122.331 152.846L123.065 146.716L123.787 146.803ZM117.196 147.221L117.268 146.621L121.073 147.077L120.784 149.486L117.71 149.118L117.551 150.448C119.102 150.634 120.2 150.718 121.549 150.642L121.551 151.26C120.164 151.332 119.039 151.245 117.439 151.063L116.765 150.982L117.068 148.451L120.123 148.817L120.27 147.589L117.196 147.221ZM117.347 154.293L117.646 151.8L118.386 151.889L118.162 153.763L123.129 154.358L123.055 154.977L117.347 154.293ZM127.887 149.879C127.722 151.295 128.576 152.857 129.74 153.533L129.258 154.065C128.336 153.508 127.613 152.447 127.362 151.247C126.826 152.424 125.856 153.382 124.847 153.746L124.476 153.112C125.74 152.684 126.969 151.234 127.146 149.791L127.276 148.703L125.308 148.468L125.381 147.859L130.077 148.421L130.004 149.03L128.017 148.792L127.887 149.879ZM130.345 156.03L131.342 147.698L132.082 147.786L131.085 156.118L130.345 156.03Z" fill="#11141F"/>
<path d="M58.9099 158.376C58.8213 156.829 57.7158 155.814 56.184 155.631C54.1214 155.384 52.4696 156.793 52.1366 159.649C51.781 162.546 53.0675 164.262 55.1214 164.508C56.6184 164.687 57.9281 163.997 58.4098 162.554L60.69 162.827C60.0523 165.204 57.828 166.898 54.8428 166.541C51.5182 166.143 49.3612 163.439 49.8564 159.376C50.3352 155.302 53.0945 153.195 56.393 153.59C59.178 153.924 61.1339 155.8 61.1901 158.649L58.9099 158.376ZM74.1382 162.282C73.6594 166.356 70.8827 168.461 67.5843 168.066C64.2684 167.669 62.0852 164.962 62.5804 160.899C63.0593 156.825 65.8185 154.718 69.1344 155.115C72.4329 155.51 74.6345 158.21 74.1382 162.282ZM64.8606 161.172C64.5071 164.051 65.7741 165.783 67.828 166.029C69.8907 166.276 71.5219 164.891 71.858 162.009C72.2115 159.13 70.9533 157.399 68.8906 157.152C66.8367 156.906 65.1968 158.29 64.8606 161.172ZM84.8663 157.175L87.1465 157.448L86.161 165.681C85.8283 168.387 83.5699 169.997 80.4977 169.629C77.408 169.259 75.6108 167.164 75.9261 164.456L76.9116 156.223L79.1744 156.494L78.2118 164.535C78.0299 166.129 78.9997 167.393 80.7393 167.61C82.481 167.81 83.713 166.809 83.9037 165.217L84.8663 157.175ZM87.9705 170.329L89.4789 157.727L94.2134 158.294C97.1029 158.64 98.4329 160.582 98.152 163.003C97.8547 165.412 96.0875 166.975 93.1806 166.627L90.7437 166.336L90.2333 170.6L87.9705 170.329ZM90.9667 164.473L93.0903 164.727C94.7971 164.923 95.6776 164.057 95.837 162.726C95.9984 161.377 95.344 160.354 93.6382 160.149L91.5146 159.895L90.9667 164.473ZM110.97 166.691C110.491 170.765 107.714 172.869 104.416 172.474C101.1 172.077 98.917 169.371 99.4122 165.308C99.891 161.233 102.65 159.127 105.966 159.524C109.265 159.919 111.466 162.619 110.97 166.691ZM101.692 165.58C101.339 168.46 102.606 170.192 104.66 170.438C106.722 170.685 108.354 169.3 108.69 166.418C109.043 163.538 107.785 161.808 105.722 161.561C103.668 161.315 102.029 162.699 101.692 165.58ZM124.1 161.871L122.592 174.473L120.572 174.232L115.633 164.901L115.529 164.888L114.498 173.505L112.235 173.234L113.743 160.632L115.797 160.877L120.701 170.204L120.823 170.219L121.855 161.602L124.1 161.871Z" fill="#11141F"/>
</g>
<defs>
<clipPath id="clip0_16747_24075">
<rect x="14.3984" y="-9" width="131.183" height="61.4487" rx="3.24389" transform="rotate(13.5479 14.3984 -9)" fill="white"/>
</clipPath>
<clipPath id="clip1_16747_24075">
<rect x="56.4453" y="82.2852" width="131.183" height="61.4487" rx="3.24389" transform="rotate(-19.9995 56.4453 82.2852)" fill="white"/>
</clipPath>
<clipPath id="clip2_16747_24075">
<rect x="26.1172" y="118.422" width="131.183" height="61.4487" rx="3.24389" transform="rotate(6.82572 26.1172 118.422)" fill="white"/>
</clipPath>
</defs>
</svg>
