<svg width="168" height="56" viewBox="0 0 168 56" fill="none" xmlns="http://www.w3.org/2000/svg">
<path d="M0 12C0 5.37258 5.37258 0 12 0H156C162.627 0 168 5.37258 168 12V44C168 50.6274 162.627 56 156 56H12C5.37259 56 0 50.6274 0 44V12Z" fill="#03C75A"/>
<path d="M42.8491 28.5627L36.9169 20H32V36H37.1509V27.436L43.0831 36H48V20H42.8491V28.5627Z" fill="white"/>
<path d="M59.913 30.8516H57.9208V22.5703H59.913V30.8516ZM58.9052 30.3281C59.8791 30.3333 60.7359 30.3073 61.4755 30.25C62.2203 30.1927 62.9833 30.0781 63.7646 29.9062L64.038 31.5938C63.2203 31.7708 62.4156 31.8906 61.6239 31.9531C60.8375 32.0104 59.9312 32.0365 58.9052 32.0312H57.9208V30.3281H58.9052ZM69.6942 35.4375H67.8192V21.2031H69.6942V35.4375ZM65.2099 27.3281H61.9208V25.7266H65.2099V27.3281ZM66.6552 34.8125H64.7724V21.4766H66.6552V34.8125ZM83.0123 35.4766H80.9889V21.2031H83.0123V35.4766ZM75.2857 22.2109C75.9993 22.2109 76.6399 22.4193 77.2076 22.8359C77.7805 23.2526 78.2259 23.8438 78.5436 24.6094C78.8665 25.375 79.0279 26.2656 79.0279 27.2812C79.0279 28.3021 78.8665 29.1953 78.5436 29.9609C78.2259 30.7266 77.7805 31.3177 77.2076 31.7344C76.6399 32.1458 75.9993 32.3516 75.2857 32.3516C74.5618 32.3516 73.9134 32.1458 73.3404 31.7344C72.7727 31.3177 72.3274 30.7266 72.0045 29.9609C71.6816 29.1953 71.5201 28.3021 71.5201 27.2812C71.5201 26.2656 71.6816 25.375 72.0045 24.6094C72.3274 23.8438 72.7727 23.2526 73.3404 22.8359C73.9134 22.4193 74.5618 22.2109 75.2857 22.2109ZM75.2857 24.0156C74.9212 24.0104 74.5982 24.1354 74.317 24.3906C74.041 24.6406 73.8274 25.013 73.6764 25.5078C73.5305 25.9974 73.4576 26.5885 73.4576 27.2812C73.4576 27.974 73.5305 28.5651 73.6764 29.0547C73.8274 29.5443 74.041 29.9167 74.317 30.1719C74.5982 30.4219 74.9212 30.5469 75.2857 30.5469C75.6451 30.5469 75.9628 30.4219 76.2389 30.1719C76.5149 29.9167 76.7285 29.5443 76.8795 29.0547C77.0305 28.5651 77.1061 27.974 77.1061 27.2812C77.1061 26.5885 77.0305 25.9974 76.8795 25.5078C76.7285 25.013 76.5149 24.6406 76.2389 24.3906C75.968 24.1354 75.6503 24.0104 75.2857 24.0156ZM96.8382 35.4766H94.8616V21.2031H96.8382V35.4766ZM95.4241 27.8438H91.5804V26.2266H95.4241V27.8438ZM87.3538 25.7656H90.2679V22.3203H92.221V32.0938H85.3616V22.3203H87.3538V25.7656ZM90.2679 30.5V27.3281H87.3538V30.5H90.2679ZM115.185 33.8594H102.185V32.2266H115.185V33.8594ZM109.638 32.9062H107.677V29.5312H109.638V32.9062ZM113.685 26.8516H105.67V29.2812H103.685V25.2891H111.716V23.7422H103.662V22.1406H113.685V26.8516ZM114.021 30.0703H103.685V28.4531H114.021V30.0703ZM126.347 24.1328H117.253V22.5234H126.347V24.1328ZM128.886 33.5625H115.917V31.9453H128.886V33.5625ZM127.285 24.2266C127.285 25.1172 127.274 25.862 127.253 26.4609C127.238 27.0547 127.193 27.7396 127.12 28.5156C127.053 29.2917 126.938 30.1406 126.777 31.0625L124.753 30.8984C124.925 30.0443 125.05 29.237 125.128 28.4766C125.206 27.7161 125.253 27.0312 125.269 26.4219C125.285 25.8073 125.292 25.0755 125.292 24.2266V22.5234H127.285V24.2266ZM141.54 31.4531H139.548V21.2344H141.54V31.4531ZM141.931 35.1953H132.017V33.5859H141.931V35.1953ZM134.032 34.2422H132.017V30.4297H134.032V34.2422ZM133.751 22.1328C134.475 22.1328 135.134 22.2865 135.728 22.5938C136.327 22.8958 136.795 23.3229 137.134 23.875C137.472 24.4219 137.642 25.0339 137.642 25.7109C137.642 26.4089 137.472 27.0312 137.134 27.5781C136.795 28.125 136.327 28.5547 135.728 28.8672C135.134 29.1745 134.475 29.3281 133.751 29.3281C133.027 29.3281 132.368 29.1745 131.775 28.8672C131.186 28.5547 130.72 28.125 130.376 27.5781C130.032 27.0312 129.86 26.4089 129.86 25.7109C129.86 25.0339 130.032 24.4219 130.376 23.875C130.72 23.3229 131.186 22.8958 131.775 22.5938C132.368 22.2865 133.027 22.1328 133.751 22.1328ZM133.751 23.8672C133.381 23.862 133.048 23.9349 132.751 24.0859C132.459 24.2318 132.228 24.4453 132.056 24.7266C131.889 25.0078 131.806 25.3359 131.806 25.7109C131.806 26.0964 131.889 26.4323 132.056 26.7188C132.228 27 132.459 27.2161 132.751 27.3672C133.048 27.513 133.381 27.5859 133.751 27.5859C134.116 27.5859 134.441 27.513 134.728 27.3672C135.019 27.2161 135.248 27 135.415 26.7188C135.582 26.4323 135.665 26.0964 135.665 25.7109C135.665 25.3359 135.582 25.0078 135.415 24.7266C135.248 24.4453 135.019 24.2318 134.728 24.0859C134.441 23.9349 134.116 23.862 133.751 23.8672Z" fill="#FAFAFA"/>
</svg>
