<svg width="109" height="83" viewBox="0 0 109 83" fill="none" xmlns="http://www.w3.org/2000/svg">
<path d="M14.9059 8.96906C10.7041 16.6684 5.68707 21.1934 2.55188 22.7341L15.6339 25.5536C19.3536 23.5392 25.4869 15.2261 27.7752 10.9605L14.9059 8.96906Z" fill="white" fill-opacity="0.5"/>
<path d="M57.5278 31.1912C61.7296 38.8906 65.4062 41.468 68.3986 43.6054L55.3166 46.425C51.5969 44.4105 46.9468 37.4482 44.6584 33.1826L57.5278 31.1912Z" fill="white" fill-opacity="0.5"/>
<path d="M98.5833 72.5571C101.148 76.5597 104.139 76.9968 107.132 79.1343L93.0248 79.1343C89.3051 77.1198 87.1558 76.8235 84.8674 72.5579L85.7525 72.6284C90.0237 72.9687 94.3162 72.9449 98.5833 72.5571Z" fill="white" fill-opacity="0.5"/>
<rect x="87.5157" width="12.2915" height="14.8164" transform="rotate(28.8458 87.5157 0)" fill="white" fill-opacity="0.5"/>
</svg>
