<svg width="36" height="37" viewBox="0 0 36 37" fill="none" xmlns="http://www.w3.org/2000/svg">
<g id="Logo/Resource/Lets">
<path id="Union" d="M34.268 33.8254C31.7843 35.2186 27.2431 32.3698 22.8488 27.0983C24.2404 31.3523 24.191 34.7469 22.4204 35.7401C20.4246 36.8596 16.8029 34.6137 13.3225 30.4439C13.8662 33.0966 13.467 35.2434 12.049 36.0388C9.69598 37.3587 5.42849 34.4573 2.51734 29.5583C-0.393814 24.6593 -0.84624 19.6179 1.50682 18.2979C2.92475 17.5025 5.03784 18.24 7.13041 20.0237C5.15377 15.0103 4.96266 10.8397 6.95849 9.72017C8.72915 8.72693 11.7796 10.3827 14.8757 13.6807C12.3742 7.34765 12.1055 2.10233 14.5892 0.709125C17.9507 -1.1765 25.081 4.70822 30.5152 13.853C35.9493 22.9978 37.6295 31.9398 34.268 33.8254Z" fill="url(#paint0_linear_7792_40157)"/>
</g>
<defs>
<linearGradient id="paint0_linear_7792_40157" x1="37.6232" y1="-9.15699" x2="11.3947" y2="32.1144" gradientUnits="userSpaceOnUse">
<stop stop-color="#907CFF"/>
<stop offset="1" stop-color="#4D55F5"/>
</linearGradient>
</defs>
</svg>
