<svg viewBox="0 0 76 50" fill="none" xmlns="http://www.w3.org/2000/svg">
<g clip-path="url(#clip0_66_14)">
<path d="M16.7809 15.509L20.8541 17.4143C21.6108 17.7682 22.4866 17.7635 23.2411 17.4014L53.124 3.05708C54.5067 2.39338 56.162 2.96877 56.8349 4.34697L72.1187 35.6541C72.8013 37.0523 72.2136 38.7428 70.8109 39.4161L22.7616 62.4805C21.3689 63.149 19.702 62.56 19.0384 61.165L1.7015 24.7171C1.03793 23.3221 1.629 21.6492 3.02168 20.9807L14.3939 15.5219C15.1484 15.1597 16.0242 15.155 16.7809 15.509Z" fill="#C2EDDB"/>
<rect width="50.3522" height="16.5277" rx="1.67829" transform="matrix(0.901518 -0.432742 0.429544 0.903046 8.99707 30.3105)" fill="white"/>
<rect width="58.9212" height="48.6306" rx="2.23772" transform="matrix(0.901518 -0.432742 0.429544 0.903046 6.94141 35.7307)" fill="#C2EDDB"/>
</g>
<defs>
<clipPath id="clip0_66_14">
<rect width="75" height="50" fill="white" transform="translate(0.5)"/>
</clipPath>
</defs>
</svg>
