<svg viewBox="0 0 76 54" fill="none" xmlns="http://www.w3.org/2000/svg">
<g clip-path="url(#clip0_66_21)">
<rect width="57.5515" height="55.187" rx="1.68595" transform="matrix(0.901727 -0.432305 0.430135 0.902765 0 24.8799)" fill="#F2D8FF"/>
<path d="M26.3705 32.9533L27.7891 33.6937L28.7449 34.1379L31.152 35.3769L29.5849 36.1509L27.9598 35.3245L27.2419 34.9194L24.9145 33.6724L26.3705 32.9533ZM28.8583 29.8606C29.3065 30.8296 29.5199 31.7607 29.4984 32.6537C29.479 33.5404 29.2472 34.3284 28.8031 35.0177C28.357 35.7027 27.7411 36.2392 26.9556 36.6272C26.17 37.0152 25.3792 37.1734 24.5832 37.1019C23.7893 37.024 23.0494 36.7133 22.3635 36.1697C21.6775 35.6261 21.1115 34.8719 20.6652 33.9071C20.2131 32.9295 19.9988 31.9964 20.0222 31.1076C20.0457 30.2189 20.2784 29.433 20.7204 28.75C21.1666 28.065 21.7824 27.5285 22.568 27.1405C23.3536 26.7525 24.1444 26.5943 24.9404 26.6658C25.7364 26.7373 26.4743 27.0438 27.1542 27.5852C27.8382 28.1245 28.4062 28.883 28.8583 29.8606ZM27.2481 30.6559C26.9296 29.9673 26.5525 29.4304 26.1167 29.0453C25.685 28.658 25.224 28.4315 24.7337 28.3656C24.2476 28.2976 23.7556 28.3866 23.258 28.6324C22.7685 28.8741 22.3926 29.2138 22.1302 29.6514C21.8719 30.0871 21.7509 30.6011 21.7672 31.1934C21.7876 31.7838 21.957 32.4233 22.2755 33.1118C22.5939 33.8004 22.969 34.3382 23.4007 34.7255C23.8365 35.1106 24.2996 35.3362 24.7898 35.4021C25.2842 35.466 25.7761 35.377 26.2656 35.1353C26.7633 34.8895 27.1392 34.5498 27.3934 34.1162C27.6517 33.6806 27.7706 33.1676 27.7502 32.5773C27.7339 31.9849 27.5665 31.3444 27.2481 30.6559Z" fill="white"/>
<path d="M35.0455 32.6394C34.4574 32.9299 33.8871 33.0732 33.3346 33.0694C32.7862 33.0635 32.3002 32.925 31.8767 32.6538C31.4553 32.3763 31.1326 31.9953 30.9085 31.5108C30.7414 31.1495 30.6629 30.7941 30.673 30.4445C30.6853 30.0886 30.7597 29.7308 30.8964 29.3709C31.0331 29.011 31.2308 28.6027 31.4895 28.146L32.559 26.2472C32.7272 25.9553 32.8275 25.6969 32.8599 25.472C32.8944 25.2409 32.8596 25.0127 32.7555 24.7874C32.6906 24.6472 32.5916 24.5316 32.4586 24.4406C32.3278 24.3434 32.1747 24.2911 31.9995 24.2836C31.8223 24.2719 31.6432 24.3108 31.4623 24.4002C31.2772 24.4916 31.1312 24.6185 31.0245 24.7809C30.9177 24.9433 30.8575 25.1191 30.8441 25.3085C30.8306 25.4979 30.8632 25.6776 30.9418 25.8476C31.0185 26.0134 31.1423 26.1663 31.3132 26.3064C31.4841 26.4465 31.6736 26.5722 31.8817 26.6835C32.0898 26.7948 32.3698 26.9359 32.7216 27.1067C32.8187 27.1527 32.9158 27.1988 33.0128 27.2448L39.5491 30.2507L37.8524 31.0886L32.468 28.6886C32.298 28.616 32.1422 28.5467 32.0006 28.4809C31.5678 28.277 31.207 28.0923 30.9183 27.9269C30.6295 27.7614 30.3638 27.5637 30.121 27.3338C29.8763 27.0996 29.6812 26.8253 29.5357 26.5108C29.3352 26.0772 29.252 25.6406 29.2861 25.2008C29.3223 24.7548 29.471 24.3498 29.7322 23.9859C29.9955 23.6157 30.3595 23.3158 30.8243 23.0863C31.2808 22.8608 31.723 22.7572 32.1509 22.7757C32.5829 22.792 32.9651 22.9139 33.2976 23.1413C33.6282 23.3644 33.8819 23.6672 34.0588 24.0497C34.2535 24.4705 34.3296 24.9028 34.2873 25.3466C34.243 25.7862 34.0974 26.2523 33.8503 26.745L32.6737 29.0022C32.5452 29.2379 32.4547 29.4627 32.4021 29.6767C32.3494 29.8907 32.3247 30.083 32.3279 30.2537C32.3332 30.4182 32.3634 30.5599 32.4184 30.6789C32.5305 30.9212 32.6944 31.1117 32.9102 31.2505C33.126 31.3894 33.3704 31.4644 33.6434 31.4758C33.9145 31.4829 34.1919 31.4164 34.4757 31.2762C34.9075 31.0629 35.2661 30.7239 35.5514 30.2593C35.8348 29.7904 35.9939 29.255 36.0287 28.653C36.0616 28.0468 35.9385 27.4419 35.6593 26.8384L37.0166 26.168C37.2722 26.7205 37.4406 27.243 37.5218 27.7355C37.6011 28.2237 37.615 28.658 37.5636 29.0384C37.5122 29.4188 37.407 29.7814 37.2481 30.1262C37.2079 30.2139 37.1647 30.2953 37.1185 30.3703C37.1057 30.408 37.0866 30.4487 37.0614 30.4925C37.0403 30.5343 37.0171 30.5771 36.9919 30.6208C36.8233 31.0539 36.5648 31.4453 36.2162 31.7949C35.8717 32.1426 35.4815 32.4241 35.0455 32.6394Z" fill="white"/>
<path d="M39.7761 30.1385L38.6529 19.3529L40.6334 18.3748L48.0494 26.0524L46.3343 26.8995L40.5499 20.7342L40.4758 20.7708L41.4851 29.2945L39.7761 30.1385ZM44.5855 23.3148L45.2017 24.6473L40.4944 26.9722L39.8781 25.6397L44.5855 23.3148Z" fill="white"/>
</g>
<defs>
<clipPath id="clip0_66_21">
<rect width="76" height="54" fill="white"/>
</clipPath>
</defs>
</svg>
