<svg width="162" height="26" viewBox="0 0 162 26" fill="none" xmlns="http://www.w3.org/2000/svg">
<path d="M22.9107 23.8857C21.2501 24.8662 18.214 22.8613 15.276 19.1514C16.2064 22.1453 16.1734 24.5342 14.9896 25.2332C13.6553 26.0211 11.2338 24.4405 8.90693 21.506C9.27042 23.3728 9.00352 24.8837 8.0555 25.4434C6.4823 26.3724 3.62914 24.3305 1.6828 20.8827C-0.26354 17.4349 -0.566023 13.8869 1.00718 12.958C1.95518 12.3982 3.36795 12.9172 4.76701 14.1725C3.44547 10.6442 3.31769 7.70915 4.65207 6.92124C5.83589 6.22223 7.87538 7.38752 9.94537 9.70857C8.27288 5.25154 8.09327 1.56005 9.75381 0.579549C12.0012 -0.747496 16.7684 3.39399 20.4016 9.82981C24.0348 16.2656 25.1581 22.5587 22.9107 23.8857Z" fill="url(#paint0_linear_17860_2604)"/>
<path d="M70.5859 5.64453C72.4669 5.64455 74.0985 6.0746 75.4805 6.93457L74.3291 9.1875C73.2414 8.5585 71.9935 8.24416 70.5859 8.24414C69.8821 8.24414 69.3188 8.37314 68.8965 8.62988C68.4745 8.88653 68.2638 9.23278 68.2637 9.66895C68.2637 10.1182 68.4877 10.4718 68.9355 10.7285C69.3962 10.9723 70.0742 11.2228 70.9697 11.4795C72.0189 11.7747 72.8891 12.0824 73.5801 12.4033C74.2839 12.7114 74.8665 13.1548 75.3271 13.7324C75.8005 14.31 76.0371 15.0545 76.0371 15.9658C76.0371 17.3007 75.5639 18.3662 74.6172 19.1621C73.6703 19.958 72.3262 20.3564 70.5859 20.3564C68.3082 20.3564 66.4652 19.7975 65.0576 18.6807L66.3633 16.4092C67.3998 17.3076 68.8074 17.7568 70.5859 17.7568C71.3919 17.7568 72.0122 17.6153 72.4473 17.333C72.8951 17.0378 73.1191 16.646 73.1191 16.1582C73.1191 15.6705 72.8633 15.292 72.3516 15.0225C71.8525 14.7401 71.168 14.4763 70.2979 14.2324C69.2871 13.95 68.4428 13.6547 67.7646 13.3467C67.0866 13.0387 66.5105 12.6027 66.0371 12.0381C65.5764 11.4604 65.3457 10.7151 65.3457 9.80371C65.3458 8.52024 65.8064 7.50618 66.7275 6.76172C67.6489 6.01717 68.9352 5.64453 70.5859 5.64453ZM88.292 5.64453C89.162 5.64453 90.0323 5.78603 90.9023 6.06836C91.7853 6.35077 92.5217 6.73583 93.1104 7.22363L91.8438 9.45703C91.2807 9.04625 90.7173 8.75101 90.1543 8.57129C89.5913 8.37873 88.9894 8.2832 88.3496 8.2832C87.0445 8.28325 86.008 8.71322 85.2402 9.57324C84.4725 10.4205 84.0889 11.5633 84.0889 13.001C84.0889 14.4255 84.466 15.5678 85.2207 16.4277C85.9884 17.2878 87.0317 17.7177 88.3496 17.7178C89.015 17.7178 89.6745 17.5773 90.3271 17.2949C90.9797 16.9997 91.5557 16.5888 92.0547 16.0625L93.6475 18.2568C92.9693 18.9372 92.1569 19.4579 91.21 19.8174C90.2631 20.1768 89.2266 20.3564 88.1006 20.3564C86.6546 20.3564 85.4 20.0478 84.3379 19.4316C83.2888 18.8155 82.4829 17.9554 81.9199 16.8516C81.3569 15.7349 81.0753 14.4514 81.0752 13.001C81.0752 11.5376 81.3627 10.2534 81.9385 9.14941C82.5143 8.0326 83.3469 7.17268 84.4346 6.56934C85.5221 5.9533 86.8078 5.64457 88.292 5.64453ZM115.672 5.875C116.708 5.875 117.629 6.06715 118.436 6.45215C119.255 6.83726 119.895 7.40863 120.355 8.16602C120.816 8.91052 121.047 9.81548 121.047 10.8809C121.047 11.8565 120.771 12.7164 120.221 13.4609C119.67 14.2055 118.973 14.7578 118.129 15.1172L118.57 15.9062C118.903 16.4838 119.255 16.9139 119.626 17.1963C119.997 17.4787 120.503 17.6841 121.143 17.8125V20.2393C120.324 20.2136 119.632 20.1104 119.069 19.9307C118.519 19.751 118.027 19.4623 117.592 19.0645C117.157 18.6666 116.728 18.1083 116.306 17.3896L115.403 15.8682H112.409V20.124H109.529V5.875H115.672ZM154.53 5.875C155.567 5.87506 156.488 6.0671 157.294 6.45215C158.113 6.83724 158.752 7.40872 159.213 8.16602C159.674 8.91054 159.904 9.81544 159.904 10.8809C159.904 11.8564 159.629 12.7165 159.079 13.4609C158.529 14.2055 157.831 14.7578 156.986 15.1172L157.428 15.9062C157.76 16.4839 158.113 16.9139 158.484 17.1963C158.855 17.4786 159.36 17.6841 160 17.8125V20.2393C159.181 20.2136 158.491 20.1103 157.928 19.9307C157.377 19.7509 156.884 19.4624 156.449 19.0645C156.014 18.6665 155.585 18.1084 155.163 17.3896L154.261 15.8682H151.267V20.124H148.388V5.875H154.53ZM34.5488 17.4854H41.0176V20.124H31.6689V5.875H34.5488V17.4854ZM52.4121 8.5127H45.2715V11.5742H51.9131V14.1543H45.2715V17.4854H52.6807V20.124H42.3926V5.875H52.4121V8.5127ZM64.4287 8.5127H60.3203V20.124H57.3838V8.5127H53.2764V5.875H64.4287V8.5127ZM108.123 20.124H104.916L103.845 16.9873H98.3301L97.2607 20.124H94.0449L99.54 5.79297H102.628L108.123 20.124ZM133.401 8.5127H126.261V11.5742H132.902V14.1543H126.261V17.4854H133.67V20.124H123.382V5.875H133.401V8.5127ZM145.904 8.5127H138.764V11.5742H145.405V14.1543H138.764V17.4854H146.173V20.124H135.885V5.875H145.904V8.5127ZM99.2676 14.2354H102.905L101.132 9.04004H101.038L99.2676 14.2354ZM112.409 13.3652H115.557C116.312 13.3652 116.913 13.1531 117.361 12.7295C117.809 12.3059 118.033 11.6895 118.033 10.8809C118.033 10.1107 117.802 9.52014 117.342 9.10938C116.894 8.6858 116.318 8.47363 115.614 8.47363H112.409V13.3652ZM151.267 13.3652H154.415C155.17 13.3652 155.771 13.153 156.219 12.7295C156.667 12.3059 156.891 11.6896 156.891 10.8809C156.891 10.1108 156.661 9.52013 156.2 9.10938C155.752 8.68585 155.176 8.47372 154.473 8.47363H151.267V13.3652Z" fill="#27272D"/>
<defs>
<linearGradient id="paint0_linear_17860_2604" x1="25.1539" y1="-6.36391" x2="6.30924" y2="21.8061" gradientUnits="userSpaceOnUse">
<stop stop-color="#907CFF"/>
<stop offset="1" stop-color="#4D55F5"/>
</linearGradient>
</defs>
</svg>
