<svg width="139" height="22" viewBox="0 0 139 22" fill="none" xmlns="http://www.w3.org/2000/svg">
<path d="M19.8942 20.4526C18.4523 21.3041 15.8159 19.5631 13.2648 16.3416C14.0727 18.9413 14.044 21.0158 13.0161 21.6227C11.8574 22.3069 9.75476 20.9344 7.73422 18.3862C8.04986 20.0073 7.8181 21.3192 6.99489 21.8053C5.62881 22.6119 3.1513 20.8388 1.46121 17.845C-0.228875 14.8512 -0.491533 11.7703 0.874547 10.9636C1.69773 10.4776 2.9245 10.9282 4.13936 12.0183C2.99181 8.95452 2.88086 6.40585 4.03955 5.72168C5.06751 5.1147 6.83848 6.12657 8.63594 8.14203C7.18365 4.27181 7.02769 1.06634 8.4696 0.214929C10.4211 -0.937398 14.5607 2.65882 17.7155 8.24731C20.8703 13.8358 21.8458 19.3003 19.8942 20.4526Z" fill="url(#paint0_linear_17791_2578)"/>
<path d="M61.292 4.61328C62.9252 4.61328 64.342 4.98673 65.542 5.7334L64.542 7.68945C63.5976 7.14345 62.5141 6.87012 61.292 6.87012C60.681 6.87015 60.1918 6.98217 59.8252 7.20508C59.4588 7.42791 59.2755 7.72874 59.2754 8.10742C59.2754 8.49743 59.4698 8.80443 59.8584 9.02734C60.2584 9.23913 60.8482 9.45675 61.626 9.67969C62.537 9.93603 63.2926 10.2038 63.8926 10.4824C64.5036 10.7499 65.0092 11.1342 65.4092 11.6357C65.8203 12.1373 66.0253 12.7839 66.0254 13.5752C66.0254 14.7345 65.6143 15.6595 64.792 16.3506C63.9697 17.0417 62.8032 17.3877 61.292 17.3877C59.3142 17.3877 57.7144 16.9024 56.4922 15.9326L57.625 13.96C58.525 14.7402 59.7476 15.1308 61.292 15.1309C61.992 15.1309 62.5314 15.0079 62.9092 14.7627C63.298 14.5063 63.4922 14.1657 63.4922 13.7422C63.492 13.3188 63.2695 12.9899 62.8252 12.7559C62.3919 12.5107 61.7973 12.282 61.042 12.0703C60.1643 11.8251 59.4307 11.5693 58.8418 11.3018C58.253 11.0342 57.7529 10.6545 57.3418 10.1641C56.942 9.66251 56.7422 9.01583 56.7422 8.22461C56.7423 7.11008 57.1424 6.22946 57.9424 5.58301C58.7424 4.93666 59.8589 4.61332 61.292 4.61328ZM76.667 4.61328C77.4226 4.61328 78.179 4.73621 78.9346 4.98145C79.701 5.22662 80.3396 5.56097 80.8506 5.98438L79.751 7.92383C79.2621 7.56717 78.773 7.31133 78.2842 7.15527C77.7954 6.9881 77.2732 6.90433 76.7178 6.9043C75.5844 6.9043 74.6843 7.27761 74.0176 8.02441C73.3509 8.76011 73.0176 9.75252 73.0176 11.001C73.0177 12.2381 73.3455 13.2298 74.001 13.9766C74.6677 14.7234 75.5733 15.0967 76.7178 15.0967C77.2955 15.0966 77.868 14.9747 78.4346 14.7295C79.0012 14.4731 79.5013 14.1162 79.9346 13.6592L81.3174 15.5654C80.7285 16.1561 80.0233 16.6079 79.2012 16.9199C78.379 17.232 77.4787 17.3877 76.501 17.3877C75.2455 17.3877 74.1566 17.1199 73.2344 16.585C72.3232 16.0499 71.6227 15.3033 71.1338 14.3447C70.6449 13.3751 70.4005 12.2604 70.4004 11.001C70.4004 9.73023 70.6504 8.61488 71.1504 7.65625C71.6504 6.68652 72.3729 5.9399 73.3174 5.41602C74.2618 4.88104 75.3783 4.61335 76.667 4.61328ZM100.442 4.8125C101.342 4.81251 102.143 4.98005 102.843 5.31445C103.554 5.64886 104.109 6.14516 104.509 6.80273C104.909 7.44925 105.109 8.23497 105.109 9.16016C105.109 10.0072 104.87 10.7539 104.393 11.4004C103.915 12.0469 103.309 12.5268 102.576 12.8389L102.959 13.5244C103.248 14.0259 103.554 14.3993 103.876 14.6445C104.198 14.8897 104.637 15.0682 105.192 15.1797V17.2861C104.481 17.2638 103.881 17.1746 103.393 17.0186C102.915 16.8625 102.487 16.612 102.109 16.2666C101.732 15.921 101.359 15.4357 100.992 14.8115L100.209 13.4902H97.6084V17.1855H95.1084V4.8125H100.442ZM134.185 4.8125C135.084 4.81254 135.884 4.98017 136.584 5.31445C137.295 5.64886 137.851 6.14507 138.251 6.80273C138.651 7.44922 138.852 8.23504 138.852 9.16016C138.852 10.0071 138.612 10.754 138.135 11.4004C137.657 12.0469 137.051 12.5268 136.317 12.8389L136.701 13.5244C136.99 14.0258 137.296 14.3994 137.618 14.6445C137.94 14.8896 138.379 15.0683 138.935 15.1797V17.2861C138.224 17.2638 137.624 17.1745 137.135 17.0186C136.657 16.8625 136.228 16.6122 135.851 16.2666C135.473 15.9211 135.101 15.4357 134.734 14.8115L133.951 13.4902H131.351V17.1855H128.851V4.8125H134.185ZM93.8867 17.1865H91.1025L90.1729 14.4619H85.3838L84.4551 17.1865H81.6621L86.4336 4.74219H89.1152L93.8867 17.1865ZM30 14.8955H35.6162V17.1855H27.5V4.8125H30V14.8955ZM45.5107 7.10352H39.3105V9.76172H45.0781V12.0029H39.3105V14.8955H45.7441V17.1855H36.8105V4.8125H45.5107V7.10352ZM55.9453 7.10352H52.3789V17.1855H49.8281V7.10352H46.2617V4.8125H55.9453V7.10352ZM115.838 7.10352H109.638V9.76172H115.404V12.0029H109.638V14.8955H116.071V17.1855H107.138V4.8125H115.838V7.10352ZM126.694 7.10352H120.494V9.76172H126.261V12.0029H120.494V14.8955H126.928V17.1855H117.994V4.8125H126.694V7.10352ZM86.1973 12.0732H89.3564L87.8164 7.56152H87.7354L86.1973 12.0732ZM97.6084 11.3174H100.343C100.998 11.3173 101.52 11.1333 101.909 10.7656C102.298 10.3978 102.492 9.86234 102.492 9.16016C102.492 8.49149 102.292 7.97876 101.893 7.62207C101.504 7.25427 101.004 7.07036 100.393 7.07031H97.6084V11.3174ZM131.351 11.3174H134.084C134.74 11.3174 135.262 11.1335 135.651 10.7656C136.04 10.3978 136.234 9.86234 136.234 9.16016C136.234 8.49158 136.035 7.97876 135.635 7.62207C135.246 7.25422 134.745 7.07031 134.134 7.07031H131.351V11.3174Z" fill="#27272D"/>
<defs>
<linearGradient id="paint0_linear_17791_2578" x1="21.8421" y1="-5.81436" x2="5.47854" y2="18.6468" gradientUnits="userSpaceOnUse">
<stop stop-color="#907CFF"/>
<stop offset="1" stop-color="#4D55F5"/>
</linearGradient>
</defs>
</svg>
