<svg width="120" height="36" viewBox="0 0 120 36" fill="none" xmlns="http://www.w3.org/2000/svg">
<path d="M32.3642 32.6086C30.0185 33.9245 25.7296 31.2339 21.5794 26.2553C22.8937 30.273 22.8471 33.4789 21.1748 34.417C19.2899 35.4743 15.8694 33.3531 12.5824 29.415C13.0959 31.9203 12.7188 33.9479 11.3796 34.6991C9.15731 35.9457 5.12691 33.2055 2.37749 28.5786C-0.371935 23.9518 -0.799227 19.1904 1.42311 17.9438C2.76226 17.1926 4.75796 17.8891 6.73428 19.5737C4.86745 14.8388 4.68696 10.9 6.57191 9.84261C8.2442 8.90455 11.1252 10.4684 14.0493 13.5832C11.6867 7.6019 11.433 2.64799 13.7787 1.33218C16.9535 -0.44869 23.6876 5.10911 28.8199 13.7459C33.9521 22.3826 35.539 30.8278 32.3642 32.6086Z" fill="#4D55F5"/>
<path d="M74.9625 13.5762C76.3559 14.6782 78.1799 15.2292 80.4346 15.2292C82.1573 15.2292 83.4874 14.8365 84.4247 14.0512C85.3621 13.2658 85.8307 12.2145 85.8307 10.8971C85.8307 9.99775 85.5964 9.26307 85.1277 8.69306C84.6717 8.12305 84.0954 7.68604 83.3987 7.38203C82.7147 7.06536 81.8533 6.76135 80.8147 6.47002C79.928 6.21668 79.2566 5.96967 78.8006 5.729C78.3573 5.47566 78.1356 5.12732 78.1356 4.68398C78.1356 4.25331 78.3446 3.9113 78.7626 3.65796C79.1806 3.40462 79.738 3.27795 80.4346 3.27795C81.828 3.27795 83.063 3.58829 84.1397 4.20897L85.2797 1.98593C83.9117 1.13725 82.2967 0.712906 80.4346 0.712906C78.8006 0.712906 77.5276 1.08025 76.6156 1.81493C75.7036 2.54961 75.2475 3.55029 75.2475 4.81698C75.2475 5.71633 75.4756 6.45101 75.9316 7.02103C76.4002 7.57837 76.9702 8.00905 77.6416 8.31305C78.3129 8.61706 79.149 8.9084 80.1496 9.18707C81.011 9.42774 81.6887 9.68741 82.1827 9.96608C82.6894 10.2321 82.9427 10.6058 82.9427 11.0871C82.9427 11.5684 82.721 11.9548 82.2777 12.2461C81.847 12.5248 81.2327 12.6641 80.4346 12.6641C78.6739 12.6641 77.2806 12.2208 76.2546 11.3341L74.9625 13.5762Z" fill="#27272D"/>
<path d="M67.3663 3.54252V14.9997H70.2733V3.54252H74.3394V0.939473H63.3002V3.54252H67.3663Z" fill="#27272D"/>
<path d="M52.5266 14.9997V0.939473H62.4448V3.54252H55.3766V6.56358H61.9507V9.10963H55.3766V12.3967H62.7108V14.9997H52.5266Z" fill="#27272D"/>
<path d="M41.9121 0.939473V14.9997H51.1653V12.3967H44.7622V0.939473H41.9121Z" fill="#27272D"/>
<path fill-rule="evenodd" clip-rule="evenodd" d="M116.58 30.8391C116.91 31.4092 117.258 31.8335 117.625 32.1122C117.993 32.3908 118.493 32.5935 119.126 32.7202V35.1142C118.316 35.0889 117.632 34.9876 117.074 34.8102C116.53 34.6329 116.042 34.3479 115.611 33.9552C115.181 33.5625 114.756 33.0115 114.338 32.3022L113.445 30.8011H110.481V35.0002H107.631V20.94H113.711C114.737 20.94 115.649 21.13 116.447 21.51C117.258 21.89 117.891 22.4537 118.347 23.201C118.803 23.9357 119.031 24.8287 119.031 25.8801C119.031 26.8427 118.759 27.6914 118.214 28.4261C117.67 29.1608 116.979 29.7055 116.143 30.0601L116.58 30.8391ZM110.481 23.505V28.3311H113.597C114.345 28.3311 114.94 28.1221 115.383 27.7041C115.827 27.2861 116.048 26.6781 116.048 25.8801C116.048 25.12 115.82 24.5374 115.364 24.132C114.921 23.714 114.351 23.505 113.654 23.505H110.481Z" fill="#27272D"/>
<path d="M95.2549 20.94V35.0002H105.439V32.3972H98.105V29.1101H104.679V26.5641H98.105V23.543H105.173V20.94H95.2549Z" fill="#27272D"/>
<path d="M82.8787 35.0002V20.94H92.7969V23.543H85.7288V26.5641H92.3029V29.1101H85.7288V32.3972H93.0629V35.0002H82.8787Z" fill="#27272D"/>
<path fill-rule="evenodd" clip-rule="evenodd" d="M79.1607 32.1122C78.7934 31.8335 78.4451 31.4092 78.1157 30.8391L77.6787 30.0601C78.5147 29.7055 79.2051 29.1608 79.7498 28.4261C80.2944 27.6914 80.5668 26.8427 80.5668 25.8801C80.5668 24.8287 80.3388 23.9357 79.8828 23.201C79.4268 22.4537 78.7934 21.89 77.9827 21.51C77.1847 21.13 76.2727 20.94 75.2467 20.94H69.1666V35.0002H72.0166V30.8011H74.9807L75.8737 32.3022C76.2917 33.0115 76.716 33.5625 77.1467 33.9552C77.5774 34.3479 78.0651 34.6329 78.6097 34.8102C79.1671 34.9876 79.8511 35.0889 80.6618 35.1142V32.7202C80.0284 32.5935 79.5281 32.3908 79.1607 32.1122ZM72.0166 28.3311V23.505H75.1897C75.8863 23.505 76.4564 23.714 76.8997 24.132C77.3557 24.5374 77.5837 25.12 77.5837 25.8801C77.5837 26.6781 77.362 27.2861 76.9187 27.7041C76.4754 28.1221 75.88 28.3311 75.1327 28.3311H72.0166Z" fill="#27272D"/>
<path fill-rule="evenodd" clip-rule="evenodd" d="M62.3344 20.8599L67.7739 35.0008H64.6001L63.5396 31.905H58.0801L57.0218 35.0008H53.8381L59.2777 20.8599H62.3344ZM62.6097 29.1901L60.8534 24.0631H60.7609L59.0082 29.1901H62.6097Z" fill="#27272D"/>
<path d="M44.2301 34.3177C45.2814 34.9257 46.5228 35.2297 47.9541 35.2297C49.0688 35.2297 50.0948 35.0523 51.0322 34.6977C51.9695 34.343 52.7739 33.83 53.4452 33.1586L51.8682 30.9926C51.3742 31.5119 50.8042 31.9173 50.1582 32.2086C49.5122 32.4873 48.8598 32.6266 48.2011 32.6266C46.8964 32.6266 45.8641 32.2023 45.1041 31.3536C44.3567 30.5049 43.9831 29.3776 43.9831 27.9715C43.9831 26.5528 44.3631 25.4255 45.1231 24.5895C45.8831 23.7408 46.9091 23.3164 48.2011 23.3164C48.8345 23.3164 49.4298 23.4114 49.9872 23.6014C50.5445 23.7788 51.1019 24.0701 51.6592 24.4755L52.9132 22.2714C52.3305 21.7901 51.6022 21.4101 50.7282 21.1314C49.8668 20.8527 49.0055 20.7134 48.1441 20.7134C46.6748 20.7134 45.4018 21.0174 44.3251 21.6254C43.2484 22.2208 42.425 23.0694 41.855 24.1715C41.285 25.2608 41 26.5275 41 27.9715C41 29.4029 41.2787 30.6696 41.836 31.7716C42.3934 32.861 43.1914 33.7096 44.2301 34.3177Z" fill="#27272D"/>
</svg>
