<svg viewBox="0 0 44 44" fill="none" xmlns="http://www.w3.org/2000/svg">
<ellipse cx="21.2049" cy="23.2101" rx="3.18035" ry="3.18035" fill="#FF6917"/>
<circle cx="21.2044" cy="22.8117" r="6.95088" stroke="#FF8111" stroke-width="2"/>
<circle cx="21.2054" cy="23.209" r="11.7214" stroke="#FF960C" stroke-width="2"/>
<circle cx="21.2048" cy="23.2084" r="16.4919" stroke="#FFA907" stroke-width="2"/>
<path d="M20.7484 21.431L29.5176 12.2868C29.5961 12.2049 29.6444 12.0988 29.6547 11.9858L29.977 8.4258C29.9878 8.3058 30.0417 8.19376 30.1286 8.11029L34.7667 3.65512C35.069 3.36471 35.573 3.55295 35.611 3.97045L35.8782 6.9093C35.8993 7.14215 36.079 7.32923 36.3108 7.35975L39.3268 7.75683C39.7295 7.80985 39.9043 8.29546 39.6277 8.59296L35.4456 13.0923C35.3634 13.1808 35.2518 13.2365 35.1317 13.2492L31.3233 13.6494C31.2073 13.6616 31.0992 13.7139 31.0178 13.7974L22.1842 22.8464C21.9894 23.046 21.6689 23.0476 21.4721 22.85L20.755 22.1299C20.5633 21.9374 20.5603 21.627 20.7484 21.431Z" fill="#FF6917"/>
</svg>
