<svg width="44" height="44" viewBox="0 0 44 44" fill="none" xmlns="http://www.w3.org/2000/svg">
<path d="M35.0076 40H29.8005C29.2907 40 28.8625 39.6165 28.8065 39.1099L27.0934 23.6099C27.0279 23.0177 27.4915 22.5 28.0873 22.5H41.4703C42.184 22.5 42.6679 23.2261 42.3933 23.8848L35.9306 39.3848C35.7753 39.7574 35.4112 40 35.0076 40Z" fill="#6E69E2"/>
<path d="M11.4637 5.83768C11.5432 5.35454 11.9608 5 12.4505 5H31.2092C31.3929 5 31.5664 5.08409 31.6802 5.22821L38.86 14.3226C38.949 14.4354 38.9852 14.581 38.9594 14.7223L34.5518 38.8449C34.4634 39.3283 34.037 39.6758 33.5458 39.6649L7.15142 39.0773C6.54347 39.0638 6.08824 38.5152 6.18695 37.9152L11.4637 5.83768Z" fill="url(#paint0_linear_23289_78424)"/>
<path d="M30.1835 12.8991L31.4629 5.22284C31.4771 5.13723 31.5862 5.1092 31.64 5.17732L38.8625 14.3259C38.9159 14.3935 38.8645 14.4925 38.7785 14.4877L31.1144 14.0619C30.5197 14.0289 30.0856 13.4866 30.1835 12.8991Z" fill="#C9C9C9"/>
<path d="M29.631 22.1975H13.0589C12.5902 22.1975 12.2102 21.8175 12.2104 21.3487C12.2105 20.88 11.8306 20.5 11.3618 20.5H3.19199C2.56987 20.5 2.09875 21.062 2.20734 21.6746L5.30971 39.1746C5.39436 39.6521 5.80941 40 6.29436 40H33.1928C33.8338 40 34.3093 39.4054 34.1684 38.7801L30.6065 22.9776C30.5037 22.5215 30.0986 22.1975 29.631 22.1975Z" fill="url(#paint1_linear_23289_78424)"/>
<defs>
<linearGradient id="paint0_linear_23289_78424" x1="22.5" y1="5" x2="22.5" y2="39.6839" gradientUnits="userSpaceOnUse">
<stop stop-color="#DEDEDE"/>
<stop offset="1" stop-color="#F1F1F1"/>
</linearGradient>
<linearGradient id="paint1_linear_23289_78424" x1="7.6561" y1="15.2073" x2="15.3928" y2="37.4386" gradientUnits="userSpaceOnUse">
<stop stop-color="#8882FF"/>
<stop offset="1" stop-color="#B3AFFF"/>
</linearGradient>
</defs>
</svg>
