<svg viewBox="0 0 44 44" fill="none" xmlns="http://www.w3.org/2000/svg">
<path fill-rule="evenodd" clip-rule="evenodd" d="M39.6216 25.1719L35.9889 16.6634C35.9623 16.6011 35.9418 16.5345 35.928 16.4682C33.9995 7.22072 26.6357 4.63269 22.4012 4.41154C21.8638 4.38347 21.4398 4.8282 21.4398 5.36634V15.6528C20.8558 14.8234 19.8909 14.2816 18.7994 14.2816C17.0171 14.2816 15.5722 15.7264 15.5722 17.5088C15.5722 19.2911 17.0171 20.736 18.7994 20.736C19.8909 20.736 20.8558 20.1941 21.4398 19.3647V25.7582C21.9265 25.4407 22.5078 25.2561 23.1322 25.2561C24.8447 25.2561 26.233 26.6444 26.233 28.3569C26.233 30.0694 24.8447 31.4577 23.1322 31.4577C22.5078 31.4577 21.9265 31.2731 21.4398 30.9556V38.6013C21.4398 39.1536 21.8875 39.6013 22.4398 39.6013H28.9746C29.5268 39.6013 29.9746 39.1536 29.9746 38.6013V34.5175C29.9746 33.9652 30.4223 33.5175 30.9746 33.5175H34.9489C35.5012 33.5175 35.9489 33.0698 35.9489 32.5175V27.5646C35.9489 27.0123 36.3966 26.5646 36.9489 26.5646H38.702C39.4193 26.5646 39.9033 25.8316 39.6216 25.1719Z" fill="url(#paint0_linear_418_129)"/>
<path fill-rule="evenodd" clip-rule="evenodd" d="M4.73667 26.5685L8.01111 19.1535C8.03924 19.0898 8.0609 19.0216 8.07564 18.9535C9.84778 10.7695 16.56 8.44043 20.4757 8.21743C21.0135 8.18681 21.4383 8.63175 21.4383 9.17036V15.975C20.8961 15.0395 19.8734 14.4089 18.7011 14.4089C16.9618 14.4089 15.5517 15.7972 15.5517 17.5097C15.5517 19.2222 16.9618 20.6105 18.7011 20.6105C19.8734 20.6105 20.8961 19.9799 21.4383 19.0444V25.7626C21.9253 25.4443 22.5073 25.2593 23.1324 25.2593C24.8449 25.2593 26.2332 26.6476 26.2332 28.3601C26.2332 30.0726 24.8449 31.4609 23.1324 31.4609C22.5073 31.4609 21.9253 31.2759 21.4383 30.9576V38.6005C21.4383 39.1527 20.9906 39.6005 20.4383 39.6005H14.5648C14.0126 39.6005 13.5648 39.1527 13.5648 38.6005V35.1741C13.5648 34.6218 13.1171 34.1741 12.5649 34.1741H9.05342C8.50114 34.1741 8.05342 33.7264 8.05342 33.1741V28.9725C8.05342 28.4202 7.60571 27.9725 7.05342 27.9725H5.65145C4.92882 27.9725 4.44476 27.2296 4.73667 26.5685Z" fill="url(#paint1_linear_418_129)"/>
<defs>
<linearGradient id="paint0_linear_418_129" x1="26.1888" y1="10.9286" x2="28.5233" y2="39.2162" gradientUnits="userSpaceOnUse">
<stop stop-color="#4E74FF"/>
<stop offset="1" stop-color="#708FFF"/>
</linearGradient>
<linearGradient id="paint1_linear_418_129" x1="20.066" y1="8.99092" x2="15.3921" y2="39.5928" gradientUnits="userSpaceOnUse">
<stop stop-color="#9CB1FF"/>
<stop offset="1" stop-color="#CBCFFF"/>
</linearGradient>
</defs>
</svg>
