<svg xmlns="http://www.w3.org/2000/svg" width="20" height="21" viewBox="0 0 20 21" fill="none">
  <path d="M3.33464 14.3604H2.91797C2.22761 14.3604 1.66797 14.92 1.66797 15.6104C1.66797 16.3007 2.22761 16.8604 2.91797 16.8604H17.0846C17.775 16.8604 18.3346 16.3007 18.3346 15.6104C18.3346 14.92 17.775 14.3604 17.0846 14.3604H16.668M3.33464 14.3604H16.668M3.33464 14.3604V7.02718C3.33464 6.09376 3.33464 5.6267 3.51629 5.27018C3.67608 4.95658 3.93086 4.7018 4.24447 4.54201C4.60099 4.36035 5.06804 4.36035 6.00147 4.36035H14.0015C14.9349 4.36035 15.4009 4.36035 15.7575 4.54201C16.0711 4.7018 16.3267 4.95658 16.4865 5.27018C16.668 5.62635 16.668 6.09285 16.668 7.02444V14.3604" stroke="currentColor" stroke-width="1.4" stroke-linecap="round" stroke-linejoin="round"/>
</svg>