<svg width="100" height="100" viewBox="0 0 100 100" fill="none" xmlns="http://www.w3.org/2000/svg">
<g id="Frame 1437260380">
<g clip-path="url(#clip0_12717_29772)">
<rect width="100" height="100" rx="50" fill="white"/>
<path id="Vector" d="M24.0117 43C24.0117 43 23.7545 64.3479 27.0161 72.8451C27.5304 74.1991 27.7526 75.6464 27.5071 77.0703C27.3785 77.794 27.168 78.5644 26.8057 79.288C26.642 79.6148 26.8875 80 27.2499 80H48V43.2218L24 43H24.0117Z" fill="#26201E"/>
<path id="Vector_2" d="M74.9883 43C74.9883 43 75.2455 64.3479 71.9839 72.8451C71.4696 74.1991 71.2474 75.6464 71.4929 77.0703C71.6215 77.794 71.832 78.5644 72.1944 79.288C72.358 79.6148 72.1125 80 71.7501 80H51V43.2218L75 43H74.9883Z" fill="#26201E"/>
<path id="Vector_3" d="M68.0112 43.0117C69.9487 43.0938 71.8751 43.2344 73.8014 43.2227C74.2046 43.2227 74.6302 43.2227 74.9998 43.1758C74.955 45.4733 75.1006 47.0205 74.8318 49.2828C74.5966 51.2637 73.9134 53.1978 73.4206 55.1436C72.9614 56.433 72.4911 57.7106 72.0319 59C71.8863 58.9766 71.7519 58.9648 71.6063 58.9414C69.3888 53.8894 68.1792 48.5795 68 43L68.0112 43.0117Z" fill="#261F1C"/>
<path id="Vector_4" d="M37.869 96.972C38.1595 93.3053 38.4384 89.6387 38.7406 85.9721C38.8452 84.6292 38.636 83.5432 37.532 82.5273C34.5686 79.7715 32.1515 76.5836 30.5943 72.7768C30.3967 72.2864 29.8621 71.7843 29.3624 71.5741C24.2376 69.5189 21.8901 65.3618 21.0534 60.2355C20.8442 58.9394 21.2742 57.3396 21.9134 56.1485C22.936 54.1984 24.8419 54.3269 26.7012 54.864C27.4101 56.1252 28.119 57.398 28.8279 58.6591C28.9906 58.6124 29.1532 58.5657 29.3159 58.5307C29.7575 55.985 30.234 53.4394 30.6175 50.8938C31.001 48.2664 31.2915 45.6274 31.6285 43C38.1247 43.0117 44.6208 43 51.117 43.0584C56.6602 43.1051 62.1918 43.2452 67.735 43.3386C67.9209 48.897 69.176 54.1867 71.477 59.2196C71.628 59.243 71.7675 59.2546 71.9186 59.278L73.3596 55.4362C73.6733 55.3428 74.022 55.3078 74.3125 55.156C77.578 53.5095 79.9254 55.5763 79.9952 58.484C80.0997 63.4351 78.5193 67.9658 74.4752 71.1771C73.6501 71.831 72.3602 71.9711 71.2445 72.1346C70.5008 72.2397 70.036 72.3448 69.7919 73.1505C68.5252 77.2375 66.1894 80.6122 62.9123 83.3564C62.552 83.66 62.3428 84.3489 62.3428 84.851C62.3196 88.6928 62.3428 92.5463 62.3661 96.3881C62.552 100.125 62.5172 103.897 63.0052 107.587C63.3539 110.214 61.9593 111.218 60.1232 112.199C59.7397 112.398 59.333 112.549 58.9263 112.689C54.6846 114.172 50.3383 114.301 45.9456 113.554C43.4703 113.133 41.0764 112.444 39.0892 110.833C37.7877 109.77 37.0207 108.497 37.2415 106.606C37.6017 103.418 37.6947 100.195 37.8922 96.9953L37.869 96.972Z" fill="#FFD2C7"/>
<path id="Vector_5" d="M24 43.1874C24 41.1561 24.1871 39.1367 24.5848 37.1409C24.7485 36.2788 24.9356 35.4404 25.1929 34.6137C27.7776 26.0637 33.0757 20.0173 41.204 16.7697C56.3613 10.7114 72.8519 20.8439 74.8986 37.4716C75.1208 39.3139 75.0117 41.6223 75 43.5C74.5 43.5 74.1813 43.5472 73.772 43.5472C71.7954 43.5472 69.9765 43.5827 68 43.5C62.5382 43.4055 56.8291 43.459 51.3673 43.4117C44.9699 43.3527 38.5608 43.3645 32.1634 43.3527C29.7892 43.2936 26.3742 43.2464 24 43.1874ZM59.0513 37.6487C57.0747 32.2282 52.5135 29.5239 47.3558 30.5513C43.8238 31.2598 40.6309 34.8735 40.7713 38.1329C46.3617 38.1329 51.9521 38.1329 57.5425 38.1093C58.0104 38.1093 58.4899 37.8259 59.0513 37.6369V37.6487Z" fill="currentColor"/>
<path id="Vector_6" d="M24.0168 43.0236C26.3483 43.0825 28.6798 43.1297 31 43.1887C30.6846 45.8416 30.403 48.5181 30.0201 51.1592C29.6484 53.7413 29.1866 56.2999 28.7586 58.8703C28.6009 58.9175 28.4432 58.9646 28.2856 59C27.5985 57.7266 26.9114 56.4414 26.2244 55.168C24.4786 51.3125 23.938 47.2211 24.0055 43L24.0168 43.0236Z" fill="#261F1C"/>
<path id="Vector_7" d="M59 37.4893C58.4474 37.671 57.9753 37.9617 57.5148 37.9738C52.0113 38.0102 46.5078 37.9981 41.0044 37.9981C40.8662 34.6668 44.0094 30.9479 47.4865 30.221C52.5639 29.1671 57.0427 31.9291 59 37.5014V37.4893Z" fill="#251F1C"/>
<path id="Vector_8" d="M40 84C40 84 45.6984 88.0894 52.1669 87.428C58.6354 86.7667 62 84 62 84C62 84 61.5735 92.2339 53.0081 92.9724C46.0183 93.5786 40 84 40 84Z" fill="#F4B1A4"/>
<path id="Vector_9" d="M53 47.7311L66 48C66 48 64.0961 45.0313 59.7394 45.0003C54.752 44.9692 53 47.7311 53 47.7311Z" fill="#26201E"/>
<path id="Vector_10" d="M39.5054 53H39.4946C38.6691 53 38 53.7704 38 54.7207V56.2793C38 57.2296 38.6691 58 39.4946 58H39.5054C40.3309 58 41 57.2296 41 56.2793V54.7207C41 53.7704 40.3309 53 39.5054 53Z" fill="#26201E"/>
<path id="Vector_11" d="M59.5054 53H59.4946C58.6691 53 58 53.7704 58 54.7207V56.2793C58 57.2296 58.6691 58 59.4946 58H59.5054C60.3309 58 61 57.2296 61 56.2793V54.7207C61 53.7704 60.3309 53 59.5054 53Z" fill="#26201E"/>
<path id="Vector_12" d="M47.44 59L47.0095 63.1821C46.9255 64.0314 47.4085 64.8293 48.1016 64.9322C48.8787 65.048 49.9289 65.0609 51 64.5976" stroke="#26201E" stroke-width="0.75" stroke-miterlimit="10" stroke-linecap="round"/>
<path id="Vector_13" d="M44 72C44 72 52 67.4984 59 72" stroke="#26201E" stroke-width="0.75" stroke-miterlimit="10" stroke-linecap="round"/>
<path id="Vector_14" d="M40 43C40 43 51.8996 52.0037 70 50.9074L67.7345 43.5015L40 43Z" fill="#261F1C"/>
<path id="Vector_15" d="M40 43C40 43 31.533 49.2614 29 52V43H40Z" fill="#26201E"/>
</g>
<rect x="0.5" y="0.5" width="99" height="99" rx="49.5" stroke="currentColor"/>
</g>
<defs>
<clipPath id="clip0_12717_29772">
<rect width="100" height="100" rx="50" fill="white"/>
</clipPath>
</defs>
</svg>
