<svg width="84" height="25" viewBox="0 0 84 25" fill="none" xmlns="http://www.w3.org/2000/svg">
<rect width="84" height="25" rx="2" fill="white"/>
<path d="M16.3098 17.8882C15.5625 18.3295 14.1963 17.4272 12.8742 15.7578C13.2929 17.105 13.278 18.1801 12.7453 18.4946C12.1449 18.8492 11.0552 18.1379 10.0081 16.8173C10.1717 17.6574 10.0516 18.3373 9.62496 18.5892C8.91702 19.0072 7.6331 18.0884 6.75725 16.5369C5.88139 14.9854 5.74528 13.3888 6.45322 12.9707C6.87982 12.7189 7.51557 12.9524 8.14514 13.5173C7.55045 11.9296 7.49295 10.6088 8.09342 10.2542C8.62614 9.93965 9.54391 10.464 10.4754 11.5085C9.72278 9.50284 9.64196 7.84167 10.3892 7.40045C11.4005 6.80328 13.5458 8.66694 15.1807 11.5631C16.8156 14.4592 17.3211 17.2911 16.3098 17.8882Z" fill="url(#paint0_linear_18536_15629)"/>
<path d="M37.7637 9.67969C38.61 9.67971 39.344 9.87289 39.9658 10.2598L39.4482 11.2734C38.9588 10.9904 38.397 10.8496 37.7637 10.8496C37.4472 10.8496 37.1939 10.9071 37.0039 11.0225C36.8139 11.138 36.7188 11.2939 36.7188 11.4902C36.7188 11.6923 36.8191 11.8513 37.0205 11.9668C37.2278 12.0766 37.5334 12.1892 37.9365 12.3047C38.4086 12.4375 38.8004 12.5763 39.1113 12.7207C39.4279 12.8593 39.6902 13.0585 39.8975 13.3184C40.1105 13.5783 40.2168 13.9141 40.2168 14.3242C40.2167 14.9248 40.0032 15.4046 39.5771 15.7627C39.1511 16.1206 38.5465 16.2998 37.7637 16.2998C36.7389 16.2998 35.9097 16.0483 35.2764 15.5459L35.8633 14.5234C36.3297 14.9277 36.9633 15.1299 37.7637 15.1299C38.1264 15.1299 38.4058 15.0665 38.6016 14.9395C38.8031 14.8066 38.9033 14.6297 38.9033 14.4102C38.9032 14.1909 38.7886 14.0206 38.5586 13.8994C38.334 13.7723 38.0254 13.6537 37.6338 13.5439C37.1791 13.4169 36.7992 13.2841 36.4941 13.1455C36.1891 13.0069 35.9298 12.8106 35.7168 12.5566C35.5095 12.2967 35.4053 11.9609 35.4053 11.5508C35.4053 10.9733 35.6128 10.5166 36.0273 10.1816C36.4419 9.84667 37.0209 9.67969 37.7637 9.67969ZM45.7314 9.67969C46.123 9.67969 46.5147 9.74303 46.9062 9.87012C47.3034 9.99717 47.6346 10.1702 47.8994 10.3896L47.3291 11.3955C47.0757 11.2107 46.8227 11.077 46.5693 10.9961C46.3161 10.9095 46.0455 10.8663 45.7578 10.8662C45.1705 10.8662 44.7039 11.0603 44.3584 11.4473C44.0129 11.8285 43.8399 12.3424 43.8398 12.9893C43.8398 13.6305 44.0099 14.1452 44.3496 14.5322C44.6951 14.9191 45.1649 15.1123 45.7578 15.1123C46.0571 15.1122 46.3539 15.0489 46.6475 14.9219C46.941 14.789 47.2003 14.6039 47.4248 14.3672L48.1416 15.3555C47.8364 15.6616 47.47 15.8949 47.0439 16.0566C46.618 16.2183 46.152 16.2998 45.6455 16.2998C44.9949 16.2998 44.4301 16.161 43.9521 15.8838C43.48 15.6065 43.1167 15.2194 42.8633 14.7227C42.6099 14.2201 42.4834 13.642 42.4834 12.9893C42.4834 12.331 42.6131 11.7535 42.8721 11.2568C43.1311 10.7544 43.5058 10.3672 43.9951 10.0957C44.4846 9.81842 45.0635 9.67969 45.7314 9.67969ZM58.0527 9.7832C58.519 9.78326 58.9333 9.86974 59.2959 10.043C59.6644 10.2162 59.9529 10.4727 60.1602 10.8135C60.3675 11.1485 60.4707 11.5567 60.4707 12.0361C60.4706 12.4748 60.3469 12.8615 60.0996 13.1963C59.852 13.5313 59.5382 13.7806 59.1582 13.9424L59.3564 14.2969C59.5062 14.5568 59.665 14.7508 59.832 14.8779C59.9989 15.0048 60.2261 15.0975 60.5137 15.1553V16.2471C60.1453 16.2355 59.8344 16.1892 59.5811 16.1084C59.3335 16.0276 59.1117 15.8977 58.916 15.7188C58.7203 15.5397 58.5269 15.2883 58.3369 14.9648L57.9316 14.2803H56.584V16.1953H55.2881V9.7832H58.0527ZM75.5381 9.7832C76.0045 9.7832 76.4194 9.86967 76.7822 10.043C77.1505 10.2162 77.4383 10.4729 77.6455 10.8135C77.8528 11.1485 77.957 11.5567 77.957 12.0361C77.9569 12.4749 77.8324 12.8614 77.585 13.1963C77.3373 13.5313 77.0236 13.7806 76.6436 13.9424L76.8428 14.2969C76.9925 14.5568 77.1504 14.7508 77.3174 14.8779C77.4844 15.005 77.7121 15.0975 78 15.1553V16.2471C77.6316 16.2355 77.3207 16.1892 77.0674 16.1084C76.8199 16.0276 76.598 15.8976 76.4023 15.7188C76.2066 15.5397 76.0132 15.2882 75.8232 14.9648L75.417 14.2803H74.0703V16.1953H72.7744V9.7832H75.5381ZM21.5469 15.0078H24.458V16.1953H20.251V9.7832H21.5469V15.0078ZM29.585 10.9697H26.3721V12.3477H29.3604V13.5088H26.3721V15.0078H29.7061V16.1953H25.0762V9.7832H29.585V10.9697ZM34.9922 10.9697H33.1445V16.1953H31.8223V10.9697H29.9746V9.7832H34.9922V10.9697ZM54.6553 16.1953H53.2119L52.7305 14.7832H50.248L49.7676 16.1953H48.3203L50.793 9.74609H52.1826L54.6553 16.1953ZM66.0303 10.9697H62.8174V12.3477H65.8057V13.5088H62.8174V15.0078H66.1514V16.1953H61.5215V9.7832H66.0303V10.9697ZM71.6572 10.9697H68.4434V12.3477H71.4326V13.5088H68.4434V15.0078H71.7773V16.1953H67.1484V9.7832H71.6572V10.9697ZM50.6699 13.5449H52.3076L51.5088 11.207H51.4668L50.6699 13.5449ZM56.584 13.1533H58C58.3397 13.1533 58.611 13.0578 58.8125 12.8672C59.0138 12.6766 59.1142 12.3997 59.1143 12.0361C59.1143 11.6895 59.011 11.4231 58.8037 11.2383C58.6022 11.0477 58.343 10.9521 58.0264 10.9521H56.584V13.1533ZM74.0703 13.1533H75.4863C75.8261 13.1533 76.0973 13.0578 76.2988 12.8672C76.5 12.6767 76.6005 12.3996 76.6006 12.0361C76.6006 11.6896 76.4973 11.4231 76.29 11.2383C76.0886 11.0477 75.8293 10.9522 75.5127 10.9521H74.0703V13.1533Z" fill="#27272D"/>
<defs>
<linearGradient id="paint0_linear_18536_15629" x1="17.3192" y1="4.27589" x2="8.83915" y2="16.9524" gradientUnits="userSpaceOnUse">
<stop stop-color="#907CFF"/>
<stop offset="1" stop-color="#4D55F5"/>
</linearGradient>
</defs>
</svg>
