<svg width="55" height="55" viewBox="0 0 55 55" fill="none" xmlns="http://www.w3.org/2000/svg">
<path d="M4.33337 24.2314C4.33337 23.8726 4.5146 23.5381 4.81515 23.342L26.7533 9.03453C27.1059 8.80463 27.5609 8.80463 27.9134 9.03453L49.8516 23.342C50.1521 23.5381 50.3334 23.8726 50.3334 24.2314V47.6562C50.3334 48.7608 49.4379 49.6562 48.3334 49.6562H6.33337C5.2288 49.6562 4.33337 48.7608 4.33337 47.6562V24.2314Z" fill="#2A469F"/>
<path d="M7.33337 9.56181C7.33337 8.97539 7.80876 8.5 8.39519 8.5H46.2716C46.858 8.5 47.3334 8.97539 47.3334 9.56181V43.5944C47.3334 44.1809 46.858 44.6562 46.2716 44.6562H8.39519C7.80876 44.6562 7.33337 44.1809 7.33337 43.5944L7.33337 9.56181Z" fill="#D8E3FF"/>
<path d="M26.3493 36.1L4.33337 23.6562V47.6562C4.33337 48.7608 5.2288 49.6562 6.33337 49.6562H48.3334C49.4379 49.6562 50.3334 48.7608 50.3334 47.6562V23.6562L28.3175 36.1C27.7068 36.4452 26.9599 36.4452 26.3493 36.1Z" fill="#4A76FF"/>
<circle cx="44.5004" cy="9.5" r="5.5" fill="#4A76FF"/>
</svg>
