<svg width="54" height="55" viewBox="0 0 54 55" fill="none" xmlns="http://www.w3.org/2000/svg">
<g clip-path="url(#clip0_18188_16174)">
<path d="M3.88733 54.6563H49.8867C49.6443 49.2198 44.6142 34.6562 26.4327 34.6562C8.25108 34.6562 3.82672 49.2198 3.88733 54.6563Z" fill="#4A76FF"/>
<path d="M26.9336 8.625C32.78 8.625 37.7225 12.4915 39.3457 17.8066C41.3331 18.3496 42.7939 20.1676 42.7939 22.3271C42.7937 24.6964 41.035 26.6529 38.752 26.9668C36.7106 31.4565 32.187 34.5791 26.9336 34.5791C21.6946 34.579 17.1811 31.4737 15.1318 27.0039C12.6683 26.8654 10.7131 24.8253 10.7129 22.3271C10.7129 20.0297 12.3662 18.1181 14.5479 17.7178C16.1986 12.4483 21.1198 8.62513 26.9336 8.625Z" fill="#FFCCA8"/>
<path d="M26.255 4.66535C15.4167 5.69626 12.8275 14.4222 12.8877 18.6563C18.5236 18.6563 21.2573 13.7469 21.9197 11.2922C24.6293 17.5512 30.771 18.6563 40.8867 18.6563C39.5861 7.02171 30.5903 4.48126 26.255 4.66535Z" fill="black"/>
<path d="M45.2467 54.6562H7.89115L6.01092 34.0195C5.94423 33.2875 6.52056 32.6562 7.25559 32.6562H45.5403C46.2671 32.6562 46.8407 33.2741 46.7866 33.999L45.2467 54.6562Z" fill="#D8E3FF"/>
<path d="M23.4004 28.8C24.4068 29.7055 27.2559 30.9733 30.6004 28.8" stroke="black" stroke-width="0.8" stroke-linecap="round"/>
<ellipse cx="23.0262" cy="22.5452" rx="1.29768" ry="1.51397" fill="black"/>
<ellipse cx="30.8133" cy="22.5452" rx="1.29768" ry="1.51397" fill="black"/>
<rect x="16.5" y="18.5" width="10" height="7" rx="1.5" stroke="black"/>
<rect x="27.5" y="18.5" width="10" height="7" rx="1.5" stroke="black"/>
</g>
<defs>
<clipPath id="clip0_18188_16174">
<rect width="54" height="54" fill="white" transform="translate(0 0.65625)"/>
</clipPath>
</defs>
</svg>
