<svg viewBox="0 0 110 129" fill="none" xmlns="http://www.w3.org/2000/svg">
<g clip-path="url(#clip0_16105_12983)">
<rect x="51.25" y="99.8906" width="8.75" height="102.389" fill="#6B858F"/>
<rect y="0.706724" width="71.2844" height="71.2844" rx="3.5" transform="matrix(0.707489 0.706724 -0.707489 0.706724 56.6699 7.0393)" fill="white" stroke="#E7E7E7"/>
<path d="M35.1241 58.6631C35.753 58.6631 36.3204 58.7861 36.8263 59.0322C37.3367 59.2738 37.7354 59.611 38.0225 60.0439C38.3096 60.4723 38.4532 60.96 38.4532 61.5068C38.4532 62.0446 38.3096 62.5299 38.0225 62.9629C37.7354 63.3958 37.3367 63.7331 36.8263 63.9746C36.3204 64.2161 35.753 64.3369 35.1241 64.3369C34.4952 64.3369 33.9255 64.2161 33.4151 63.9746C32.9047 63.7331 32.5037 63.3958 32.212 62.9629C31.9249 62.5299 31.7813 62.0446 31.7813 61.5068C31.7813 60.96 31.9249 60.4723 32.212 60.0439C32.5037 59.611 32.9047 59.2738 33.4151 59.0322C33.9255 58.7861 34.4952 58.6631 35.1241 58.6631ZM35.1241 60.0918C34.8096 60.0918 34.5271 60.1488 34.2764 60.2627C34.0258 60.3721 33.8298 60.5339 33.6886 60.748C33.5473 60.9622 33.4766 61.2152 33.4766 61.5068C33.4766 61.7939 33.5473 62.0469 33.6886 62.2656C33.8298 62.4798 34.0258 62.6439 34.2764 62.7578C34.5271 62.8717 34.8096 62.931 35.1241 62.9355C35.4431 62.931 35.7257 62.8717 35.9718 62.7578C36.2224 62.6439 36.4184 62.4798 36.5596 62.2656C36.7009 62.0469 36.7716 61.7939 36.7716 61.5068C36.7716 61.2152 36.7009 60.9622 36.5596 60.748C36.4184 60.5339 36.2224 60.3721 35.9718 60.2627C35.7257 60.1488 35.4431 60.0918 35.1241 60.0918ZM42.0011 64.5352H40.2579V58.2871H42.0011V64.5352ZM42.0011 68.4316H35.3907V69.9492H33.6886V67.1602H40.2647V66.3945H33.6612V65.0479H42.0011V68.4316ZM42.3429 70.6055H33.6886V69.2314H42.3429V70.6055ZM53.2806 67.4814H51.5375V58.3145H53.2806V67.4814ZM54.9623 63.25H52.7748V61.8213H54.9623V63.25ZM53.725 70.5303H45.2074V69.1221H53.725V70.5303ZM46.9505 69.4229H45.2074V66.5381H46.9505V69.4229ZM45.5082 61.001H48.058V59.1963H49.808V65.4922H43.7787V59.1963H45.5082V61.001ZM48.058 64.1182V62.334H45.5082V64.1182H48.058ZM58.7838 62.0605C58.7838 62.9629 58.6858 63.8219 58.4899 64.6377C58.2939 65.4489 57.9886 66.1803 57.5739 66.832C57.1592 67.4792 56.6328 67.9827 55.9948 68.3428L55.0036 67.0439C55.5778 66.7204 56.0472 66.2943 56.4118 65.7656C56.7763 65.237 57.0429 64.6582 57.2116 64.0293C57.3847 63.4004 57.4713 62.7441 57.4713 62.0605V61.7051H58.7838V62.0605ZM59.1051 62.0605C59.1051 62.7259 59.1894 63.3571 59.358 63.9541C59.5267 64.5465 59.7933 65.0911 60.1579 65.5879C60.527 66.0801 60.9987 66.4766 61.5729 66.7773L60.6022 68.0557C59.9596 67.723 59.4264 67.2513 59.0026 66.6406C58.5833 66.0299 58.278 65.3372 58.0866 64.5625C57.8952 63.7878 57.7995 62.9538 57.7995 62.0605V61.7051H59.1051V62.0605ZM61.1422 61.8281H55.4137V60.4131H61.1422V61.8281ZM59.0983 61.5342H57.4713V58.7246H59.0983V61.5342ZM66.0914 70.7422H64.4166V58.2871H66.0914V70.7422ZM64.984 64.5146H62.8854V63.0996H64.984V64.5146ZM63.3571 70.168H61.7096V58.4785H63.3571V70.168ZM71.3622 64.7539H69.6122V62.4707H71.3622V64.7539ZM75.7851 64.7539H74.0419V62.4707H75.7851V64.7539ZM78.4032 65.5947H67.0556V64.2002H78.4032V65.5947ZM72.7089 66.2373C73.6113 66.2373 74.386 66.3239 75.0331 66.4971C75.6803 66.6702 76.177 66.9255 76.5234 67.2627C76.8697 67.5954 77.0429 68.001 77.0429 68.4795C77.0429 68.9626 76.8697 69.3704 76.5234 69.7031C76.177 70.0404 75.6803 70.2956 75.0331 70.4688C74.386 70.6419 73.6113 70.7285 72.7089 70.7285C71.7974 70.7285 71.0159 70.6419 70.3642 70.4688C69.7125 70.2956 69.2135 70.0404 68.8671 69.7031C68.5208 69.3704 68.3476 68.9626 68.3476 68.4795C68.3476 68.001 68.5208 67.5954 68.8671 67.2627C69.2135 66.9255 69.7125 66.6702 70.3642 66.4971C71.0204 66.3239 71.802 66.2373 72.7089 66.2373ZM72.7089 67.5566C72.1301 67.5566 71.6493 67.5908 71.2665 67.6592C70.8883 67.723 70.6034 67.8255 70.412 67.9668C70.2206 68.1035 70.1249 68.2744 70.1249 68.4795C70.1249 68.6846 70.2206 68.86 70.412 69.0059C70.6034 69.1471 70.8905 69.2542 71.2734 69.3271C71.6562 69.3955 72.1347 69.4297 72.7089 69.4297C73.274 69.4297 73.748 69.3955 74.1308 69.3271C74.5182 69.2542 74.8075 69.1471 74.9989 69.0059C75.1904 68.86 75.2861 68.6846 75.2861 68.4795C75.2861 68.2744 75.1904 68.1035 74.9989 67.9668C74.8075 67.8255 74.5204 67.723 74.1376 67.6592C73.7594 67.5908 73.2831 67.5566 72.7089 67.5566ZM72.7226 58.4785C73.6386 58.4785 74.4361 58.5742 75.1152 58.7656C75.7942 58.957 76.3183 59.2327 76.6874 59.5928C77.0566 59.9528 77.2411 60.3812 77.2411 60.8779C77.2411 61.3656 77.0566 61.7871 76.6874 62.1426C76.3228 62.4935 75.801 62.7624 75.122 62.9492C74.443 63.1361 73.6432 63.2295 72.7226 63.2295C71.802 63.2295 70.9999 63.1361 70.3163 62.9492C69.6327 62.7624 69.1064 62.4935 68.7372 62.1426C68.3681 61.7871 68.1835 61.3656 68.1835 60.8779C68.1835 60.3812 68.3681 59.9528 68.7372 59.5928C69.1064 59.2327 69.6327 58.957 70.3163 58.7656C70.9999 58.5742 71.802 58.4785 72.7226 58.4785ZM72.7226 59.8184C72.1347 59.8184 71.6379 59.8594 71.2323 59.9414C70.8267 60.0189 70.5191 60.1374 70.3095 60.2969C70.0999 60.4518 69.995 60.6455 69.995 60.8779C69.995 61.1012 70.0999 61.2904 70.3095 61.4453C70.5191 61.6003 70.8267 61.7188 71.2323 61.8008C71.6379 61.8783 72.1347 61.917 72.7226 61.917C73.3059 61.917 73.8004 61.8783 74.206 61.8008C74.6116 61.7188 74.9192 61.6003 75.1288 61.4453C75.3385 61.2904 75.4433 61.1012 75.4433 60.8779C75.4433 60.6455 75.3385 60.4518 75.1288 60.2969C74.9192 60.1374 74.6116 60.0189 74.206 59.9414C73.8004 59.8594 73.3059 59.8184 72.7226 59.8184Z" fill="#0F4D66"/>
<path d="M62.4805 45.4977V43.3126H55.8927C54.8792 43.3126 54.6258 44.1219 54.6258 44.5266V54.4811H50.3184V43.7982C51.1292 40.4962 53.8657 39.5089 55.1325 39.4279H62.4805V37L69.0684 41.1275L62.4805 45.4977Z" fill="#0F4D66"/>
<circle cx="96" cy="58" r="2" fill="#CACDD3"/>
<circle cx="14" cy="58" r="2" fill="#CACDD3"/>
<circle cx="56" cy="16" r="2" fill="#CACDD3"/>
<circle cx="56" cy="100" r="2" fill="#CACDD3"/>
</g>
<defs>
<clipPath id="clip0_16105_12983">
<rect width="110" height="129" fill="white"/>
</clipPath>
</defs>
</svg>
