<svg viewBox="0 0 110 129" fill="none" xmlns="http://www.w3.org/2000/svg">
<g clip-path="url(#clip0_16105_13009)">
<rect x="51.25" y="96" width="8.75" height="102.389" fill="#9A74AD"/>
<circle cx="56" cy="58" r="43.5" fill="white" stroke="#E7E7E7"/>
<circle cx="56" cy="58" r="39.5" fill="white" stroke="#E7E7E7"/>
<path d="M38.4803 67H36.4158V59.0566H36.3611L34.0984 60.4922V58.6602L36.5457 57.1016H38.4803V67ZM41.7003 65.7969C41.4952 65.7969 41.3038 65.7445 41.1261 65.6396C40.9483 65.5303 40.8093 65.389 40.7091 65.2158C40.6088 65.0381 40.5587 64.8467 40.5587 64.6416C40.5587 64.4411 40.6088 64.2542 40.7091 64.0811C40.8093 63.9033 40.9483 63.7643 41.1261 63.6641C41.3038 63.5638 41.4952 63.5137 41.7003 63.5137C41.9054 63.5137 42.0945 63.5638 42.2677 63.6641C42.4454 63.7643 42.5867 63.9033 42.6915 64.0811C42.7963 64.2542 42.8487 64.4411 42.8487 64.6416C42.8487 64.8467 42.7963 65.0381 42.6915 65.2158C42.5867 65.389 42.4454 65.5303 42.2677 65.6396C42.0945 65.7445 41.9054 65.7969 41.7003 65.7969ZM41.7003 60.5879C41.4952 60.5879 41.3038 60.5355 41.1261 60.4307C40.9483 60.3213 40.8093 60.18 40.7091 60.0068C40.6088 59.8291 40.5587 59.6377 40.5587 59.4326C40.5587 59.2321 40.6088 59.0452 40.7091 58.8721C40.8093 58.6943 40.9483 58.5553 41.1261 58.4551C41.3038 58.3548 41.4952 58.3047 41.7003 58.3047C41.9054 58.3047 42.0945 58.3548 42.2677 58.4551C42.4454 58.5553 42.5867 58.6943 42.6915 58.8721C42.7963 59.0452 42.8487 59.2321 42.8487 59.4326C42.8487 59.6377 42.7963 59.8291 42.6915 60.0068C42.5867 60.18 42.4454 60.3213 42.2677 60.4307C42.0945 60.5355 41.9054 60.5879 41.7003 60.5879ZM48.4339 67H46.3695V59.0566H46.3148L44.0521 60.4922V58.6602L46.4994 57.1016H48.4339V67ZM57.2118 57.6006C57.2118 58.4437 57.0842 59.2275 56.829 59.9521C56.5784 60.6768 56.1956 61.3079 55.6806 61.8457C55.1656 62.3789 54.5276 62.7777 53.7665 63.042L52.83 61.6748C53.4954 61.4469 54.0491 61.1257 54.4911 60.7109C54.9332 60.2917 55.259 59.8154 55.4687 59.2822C55.6829 58.749 55.79 58.1885 55.79 57.6006V56.4727H57.2118V57.6006ZM57.54 57.7715C57.54 58.291 57.6425 58.7855 57.8476 59.2549C58.0572 59.7197 58.3739 60.1344 58.7978 60.499C59.2262 60.859 59.7571 61.1393 60.3905 61.3398L59.4609 62.6934C58.7362 62.4473 58.1233 62.0827 57.622 61.5996C57.1207 61.1165 56.747 60.5492 56.5009 59.8975C56.2548 59.2412 56.1318 58.5326 56.1318 57.7715V56.4727H57.54V57.7715ZM62.8788 63.1924H61.1357V55.8027H62.8788V63.1924ZM64.5605 60.1777H62.3866V58.7217H64.5605V60.1777ZM58.7978 63.4453C59.6545 63.4453 60.3974 63.541 61.0263 63.7324C61.6598 63.9193 62.1451 64.1927 62.4823 64.5527C62.8241 64.9128 62.995 65.3434 62.995 65.8447C62.995 66.3506 62.8241 66.7835 62.4823 67.1436C62.1451 67.5081 61.662 67.7839 61.0331 67.9707C60.4042 68.1621 59.6591 68.2578 58.7978 68.2578C57.9319 68.2578 57.1777 68.1621 56.5351 67.9707C55.8925 67.7839 55.398 67.5081 55.0517 67.1436C54.7053 66.7835 54.5321 66.3506 54.5321 65.8447C54.5321 65.3434 54.7053 64.9128 55.0517 64.5527C55.398 64.1927 55.8925 63.9193 56.5351 63.7324C57.1777 63.541 57.9319 63.4453 58.7978 63.4453ZM58.7978 64.8125C58.26 64.8125 57.802 64.8512 57.4237 64.9287C57.0501 65.0016 56.7675 65.1178 56.5761 65.2773C56.3847 65.4323 56.289 65.6214 56.289 65.8447C56.289 66.0771 56.3847 66.2708 56.5761 66.4258C56.7675 66.5807 57.0478 66.6969 57.4169 66.7744C57.7906 66.8473 58.2509 66.8861 58.7978 66.8906C59.3492 66.8861 59.8072 66.8473 60.1718 66.7744C60.5364 66.6969 60.8121 66.5807 60.9989 66.4258C61.1858 66.2708 61.2792 66.0771 61.2792 65.8447C61.2792 65.6169 61.1835 65.4255 60.9921 65.2705C60.8053 65.1156 60.5273 65.0016 60.1581 64.9287C59.789 64.8512 59.3355 64.8125 58.7978 64.8125ZM74.6984 62.8027H72.9553V55.8027H74.6984V62.8027ZM76.3801 60.0547H74.2063V58.6191H76.3801V60.0547ZM66.3518 60.9434C67.7508 60.9479 68.8446 60.9229 69.633 60.8682C70.426 60.8135 71.1916 60.7109 71.9299 60.5605L72.1213 61.9346C71.6109 62.0485 71.0913 62.1351 70.5627 62.1943C70.0386 62.249 69.4621 62.2855 68.8332 62.3037C68.2043 62.3219 67.3771 62.3311 66.3518 62.3311H65.3059V60.9434H66.3518ZM70.8635 57.9902H67.049V61.7637H65.3059V56.5957H70.8635V57.9902ZM74.6984 68.1143H66.5637V63.3223H74.6984V68.1143ZM68.2932 66.7402H72.9758V64.7031H68.2932V66.7402Z" fill="#51186E"/>
<path d="M66 37L64.3803 43L62.8524 41.5106L55.9577 47.4211L51.7465 43.3158L44.9437 49L43 47.1053L51.7465 39.5263L55.9577 43.9474L61.1408 39.5263L59.5211 37.6316L66 37Z" fill="#51186E"/>
</g>
<defs>
<clipPath id="clip0_16105_13009">
<rect width="110" height="129" fill="white"/>
</clipPath>
</defs>
</svg>
