<svg width="587" height="137" viewBox="0 0 587 137" fill="none" xmlns="http://www.w3.org/2000/svg">
<path d="M50.4059 67.408V74.512C51.1579 74.496 51.9419 74.464 52.7259 74.416V67.408H50.4059ZM54.0059 67.408V74.336C54.7099 74.304 55.3819 74.24 56.0539 74.16L56.1499 75.12C53.2379 75.568 49.8779 75.648 47.3819 75.648L47.2379 74.544C47.8139 74.544 48.4699 74.544 49.1259 74.528V67.408H47.6859V66.336H55.6059V67.408H54.0059ZM57.8619 64.848H59.1739V79.184H57.8619V71.328H55.1259V70.24H57.8619V64.848ZM74.3566 72.048L73.7646 73.136C71.5886 72.64 69.3486 71.104 68.4366 68.992C67.5246 71.088 65.2846 72.624 63.1246 73.136L62.5326 72.048C65.0446 71.552 67.7486 69.392 67.7486 66.944V65.84H69.1246V66.944C69.1246 69.392 71.8446 71.568 74.3566 72.048ZM61.9886 76.176H74.9966V77.264H61.9886V76.176ZM87.1234 72.256V68.288H83.0594V67.232H87.1234V64.832H88.4514V72.256H87.1234ZM84.9314 70L85.1074 71.088C82.8674 71.52 80.9314 71.648 78.5634 71.648H77.4594V65.52H78.7714V70.544C80.9634 70.544 82.8514 70.416 84.9314 70ZM80.5314 77.936H88.9634V78.992H79.2354V75.376H87.1394V73.984H79.2034V72.928H88.4514V76.384H80.5314V77.936ZM47.3499 99.192H60.3579V100.28H47.3499V99.192ZM48.8859 88.872H50.1819V91.496H57.5099V88.872H58.7899V96.344H48.8859V88.872ZM50.1819 92.552V95.272H57.5099V92.552H50.1819ZM70.9166 93.208V98.104H69.6686V88.104H70.9166V92.136H72.8366V87.848H74.1006V98.52H72.8366V93.208H70.9166ZM68.8526 94.904L68.9806 95.96C67.1566 96.312 65.6526 96.392 63.5886 96.392H62.6446V92.168H66.7406V90.136H62.6126V89.08H68.0046V93.16H63.9086V95.32C65.7806 95.32 67.1726 95.24 68.8526 94.904ZM66.0526 100.792H74.5166V101.864H64.7406V97.56H66.0526V100.792ZM88.4034 87.832V96.664H87.0914V87.832H88.4034ZM85.6514 93.672L85.7794 94.744C83.6674 95.16 81.8274 95.256 78.6754 95.256H77.4914V88.968H84.2434V90.024H78.8034V94.184C81.8274 94.184 83.6034 94.088 85.6514 93.672ZM83.6354 101.144C85.8114 101.144 87.1394 100.504 87.1394 99.432C87.1394 98.36 85.8114 97.72 83.6354 97.72C81.4594 97.72 80.1154 98.36 80.1154 99.432C80.1154 100.504 81.4594 101.144 83.6354 101.144ZM83.6354 96.68C86.5954 96.68 88.4514 97.688 88.4514 99.432C88.4514 101.176 86.5954 102.184 83.6354 102.184C80.6754 102.184 78.8194 101.176 78.8194 99.432C78.8194 97.688 80.6754 96.68 83.6354 96.68Z" fill="#4A495C"/>
<path d="M61.3054 47C61.4874 43.234 62.1454 40.826 64.1334 38.054H59.2894V36.682H65.9254V37.676C63.5034 40.686 63.1254 42.968 62.9574 47H61.3054ZM77.6477 35.422V41.848H76.2057V35.422H77.6477ZM68.8697 38.698C68.8697 39.706 69.6817 40.364 70.7737 40.364C71.8797 40.364 72.7057 39.706 72.7057 38.698C72.7057 37.69 71.8797 37.032 70.7737 37.032C69.6817 37.032 68.8697 37.69 68.8697 38.698ZM74.1057 38.698C74.1057 40.364 72.6917 41.54 70.7737 41.54C68.8697 41.54 67.4697 40.364 67.4697 38.698C67.4697 37.032 68.8697 35.842 70.7737 35.842C72.6917 35.842 74.1057 37.032 74.1057 38.698ZM70.8017 46.79H78.0257V47.924H69.3877V44.606H76.2197V43.556H69.3597V42.422H77.6477V45.67H70.8017V46.79Z" fill="#858585"/>
<circle cx="68.5" cy="68.5" r="68.25" stroke="#4A495C" stroke-width="0.5"/>
<path d="M191.081 67.072V71.728H198.425V67.072H191.081ZM195.433 76.256H201.289V77.344H188.281V76.256H194.105V72.768H189.817V66.032H199.705V72.768H195.433V76.256ZM207.576 65.888C209.816 65.888 211.416 67.248 211.416 69.264C211.416 71.264 209.816 72.64 207.576 72.64C205.352 72.64 203.736 71.264 203.736 69.264C203.736 67.248 205.352 65.888 207.576 65.888ZM207.576 67.008C206.104 67.008 205.016 67.92 205.016 69.264C205.016 70.592 206.104 71.52 207.576 71.52C209.064 71.52 210.136 70.592 210.136 69.264C210.136 67.92 209.064 67.008 207.576 67.008ZM213.304 64.832H214.616V79.216H213.304V64.832ZM203.176 76.064L203.016 74.96C205.624 74.96 209.224 74.944 212.36 74.464L212.472 75.44C209.24 76.032 205.768 76.064 203.176 76.064ZM226.081 66.064V68.64C226.081 71.248 227.713 73.856 229.793 74.848L229.025 75.888C227.393 75.072 226.081 73.36 225.425 71.344C224.801 73.472 223.473 75.28 221.857 76.144L221.057 75.104C223.137 74.064 224.769 71.296 224.769 68.64V66.064H226.081ZM231.569 64.832H232.881V79.2H231.569V70.768H228.241V69.696H231.569V64.832ZM245.808 68.096V66.448H237.232V65.392H247.136V69.088H238.592V70.848H247.456V71.904H237.28V68.096H245.808ZM248.704 73.392V74.448H245.312V79.2H244V74.448H240.384V79.2H239.072V74.448H235.68V73.392H248.704ZM198.367 94.856L197.695 95.88C196.095 95.32 194.863 94.152 194.239 92.68C193.631 94.28 192.335 95.544 190.655 96.168L189.967 95.128C192.127 94.376 193.567 92.52 193.567 90.472V89.896H190.351V88.84H198.047V89.896H194.879V90.456C194.879 92.36 196.255 94.136 198.367 94.856ZM191.823 98.312V97.256H201.167V102.2H199.855V98.312H191.823ZM203.295 91.608V92.696H201.167V96.488H199.855V87.848H201.167V91.608H203.295ZM215.165 96.328V91.96H212.045V90.888H215.165V87.848H216.493V96.328H215.165ZM213.085 94.632L212.381 95.656C210.813 95.064 209.597 93.928 208.973 92.44C208.365 94.136 207.069 95.432 205.341 96.088L204.653 95.016C206.861 94.232 208.285 92.312 208.285 90.12V88.648H209.597V90.072C209.597 92.12 210.989 93.896 213.085 94.632ZM211.757 101.128C213.917 101.128 215.229 100.504 215.229 99.464C215.229 98.408 213.917 97.784 211.757 97.784C209.597 97.784 208.285 98.408 208.285 99.464C208.285 100.504 209.597 101.128 211.757 101.128ZM211.757 96.76C214.701 96.76 216.541 97.736 216.541 99.464C216.541 101.176 214.701 102.168 211.757 102.168C208.813 102.168 206.973 101.176 206.973 99.464C206.973 97.736 208.813 96.76 211.757 96.76ZM223.516 97.896C224.828 97.896 225.772 96.968 225.772 95.688C225.772 94.392 224.828 93.464 223.516 93.464C222.22 93.464 221.276 94.392 221.276 95.688C221.276 96.968 222.22 97.896 223.516 97.896ZM223.516 92.376C225.564 92.376 227.02 93.752 227.02 95.688C227.02 97.64 225.564 98.984 223.516 98.984C221.5 98.984 220.044 97.64 220.044 95.688C220.044 93.752 221.5 92.376 223.516 92.376ZM224.156 88.008V90.136H227.692V91.192H219.228V90.136H222.844V88.008H224.156ZM232.716 93.736V94.84H230.364V102.184H229.052V87.848H230.364V93.736H232.716ZM234.795 89.384H241.515C241.515 93.528 239.611 97.176 234.843 99.512L234.139 98.44C237.995 96.6 239.915 93.848 240.187 90.44H234.795V89.384ZM244.411 87.832H245.723V102.184H244.411V87.832Z" fill="#4A495C"/>
<path d="M212.355 47.182C210.731 47.182 209.681 46.538 208.995 45.768L209.779 44.732C210.381 45.348 211.151 45.866 212.215 45.866C213.377 45.866 214.175 45.222 214.175 44.144C214.175 43.01 213.447 42.268 211.123 42.268V41.078C213.153 41.078 213.825 40.308 213.825 39.272C213.825 38.362 213.223 37.802 212.243 37.788C211.445 37.802 210.773 38.18 210.185 38.754L209.345 37.746C210.157 37.018 211.109 36.5 212.299 36.5C214.147 36.5 215.449 37.466 215.449 39.16C215.449 40.35 214.763 41.176 213.671 41.582V41.652C214.861 41.946 215.799 42.842 215.799 44.228C215.799 46.09 214.245 47.182 212.355 47.182ZM227.648 35.422V41.848H226.206V35.422H227.648ZM218.87 38.698C218.87 39.706 219.682 40.364 220.774 40.364C221.88 40.364 222.706 39.706 222.706 38.698C222.706 37.69 221.88 37.032 220.774 37.032C219.682 37.032 218.87 37.69 218.87 38.698ZM224.106 38.698C224.106 40.364 222.692 41.54 220.774 41.54C218.87 41.54 217.47 40.364 217.47 38.698C217.47 37.032 218.87 35.842 220.774 35.842C222.692 35.842 224.106 37.032 224.106 38.698ZM220.802 46.79H228.026V47.924H219.388V44.606H226.22V43.556H219.36V42.422H227.648V45.67H220.802V46.79Z" fill="#858585"/>
<circle cx="218.5" cy="68.5" r="68.25" stroke="#4A495C" stroke-width="0.5"/>
<path d="M359.219 47V46.062C362.257 43.374 363.825 41.372 363.825 39.678C363.825 38.558 363.237 37.788 362.075 37.788C361.263 37.788 360.591 38.306 360.045 38.936L359.135 38.04C360.017 37.074 360.927 36.5 362.271 36.5C364.161 36.5 365.379 37.732 365.379 39.594C365.379 41.582 363.797 43.64 361.613 45.726C362.145 45.67 362.789 45.628 363.293 45.628H365.869V47H359.219ZM377.648 35.422V41.848H376.206V35.422H377.648ZM368.87 38.698C368.87 39.706 369.682 40.364 370.774 40.364C371.88 40.364 372.706 39.706 372.706 38.698C372.706 37.69 371.88 37.032 370.774 37.032C369.682 37.032 368.87 37.69 368.87 38.698ZM374.106 38.698C374.106 40.364 372.692 41.54 370.774 41.54C368.87 41.54 367.47 40.364 367.47 38.698C367.47 37.032 368.87 35.842 370.774 35.842C372.692 35.842 374.106 37.032 374.106 38.698ZM370.802 46.79H378.026V47.924H369.388V44.606H376.22V43.556H369.36V42.422H377.648V45.67H370.802V46.79Z" fill="#858585"/>
<path d="M348.813 78.784V78.624H340.333V77.568H350.109V78.784C350.109 79.936 350.109 81.104 349.709 82.576L348.429 82.432C348.813 80.96 348.813 79.904 348.813 78.784ZM345.213 90.144C347.469 90.144 348.909 89.536 348.909 88.544C348.909 87.52 347.469 86.912 345.213 86.912C342.973 86.912 341.533 87.52 341.533 88.544C341.533 89.536 342.973 90.144 345.213 90.144ZM345.213 85.904C348.269 85.904 350.221 86.88 350.221 88.544C350.221 90.176 348.269 91.168 345.213 91.168C342.157 91.168 340.221 90.176 340.221 88.544C340.221 86.88 342.157 85.904 345.213 85.904ZM345.421 83.52H351.725V84.576H338.813V83.52H344.109V80.768H345.421V83.52ZM363.548 79.696V79.344H354.796V78.272H364.86V79.696C364.86 81.472 364.86 83.44 364.316 86.336L363.004 86.192C363.548 83.44 363.548 81.424 363.548 79.696ZM359.788 88.096H366.412V89.168H353.436V88.096H358.476V82.96H359.788V88.096ZM381.541 81.984V80.128H374.565V81.984H381.541ZM382.837 77.28V83.024H373.269V77.28H374.565V79.12H381.541V77.28H382.837ZM374.485 86.96V89.792H383.109V90.864H373.189V86.96H374.485ZM371.525 84.416H384.565V85.472H378.805V88.256H377.493V85.472H371.525V84.416ZM394.58 83.664L393.876 84.704C392.308 84.096 391.076 82.896 390.452 81.392C389.844 83.072 388.58 84.352 386.9 85.024L386.212 83.968C388.388 83.184 389.764 81.248 389.764 79.072V77.552H391.076V79.12C391.076 81.088 392.5 82.928 394.58 83.664ZM388.404 87.168V86.112H398.02V91.2H396.692V87.168H388.404ZM396.692 76.848H398.02V85.312H396.692V80.912H393.572V79.84H396.692V76.848Z" fill="#4A495C"/>
<circle cx="368.5" cy="68.5" r="68.25" stroke="#4A495C" stroke-width="0.5"/>
<path d="M509.219 47V46.062C512.257 43.374 513.825 41.372 513.825 39.678C513.825 38.558 513.237 37.788 512.075 37.788C511.263 37.788 510.591 38.306 510.045 38.936L509.135 38.04C510.017 37.074 510.927 36.5 512.271 36.5C514.161 36.5 515.379 37.732 515.379 39.594C515.379 41.582 513.797 43.64 511.613 45.726C512.145 45.67 512.789 45.628 513.293 45.628H515.869V47H509.219ZM527.648 35.422V41.848H526.206V35.422H527.648ZM518.87 38.698C518.87 39.706 519.682 40.364 520.774 40.364C521.88 40.364 522.706 39.706 522.706 38.698C522.706 37.69 521.88 37.032 520.774 37.032C519.682 37.032 518.87 37.69 518.87 38.698ZM524.106 38.698C524.106 40.364 522.692 41.54 520.774 41.54C518.87 41.54 517.47 40.364 517.47 38.698C517.47 37.032 518.87 35.842 520.774 35.842C522.692 35.842 524.106 37.032 524.106 38.698ZM520.802 46.79H528.026V47.924H519.388V44.606H526.22V43.556H519.36V42.422H527.648V45.67H520.802V46.79Z" fill="#858585"/>
<path d="M516.929 64.848V72.272H515.617V64.848H516.929ZM513.857 70.832L513.201 71.856C511.553 71.28 510.241 70.08 509.585 68.56C508.961 70.208 507.633 71.52 505.937 72.128L505.265 71.104C507.425 70.352 508.913 68.432 508.913 66.352V65.264H510.225V66.352C510.225 68.336 511.729 70.128 513.857 70.832ZM508.977 77.984H517.425V79.024H507.681V75.456H515.649V74.016H507.649V72.992H516.945V76.448H508.977V77.984ZM524.016 67.584V68.88C524.016 71.376 525.088 73.872 527.072 74.992L526.272 75.952C524.88 75.12 523.888 73.584 523.392 71.76C522.896 73.728 521.856 75.408 520.432 76.304L519.632 75.328C521.632 74.128 522.752 71.52 522.752 68.88V67.584H520.032V66.512H526.576V67.584H524.016ZM527.856 69.984V65.152H529.104V78.432H527.856V71.056H525.488V69.984H527.856ZM530.736 64.816H532V79.168H530.736V64.816ZM495.651 90.392V92.216C495.651 94.648 497.379 97.128 499.491 98.024L498.755 99.08C497.091 98.312 495.683 96.664 494.995 94.696C494.339 96.792 492.931 98.6 491.299 99.432L490.531 98.376C492.595 97.4 494.339 94.696 494.339 92.216V90.392H491.011V89.304H499.027V90.392H495.651ZM500.963 87.848H502.275V102.184H500.963V87.848ZM512.689 96.312H515.601V87.832H516.913V98.76H515.601V97.288H512.689V96.312ZM509.761 89.384C508.401 89.384 507.473 89.992 507.473 90.904C507.473 91.832 508.401 92.44 509.761 92.44C511.121 92.44 512.049 91.832 512.049 90.904C512.049 89.992 511.121 89.384 509.761 89.384ZM509.761 93.416C507.665 93.416 506.225 92.44 506.225 90.904C506.225 89.4 507.665 88.408 509.761 88.408C511.857 88.408 513.297 89.4 513.297 90.904C513.297 92.44 511.857 93.416 509.761 93.416ZM509.249 98.248V95.48C507.825 95.544 506.449 95.56 505.265 95.56L505.089 94.472C507.745 94.472 511.297 94.44 514.337 94.056L514.449 95C513.185 95.192 511.857 95.336 510.561 95.416V98.248H509.249ZM508.449 100.792H517.281V101.864H507.137V97.688H508.449V100.792ZM524.016 97.896C525.328 97.896 526.272 96.968 526.272 95.688C526.272 94.392 525.328 93.464 524.016 93.464C522.72 93.464 521.776 94.392 521.776 95.688C521.776 96.968 522.72 97.896 524.016 97.896ZM524.016 92.376C526.064 92.376 527.52 93.752 527.52 95.688C527.52 97.64 526.064 98.984 524.016 98.984C522 98.984 520.544 97.64 520.544 95.688C520.544 93.752 522 92.376 524.016 92.376ZM524.656 88.008V90.136H528.192V91.192H519.728V90.136H523.344V88.008H524.656ZM533.216 93.736V94.84H530.864V102.184H529.552V87.848H530.864V93.736H533.216ZM535.295 89.384H542.015C542.015 93.528 540.111 97.176 535.343 99.512L534.639 98.44C538.495 96.6 540.415 93.848 540.687 90.44H535.295V89.384ZM544.911 87.832H546.223V102.184H544.911V87.832Z" fill="#4A495C"/>
<circle cx="518.5" cy="68.5" r="68.25" stroke="#4A495C" stroke-width="0.5"/>
</svg>
