<svg width="441" height="180" viewBox="0 0 441 180" fill="none" xmlns="http://www.w3.org/2000/svg">
<g clip-path="url(#clip0_50_9868)">
<rect x="0.5" y="0.5" width="179" height="179" rx="89.5" fill="white"/>
<rect x="0.5" y="0.5" width="179" height="179" rx="89.5" stroke="#D8D8D8"/>
<path d="M66.9473 70.4512C66.9473 71.4941 66.9209 72.4814 66.8682 73.4131C66.8213 74.3389 66.7012 75.4023 66.5078 76.6035L64.5742 76.4453C64.7441 75.373 64.8584 74.4004 64.917 73.5273C64.9756 72.6543 65.0078 71.7754 65.0137 70.8906H58.7734V69.3262H66.9473V70.4512ZM57.9297 78.6602C59.3008 78.6484 60.3262 78.6338 61.0059 78.6162V73.8613H62.9395V78.5547C64.7676 78.4727 66.3672 78.3496 67.7383 78.1855L67.8438 79.6445C65.459 80.0312 62.4795 80.2246 58.9053 80.2246H58.1231L57.9297 78.6602ZM68.5645 67.6738H70.5332V74.1426H72.8359V75.7949H70.5332V83.5645H68.5645V67.6738ZM77.6431 68.377C78.3228 68.377 78.9468 68.5 79.5151 68.7461C80.0835 68.9863 80.5581 69.3291 80.939 69.7744C81.3257 70.2139 81.5835 70.7207 81.7124 71.2949H84.5864V67.6738H86.5376V76.1992H84.5864V72.877H81.73C81.6069 73.4688 81.3521 73.9902 80.9653 74.4414C80.5845 74.8926 80.1069 75.2441 79.5327 75.4961C78.9585 75.7422 78.3286 75.8652 77.6431 75.8652C76.8403 75.8652 76.1196 75.7041 75.481 75.3818C74.8423 75.0596 74.3413 74.6143 73.978 74.0459C73.6206 73.4717 73.4419 72.8242 73.4419 72.1035C73.4419 71.3887 73.6206 70.7471 73.978 70.1787C74.3413 69.6104 74.8423 69.168 75.481 68.8516C76.1196 68.5352 76.8403 68.377 77.6431 68.377ZM75.3052 72.1035C75.3052 72.5195 75.4048 72.8887 75.604 73.2109C75.8032 73.5332 76.0786 73.7822 76.4302 73.958C76.7876 74.1279 77.1919 74.2129 77.6431 74.2129C78.0825 74.2129 78.4751 74.1279 78.8208 73.958C79.1724 73.7822 79.4478 73.5332 79.647 73.2109C79.8462 72.8887 79.9458 72.5195 79.9458 72.1035C79.9458 71.6875 79.8462 71.3213 79.647 71.0049C79.4478 70.6826 79.1753 70.4365 78.8296 70.2666C78.4839 70.0967 78.0884 70.0117 77.6431 70.0117C77.186 70.0117 76.7817 70.0967 76.4302 70.2666C76.0786 70.4365 75.8032 70.6826 75.604 71.0049C75.4048 71.3213 75.3052 71.6875 75.3052 72.1035ZM76.061 76.9375H77.9946V78.625H84.5864V76.9375H86.5376V83.3711H76.061V76.9375ZM84.5864 81.7891V80.1367H77.9946V81.7891H84.5864ZM94.605 72.8066H97.189V69.1328H98.9995V79.7148H92.7593V69.1328H94.605V72.8066ZM97.189 78.1328V74.3535H94.605V78.1328H97.189ZM100.564 67.9551H102.41V73.8086H104.097V67.6738H105.978V83.5645H104.097V75.4258H102.41V82.791H100.564V67.9551ZM120.734 76.9727H118.783V75.2148H115.004V73.6328H118.783V71.9277H115.153C114.655 73.1816 113.835 74.251 112.692 75.1357C111.55 76.0146 110.111 76.6973 108.377 77.1836L107.586 75.6367C109.414 75.1445 110.832 74.4473 111.84 73.5449C112.854 72.6367 113.437 71.582 113.589 70.3809H108.43V68.7988H115.725C115.725 69.3496 115.681 69.877 115.593 70.3809H118.783V67.6914H120.734V76.9727ZM110.082 80.3125C110.082 79.668 110.305 79.1084 110.75 78.6338C111.195 78.1592 111.822 77.793 112.631 77.5352C113.445 77.2773 114.395 77.1484 115.479 77.1484C116.545 77.1484 117.482 77.2773 118.291 77.5352C119.1 77.793 119.727 78.1592 120.172 78.6338C120.617 79.1084 120.84 79.668 120.84 80.3125C120.84 80.957 120.617 81.5195 120.172 82C119.727 82.4746 119.1 82.8379 118.291 83.0898C117.482 83.3477 116.545 83.4766 115.479 83.4766C114.4 83.4766 113.454 83.3477 112.64 83.0898C111.825 82.8379 111.195 82.4746 110.75 82C110.305 81.5195 110.082 80.957 110.082 80.3125ZM112.033 80.3125C112.033 80.8281 112.338 81.2266 112.947 81.5078C113.557 81.7891 114.4 81.9297 115.479 81.9297C116.539 81.9297 117.371 81.7891 117.975 81.5078C118.578 81.2266 118.883 80.8281 118.889 80.3125C118.883 79.7852 118.578 79.3809 117.975 79.0996C117.377 78.8184 116.545 78.6777 115.479 78.6777C114.4 78.6777 113.557 78.8184 112.947 79.0996C112.338 79.3809 112.033 79.7852 112.033 80.3125ZM88.4753 105.725H86.5242V104.336H82.6921V102.842H86.5242V101.277H82.8943C81.9216 103.668 79.6453 105.268 76.0652 106.076L75.3796 104.477C77.2019 104.096 78.5994 103.516 79.572 102.736C80.5505 101.957 81.1101 101.025 81.2507 99.9414H76.2585V98.3594H83.4304C83.4304 98.8223 83.3923 99.2969 83.3162 99.7832H86.5242V97.6738H88.4753V105.725ZM78.0164 106.34H88.4753V110.523H79.9851V111.842H88.8972V113.406H78.0339V109.064H86.5242V107.887H78.0164V106.34ZM99.2063 100.451C99.2063 101.494 99.1799 102.481 99.1272 103.413C99.0803 104.339 98.9602 105.402 98.7668 106.604L96.8333 106.445C97.0032 105.373 97.1174 104.4 97.176 103.527C97.2346 102.654 97.2668 101.775 97.2727 100.891H91.0325V99.3262H99.2063V100.451ZM90.1887 108.66C91.5598 108.648 92.5852 108.634 93.2649 108.616V103.861H95.1985V108.555C97.0266 108.473 98.6262 108.35 99.9973 108.186L100.103 109.645C97.718 110.031 94.7385 110.225 91.1643 110.225H90.3821L90.1887 108.66ZM100.823 97.6738H102.792V104.143H105.095V105.795H102.792V113.564H100.823V97.6738Z" fill="#2A2D34"/>
<rect x="261.7" y="0.7" width="178.6" height="178.6" rx="89.3" fill="#4D55F5" fill-opacity="0.1"/>
<rect x="261.7" y="0.7" width="178.6" height="178.6" rx="89.3" stroke="#A6AAFA" stroke-width="1.4"/>
<path d="M327.947 40.4512C327.947 41.4941 327.921 42.4814 327.868 43.4131C327.821 44.3389 327.701 45.4023 327.508 46.6035L325.574 46.4453C325.744 45.373 325.858 44.4004 325.917 43.5273C325.976 42.6543 326.008 41.7754 326.014 40.8906H319.773V39.3262H327.947V40.4512ZM318.93 48.6602C320.301 48.6484 321.326 48.6338 322.006 48.6162V43.8613H323.939V48.5547C325.768 48.4727 327.367 48.3496 328.738 48.1855L328.844 49.6445C326.459 50.0312 323.479 50.2246 319.905 50.2246H319.123L318.93 48.6602ZM329.564 37.6738H331.533V44.1426H333.836V45.7949H331.533V53.5645H329.564V37.6738ZM338.643 38.377C339.323 38.377 339.947 38.5 340.515 38.7461C341.083 38.9863 341.558 39.3291 341.939 39.7744C342.326 40.2139 342.583 40.7207 342.712 41.2949H345.586V37.6738H347.538V46.1992H345.586V42.877H342.73C342.607 43.4688 342.352 43.9902 341.965 44.4414C341.584 44.8926 341.107 45.2441 340.533 45.4961C339.958 45.7422 339.329 45.8652 338.643 45.8652C337.84 45.8652 337.12 45.7041 336.481 45.3818C335.842 45.0596 335.341 44.6143 334.978 44.0459C334.621 43.4717 334.442 42.8242 334.442 42.1035C334.442 41.3887 334.621 40.7471 334.978 40.1787C335.341 39.6104 335.842 39.168 336.481 38.8516C337.12 38.5352 337.84 38.377 338.643 38.377ZM336.305 42.1035C336.305 42.5195 336.405 42.8887 336.604 43.2109C336.803 43.5332 337.079 43.7822 337.43 43.958C337.788 44.1279 338.192 44.2129 338.643 44.2129C339.083 44.2129 339.475 44.1279 339.821 43.958C340.172 43.7822 340.448 43.5332 340.647 43.2109C340.846 42.8887 340.946 42.5195 340.946 42.1035C340.946 41.6875 340.846 41.3213 340.647 41.0049C340.448 40.6826 340.175 40.4365 339.83 40.2666C339.484 40.0967 339.088 40.0117 338.643 40.0117C338.186 40.0117 337.782 40.0967 337.43 40.2666C337.079 40.4365 336.803 40.6826 336.604 41.0049C336.405 41.3213 336.305 41.6875 336.305 42.1035ZM337.061 46.9375H338.995V48.625H345.586V46.9375H347.538V53.3711H337.061V46.9375ZM345.586 51.7891V50.1367H338.995V51.7891H345.586ZM355.605 42.8066H358.189V39.1328H360V49.7148H353.759V39.1328H355.605V42.8066ZM358.189 48.1328V44.3535H355.605V48.1328H358.189ZM361.564 37.9551H363.41V43.8086H365.097V37.6738H366.978V53.5645H365.097V45.4258H363.41V52.791H361.564V37.9551ZM381.734 46.9727H379.783V45.2148H376.004V43.6328H379.783V41.9277H376.153C375.655 43.1816 374.835 44.251 373.692 45.1357C372.55 46.0146 371.111 46.6973 369.377 47.1836L368.586 45.6367C370.414 45.1445 371.832 44.4473 372.84 43.5449C373.854 42.6367 374.437 41.582 374.589 40.3809H369.43V38.7988H376.725C376.725 39.3496 376.681 39.877 376.593 40.3809H379.783V37.6914H381.734V46.9727ZM371.082 50.3125C371.082 49.668 371.305 49.1084 371.75 48.6338C372.195 48.1592 372.822 47.793 373.631 47.5352C374.445 47.2773 375.395 47.1484 376.479 47.1484C377.545 47.1484 378.482 47.2773 379.291 47.5352C380.1 47.793 380.727 48.1592 381.172 48.6338C381.617 49.1084 381.84 49.668 381.84 50.3125C381.84 50.957 381.617 51.5195 381.172 52C380.727 52.4746 380.1 52.8379 379.291 53.0898C378.482 53.3477 377.545 53.4766 376.479 53.4766C375.4 53.4766 374.454 53.3477 373.64 53.0898C372.825 52.8379 372.195 52.4746 371.75 52C371.305 51.5195 371.082 50.957 371.082 50.3125ZM373.033 50.3125C373.033 50.8281 373.338 51.2266 373.947 51.5078C374.557 51.7891 375.4 51.9297 376.479 51.9297C377.539 51.9297 378.371 51.7891 378.975 51.5078C379.578 51.2266 379.883 50.8281 379.889 50.3125C379.883 49.7852 379.578 49.3809 378.975 49.0996C378.377 48.8184 377.545 48.6777 376.479 48.6777C375.4 48.6777 374.557 48.8184 373.947 49.0996C373.338 49.3809 373.033 49.7852 373.033 50.3125ZM333.572 77.1836H327.438V80.1016H325.504V77.1836H319.053V75.6191H333.572V77.1836ZM320.811 78.6426H322.762V81.666H331.973V83.248H320.811V78.6426ZM320.898 68.3945H331.709V74.1426H320.898V68.3945ZM329.775 72.6133V69.9238H322.797V72.6133H329.775ZM347.907 83.5645H346.043V67.6738H347.907V83.5645ZM333.95 79.0469C334.688 78.5957 335.303 78.001 335.795 77.2627C336.293 76.5186 336.66 75.6982 336.894 74.8018C337.134 73.8994 337.254 72.9707 337.254 72.0156V70.9609H334.495V69.3789H341.702V70.9609H339.135V72.0156C339.135 72.9414 339.25 73.832 339.478 74.6875C339.707 75.543 340.061 76.3193 340.542 77.0166C341.028 77.7139 341.637 78.2734 342.37 78.6953L341.209 80.1367C340.495 79.7148 339.888 79.1465 339.39 78.4316C338.892 77.7109 338.5 76.8818 338.212 75.9443C337.919 76.9639 337.515 77.8662 337 78.6514C336.49 79.4365 335.872 80.0547 335.145 80.5059L333.95 79.0469ZM340.542 73.2109H342.827V67.9727H344.672V82.791H342.827V74.793H340.542V73.2109ZM366.574 77.1133H364.623V73.2285H361.916V71.6289H364.623V67.6738H366.574V77.1133ZM353.214 75.5312C354.041 75.25 354.747 74.8428 355.333 74.3096C355.924 73.7764 356.37 73.1729 356.668 72.499C356.967 71.8252 357.117 71.1309 357.117 70.416V70.293H353.812V68.7109H362.39V70.293H359.103V70.3984C359.103 71.0547 359.247 71.6934 359.534 72.3145C359.821 72.9297 360.246 73.4834 360.808 73.9756C361.371 74.4619 362.05 74.8398 362.847 75.1094L361.863 76.6562C361.001 76.3633 360.257 75.9326 359.63 75.3643C359.003 74.79 358.508 74.1191 358.145 73.3516C357.788 74.2188 357.278 74.9746 356.616 75.6191C355.954 76.2637 355.16 76.75 354.234 77.0781L353.214 75.5312ZM355.798 80.541C355.792 79.9141 356.006 79.375 356.44 78.9238C356.874 78.4668 357.495 78.1182 358.303 77.8779C359.118 77.6377 360.082 77.5176 361.195 77.5176C362.314 77.5176 363.281 77.6377 364.095 77.8779C364.91 78.1182 365.534 78.4639 365.967 78.915C366.407 79.3662 366.626 79.9082 366.626 80.541C366.626 81.1738 366.407 81.7158 365.967 82.167C365.534 82.6182 364.91 82.9639 364.095 83.2041C363.281 83.4443 362.314 83.5645 361.195 83.5645C360.082 83.5645 359.118 83.4443 358.303 83.2041C357.495 82.9639 356.874 82.6152 356.44 82.1582C356.006 81.707 355.792 81.168 355.798 80.541ZM357.732 80.541C357.726 81.0273 358.019 81.4023 358.611 81.666C359.208 81.9238 360.052 82.0527 361.142 82.0527C362.279 82.0527 363.152 81.9238 363.761 81.666C364.371 81.4082 364.675 81.0332 364.675 80.541C364.675 80.0488 364.374 79.6709 363.77 79.4072C363.172 79.1436 362.314 79.0117 361.195 79.0117C360.087 79.0117 359.232 79.1436 358.628 79.4072C358.025 79.6709 357.726 80.0488 357.732 80.541ZM373.578 68.7812C374.41 68.7812 375.157 68.9453 375.819 69.2734C376.481 69.5957 377 70.0498 377.375 70.6357C377.756 71.2158 377.949 71.875 377.955 72.6133C377.949 73.3574 377.756 74.0225 377.375 74.6084C377 75.1885 376.481 75.6426 375.819 75.9707C375.157 76.2988 374.41 76.4629 373.578 76.4629C372.752 76.4629 372.005 76.2988 371.337 75.9707C370.675 75.6426 370.156 75.1855 369.781 74.5996C369.406 74.0137 369.219 73.3516 369.219 72.6133C369.219 71.875 369.406 71.2158 369.781 70.6357C370.162 70.0498 370.684 69.5957 371.346 69.2734C372.008 68.9453 372.752 68.7812 373.578 68.7812ZM368.498 78.6602C370.443 78.6602 372.26 78.6279 373.947 78.5635C375.635 78.4932 377.24 78.3496 378.764 78.1328L378.922 79.5566C377.352 79.8555 375.749 80.0488 374.114 80.1367C372.485 80.2188 370.695 80.2598 368.744 80.2598L368.498 78.6602ZM371.152 72.6133C371.152 73.0469 371.255 73.4277 371.46 73.7559C371.671 74.0781 371.961 74.3271 372.33 74.5029C372.699 74.6729 373.115 74.7578 373.578 74.7578C374.047 74.7578 374.466 74.6729 374.835 74.5029C375.21 74.3271 375.503 74.0781 375.714 73.7559C375.931 73.4277 376.039 73.0469 376.039 72.6133C376.039 72.1797 375.931 71.8018 375.714 71.4795C375.503 71.1572 375.21 70.9082 374.835 70.7324C374.466 70.5566 374.047 70.4688 373.578 70.4688C373.115 70.4688 372.699 70.5566 372.33 70.7324C371.961 70.9082 371.671 71.1602 371.46 71.4883C371.255 71.8105 371.152 72.1855 371.152 72.6133ZM379.713 67.6738H381.664V83.582H379.713V67.6738ZM319.681 104.318H325.974V105.883H311.49V104.318H317.748V102.473H319.681V104.318ZM312.228 101.893C313.336 101.781 314.303 101.553 315.129 101.207C315.961 100.861 316.599 100.431 317.045 99.915C317.49 99.3994 317.713 98.8398 317.713 98.2363V97.8145H319.699V98.2363C319.699 98.8398 319.922 99.3994 320.367 99.915C320.812 100.431 321.448 100.861 322.274 101.207C323.1 101.553 324.07 101.781 325.183 101.893L324.498 103.387C323.15 103.217 321.972 102.886 320.965 102.394C319.963 101.901 319.207 101.271 318.697 100.504C318.193 101.271 317.44 101.901 316.438 102.394C315.436 102.886 314.261 103.217 312.914 103.387L312.228 101.893ZM313.195 106.85H324.164V110.787H315.129V111.93H324.603V113.424H313.213V109.398H322.248V108.344H313.195V106.85ZM339.465 102.736H330.342V104.318H339.817V105.883H328.373V101.26H337.461V99.8008H328.338V98.2188H339.465V102.736ZM326.633 107.236H341.153V108.801H334.842V113.582H332.891V108.801H326.633V107.236ZM347.594 100.486C347.589 101.248 347.726 101.98 348.008 102.684C348.289 103.381 348.708 104.005 349.264 104.556C349.821 105.106 350.495 105.531 351.286 105.83L350.196 107.342C349.364 107.014 348.646 106.536 348.043 105.909C347.439 105.282 346.968 104.547 346.628 103.703C346.276 104.605 345.778 105.391 345.134 106.059C344.495 106.721 343.727 107.225 342.831 107.57L341.776 106.023C342.596 105.725 343.294 105.294 343.868 104.731C344.448 104.169 344.885 103.524 345.177 102.798C345.47 102.065 345.62 101.295 345.626 100.486V98.5879H347.594V100.486ZM344.641 108.326H346.628V111.666H355.469V113.248H344.641V108.326ZM350.266 103H353.167V101.436H350.266V99.8535H353.167V97.6914H355.118V109.486H353.167V104.564H350.266V103ZM373.75 106.445H369.039V110.084H375.367V111.684H360.847V110.084H367.105V106.445H362.605V98.8516H373.627V100.416H364.556V104.898H373.75V106.445ZM390.457 105.988H384.199V107.148H388.682V110.875H379.647V111.965H389.121V113.424H377.731V109.539H386.766V108.555H377.713V107.148H382.266V105.988H376.043V104.547H390.457V105.988ZM376.676 102.561C377.701 102.508 378.592 102.388 379.348 102.2C380.11 102.007 380.719 101.761 381.176 101.462C381.633 101.157 381.929 100.814 382.064 100.434H377.432V98.9746H382.266V97.6387H384.199V98.9746H389.069V100.434H384.402C384.531 100.814 384.821 101.157 385.272 101.462C385.729 101.761 386.338 102.007 387.1 102.2C387.867 102.388 388.77 102.508 389.807 102.561L389.227 104.02C387.791 103.932 386.558 103.697 385.527 103.316C384.495 102.936 383.731 102.426 383.233 101.787C382.735 102.426 381.97 102.936 380.939 103.316C379.907 103.697 378.668 103.932 377.221 104.02L376.676 102.561ZM341.987 129.959C341.981 130.691 342.119 131.386 342.4 132.042C342.687 132.692 343.112 133.267 343.675 133.765C344.237 134.257 344.923 134.629 345.731 134.881L344.677 136.41C343.827 136.105 343.097 135.675 342.488 135.118C341.879 134.562 341.401 133.899 341.055 133.132C340.698 134.017 340.185 134.784 339.517 135.435C338.849 136.079 338.044 136.568 337.1 136.902L336.063 135.32C336.919 135.039 337.642 134.632 338.234 134.099C338.826 133.565 339.268 132.953 339.561 132.262C339.86 131.564 340.012 130.826 340.018 130.047V128.535H341.987V129.959ZM338.7 140.506C338.694 139.867 338.908 139.319 339.342 138.862C339.775 138.399 340.396 138.048 341.205 137.808C342.019 137.567 342.983 137.447 344.096 137.447C345.216 137.447 346.182 137.567 346.997 137.808C347.811 138.048 348.435 138.399 348.869 138.862C349.308 139.319 349.528 139.867 349.528 140.506C349.528 141.145 349.308 141.692 348.869 142.149C348.435 142.606 347.811 142.952 346.997 143.187C346.182 143.427 345.216 143.547 344.096 143.547C342.983 143.547 342.019 143.427 341.205 143.187C340.396 142.952 339.775 142.606 339.342 142.149C338.908 141.692 338.694 141.145 338.7 140.506ZM340.634 140.506C340.628 140.986 340.927 141.358 341.53 141.622C342.134 141.88 342.989 142.012 344.096 142.018C345.21 142.012 346.068 141.88 346.672 141.622C347.275 141.358 347.577 140.986 347.577 140.506C347.577 140.008 347.275 139.627 346.672 139.363C346.074 139.1 345.216 138.965 344.096 138.959C342.983 138.965 342.125 139.1 341.521 139.363C340.924 139.627 340.628 140.008 340.634 140.506ZM344.36 130.75H347.524V127.674H349.475V137.025H347.524V132.35H344.36V130.75ZM360.206 130.451C360.206 131.494 360.18 132.481 360.127 133.413C360.08 134.339 359.96 135.402 359.767 136.604L357.833 136.445C358.003 135.373 358.117 134.4 358.176 133.527C358.235 132.654 358.267 131.775 358.273 130.891H352.032V129.326H360.206V130.451ZM351.189 138.66C352.56 138.648 353.585 138.634 354.265 138.616V133.861H356.198V138.555C358.027 138.473 359.626 138.35 360.997 138.186L361.103 139.645C358.718 140.031 355.739 140.225 352.164 140.225H351.382L351.189 138.66ZM361.823 127.674H363.792V134.143H366.095V135.795H363.792V143.564H361.823V127.674Z" fill="#4D55F5"/>
<path d="M214.616 76.208C214.616 75.3244 215.678 74.8749 216.312 75.4902L236.847 95.4209C237.251 95.8136 237.251 96.4627 236.847 96.8555L216.312 116.786C215.678 117.402 214.616 116.952 214.616 116.068V110H199V82H214.616V76.208Z" fill="url(#paint0_linear_50_9868)"/>
</g>
<defs>
<linearGradient id="paint0_linear_50_9868" x1="237.741" y1="95.9477" x2="199" y2="95.9477" gradientUnits="userSpaceOnUse">
<stop stop-color="#B4B7FF"/>
<stop offset="1" stop-color="white"/>
</linearGradient>
<clipPath id="clip0_50_9868">
<rect width="441" height="180" fill="white"/>
</clipPath>
</defs>
</svg>
