<svg width="441" height="180" viewBox="0 0 441 180" fill="none" xmlns="http://www.w3.org/2000/svg">
<g clip-path="url(#clip0_50_9883)">
<rect x="0.5" y="0.5" width="179" height="179" rx="89.5" fill="white"/>
<rect x="0.5" y="0.5" width="179" height="179" rx="89.5" stroke="#D8D8D8"/>
<path d="M74.6904 78.8184H68.3975V83.582H66.4639V78.8184H60.2061V77.2188H74.6904V78.8184ZM60.9971 74.7051C62.0225 74.582 62.9365 74.3389 63.7393 73.9756C64.542 73.6064 65.1777 73.1699 65.6465 72.666C66.1152 72.1562 66.3818 71.6348 66.4463 71.1016H61.542V69.5547H66.4639V67.6914H68.3975V69.5547H73.3369V71.1016H68.4326C68.4971 71.6348 68.7607 72.1533 69.2236 72.6572C69.6924 73.1611 70.3281 73.5977 71.1309 73.9668C71.9336 74.3359 72.8447 74.582 73.8643 74.7051L73.1436 76.252C71.8486 76.0879 70.7061 75.7393 69.7158 75.2061C68.7256 74.6729 67.9697 74.0166 67.4482 73.2373C66.9209 74.0225 66.1563 74.6816 65.1543 75.2148C64.1582 75.7422 63.0068 76.0879 61.7002 76.252L60.9971 74.7051ZM80.9917 70.2051C80.9917 70.8789 81.1353 71.5234 81.4224 72.1387C81.7095 72.7539 82.1343 73.2988 82.6968 73.7734C83.2593 74.248 83.939 74.6113 84.7358 74.8633L83.6812 76.3926C82.8374 76.1055 82.1079 75.6865 81.4927 75.1357C80.8833 74.585 80.3999 73.9316 80.0425 73.1758C79.6909 74.0371 79.1929 74.7842 78.5483 75.417C77.9097 76.0439 77.1421 76.5156 76.2456 76.832L75.1909 75.3027C76.023 75.0156 76.7261 74.6055 77.3003 74.0723C77.8745 73.5332 78.3052 72.918 78.5923 72.2266C78.8853 71.5293 79.0347 70.7969 79.0405 70.0293V68.5176H80.9917V70.2051ZM77.353 80.5234C77.353 79.9023 77.5698 79.3662 78.0034 78.915C78.437 78.4639 79.0581 78.1211 79.8667 77.8867C80.6753 77.6523 81.6304 77.5352 82.7319 77.5352C83.8218 77.5352 84.7651 77.6523 85.562 77.8867C86.3647 78.1211 86.98 78.4639 87.4077 78.915C87.8413 79.3662 88.0581 79.9023 88.0581 80.5234C88.0581 81.1562 87.8413 81.6982 87.4077 82.1494C86.98 82.6064 86.3677 82.9521 85.5708 83.1865C84.7739 83.4268 83.8276 83.5469 82.7319 83.5469C81.6304 83.5469 80.6753 83.4268 79.8667 83.1865C79.0581 82.9521 78.437 82.6064 78.0034 82.1494C77.5698 81.6982 77.353 81.1562 77.353 80.5234ZM79.3042 80.5234C79.3042 81.0098 79.6001 81.3789 80.1919 81.6309C80.7837 81.877 81.6304 82 82.7319 82C83.8276 82 84.6655 81.877 85.2456 81.6309C85.8315 81.3789 86.1245 81.0098 86.1245 80.5234C86.1245 80.0547 85.8286 79.6943 85.2368 79.4424C84.6509 79.1904 83.8159 79.0645 82.7319 79.0645C81.6421 79.0645 80.7983 79.1934 80.2007 79.4512C79.603 79.7031 79.3042 80.0605 79.3042 80.5234ZM85.9487 67.6738H87.8999V71.541H90.1147V73.1582H87.8999V77.1836H85.9487V67.6738ZM96.3633 70.3984C96.3633 71.0547 96.5068 71.6934 96.7939 72.3145C97.0811 72.9297 97.5059 73.4834 98.0684 73.9756C98.6309 74.4619 99.3105 74.8398 100.107 75.1094L99.123 76.6211C98.2559 76.3398 97.5059 75.915 96.873 75.3467C96.2461 74.7783 95.7539 74.1104 95.3965 73.3428C95.0391 74.1982 94.5293 74.9395 93.8672 75.5664C93.2051 76.1934 92.4141 76.6621 91.4941 76.9727L90.4922 75.4258C91.3125 75.1562 92.0127 74.7607 92.5928 74.2393C93.1787 73.7178 93.6211 73.126 93.9199 72.4639C94.2246 71.7959 94.377 71.1133 94.377 70.416V70.2051H91.0723V68.6406H99.6504V70.2051H96.3633V70.3984ZM93.0059 77.9043H103.834V83.5645H101.883V79.4688H93.0059V77.9043ZM99.1758 71.6113H101.883V67.6738H103.834V77.1484H101.883V73.2109H99.1758V71.6113ZM118.924 79.1699H116.956V67.6914H118.924V79.1699ZM105.969 72.7012C105.969 71.9453 106.157 71.2656 106.532 70.6621C106.913 70.0586 107.428 69.5869 108.079 69.2471C108.735 68.9014 109.461 68.7285 110.258 68.7285C111.055 68.7285 111.779 68.9014 112.429 69.2471C113.085 69.5869 113.598 70.0586 113.967 70.6621C114.342 71.2656 114.53 71.9453 114.53 72.7012C114.53 73.4688 114.342 74.1572 113.967 74.7666C113.598 75.3701 113.085 75.8418 112.429 76.1816C111.779 76.5215 111.055 76.6914 110.258 76.6914C109.461 76.6914 108.735 76.5215 108.079 76.1816C107.428 75.8418 106.913 75.3701 106.532 74.7666C106.157 74.1572 105.969 73.4688 105.969 72.7012ZM107.885 72.7012C107.885 73.1582 107.985 73.5596 108.184 73.9053C108.389 74.251 108.67 74.5176 109.028 74.7051C109.391 74.8926 109.801 74.9863 110.258 74.9863C110.704 74.9863 111.105 74.8926 111.462 74.7051C111.82 74.5176 112.101 74.251 112.306 73.9053C112.511 73.5596 112.614 73.1582 112.614 72.7012C112.614 72.2559 112.511 71.8604 112.306 71.5146C112.101 71.1689 111.817 70.9023 111.454 70.7148C111.096 70.5273 110.698 70.4336 110.258 70.4336C109.807 70.4336 109.4 70.5273 109.037 70.7148C108.673 70.9023 108.389 71.1689 108.184 71.5146C107.985 71.8604 107.885 72.2559 107.885 72.7012ZM108.413 78.0098H110.381V81.666H119.364V83.248H108.413V78.0098ZM81.0398 101.488C81.0339 102.484 81.1863 103.445 81.4968 104.371C81.8074 105.297 82.2585 106.12 82.8503 106.841C83.448 107.556 84.157 108.092 84.9773 108.449L83.7996 110.014C82.9207 109.586 82.1648 108.971 81.532 108.168C80.8992 107.365 80.4099 106.431 80.0642 105.364C79.7068 106.495 79.2029 107.491 78.5525 108.353C77.9021 109.208 77.1316 109.861 76.241 110.312L75.0105 108.73C75.8484 108.338 76.572 107.764 77.1814 107.008C77.7908 106.252 78.2537 105.394 78.5701 104.433C78.8865 103.472 79.0476 102.49 79.0535 101.488V98.957H81.0398V101.488ZM83.2195 102.807H86.5593V97.6738H88.4929V113.582H86.5593V104.389H83.2195V102.807ZM104.831 108.59H101.333V113.564H99.3645V108.59H95.7961V113.564H93.845V108.59H90.3118V107.061H104.831V108.59ZM92.0168 98.2012H103.144V102.648H94.0208V104.16H103.495V105.742H92.052V101.189H101.14V99.8008H92.0168V98.2012Z" fill="#2A2D34"/>
<rect x="261.7" y="0.7" width="178.6" height="178.6" rx="89.3" fill="#4D55F5" fill-opacity="0.1"/>
<rect x="261.7" y="0.7" width="178.6" height="178.6" rx="89.3" stroke="#A6AAFA" stroke-width="1.4"/>
<path d="M326.137 55.0645C326.131 56.1074 326.104 57.0156 326.058 57.7891C326.011 58.5566 325.896 59.4355 325.715 60.4258H327.912V62.0078H321.602V68.582H319.633V62.0078H313.428V60.4258H323.729C323.922 59.4648 324.045 58.5918 324.098 57.8066C324.156 57.0215 324.186 56.1602 324.186 55.2227H315.133V53.6406H326.137V55.0645ZM333.44 57.5254C333.44 58.3691 333.557 59.1865 333.792 59.9775C334.026 60.7627 334.386 61.4775 334.873 62.1221C335.359 62.7607 335.959 63.2734 336.674 63.6602L335.584 65.1016C334.87 64.7207 334.254 64.2021 333.739 63.5459C333.229 62.8838 332.828 62.1191 332.535 61.252C332.242 62.1895 331.84 63.0215 331.331 63.748C330.821 64.4746 330.206 65.0488 329.485 65.4707L328.342 63.9941C329.063 63.5781 329.667 63.0273 330.153 62.3418C330.639 61.6562 331 60.9004 331.234 60.0742C331.468 59.2422 331.588 58.3926 331.594 57.5254V57.0332H328.887V55.4512H331.594V53.2363H333.44V55.4512H336.094V57.0332H333.44V57.5254ZM335.11 58.7734H337.184V52.9727H339.03V67.791H337.184V60.3906H335.11V58.7734ZM340.401 52.6738H342.264V68.5645H340.401V52.6738ZM349.585 55.3984C349.585 56.0547 349.729 56.6934 350.016 57.3145C350.303 57.9297 350.728 58.4834 351.29 58.9756C351.853 59.4619 352.532 59.8398 353.329 60.1094L352.345 61.6211C351.478 61.3398 350.728 60.915 350.095 60.3467C349.468 59.7783 348.976 59.1104 348.618 58.3428C348.261 59.1982 347.751 59.9395 347.089 60.5664C346.427 61.1934 345.636 61.6621 344.716 61.9727L343.714 60.4258C344.534 60.1562 345.234 59.7607 345.814 59.2393C346.4 58.7178 346.843 58.126 347.142 57.4639C347.446 56.7959 347.599 56.1133 347.599 55.416V55.2051H344.294V53.6406H352.872V55.2051H349.585V55.3984ZM346.228 62.9043H357.056V68.5645H355.104V64.4688H346.228V62.9043ZM352.397 56.6113H355.104V52.6738H357.056V62.1484H355.104V58.2109H352.397V56.6113ZM366.134 53.5703C367.248 53.5703 368.255 53.7578 369.158 54.1328C370.06 54.5078 370.769 55.0352 371.285 55.7148C371.8 56.3945 372.058 57.1738 372.058 58.0527C372.058 58.9434 371.8 59.7314 371.285 60.417C370.769 61.1025 370.06 61.6328 369.158 62.0078C368.255 62.3828 367.248 62.5703 366.134 62.5703C365.027 62.5703 364.025 62.3828 363.128 62.0078C362.232 61.6328 361.526 61.1025 361.01 60.417C360.5 59.7314 360.246 58.9434 360.246 58.0527C360.246 57.1738 360.5 56.3945 361.01 55.7148C361.526 55.0352 362.232 54.5078 363.128 54.1328C364.025 53.7578 365.027 53.5703 366.134 53.5703ZM358.91 64.9609H373.429V66.5605H358.91V64.9609ZM362.126 58.0527C362.126 58.6387 362.296 59.1514 362.636 59.5908C362.982 60.0303 363.457 60.3701 364.06 60.6104C364.669 60.8447 365.361 60.9648 366.134 60.9707C366.908 60.9648 367.596 60.8447 368.2 60.6104C368.809 60.376 369.284 60.0391 369.624 59.5996C369.969 59.1543 370.142 58.6387 370.142 58.0527C370.142 57.4785 369.969 56.9717 369.624 56.5322C369.284 56.0869 368.809 55.7441 368.2 55.5039C367.59 55.2637 366.902 55.1465 366.134 55.1523C365.367 55.1465 364.678 55.2637 364.069 55.5039C363.459 55.7441 362.982 56.0869 362.636 56.5322C362.296 56.9717 362.126 57.4785 362.126 58.0527ZM388.59 66.7188H374.07V65.1016H380.328V62.5176H375.793V57.3145H384.934V55.3457H375.758V53.7637H386.867V58.8613H377.744V60.918H387.236V62.5176H382.262V65.1016H388.59V66.7188ZM309.834 91.9727H307.883V90.2148H304.104V88.6328H307.883V86.9277H304.253C303.755 88.1816 302.935 89.251 301.792 90.1357C300.649 91.0146 299.211 91.6973 297.477 92.1836L296.686 90.6367C298.514 90.1445 299.932 89.4473 300.939 88.5449C301.953 87.6367 302.536 86.582 302.688 85.3809H297.529V83.7988H304.824C304.824 84.3496 304.78 84.877 304.692 85.3809H307.883V82.6914H309.834V91.9727ZM299.182 95.3125C299.182 94.668 299.404 94.1084 299.85 93.6338C300.295 93.1592 300.922 92.793 301.73 92.5352C302.545 92.2773 303.494 92.1484 304.578 92.1484C305.645 92.1484 306.582 92.2773 307.391 92.5352C308.199 92.793 308.826 93.1592 309.271 93.6338C309.717 94.1084 309.939 94.668 309.939 95.3125C309.939 95.957 309.717 96.5195 309.271 97C308.826 97.4746 308.199 97.8379 307.391 98.0898C306.582 98.3477 305.645 98.4766 304.578 98.4766C303.5 98.4766 302.554 98.3477 301.739 98.0898C300.925 97.8379 300.295 97.4746 299.85 97C299.404 96.5195 299.182 95.957 299.182 95.3125ZM301.133 95.3125C301.133 95.8281 301.438 96.2266 302.047 96.5078C302.656 96.7891 303.5 96.9297 304.578 96.9297C305.639 96.9297 306.471 96.7891 307.074 96.5078C307.678 96.2266 307.982 95.8281 307.988 95.3125C307.982 94.7852 307.678 94.3809 307.074 94.0996C306.477 93.8184 305.645 93.6777 304.578 93.6777C303.5 93.6777 302.656 93.8184 302.047 94.0996C301.438 94.3809 301.133 94.7852 301.133 95.3125ZM324.995 92.2891H323.043V89.002H320.776V87.3848H323.043V82.6738H324.995V92.2891ZM311.723 84.1504H315.415V82.5508H317.348V84.1504H321.04V85.7324H311.723V84.1504ZM312.62 89.1953C312.62 88.6445 312.778 88.1553 313.094 87.7275C313.417 87.2939 313.862 86.957 314.43 86.7168C315.004 86.4707 315.655 86.3477 316.381 86.3477C317.108 86.3477 317.758 86.4707 318.333 86.7168C318.907 86.957 319.355 87.2939 319.677 87.7275C320 88.1553 320.161 88.6445 320.161 89.1953C320.161 89.7578 320 90.2559 319.677 90.6895C319.355 91.1172 318.907 91.4512 318.333 91.6914C317.764 91.9258 317.114 92.043 316.381 92.043C315.655 92.043 315.004 91.9258 314.43 91.6914C313.862 91.4512 313.417 91.1172 313.094 90.6895C312.778 90.2559 312.62 89.7578 312.62 89.1953ZM314.43 93.0098H324.995V98.3711H314.43V93.0098ZM314.483 89.1953C314.483 89.6289 314.653 89.9688 314.993 90.2148C315.338 90.4609 315.801 90.584 316.381 90.584C316.956 90.584 317.416 90.4609 317.761 90.2148C318.107 89.9688 318.28 89.6289 318.28 89.1953C318.28 88.7734 318.107 88.4395 317.761 88.1934C317.416 87.9473 316.956 87.8242 316.381 87.8242C315.807 87.8242 315.347 87.9473 315.001 88.1934C314.656 88.4395 314.483 88.7734 314.483 89.1953ZM323.079 96.7891V94.5566H316.381V96.7891H323.079ZM340.067 98.582H338.099V82.6738H340.067V98.582ZM327.358 89.4414C327.358 88.3223 327.534 87.3379 327.886 86.4883C328.237 85.6387 328.727 84.9854 329.354 84.5283C329.986 84.0654 330.704 83.834 331.507 83.834C332.298 83.834 333.007 84.0654 333.634 84.5283C334.267 84.9854 334.762 85.6387 335.119 86.4883C335.477 87.3379 335.655 88.3223 335.655 89.4414C335.655 90.5723 335.477 91.5625 335.119 92.4121C334.762 93.2617 334.267 93.918 333.634 94.3809C333.007 94.8379 332.298 95.0664 331.507 95.0664C330.704 95.0664 329.986 94.8379 329.354 94.3809C328.727 93.918 328.237 93.2617 327.886 92.4121C327.534 91.5625 327.358 90.5723 327.358 89.4414ZM329.239 89.4414C329.239 90.2441 329.333 90.9355 329.521 91.5156C329.714 92.0957 329.98 92.5381 330.32 92.8428C330.66 93.1475 331.056 93.3027 331.507 93.3086C331.952 93.3027 332.345 93.1475 332.685 92.8428C333.024 92.5381 333.288 92.0957 333.476 91.5156C333.663 90.9355 333.757 90.2441 333.757 89.4414C333.757 88.6445 333.663 87.959 333.476 87.3848C333.288 86.8047 333.024 86.3623 332.685 86.0576C332.345 85.7471 331.952 85.5918 331.507 85.5918C331.056 85.5918 330.66 85.7471 330.32 86.0576C329.98 86.3623 329.714 86.8047 329.521 87.3848C329.333 87.959 329.239 88.6445 329.239 89.4414ZM358.594 85.0645C358.588 86.1074 358.562 87.0156 358.515 87.7891C358.468 88.5566 358.354 89.4355 358.172 90.4258H360.369V92.0078H354.059V98.582H352.09V92.0078H345.885V90.4258H356.186C356.379 89.4648 356.502 88.5918 356.555 87.8066C356.613 87.0215 356.643 86.1602 356.643 85.2227H347.59V83.6406H358.594V85.0645ZM375.565 96.6484H361.045V95.0488H367.321V91.3926H369.272V95.0488H375.565V96.6484ZM361.678 90.5137C362.715 90.3438 363.656 90.0127 364.5 89.5205C365.343 89.0225 366.008 88.4277 366.495 87.7363C366.981 87.0391 367.233 86.3125 367.25 85.5566H362.258V83.957H374.317V85.5566H369.307C369.325 86.3125 369.58 87.0332 370.072 87.7188C370.564 88.4043 371.238 88.9873 372.093 89.4678C372.955 89.9424 373.918 90.2617 374.985 90.4258L374.211 91.9727C372.864 91.7324 371.668 91.2725 370.625 90.5928C369.583 89.9072 368.806 89.0693 368.296 88.0791C367.787 89.0811 367.016 89.9336 365.985 90.6367C364.954 91.334 363.776 91.8086 362.452 92.0605L361.678 90.5137ZM388.774 89.2305H391.007V90.8652H388.774V98.5645H386.806V82.6738H388.774V89.2305ZM376.013 94.1523C377.747 94.1523 379.101 94.1406 380.073 94.1172V92.6318C379.499 92.5322 378.995 92.3506 378.562 92.0869C378.134 91.8232 377.803 91.4922 377.568 91.0938C377.34 90.6953 377.226 90.25 377.226 89.7578C377.226 89.166 377.387 88.6445 377.709 88.1934C378.031 87.7422 378.482 87.3936 379.062 87.1475C379.648 86.8955 380.319 86.7695 381.075 86.7695C381.825 86.7695 382.49 86.8955 383.07 87.1475C383.656 87.3936 384.113 87.7422 384.441 88.1934C384.77 88.6445 384.937 89.166 384.942 89.7578C384.937 90.25 384.813 90.6982 384.573 91.1025C384.333 91.501 383.993 91.832 383.554 92.0957C383.12 92.3594 382.616 92.5381 382.042 92.6318V94.0469C383.56 93.9648 384.866 93.8477 385.962 93.6953L386.085 95.1191C384.579 95.3945 383.041 95.5732 381.471 95.6553C379.9 95.7314 378.175 95.7695 376.294 95.7695L376.013 94.1523ZM376.312 84.502H380.073V82.7441H382.042V84.502H385.786V86.0488H376.312V84.502ZM379.071 89.7578C379.065 90.2031 379.241 90.5547 379.599 90.8125C379.962 91.0703 380.445 91.1992 381.049 91.1992C381.664 91.1992 382.153 91.0732 382.517 90.8213C382.88 90.5693 383.062 90.2148 383.062 89.7578C383.062 89.3008 382.88 88.9404 382.517 88.6768C382.153 88.4072 381.673 88.2695 381.075 88.2637C380.466 88.2695 379.977 88.4072 379.607 88.6768C379.244 88.9404 379.065 89.3008 379.071 89.7578ZM400.613 89.2305H397.66V91.0322C399.066 90.9736 400.361 90.8828 401.544 90.7598L401.685 92.166C400.156 92.377 398.559 92.5234 396.895 92.6055C395.237 92.6816 393.505 92.7227 391.701 92.7285L391.437 91.1641C393.306 91.1523 394.724 91.1318 395.691 91.1025V89.2305H392.808V83.6582H400.49V85.2402H394.777V87.666H400.613V89.2305ZM393.968 93.7305H395.937V96.666H405.078V98.248H393.968V93.7305ZM402.652 82.6738H404.621V94.6094H402.652V82.6738ZM342.04 116.488C342.034 117.484 342.186 118.445 342.497 119.371C342.807 120.297 343.259 121.12 343.85 121.841C344.448 122.556 345.157 123.092 345.977 123.449L344.8 125.014C343.921 124.586 343.165 123.971 342.532 123.168C341.899 122.365 341.41 121.431 341.064 120.364C340.707 121.495 340.203 122.491 339.552 123.353C338.902 124.208 338.132 124.861 337.241 125.312L336.01 123.73C336.848 123.338 337.572 122.764 338.181 122.008C338.791 121.252 339.254 120.394 339.57 119.433C339.886 118.472 340.048 117.49 340.053 116.488V113.957H342.04V116.488ZM344.219 117.807H347.559V112.674H349.493V128.582H347.559V119.389H344.219V117.807ZM365.831 123.59H362.333V128.564H360.364V123.59H356.796V128.564H354.845V123.59H351.312V122.061H365.831V123.59ZM353.017 113.201H364.144V117.648H355.021V119.16H364.495V120.742H353.052V116.189H362.14V114.801H353.017V113.201Z" fill="#4D55F5"/>
<path d="M214.616 76.208C214.616 75.3244 215.678 74.8749 216.312 75.4902L236.847 95.4209C237.251 95.8136 237.251 96.4627 236.847 96.8555L216.312 116.786C215.678 117.402 214.616 116.952 214.616 116.068V110H199V82H214.616V76.208Z" fill="url(#paint0_linear_50_9883)"/>
</g>
<defs>
<linearGradient id="paint0_linear_50_9883" x1="237.741" y1="95.9477" x2="199" y2="95.9477" gradientUnits="userSpaceOnUse">
<stop stop-color="#B4B7FF"/>
<stop offset="1" stop-color="white"/>
</linearGradient>
<clipPath id="clip0_50_9883">
<rect width="441" height="180" fill="white"/>
</clipPath>
</defs>
</svg>
