<svg width="459" height="180" viewBox="0 0 459 180" fill="none" xmlns="http://www.w3.org/2000/svg">
<circle cx="233" cy="90" r="89.5" fill="#4D55F5" fill-opacity="0.1" stroke="#A6AAFA"/>
<circle cx="91" cy="90" r="89.5" fill="#4D55F5" fill-opacity="0.1" stroke="#A6AAFA"/>
<circle cx="369" cy="90" r="89.5" fill="#4D55F5" fill-opacity="0.1" stroke="#A6AAFA"/>
<path d="M65.5996 85.4336C65.5996 86.0957 65.749 86.7402 66.0479 87.3672C66.3525 87.9883 66.7949 88.542 67.375 89.0283C67.9609 89.5146 68.6641 89.8867 69.4844 90.1445L68.4824 91.6562C67.5977 91.3691 66.8301 90.9443 66.1797 90.3818C65.5293 89.8135 65.0166 89.1426 64.6416 88.3691C64.2783 89.207 63.7598 89.9365 63.0859 90.5576C62.418 91.1787 61.6211 91.6445 60.6953 91.9551L59.6934 90.4434C60.5195 90.1621 61.2285 89.7637 61.8203 89.248C62.4121 88.7266 62.8604 88.1377 63.165 87.4814C63.4697 86.8193 63.625 86.1367 63.6309 85.4336V85.2402H60.2031V83.6758H68.9395V85.2402H65.5996V85.4336ZM61.9609 92.9922H72.8066V98.5645H70.8379V94.5742H61.9609V92.9922ZM70.8379 82.6738H72.8066V92.2539H70.8379V82.6738ZM89.2329 93.2559H82.9048V98.5469H80.9712V93.2559H74.7134V91.6738H89.2329V93.2559ZM76.4888 83.4824H87.4575V89.8105H76.4888V83.4824ZM85.5064 88.2812V85.0469H78.4048V88.2812H85.5064ZM107.074 92.1133H105.123V88.2285H102.416V86.6289H105.123V82.6738H107.074V92.1133ZM93.7144 90.5312C94.5405 90.25 95.2466 89.8428 95.8325 89.3096C96.4243 88.7764 96.8696 88.1729 97.1685 87.499C97.4673 86.8252 97.6167 86.1309 97.6167 85.416V85.293H94.312V83.7109H102.89V85.293H99.603V85.3984C99.603 86.0547 99.7466 86.6934 100.034 87.3145C100.321 87.9297 100.746 88.4834 101.308 88.9756C101.871 89.4619 102.55 89.8398 103.347 90.1094L102.363 91.6562C101.501 91.3633 100.757 90.9326 100.13 90.3643C99.5034 89.79 99.0083 89.1191 98.645 88.3516C98.2876 89.2188 97.7778 89.9746 97.1157 90.6191C96.4536 91.2637 95.6597 91.75 94.7339 92.0781L93.7144 90.5312ZM96.2983 95.541C96.2925 94.9141 96.5063 94.375 96.9399 93.9238C97.3735 93.4668 97.9946 93.1182 98.8032 92.8779C99.6177 92.6377 100.582 92.5176 101.695 92.5176C102.814 92.5176 103.781 92.6377 104.595 92.8779C105.41 93.1182 106.034 93.4639 106.467 93.915C106.907 94.3662 107.126 94.9082 107.126 95.541C107.126 96.1738 106.907 96.7158 106.467 97.167C106.034 97.6182 105.41 97.9639 104.595 98.2041C103.781 98.4443 102.814 98.5645 101.695 98.5645C100.582 98.5645 99.6177 98.4443 98.8032 98.2041C97.9946 97.9639 97.3735 97.6152 96.9399 97.1582C96.5063 96.707 96.2925 96.168 96.2983 95.541ZM98.2319 95.541C98.2261 96.0273 98.519 96.4023 99.1108 96.666C99.7085 96.9238 100.552 97.0527 101.642 97.0527C102.779 97.0527 103.652 96.9238 104.261 96.666C104.871 96.4082 105.175 96.0332 105.175 95.541C105.175 95.0488 104.874 94.6709 104.27 94.4072C103.672 94.1436 102.814 94.0117 101.695 94.0117C100.587 94.0117 99.7319 94.1436 99.1284 94.4072C98.5249 94.6709 98.2261 95.0488 98.2319 95.541ZM114.078 83.7812C114.91 83.7812 115.657 83.9453 116.319 84.2734C116.981 84.5957 117.5 85.0498 117.875 85.6357C118.256 86.2158 118.449 86.875 118.455 87.6133C118.449 88.3574 118.256 89.0225 117.875 89.6084C117.5 90.1885 116.981 90.6426 116.319 90.9707C115.657 91.2988 114.91 91.4629 114.078 91.4629C113.252 91.4629 112.505 91.2988 111.837 90.9707C111.175 90.6426 110.656 90.1855 110.281 89.5996C109.906 89.0137 109.719 88.3516 109.719 87.6133C109.719 86.875 109.906 86.2158 110.281 85.6357C110.662 85.0498 111.184 84.5957 111.846 84.2734C112.508 83.9453 113.252 83.7812 114.078 83.7812ZM108.998 93.6602C110.943 93.6602 112.76 93.6279 114.447 93.5635C116.135 93.4932 117.74 93.3496 119.264 93.1328L119.422 94.5566C117.852 94.8555 116.249 95.0488 114.614 95.1367C112.985 95.2188 111.195 95.2598 109.244 95.2598L108.998 93.6602ZM111.652 87.6133C111.652 88.0469 111.755 88.4277 111.96 88.7559C112.171 89.0781 112.461 89.3271 112.83 89.5029C113.199 89.6729 113.615 89.7578 114.078 89.7578C114.547 89.7578 114.966 89.6729 115.335 89.5029C115.71 89.3271 116.003 89.0781 116.214 88.7559C116.431 88.4277 116.539 88.0469 116.539 87.6133C116.539 87.1797 116.431 86.8018 116.214 86.4795C116.003 86.1572 115.71 85.9082 115.335 85.7324C114.966 85.5566 114.547 85.4688 114.078 85.4688C113.615 85.4688 113.199 85.5566 112.83 85.7324C112.461 85.9082 112.171 86.1602 111.96 86.4883C111.755 86.8105 111.652 87.1855 111.652 87.6133ZM120.213 82.6738H122.164V98.582H120.213V82.6738Z" fill="#4D55F5"/>
<path d="M214.877 98.5645H212.926V94.3633H204.049V92.8164H214.877V98.5645ZM201.781 87.4023C201.781 86.6641 201.963 86.0049 202.326 85.4248C202.689 84.8389 203.188 84.3818 203.82 84.0537C204.453 83.7197 205.162 83.5527 205.947 83.5527C206.609 83.5527 207.219 83.667 207.775 83.8955C208.332 84.124 208.801 84.4492 209.182 84.8711H212.926V82.6738H214.877V92.0605H212.926V89.9512H209.199C208.818 90.3789 208.35 90.7129 207.793 90.9531C207.236 91.1875 206.633 91.3047 205.982 91.3047C205.191 91.3047 204.477 91.1377 203.838 90.8037C203.199 90.4697 202.695 90.0068 202.326 89.415C201.963 88.8232 201.781 88.1523 201.781 87.4023ZM203.645 87.4023C203.645 87.8535 203.744 88.249 203.943 88.5889C204.143 88.9287 204.418 89.1924 204.77 89.3799C205.127 89.5615 205.531 89.6523 205.982 89.6523C206.416 89.6465 206.806 89.5527 207.151 89.3711C207.503 89.1895 207.778 88.9287 207.978 88.5889C208.183 88.249 208.285 87.8535 208.285 87.4023C208.285 86.9688 208.183 86.585 207.978 86.251C207.778 85.917 207.503 85.6592 207.151 85.4775C206.806 85.2959 206.416 85.2051 205.982 85.2051C205.531 85.2051 205.127 85.2959 204.77 85.4775C204.418 85.6592 204.143 85.917 203.943 86.251C203.744 86.585 203.645 86.9688 203.645 87.4023ZM212.926 88.3691V86.4707H210.034C210.11 86.793 210.148 87.1035 210.148 87.4023C210.148 87.7305 210.107 88.0527 210.025 88.3691H212.926ZM231.497 86.5586H229.264V88.2812H231.497V89.916H229.264V92.2891H227.313V82.6914H229.264V84.9414H231.497V86.5586ZM217.329 83.6582H224.588V88.2285H219.297V89.8984C220.715 89.8867 221.928 89.8486 222.936 89.7842C223.95 89.7139 224.975 89.5938 226.012 89.4238L226.223 90.9883C225.145 91.1875 224.064 91.3223 222.98 91.3926C221.902 91.4629 220.589 91.498 219.042 91.498H218.647H217.346V86.752H222.672V85.2051H217.329V83.6582ZM218.7 95.5938C218.7 94.9727 218.914 94.4395 219.341 93.9941C219.775 93.543 220.396 93.1973 221.205 92.957C222.013 92.7109 222.971 92.5879 224.079 92.5879C225.168 92.5879 226.115 92.7109 226.917 92.957C227.72 93.1973 228.338 93.543 228.772 93.9941C229.206 94.4453 229.422 94.9785 229.422 95.5938C229.422 96.209 229.206 96.7363 228.772 97.1758C228.338 97.6152 227.72 97.9492 226.917 98.1777C226.115 98.4121 225.168 98.5293 224.079 98.5293C222.971 98.5293 222.013 98.4121 221.205 98.1777C220.396 97.9492 219.775 97.6152 219.341 97.1758C218.914 96.7363 218.7 96.209 218.7 95.5938ZM220.616 95.5938C220.61 96.0625 220.903 96.4229 221.495 96.6748C222.086 96.9268 222.93 97.0527 224.026 97.0527C225.145 97.0527 226 96.9297 226.592 96.6836C227.19 96.4316 227.489 96.0684 227.489 95.5938C227.489 95.1133 227.193 94.7471 226.601 94.4951C226.015 94.2432 225.174 94.1172 224.079 94.1172C222.965 94.1172 222.107 94.2461 221.503 94.5039C220.906 94.7559 220.61 95.1191 220.616 95.5938ZM248.3 86.541H250.515V88.1406H248.3V91.9902H246.349V82.6738H248.3V86.541ZM235.714 90.6543C236.904 90.332 237.932 89.9072 238.799 89.3799C239.672 88.8525 240.361 88.249 240.865 87.5693C241.369 86.8838 241.676 86.1426 241.788 85.3457H236.435V83.7637H243.906C243.906 85.1406 243.616 86.3887 243.036 87.5078C242.456 88.6211 241.612 89.5762 240.504 90.373C239.397 91.1699 238.058 91.791 236.488 92.2363L235.714 90.6543ZM237.859 95.3652C237.853 94.7207 238.07 94.1582 238.509 93.6777C238.949 93.1973 239.57 92.8281 240.373 92.5703C241.175 92.3125 242.107 92.1836 243.167 92.1836C244.234 92.1836 245.166 92.3125 245.962 92.5703C246.765 92.8281 247.383 93.1973 247.817 93.6777C248.256 94.1582 248.476 94.7207 248.476 95.3652C248.476 96.0156 248.256 96.5811 247.817 97.0615C247.383 97.542 246.765 97.9082 245.962 98.1602C245.166 98.418 244.234 98.5469 243.167 98.5469C242.107 98.5469 241.175 98.418 240.373 98.1602C239.57 97.9082 238.949 97.542 238.509 97.0615C238.07 96.5811 237.853 96.0156 237.859 95.3652ZM239.792 95.3652C239.792 95.7051 239.927 96.001 240.197 96.2529C240.466 96.499 240.853 96.6895 241.357 96.8242C241.867 96.9531 242.47 97.0176 243.167 97.0176C243.859 97.0176 244.459 96.9531 244.969 96.8242C245.479 96.6895 245.872 96.499 246.147 96.2529C246.422 96.001 246.56 95.7051 246.56 95.3652C246.554 94.8438 246.25 94.4395 245.646 94.1523C245.042 93.8594 244.216 93.7129 243.167 93.7129C242.47 93.7129 241.867 93.7773 241.357 93.9062C240.853 94.0352 240.466 94.2256 240.197 94.4775C239.927 94.7236 239.792 95.0195 239.792 95.3652ZM265.447 96.6484H250.928V95.0488H257.203V91.3926H259.154V95.0488H265.447V96.6484ZM251.561 90.5137C252.598 90.3438 253.538 90.0127 254.382 89.5205C255.226 89.0225 255.891 88.4277 256.377 87.7363C256.863 87.0391 257.115 86.3125 257.133 85.5566H252.141V83.957H264.199V85.5566H259.189C259.207 86.3125 259.462 87.0332 259.954 87.7188C260.446 88.4043 261.12 88.9873 261.976 89.4678C262.837 89.9424 263.801 90.2617 264.867 90.4258L264.094 91.9727C262.746 91.7324 261.551 91.2725 260.508 90.5928C259.465 89.9072 258.688 89.0693 258.179 88.0791C257.669 89.0811 256.898 89.9336 255.867 90.6367C254.836 91.334 253.658 91.8086 252.334 92.0605L251.561 90.5137Z" fill="#4D55F5"/>
<path d="M333.708 85.4336C333.708 86.0957 333.858 86.7402 334.157 87.3672C334.461 87.9883 334.904 88.542 335.484 89.0283C336.07 89.5146 336.773 89.8867 337.593 90.1445L336.591 91.6562C335.706 91.3691 334.939 90.9443 334.288 90.3818C333.638 89.8135 333.125 89.1426 332.75 88.3691C332.387 89.207 331.868 89.9365 331.195 90.5576C330.527 91.1787 329.73 91.6445 328.804 91.9551L327.802 90.4434C328.628 90.1621 329.337 89.7637 329.929 89.248C330.521 88.7266 330.969 88.1377 331.274 87.4814C331.578 86.8193 331.734 86.1367 331.74 85.4336V85.2402H328.312V83.6758H337.048V85.2402H333.708V85.4336ZM330.07 92.9922H340.915V98.5645H338.947V94.5742H330.07V92.9922ZM338.947 82.6738H340.915V92.2539H338.947V82.6738ZM357.342 93.2559H351.013V98.5469H349.08V93.2559H342.822V91.6738H357.342V93.2559ZM344.597 83.4824H355.566V89.8105H344.597V83.4824ZM353.615 88.2812V85.0469H346.513V88.2812H353.615ZM362.746 83.6582C363.555 83.6582 364.287 83.8223 364.944 84.1504C365.6 84.4727 366.115 84.9268 366.49 85.5127C366.871 86.0928 367.065 86.752 367.071 87.4902C367.065 88.1289 366.921 88.709 366.64 89.2305C366.359 89.752 365.966 90.1855 365.462 90.5312C364.964 90.877 364.393 91.1084 363.748 91.2256V93.5723C365.295 93.4902 366.59 93.3789 367.633 93.2383L367.774 94.6973C366.526 94.9199 365.219 95.0752 363.854 95.1631C362.494 95.2451 361.079 95.2861 359.609 95.2861C358.917 95.2861 358.41 95.2832 358.088 95.2773L357.807 93.6777C359.283 93.6777 360.614 93.6631 361.797 93.6338V91.2432C361.135 91.126 360.549 90.8945 360.039 90.5488C359.53 90.2031 359.134 89.7695 358.853 89.248C358.572 88.7207 358.434 88.1348 358.44 87.4902C358.434 86.752 358.615 86.0928 358.985 85.5127C359.354 84.9268 359.866 84.4727 360.523 84.1504C361.179 83.8223 361.92 83.6582 362.746 83.6582ZM360.338 87.4902C360.338 87.9238 360.441 88.3076 360.646 88.6416C360.851 88.9697 361.135 89.2217 361.498 89.3975C361.867 89.5732 362.283 89.6582 362.746 89.6523C363.198 89.6582 363.605 89.5732 363.968 89.3975C364.331 89.2217 364.615 88.9697 364.821 88.6416C365.032 88.3076 365.137 87.9238 365.137 87.4902C365.137 87.0566 365.032 86.6758 364.821 86.3477C364.615 86.0195 364.331 85.7676 363.968 85.5918C363.611 85.4102 363.203 85.3164 362.746 85.3105C362.283 85.3164 361.867 85.4102 361.498 85.5918C361.135 85.7676 360.851 86.0195 360.646 86.3477C360.441 86.6758 360.338 87.0566 360.338 87.4902ZM368.547 82.6738H370.498V89.0195H372.801V90.6719H370.498V98.5645H368.547V82.6738ZM378.311 83.7812C379.143 83.7812 379.89 83.9453 380.552 84.2734C381.215 84.5957 381.733 85.0498 382.108 85.6357C382.489 86.2158 382.682 86.875 382.688 87.6133C382.682 88.3574 382.489 89.0225 382.108 89.6084C381.733 90.1885 381.215 90.6426 380.552 90.9707C379.89 91.2988 379.143 91.4629 378.311 91.4629C377.485 91.4629 376.738 91.2988 376.07 90.9707C375.408 90.6426 374.889 90.1855 374.514 89.5996C374.139 89.0137 373.952 88.3516 373.952 87.6133C373.952 86.875 374.139 86.2158 374.514 85.6357C374.895 85.0498 375.417 84.5957 376.079 84.2734C376.741 83.9453 377.485 83.7812 378.311 83.7812ZM373.231 93.6602C375.177 93.6602 376.993 93.6279 378.68 93.5635C380.368 93.4932 381.973 93.3496 383.497 93.1328L383.655 94.5566C382.085 94.8555 380.482 95.0488 378.847 95.1367C377.219 95.2188 375.428 95.2598 373.477 95.2598L373.231 93.6602ZM375.886 87.6133C375.886 88.0469 375.988 88.4277 376.193 88.7559C376.404 89.0781 376.694 89.3271 377.063 89.5029C377.432 89.6729 377.848 89.7578 378.311 89.7578C378.78 89.7578 379.199 89.6729 379.568 89.5029C379.943 89.3271 380.236 89.0781 380.447 88.7559C380.664 88.4277 380.772 88.0469 380.772 87.6133C380.772 87.1797 380.664 86.8018 380.447 86.4795C380.236 86.1572 379.943 85.9082 379.568 85.7324C379.199 85.5566 378.78 85.4688 378.311 85.4688C377.848 85.4688 377.432 85.5566 377.063 85.7324C376.694 85.9082 376.404 86.1602 376.193 86.4883C375.988 86.8105 375.886 87.1855 375.886 87.6133ZM384.446 82.6738H386.397V98.582H384.446V82.6738ZM392.847 84.2734H401.004V86.1895H395.133V89.6699H400.441V91.5859H395.133V97H392.847V84.2734ZM402.436 87.4551H404.686V97H402.436V87.4551ZM403.578 86.1016C403.344 86.1016 403.127 86.0459 402.928 85.9346C402.729 85.8232 402.571 85.6738 402.453 85.4863C402.336 85.2988 402.278 85.0938 402.278 84.8711C402.278 84.6543 402.336 84.4521 402.453 84.2646C402.571 84.0771 402.729 83.9307 402.928 83.8252C403.127 83.7139 403.344 83.6582 403.578 83.6582C403.813 83.6582 404.03 83.7139 404.229 83.8252C404.428 83.9307 404.586 84.0771 404.703 84.2646C404.821 84.4521 404.879 84.6543 404.879 84.8711C404.879 85.0938 404.821 85.2988 404.703 85.4863C404.586 85.6738 404.428 85.8232 404.229 85.9346C404.03 86.0459 403.813 86.1016 403.578 86.1016ZM411.198 89.1777H409.317V94.1348C409.317 94.5801 409.414 94.876 409.607 95.0225C409.806 95.1689 410.088 95.2422 410.451 95.2422C410.703 95.2422 410.993 95.2305 411.321 95.207V97.0352C410.958 97.0938 410.527 97.123 410.029 97.123C409.455 97.123 408.945 97.0264 408.5 96.833C408.054 96.6396 407.706 96.3467 407.454 95.9541C407.202 95.5615 407.079 95.0781 407.085 94.5039V89.1777H405.714V87.4551H407.085V85.1699H409.317V87.4551H411.198V89.1777Z" fill="#4D55F5"/>
</svg>
