<svg width="16" height="16" viewBox="0 0 16 16" fill="none" xmlns="http://www.w3.org/2000/svg">
<path d="M7.52242 2.30229C7.67608 1.991 7.7529 1.83535 7.8572 1.78562C7.94795 1.74236 8.05338 1.74236 8.14412 1.78562C8.24842 1.83535 8.32525 1.991 8.47891 2.30229L9.93669 5.2556C9.98205 5.3475 10.0047 5.39345 10.0379 5.42913C10.0672 5.46072 10.1024 5.48631 10.1415 5.5045C10.1857 5.52503 10.2364 5.53244 10.3378 5.54726L13.5986 6.02389C13.942 6.07408 14.1137 6.09917 14.1932 6.18304C14.2623 6.25601 14.2948 6.35628 14.2817 6.45593C14.2665 6.57047 14.1422 6.69153 13.8936 6.93367L11.535 9.23103C11.4614 9.30264 11.4247 9.33845 11.4009 9.38106C11.3799 9.41878 11.3665 9.46022 11.3613 9.50309C11.3554 9.5515 11.3641 9.60208 11.3814 9.70324L11.938 12.9482C11.9967 13.2904 12.026 13.4615 11.9708 13.5631C11.9229 13.6514 11.8376 13.7134 11.7387 13.7317C11.6251 13.7528 11.4714 13.672 11.1641 13.5104L8.2489 11.9773C8.15807 11.9295 8.11266 11.9057 8.06481 11.8963C8.02245 11.888 7.97888 11.888 7.93651 11.8963C7.88867 11.9057 7.84325 11.9295 7.75242 11.9773L4.83727 13.5104C4.52993 13.672 4.37626 13.7528 4.26263 13.7317C4.16377 13.7134 4.07847 13.6514 4.03048 13.5631C3.97532 13.4615 4.00467 13.2904 4.06337 12.9482L4.61991 9.70324C4.63726 9.60208 4.64593 9.5515 4.64006 9.50309C4.63487 9.46022 4.62139 9.41878 4.60039 9.38106C4.57667 9.33845 4.5399 9.30264 4.46637 9.23103L2.10769 6.93367C1.85909 6.69153 1.73479 6.57047 1.71967 6.45593C1.70651 6.35628 1.73902 6.25601 1.80815 6.18304C1.88761 6.09917 2.0593 6.07408 2.40268 6.02389L5.66353 5.54726C5.76493 5.53244 5.81564 5.52503 5.8598 5.5045C5.89889 5.48631 5.93409 5.46072 5.96344 5.42913C5.99659 5.39345 6.01927 5.3475 6.06463 5.2556L7.52242 2.30229Z" fill="#FF5E00"/>
</svg>
