<svg width="292" height="365" viewBox="0 0 292 365" fill="none" xmlns="http://www.w3.org/2000/svg">
<rect width="292" height="364.4" rx="4" fill="white"/>
<path d="M22.5684 16.9668V26.2363H21.4883V23.625H19.3828V22.75H21.4883V21.0957H19.3828V20.207H21.4883V16.9668H22.5684ZM12.5059 19.332V18.457H15.459V16.9531H16.5254V18.457H19.3828V19.332H12.5059ZM13.2305 22.3262C13.2168 20.9316 14.3516 20.002 15.9785 20.002C17.6055 20.002 18.7471 20.9316 18.7539 22.3262C18.7471 23.707 17.6055 24.6436 15.9785 24.6504C14.3516 24.6436 13.2168 23.707 13.2305 22.3262ZM14.2285 22.3262C14.2217 23.2012 14.9395 23.7959 15.9785 23.7891C17.0176 23.7959 17.7354 23.2012 17.7422 22.3262C17.7354 21.4512 17.0176 20.8633 15.9785 20.8496C14.9395 20.8633 14.2217 21.4512 14.2285 22.3262ZM14.707 28.8477V25.416H15.7871V27.9453H22.8418V28.8477H14.707ZM33.8701 16.9668V20.6309H35.6884V21.5332H33.8701V25.2109H32.79V16.9668H33.8701ZM24.3271 23.7891C25.2978 23.7891 26.4394 23.7891 27.622 23.748V22.7842C26.1933 22.6543 25.291 22.0322 25.2978 21.0684C25.291 19.9814 26.4121 19.3457 28.1416 19.3457C29.8711 19.3457 30.9853 19.9814 30.999 21.0684C30.9853 22.0254 30.1035 22.6475 28.6884 22.7773V23.707C29.8232 23.6523 30.9716 23.5566 32.038 23.4062L32.1337 24.1582C29.5156 24.6162 26.6035 24.6572 24.4502 24.6504L24.3271 23.7891ZM24.6279 18.8398V18.0059H27.622V16.8574H28.6884V18.0059H31.6689V18.8398H24.6279ZM25.9541 27.2344C25.9472 26.0176 27.4101 25.3477 29.9462 25.3613C32.4755 25.3477 33.9453 26.0176 33.9521 27.2344C33.9453 28.4443 32.4755 29.0938 29.9462 29.1074C27.4101 29.0938 25.9472 28.4443 25.9541 27.2344ZM26.3232 21.0684C26.3164 21.6768 27.0205 22.0527 28.1416 22.0527C29.2627 22.0527 29.9736 21.6768 29.9736 21.0684C29.9736 20.4805 29.2627 20.0908 28.1416 20.0977C27.0205 20.0908 26.3164 20.4805 26.3232 21.0684ZM27.0341 27.2344C27.0205 27.8906 28.0732 28.2871 29.9462 28.2871C31.8056 28.2871 32.8515 27.8906 32.8584 27.2344C32.8515 26.5508 31.8056 26.1543 29.9462 26.168C28.0732 26.1543 27.0205 26.5508 27.0341 27.2344ZM45.8778 18.2246C45.871 21.7314 44.6747 24.9443 40.2997 27.0977L39.6981 26.2773C41.9813 25.1631 43.3554 23.7549 44.0936 22.1211L39.9305 22.5176L39.7528 21.5742L44.4218 21.2598C44.6405 20.5762 44.7636 19.8584 44.8114 19.1133H40.368V18.2246H45.8778ZM47.9149 29.1074V16.9531H48.9813V21.9023H50.9501V22.8047H48.9813V29.1074H47.9149ZM61.2811 22.8047V23.6934H52.8866V18.0879H61.158V18.9766H53.953V22.8047H61.2811ZM51.4647 27.4531V26.5508H62.5936V27.4531H51.4647ZM73.7723 16.9531V29.1074H72.7332V16.9531H73.7723ZM63.5047 22.2031C63.5115 19.6191 64.5369 17.9854 66.116 17.9785C67.5926 17.9854 68.5906 19.4072 68.7273 21.6973H70.2996V17.2129H71.325V28.4922H70.2996V22.5859H68.7342C68.6316 24.9512 67.6131 26.4346 66.116 26.4277C64.5369 26.4346 63.5115 24.7871 63.5047 22.2031ZM64.5164 22.2031C64.5027 24.1719 65.1316 25.416 66.116 25.4023C67.1072 25.416 67.7361 24.1719 67.7293 22.2031C67.7361 20.2275 67.1072 18.9902 66.116 18.9902C65.1316 18.9902 64.5027 20.2275 64.5164 22.2031ZM79.5232 20.2207C79.5164 22.4219 80.9314 24.6367 82.6951 25.4434L82.0525 26.3184C80.6716 25.6074 79.53 24.1582 78.99 22.4287C78.45 24.2471 77.3084 25.8057 75.9275 26.5371L75.2302 25.6758C77.0144 24.8008 78.4226 22.4629 78.4295 20.2207V18.0059H79.5232V20.2207ZM81.3689 21.9844V21.1094H84.2537V16.9531H85.3201V29.1348H84.2537V21.9844H81.3689ZM100.828 16.9531V29.1074H99.8024V16.9531H100.828ZM90.2868 25.8672C91.9821 24.8555 92.9733 22.6338 92.9665 20.4258V19.2773H90.6286V18.3887H96.2341V19.2773H94.0055V20.4258C94.0055 22.5244 94.9557 24.623 96.6305 25.5938L95.9743 26.3867C94.778 25.6689 93.9304 24.3564 93.5065 22.8115C93.069 24.4863 92.1872 25.915 90.9704 26.6738L90.2868 25.8672ZM95.3044 22.2168V21.3418H97.3552V17.2539H98.3669V28.4785H97.3552V22.2168H95.3044ZM113.401 22.3672V23.2012H108.383V24.3359H111.979V26.9609H104.76V28.1504H112.348V28.9707H103.694V26.1953H110.926V25.1426H103.667V24.3359H107.331V23.2012H102.34V22.3672H113.401ZM102.928 20.9863C105.157 20.8428 107.057 20.084 107.256 18.8672H103.475V18.0195H107.331V16.8848H108.383V18.0195H112.28V18.8672H108.465C108.657 20.084 110.557 20.8428 112.799 20.9863L112.471 21.8066C110.441 21.6357 108.609 21.0068 107.864 19.8516C107.112 21.0068 105.28 21.6357 103.243 21.8066L102.928 20.9863ZM121.581 18.9219C121.581 20.5762 122.838 22.0938 124.602 22.6953L124.014 23.543C122.674 23.0508 121.615 22.0459 121.082 20.7744C120.562 22.2168 119.475 23.3311 118.053 23.8848L117.479 23.0234C119.297 22.3467 120.521 20.7197 120.528 18.8398V17.582H121.581V18.9219ZM119.092 26.8652C119.099 25.4775 120.624 24.6641 123.126 24.6641C125.621 24.6641 127.131 25.4775 127.131 26.8652C127.131 28.2803 125.621 29.0801 123.126 29.0801C120.624 29.0801 119.099 28.2803 119.092 26.8652ZM120.172 26.8652C120.159 27.7266 121.294 28.2256 123.126 28.2324C124.964 28.2256 126.086 27.7266 126.092 26.8652C126.086 26.0381 124.964 25.5254 123.126 25.5254C121.294 25.5254 120.159 26.0381 120.172 26.8652ZM125.956 24.3496V16.9531H127.022V20.125H128.854V21.0273H127.022V24.3496H125.956ZM134.714 18.3613V19.2363H130.927V21.5742H134.537V22.4355H130.927V25.1836C132.732 25.1768 133.853 25.1221 135.179 24.8828L135.275 25.7715C133.846 26.0449 132.677 26.1064 130.681 26.0996H129.902V18.3613H134.714ZM136.082 28.4922V17.2129H137.121V21.8477H138.789V16.9531H139.828V29.1074H138.789V22.7363H137.121V28.4922H136.082ZM152.415 22.5996V23.4473H141.286V22.5996H152.415ZM142.625 25.2246V24.418H151.02V27.002H143.719V28.1641H151.416V28.9434H142.639V26.2637H149.954V25.2246H142.625ZM142.694 18.1016V17.3223H150.979V19.8379H143.801V20.9043H151.198V21.6836H142.735V19.0996H149.899V18.1016H142.694ZM165.981 16.9668V20.6445H167.799V21.5469H165.981V25.1152H164.901V16.9668H165.981ZM156.438 23.8711C157.409 23.8711 158.543 23.8711 159.733 23.8369V22.9414C158.318 22.8115 157.402 22.1621 157.409 21.1504C157.402 20.043 158.543 19.3594 160.252 19.3594C161.975 19.3594 163.096 20.043 163.11 21.1504C163.096 22.1553 162.207 22.8047 160.799 22.9414V23.7959C161.934 23.7412 163.082 23.6455 164.149 23.4883L164.245 24.2676C161.606 24.7324 158.701 24.7529 156.561 24.7461L156.438 23.8711ZM156.739 18.8945V18.0742H159.733V16.8574H160.799V18.0742H163.78V18.8945H156.739ZM157.928 26.5781V25.7168H165.981V29.1074H164.901V26.5781H157.928ZM158.434 21.1504C158.427 21.7861 159.131 22.2168 160.252 22.2031C161.373 22.2168 162.084 21.7861 162.084 21.1504C162.084 20.5078 161.373 20.1113 160.252 20.125C159.131 20.1113 158.427 20.5078 158.434 21.1504ZM178.417 16.9668V25.8535H177.351V16.9668H178.417ZM168.669 20.7949C168.662 19.0449 170.036 17.8213 171.855 17.8145C173.673 17.8213 175.034 19.0449 175.04 20.7949C175.034 22.5654 173.673 23.7959 171.855 23.7891C170.036 23.7959 168.662 22.5654 168.669 20.7949ZM169.722 20.7949C169.708 22.0049 170.624 22.8457 171.855 22.8457C173.065 22.8457 173.988 22.0049 173.988 20.7949C173.988 19.6055 173.065 18.7578 171.855 18.7578C170.624 18.7578 169.708 19.6055 169.722 20.7949ZM170.57 28.8477V24.9512H171.636V27.9453H178.8V28.8477H170.57ZM189.678 16.9531V21.9707H191.715V22.8594H189.678V29.1074H188.612V16.9531H189.678ZM180.203 19.7969V18.9082H183.334V17.1035H184.401V18.9082H187.436V19.7969H180.203ZM180.901 23.5977C180.894 21.957 182.152 20.8086 183.881 20.8086C185.597 20.8086 186.848 21.957 186.862 23.5977C186.848 25.2451 185.597 26.3867 183.881 26.3867C182.152 26.3867 180.894 25.2451 180.901 23.5977ZM181.926 23.5977C181.919 24.7051 182.746 25.4844 183.881 25.4707C185.002 25.4844 185.823 24.7051 185.836 23.5977C185.823 22.4971 185.002 21.7041 183.881 21.7109C182.746 21.7041 181.919 22.4971 181.926 23.5977ZM202.183 16.9531V23.2559H201.13V16.9531H202.183ZM192.243 22.2852C194.075 21.6494 195.374 20.0225 195.374 18.2383V17.3086H196.468V18.2383C196.454 19.9541 197.767 21.4717 199.572 22.0664L199.038 22.9004C197.61 22.415 196.482 21.3965 195.935 20.084C195.388 21.499 194.246 22.6133 192.804 23.1328L192.243 22.2852ZM194.294 24.7324V23.8711H202.197V26.7832H195.374V28.0957H202.634V28.9707H194.322V25.9492H201.13V24.7324H194.294ZM213.452 18.0879C213.459 19.8037 215.688 21.2803 217.882 21.5879L217.445 22.4629C215.558 22.1484 213.685 21.1025 212.905 19.6123C212.126 21.1162 210.26 22.1484 208.366 22.4629L207.929 21.5879C210.123 21.2803 212.345 19.8311 212.345 18.0879V17.3906H213.452V18.0879ZM207.355 24.7051V23.8027H218.429V24.7051H213.398V29.1074H212.345V24.7051H207.355ZM226.663 25.1152C226.656 26.1885 227.237 27.3301 228.393 27.9863C229.555 27.2686 230.17 26.0518 230.163 25.1152V24.4453H231.216V25.1152C231.209 26.3662 232.132 27.6104 233.691 28.1504L233.157 28.9434C231.941 28.5127 231.093 27.665 230.669 26.6465C230.293 27.6309 229.548 28.5674 228.427 29.0391C227.244 28.5879 226.492 27.6992 226.13 26.6807C225.693 27.6582 224.859 28.5059 223.696 28.9434L223.15 28.1504C224.688 27.5762 225.61 26.2773 225.624 25.1152V24.4453H226.663V25.1152ZM222.835 20.5215C222.828 18.8262 224.175 17.6709 226.021 17.6777C227.866 17.6709 229.199 18.8262 229.206 20.5215C229.199 22.1895 227.866 23.3379 226.021 23.3379C224.175 23.3379 222.828 22.1895 222.835 20.5215ZM223.888 20.5215C223.874 21.6494 224.77 22.4424 226.021 22.4492C227.258 22.4424 228.153 21.6494 228.153 20.5215C228.153 19.3867 227.258 18.5801 226.021 18.5938C224.77 18.5801 223.874 19.3867 223.888 20.5215ZM231.517 23.9121V16.9668H232.583V23.9121H231.517ZM236.912 24.2539V25.6758H242.982V24.2539H244.063V28.9434H235.846V24.2539H236.912ZM234.438 23.3926V22.5039H245.512V23.3926H234.438ZM235.066 20.7812C237.233 20.4873 239.428 19.209 239.428 17.6641V17.0898H240.535V17.6641C240.528 19.1611 242.743 20.5078 244.883 20.7812L244.486 21.6426C242.607 21.3623 240.754 20.4053 239.982 19.0449C239.209 20.4121 237.35 21.3623 235.477 21.6426L235.066 20.7812ZM236.912 28.082H242.982V26.5234H236.912V28.082ZM256.349 16.9531V29.1074H255.282V16.9531H256.349ZM247.12 25.9766V18.1562H248.173V25.0469C250.032 25.0332 251.946 24.8896 253.983 24.459L254.134 25.375C251.974 25.8262 250.053 25.9766 248.105 25.9766H247.12ZM267.623 16.9531V21.7656H269.66V22.668H267.623V29.1348H266.557V16.9531H267.623ZM258.75 26.0859V18.1426H264.424V19.0312H259.816V25.1836C262.018 25.1768 263.569 25.0811 265.381 24.7461L265.518 25.6758C263.61 26.0176 262.018 26.0859 259.707 26.0859H258.75ZM271.392 28.082C270.913 28.0752 270.503 27.6787 270.517 27.1934C270.503 26.7148 270.913 26.3184 271.392 26.3184C271.877 26.3184 272.273 26.7148 272.267 27.1934C272.273 27.6787 271.877 28.0752 271.392 28.082Z" fill="#27272D"/>
<rect width="268" height="122.2" transform="translate(12 44)" fill="#F9F9F8"/>
<rect x="24.4" y="52.4" width="59.04" height="83.4" rx="2.8" fill="white"/>
<rect x="24.4" y="52.4" width="59.04" height="83.4" rx="2.8" stroke="#E7E7E7" stroke-width="0.8"/>
<rect x="30.8004" y="60.4" width="10.4" height="10.4" rx="5.2" stroke="#5F66F6" stroke-width="0.8"/>
<circle cx="33.6008" cy="65.6008" r="0.8" fill="#5F66F6"/>
<circle cx="36.0012" cy="65.6008" r="0.8" fill="#5F66F6"/>
<circle cx="38.4016" cy="65.6008" r="0.8" fill="#5F66F6"/>
<path d="M37.641 76.4816V84.4004H36.3723L32.6207 78.9863H32.5551V84.4004H31.1332V76.4816H32.4238L36.1535 81.8957H36.2301V76.4816H37.641ZM46.6579 75.4863V85.3738H45.4438V75.4863H46.6579ZM38.4657 82.6285C39.2532 82.623 40.1446 82.623 41.0798 82.5957V81.6879C39.9696 81.5129 39.2423 80.8348 39.2423 79.8941C39.2423 78.7785 40.2321 78.0402 41.6704 78.0348C43.1251 78.0402 44.1313 78.7785 44.1313 79.8941C44.1313 80.8293 43.404 81.502 42.2938 81.6824V82.552C43.1634 82.5137 44.0384 82.4426 44.8641 82.3332L44.9516 83.241C42.7805 83.6074 40.418 83.6348 38.6407 83.6348L38.4657 82.6285ZM38.6735 77.5863V76.6238H41.0798V75.5191H42.2938V76.6238H44.6891V77.5863H38.6735ZM40.4016 79.8941C40.3907 80.4629 40.9212 80.7965 41.6704 80.791C42.4415 80.7965 42.9665 80.4629 42.961 79.8941C42.9665 79.3199 42.4415 78.9699 41.6704 78.9645C40.9212 78.9699 40.3907 79.3199 40.4016 79.8941ZM51.2998 78.6254C51.2998 80.091 52.1255 81.6879 53.6513 82.4098L52.9732 83.3285C51.9013 82.8363 51.1302 81.852 50.7146 80.698C50.2826 81.9449 49.4677 82.9949 48.3357 83.5035L47.6685 82.5629C49.2271 81.8629 50.0966 80.1785 50.0966 78.6254V78.1113H47.9857V77.1379H50.0966V75.6941H51.3107V77.1379H53.3888V78.1113H51.2998V78.6254ZM54.3513 85.3738V75.4863H55.5654V79.402H57.0857V80.4191H55.5654V85.3738H54.3513ZM34.4801 90.4988C34.4801 91.7293 35.3223 92.9324 36.8973 93.4191L36.2738 94.3707C35.1527 94.0098 34.3379 93.266 33.884 92.3254C33.441 93.348 32.5988 94.1629 31.4285 94.5676L30.8051 93.6051C32.3965 93.0801 33.2441 91.8004 33.2551 90.4988V90.2145H31.1223V89.241H36.5582V90.2145H34.4801V90.4988ZM32.4238 98.177V95.016H33.6488V97.1926H39.2379V98.177H32.4238ZM37.7395 95.6723V88.4973H38.9645V95.6723H37.7395ZM48.5829 88.4863V94.6988H47.4235V92.0082H46.461V94.3707H45.3235V88.6832H46.461V91.0238H47.4235V88.4863H48.5829ZM40.0735 90.5098V89.5582H41.9438V88.5738H43.147V89.5582H44.9954V90.5098H40.0735ZM40.4235 92.6207C40.4126 91.5926 41.3095 90.909 42.5454 90.9145C43.8032 90.909 44.6891 91.5926 44.7001 92.6207C44.6891 93.6488 43.8032 94.327 42.5454 94.327C41.3095 94.327 40.4126 93.6488 40.4235 92.6207ZM41.5063 92.6207C41.5063 93.1293 41.9274 93.452 42.5454 93.452C43.1688 93.452 43.5954 93.1293 43.5954 92.6207C43.5954 92.1121 43.1688 91.7895 42.5454 91.7895C41.9274 91.7895 41.5063 92.1121 41.5063 92.6207ZM41.8563 96.602C41.8509 95.4645 43.1305 94.8246 45.247 94.8191C47.3579 94.8246 48.6321 95.4645 48.6376 96.602C48.6321 97.7176 47.3579 98.3629 45.247 98.3629C43.1305 98.3629 41.8509 97.7176 41.8563 96.602ZM43.0704 96.602C43.0649 97.1434 43.836 97.4387 45.247 97.4332C46.6524 97.4387 47.4071 97.1434 47.4126 96.602C47.4071 96.0277 46.6524 95.7379 45.247 95.7488C43.836 95.7379 43.0649 96.0277 43.0704 96.602ZM58.5404 93.0254V94.0098H54.6248V94.841C56.3912 94.9559 57.4412 95.5684 57.4466 96.591C57.4412 97.7285 56.1505 98.3629 54.0232 98.3629C51.863 98.3629 50.5779 97.7285 50.5779 96.591C50.5779 95.5684 51.6279 94.9504 53.4216 94.8355V94.0098H49.5279V93.0254H58.5404ZM49.9654 91.6145C51.781 91.4449 52.9677 90.7066 53.1701 89.8973H50.3482V88.9238H57.731V89.8973H54.8818C55.0787 90.7121 56.2545 91.4449 58.1138 91.6145L57.6873 92.577C55.888 92.391 54.5591 91.6746 54.0232 90.6738C53.4873 91.6746 52.1748 92.391 50.381 92.577L49.9654 91.6145ZM51.8138 96.591C51.8084 97.1379 52.5849 97.4387 54.0232 97.4332C55.4396 97.4387 56.2216 97.1379 56.2326 96.591C56.2216 96.0441 55.4396 95.7543 54.0232 95.7488C52.5849 95.7543 51.8084 96.0441 51.8138 96.591Z" fill="#5F66F6"/>
<path d="M32.4941 113.285C31.4707 113.281 30.7207 112.457 30.7207 111.09C30.7207 109.707 31.4824 108.902 32.502 108.902C33.291 108.902 33.5762 109.379 33.7285 109.645H33.7676V107.543H34.6035V113.199H33.791V112.535H33.7285C33.5723 112.812 33.2676 113.281 32.4941 113.285ZM31.5723 111.074C31.5684 111.926 31.9512 112.57 32.6816 112.574C33.3926 112.57 33.791 111.965 33.791 111.074C33.791 110.191 33.4004 109.609 32.6816 109.613C31.9434 109.609 31.5684 110.238 31.5723 111.074ZM37.0754 113.285C36.052 113.281 35.302 112.457 35.302 111.09C35.302 109.707 36.0637 108.902 37.0832 108.902C37.8723 108.902 38.1574 109.379 38.3098 109.645H38.3488V107.543H39.1848V113.199H38.3723V112.535H38.3098C38.1535 112.812 37.8488 113.281 37.0754 113.285ZM36.1535 111.074C36.1496 111.926 36.5324 112.57 37.2629 112.574C37.9738 112.57 38.3723 111.965 38.3723 111.074C38.3723 110.191 37.9816 109.609 37.2629 109.613C36.5246 109.609 36.1496 110.238 36.1535 111.074ZM40.6176 113.254C40.3129 113.25 40.059 113.004 40.0629 112.699C40.059 112.395 40.3129 112.145 40.6176 112.145C40.9184 112.145 41.1684 112.395 41.1723 112.699C41.1684 113.004 40.9184 113.25 40.6176 113.254ZM43.566 113.285C42.5426 113.281 41.7926 112.457 41.7926 111.09C41.7926 109.707 42.5543 108.902 43.5738 108.902C44.3629 108.902 44.648 109.379 44.8004 109.645H44.8395V107.543H45.6754V113.199H44.8629V112.535H44.8004C44.6441 112.812 44.3395 113.281 43.566 113.285ZM42.6441 111.074C42.6402 111.926 43.023 112.57 43.7535 112.574C44.4645 112.57 44.8629 111.965 44.8629 111.074C44.8629 110.191 44.4723 109.609 43.7535 109.613C43.0152 109.609 42.6402 110.238 42.6441 111.074ZM48.1473 113.285C47.1238 113.281 46.3738 112.457 46.3738 111.09C46.3738 109.707 47.1355 108.902 48.1551 108.902C48.9441 108.902 49.2293 109.379 49.3816 109.645H49.4207V107.543H50.2566V113.199H49.4441V112.535H49.3816C49.2254 112.812 48.9207 113.281 48.1473 113.285ZM47.2254 111.074C47.2215 111.926 47.6043 112.57 48.3348 112.574C49.0457 112.57 49.4441 111.965 49.4441 111.074C49.4441 110.191 49.0535 109.609 48.3348 109.613C47.5965 109.609 47.2215 110.238 47.2254 111.074ZM33.4082 122.449V123.168H30.9004V122.449H33.4082ZM35.802 125.285C34.7785 125.281 34.0285 124.457 34.0285 123.09C34.0285 121.707 34.7902 120.902 35.8098 120.902C36.5988 120.902 36.884 121.379 37.0363 121.645H37.0754V119.543H37.9113V125.199H37.0988V124.535H37.0363C36.8801 124.812 36.5754 125.281 35.802 125.285ZM34.8801 123.074C34.8762 123.926 35.259 124.57 35.9895 124.574C36.7004 124.57 37.0988 123.965 37.0988 123.074C37.0988 122.191 36.7082 121.609 35.9895 121.613C35.2512 121.609 34.8762 122.238 34.8801 123.074ZM40.3832 125.285C39.3598 125.281 38.6098 124.457 38.6098 123.09C38.6098 121.707 39.3715 120.902 40.391 120.902C41.1801 120.902 41.4652 121.379 41.6176 121.645H41.6566V119.543H42.4926V125.199H41.6801V124.535H41.6176C41.4613 124.812 41.1566 125.281 40.3832 125.285ZM39.4613 123.074C39.4574 123.926 39.8402 124.57 40.5707 124.574C41.2816 124.57 41.6801 123.965 41.6801 123.074C41.6801 122.191 41.2895 121.609 40.5707 121.613C39.8324 121.609 39.4574 122.238 39.4613 123.074ZM43.9254 125.254C43.6207 125.25 43.3668 125.004 43.3707 124.699C43.3668 124.395 43.6207 124.145 43.9254 124.145C44.2262 124.145 44.4762 124.395 44.4801 124.699C44.4762 125.004 44.2262 125.25 43.9254 125.254ZM46.8738 125.285C45.8504 125.281 45.1004 124.457 45.1004 123.09C45.1004 121.707 45.8621 120.902 46.8816 120.902C47.6707 120.902 47.9559 121.379 48.1082 121.645H48.1473V119.543H48.9832V125.199H48.1707V124.535H48.1082C47.952 124.812 47.6473 125.281 46.8738 125.285ZM45.952 123.074C45.948 123.926 46.3309 124.57 47.0613 124.574C47.7723 124.57 48.1707 123.965 48.1707 123.074C48.1707 122.191 47.7801 121.609 47.0613 121.613C46.323 121.609 45.948 122.238 45.952 123.074ZM51.4551 125.285C50.4316 125.281 49.6816 124.457 49.6816 123.09C49.6816 121.707 50.4434 120.902 51.4629 120.902C52.252 120.902 52.5371 121.379 52.6895 121.645H52.7285V119.543H53.5645V125.199H52.752V124.535H52.6895C52.5332 124.812 52.2285 125.281 51.4551 125.285ZM50.5332 123.074C50.5293 123.926 50.9121 124.57 51.6426 124.574C52.3535 124.57 52.752 123.965 52.752 123.074C52.752 122.191 52.3613 121.609 51.6426 121.613C50.9043 121.609 50.5293 122.238 50.5332 123.074Z" fill="#4D55F5"/>
<path d="M46.6356 144.73V155.148H45.7567V144.73H46.6356ZM37.6005 152.371C39.0536 151.504 39.9032 149.6 39.8973 147.707V146.723H37.8934V145.961H42.6981V146.723H40.788V147.707C40.788 149.506 41.6024 151.305 43.038 152.137L42.4755 152.816C41.4501 152.201 40.7235 151.076 40.3602 149.752C39.9852 151.188 39.2294 152.412 38.1864 153.062L37.6005 152.371ZM41.9013 149.242V148.492H43.6591V144.988H44.5263V154.609H43.6591V149.242H41.9013ZM57.2927 149.371V150.086H52.9919V151.059H56.0739V153.309H49.8864V154.328H56.3903V155.031H48.9723V152.652H55.1716V151.75H48.9489V151.059H52.0895V150.086H47.8122V149.371H57.2927ZM48.3161 148.188C50.2263 148.064 51.8552 147.414 52.0251 146.371H48.7848V145.645H52.0895V144.672H52.9919V145.645H56.3317V146.371H53.0622C53.2263 147.414 54.8552 148.064 56.777 148.188L56.4958 148.891C54.7556 148.744 53.1852 148.205 52.5466 147.215C51.902 148.205 50.3317 148.744 48.5856 148.891L48.3161 148.188ZM69.22 144.742V152.383H68.2942V148.387H66.1497V147.625H68.2942V144.742H69.22ZM60.6302 150.297C62.1653 149.758 63.2786 148.381 63.2786 146.887V146.348H60.9231V145.586H66.5364V146.348H64.2044V146.887C64.2044 148.234 65.2473 149.541 66.7708 150.062L66.2903 150.801C65.1184 150.373 64.2102 149.5 63.7591 148.422C63.3079 149.629 62.347 150.584 61.1106 151.047L60.6302 150.297ZM62.5286 154.926V151.691H63.4544V154.152H69.513V154.926H62.5286Z" fill="#27272D"/>
<rect x="108.24" y="52.4" width="59.04" height="83.4" rx="2.8" fill="white"/>
<rect x="108.24" y="52.4" width="59.04" height="83.4" rx="2.8" stroke="#E7E7E7" stroke-width="0.8"/>
<rect x="114.64" y="60.4" width="10.4" height="10.4" rx="5.2" stroke="#5F66F6" stroke-width="0.8"/>
<circle cx="117.441" cy="65.6008" r="0.8" fill="#5F66F6"/>
<circle cx="119.841" cy="65.6008" r="0.8" fill="#5F66F6"/>
<circle cx="122.241" cy="65.6008" r="0.8" fill="#5F66F6"/>
<path d="M123.078 75.4863V85.3738H121.918V75.4863H123.078ZM114.393 82.5629C115.821 81.6934 116.45 79.9105 116.45 78.1879V77.5316H114.732V76.5473H119.217V77.5316H117.62V78.1879C117.62 79.8559 118.216 81.5293 119.632 82.3441L118.911 83.241C117.997 82.6996 117.39 81.759 117.046 80.6324C116.696 81.852 116.067 82.891 115.137 83.4707L114.393 82.5629ZM118.495 79.916V78.9316H119.917V75.6723H121.065V84.8926H119.917V79.916H118.495ZM132.959 79.7629V80.6598H129.065V81.3816H131.854V83.7004H126.232V84.3785H132.127V85.2863H125.04V82.8691H130.662V82.2566H125.029V81.3816H127.862V80.6598H123.99V79.7629H132.959ZM124.384 78.527C126.336 78.4285 127.484 77.9035 127.736 77.2035H124.854V76.2957H127.862V75.4645H129.065V76.2957H132.095V77.2035H129.191C129.431 77.9035 130.58 78.4285 132.554 78.527L132.193 79.4348C130.416 79.3254 129.087 78.8441 128.463 78.0457C127.84 78.8441 126.516 79.3254 124.723 79.4348L124.384 78.527ZM122.4 88.4973V91.3738H123.734V92.3801H122.4V95.1801H121.186V88.4973H122.4ZM114.481 93.9988C115.225 93.9988 116.083 93.9934 116.975 93.9715V93.3645C115.875 93.2277 115.175 92.6973 115.181 91.9207C115.175 91.0074 116.132 90.4496 117.565 90.4551C119.004 90.4496 119.95 91.0074 119.95 91.9207C119.95 92.6918 119.271 93.2168 118.189 93.359V93.9277C119.031 93.884 119.879 93.8184 120.671 93.7145L120.77 94.5566C118.664 94.9285 116.351 94.9504 114.612 94.9504L114.481 93.9988ZM114.732 90.1707V89.2738H116.975V88.4098H118.189V89.2738H120.409V90.1707H114.732ZM115.728 96.5582V95.6066H122.4V98.3738H121.186V96.5582H115.728ZM116.351 91.9207C116.34 92.3309 116.8 92.5879 117.565 92.577C118.331 92.5879 118.79 92.3309 118.79 91.9207C118.79 91.4887 118.331 91.2699 117.565 91.2754C116.8 91.2699 116.34 91.4887 116.351 91.9207ZM132.204 88.4973V95.6395H130.979V88.4973H132.204ZM124.143 91.6145C124.143 90.1762 125.308 89.148 126.812 89.1426C128.316 89.148 129.475 90.1762 129.47 91.6145C129.475 93.0746 128.316 94.0973 126.812 94.0973C125.308 94.0973 124.143 93.0746 124.143 91.6145ZM125.335 91.6145C125.33 92.4895 125.964 93.0363 126.812 93.0363C127.638 93.0363 128.277 92.4895 128.277 91.6145C128.277 90.7613 127.638 90.2035 126.812 90.2035C125.964 90.2035 125.33 90.7613 125.335 91.6145ZM125.663 98.177V94.9176H126.888V97.1926H132.477V98.177H125.663ZM142.38 93.0254V94.0098H138.465V94.841C140.231 94.9559 141.281 95.5684 141.286 96.591C141.281 97.7285 139.99 98.3629 137.863 98.3629C135.703 98.3629 134.418 97.7285 134.418 96.591C134.418 95.5684 135.468 94.9504 137.261 94.8355V94.0098H133.368V93.0254H142.38ZM133.805 91.6145C135.621 91.4449 136.808 90.7066 137.01 89.8973H134.188V88.9238H141.571V89.8973H138.722C138.919 90.7121 140.094 91.4449 141.954 91.6145L141.527 92.577C139.728 92.391 138.399 91.6746 137.863 90.6738C137.327 91.6746 136.015 92.391 134.221 92.577L133.805 91.6145ZM135.654 96.591C135.648 97.1379 136.425 97.4387 137.863 97.4332C139.279 97.4387 140.061 97.1379 140.072 96.591C140.061 96.0441 139.279 95.7543 137.863 95.7488C136.425 95.7543 135.648 96.0441 135.654 96.591Z" fill="#5F66F6"/>
<path d="M116.334 113.285C115.311 113.281 114.561 112.457 114.561 111.09C114.561 109.707 115.322 108.902 116.342 108.902C117.131 108.902 117.416 109.379 117.568 109.645H117.607V107.543H118.443V113.199H117.631V112.535H117.568C117.412 112.812 117.107 113.281 116.334 113.285ZM115.412 111.074C115.408 111.926 115.791 112.57 116.521 112.574C117.232 112.57 117.631 111.965 117.631 111.074C117.631 110.191 117.24 109.609 116.521 109.613C115.783 109.609 115.408 110.238 115.412 111.074ZM120.915 113.285C119.892 113.281 119.142 112.457 119.142 111.09C119.142 109.707 119.904 108.902 120.923 108.902C121.712 108.902 121.997 109.379 122.15 109.645H122.189V107.543H123.025V113.199H122.212V112.535H122.15C121.993 112.812 121.689 113.281 120.915 113.285ZM119.993 111.074C119.989 111.926 120.372 112.57 121.103 112.574C121.814 112.57 122.212 111.965 122.212 111.074C122.212 110.191 121.821 109.609 121.103 109.613C120.364 109.609 119.989 110.238 119.993 111.074ZM124.457 113.254C124.153 113.25 123.899 113.004 123.903 112.699C123.899 112.395 124.153 112.145 124.457 112.145C124.758 112.145 125.008 112.395 125.012 112.699C125.008 113.004 124.758 113.25 124.457 113.254ZM127.406 113.285C126.382 113.281 125.632 112.457 125.632 111.09C125.632 109.707 126.394 108.902 127.414 108.902C128.203 108.902 128.488 109.379 128.64 109.645H128.679V107.543H129.515V113.199H128.703V112.535H128.64C128.484 112.812 128.179 113.281 127.406 113.285ZM126.484 111.074C126.48 111.926 126.863 112.57 127.593 112.574C128.304 112.57 128.703 111.965 128.703 111.074C128.703 110.191 128.312 109.609 127.593 109.613C126.855 109.609 126.48 110.238 126.484 111.074ZM131.987 113.285C130.964 113.281 130.214 112.457 130.214 111.09C130.214 109.707 130.975 108.902 131.995 108.902C132.784 108.902 133.069 109.379 133.221 109.645H133.261V107.543H134.096V113.199H133.284V112.535H133.221C133.065 112.812 132.761 113.281 131.987 113.285ZM131.065 111.074C131.061 111.926 131.444 112.57 132.175 112.574C132.886 112.57 133.284 111.965 133.284 111.074C133.284 110.191 132.893 109.609 132.175 109.613C131.436 109.609 131.061 110.238 131.065 111.074ZM117.248 122.449V123.168H114.74V122.449H117.248ZM119.642 125.285C118.618 125.281 117.868 124.457 117.868 123.09C117.868 121.707 118.63 120.902 119.65 120.902C120.439 120.902 120.724 121.379 120.876 121.645H120.915V119.543H121.751V125.199H120.939V124.535H120.876C120.72 124.812 120.415 125.281 119.642 125.285ZM118.72 123.074C118.716 123.926 119.099 124.57 119.829 124.574C120.54 124.57 120.939 123.965 120.939 123.074C120.939 122.191 120.548 121.609 119.829 121.613C119.091 121.609 118.716 122.238 118.72 123.074ZM124.223 125.285C123.2 125.281 122.45 124.457 122.45 123.09C122.45 121.707 123.211 120.902 124.231 120.902C125.02 120.902 125.305 121.379 125.457 121.645H125.496V119.543H126.332V125.199H125.52V124.535H125.457C125.301 124.812 124.996 125.281 124.223 125.285ZM123.301 123.074C123.297 123.926 123.68 124.57 124.411 124.574C125.121 124.57 125.52 123.965 125.52 123.074C125.52 122.191 125.129 121.609 124.411 121.613C123.672 121.609 123.297 122.238 123.301 123.074ZM127.765 125.254C127.461 125.25 127.207 125.004 127.211 124.699C127.207 124.395 127.461 124.145 127.765 124.145C128.066 124.145 128.316 124.395 128.32 124.699C128.316 125.004 128.066 125.25 127.765 125.254ZM130.714 125.285C129.69 125.281 128.94 124.457 128.94 123.09C128.94 121.707 129.702 120.902 130.721 120.902C131.511 120.902 131.796 121.379 131.948 121.645H131.987V119.543H132.823V125.199H132.011V124.535H131.948C131.792 124.812 131.487 125.281 130.714 125.285ZM129.792 123.074C129.788 123.926 130.171 124.57 130.901 124.574C131.612 124.57 132.011 123.965 132.011 123.074C132.011 122.191 131.62 121.609 130.901 121.613C130.163 121.609 129.788 122.238 129.792 123.074ZM135.295 125.285C134.271 125.281 133.521 124.457 133.521 123.09C133.521 121.707 134.283 120.902 135.303 120.902C136.092 120.902 136.377 121.379 136.529 121.645H136.568V119.543H137.404V125.199H136.592V124.535H136.529C136.373 124.812 136.068 125.281 135.295 125.285ZM134.373 123.074C134.369 123.926 134.752 124.57 135.482 124.574C136.193 124.57 136.592 123.965 136.592 123.074C136.592 122.191 136.201 121.609 135.482 121.613C134.744 121.609 134.369 122.238 134.373 123.074Z" fill="#4D55F5"/>
<path d="M130.475 144.73V155.148H129.597V144.73H130.475ZM121.44 152.371C122.893 151.504 123.743 149.6 123.737 147.707V146.723H121.733V145.961H126.538V146.723H124.628V147.707C124.628 149.506 125.442 151.305 126.878 152.137L126.315 152.816C125.29 152.201 124.563 151.076 124.2 149.752C123.825 151.188 123.069 152.412 122.026 153.062L121.44 152.371ZM125.741 149.242V148.492H127.499V144.988H128.366V154.609H127.499V149.242H125.741ZM141.133 149.371V150.086H136.832V151.059H139.914V153.309H133.726V154.328H140.23V155.031H132.812V152.652H139.011V151.75H132.789V151.059H135.929V150.086H131.652V149.371H141.133ZM132.156 148.188C134.066 148.064 135.695 147.414 135.865 146.371H132.625V145.645H135.929V144.672H136.832V145.645H140.172V146.371H136.902C137.066 147.414 138.695 148.064 140.617 148.188L140.336 148.891C138.595 148.744 137.025 148.205 136.386 147.215C135.742 148.205 134.172 148.744 132.425 148.891L132.156 148.188ZM153.365 145.926V146.688H144.915V145.926H148.712V144.672H149.615V145.926H153.365ZM144.423 152.242V151.48H153.962V152.242H149.615V155.172H148.712V152.242H144.423ZM145.771 149.031C145.759 147.906 147.036 147.285 149.169 147.285C151.284 147.285 152.562 147.906 152.568 149.031C152.562 150.133 151.284 150.754 149.169 150.766C147.036 150.754 145.759 150.133 145.771 149.031ZM146.72 149.031C146.708 149.676 147.616 150.057 149.169 150.051C150.704 150.057 151.607 149.676 151.618 149.031C151.607 148.375 150.704 147.994 149.169 147.988C147.616 147.994 146.708 148.375 146.72 149.031Z" fill="#27272D"/>
<rect x="192.08" y="52.4" width="59.04" height="83.4" rx="2.8" fill="white"/>
<rect x="192.08" y="52.4" width="59.04" height="83.4" rx="2.8" stroke="#E7E7E7" stroke-width="0.8"/>
<rect x="198.48" y="60.4" width="10.4" height="10.4" rx="5.2" stroke="#BDBDBD" stroke-width="0.8"/>
<path d="M201.68 64.8733L203.457 67.2146L205.68 63.9844" stroke="#BDBDBD" stroke-width="0.8" stroke-linecap="round" stroke-linejoin="round"/>
<path d="M198.689 84.4004V83.4457L201.289 80.9371C202.031 80.1957 202.417 79.759 202.417 79.1395C202.417 78.4539 201.873 78.0223 201.157 78.0223C200.401 78.0223 199.913 78.4945 199.918 79.241H198.659C198.654 77.8496 199.7 76.9457 201.168 76.9457C202.671 76.9457 203.681 77.8445 203.686 79.0785C203.681 79.9062 203.285 80.5766 201.838 81.9426L200.528 83.2426V83.2934H203.798V84.4004H198.689ZM212.039 76.123V85.3043H210.911V76.123H212.039ZM204.432 82.7551C205.163 82.75 205.991 82.75 206.859 82.7246V81.8816C205.828 81.7191 205.153 81.0895 205.153 80.216C205.153 79.1801 206.072 78.4945 207.408 78.4895C208.758 78.4945 209.693 79.1801 209.693 80.216C209.693 81.0844 209.017 81.709 207.986 81.8766V82.684C208.794 82.6484 209.606 82.5824 210.373 82.4809L210.454 83.3238C208.438 83.6641 206.245 83.6895 204.594 83.6895L204.432 82.7551ZM204.625 78.073V77.1793H206.859V76.1535H207.986V77.1793H210.211V78.073H204.625ZM206.229 80.216C206.219 80.7441 206.712 81.0539 207.408 81.0488C208.124 81.0539 208.611 80.7441 208.606 80.216C208.611 79.6828 208.124 79.3578 207.408 79.3527C206.712 79.3578 206.219 79.6828 206.229 80.216ZM216.349 79.0379C216.349 80.3988 217.116 81.8816 218.533 82.552L217.903 83.4051C216.908 82.948 216.192 82.034 215.806 80.9625C215.405 82.1203 214.648 83.0953 213.597 83.5676L212.977 82.6941C214.425 82.0441 215.232 80.4801 215.232 79.0379V78.5605H213.272V77.6566H215.232V76.316H216.359V77.6566H218.289V78.5605H216.349V79.0379ZM219.183 85.3043V76.123H220.31V79.759H221.722V80.7035H220.31V85.3043H219.183ZM203.239 89.9863V96.0699H198.872V89.9863H203.239ZM199.989 95.166H202.143V90.8699H199.989V95.166ZM204.885 98.3145V89.123H206.022V98.3145H204.885ZM215.015 89.123V98.3043H213.938V89.123H215.015ZM206.951 95.6941C208.276 94.8867 208.86 93.2312 208.86 91.6316V91.0223H207.265V90.1082H211.429V91.0223H209.947V91.6316C209.947 93.1805 210.5 94.7344 211.815 95.491L211.145 96.3238C210.297 95.8211 209.733 94.9477 209.413 93.9016C209.088 95.034 208.504 95.9988 207.641 96.5371L206.951 95.6941ZM210.759 93.2363V92.3223H212.079V89.2957H213.146V97.8574H212.079V93.2363H210.759ZM224.19 93.0941V93.927H220.574V94.5973H223.164V96.7504H217.944V97.3801H223.418V98.223H216.837V95.9785H222.057V95.4098H216.826V94.5973H219.457V93.927H215.862V93.0941H224.19ZM216.227 91.9465C218.04 91.8551 219.107 91.3676 219.34 90.7176H216.664V89.8746H219.457V89.1027H220.574V89.8746H223.387V90.7176H220.691C220.914 91.3676 221.981 91.8551 223.814 91.9465L223.479 92.7895C221.828 92.6879 220.594 92.241 220.016 91.4996C219.437 92.241 218.208 92.6879 216.542 92.7895L216.227 91.9465Z" fill="#F64E39"/>
<path d="M200.549 113.277C199.24 113.277 198.471 112.223 198.471 110.371C198.471 108.531 199.248 107.465 200.549 107.465C201.846 107.465 202.623 108.531 202.627 110.371C202.623 112.223 201.857 113.277 200.549 113.277ZM199.33 110.371C199.326 111.781 199.783 112.535 200.549 112.535C201.311 112.535 201.768 111.781 201.768 110.371C201.768 108.965 201.307 108.195 200.549 108.191C199.787 108.195 199.33 108.965 199.33 110.371ZM203.357 113.199L205.88 108.324V108.277H202.966V107.543H206.771V108.309L204.255 113.199H203.357ZM207.016 113.254C206.711 113.25 206.457 113.004 206.461 112.699C206.457 112.395 206.711 112.145 207.016 112.145C207.317 112.145 207.567 112.395 207.571 112.699C207.567 113.004 207.317 113.25 207.016 113.254ZM208.371 113.199V112.574L210.332 110.598C210.953 109.953 211.261 109.594 211.261 109.098C211.261 108.539 210.808 108.184 210.214 108.184C209.586 108.184 209.187 108.582 209.183 109.184H208.371C208.363 108.148 209.152 107.465 210.23 107.465C211.32 107.465 212.074 108.156 212.082 109.074C212.074 109.707 211.777 110.211 210.714 111.254L209.566 112.418V112.465H212.175V113.199H208.371ZM214.905 113.277C213.675 113.277 212.819 112.613 212.827 111.691C212.819 110.965 213.339 110.371 214.007 110.27V110.238C213.425 110.105 213.038 109.59 213.038 108.973C213.038 108.102 213.823 107.465 214.905 107.465C215.971 107.465 216.761 108.102 216.764 108.973C216.761 109.59 216.366 110.105 215.796 110.238V110.27C216.456 110.371 216.979 110.965 216.983 111.691C216.979 112.613 216.116 113.277 214.905 113.277ZM213.702 111.629C213.69 112.184 214.159 112.566 214.905 112.566C215.639 112.566 216.108 112.184 216.108 111.629C216.108 111.047 215.6 110.621 214.905 110.621C214.202 110.621 213.69 111.047 213.702 111.629ZM213.874 109.051C213.878 109.578 214.3 109.945 214.905 109.941C215.495 109.945 215.925 109.582 215.921 109.051C215.925 108.523 215.511 108.164 214.905 108.168C214.284 108.164 213.878 108.523 213.874 109.051ZM217.854 111.043C217.861 109.57 218.279 108.348 219.01 107.301H219.775C219.236 108.074 218.721 109.648 218.721 111.043C218.721 112.441 219.236 114.016 219.775 114.793H219.01C218.279 113.742 217.861 112.52 217.854 111.043ZM225.685 107.215V107.746C225.689 108.293 225.689 108.926 225.505 109.77H226.497V110.379H220.091V109.77H224.755C224.943 108.953 224.95 108.355 224.95 107.824H220.896V107.215H225.685ZM220.872 113.777V111.27H225.693V113.777H220.872ZM221.599 113.176H224.958V111.855H221.599V113.176ZM228.727 111.043C228.719 112.52 228.301 113.742 227.571 114.793H226.805C227.344 114.016 227.86 112.441 227.86 111.043C227.86 109.648 227.344 108.074 226.805 107.301H227.571C228.301 108.348 228.719 109.57 228.727 111.043ZM201.088 122.449V123.168H198.58V122.449H201.088ZM203.857 125.277C202.548 125.277 201.779 124.223 201.779 122.371C201.779 120.531 202.556 119.465 203.857 119.465C205.154 119.465 205.931 120.531 205.935 122.371C205.931 124.223 205.165 125.277 203.857 125.277ZM202.638 122.371C202.634 123.781 203.091 124.535 203.857 124.535C204.618 124.535 205.075 123.781 205.075 122.371C205.075 120.965 204.614 120.195 203.857 120.191C203.095 120.195 202.638 120.965 202.638 122.371ZM206.664 125.199L209.188 120.324V120.277H206.274V119.543H210.079V120.309L207.563 125.199H206.664ZM210.324 125.254C210.019 125.25 209.765 125.004 209.769 124.699C209.765 124.395 210.019 124.145 210.324 124.145C210.625 124.145 210.875 124.395 210.879 124.699C210.875 125.004 210.625 125.25 210.324 125.254ZM211.679 125.199V124.574L213.639 122.598C214.261 121.953 214.569 121.594 214.569 121.098C214.569 120.539 214.116 120.184 213.522 120.184C212.893 120.184 212.495 120.582 212.491 121.184H211.679C211.671 120.148 212.46 119.465 213.538 119.465C214.628 119.465 215.382 120.156 215.389 121.074C215.382 121.707 215.085 122.211 214.022 123.254L212.874 124.418V124.465H215.483V125.199H211.679ZM218.213 125.277C216.982 125.277 216.127 124.613 216.135 123.691C216.127 122.965 216.646 122.371 217.314 122.27V122.238C216.732 122.105 216.346 121.59 216.346 120.973C216.346 120.102 217.131 119.465 218.213 119.465C219.279 119.465 220.068 120.102 220.072 120.973C220.068 121.59 219.674 122.105 219.104 122.238V122.27C219.764 122.371 220.287 122.965 220.291 123.691C220.287 124.613 219.424 125.277 218.213 125.277ZM217.01 123.629C216.998 124.184 217.467 124.566 218.213 124.566C218.947 124.566 219.416 124.184 219.416 123.629C219.416 123.047 218.908 122.621 218.213 122.621C217.51 122.621 216.998 123.047 217.01 123.629ZM217.182 121.051C217.186 121.578 217.607 121.945 218.213 121.941C218.803 121.945 219.232 121.582 219.229 121.051C219.232 120.523 218.818 120.164 218.213 120.168C217.592 120.164 217.186 120.523 217.182 121.051ZM221.161 123.043C221.169 121.57 221.587 120.348 222.318 119.301H223.083C222.544 120.074 222.029 121.648 222.029 123.043C222.029 124.441 222.544 126.016 223.083 126.793H222.318C221.587 125.742 221.169 124.52 221.161 123.043ZM229.079 122.449V123.043H226.961V124.41H229.805V125.02H223.399V124.41H226.219V123.043H224.204V119.402H229.008V120.012H224.954V120.91H228.86V121.496H224.954V122.449H229.079ZM232.035 123.043C232.027 124.52 231.609 125.742 230.879 126.793H230.113C230.652 126.016 231.168 124.441 231.168 123.043C231.168 121.648 230.652 120.074 230.113 119.301H230.879C231.609 120.348 232.027 121.57 232.035 123.043Z" fill="#4C4F56"/>
<path d="M212.191 145.762V152.535H207.374V145.762H212.191ZM208.277 151.785H211.288V146.5H208.277V151.785ZM214.429 155.172V144.73H215.355V155.172H214.429ZM225.742 144.73V155.148H224.863V144.73H225.742ZM216.707 152.371C218.16 151.504 219.01 149.6 219.004 147.707V146.723H217V145.961H221.805V146.723H219.895V147.707C219.895 149.506 220.709 151.305 222.145 152.137L221.582 152.816C220.557 152.201 219.83 151.076 219.467 149.752C219.092 151.188 218.336 152.412 217.293 153.062L216.707 152.371ZM221.008 149.242V148.492H222.766V144.988H223.633V154.609H222.766V149.242H221.008ZM236.399 149.371V150.086H232.099V151.059H235.181V153.309H228.993V154.328H235.497V155.031H228.079V152.652H234.278V151.75H228.056V151.059H231.196V150.086H226.919V149.371H236.399ZM227.423 148.188C229.333 148.064 230.962 147.414 231.132 146.371H227.891V145.645H231.196V144.672H232.099V145.645H235.438V146.371H232.169C232.333 147.414 233.962 148.064 235.884 148.188L235.602 148.891C233.862 148.744 232.292 148.205 231.653 147.215C231.009 148.205 229.438 148.744 227.692 148.891L227.423 148.188Z" fill="#27272D"/>
<path d="M22.8828 181.152V193.307H21.8574V181.152H22.8828ZM12.3418 190.066C14.0371 189.055 15.0283 186.833 15.0215 184.625V183.477H12.6836V182.588H18.2891V183.477H16.0605V184.625C16.0605 186.724 17.0107 188.822 18.6855 189.793L18.0293 190.586C16.833 189.868 15.9854 188.556 15.5615 187.011C15.124 188.686 14.2422 190.114 13.0254 190.873L12.3418 190.066ZM17.3594 186.416V185.541H19.4102V181.453H20.4219V192.678H19.4102V186.416H17.3594ZM35.456 186.566V187.4H30.4384V188.535H34.0341V191.16H26.8154V192.35H34.4033V193.17H25.749V190.395H32.9814V189.342H25.7216V188.535H29.3857V187.4H24.3955V186.566H35.456ZM24.9834 185.186C27.2119 185.042 29.1123 184.283 29.3105 183.066H25.5302V182.219H29.3857V181.084H30.4384V182.219H34.3349V183.066H30.5205C30.7119 184.283 32.6123 185.042 34.8545 185.186L34.5263 186.006C32.4961 185.835 30.664 185.206 29.9189 184.051C29.167 185.206 27.3349 185.835 25.2978 186.006L24.9834 185.186ZM41.8085 181.371C44.5087 181.371 46.0946 182.116 46.1015 183.463C46.0946 184.844 44.5087 185.589 41.8085 185.596C39.0946 185.589 37.5019 184.844 37.5019 183.463C37.5019 182.116 39.0946 181.371 41.8085 181.371ZM36.2714 187.291V186.416H47.3456V187.291H36.2714ZM37.6112 189.164V188.344H45.9237V191.064H38.705V192.322H46.2929V193.17H37.6386V190.271H44.871V189.164H37.6112ZM38.623 183.463C38.6093 184.311 39.7919 184.775 41.8085 184.775C43.8251 184.775 45.0009 184.311 45.0077 183.463C45.0009 182.663 43.8251 182.185 41.8085 182.178C39.7919 182.185 38.6093 182.663 38.623 183.463ZM55.1698 181.727C56.9471 181.727 58.1844 182.684 58.1912 184.133C58.1844 185.391 57.2069 186.293 55.744 186.478V187.667C56.8787 187.605 58.034 187.503 59.0936 187.346L59.1756 188.152C56.5985 188.61 53.6864 188.651 51.5877 188.645L51.451 187.756C52.3944 187.763 53.5018 187.756 54.6639 187.715V186.484C53.16 186.32 52.1551 185.411 52.162 184.133C52.1551 182.684 53.3924 181.727 55.1698 181.727ZM53.1737 184.133C53.16 185.056 53.9871 185.685 55.1698 185.691C56.3592 185.685 57.1727 185.056 57.1795 184.133C57.1727 183.189 56.3592 182.561 55.1698 182.561C53.9871 182.561 53.16 183.189 53.1737 184.133ZM53.2284 193.033V189.656H54.3084V192.131H61.3905V193.033H53.2284ZM59.8729 190.463V181.166H60.953V185.281H62.7713V186.197H60.953V190.463H59.8729ZM74.4832 190.9V191.803H63.3543V190.9H66.4852V188.59H64.7488V184.844H72.0223V182.943H64.7215V182.055H73.075V185.732H65.8152V187.701H73.3621V188.59H71.4617V190.9H74.4832ZM67.5379 190.9H70.409V188.59H67.5379V190.9ZM85.5662 181.166V188.699H84.5408V185.404H82.9548V188.508H81.9295V181.357H82.9548V184.516H84.5408V181.166H85.5662ZM75.1755 183.436V182.547H77.7732V181.207H78.8396V182.547H81.4099V183.436H75.1755ZM75.7088 186.129C75.7019 184.851 76.7752 184.051 78.3064 184.051C79.8445 184.051 80.9109 184.851 80.9177 186.129C80.9109 187.373 79.8445 188.207 78.3064 188.207C76.7752 188.207 75.7019 187.373 75.7088 186.129ZM76.0232 192.35C77.5476 191.83 78.491 190.586 78.4978 189.479V189.041H79.5505V189.479C79.5369 190.518 80.1043 191.604 81.2527 192.227C82.408 191.543 82.9959 190.367 83.0095 189.479V189.041H84.0623V189.479C84.0554 190.661 84.9783 191.871 86.5369 192.35L86.031 193.17C84.8074 192.746 83.9461 191.919 83.5222 190.928C83.1531 191.885 82.4148 192.808 81.2732 193.266C80.1043 192.828 79.3591 191.967 78.99 190.982C78.5457 191.926 77.7048 192.746 76.5427 193.17L76.0232 192.35ZM76.6658 186.129C76.6658 186.895 77.3357 187.394 78.3064 187.4C79.2771 187.394 79.947 186.895 79.947 186.129C79.947 185.343 79.2771 184.851 78.3064 184.857C77.3357 184.851 76.6658 185.343 76.6658 186.129ZM96.5398 181.152V185.965H98.5769V186.867H96.5398V193.334H95.4734V181.152H96.5398ZM87.6667 190.285V182.342H93.3405V183.23H88.7331V189.383C90.9343 189.376 92.4861 189.28 94.2976 188.945L94.4343 189.875C92.5271 190.217 90.9343 190.285 88.6237 190.285H87.6667ZM105.175 182.219V183.299H108.019V181.166H109.099V190.039H108.019V186.799H105.175V187.893H99.5973V182.219H105.175ZM100.664 187.031H104.123V183.107H100.664V187.031ZM101.238 193.047V189.246H102.318V192.145H109.373V193.047H101.238ZM105.175 185.91H108.019V184.201H105.175V185.91ZM112.909 191.283L111.842 195.002H110.831L111.583 191.283H112.909ZM128.704 187.332V188.221H123.768V190.709H122.688V188.221H117.575V187.332H128.704ZM118.833 183.914C118.826 182.403 120.528 181.474 123.126 181.467C125.723 181.474 127.405 182.403 127.405 183.914C127.405 185.411 125.723 186.341 123.126 186.334C120.528 186.341 118.826 185.411 118.833 183.914ZM119.01 193.047V189.492H120.09V192.131H127.46V193.047H119.01ZM119.981 183.914C119.967 184.857 121.232 185.459 123.126 185.459C125.012 185.459 126.27 184.857 126.27 183.914C126.27 182.943 125.012 182.349 123.126 182.342C121.232 182.349 119.967 182.943 119.981 183.914ZM132.828 181.891C133.853 181.884 134.721 182.273 135.289 182.916H138.474V181.152H139.554V188.357H138.474V186.621H135.289C134.728 187.264 133.853 187.653 132.828 187.646C131.009 187.653 129.663 186.464 129.669 184.775C129.663 183.073 131.009 181.884 132.828 181.891ZM130.695 184.775C130.695 185.903 131.584 186.737 132.828 186.73C134.031 186.737 134.933 185.903 134.933 184.775C134.933 183.62 134.031 182.813 132.828 182.82C131.584 182.813 130.695 183.62 130.695 184.775ZM131.447 190.955C131.44 189.492 132.999 188.645 135.521 188.645C138.037 188.645 139.595 189.492 139.595 190.955C139.595 192.432 138.037 193.279 135.521 193.279C132.999 193.279 131.44 192.432 131.447 190.955ZM132.5 190.955C132.493 191.871 133.655 192.425 135.521 192.418C137.387 192.425 138.549 191.871 138.543 190.955C138.549 190.032 137.387 189.485 135.521 189.479C133.655 189.485 132.493 190.032 132.5 190.955ZM135.801 183.791C135.911 184.092 135.972 184.42 135.972 184.775C135.972 185.117 135.911 185.438 135.808 185.732H138.474V183.791H135.801ZM145.743 183.764C145.749 185.404 147.041 186.881 148.86 187.455L148.313 188.316C146.898 187.831 145.777 186.833 145.223 185.555C144.697 186.936 143.555 188.029 142.106 188.562L141.545 187.701C143.371 187.065 144.656 185.486 144.663 183.764V183.053H141.819V182.178H148.545V183.053H145.743V183.764ZM143.555 193.047V189.232H144.622V192.145H151.786V193.047H143.555ZM150.336 190.08V181.166H151.403V190.08H150.336ZM166.049 181.166V184.844H167.868V185.746H166.049V189.314H164.969V181.166H166.049ZM156.506 188.07C157.477 188.07 158.612 188.07 159.801 188.036V187.141C158.386 187.011 157.47 186.361 157.477 185.35C157.47 184.242 158.612 183.559 160.321 183.559C162.043 183.559 163.164 184.242 163.178 185.35C163.164 186.354 162.276 187.004 160.868 187.141V187.995C162.002 187.94 163.151 187.845 164.217 187.688L164.313 188.467C161.674 188.932 158.769 188.952 156.629 188.945L156.506 188.07ZM156.807 183.094V182.273H159.801V181.057H160.868V182.273H163.848V183.094H156.807ZM157.996 190.777V189.916H166.049V193.307H164.969V190.777H157.996ZM158.502 185.35C158.496 185.985 159.2 186.416 160.321 186.402C161.442 186.416 162.153 185.985 162.153 185.35C162.153 184.707 161.442 184.311 160.321 184.324C159.2 184.311 158.496 184.707 158.502 185.35ZM178.486 181.166V190.053H177.419V181.166H178.486ZM168.738 184.994C168.731 183.244 170.105 182.021 171.923 182.014C173.742 182.021 175.102 183.244 175.109 184.994C175.102 186.765 173.742 187.995 171.923 187.988C170.105 187.995 168.731 186.765 168.738 184.994ZM169.79 184.994C169.777 186.204 170.693 187.045 171.923 187.045C173.133 187.045 174.056 186.204 174.056 184.994C174.056 183.805 173.133 182.957 171.923 182.957C170.693 182.957 169.777 183.805 169.79 184.994ZM170.638 193.047V189.15H171.704V192.145H178.869V193.047H170.638ZM194.075 182.547V183.436H184.218V182.547H188.648V181.084H189.7V182.547H194.075ZM183.644 189.916V189.027H194.773V189.916H189.7V193.334H188.648V189.916H183.644ZM185.216 186.17C185.202 184.857 186.693 184.133 189.181 184.133C191.649 184.133 193.139 184.857 193.146 186.17C193.139 187.455 191.649 188.18 189.181 188.193C186.693 188.18 185.202 187.455 185.216 186.17ZM186.324 186.17C186.31 186.922 187.369 187.366 189.181 187.359C190.972 187.366 192.025 186.922 192.038 186.17C192.025 185.404 190.972 184.96 189.181 184.953C187.369 184.96 186.31 185.404 186.324 186.17ZM205.167 182.355V190.258H199.548V182.355H205.167ZM200.601 189.383H204.114V183.217H200.601V189.383ZM207.779 193.334V181.152H208.859V193.334H207.779ZM214.883 183.408C214.883 185.192 216.107 186.874 217.863 187.564L217.262 188.398C215.929 187.845 214.883 186.737 214.37 185.356C213.851 186.847 212.757 188.029 211.342 188.617L210.754 187.756C212.566 187.059 213.823 185.315 213.83 183.408V181.85H214.883V183.408ZM212.942 193.047V189.301H214.022V192.145H221.076V193.047H212.942ZM217.221 186.348V185.473H219.723V183.859H217.221V182.971H219.723V181.166H220.803V190.244H219.723V186.348H217.221ZM235.408 181.166V184.844H237.227V185.746H235.408V189.314H234.328V181.166H235.408ZM225.865 188.07C226.836 188.07 227.971 188.07 229.16 188.036V187.141C227.745 187.011 226.829 186.361 226.836 185.35C226.829 184.242 227.971 183.559 229.68 183.559C231.402 183.559 232.524 184.242 232.537 185.35C232.524 186.354 231.635 187.004 230.227 187.141V187.995C231.361 187.94 232.51 187.845 233.576 187.688L233.672 188.467C231.033 188.932 228.128 188.952 225.988 188.945L225.865 188.07ZM226.166 183.094V182.273H229.16V181.057H230.227V182.273H233.207V183.094H226.166ZM227.356 190.777V189.916H235.408V193.307H234.328V190.777H227.356ZM227.861 185.35C227.855 185.985 228.559 186.416 229.68 186.402C230.801 186.416 231.512 185.985 231.512 185.35C231.512 184.707 230.801 184.311 229.68 184.324C228.559 184.311 227.855 184.707 227.861 185.35ZM247.845 181.166V190.053H246.778V181.166H247.845ZM238.097 184.994C238.09 183.244 239.464 182.021 241.282 182.014C243.101 182.021 244.461 183.244 244.468 184.994C244.461 186.765 243.101 187.995 241.282 187.988C239.464 187.995 238.09 186.765 238.097 184.994ZM239.149 184.994C239.136 186.204 240.052 187.045 241.282 187.045C242.492 187.045 243.415 186.204 243.415 184.994C243.415 183.805 242.492 182.957 241.282 182.957C240.052 182.957 239.136 183.805 239.149 184.994ZM239.997 193.047V189.15H241.064V192.145H248.228V193.047H239.997ZM257.063 183.121C257.063 184.775 258.321 186.293 260.085 186.895L259.497 187.742C258.157 187.25 257.098 186.245 256.564 184.974C256.045 186.416 254.958 187.53 253.536 188.084L252.962 187.223C254.78 186.546 256.004 184.919 256.011 183.039V181.781H257.063V183.121ZM254.575 191.064C254.582 189.677 256.106 188.863 258.608 188.863C261.103 188.863 262.614 189.677 262.614 191.064C262.614 192.479 261.103 193.279 258.608 193.279C256.106 193.279 254.582 192.479 254.575 191.064ZM255.655 191.064C255.642 191.926 256.776 192.425 258.608 192.432C260.447 192.425 261.568 191.926 261.575 191.064C261.568 190.237 260.447 189.725 258.608 189.725C256.776 189.725 255.642 190.237 255.655 191.064ZM261.438 188.549V181.152H262.505V184.324H264.337V185.227H262.505V188.549H261.438ZM270.197 182.561V183.436H266.41V185.773H270.019V186.635H266.41V189.383C268.215 189.376 269.336 189.321 270.662 189.082L270.758 189.971C269.329 190.244 268.16 190.306 266.164 190.299H265.385V182.561H270.197ZM271.564 192.691V181.412H272.603V186.047H274.271V181.152H275.31V193.307H274.271V186.936H272.603V192.691H271.564ZM21.8984 203.152V208.102H23.8672V209.004H21.8984V215.307H20.832V203.152H21.8984ZM12.5742 212.148C15.7119 210.59 17.4209 208.245 17.667 205.367H13.1348V204.465H18.7539C18.7471 207.903 17.1338 211.041 13.1758 212.996L12.5742 212.148ZM37.7616 203.166V212.162H36.6816V208.895H33.8105V210.084H28.3007V203.973H29.3671V206.133H32.7577V203.973H33.8105V205.395H36.6816V203.166H37.7616ZM29.3671 209.195H32.7577V206.98H29.3671V209.195ZM29.9003 215.047V211.273H30.9804V214.145H38.0351V215.047H29.9003ZM33.8105 208.006H36.6816V206.297H33.8105V208.006ZM49.6513 203.166V210.467H48.5712V208.826H45.3446V207.938H48.5712V206.297H45.4677C44.6679 208.252 42.7948 209.667 40.1903 210.439L39.7391 209.592C42.6718 208.724 44.5106 207.076 44.7225 204.971H40.3544V204.068H45.8915C45.8915 204.547 45.8368 205.005 45.7343 205.436H48.5712V203.166H49.6513ZM41.6122 212.914C41.6054 211.465 43.1845 210.59 45.6727 210.59C48.1337 210.59 49.7196 211.465 49.7196 212.914C49.7196 214.37 48.1337 215.252 45.6727 215.252C43.1845 215.252 41.6054 214.37 41.6122 212.914ZM42.6649 212.914C42.6718 213.83 43.8407 214.384 45.6727 214.377C47.4774 214.384 48.6464 213.83 48.6532 212.914C48.6464 211.998 47.4774 211.444 45.6727 211.451C43.8407 211.444 42.6718 211.998 42.6649 212.914ZM61.4998 203.166V210.152H60.4198V203.166H61.4998ZM51.5057 208.963C52.5379 208.963 53.7411 208.963 54.992 208.922V207.609H52.6131V203.768H58.3827V204.656H53.6932V206.748H58.492V207.609H56.0721V208.874C57.2 208.819 58.3416 208.73 59.408 208.58L59.4764 209.359C56.8104 209.811 53.8641 209.852 51.6698 209.852L51.5057 208.963ZM53.4881 215.143V210.699H54.5545V211.998H60.4471V210.699H61.4998V215.143H53.4881ZM54.5545 214.268H60.4471V212.832H54.5545V214.268ZM73.3758 203.152V215.307H72.3094V203.152H73.3758ZM64.1473 212.176V204.355H65.2V211.246C67.0594 211.232 68.9734 211.089 71.0105 210.658L71.1609 211.574C69.0008 212.025 67.0799 212.176 65.1316 212.176H64.1473ZM84.6502 203.152V207.965H86.6873V208.867H84.6502V215.334H83.5838V203.152H84.6502ZM75.7771 212.285V204.342H81.4509V205.23H76.8435V211.383C79.0447 211.376 80.5964 211.28 82.408 210.945L82.5447 211.875C80.6375 212.217 79.0447 212.285 76.7341 212.285H75.7771ZM88.4187 214.281C87.9402 214.274 87.53 213.878 87.5437 213.393C87.53 212.914 87.9402 212.518 88.4187 212.518C88.904 212.518 89.3005 212.914 89.2937 213.393C89.3005 213.878 88.904 214.274 88.4187 214.281Z" fill="#27272D"/>
<rect width="268" height="122.2" transform="translate(12 230.199)" fill="#F9F9F8"/>
<rect x="24.4" y="238.599" width="59.04" height="83.4" rx="2.8" fill="white"/>
<rect x="24.4" y="238.599" width="59.04" height="83.4" rx="2.8" stroke="#E7E7E7" stroke-width="0.8"/>
<rect x="30.4004" y="246.199" width="11.2" height="11.2" rx="5.6" fill="#7177F7"/>
<path d="M34 251.072L35.7778 253.414L38 250.184" stroke="white" stroke-width="0.8" stroke-linecap="round" stroke-linejoin="round"/>
<path d="M37.641 262.681V270.6H36.3723L32.6207 265.186H32.5551V270.6H31.1332V262.681H32.4238L36.1535 268.095H36.2301V262.681H37.641ZM46.6579 261.686V271.573H45.4438V261.686H46.6579ZM38.4657 268.828C39.2532 268.822 40.1446 268.822 41.0798 268.795V267.887C39.9696 267.712 39.2423 267.034 39.2423 266.093C39.2423 264.978 40.2321 264.239 41.6704 264.234C43.1251 264.239 44.1313 264.978 44.1313 266.093C44.1313 267.029 43.404 267.701 42.2938 267.882V268.751C43.1634 268.713 44.0384 268.642 44.8641 268.532L44.9516 269.44C42.7805 269.807 40.418 269.834 38.6407 269.834L38.4657 268.828ZM38.6735 263.786V262.823H41.0798V261.718H42.2938V262.823H44.6891V263.786H38.6735ZM40.4016 266.093C40.3907 266.662 40.9212 266.996 41.6704 266.99C42.4415 266.996 42.9665 266.662 42.961 266.093C42.9665 265.519 42.4415 265.169 41.6704 265.164C40.9212 265.169 40.3907 265.519 40.4016 266.093ZM51.2998 264.825C51.2998 266.29 52.1255 267.887 53.6513 268.609L52.9732 269.528C51.9013 269.036 51.1302 268.051 50.7146 266.897C50.2826 268.144 49.4677 269.194 48.3357 269.703L47.6685 268.762C49.2271 268.062 50.0966 266.378 50.0966 264.825V264.311H47.9857V263.337H50.0966V261.893H51.3107V263.337H53.3888V264.311H51.2998V264.825ZM54.3513 271.573V261.686H55.5654V265.601H57.0857V266.618H55.5654V271.573H54.3513ZM39.2379 274.686V284.573H38.0785V274.686H39.2379ZM30.5535 281.762C31.9809 280.893 32.6098 279.11 32.6098 277.387V276.731H30.8926V275.746H35.377V276.731H33.7801V277.387C33.7801 279.055 34.3762 280.729 35.7926 281.543L35.0707 282.44C34.1574 281.899 33.5504 280.958 33.2059 279.832C32.8559 281.051 32.227 282.09 31.2973 282.67L30.5535 281.762ZM34.6551 279.115V278.131H36.077V274.871H37.2254V284.092H36.077V279.115H34.6551ZM49.1188 278.962V279.859H45.2251V280.581H48.0141V282.9H42.3923V283.578H48.2876V284.486H41.2001V282.068H46.822V281.456H41.1891V280.581H44.022V279.859H40.1501V278.962H49.1188ZM40.5438 277.726C42.4962 277.628 43.6446 277.103 43.8962 276.403H41.0141V275.495H44.022V274.664H45.2251V275.495H48.2548V276.403H45.3509C45.5915 277.103 46.7399 277.628 48.7141 277.726L48.3532 278.634C46.5759 278.525 45.247 278.043 44.6235 277.245C44.0001 278.043 42.6766 278.525 40.8829 278.634L40.5438 277.726ZM55.526 276.107C55.5205 277.453 56.308 278.683 57.8557 279.17L57.1995 280.121C56.1221 279.739 55.3674 279.017 54.9463 278.082C54.5088 279.159 53.683 280.007 52.4854 280.428L51.8401 279.443C53.4752 278.907 54.2955 277.589 54.301 276.162V275.221H55.526V276.107ZM53.4807 282.67C53.4698 281.467 54.7549 280.761 56.8385 280.767C58.933 280.761 60.2127 281.467 60.2182 282.67C60.2127 283.873 58.933 284.562 56.8385 284.562C54.7549 284.562 53.4698 283.873 53.4807 282.67ZM54.6838 282.67C54.6784 283.271 55.4659 283.605 56.8385 283.611C58.2221 283.605 59.0041 283.271 59.0041 282.67C59.0041 282.046 58.2221 281.713 56.8385 281.707C55.4659 281.713 54.6784 282.046 54.6838 282.67ZM57.0026 277.595V276.6H58.9713V274.686H60.1854V280.504H58.9713V277.595H57.0026ZM65.757 280.865C67.9062 280.871 69.2624 281.549 69.2679 282.725C69.2624 283.873 67.9062 284.562 65.757 284.562C63.6296 284.562 62.257 283.873 62.257 282.725C62.257 281.549 63.6296 280.871 65.757 280.865ZM61.3273 280.154V279.17H64.8054V277.376H66.0085V279.17H70.296V280.154H61.3273ZM62.3554 276.118V275.156H69.2023V275.976C69.2077 276.758 69.2077 277.589 68.9288 278.601L67.7257 278.492C67.9718 277.535 67.9882 276.835 67.9882 276.118H62.3554ZM63.482 282.725C63.471 283.304 64.3296 283.621 65.757 283.621C67.1898 283.621 68.0538 283.304 68.0648 282.725C68.0538 282.123 67.1898 281.784 65.757 281.784C64.3296 281.784 63.471 282.123 63.482 282.725Z" fill="#5F66F6"/>
<path d="M32.4941 299.484C31.4707 299.48 30.7207 298.656 30.7207 297.289C30.7207 295.906 31.4824 295.102 32.502 295.102C33.291 295.102 33.5762 295.578 33.7285 295.844H33.7676V293.742H34.6035V299.398H33.791V298.734H33.7285C33.5723 299.012 33.2676 299.48 32.4941 299.484ZM31.5723 297.273C31.5684 298.125 31.9512 298.77 32.6816 298.773C33.3926 298.77 33.791 298.164 33.791 297.273C33.791 296.391 33.4004 295.809 32.6816 295.812C31.9434 295.809 31.5684 296.438 31.5723 297.273ZM37.0754 299.484C36.052 299.48 35.302 298.656 35.302 297.289C35.302 295.906 36.0637 295.102 37.0832 295.102C37.8723 295.102 38.1574 295.578 38.3098 295.844H38.3488V293.742H39.1848V299.398H38.3723V298.734H38.3098C38.1535 299.012 37.8488 299.48 37.0754 299.484ZM36.1535 297.273C36.1496 298.125 36.5324 298.77 37.2629 298.773C37.9738 298.77 38.3723 298.164 38.3723 297.273C38.3723 296.391 37.9816 295.809 37.2629 295.812C36.5246 295.809 36.1496 296.438 36.1535 297.273ZM40.6176 299.453C40.3129 299.449 40.059 299.203 40.0629 298.898C40.059 298.594 40.3129 298.344 40.6176 298.344C40.9184 298.344 41.1684 298.594 41.1723 298.898C41.1684 299.203 40.9184 299.449 40.6176 299.453ZM43.566 299.484C42.5426 299.48 41.7926 298.656 41.7926 297.289C41.7926 295.906 42.5543 295.102 43.5738 295.102C44.3629 295.102 44.648 295.578 44.8004 295.844H44.8395V293.742H45.6754V299.398H44.8629V298.734H44.8004C44.6441 299.012 44.3395 299.48 43.566 299.484ZM42.6441 297.273C42.6402 298.125 43.023 298.77 43.7535 298.773C44.4645 298.77 44.8629 298.164 44.8629 297.273C44.8629 296.391 44.4723 295.809 43.7535 295.812C43.0152 295.809 42.6402 296.438 42.6441 297.273ZM48.1473 299.484C47.1238 299.48 46.3738 298.656 46.3738 297.289C46.3738 295.906 47.1355 295.102 48.1551 295.102C48.9441 295.102 49.2293 295.578 49.3816 295.844H49.4207V293.742H50.2566V299.398H49.4441V298.734H49.3816C49.2254 299.012 48.9207 299.48 48.1473 299.484ZM47.2254 297.273C47.2215 298.125 47.6043 298.77 48.3348 298.773C49.0457 298.77 49.4441 298.164 49.4441 297.273C49.4441 296.391 49.0535 295.809 48.3348 295.812C47.5965 295.809 47.2215 296.438 47.2254 297.273ZM33.4082 308.648V309.367H30.9004V308.648H33.4082ZM35.802 311.484C34.7785 311.48 34.0285 310.656 34.0285 309.289C34.0285 307.906 34.7902 307.102 35.8098 307.102C36.5988 307.102 36.884 307.578 37.0363 307.844H37.0754V305.742H37.9113V311.398H37.0988V310.734H37.0363C36.8801 311.012 36.5754 311.48 35.802 311.484ZM34.8801 309.273C34.8762 310.125 35.259 310.77 35.9895 310.773C36.7004 310.77 37.0988 310.164 37.0988 309.273C37.0988 308.391 36.7082 307.809 35.9895 307.812C35.2512 307.809 34.8762 308.438 34.8801 309.273ZM40.3832 311.484C39.3598 311.48 38.6098 310.656 38.6098 309.289C38.6098 307.906 39.3715 307.102 40.391 307.102C41.1801 307.102 41.4652 307.578 41.6176 307.844H41.6566V305.742H42.4926V311.398H41.6801V310.734H41.6176C41.4613 311.012 41.1566 311.48 40.3832 311.484ZM39.4613 309.273C39.4574 310.125 39.8402 310.77 40.5707 310.773C41.2816 310.77 41.6801 310.164 41.6801 309.273C41.6801 308.391 41.2895 307.809 40.5707 307.812C39.8324 307.809 39.4574 308.438 39.4613 309.273ZM43.9254 311.453C43.6207 311.449 43.3668 311.203 43.3707 310.898C43.3668 310.594 43.6207 310.344 43.9254 310.344C44.2262 310.344 44.4762 310.594 44.4801 310.898C44.4762 311.203 44.2262 311.449 43.9254 311.453ZM46.8738 311.484C45.8504 311.48 45.1004 310.656 45.1004 309.289C45.1004 307.906 45.8621 307.102 46.8816 307.102C47.6707 307.102 47.9559 307.578 48.1082 307.844H48.1473V305.742H48.9832V311.398H48.1707V310.734H48.1082C47.952 311.012 47.6473 311.48 46.8738 311.484ZM45.952 309.273C45.948 310.125 46.3309 310.77 47.0613 310.773C47.7723 310.77 48.1707 310.164 48.1707 309.273C48.1707 308.391 47.7801 307.809 47.0613 307.812C46.323 307.809 45.948 308.438 45.952 309.273ZM51.4551 311.484C50.4316 311.48 49.6816 310.656 49.6816 309.289C49.6816 307.906 50.4434 307.102 51.4629 307.102C52.252 307.102 52.5371 307.578 52.6895 307.844H52.7285V305.742H53.5645V311.398H52.752V310.734H52.6895C52.5332 311.012 52.2285 311.48 51.4551 311.484ZM50.5332 309.273C50.5293 310.125 50.9121 310.77 51.6426 310.773C52.3535 310.77 52.752 310.164 52.752 309.273C52.752 308.391 52.3613 307.809 51.6426 307.812C50.9043 307.809 50.5293 308.438 50.5332 309.273Z" fill="#4C4F56"/>
<path d="M41.6001 330.93V341.348H40.7212V330.93H41.6001ZM32.5649 338.57C34.018 337.703 34.8677 335.799 34.8618 333.906V332.922H32.8579V332.16H37.6626V332.922H35.7524V333.906C35.7524 335.705 36.5669 337.504 38.0024 338.336L37.4399 339.016C36.4145 338.4 35.688 337.275 35.3247 335.951C34.9497 337.387 34.1938 338.611 33.1509 339.262L32.5649 338.57ZM36.8657 335.441V334.691H38.6235V331.188H39.4907V340.809H38.6235V335.441H36.8657ZM52.2571 335.57V336.285H47.9563V337.258H51.0384V339.508H44.8509V340.527H51.3548V341.23H43.9368V338.852H50.136V337.949H43.9134V337.258H47.054V336.285H42.7766V335.57H52.2571ZM43.2805 334.387C45.1907 334.264 46.8196 333.613 46.9895 332.57H43.7493V331.844H47.054V330.871H47.9563V331.844H51.2962V332.57H48.0266C48.1907 333.613 49.8196 334.264 51.7415 334.387L51.4602 335.09C49.72 334.943 48.1497 334.404 47.511 333.414C46.8665 334.404 45.2962 334.943 43.5501 335.09L43.2805 334.387ZM59.1337 332.57C59.122 334.059 60.1825 335.365 61.7118 335.887L61.1962 336.602C60.0477 336.174 59.1454 335.324 58.6942 334.229C58.2489 335.477 57.2997 336.443 56.0399 336.918L55.536 336.168C57.1415 335.605 58.2079 334.223 58.2196 332.605V331.527H59.1337V332.57ZM57.2352 339.379C57.2294 338.125 58.5595 337.404 60.7274 337.41C62.8895 337.404 64.2196 338.125 64.2196 339.379C64.2196 340.621 62.8895 341.324 60.7274 341.324C58.5595 341.324 57.2294 340.621 57.2352 339.379ZM58.1493 339.379C58.1434 340.135 59.1278 340.592 60.7274 340.586C62.3212 340.592 63.3055 340.135 63.3055 339.379C63.3055 338.6 62.3212 338.137 60.7274 338.137C59.1278 338.137 58.1434 338.6 58.1493 339.379ZM60.9384 333.93V333.168H63.2587V330.93H64.1845V337.105H63.2587V333.93H60.9384ZM70.3298 337.516C72.5622 337.516 73.9802 338.219 73.986 339.426C73.9802 340.621 72.5622 341.324 70.3298 341.324C68.0973 341.324 66.6794 340.621 66.6852 339.426C66.6794 338.219 68.0973 337.516 70.3298 337.516ZM65.6305 336.543V335.793H69.5563V333.777H70.4587V335.793H75.111V336.543H65.6305ZM66.7555 332.219V331.469H73.904V332.348C73.8981 333.191 73.8981 334.035 73.611 335.113L72.7087 335.008C72.9899 333.936 72.9899 333.162 72.9899 332.348V332.219H66.7555ZM67.5993 339.426C67.5934 340.152 68.6716 340.598 70.3298 340.598C71.9938 340.598 73.0602 340.152 73.072 339.426C73.0602 338.682 71.9938 338.225 70.3298 338.219C68.6716 338.225 67.5934 338.682 67.5993 339.426Z" fill="#27272D"/>
<rect x="108.24" y="238.599" width="59.04" height="83.4" rx="2.8" fill="white"/>
<rect x="108.24" y="238.599" width="59.04" height="83.4" rx="2.8" stroke="#E7E7E7" stroke-width="0.8"/>
<rect x="114.24" y="246.199" width="11.2" height="11.2" rx="5.6" fill="#7A7D84"/>
<path d="M117.84 251.072L119.618 253.414L121.84 250.184" stroke="white" stroke-width="0.8" stroke-linecap="round" stroke-linejoin="round"/>
<path d="M120.964 263.246V270.6H119.786L116.302 265.572H116.241V270.6H114.921V263.246H116.119L119.582 268.274H119.654V263.246H120.964ZM129.336 262.322V271.504H128.209V262.322H129.336ZM121.729 268.954C122.461 268.949 123.288 268.949 124.157 268.924V268.081C123.126 267.918 122.451 267.289 122.451 266.415C122.451 265.379 123.37 264.694 124.705 264.689C126.056 264.694 126.99 265.379 126.99 266.415C126.99 267.284 126.315 267.908 125.284 268.076V268.883C126.092 268.848 126.904 268.782 127.671 268.68L127.752 269.523C125.736 269.863 123.542 269.889 121.892 269.889L121.729 268.954ZM121.922 264.272V263.379H124.157V262.353H125.284V263.379H127.508V264.272H121.922ZM123.527 266.415C123.517 266.943 124.01 267.253 124.705 267.248C125.421 267.253 125.909 266.943 125.904 266.415C125.909 265.882 125.421 265.557 124.705 265.552C124.01 265.557 123.517 265.882 123.527 266.415ZM133.647 265.237C133.647 266.598 134.414 268.081 135.83 268.751L135.201 269.604C134.205 269.147 133.489 268.233 133.103 267.162C132.702 268.32 131.946 269.295 130.894 269.767L130.275 268.893C131.722 268.243 132.53 266.679 132.53 265.237V264.76H130.569V263.856H132.53V262.515H133.657V263.856H135.587V264.76H133.647V265.237ZM136.48 271.504V262.322H137.608V265.958H139.019V266.903H137.608V271.504H136.48ZM118.008 277.932C118.008 279.436 118.892 281.02 120.375 281.639L119.755 282.533C118.668 282.061 117.876 281.101 117.455 279.933C117.033 281.193 116.226 282.249 115.154 282.757L114.504 281.873C115.952 281.203 116.855 279.491 116.861 277.932V277.161H114.839V276.226H120.019V277.161H118.008V277.932ZM121.045 284.504V275.322H122.182V284.504H121.045ZM130.515 275.322V277.536H131.794V278.481H130.515V280.675H129.387V275.322H130.515ZM123.182 279.761C125.325 279.207 126.549 278.11 126.742 276.775H123.639V275.861H127.955C127.95 278.268 126.386 279.928 123.649 280.624L123.182 279.761ZM124.401 281.964V281.061H130.515V284.504H129.387V281.964H124.401ZM142.111 275.322V284.504H141.034V275.322H142.111ZM134.047 281.893C135.372 281.086 135.956 279.43 135.956 277.831V277.221H134.362V276.307H138.526V277.221H137.043V277.831C137.043 279.38 137.597 280.934 138.912 281.69L138.241 282.523C137.393 282.02 136.83 281.147 136.51 280.101C136.185 281.233 135.601 282.198 134.738 282.736L134.047 281.893ZM137.856 279.436V278.521H139.176V275.495H140.242V284.057H139.176V279.436H137.856ZM151.286 279.293V280.126H147.671V280.796H150.26V282.95H145.04V283.579H150.514V284.422H143.933V282.178H149.153V281.609H143.923V280.796H146.553V280.126H142.958V279.293H151.286ZM143.324 278.146C145.137 278.054 146.203 277.567 146.437 276.917H143.76V276.074H146.553V275.302H147.671V276.074H150.484V276.917H147.787C148.011 277.567 149.077 278.054 150.91 278.146L150.575 278.989C148.925 278.887 147.691 278.44 147.112 277.699C146.533 278.44 145.304 278.887 143.639 278.989L143.324 278.146Z" fill="#4C4F56"/>
<path d="M116.334 299.484C115.311 299.48 114.561 298.656 114.561 297.289C114.561 295.906 115.322 295.102 116.342 295.102C117.131 295.102 117.416 295.578 117.568 295.844H117.607V293.742H118.443V299.398H117.631V298.734H117.568C117.412 299.012 117.107 299.48 116.334 299.484ZM115.412 297.273C115.408 298.125 115.791 298.77 116.521 298.773C117.232 298.77 117.631 298.164 117.631 297.273C117.631 296.391 117.24 295.809 116.521 295.812C115.783 295.809 115.408 296.438 115.412 297.273ZM120.915 299.484C119.892 299.48 119.142 298.656 119.142 297.289C119.142 295.906 119.904 295.102 120.923 295.102C121.712 295.102 121.997 295.578 122.15 295.844H122.189V293.742H123.025V299.398H122.212V298.734H122.15C121.993 299.012 121.689 299.48 120.915 299.484ZM119.993 297.273C119.989 298.125 120.372 298.77 121.103 298.773C121.814 298.77 122.212 298.164 122.212 297.273C122.212 296.391 121.821 295.809 121.103 295.812C120.364 295.809 119.989 296.438 119.993 297.273ZM124.457 299.453C124.153 299.449 123.899 299.203 123.903 298.898C123.899 298.594 124.153 298.344 124.457 298.344C124.758 298.344 125.008 298.594 125.012 298.898C125.008 299.203 124.758 299.449 124.457 299.453ZM127.406 299.484C126.382 299.48 125.632 298.656 125.632 297.289C125.632 295.906 126.394 295.102 127.414 295.102C128.203 295.102 128.488 295.578 128.64 295.844H128.679V293.742H129.515V299.398H128.703V298.734H128.64C128.484 299.012 128.179 299.48 127.406 299.484ZM126.484 297.273C126.48 298.125 126.863 298.77 127.593 298.773C128.304 298.77 128.703 298.164 128.703 297.273C128.703 296.391 128.312 295.809 127.593 295.812C126.855 295.809 126.48 296.438 126.484 297.273ZM131.987 299.484C130.964 299.48 130.214 298.656 130.214 297.289C130.214 295.906 130.975 295.102 131.995 295.102C132.784 295.102 133.069 295.578 133.221 295.844H133.261V293.742H134.096V299.398H133.284V298.734H133.221C133.065 299.012 132.761 299.48 131.987 299.484ZM131.065 297.273C131.061 298.125 131.444 298.77 132.175 298.773C132.886 298.77 133.284 298.164 133.284 297.273C133.284 296.391 132.893 295.809 132.175 295.812C131.436 295.809 131.061 296.438 131.065 297.273ZM117.248 308.648V309.367H114.74V308.648H117.248ZM119.642 311.484C118.618 311.48 117.868 310.656 117.868 309.289C117.868 307.906 118.63 307.102 119.65 307.102C120.439 307.102 120.724 307.578 120.876 307.844H120.915V305.742H121.751V311.398H120.939V310.734H120.876C120.72 311.012 120.415 311.48 119.642 311.484ZM118.72 309.273C118.716 310.125 119.099 310.77 119.829 310.773C120.54 310.77 120.939 310.164 120.939 309.273C120.939 308.391 120.548 307.809 119.829 307.812C119.091 307.809 118.716 308.438 118.72 309.273ZM124.223 311.484C123.2 311.48 122.45 310.656 122.45 309.289C122.45 307.906 123.211 307.102 124.231 307.102C125.02 307.102 125.305 307.578 125.457 307.844H125.496V305.742H126.332V311.398H125.52V310.734H125.457C125.301 311.012 124.996 311.48 124.223 311.484ZM123.301 309.273C123.297 310.125 123.68 310.77 124.411 310.773C125.121 310.77 125.52 310.164 125.52 309.273C125.52 308.391 125.129 307.809 124.411 307.812C123.672 307.809 123.297 308.438 123.301 309.273ZM127.765 311.453C127.461 311.449 127.207 311.203 127.211 310.898C127.207 310.594 127.461 310.344 127.765 310.344C128.066 310.344 128.316 310.594 128.32 310.898C128.316 311.203 128.066 311.449 127.765 311.453ZM130.714 311.484C129.69 311.48 128.94 310.656 128.94 309.289C128.94 307.906 129.702 307.102 130.721 307.102C131.511 307.102 131.796 307.578 131.948 307.844H131.987V305.742H132.823V311.398H132.011V310.734H131.948C131.792 311.012 131.487 311.48 130.714 311.484ZM129.792 309.273C129.788 310.125 130.171 310.77 130.901 310.773C131.612 310.77 132.011 310.164 132.011 309.273C132.011 308.391 131.62 307.809 130.901 307.812C130.163 307.809 129.788 308.438 129.792 309.273ZM135.295 311.484C134.271 311.48 133.521 310.656 133.521 309.289C133.521 307.906 134.283 307.102 135.303 307.102C136.092 307.102 136.377 307.578 136.529 307.844H136.568V305.742H137.404V311.398H136.592V310.734H136.529C136.373 311.012 136.068 311.48 135.295 311.484ZM134.373 309.273C134.369 310.125 134.752 310.77 135.482 310.773C136.193 310.77 136.592 310.164 136.592 309.273C136.592 308.391 136.201 307.809 135.482 307.812C134.744 307.809 134.369 308.438 134.373 309.273Z" fill="#4C4F56"/>
<path d="M131.687 334.129C131.693 335.898 132.976 337.697 134.511 338.359L133.996 339.086C132.777 338.535 131.728 337.334 131.242 335.893C130.756 337.422 129.701 338.746 128.511 339.344L127.961 338.617C129.455 337.902 130.756 335.934 130.761 334.129V332.77H128.3V332.008H134.172V332.77H131.687V334.129ZM135.625 341.348V330.93H136.55V341.348H135.625ZM146.176 330.93V333.578H147.747V334.363H146.176V337.047H145.262V330.93H146.176ZM138.02 336.215C140.575 335.523 142.151 334.129 142.338 332.359H138.489V331.598H143.317C143.311 334.234 141.471 336.115 138.395 336.93L138.02 336.215ZM139.356 338.277V337.527H146.176V341.348H145.262V338.277H139.356Z" fill="#27272D"/>
<rect x="192.08" y="238.599" width="59.04" height="83.4" rx="2.8" fill="white"/>
<rect x="192.08" y="238.599" width="59.04" height="83.4" rx="2.8" stroke="#E7E7E7" stroke-width="0.8"/>
<rect x="198.48" y="246.599" width="10.4" height="10.4" rx="5.2" stroke="#BDBDBD" stroke-width="0.8"/>
<path d="M201.68 251.072L203.457 253.414L205.68 250.184" stroke="#BDBDBD" stroke-width="0.8" stroke-linecap="round" stroke-linejoin="round"/>
<path d="M204.804 263.246V270.6H203.625L200.142 265.572H200.081V270.6H198.761V263.246H199.959L203.422 268.274H203.493V263.246H204.804ZM213.176 262.322V271.504H212.049V262.322H213.176ZM205.569 268.954C206.301 268.949 207.128 268.949 207.997 268.924V268.081C206.966 267.918 206.29 267.289 206.29 266.415C206.29 265.379 207.21 264.694 208.545 264.689C209.896 264.694 210.83 265.379 210.83 266.415C210.83 267.284 210.155 267.908 209.124 268.076V268.883C209.931 268.848 210.744 268.782 211.511 268.68L211.592 269.523C209.576 269.863 207.382 269.889 205.732 269.889L205.569 268.954ZM205.762 264.272V263.379H207.997V262.353H209.124V263.379H211.348V264.272H205.762ZM207.367 266.415C207.357 266.943 207.849 267.253 208.545 267.248C209.261 267.253 209.749 266.943 209.744 266.415C209.749 265.882 209.261 265.557 208.545 265.552C207.849 265.557 207.357 265.882 207.367 266.415ZM217.487 265.237C217.487 266.598 218.253 268.081 219.67 268.751L219.041 269.604C218.045 269.147 217.329 268.233 216.943 267.162C216.542 268.32 215.785 269.295 214.734 269.767L214.115 268.893C215.562 268.243 216.369 266.679 216.369 265.237V264.76H214.409V263.856H216.369V262.515H217.497V263.856H219.426V264.76H217.487V265.237ZM220.32 271.504V262.322H221.448V265.958H222.859V266.903H221.448V271.504H220.32ZM206.286 275.322V284.504H205.21V275.322H206.286ZM198.222 281.893C199.548 281.086 200.132 279.43 200.132 277.831V277.221H198.537V276.307H202.701V277.221H201.218V277.831C201.218 279.38 201.772 280.934 203.087 281.69L202.417 282.523C201.569 282.02 201.005 281.147 200.685 280.101C200.36 281.233 199.776 282.198 198.913 282.736L198.222 281.893ZM202.031 279.436V278.521H203.351V275.495H204.418V284.057H203.351V279.436H202.031ZM215.461 279.293V280.126H211.846V280.796H214.436V282.95H209.215V283.579H214.69V284.422H208.108V282.178H213.329V281.609H208.098V280.796H210.729V280.126H207.133V279.293H215.461ZM207.499 278.146C209.312 278.054 210.378 277.567 210.612 276.917H207.936V276.074H210.729V275.302H211.846V276.074H214.659V276.917H211.963C212.186 277.567 213.253 278.054 215.086 278.146L214.751 278.989C213.1 278.887 211.866 278.44 211.287 277.699C210.708 278.44 209.479 278.887 207.814 278.989L207.499 278.146ZM225.291 275.332V277.983H226.57V278.918H225.291V282.086H224.163V275.332H225.291ZM218.364 280.593V275.982H219.481V277.384H221.624V275.982H222.741V280.593H218.364ZM219.41 284.321V281.406H220.538V283.407H225.656V284.321H219.41ZM219.481 279.7H221.624V278.257H219.481V279.7ZM234.466 275.322V284.514H233.339V280.746H231.663V279.821H233.339V278.247H231.693V277.323H233.339V275.322H234.466ZM227.082 277.018V276.114H231.175V279.547H228.23V281.497C229.444 281.492 230.495 281.436 231.734 281.254L231.825 282.178C230.419 282.401 229.251 282.432 227.824 282.432H227.113V278.664H230.068V277.018H227.082Z" fill="#4C4F56"/>
<path d="M200.174 299.484C199.15 299.48 198.4 298.656 198.4 297.289C198.4 295.906 199.162 295.102 200.182 295.102C200.971 295.102 201.256 295.578 201.408 295.844H201.447V293.742H202.283V299.398H201.471V298.734H201.408C201.252 299.012 200.947 299.48 200.174 299.484ZM199.252 297.273C199.248 298.125 199.631 298.77 200.361 298.773C201.072 298.77 201.471 298.164 201.471 297.273C201.471 296.391 201.08 295.809 200.361 295.812C199.623 295.809 199.248 296.438 199.252 297.273ZM204.755 299.484C203.732 299.48 202.982 298.656 202.982 297.289C202.982 295.906 203.743 295.102 204.763 295.102C205.552 295.102 205.837 295.578 205.989 295.844H206.029V293.742H206.864V299.398H206.052V298.734H205.989C205.833 299.012 205.529 299.48 204.755 299.484ZM203.833 297.273C203.829 298.125 204.212 298.77 204.943 298.773C205.654 298.77 206.052 298.164 206.052 297.273C206.052 296.391 205.661 295.809 204.943 295.812C204.204 295.809 203.829 296.438 203.833 297.273ZM208.297 299.453C207.993 299.449 207.739 299.203 207.743 298.898C207.739 298.594 207.993 298.344 208.297 298.344C208.598 298.344 208.848 298.594 208.852 298.898C208.848 299.203 208.598 299.449 208.297 299.453ZM211.246 299.484C210.222 299.48 209.472 298.656 209.472 297.289C209.472 295.906 210.234 295.102 211.254 295.102C212.043 295.102 212.328 295.578 212.48 295.844H212.519V293.742H213.355V299.398H212.543V298.734H212.48C212.324 299.012 212.019 299.48 211.246 299.484ZM210.324 297.273C210.32 298.125 210.703 298.77 211.433 298.773C212.144 298.77 212.543 298.164 212.543 297.273C212.543 296.391 212.152 295.809 211.433 295.812C210.695 295.809 210.32 296.438 210.324 297.273ZM215.827 299.484C214.804 299.48 214.054 298.656 214.054 297.289C214.054 295.906 214.815 295.102 215.835 295.102C216.624 295.102 216.909 295.578 217.061 295.844H217.1V293.742H217.936V299.398H217.124V298.734H217.061C216.905 299.012 216.6 299.48 215.827 299.484ZM214.905 297.273C214.901 298.125 215.284 298.77 216.014 298.773C216.725 298.77 217.124 298.164 217.124 297.273C217.124 296.391 216.733 295.809 216.014 295.812C215.276 295.809 214.901 296.438 214.905 297.273ZM201.088 308.648V309.367H198.58V308.648H201.088ZM203.482 311.484C202.458 311.48 201.708 310.656 201.708 309.289C201.708 307.906 202.47 307.102 203.489 307.102C204.279 307.102 204.564 307.578 204.716 307.844H204.755V305.742H205.591V311.398H204.779V310.734H204.716C204.56 311.012 204.255 311.48 203.482 311.484ZM202.56 309.273C202.556 310.125 202.939 310.77 203.669 310.773C204.38 310.77 204.779 310.164 204.779 309.273C204.779 308.391 204.388 307.809 203.669 307.812C202.931 307.809 202.556 308.438 202.56 309.273ZM208.063 311.484C207.039 311.48 206.289 310.656 206.289 309.289C206.289 307.906 207.051 307.102 208.071 307.102C208.86 307.102 209.145 307.578 209.297 307.844H209.336V305.742H210.172V311.398H209.36V310.734H209.297C209.141 311.012 208.836 311.48 208.063 311.484ZM207.141 309.273C207.137 310.125 207.52 310.77 208.25 310.773C208.961 310.77 209.36 310.164 209.36 309.273C209.36 308.391 208.969 307.809 208.25 307.812C207.512 307.809 207.137 308.438 207.141 309.273ZM211.605 311.453C211.3 311.449 211.046 311.203 211.05 310.898C211.046 310.594 211.3 310.344 211.605 310.344C211.906 310.344 212.156 310.594 212.16 310.898C212.156 311.203 211.906 311.449 211.605 311.453ZM214.554 311.484C213.53 311.48 212.78 310.656 212.78 309.289C212.78 307.906 213.542 307.102 214.561 307.102C215.35 307.102 215.636 307.578 215.788 307.844H215.827V305.742H216.663V311.398H215.85V310.734H215.788C215.632 311.012 215.327 311.48 214.554 311.484ZM213.632 309.273C213.628 310.125 214.011 310.77 214.741 310.773C215.452 310.77 215.85 310.164 215.85 309.273C215.85 308.391 215.46 307.809 214.741 307.812C214.003 307.809 213.628 308.438 213.632 309.273ZM219.135 311.484C218.111 311.48 217.361 310.656 217.361 309.289C217.361 307.906 218.123 307.102 219.143 307.102C219.932 307.102 220.217 307.578 220.369 307.844H220.408V305.742H221.244V311.398H220.432V310.734H220.369C220.213 311.012 219.908 311.48 219.135 311.484ZM218.213 309.273C218.209 310.125 218.592 310.77 219.322 310.773C220.033 310.77 220.432 310.164 220.432 309.273C220.432 308.391 220.041 307.809 219.322 307.812C218.584 307.809 218.209 308.438 218.213 309.273Z" fill="#4C4F56"/>
<path d="M219.945 330.941V334.094H221.515V334.867H219.945V338.594H219.031V330.941H219.945ZM212.246 336.836V331.691H213.148V333.449H216.183V331.691H217.097V336.836H212.246ZM213.148 336.086H216.183V334.176H213.148V336.086ZM213.429 341.125V337.844H214.332V340.352H220.425V341.125H213.429ZM230.497 330.93V341.371H229.583V336.93H227.415V336.156H229.583V334.082H227.497V333.309H229.583V330.93H230.497ZM222.235 332.641V331.879H226.817V335.582H223.184V338.148C224.749 338.148 226.043 338.09 227.625 337.844L227.708 338.617C226.043 338.875 224.708 338.934 223.043 338.934H222.27V334.832H225.915V332.641H222.235Z" fill="#27272D"/>
</svg>
