<svg width="494" height="302" viewBox="0 0 494 302" fill="none" xmlns="http://www.w3.org/2000/svg">
<path d="M0 0H494V290C494 296.627 488.627 302 482 302H12C5.37259 302 0 296.627 0 290V0Z" fill="#BACEE0"/>
<rect x="224" y="50" width="193" height="49" rx="10" fill="white"/>
<path d="M250.678 80.1895H249.379V73.3809H246.85V72.3145H249.379V67.9121H250.678V80.1895ZM240.314 76.7715C240.93 76.4798 241.479 76.0492 241.962 75.4795C242.45 74.9053 242.83 74.2581 243.104 73.5381C243.377 72.8135 243.514 72.0866 243.514 71.3574V70.209H240.807V69.1426H247.547V70.209H244.826V71.3574C244.826 72.0456 244.961 72.7337 245.229 73.4219C245.503 74.11 245.881 74.7275 246.364 75.2744C246.847 75.8167 247.396 76.2246 248.012 76.498L247.232 77.5371C246.54 77.1999 245.927 76.6986 245.394 76.0332C244.865 75.3678 244.462 74.609 244.184 73.7568C243.906 74.6592 243.498 75.4681 242.96 76.1836C242.422 76.8945 241.805 77.4277 241.107 77.7832L240.314 76.7715ZM262.113 72.5332H253.677V68.3496H254.962V71.4941H262.113V72.5332ZM252.187 74.0781H263.398V75.1172H252.187V74.0781ZM253.582 76.2793H254.88V78.8086H262.195V79.875H253.582V76.2793ZM271.052 79.1367C270.382 79.1367 269.764 78.9886 269.199 78.6924C268.634 78.3916 268.171 77.888 267.811 77.1816C267.456 76.4707 267.278 75.5365 267.278 74.3789C267.278 73.2441 267.435 72.2712 267.75 71.46C268.064 70.6442 268.511 70.0244 269.09 69.6006C269.673 69.1768 270.359 68.9648 271.147 68.9648C271.744 68.9648 272.28 69.0811 272.754 69.3135C273.228 69.5413 273.613 69.8604 273.909 70.2705C274.205 70.6807 274.392 71.1478 274.47 71.6719H272.979C272.874 71.2526 272.663 70.9176 272.344 70.667C272.029 70.4118 271.63 70.2819 271.147 70.2773C270.641 70.2773 270.206 70.4209 269.842 70.708C269.482 70.9906 269.206 71.3984 269.014 71.9316C268.823 72.4648 268.727 73.1029 268.727 73.8457H268.837C269.106 73.4264 269.461 73.1006 269.903 72.8682C270.35 72.6312 270.842 72.5104 271.38 72.5059C271.963 72.5059 272.499 72.6471 272.986 72.9297C273.474 73.2077 273.859 73.5951 274.141 74.0918C274.424 74.584 274.565 75.14 274.565 75.7598C274.565 76.3932 274.417 76.9674 274.121 77.4824C273.829 77.9974 273.417 78.403 272.884 78.6992C272.35 78.9909 271.74 79.1367 271.052 79.1367ZM268.905 75.8008C268.905 76.1654 268.996 76.5072 269.179 76.8262C269.365 77.1452 269.618 77.4004 269.937 77.5918C270.256 77.7832 270.614 77.8789 271.011 77.8789C271.402 77.8789 271.758 77.7855 272.077 77.5986C272.396 77.4072 272.647 77.1543 272.829 76.8398C273.011 76.5208 273.102 76.1699 273.102 75.7871C273.102 75.4134 273.013 75.0693 272.836 74.7549C272.658 74.4404 272.412 74.1921 272.097 74.0098C271.788 73.8275 271.439 73.7363 271.052 73.7363C270.66 73.7363 270.3 73.832 269.971 74.0234C269.643 74.2103 269.384 74.4632 269.192 74.7822C269.005 75.0967 268.91 75.4362 268.905 75.8008ZM285.877 80.1621H284.633V73.8047H283.116V79.5742H281.899V68.2402H283.116V72.752H284.633V67.9121H285.877V80.1621ZM275.35 76.6621C276.662 75.9147 277.642 75.0329 278.289 74.0166C278.937 73.0003 279.313 71.8405 279.417 70.5371H275.87V69.4707H280.682C280.677 71.2161 280.327 72.7679 279.629 74.126C278.932 75.484 277.756 76.6302 276.102 77.5645L275.35 76.6621ZM297.326 75.1035H296.027V74.5156H293.635V73.6953H296.027V67.9258H297.326V75.1035ZM287.694 72.4375C289.08 72.4375 290.388 72.417 291.618 72.376C292.853 72.335 294.022 72.2552 295.125 72.1367L295.193 72.9707C294.182 73.1165 293.006 73.2236 291.666 73.292V75.1309H290.381V73.3398C289.538 73.3626 288.804 73.374 288.18 73.374L287.264 73.3672L287.113 72.4375H287.694ZM288.029 69.9766C288.029 69.6074 288.155 69.2839 288.405 69.0059C288.656 68.7279 289.011 68.5137 289.472 68.3633C289.937 68.2083 290.477 68.1309 291.092 68.1309C291.693 68.1309 292.224 68.2083 292.685 68.3633C293.149 68.5137 293.509 68.7279 293.765 69.0059C294.02 69.2839 294.15 69.6074 294.154 69.9766C294.15 70.3503 294.02 70.6761 293.765 70.9541C293.509 71.2275 293.152 71.4395 292.691 71.5898C292.231 71.7357 291.698 71.8086 291.092 71.8086C290.477 71.8086 289.937 71.7357 289.472 71.5898C289.011 71.4395 288.656 71.2275 288.405 70.9541C288.155 70.6761 288.029 70.3503 288.029 69.9766ZM288.945 75.5137H297.326V78.1523H290.271V79.0957H297.695V80.0391H289V77.291H296.041V76.416H288.945V75.5137ZM289.246 69.9766C289.246 70.168 289.321 70.3366 289.472 70.4824C289.622 70.6237 289.836 70.7354 290.114 70.8174C290.392 70.8949 290.718 70.9336 291.092 70.9336C291.461 70.9336 291.782 70.8949 292.056 70.8174C292.334 70.7354 292.548 70.6237 292.698 70.4824C292.849 70.3366 292.924 70.168 292.924 69.9766C292.924 69.7806 292.849 69.6097 292.698 69.4639C292.548 69.318 292.334 69.2064 292.056 69.1289C291.782 69.0469 291.461 69.0059 291.092 69.0059C290.718 69.0059 290.392 69.0469 290.114 69.1289C289.836 69.2064 289.622 69.318 289.472 69.4639C289.321 69.6097 289.246 69.7806 289.246 69.9766ZM302.882 68.7871C303.52 68.7871 304.092 68.9102 304.598 69.1562C305.104 69.3978 305.501 69.7419 305.788 70.1885C306.075 70.6305 306.218 71.1341 306.218 71.6992C306.218 72.2643 306.075 72.7702 305.788 73.2168C305.501 73.6589 305.104 74.0052 304.598 74.2559C304.092 74.502 303.52 74.625 302.882 74.625C302.244 74.625 301.67 74.502 301.16 74.2559C300.654 74.0052 300.257 73.6589 299.97 73.2168C299.688 72.7702 299.546 72.2643 299.546 71.6992C299.546 71.1341 299.688 70.6305 299.97 70.1885C300.257 69.7464 300.654 69.4023 301.16 69.1562C301.67 68.9102 302.244 68.7871 302.882 68.7871ZM298.959 76.4707C300.499 76.4707 301.921 76.4456 303.224 76.3955C304.528 76.3454 305.772 76.2337 306.957 76.0605L307.052 77.0039C305.831 77.2409 304.589 77.3913 303.327 77.4551C302.069 77.5189 300.668 77.5508 299.123 77.5508L298.959 76.4707ZM300.832 71.6992C300.827 72.0547 300.911 72.3691 301.085 72.6426C301.262 72.9115 301.506 73.1211 301.816 73.2715C302.13 73.4173 302.486 73.4902 302.882 73.4902C303.279 73.4902 303.632 73.4173 303.942 73.2715C304.256 73.1211 304.503 72.9115 304.68 72.6426C304.858 72.3691 304.947 72.0547 304.947 71.6992C304.947 71.3483 304.858 71.0384 304.68 70.7695C304.503 70.4961 304.256 70.2842 303.942 70.1338C303.628 69.9834 303.274 69.9082 302.882 69.9082C302.486 69.9082 302.13 69.9834 301.816 70.1338C301.506 70.2842 301.262 70.4961 301.085 70.7695C300.911 71.0384 300.827 71.3483 300.832 71.6992ZM307.722 67.9121H309.021V80.1895H307.722V67.9121ZM323.866 76.8262H322.567V67.9258H323.866V76.8262ZM313.954 71.7812C313.954 71.2025 314.097 70.6829 314.385 70.2227C314.672 69.7624 315.064 69.4023 315.56 69.1426C316.057 68.8783 316.611 68.7461 317.221 68.7461C317.832 68.7461 318.384 68.8783 318.876 69.1426C319.373 69.4023 319.762 69.7624 320.045 70.2227C320.332 70.6829 320.475 71.2025 320.475 71.7812C320.475 72.3691 320.332 72.8955 320.045 73.3604C319.762 73.8206 319.373 74.1807 318.876 74.4404C318.384 74.7002 317.832 74.8301 317.221 74.8301C316.611 74.8301 316.057 74.7002 315.56 74.4404C315.064 74.1807 314.672 73.8206 314.385 73.3604C314.097 72.8955 313.954 72.3691 313.954 71.7812ZM315.225 71.7812C315.225 72.1595 315.31 72.4945 315.478 72.7861C315.651 73.0732 315.891 73.2965 316.196 73.4561C316.501 73.6156 316.843 73.6953 317.221 73.6953C317.595 73.6953 317.932 73.6156 318.233 73.4561C318.534 73.2965 318.771 73.0732 318.944 72.7861C319.117 72.4945 319.204 72.1595 319.204 71.7812C319.204 71.4121 319.117 71.084 318.944 70.7969C318.771 70.5052 318.534 70.2796 318.233 70.1201C317.932 69.9606 317.595 69.8809 317.221 69.8809C316.843 69.8809 316.501 69.9606 316.196 70.1201C315.891 70.2796 315.651 70.5052 315.478 70.7969C315.31 71.084 315.225 71.4121 315.225 71.7812ZM315.854 75.9238H317.167V78.8496H324.235V79.9023H315.854V75.9238ZM335.67 76.9902H334.371V72.3691H332.075V71.3164H334.371V67.9258H335.67V76.9902ZM326.073 68.8691H331.623V69.9219H327.358V71.4395H331.268V72.4648H327.358V74.0781C328.483 74.0781 329.395 74.0576 330.092 74.0166C330.789 73.9756 331.491 73.8913 332.198 73.7637L332.321 74.8164C331.555 74.9531 330.787 75.0443 330.017 75.0898C329.251 75.1354 328.242 75.1582 326.989 75.1582H326.073V68.8691ZM327.686 76.2109H328.998V78.8496H335.985V79.9023H327.686V76.2109ZM350.461 80.1621H349.148V67.9121H350.461V80.1621ZM340.398 76.8809C342.002 76.1152 343.221 75.1833 344.055 74.085C344.889 72.9867 345.37 71.7129 345.498 70.2637H340.986V69.2246H346.81C346.81 71.1204 346.357 72.8044 345.45 74.2764C344.547 75.7484 343.091 76.9674 341.082 77.9336L340.398 76.8809ZM361.65 71.5352H363.427V72.6152H361.65V76.8125H360.337V67.9121H361.65V71.5352ZM352.011 74.4336C352.963 74.1465 353.791 73.7796 354.492 73.333C355.199 72.8818 355.757 72.3691 356.167 71.7949C356.582 71.2161 356.83 70.5918 356.912 69.9219H352.53V68.8418H358.327C358.327 69.8991 358.097 70.863 357.637 71.7334C357.177 72.5993 356.514 73.349 355.648 73.9824C354.786 74.6113 353.756 75.1081 352.558 75.4727L352.011 74.4336ZM353.87 75.8965H355.183V78.8496H362.155V79.9023H353.87V75.8965ZM378.026 74.9121H366.842V73.873H371.805V72.5742H368.237V68.4727H376.645V69.498H369.522V71.5352H376.727V72.5742H373.063V73.873H378.026V74.9121ZM368.168 77.9336C368.168 77.4642 368.337 77.0632 368.674 76.7305C369.011 76.3978 369.499 76.1449 370.137 75.9717C370.775 75.7939 371.536 75.7051 372.42 75.7051C373.3 75.7051 374.054 75.7939 374.683 75.9717C375.316 76.1449 375.802 76.3978 376.139 76.7305C376.476 77.0632 376.645 77.4642 376.645 77.9336C376.645 78.403 376.476 78.804 376.139 79.1367C375.802 79.4694 375.316 79.7223 374.683 79.8955C374.054 80.0732 373.3 80.1621 372.42 80.1621C371.536 80.1621 370.775 80.0732 370.137 79.8955C369.499 79.7223 369.011 79.4694 368.674 79.1367C368.337 78.804 368.168 78.403 368.168 77.9336ZM369.481 77.9336C369.476 78.3255 369.729 78.6263 370.24 78.8359C370.755 79.0456 371.482 79.1458 372.42 79.1367C373.345 79.1458 374.063 79.0456 374.574 78.8359C375.089 78.6263 375.346 78.3255 375.346 77.9336C375.346 77.5462 375.089 77.2477 374.574 77.0381C374.063 76.8239 373.345 76.7168 372.42 76.7168C371.486 76.7168 370.761 76.8239 370.246 77.0381C369.732 77.2477 369.476 77.5462 369.481 77.9336ZM388.217 71.5625H389.994V72.6562H388.217V76.9082H386.918V67.8984H388.217V71.5625ZM378.783 71.7949C378.779 71.2116 378.918 70.6898 379.2 70.2295C379.487 69.7646 379.879 69.4023 380.376 69.1426C380.873 68.8783 381.426 68.7461 382.037 68.7461C382.648 68.7461 383.201 68.8783 383.698 69.1426C384.195 69.4023 384.585 69.7646 384.867 70.2295C385.154 70.6898 385.3 71.2116 385.305 71.7949C385.3 72.3783 385.154 72.9023 384.867 73.3672C384.585 73.832 384.195 74.1943 383.698 74.4541C383.201 74.7139 382.648 74.8438 382.037 74.8438C381.426 74.8438 380.873 74.7139 380.376 74.4541C379.879 74.1943 379.487 73.832 379.2 73.3672C378.918 72.9023 378.779 72.3783 378.783 71.7949ZM380.055 71.7949C380.05 72.1686 380.134 72.5013 380.308 72.793C380.481 73.0801 380.718 73.3057 381.019 73.4697C381.324 73.6292 381.663 73.709 382.037 73.709C382.411 73.709 382.748 73.6292 383.049 73.4697C383.354 73.3057 383.593 73.0801 383.767 72.793C383.944 72.5013 384.033 72.1686 384.033 71.7949C384.033 71.4212 383.944 71.0908 383.767 70.8037C383.593 70.512 383.354 70.2865 383.049 70.127C382.748 69.9629 382.411 69.8809 382.037 69.8809C381.663 69.8809 381.324 69.9629 381.019 70.127C380.718 70.2865 380.481 70.512 380.308 70.8037C380.134 71.0908 380.05 71.4212 380.055 71.7949ZM380.451 75.9648H381.75V78.8496H388.736V79.9023H380.451V75.9648ZM391.736 79.0957C391.563 79.0957 391.401 79.0524 391.251 78.9658C391.105 78.8792 390.986 78.763 390.895 78.6172C390.809 78.4714 390.765 78.3118 390.765 78.1387C390.765 77.9609 390.809 77.7969 390.895 77.6465C390.982 77.4961 391.098 77.3776 391.244 77.291C391.394 77.1999 391.558 77.1543 391.736 77.1543C391.909 77.1543 392.069 77.1976 392.214 77.2842C392.365 77.3708 392.483 77.4893 392.57 77.6396C392.661 77.79 392.707 77.9518 392.707 78.125C392.707 78.2982 392.661 78.46 392.57 78.6104C392.483 78.7562 392.365 78.8747 392.214 78.9658C392.069 79.0524 391.909 79.0957 391.736 79.0957ZM395.077 79.0957C394.904 79.0957 394.742 79.0524 394.592 78.9658C394.446 78.8792 394.328 78.763 394.237 78.6172C394.15 78.4714 394.107 78.3118 394.107 78.1387C394.107 77.9609 394.15 77.7969 394.237 77.6465C394.323 77.4961 394.439 77.3776 394.585 77.291C394.736 77.1999 394.9 77.1543 395.077 77.1543C395.251 77.1543 395.41 77.1976 395.556 77.2842C395.706 77.3708 395.825 77.4893 395.911 77.6396C396.002 77.79 396.048 77.9518 396.048 78.125C396.048 78.2982 396.002 78.46 395.911 78.6104C395.825 78.7562 395.706 78.8747 395.556 78.9658C395.41 79.0524 395.251 79.0957 395.077 79.0957ZM398.419 79.0957C398.246 79.0957 398.084 79.0524 397.933 78.9658C397.788 78.8792 397.669 78.763 397.578 78.6172C397.491 78.4714 397.448 78.3118 397.448 78.1387C397.448 77.9609 397.491 77.7969 397.578 77.6465C397.665 77.4961 397.781 77.3776 397.927 77.291C398.077 77.1999 398.241 77.1543 398.419 77.1543C398.592 77.1543 398.751 77.1976 398.897 77.2842C399.048 77.3708 399.166 77.4893 399.253 77.6396C399.344 77.79 399.389 77.9518 399.389 78.125C399.389 78.2982 399.344 78.46 399.253 78.6104C399.166 78.7562 399.048 78.8747 398.897 78.9658C398.751 79.0524 398.592 79.0957 398.419 79.0957Z" fill="black"/>
<rect x="174" y="190" width="243" height="49" rx="10" fill="white"/>
<path d="M194.99 210.113C194.99 210.637 195.113 211.146 195.359 211.638C195.61 212.125 195.965 212.558 196.426 212.937C196.891 213.31 197.433 213.595 198.053 213.791L197.383 214.803C196.686 214.57 196.075 214.224 195.551 213.764C195.031 213.303 194.632 212.763 194.354 212.144C194.076 212.813 193.671 213.399 193.138 213.9C192.604 214.402 191.978 214.78 191.258 215.035L190.588 214.037C191.212 213.818 191.757 213.508 192.222 213.107C192.687 212.702 193.044 212.239 193.295 211.72C193.55 211.2 193.678 210.665 193.678 210.113V209.771H190.93V208.719H197.684V209.771H194.99V210.113ZM192.311 215.924H200.609V220.162H199.311V216.977H192.311V215.924ZM199.311 207.912H200.609V215.309H199.311V207.912ZM213.398 215.992H208.394V220.148H207.123V215.992H202.187V214.939H213.398V215.992ZM203.595 208.568H211.99V213.381H203.595V208.568ZM210.691 212.369V209.607H204.867V212.369H210.691ZM217.628 208.691C218.252 208.691 218.813 208.814 219.31 209.061C219.811 209.307 220.205 209.651 220.492 210.093C220.779 210.535 220.923 211.038 220.923 211.604C220.923 212.1 220.811 212.551 220.588 212.957C220.365 213.363 220.053 213.695 219.652 213.955C219.255 214.215 218.799 214.386 218.284 214.468V216.409C219.501 216.35 220.563 216.261 221.47 216.143L221.566 217.113C220.558 217.286 219.503 217.407 218.401 217.476C217.298 217.539 216.158 217.571 214.983 217.571L214.005 217.564L213.8 216.498H213.937C215.281 216.489 216.297 216.475 216.986 216.457V214.468C216.461 214.39 215.999 214.222 215.598 213.962C215.197 213.702 214.885 213.369 214.661 212.964C214.443 212.558 214.333 212.105 214.333 211.604C214.333 211.038 214.472 210.535 214.75 210.093C215.033 209.651 215.425 209.307 215.926 209.061C216.427 208.814 216.995 208.691 217.628 208.691ZM215.591 211.604C215.591 211.959 215.678 212.276 215.851 212.554C216.024 212.827 216.265 213.039 216.575 213.189C216.89 213.335 217.241 213.408 217.628 213.408C218.011 213.408 218.355 213.335 218.66 213.189C218.97 213.039 219.212 212.827 219.385 212.554C219.563 212.276 219.652 211.959 219.652 211.604C219.652 211.243 219.563 210.927 219.385 210.653C219.212 210.38 218.973 210.168 218.667 210.018C218.362 209.867 218.015 209.79 217.628 209.785C217.236 209.79 216.885 209.867 216.575 210.018C216.265 210.168 216.024 210.382 215.851 210.66C215.678 210.934 215.591 211.248 215.591 211.604ZM222.208 207.912H223.507V212.889H225.394V213.982H223.507V220.162H222.208V207.912ZM235.59 209.525V209.683C235.581 210.28 235.556 210.845 235.515 211.378C235.479 211.907 235.399 212.497 235.276 213.148L233.991 213.025C234.109 212.419 234.189 211.872 234.23 211.385C234.275 210.897 234.303 210.405 234.312 209.908H229.411V208.842H235.59V209.525ZM228.672 214.201C229.543 214.201 230.377 214.192 231.174 214.174V211.59H232.459V214.133C233.982 214.069 235.28 213.96 236.356 213.805L236.438 214.748C235.303 214.949 234.105 215.083 232.842 215.151C231.58 215.215 230.231 215.249 228.795 215.254L228.672 214.201ZM230.532 216.279H231.83V218.85H238.858V219.902H230.532V216.279ZM237.135 207.912H238.461V211.809H240.143V212.902H238.461V217.113H237.135V207.912ZM246.355 212.465H242.309V214.283C243.375 214.279 244.25 214.256 244.934 214.215C245.617 214.169 246.305 214.087 246.998 213.969L247.135 215.021C246.387 215.154 245.647 215.24 244.913 215.281C244.184 215.318 243.184 215.336 241.912 215.336H241.01V211.467H245.043V209.812H240.982V208.773H246.355V212.465ZM242.678 216.266H243.977V218.795H251.086V219.861H242.678V216.266ZM247.148 212.656H249.432V210.961H247.148V209.922H249.432V207.926H250.73V216.936H249.432V213.723H247.148V212.656ZM259.404 212.889H257.011V214.44C258.219 214.381 259.276 214.301 260.183 214.201L260.279 215.158C258.205 215.441 255.706 215.582 252.78 215.582H252.5L252.322 214.543C253.612 214.534 254.746 214.516 255.726 214.488V212.889H253.416V208.691H259.295V209.744H254.714V211.836H259.404V212.889ZM254.345 216.443H255.644V218.85H262.808V219.902H254.345V216.443ZM261.127 207.912H262.425V217.1H261.127V207.912ZM271.35 211.521C271.35 212.164 271.483 212.816 271.747 213.477C272.011 214.133 272.38 214.73 272.854 215.268C273.333 215.801 273.875 216.211 274.481 216.498L273.743 217.51C273.068 217.186 272.467 216.703 271.938 216.061C271.41 215.413 271.004 214.684 270.721 213.873C270.439 214.753 270.022 215.546 269.471 216.252C268.924 216.954 268.306 217.478 267.618 217.824L266.852 216.799C267.458 216.507 268.005 216.079 268.493 215.514C268.985 214.944 269.37 214.308 269.648 213.606C269.926 212.9 270.065 212.205 270.065 211.521V210.223H267.304V209.143H274.016V210.223H271.35V211.521ZM275.329 207.912H276.628V212.766H278.596V213.859H276.628V220.162H275.329V207.912ZM285.329 208.719C285.329 209.17 285.283 209.612 285.192 210.045H287.748V207.926H289.047V215.213H287.748V213.682H284.659V212.629H287.748V211.084H284.864C284.454 212.036 283.79 212.852 282.874 213.531C281.958 214.21 280.835 214.73 279.504 215.09L279.012 214.064C279.978 213.805 280.815 213.463 281.521 213.039C282.232 212.615 282.792 212.128 283.203 211.576C283.613 211.02 283.857 210.419 283.934 209.771H279.655V208.719H285.329ZM280.748 215.746H289.047V220.135H287.748V216.771H280.748V215.746ZM301.754 214.734H290.584V213.682H301.754V214.734ZM291.172 212.014C291.906 211.936 292.578 211.781 293.188 211.549C293.799 211.312 294.291 211.022 294.665 210.681C295.039 210.339 295.248 209.972 295.294 209.58H291.609V208.514H300.756V209.58H297.03C297.08 209.972 297.29 210.339 297.659 210.681C298.033 211.022 298.525 211.312 299.136 211.549C299.751 211.781 300.432 211.936 301.18 212.014L300.715 213.039C300.004 212.957 299.343 212.807 298.732 212.588C298.126 212.365 297.602 212.084 297.16 211.747C296.718 211.41 296.388 211.029 296.169 210.605C295.946 211.029 295.613 211.41 295.171 211.747C294.729 212.084 294.202 212.365 293.592 212.588C292.986 212.807 292.329 212.957 291.623 213.039L291.172 212.014ZM291.91 217.92C291.91 217.451 292.079 217.047 292.416 216.71C292.753 216.373 293.241 216.118 293.879 215.944C294.517 215.767 295.278 215.678 296.162 215.678C297.037 215.678 297.791 215.767 298.425 215.944C299.058 216.118 299.544 216.373 299.881 216.71C300.218 217.047 300.387 217.451 300.387 217.92C300.387 218.389 300.218 218.79 299.881 219.123C299.544 219.456 299.058 219.706 298.425 219.875C297.796 220.048 297.042 220.135 296.162 220.135C295.278 220.135 294.517 220.048 293.879 219.875C293.241 219.706 292.753 219.456 292.416 219.123C292.079 218.79 291.91 218.389 291.91 217.92ZM293.223 217.92C293.218 218.303 293.466 218.597 293.968 218.802C294.474 219.007 295.189 219.109 296.114 219.109C297.062 219.109 297.794 219.009 298.309 218.809C298.828 218.604 299.088 218.307 299.088 217.92C299.088 217.528 298.833 217.227 298.322 217.018C297.816 216.808 297.096 216.699 296.162 216.689C295.219 216.699 294.492 216.808 293.981 217.018C293.471 217.227 293.218 217.528 293.223 217.92ZM307.912 208.117C308.832 208.117 309.618 208.197 310.27 208.356C310.922 208.516 311.421 208.755 311.767 209.074C312.114 209.389 312.287 209.771 312.287 210.223C312.287 210.678 312.114 211.066 311.767 211.385C311.421 211.699 310.922 211.938 310.27 212.103C309.618 212.262 308.832 212.342 307.912 212.342C306.991 212.342 306.203 212.262 305.546 212.103C304.895 211.938 304.396 211.699 304.049 211.385C303.708 211.066 303.537 210.678 303.537 210.223C303.537 209.771 303.708 209.389 304.049 209.074C304.396 208.755 304.895 208.516 305.546 208.356C306.203 208.197 306.991 208.117 307.912 208.117ZM302.334 213.094H313.504V214.133H302.334V213.094ZM303.673 215.076H312.095V217.947H304.959V219.041H312.437V220.039H303.687V217.004H310.81V216.047H303.673V215.076ZM304.89 210.223C304.886 210.601 305.143 210.888 305.663 211.084C306.182 211.275 306.932 211.371 307.912 211.371C308.901 211.371 309.655 211.275 310.174 211.084C310.694 210.888 310.951 210.601 310.947 210.223C310.951 209.858 310.689 209.576 310.161 209.375C309.637 209.174 308.887 209.074 307.912 209.074C306.941 209.074 306.194 209.174 305.67 209.375C305.145 209.576 304.886 209.858 304.89 210.223ZM321.882 210.277C321.882 210.66 321.998 211.022 322.23 211.364C322.463 211.706 322.795 212.005 323.228 212.26C323.666 212.51 324.179 212.697 324.766 212.82L324.233 213.832C323.536 213.673 322.932 213.424 322.422 213.087C321.911 212.75 321.519 212.346 321.246 211.877C320.977 212.392 320.583 212.834 320.063 213.203C319.548 213.568 318.933 213.832 318.218 213.996L317.671 212.984C318.263 212.857 318.778 212.659 319.216 212.39C319.653 212.121 319.988 211.804 320.221 211.439C320.457 211.075 320.578 210.688 320.583 210.277H317.944V209.252H320.583V207.939H321.882V209.252H324.507V210.277H321.882ZM317.137 214.748C318.71 214.748 320.152 214.728 321.465 214.687C322.777 214.641 324.024 214.543 325.204 214.393L325.3 215.336C324.256 215.509 323.121 215.632 321.895 215.705V219.793H320.596V215.773C319.699 215.81 318.605 215.828 317.315 215.828L317.137 214.748ZM326.052 207.926H327.337V220.162H326.052V207.926ZM340.084 214.871H328.901V213.818H340.084V214.871ZM330.145 216.197H338.717V220.203H337.432V217.25H330.145V216.197ZM330.295 208.363H338.704V209.416H331.594V211.535H338.827V212.574H330.295V208.363ZM350.193 212.875H352.162V213.955H350.193V220.162H348.908V207.912H350.193V212.875ZM340.582 209.826H343.604V208.076H344.902V209.826H347.842V210.893H340.582V209.826ZM341.211 214.639C341.211 214.092 341.341 213.602 341.601 213.169C341.865 212.736 342.227 212.399 342.688 212.157C343.152 211.916 343.676 211.795 344.26 211.795C344.839 211.795 345.358 211.916 345.818 212.157C346.283 212.399 346.648 212.736 346.912 213.169C347.176 213.602 347.309 214.092 347.309 214.639C347.309 215.19 347.176 215.682 346.912 216.115C346.648 216.548 346.283 216.888 345.818 217.134C345.358 217.375 344.839 217.496 344.26 217.496C343.676 217.496 343.152 217.375 342.688 217.134C342.227 216.888 341.865 216.548 341.601 216.115C341.341 215.682 341.211 215.19 341.211 214.639ZM342.455 214.639C342.455 214.99 342.53 215.299 342.681 215.568C342.836 215.837 343.05 216.045 343.323 216.19C343.601 216.336 343.913 216.407 344.26 216.402C344.602 216.407 344.909 216.336 345.183 216.19C345.456 216.045 345.67 215.837 345.825 215.568C345.985 215.299 346.064 214.99 346.064 214.639C346.064 214.297 345.985 213.992 345.825 213.723C345.67 213.454 345.456 213.244 345.183 213.094C344.909 212.939 344.602 212.861 344.26 212.861C343.913 212.861 343.601 212.939 343.323 213.094C343.05 213.244 342.836 213.454 342.681 213.723C342.53 213.992 342.455 214.297 342.455 214.639ZM362.586 220.162H361.273V207.912H362.586V220.162ZM352.523 216.881C354.127 216.115 355.346 215.183 356.18 214.085C357.014 212.987 357.495 211.713 357.623 210.264H353.111V209.225H358.935C358.935 211.12 358.482 212.804 357.575 214.276C356.672 215.748 355.216 216.967 353.207 217.934L352.523 216.881ZM371.237 208.473C371.848 208.473 372.395 208.58 372.878 208.794C373.361 209.004 373.739 209.302 374.012 209.689C374.286 210.077 374.423 210.519 374.423 211.016C374.423 211.508 374.286 211.948 374.012 212.335C373.739 212.722 373.361 213.023 372.878 213.237C372.395 213.447 371.848 213.549 371.237 213.545C370.631 213.549 370.086 213.447 369.603 213.237C369.125 213.023 368.751 212.722 368.482 212.335C368.213 211.948 368.079 211.508 368.079 211.016C368.079 210.519 368.213 210.077 368.482 209.689C368.751 209.302 369.125 209.004 369.603 208.794C370.086 208.58 370.631 208.473 371.237 208.473ZM367.204 214.502C368.676 214.502 370.089 214.472 371.442 214.413C372.8 214.349 374.076 214.229 375.27 214.051L375.366 215.021C374.332 215.217 373.197 215.356 371.962 215.438V219.779H370.663V215.514C369.888 215.55 368.794 215.573 367.382 215.582L367.204 214.502ZM369.337 211.016C369.332 211.307 369.41 211.565 369.569 211.788C369.733 212.011 369.959 212.185 370.246 212.308C370.538 212.426 370.868 212.483 371.237 212.479C371.615 212.483 371.95 212.426 372.242 212.308C372.538 212.185 372.768 212.011 372.932 211.788C373.096 211.565 373.179 211.307 373.179 211.016C373.179 210.719 373.096 210.46 372.932 210.236C372.768 210.008 372.538 209.833 372.242 209.71C371.95 209.587 371.615 209.525 371.237 209.525C370.868 209.525 370.538 209.587 370.246 209.71C369.959 209.833 369.733 210.008 369.569 210.236C369.41 210.464 369.332 210.724 369.337 211.016ZM376.118 207.926H377.403V220.162H376.118V207.926ZM385.024 210.988H378.94V209.936H381.346V208.268H382.631V209.936H385.024V210.988ZM379.336 214.543C379.336 214.001 379.448 213.515 379.671 213.087C379.899 212.659 380.216 212.326 380.621 212.089C381.027 211.847 381.483 211.727 381.989 211.727C382.499 211.727 382.955 211.847 383.356 212.089C383.761 212.326 384.078 212.659 384.306 213.087C384.538 213.515 384.655 214.001 384.655 214.543C384.655 215.094 384.538 215.587 384.306 216.02C384.078 216.452 383.761 216.79 383.356 217.031C382.955 217.268 382.499 217.387 381.989 217.387C381.483 217.387 381.027 217.268 380.621 217.031C380.216 216.79 379.899 216.452 379.671 216.02C379.448 215.587 379.336 215.094 379.336 214.543ZM380.485 214.543C380.485 214.885 380.549 215.188 380.676 215.452C380.804 215.712 380.982 215.915 381.209 216.061C381.437 216.206 381.697 216.279 381.989 216.279C382.28 216.279 382.54 216.206 382.768 216.061C383 215.915 383.18 215.712 383.308 215.452C383.44 215.188 383.506 214.885 383.506 214.543C383.506 214.21 383.44 213.912 383.308 213.647C383.18 213.383 383 213.178 382.768 213.032C382.54 212.882 382.28 212.807 381.989 212.807C381.697 212.807 381.437 212.882 381.209 213.032C380.982 213.178 380.804 213.383 380.676 213.647C380.549 213.912 380.485 214.21 380.485 214.543ZM385.584 208.186H386.815V213.012H388.223V207.912H389.454V220.162H388.223V214.078H386.815V219.588H385.584V208.186ZM392.111 219.096C391.938 219.096 391.776 219.052 391.626 218.966C391.48 218.879 391.362 218.763 391.271 218.617C391.184 218.471 391.141 218.312 391.141 218.139C391.141 217.961 391.184 217.797 391.271 217.646C391.357 217.496 391.473 217.378 391.619 217.291C391.77 217.2 391.934 217.154 392.111 217.154C392.285 217.154 392.444 217.198 392.59 217.284C392.74 217.371 392.859 217.489 392.945 217.64C393.036 217.79 393.082 217.952 393.082 218.125C393.082 218.298 393.036 218.46 392.945 218.61C392.859 218.756 392.74 218.875 392.59 218.966C392.444 219.052 392.285 219.096 392.111 219.096ZM395.453 219.096C395.28 219.096 395.118 219.052 394.967 218.966C394.822 218.879 394.703 218.763 394.612 218.617C394.525 218.471 394.482 218.312 394.482 218.139C394.482 217.961 394.525 217.797 394.612 217.646C394.698 217.496 394.815 217.378 394.961 217.291C395.111 217.2 395.275 217.154 395.453 217.154C395.626 217.154 395.785 217.198 395.931 217.284C396.082 217.371 396.2 217.489 396.287 217.64C396.378 217.79 396.423 217.952 396.423 218.125C396.423 218.298 396.378 218.46 396.287 218.61C396.2 218.756 396.082 218.875 395.931 218.966C395.785 219.052 395.626 219.096 395.453 219.096ZM398.794 219.096C398.621 219.096 398.459 219.052 398.309 218.966C398.163 218.879 398.044 218.763 397.953 218.617C397.867 218.471 397.823 218.312 397.823 218.139C397.823 217.961 397.867 217.797 397.953 217.646C398.04 217.496 398.156 217.378 398.302 217.291C398.452 217.2 398.616 217.154 398.794 217.154C398.967 217.154 399.127 217.198 399.273 217.284C399.423 217.371 399.542 217.489 399.628 217.64C399.719 217.79 399.765 217.952 399.765 218.125C399.765 218.298 399.719 218.46 399.628 218.61C399.542 218.756 399.423 218.875 399.273 218.966C399.127 219.052 398.967 219.096 398.794 219.096Z" fill="black"/>
<rect x="174" y="120" width="243" height="49" rx="10" fill="white"/>
<path d="M199.994 142.656H201.963V143.723H199.994V150.189H198.695V137.912H199.994V142.656ZM190.971 139.088H196.699V140.141H192.27V146.061C193.354 146.056 194.307 146.024 195.127 145.965C195.947 145.906 196.777 145.801 197.615 145.65L197.779 146.744C196.913 146.899 196.063 147.004 195.229 147.059C194.4 147.113 193.413 147.141 192.27 147.141H191.955H190.971V139.088ZM208.476 138.992C208.476 139.525 208.672 140.038 209.064 140.53C209.461 141.022 209.994 141.442 210.664 141.788C211.338 142.134 212.072 142.36 212.865 142.465L212.359 143.531C211.694 143.426 211.062 143.244 210.465 142.984C209.868 142.725 209.34 142.403 208.879 142.021C208.424 141.633 208.064 141.202 207.799 140.729C207.535 141.202 207.173 141.633 206.712 142.021C206.257 142.403 205.733 142.725 205.14 142.984C204.548 143.24 203.919 143.422 203.254 143.531L202.734 142.465C203.527 142.36 204.258 142.137 204.928 141.795C205.598 141.453 206.131 141.036 206.528 140.544C206.924 140.047 207.123 139.53 207.123 138.992V138.322H208.476V138.992ZM202.201 144.734H213.371V145.801H208.394V150.162H207.123V145.801H202.201V144.734ZM217.943 138.787C218.581 138.787 219.153 138.91 219.658 139.156C220.164 139.398 220.561 139.742 220.848 140.188C221.135 140.631 221.279 141.134 221.279 141.699C221.279 142.264 221.135 142.77 220.848 143.217C220.561 143.659 220.164 144.005 219.658 144.256C219.153 144.502 218.581 144.625 217.943 144.625C217.305 144.625 216.73 144.502 216.22 144.256C215.714 144.005 215.318 143.659 215.03 143.217C214.748 142.77 214.607 142.264 214.607 141.699C214.607 141.134 214.748 140.631 215.03 140.188C215.318 139.746 215.714 139.402 216.22 139.156C216.73 138.91 217.305 138.787 217.943 138.787ZM214.019 146.471C215.559 146.471 216.981 146.446 218.284 146.396C219.588 146.345 220.832 146.234 222.017 146.061L222.112 147.004C220.891 147.241 219.649 147.391 218.387 147.455C217.129 147.519 215.728 147.551 214.183 147.551L214.019 146.471ZM215.892 141.699C215.887 142.055 215.972 142.369 216.145 142.643C216.322 142.911 216.566 143.121 216.876 143.271C217.191 143.417 217.546 143.49 217.943 143.49C218.339 143.49 218.692 143.417 219.002 143.271C219.317 143.121 219.563 142.911 219.74 142.643C219.918 142.369 220.007 142.055 220.007 141.699C220.007 141.348 219.918 141.038 219.74 140.77C219.563 140.496 219.317 140.284 219.002 140.134C218.688 139.983 218.335 139.908 217.943 139.908C217.546 139.908 217.191 139.983 216.876 140.134C216.566 140.284 216.322 140.496 216.145 140.77C215.972 141.038 215.887 141.348 215.892 141.699ZM222.782 137.912H224.081V150.189H222.782V137.912ZM232.049 138.828C232.655 138.828 233.195 139.006 233.669 139.361C234.148 139.712 234.522 140.214 234.79 140.865C235.059 141.512 235.194 142.264 235.194 143.121C235.194 143.987 235.059 144.746 234.79 145.397C234.522 146.049 234.15 146.55 233.676 146.901C233.202 147.252 232.66 147.428 232.049 147.428C231.439 147.428 230.896 147.252 230.422 146.901C229.948 146.55 229.579 146.049 229.315 145.397C229.051 144.746 228.918 143.987 228.918 143.121C228.918 142.264 229.051 141.512 229.315 140.865C229.579 140.214 229.948 139.712 230.422 139.361C230.896 139.006 231.439 138.828 232.049 138.828ZM230.162 143.121C230.162 143.759 230.24 144.315 230.395 144.789C230.554 145.263 230.778 145.628 231.065 145.883C231.352 146.138 231.68 146.266 232.049 146.266C232.427 146.266 232.76 146.14 233.047 145.89C233.334 145.634 233.555 145.27 233.71 144.796C233.87 144.317 233.95 143.759 233.95 143.121C233.95 142.488 233.87 141.936 233.71 141.467C233.555 140.993 233.334 140.628 233.047 140.373C232.76 140.118 232.427 139.99 232.049 139.99C231.68 139.99 231.352 140.12 231.065 140.38C230.778 140.635 230.554 141 230.395 141.474C230.24 141.943 230.162 142.492 230.162 143.121ZM237.012 137.912H238.311V142.711H240.28V143.805H238.311V150.162H237.012V137.912ZM251.729 148.658H240.518V147.592H251.729V148.658ZM241.857 138.814H250.361V142.643H243.17V144.434H250.648V145.473H241.885V141.59H249.076V139.867H241.857V138.814ZM261.81 142.656H263.779V143.75H261.81V150.162H260.511V137.912H261.81V142.656ZM252.732 138.938H254.017V142.082H257.257V138.938H258.543V147.25H252.732V138.938ZM257.257 146.184V143.107H254.017V146.184H257.257ZM274.161 150.189H272.863V137.912H274.161V150.189ZM264.441 143.121C264.441 142.264 264.575 141.512 264.844 140.865C265.113 140.214 265.487 139.712 265.965 139.361C266.448 139.006 266.997 138.828 267.613 138.828C268.219 138.828 268.761 139.006 269.239 139.361C269.718 139.712 270.092 140.214 270.361 140.865C270.634 141.512 270.771 142.264 270.771 143.121C270.771 143.987 270.634 144.746 270.361 145.397C270.092 146.049 269.718 146.55 269.239 146.901C268.761 147.252 268.219 147.428 267.613 147.428C266.997 147.428 266.448 147.252 265.965 146.901C265.487 146.55 265.113 146.049 264.844 145.397C264.575 144.746 264.441 143.987 264.441 143.121ZM265.698 143.121C265.698 143.759 265.778 144.315 265.938 144.789C266.097 145.263 266.321 145.628 266.608 145.883C266.899 146.138 267.234 146.266 267.613 146.266C267.986 146.266 268.317 146.138 268.604 145.883C268.891 145.628 269.114 145.263 269.274 144.789C269.433 144.315 269.513 143.759 269.513 143.121C269.513 142.492 269.433 141.943 269.274 141.474C269.114 141 268.891 140.635 268.604 140.38C268.317 140.12 267.986 139.99 267.613 139.99C267.234 139.99 266.899 140.12 266.608 140.38C266.321 140.635 266.097 141 265.938 141.474C265.778 141.943 265.698 142.492 265.698 143.121ZM285.706 145.473H277.175V138.924H285.583V139.977H278.487V141.631H285.323V142.656H278.487V144.434H285.706V145.473ZM275.766 147.551H286.977V148.617H275.766V147.551ZM300.797 145.172H299.498V143.682H296.408V142.615H299.498V141.125H296.538C296.146 142.1 295.501 142.934 294.604 143.627C293.706 144.32 292.589 144.857 291.254 145.24L290.734 144.229C292.179 143.818 293.314 143.237 294.139 142.485C294.968 141.733 295.442 140.861 295.561 139.867H291.363V138.801H296.969C296.969 139.234 296.925 139.667 296.839 140.1H299.498V137.926H300.797V145.172ZM292.635 147.701C292.635 147.214 292.803 146.79 293.141 146.43C293.478 146.07 293.956 145.794 294.576 145.603C295.201 145.407 295.93 145.309 296.764 145.309C297.589 145.309 298.311 145.407 298.931 145.603C299.55 145.794 300.029 146.07 300.366 146.43C300.708 146.79 300.879 147.214 300.879 147.701C300.879 148.193 300.708 148.622 300.366 148.986C300.029 149.346 299.55 149.622 298.931 149.813C298.311 150.009 297.589 150.107 296.764 150.107C295.93 150.107 295.201 150.009 294.576 149.813C293.956 149.622 293.478 149.346 293.141 148.986C292.803 148.622 292.635 148.193 292.635 147.701ZM293.92 147.701C293.92 147.984 294.034 148.228 294.262 148.433C294.494 148.638 294.822 148.795 295.246 148.904C295.674 149.014 296.18 149.068 296.764 149.068C297.333 149.068 297.83 149.014 298.254 148.904C298.678 148.795 299.004 148.638 299.231 148.433C299.464 148.228 299.58 147.984 299.58 147.701C299.58 147.414 299.466 147.168 299.238 146.963C299.01 146.758 298.687 146.603 298.268 146.498C297.853 146.389 297.363 146.334 296.798 146.334C295.9 146.334 295.196 146.452 294.686 146.689C294.175 146.926 293.92 147.264 293.92 147.701ZM312.546 145.336H311.248V142.67H309.334V141.59H311.248V137.912H312.546V145.336ZM302.347 139.129H305.3V137.803H306.586V139.129H309.525V140.168H302.347V139.129ZM303.058 142.916C303.058 142.492 303.181 142.116 303.427 141.788C303.673 141.455 304.015 141.196 304.453 141.009C304.89 140.822 305.387 140.729 305.943 140.729C306.499 140.729 306.993 140.822 307.426 141.009C307.864 141.191 308.203 141.449 308.445 141.781C308.691 142.114 308.814 142.492 308.814 142.916C308.814 143.349 308.691 143.732 308.445 144.064C308.203 144.397 307.864 144.657 307.426 144.844C306.993 145.026 306.499 145.117 305.943 145.117C305.387 145.117 304.89 145.026 304.453 144.844C304.015 144.657 303.673 144.397 303.427 144.064C303.181 143.732 303.058 143.349 303.058 142.916ZM304.302 142.916C304.302 143.285 304.453 143.579 304.754 143.798C305.054 144.017 305.451 144.128 305.943 144.133C306.262 144.133 306.545 144.083 306.791 143.982C307.037 143.882 307.228 143.741 307.365 143.559C307.502 143.376 307.57 143.162 307.57 142.916C307.57 142.684 307.502 142.479 307.365 142.301C307.233 142.118 307.044 141.977 306.797 141.877C306.556 141.777 306.278 141.727 305.963 141.727C305.635 141.727 305.346 141.777 305.095 141.877C304.845 141.973 304.649 142.112 304.507 142.294C304.371 142.472 304.302 142.679 304.302 142.916ZM304.466 145.938H312.546V150.012H304.466V145.938ZM311.275 148.959V146.963H305.752V148.959H311.275ZM319.661 138.117C320.582 138.117 321.368 138.197 322.02 138.356C322.671 138.516 323.17 138.755 323.517 139.074C323.863 139.389 324.036 139.771 324.036 140.223C324.036 140.678 323.863 141.066 323.517 141.385C323.17 141.699 322.671 141.938 322.02 142.103C321.368 142.262 320.582 142.342 319.661 142.342C318.741 142.342 317.952 142.262 317.296 142.103C316.644 141.938 316.145 141.699 315.799 141.385C315.457 141.066 315.286 140.678 315.286 140.223C315.286 139.771 315.457 139.389 315.799 139.074C316.145 138.755 316.644 138.516 317.296 138.356C317.952 138.197 318.741 138.117 319.661 138.117ZM314.083 143.094H325.253V144.133H314.083V143.094ZM315.423 145.076H323.845V147.947H316.708V149.041H324.187V150.039H315.437V147.004H322.56V146.047H315.423V145.076ZM316.64 140.223C316.635 140.601 316.893 140.888 317.412 141.084C317.932 141.275 318.682 141.371 319.661 141.371C320.65 141.371 321.404 141.275 321.924 141.084C322.444 140.888 322.701 140.601 322.696 140.223C322.701 139.858 322.439 139.576 321.91 139.375C321.386 139.174 320.637 139.074 319.661 139.074C318.691 139.074 317.943 139.174 317.419 139.375C316.895 139.576 316.635 139.858 316.64 140.223ZM340.071 145.377H328.873V144.352H333.823V143.285H330.336V138.24H338.704V139.266H331.649V140.264H338.389V141.234H331.649V142.273H338.786V143.285H335.121V144.352H340.071V145.377ZM330.227 148.166C330.227 147.523 330.594 147.031 331.328 146.689C332.061 146.348 333.112 146.179 334.479 146.184C335.372 146.184 336.133 146.259 336.762 146.409C337.396 146.56 337.876 146.785 338.204 147.086C338.537 147.382 338.704 147.742 338.704 148.166C338.699 148.809 338.33 149.299 337.596 149.636C336.867 149.973 335.828 150.139 334.479 150.135C333.107 150.139 332.054 149.973 331.321 149.636C330.592 149.299 330.227 148.809 330.227 148.166ZM331.526 148.166C331.521 148.499 331.77 148.749 332.271 148.918C332.772 149.082 333.508 149.16 334.479 149.15C335.436 149.16 336.163 149.082 336.66 148.918C337.156 148.749 337.405 148.499 337.405 148.166C337.405 147.833 337.156 147.583 336.66 147.414C336.163 147.241 335.436 147.154 334.479 147.154C333.513 147.154 332.777 147.241 332.271 147.414C331.77 147.583 331.521 147.833 331.526 148.166ZM346.707 140.988H340.623V139.936H343.029V138.268H344.314V139.936H346.707V140.988ZM341.02 144.543C341.02 144.001 341.131 143.515 341.354 143.087C341.582 142.659 341.899 142.326 342.305 142.089C342.71 141.847 343.166 141.727 343.672 141.727C344.182 141.727 344.638 141.847 345.039 142.089C345.445 142.326 345.761 142.659 345.989 143.087C346.222 143.515 346.338 144.001 346.338 144.543C346.338 145.094 346.222 145.587 345.989 146.02C345.761 146.452 345.445 146.79 345.039 147.031C344.638 147.268 344.182 147.387 343.672 147.387C343.166 147.387 342.71 147.268 342.305 147.031C341.899 146.79 341.582 146.452 341.354 146.02C341.131 145.587 341.02 145.094 341.02 144.543ZM342.168 144.543C342.168 144.885 342.232 145.188 342.359 145.452C342.487 145.712 342.665 145.915 342.893 146.061C343.12 146.206 343.38 146.279 343.672 146.279C343.964 146.279 344.223 146.206 344.451 146.061C344.684 145.915 344.864 145.712 344.991 145.452C345.123 145.188 345.189 144.885 345.189 144.543C345.189 144.21 345.123 143.912 344.991 143.647C344.864 143.383 344.684 143.178 344.451 143.032C344.223 142.882 343.964 142.807 343.672 142.807C343.38 142.807 343.12 142.882 342.893 143.032C342.665 143.178 342.487 143.383 342.359 143.647C342.232 143.912 342.168 144.21 342.168 144.543ZM347.268 138.186H348.498V143.012H349.906V137.912H351.137V150.162H349.906V144.078H348.498V149.588H347.268V138.186ZM365.38 140.291C365.376 140.997 365.364 141.601 365.346 142.103C365.332 142.599 365.291 143.18 365.223 143.846C365.159 144.511 365.057 145.231 364.915 146.006L363.603 145.869C363.749 145.135 363.856 144.445 363.924 143.798C363.992 143.146 364.033 142.572 364.047 142.075C364.065 141.578 364.077 140.984 364.081 140.291V140.141H356.644V139.088H365.38V140.291ZM355.468 147.428H359.72V143.107H361.005V147.428H366.638V148.508H355.468V147.428ZM377.663 145.131H376.432V141.986H374.956V145.062H373.725V138.145H374.956V140.906H376.432V137.926H377.663V145.131ZM367.218 144.27C368.443 143.786 369.394 143.174 370.068 142.431C370.747 141.683 371.144 140.824 371.258 139.854H367.751V138.801H372.577C372.577 140.286 372.18 141.569 371.387 142.649C370.595 143.725 369.414 144.589 367.846 145.24L367.218 144.27ZM369.296 145.664H377.663V150.162H376.378V146.717H369.296V145.664ZM384.545 138.117C385.466 138.117 386.252 138.197 386.904 138.356C387.555 138.516 388.054 138.755 388.401 139.074C388.747 139.389 388.92 139.771 388.92 140.223C388.92 140.678 388.747 141.066 388.401 141.385C388.054 141.699 387.555 141.938 386.904 142.103C386.252 142.262 385.466 142.342 384.545 142.342C383.625 142.342 382.836 142.262 382.18 142.103C381.528 141.938 381.029 141.699 380.683 141.385C380.341 141.066 380.17 140.678 380.17 140.223C380.17 139.771 380.341 139.389 380.683 139.074C381.029 138.755 381.528 138.516 382.18 138.356C382.836 138.197 383.625 138.117 384.545 138.117ZM378.967 143.094H390.137V144.133H378.967V143.094ZM380.307 145.076H388.729V147.947H381.592V149.041H389.071V150.039H380.321V147.004H387.444V146.047H380.307V145.076ZM381.524 140.223C381.519 140.601 381.777 140.888 382.296 141.084C382.816 141.275 383.566 141.371 384.545 141.371C385.534 141.371 386.288 141.275 386.808 141.084C387.328 140.888 387.585 140.601 387.58 140.223C387.585 139.858 387.323 139.576 386.794 139.375C386.27 139.174 385.521 139.074 384.545 139.074C383.575 139.074 382.827 139.174 382.303 139.375C381.779 139.576 381.519 139.858 381.524 140.223ZM392.111 149.096C391.938 149.096 391.776 149.052 391.626 148.966C391.48 148.879 391.362 148.763 391.271 148.617C391.184 148.471 391.141 148.312 391.141 148.139C391.141 147.961 391.184 147.797 391.271 147.646C391.357 147.496 391.473 147.378 391.619 147.291C391.77 147.2 391.934 147.154 392.111 147.154C392.285 147.154 392.444 147.198 392.59 147.284C392.74 147.371 392.859 147.489 392.945 147.64C393.036 147.79 393.082 147.952 393.082 148.125C393.082 148.298 393.036 148.46 392.945 148.61C392.859 148.756 392.74 148.875 392.59 148.966C392.444 149.052 392.285 149.096 392.111 149.096ZM395.453 149.096C395.28 149.096 395.118 149.052 394.967 148.966C394.822 148.879 394.703 148.763 394.612 148.617C394.525 148.471 394.482 148.312 394.482 148.139C394.482 147.961 394.525 147.797 394.612 147.646C394.698 147.496 394.815 147.378 394.961 147.291C395.111 147.2 395.275 147.154 395.453 147.154C395.626 147.154 395.785 147.198 395.931 147.284C396.082 147.371 396.2 147.489 396.287 147.64C396.378 147.79 396.423 147.952 396.423 148.125C396.423 148.298 396.378 148.46 396.287 148.61C396.2 148.756 396.082 148.875 395.931 148.966C395.785 149.052 395.626 149.096 395.453 149.096ZM398.794 149.096C398.621 149.096 398.459 149.052 398.309 148.966C398.163 148.879 398.044 148.763 397.953 148.617C397.867 148.471 397.823 148.312 397.823 148.139C397.823 147.961 397.867 147.797 397.953 147.646C398.04 147.496 398.156 147.378 398.302 147.291C398.452 147.2 398.616 147.154 398.794 147.154C398.967 147.154 399.127 147.198 399.273 147.284C399.423 147.371 399.542 147.489 399.628 147.64C399.719 147.79 399.765 147.952 399.765 148.125C399.765 148.298 399.719 148.46 399.628 148.61C399.542 148.756 399.423 148.875 399.273 148.966C399.127 149.052 398.967 149.096 398.794 149.096Z" fill="black"/>
</svg>
