<svg width="168" height="56" viewBox="0 0 168 56" fill="none" xmlns="http://www.w3.org/2000/svg">
<path d="M0 12C0 5.37258 5.37258 0 12 0H156C162.627 0 168 5.37258 168 12V44C168 50.6274 162.627 56 156 56H12C5.37259 56 0 50.6274 0 44V12Z" fill="#FEE500"/>
<path fill-rule="evenodd" clip-rule="evenodd" d="M40 19.6001C35.0292 19.6001 31 22.7131 31 26.5524C31 28.9401 32.5584 31.0451 34.9316 32.2971L33.9331 35.9446C33.8448 36.2669 34.2134 36.5238 34.4965 36.337L38.8734 33.4483C39.2427 33.4839 39.6181 33.5047 40 33.5047C44.9705 33.5047 49 30.3919 49 26.5524C49 22.7131 44.9705 19.6001 40 19.6001Z" fill="black"/>
<path d="M64.6396 22.7422C64.6344 24.2422 64.4469 25.6042 64.0771 26.8281C63.7073 28.0521 63.0536 29.1979 62.1161 30.2656C61.1786 31.3281 59.8922 32.2656 58.2567 33.0781L57.4364 31.9453C58.8791 31.2422 60.0224 30.4401 60.8661 29.5391C61.7151 28.6328 62.314 27.6432 62.663 26.5703C63.0172 25.4922 63.1969 24.276 63.2021 22.9219V22.7422H64.6396ZM64.0771 23.9531H58.2489V22.7422H64.0771V23.9531ZM57.7489 27.8516L57.5302 26.5703L63.0692 26.2109V27.3516L57.7489 27.8516ZM68.2724 35.3125H66.7958V21.3203H68.2724V35.3125ZM70.4442 28.1484H67.8896V26.9141H70.4442V28.1484ZM78.3717 22.7422C78.3665 24.2422 78.179 25.6042 77.8092 26.8281C77.4394 28.0521 76.7857 29.1979 75.8482 30.2656C74.9107 31.3281 73.6243 32.2656 71.9889 33.0781L71.1686 31.9453C72.6113 31.2422 73.7545 30.4401 74.5982 29.5391C75.4472 28.6328 76.0462 27.6432 76.3951 26.5703C76.7493 25.4922 76.929 24.276 76.9342 22.9219V22.7422H78.3717ZM77.8092 23.9531H71.9811V22.7422H77.8092V23.9531ZM71.4811 27.8516L71.2623 26.5703L76.8014 26.2109V27.3516L71.4811 27.8516ZM82.0045 35.3125H80.5279V21.3203H82.0045V35.3125ZM84.1764 28.1484H81.6217V26.9141H84.1764V28.1484ZM91.9319 32.625H90.4788V29.2109H91.9319V32.625ZM91.2132 22.1719C92.2028 22.1719 93.0908 22.3281 93.8772 22.6406C94.6637 22.9479 95.2757 23.3854 95.7132 23.9531C96.1559 24.5156 96.3772 25.1641 96.3772 25.8984C96.3772 26.6432 96.1559 27.2969 95.7132 27.8594C95.2757 28.4219 94.6637 28.8594 93.8772 29.1719C93.0908 29.4792 92.2028 29.6328 91.2132 29.6328C90.2184 29.6328 89.3304 29.4792 88.5491 29.1719C87.7731 28.8594 87.1611 28.4219 86.7132 27.8594C86.2653 27.2969 86.0413 26.6432 86.0413 25.8984C86.0413 25.1641 86.2653 24.5156 86.7132 23.9531C87.1611 23.3854 87.7731 22.9479 88.5491 22.6406C89.3304 22.3281 90.2184 22.1719 91.2132 22.1719ZM91.2132 23.375C90.4944 23.375 89.8512 23.4792 89.2835 23.6875C88.721 23.8958 88.2809 24.1927 87.9632 24.5781C87.6507 24.9583 87.4944 25.3984 87.4944 25.8984C87.4944 26.4089 87.6507 26.8568 87.9632 27.2422C88.2809 27.6224 88.721 27.9193 89.2835 28.1328C89.846 28.3411 90.4892 28.4453 91.2132 28.4453C91.9371 28.4453 92.5778 28.3411 93.1351 28.1328C93.6976 27.9193 94.1377 27.6224 94.4554 27.2422C94.7731 26.8568 94.9319 26.4089 94.9319 25.8984C94.9319 25.3984 94.7731 24.9583 94.4554 24.5781C94.1377 24.1927 93.6976 23.8958 93.1351 23.6875C92.5726 23.4792 91.9319 23.375 91.2132 23.375ZM97.6429 33.5781H84.8304V32.3516H97.6429V33.5781ZM115.185 33.6484H102.373V32.4219H115.185V33.6484ZM109.474 32.9453H108.021V29.5312H109.474V32.9453ZM113.615 26.6875H105.412V29.375H103.935V25.5H112.154V23.5312H103.912V22.3203H113.615V26.6875ZM113.943 29.9531H103.935V28.7344H113.943V29.9531ZM126.519 23.9609H117.472V22.75H126.519V23.9609ZM128.87 33.3359H116.105V32.1172H128.87V33.3359ZM127.199 24.3359C127.199 25.1224 127.191 25.8151 127.175 26.4141C127.16 27.013 127.113 27.7031 127.035 28.4844C126.956 29.2604 126.839 30.1068 126.683 31.0234L125.175 30.8828C125.347 30.0286 125.472 29.2188 125.55 28.4531C125.628 27.6875 125.678 27.0026 125.699 26.3984C125.719 25.7943 125.73 25.1016 125.73 24.3203V24.2422V22.75H127.199V24.2422V24.3359ZM141.446 31.5156H139.97V21.3359H141.446V31.5156ZM141.868 35.0469H132.298V33.8203H141.868V35.0469ZM133.782 34.2656H132.298V30.4844H133.782V34.2656ZM133.853 22.2812C134.551 22.2812 135.183 22.4297 135.751 22.7266C136.319 23.0234 136.764 23.4349 137.087 23.9609C137.415 24.487 137.579 25.0833 137.579 25.75C137.579 26.4219 137.415 27.0234 137.087 27.5547C136.764 28.0807 136.319 28.4922 135.751 28.7891C135.183 29.0859 134.551 29.2344 133.853 29.2344C133.155 29.2344 132.522 29.0859 131.954 28.7891C131.392 28.4922 130.946 28.0807 130.618 27.5547C130.29 27.0234 130.126 26.4219 130.126 25.75C130.126 25.0833 130.29 24.487 130.618 23.9609C130.946 23.4349 131.392 23.0234 131.954 22.7266C132.522 22.4297 133.155 22.2812 133.853 22.2812ZM133.853 23.5781C133.42 23.5781 133.03 23.6693 132.681 23.8516C132.337 24.0339 132.066 24.2891 131.868 24.6172C131.67 24.9453 131.574 25.3229 131.579 25.75C131.574 26.1823 131.67 26.5651 131.868 26.8984C132.066 27.2266 132.337 27.4818 132.681 27.6641C133.03 27.8464 133.42 27.9375 133.853 27.9375C134.28 27.9375 134.665 27.8464 135.009 27.6641C135.353 27.4818 135.623 27.2266 135.821 26.8984C136.019 26.5651 136.118 26.1823 136.118 25.75C136.118 25.3229 136.019 24.9453 135.821 24.6172C135.623 24.2891 135.353 24.0339 135.009 23.8516C134.665 23.6693 134.28 23.5781 133.853 23.5781Z" fill="black" fill-opacity="0.85"/>
</svg>
