<svg width="109" height="83" viewBox="0 0 109 83" fill="none" xmlns="http://www.w3.org/2000/svg">
<path d="M93.2816 8.96906C97.4834 16.6684 102.5 21.1934 105.636 22.7341L92.5536 25.5536C88.8339 23.5392 82.7006 15.2261 80.4123 10.9605L93.2816 8.96906Z" fill="white" fill-opacity="0.5"/>
<path d="M50.6597 31.1912C46.4579 38.8906 42.7813 41.468 39.7889 43.6054L52.8709 46.425C56.5906 44.4105 61.2407 37.4482 63.5291 33.1826L50.6597 31.1912Z" fill="white" fill-opacity="0.5"/>
<path d="M9.60419 72.5571C7.03933 76.5597 4.04806 76.9968 1.05566 79.1343L15.1627 79.1343C18.8824 77.1198 21.0317 76.8235 23.3201 72.5579L22.435 72.6284C18.1638 72.9687 13.8713 72.9449 9.60419 72.5571Z" fill="white" fill-opacity="0.5"/>
<rect width="12.2915" height="14.8164" transform="matrix(-0.875922 0.482453 0.482453 0.875922 20.6718 0)" fill="white" fill-opacity="0.5"/>
</svg>
