<svg width="459" height="180" viewBox="0 0 459 180" fill="none" xmlns="http://www.w3.org/2000/svg">
<circle cx="233" cy="90" r="89.5" fill="#F26646" fill-opacity="0.1" stroke="#FFBAAA"/>
<circle cx="91" cy="90" r="89.5" fill="#F26646" fill-opacity="0.1" stroke="#FFBAAA"/>
<circle cx="369" cy="90" r="89.5" fill="#F26646" fill-opacity="0.1" stroke="#FFBAAA"/>
<path d="M65.3535 83.2734H67.6387V89.1357H67.8057L72.7715 83.2734H75.584L70.6445 88.9863L75.6279 96H72.8594L69.0537 90.5332L67.6387 92.2119V96H65.3535V83.2734ZM76.9106 91.1484C76.9165 89.5312 77.145 88.0283 77.5962 86.6396C78.0474 85.2451 78.7007 83.9414 79.5562 82.7285H81.6567C81.2466 83.3262 80.8569 84.0908 80.4878 85.0225C80.1187 85.9541 79.8169 86.9561 79.5825 88.0283C79.354 89.1006 79.2397 90.1406 79.2397 91.1484C79.2397 92.1562 79.354 93.1992 79.5825 94.2773C79.8169 95.3555 80.1187 96.3574 80.4878 97.2832C80.8569 98.2148 81.2466 98.9824 81.6567 99.5859H79.5562C78.7065 98.3555 78.0532 97.0459 77.5962 95.6572C77.145 94.2627 76.9165 92.7598 76.9106 91.1484ZM87.9053 86.1738C87.9053 87.3691 87.7178 88.5234 87.3428 89.6367C86.9736 90.7441 86.4463 91.7314 85.7607 92.5986C85.0752 93.46 84.2754 94.1074 83.3613 94.541L82.2275 93.0029C83.042 92.6221 83.7598 92.0684 84.3809 91.3418C85.002 90.6152 85.4795 89.8037 85.8135 88.9072C86.1475 88.0049 86.3145 87.0938 86.3145 86.1738V84.082H87.9053V86.1738ZM88.3008 86.1738C88.3008 87.0586 88.4648 87.9258 88.793 88.7754C89.127 89.625 89.6016 90.3896 90.2168 91.0693C90.8379 91.7432 91.5615 92.2559 92.3877 92.6074L91.3242 94.1455C90.3867 93.7295 89.5723 93.1172 88.8809 92.3086C88.1895 91.5 87.6621 90.5684 87.2988 89.5137C86.9355 88.4531 86.7539 87.3398 86.7539 86.1738V84.082H88.3008V86.1738ZM91.7812 84.8467H82.8252V83.2471H91.7812V84.8467ZM95.5254 97.5469H93.5479V81.6738H95.5254V97.5469ZM103.013 83.9414C103.013 84.9551 102.834 85.9072 102.477 86.7979C102.12 87.6885 101.601 88.4648 100.921 89.127C100.242 89.7832 99.4243 90.2754 98.4692 90.6035L97.4849 89.0654C98.3169 88.7842 99.0259 88.3799 99.6118 87.8525C100.204 87.3252 100.646 86.7246 100.939 86.0508C101.232 85.377 101.378 84.6738 101.378 83.9414V82.4209H103.013V83.9414ZM103.4 83.9414C103.4 84.6562 103.543 85.333 103.831 85.9717C104.118 86.6104 104.548 87.1758 105.123 87.668C105.703 88.1602 106.403 88.5381 107.223 88.8018L106.248 90.3398C105.298 90.0234 104.487 89.5518 103.813 88.9248C103.139 88.2979 102.629 87.5596 102.284 86.71C101.938 85.8604 101.765 84.9375 101.765 83.9414V82.4209H103.4V83.9414ZM110.695 97.5469H108.735V93.4775H99.8667V91.8955H110.695V97.5469ZM110.695 91.1836H108.735V81.6738H110.695V91.1836ZM116.671 86.6396C117.122 88.0283 117.351 89.5312 117.356 91.1484C117.351 92.7598 117.119 94.2627 116.662 95.6572C116.211 97.0459 115.561 98.3555 114.711 99.5859H112.61C113.021 98.9824 113.41 98.2148 113.779 97.2832C114.148 96.3574 114.447 95.3555 114.676 94.2773C114.91 93.1992 115.027 92.1562 115.027 91.1484C115.027 90.1406 114.91 89.1006 114.676 88.0283C114.447 86.9561 114.148 85.9541 113.779 85.0225C113.41 84.0908 113.021 83.3262 112.61 82.7285H114.711C115.566 83.9414 116.22 85.2451 116.671 86.6396Z" fill="#F26646"/>
<path d="M214.499 86.7627C214.464 86.4053 214.344 86.0947 214.139 85.8311C213.939 85.5674 213.664 85.3711 213.313 85.2422C212.967 85.1074 212.563 85.04 212.1 85.04C211.631 85.04 211.221 85.1104 210.869 85.251C210.523 85.3916 210.254 85.5879 210.061 85.8398C209.873 86.0918 209.779 86.3818 209.779 86.71C209.779 87.1904 209.979 87.5625 210.377 87.8262C210.781 88.0898 211.309 88.3037 211.959 88.4678L213.146 88.7666C214.276 89.0303 215.182 89.4492 215.861 90.0234C216.541 90.5977 216.884 91.3975 216.89 92.4229C216.89 93.167 216.696 93.8232 216.31 94.3916C215.929 94.96 215.375 95.4023 214.648 95.7188C213.928 96.0352 213.063 96.1934 212.056 96.1934C211.071 96.1934 210.213 96.041 209.48 95.7363C208.754 95.4258 208.188 94.9746 207.784 94.3828C207.38 93.791 207.16 93.0791 207.125 92.2471H209.375C209.41 92.6807 209.548 93.0469 209.788 93.3457C210.028 93.6387 210.342 93.8613 210.729 94.0137C211.115 94.1602 211.552 94.2334 212.038 94.2334C212.542 94.2334 212.987 94.1572 213.374 94.0049C213.761 93.8525 214.06 93.6387 214.271 93.3633C214.487 93.082 214.596 92.7627 214.596 92.4053C214.596 92.0889 214.505 91.8223 214.323 91.6055C214.142 91.3828 213.884 91.1982 213.55 91.0518C213.222 90.9053 212.806 90.7676 212.302 90.6387L210.852 90.2695C209.762 89.9824 208.924 89.5605 208.338 89.0039C207.758 88.4473 207.468 87.7266 207.468 86.8418C207.468 86.1035 207.67 85.4531 208.074 84.8906C208.479 84.3223 209.035 83.8828 209.744 83.5723C210.453 83.2559 211.25 83.0977 212.135 83.0977C213.02 83.0977 213.805 83.2529 214.49 83.5635C215.182 83.874 215.721 84.3076 216.107 84.8643C216.494 85.415 216.696 86.0479 216.714 86.7627H214.499ZM218.673 91.1484C218.679 89.5312 218.908 88.0283 219.359 86.6396C219.81 85.2451 220.463 83.9414 221.319 82.7285H223.419C223.009 83.3262 222.62 84.0908 222.25 85.0225C221.881 85.9541 221.58 86.9561 221.345 88.0283C221.117 89.1006 221.002 90.1406 221.002 91.1484C221.002 92.1562 221.117 93.1992 221.345 94.2773C221.58 95.3555 221.881 96.3574 222.25 97.2832C222.62 98.2148 223.009 98.9824 223.419 99.5859H221.319C220.469 98.3555 219.816 97.0459 219.359 95.6572C218.908 94.2627 218.679 92.7598 218.673 91.1484ZM231.918 83.8447C231.918 84.9756 231.634 86.0361 231.065 87.0264C230.503 88.0166 229.724 88.8574 228.728 89.5488C227.737 90.2402 226.615 90.7178 225.361 90.9814L224.518 89.3555C225.59 89.1504 226.56 88.7695 227.427 88.2129C228.3 87.6562 228.979 86.9941 229.466 86.2266C229.958 85.459 230.204 84.665 230.204 83.8447V82.6846H231.918V83.8447ZM232.27 83.8447C232.27 84.665 232.516 85.4619 233.008 86.2354C233.506 87.0029 234.191 87.668 235.064 88.2305C235.943 88.7871 236.922 89.1621 238 89.3555L237.13 90.9814C235.888 90.7178 234.771 90.2432 233.781 89.5576C232.791 88.8721 232.012 88.0371 231.443 87.0527C230.881 86.0625 230.6 84.9932 230.6 83.8447V82.6846H232.27V83.8447ZM238.598 95.5342H224.078V93.9258H238.598V95.5342ZM252.44 89.8916H250.498V81.6738H252.44V89.8916ZM252.44 94.6377H243.871V96.4834H241.937V93.2402H250.524V92.0977H241.928V90.5947H252.44V94.6377ZM252.915 97.4238H241.937V95.9033H252.915V97.4238ZM247.764 82.3418C247.764 83.7188 247.483 84.9404 246.92 86.0068C246.358 87.0674 245.52 87.9639 244.407 88.6963C243.293 89.4229 241.908 89.9824 240.25 90.375L239.582 88.8457C240.976 88.5234 242.125 88.0898 243.027 87.5449C243.935 87 244.603 86.3701 245.031 85.6553C245.458 84.9404 245.672 84.1582 245.672 83.3086V82.3418H247.764ZM246.78 83.8711H240.329V82.3418H246.78V83.8711ZM239.819 86.7979L239.538 85.2598L245.708 85.0488V86.376L239.819 86.7979ZM258.434 86.6396C258.885 88.0283 259.113 89.5312 259.119 91.1484C259.113 92.7598 258.882 94.2627 258.425 95.6572C257.974 97.0459 257.323 98.3555 256.474 99.5859H254.373C254.783 98.9824 255.173 98.2148 255.542 97.2832C255.911 96.3574 256.21 95.3555 256.438 94.2773C256.673 93.1992 256.79 92.1562 256.79 91.1484C256.79 90.1406 256.673 89.1006 256.438 88.0283C256.21 86.9561 255.911 85.9541 255.542 85.0225C255.173 84.0908 254.783 83.3262 254.373 82.7285H256.474C257.329 83.9414 257.982 85.2451 258.434 86.6396Z" fill="#F26646"/>
<path d="M341.614 96L346.097 83.2734H348.918L353.4 96H350.957L347.556 85.875H347.45L344.049 96H341.614ZM350.852 91.0078V92.8447H344.146V91.0078H350.852ZM354.815 91.1484C354.821 89.5312 355.049 88.0283 355.5 86.6396C355.952 85.2451 356.605 83.9414 357.46 82.7285H359.561C359.151 83.3262 358.761 84.0908 358.392 85.0225C358.023 85.9541 357.721 86.9561 357.487 88.0283C357.258 89.1006 357.144 90.1406 357.144 91.1484C357.144 92.1562 357.258 93.1992 357.487 94.2773C357.721 95.3555 358.023 96.3574 358.392 97.2832C358.761 98.2148 359.151 98.9824 359.561 99.5859H357.46C356.611 98.3555 355.958 97.0459 355.5 95.6572C355.049 94.2627 354.821 92.7598 354.815 91.1484ZM361.863 92.1855C363.217 92.1797 364.298 92.1562 365.106 92.1152C365.915 92.0684 366.744 91.9775 367.594 91.8428L367.743 93.4512C366.876 93.5977 366.012 93.6973 365.15 93.75C364.295 93.7969 363.199 93.8203 361.863 93.8203H360.782V92.1855H361.863ZM367.189 84.9521H362.646V92.8359H360.782V83.4053H367.189V84.9521ZM366.908 89.083H362.109V87.5625H366.908V89.083ZM373.922 97.5469H372.041V81.6738H373.922V97.5469ZM372.683 89.4873H369.861V87.9141H372.683V89.4873ZM370.406 96.7998H368.552V81.9463H370.406V96.7998ZM388.274 90.4541H377.129V88.8984H388.274V90.4541ZM389.9 95.6836H375.38V94.0752H389.9V95.6836ZM383.563 94.6289H381.638V89.6016H383.563V94.6289ZM388.142 84.4248H379.089V89.6104H377.129V82.8604H388.142V84.4248ZM394.575 86.6396C395.026 88.0283 395.255 89.5312 395.261 91.1484C395.255 92.7598 395.023 94.2627 394.566 95.6572C394.115 97.0459 393.465 98.3555 392.615 99.5859H390.515C390.925 98.9824 391.314 98.2148 391.684 97.2832C392.053 96.3574 392.352 95.3555 392.58 94.2773C392.814 93.1992 392.932 92.1562 392.932 91.1484C392.932 90.1406 392.814 89.1006 392.58 88.0283C392.352 86.9561 392.053 85.9541 391.684 85.0225C391.314 84.0908 390.925 83.3262 390.515 82.7285H392.615C393.471 83.9414 394.124 85.2451 394.575 86.6396Z" fill="#F26646"/>
</svg>
