<svg xmlns="http://www.w3.org/2000/svg" width="20" height="21" viewBox="0 0 20 21" fill="none">
  <path d="M18.3346 6.85971V10.193M8.54297 4.77637H5.66797C4.26784 4.77637 3.56777 4.77637 3.03299 5.04886C2.56259 5.28854 2.18013 5.67099 1.94045 6.1414C1.66797 6.67618 1.66797 7.37625 1.66797 8.77638L1.66797 9.77638C1.66797 10.5529 1.66797 10.9412 1.79484 11.2475C1.96399 11.6559 2.28845 11.9804 2.69683 12.1495C3.00312 12.2764 3.3914 12.2764 4.16797 12.2764V15.818C4.16797 16.0115 4.16797 16.1083 4.176 16.1897C4.25393 16.981 4.87998 17.6071 5.67128 17.685C5.75276 17.693 5.8495 17.693 6.04297 17.693C6.23645 17.693 6.33318 17.693 6.41467 17.685C7.20596 17.6071 7.83201 16.981 7.90995 16.1897C7.91797 16.1083 7.91797 16.0115 7.91797 15.818V12.2764H8.54297C10.015 12.2764 11.8157 13.0654 13.2049 13.8227C14.0153 14.2645 14.4205 14.4854 14.6859 14.4529C14.9321 14.4228 15.1181 14.3123 15.2624 14.1106C15.418 13.8932 15.418 13.458 15.418 12.5878V4.46495C15.418 3.5947 15.418 3.15958 15.2624 2.94212C15.1181 2.74046 14.9321 2.62996 14.6859 2.59982C14.4205 2.56731 14.0153 2.78821 13.2049 3.23C11.8157 3.9873 10.015 4.77637 8.54297 4.77637Z" stroke="currentColor" stroke-width="1.4" stroke-linecap="round" stroke-linejoin="round"/>
</svg>