<svg width="current" height="current" viewBox="0 0 32 32" fill="none" xmlns="http://www.w3.org/2000/svg">
<g id="Communication / Bell">
<path id="Vector" d="M19.5003 21.9259V23.1111C19.5003 25.0748 17.9333 26.6666 16.0002 26.6666C14.0672 26.6666 12.5002 25.0748 12.5002 23.1111V21.9259M19.5003 21.9259H12.5002M19.5003 21.9259H23.6893C24.1356 21.9259 24.3598 21.9259 24.5405 21.864C24.8857 21.7457 25.1558 21.4704 25.2722 21.1197C25.3334 20.9354 25.3334 20.7069 25.3334 20.25C25.3334 20.05 25.3332 19.9501 25.3178 19.8547C25.2887 19.6746 25.2199 19.5038 25.1151 19.3555C25.0597 19.2771 24.9893 19.2056 24.8505 19.0647L24.3961 18.603C24.2494 18.454 24.1671 18.252 24.1671 18.0413V13.6296C24.1671 9.04768 20.5107 5.3333 16.0002 5.33331C11.4898 5.33332 7.83344 9.0477 7.83344 13.6296V18.0414C7.83344 18.252 7.75088 18.454 7.60426 18.603L7.14983 19.0646C7.01064 19.206 6.94097 19.2771 6.8855 19.3555C6.78068 19.5038 6.71125 19.6746 6.68215 19.8547C6.66675 19.9501 6.66675 20.05 6.66675 20.25C6.66675 20.707 6.66675 20.9354 6.72794 21.1197C6.84438 21.4703 7.11569 21.7457 7.46087 21.864C7.64158 21.9259 7.86495 21.9259 8.31126 21.9259H12.5002" stroke="#27272D" stroke-width="2.2" stroke-linecap="round" stroke-linejoin="round"/>
</g>
</svg>
