<svg width="24" height="24" viewBox="0 0 24 24" fill="none" xmlns="http://www.w3.org/2000/svg">
<g clip-path="url(#clip0_17919_17228)">
<path d="M9.54545 21V14.3915H14.4545V21H21V11.0873C21.0001 10.9788 20.979 10.8713 20.9379 10.771C20.8969 10.6708 20.8366 10.5796 20.7607 10.5029L12.5789 3.24227C12.5029 3.16547 12.4126 3.10454 12.3133 3.06297C12.214 3.0214 12.1075 3 12 3C11.8925 3 11.786 3.0214 11.6867 3.06297C11.5874 3.10454 11.4971 3.16547 11.4211 3.24227L3.23932 10.5029C3.16336 10.5796 3.10313 10.6708 3.06207 10.771C3.02101 10.8713 2.99992 10.9788 3 11.0873V21H9.54545Z" stroke="#989BA2" stroke-linecap="round" stroke-linejoin="round"/>
</g>
<defs>
<clipPath id="clip0_17919_17228">
<rect width="24" height="24" fill="white"/>
</clipPath>
</defs>
</svg>
