<svg width="24" height="24" viewBox="0 0 24 24" fill="none" xmlns="http://www.w3.org/2000/svg">
<g clip-path="url(#clip0_17919_26462)">
<path d="M9.85031 17.5L11.3503 20.125C11.4159 20.24 11.5107 20.3356 11.6251 20.4021C11.7395 20.4685 11.8695 20.5036 12.0019 20.5036C12.1342 20.5036 12.2642 20.4685 12.3787 20.4021C12.4931 20.3356 12.5879 20.24 12.6534 20.125L14.1534 17.5H20.25C20.4489 17.5 20.6397 17.421 20.7803 17.2803C20.921 17.1397 21 16.9489 21 16.75V4.75C21 4.55109 20.921 4.36032 20.7803 4.21967C20.6397 4.07902 20.4489 4 20.25 4H3.75C3.55109 4 3.36032 4.07902 3.21967 4.21967C3.07902 4.36032 3 4.55109 3 4.75V16.75C3 16.9489 3.07902 17.1397 3.21967 17.2803C3.36032 17.421 3.55109 17.5 3.75 17.5H9.85031Z" fill="#2A2D34"/>
<path d="M8 9.5H16" stroke="white" stroke-linecap="round" stroke-linejoin="round"/>
<path d="M8 12.5H16" stroke="white" stroke-linecap="round" stroke-linejoin="round"/>
</g>
<defs>
<clipPath id="clip0_17919_26462">
<rect width="24" height="24" fill="white"/>
</clipPath>
</defs>
</svg>
