<svg width="24" height="24" viewBox="0 0 24 24" fill="none" xmlns="http://www.w3.org/2000/svg">
<g clip-path="url(#clip0_17919_17236)">
<path d="M9.68596 18.7241L11.2693 21.5871C11.3385 21.7125 11.4386 21.8168 11.5593 21.8893C11.6801 21.9618 11.8174 22 11.9571 22C12.0968 22 12.234 21.9618 12.3548 21.8893C12.4756 21.8168 12.5756 21.7125 12.6448 21.5871L14.2282 18.7241H20.6634C20.8734 18.7241 21.0747 18.6379 21.2232 18.4845C21.3717 18.3311 21.4551 18.123 21.4551 17.9061V4.81801C21.4551 4.60106 21.3717 4.39299 21.2232 4.23959C21.0747 4.08618 20.8734 4 20.6634 4H3.24674C3.03678 4 2.83542 4.08618 2.68695 4.23959C2.53849 4.39299 2.45508 4.60106 2.45508 4.81801V17.9061C2.45508 18.123 2.53849 18.3311 2.68695 18.4845C2.83542 18.6379 3.03678 18.7241 3.24674 18.7241H9.68596Z" stroke="#989BA2" stroke-width="1.129" stroke-linecap="round" stroke-linejoin="round"/>
<path d="M6 10H10" stroke="#989BA2" stroke-linecap="round" stroke-linejoin="round"/>
<path d="M6 13H11" stroke="#989BA2" stroke-linecap="round" stroke-linejoin="round"/>
<path d="M15.392 12.0773C15.4578 12.0351 15.5422 12.0351 15.608 12.0773L16.634 12.736C16.7847 12.8327 16.9768 12.698 16.9371 12.5234L16.651 11.2627C16.6349 11.192 16.6583 11.1183 16.7121 11.0698L17.6568 10.2189C17.7869 10.1016 17.7142 9.88563 17.5397 9.87096L16.3189 9.76835C16.2432 9.76198 16.1776 9.71326 16.1497 9.64261L15.686 8.47021C15.6193 8.30163 15.3807 8.30163 15.314 8.47021L14.8503 9.64261C14.8224 9.71326 14.7568 9.76198 14.6811 9.76835L13.4603 9.87096C13.2858 9.88563 13.2131 10.1016 13.3432 10.2189L14.2879 11.0698C14.3417 11.1183 14.3651 11.192 14.349 11.2627L14.0629 12.5234C14.0232 12.698 14.2153 12.8327 14.366 12.736L15.392 12.0773Z" stroke="#989BA2" stroke-linecap="round" stroke-linejoin="round"/>
</g>
<defs>
<clipPath id="clip0_17919_17236">
<rect width="24" height="24" fill="white"/>
</clipPath>
</defs>
</svg>
