<svg viewBox="0 0 110 129" fill="none" xmlns="http://www.w3.org/2000/svg">
<g clip-path="url(#clip0_16105_12996)">
<rect x="51.25" y="91.6172" width="8.75" height="102.389" fill="#7E809E"/>
<rect x="-0.5" y="0.499399" width="84.5129" height="86.6605" rx="3.5" transform="matrix(-3.9344e-08 1 -0.999999 -0.00120177 99.9994 16.1055)" fill="white" stroke="#E7E7E7"/>
<circle cx="20" cy="22.6172" r="2" fill="#CACDD3"/>
<circle cx="93" cy="22.6172" r="2" fill="#CACDD3"/>
<path d="M99.5 76.1166L99.5 96.055C99.5 97.988 97.933 99.5532 96 99.5508L16.3396 99.4551C14.4066 99.4528 12.8396 97.8839 12.8396 95.9509L12.8396 76.0124L99.5 76.1166Z" fill="white" stroke="#E7E7E7"/>
<path d="M48.2527 59.875H46.612V47.4199H48.2527V59.875ZM47.0085 53.6338H44.8962V52.2393H47.0085V53.6338ZM45.4089 59.2734H43.8093V47.6455H45.4089V59.2734ZM38.7234 55.6025C39.6303 55.6025 40.4118 55.582 41.0681 55.541C41.7243 55.5 42.3943 55.418 43.0779 55.2949L43.2009 56.71C42.5036 56.8421 41.8178 56.9333 41.1433 56.9834C40.4688 57.029 39.6622 57.054 38.7234 57.0586H37.8484V55.6025H38.7234ZM42.4968 50.2773H39.5984V56.3066H37.8484V48.876H42.4968V50.2773ZM59.7783 59.875H58.0078V47.4199H59.7783V59.875ZM56.0527 48.7324C56.0527 50.0677 55.8727 51.2799 55.5127 52.3691C55.1572 53.4538 54.5534 54.4518 53.7012 55.3633C52.849 56.2702 51.7074 57.0632 50.2764 57.7422L49.3604 56.3477C50.5589 55.7826 51.5205 55.1468 52.2451 54.4404C52.9697 53.734 53.4961 52.9411 53.8242 52.0615C54.1523 51.182 54.3164 50.1748 54.3164 49.04V48.7324H56.0527ZM55.1162 50.1064H50.0234V48.7324H55.1162V50.1064ZM70.6272 51.5898H67.4827V50.1953H70.6272V51.5898ZM64.6116 47.96C65.2223 47.9554 65.7783 48.0807 66.2796 48.3359C66.7809 48.5866 67.1774 48.9375 67.469 49.3887C67.7607 49.8398 67.9065 50.3457 67.9065 50.9062C67.9065 51.4759 67.7607 51.9886 67.469 52.4443C67.1774 52.8955 66.7809 53.2487 66.2796 53.5039C65.7828 53.7591 65.2268 53.8867 64.6116 53.8867C63.9781 53.8867 63.4085 53.7591 62.9026 53.5039C62.4013 53.2487 62.0071 52.8955 61.72 52.4443C61.4374 51.9886 61.2962 51.4759 61.2962 50.9062C61.2962 50.3457 61.4374 49.8398 61.72 49.3887C62.0071 48.9375 62.4036 48.5866 62.9095 48.3359C63.4153 48.0807 63.9827 47.9554 64.6116 47.96ZM64.6116 49.416C64.288 49.4115 64.0009 49.4684 63.7503 49.5869C63.4996 49.7054 63.3037 49.8786 63.1624 50.1064C63.0211 50.3298 62.9505 50.5964 62.9505 50.9062C62.9505 51.2116 63.0211 51.4805 63.1624 51.7129C63.3037 51.9408 63.4996 52.1185 63.7503 52.2461C64.0009 52.3691 64.288 52.4307 64.6116 52.4307C64.9306 52.4307 65.2132 52.3691 65.4593 52.2461C65.7054 52.1185 65.8968 51.9408 66.0335 51.7129C66.1702 51.4805 66.2386 51.2116 66.2386 50.9062C66.2386 50.6009 66.1702 50.3343 66.0335 50.1064C65.8968 49.8786 65.7054 49.7054 65.4593 49.5869C65.2132 49.4684 64.9306 49.4115 64.6116 49.416ZM71.6253 54.126H69.8889V47.4199H71.6253V54.126ZM65.0491 55.8623H69.8889V54.666H71.6253V59.7383H63.3264V54.666H65.0491V55.8623ZM69.8889 58.3301V57.209H65.0491V58.3301H69.8889Z" fill="#24286D"/>
<path d="M22.872 84.9609H26.5986V85.9297H24.0439V87.3047H26.3525V88.2695H24.0439V90.6172H22.872V84.9609ZM32.3839 87.7891C32.3839 88.388 32.2693 88.9076 32.0402 89.3477C31.8136 89.7852 31.4998 90.1198 31.0988 90.3516C30.7003 90.5807 30.2485 90.6953 29.7433 90.6953C29.2381 90.6953 28.7849 90.5807 28.3839 90.3516C27.9855 90.1198 27.6717 89.7839 27.4425 89.3438C27.2159 88.9036 27.1027 88.3854 27.1027 87.7891C27.1027 87.1849 27.2159 86.6641 27.4425 86.2266C27.6717 85.7891 27.9855 85.4557 28.3839 85.2266C28.7849 84.9974 29.2381 84.8828 29.7433 84.8828C30.2485 84.8828 30.7003 84.9974 31.0988 85.2266C31.4998 85.4557 31.8136 85.7891 32.0402 86.2266C32.2693 86.6641 32.3839 87.1849 32.3839 87.7891ZM31.1964 87.7891C31.1964 87.3906 31.1365 87.0521 31.0167 86.7734C30.8995 86.4948 30.7316 86.2839 30.5128 86.1406C30.2967 85.9948 30.0402 85.9219 29.7433 85.9219C29.449 85.9219 29.1925 85.9948 28.9738 86.1406C28.7576 86.2839 28.5896 86.4948 28.4698 86.7734C28.3501 87.0521 28.2902 87.3906 28.2902 87.7891C28.2902 88.1875 28.3501 88.526 28.4698 88.8047C28.5896 89.0833 28.7576 89.2956 28.9738 89.4414C29.1925 89.5846 29.449 89.6562 29.7433 89.6562C30.0402 89.6562 30.2967 89.5846 30.5128 89.4414C30.7316 89.2956 30.8995 89.0833 31.0167 88.8047C31.1365 88.526 31.1964 88.1875 31.1964 87.7891ZM33.0755 84.9609H34.2473V89.6484H36.6809V90.6172H33.0755V84.9609ZM37.2827 84.9609H38.4545V89.6484H40.8881V90.6172H37.2827V84.9609ZM46.4352 87.7891C46.4352 88.388 46.3206 88.9076 46.0914 89.3477C45.8648 89.7852 45.551 90.1198 45.15 90.3516C44.7516 90.5807 44.2997 90.6953 43.7945 90.6953C43.2893 90.6953 42.8362 90.5807 42.4352 90.3516C42.0367 90.1198 41.7229 89.7839 41.4938 89.3438C41.2672 88.9036 41.1539 88.3854 41.1539 87.7891C41.1539 87.1849 41.2672 86.6641 41.4938 86.2266C41.7229 85.7891 42.0367 85.4557 42.4352 85.2266C42.8362 84.9974 43.2893 84.8828 43.7945 84.8828C44.2997 84.8828 44.7516 84.9974 45.15 85.2266C45.551 85.4557 45.8648 85.7891 46.0914 86.2266C46.3206 86.6641 46.4352 87.1849 46.4352 87.7891ZM45.2477 87.7891C45.2477 87.3906 45.1878 87.0521 45.068 86.7734C44.9508 86.4948 44.7828 86.2839 44.5641 86.1406C44.3479 85.9948 44.0914 85.9219 43.7945 85.9219C43.5003 85.9219 43.2438 85.9948 43.025 86.1406C42.8089 86.2839 42.6409 86.4948 42.5211 86.7734C42.4013 87.0521 42.3414 87.3906 42.3414 87.7891C42.3414 88.1875 42.4013 88.526 42.5211 88.8047C42.6409 89.0833 42.8089 89.2956 43.025 89.4414C43.2438 89.5846 43.5003 89.6562 43.7945 89.6562C44.0914 89.6562 44.3479 89.5846 44.5641 89.4414C44.7828 89.2956 44.9508 89.0833 45.068 88.8047C45.1878 88.526 45.2477 88.1875 45.2477 87.7891ZM46.572 84.9609H47.8494L48.7986 88.9141H48.8494L49.8845 84.9609H50.9939L52.033 88.9258H52.0798L53.0291 84.9609H54.3064L52.6931 90.6172H51.5408L50.4627 86.8828H50.4197L49.3377 90.6172H48.1892L46.572 84.9609ZM56.2208 84.9609H60.8536V85.9297H59.1192V90.6172H57.9591V85.9297H56.2208V84.9609ZM61.428 84.9609H62.5998V87.3047H65.053V84.9609H66.2248V90.6172H65.053V88.2695H62.5998V90.6172H61.428V84.9609ZM67.0258 84.9609H70.8227V85.9297H68.1977V87.3047H70.6234V88.2695H68.1977V89.6484H70.8305V90.6172H67.0258V84.9609ZM72.9167 84.9609H74.1941L75.1433 88.9141H75.1941L76.2292 84.9609H77.3386L78.3777 88.9258H78.4245L79.3738 84.9609H80.6511L79.0378 90.6172H77.8855L76.8073 86.8828H76.7644L75.6823 90.6172H74.5339L72.9167 84.9609ZM80.2059 90.6172L82.1591 84.9609H83.6669L85.6239 90.6172H84.3622L82.9364 86.2383H82.8895L81.4598 90.6172H80.2059ZM84.4169 88.3945V89.3125H81.3973V88.3945H84.4169ZM86.4991 84.9609L87.8037 87.3984H87.8545L89.1592 84.9609H90.4795L88.4131 88.6016V90.6172H87.2452V88.6016L85.1827 84.9609H86.4991Z" fill="#87889D"/>
<path d="M59.9796 41.1149V38.9298H44V35.0451H59.9796V32.6172L66.5675 36.7447L59.9796 41.1149Z" fill="#24286D"/>
</g>
<defs>
<clipPath id="clip0_16105_12996">
<rect width="110" height="129" fill="white"/>
</clipPath>
</defs>
</svg>
