<svg width="37" height="25" viewBox="0 0 37 25" fill="none" xmlns="http://www.w3.org/2000/svg">
<path d="M0 9L9 0H35C36.1046 0 37 0.895431 37 2V23C37 24.1046 36.1046 25 35 25H2C0.895432 25 0 24.1046 0 23V9Z" fill="#6A63F5"/>
<path d="M9 0V7C9 8.10457 8.10457 9 7 9H0" stroke="white"/>
<path d="M18.5471 7.96869C18.7268 7.5844 19.2732 7.5844 19.4529 7.96869L20.8743 11.0086C20.9472 11.1644 21.0951 11.2719 21.2658 11.293L24.5962 11.7055C25.0172 11.7576 25.186 12.2773 24.8761 12.567L22.4242 14.8582C22.2985 14.9756 22.242 15.1495 22.2747 15.3184L22.9115 18.6132C22.9921 19.0297 22.5499 19.3509 22.1787 19.1457L19.242 17.5218C19.0914 17.4385 18.9086 17.4385 18.758 17.5218L15.8213 19.1457C15.4501 19.3509 15.0079 19.0297 15.0885 18.6132L15.7253 15.3184C15.758 15.1495 15.7015 14.9756 15.5758 14.8582L13.1239 12.567C12.814 12.2773 12.9828 11.7576 13.4038 11.7055L16.7342 11.293C16.9049 11.2719 17.0528 11.1644 17.1257 11.0086L18.5471 7.96869Z" fill="white"/>
</svg>
