<svg width="893" height="893" viewBox="0 0 893 893" fill="none" xmlns="http://www.w3.org/2000/svg">
<path d="M850.037 830.192C788.427 864.752 675.781 794.086 566.778 663.322C601.297 768.846 600.072 853.05 556.151 877.687C506.644 905.458 416.805 849.745 330.473 746.313C343.959 812.114 334.056 865.366 298.883 885.097C240.514 917.838 134.657 845.867 62.444 724.345C-9.76877 602.822 -20.9915 477.767 37.3774 445.025C72.55 425.295 124.966 443.588 176.874 487.834C127.842 363.472 123.102 260.02 172.609 232.248C216.531 207.61 292.2 248.683 369.001 330.493C306.948 173.397 300.284 43.2835 361.893 8.72419C445.277 -38.0498 622.148 107.924 756.946 334.766C891.743 561.608 933.421 783.418 850.037 830.192Z" fill="#FFEDE9"/>
</svg>
