<svg width="362" height="362" viewBox="0 0 362 362" fill="none" xmlns="http://www.w3.org/2000/svg">
<path d="M344.584 336.539C319.609 350.549 273.945 321.903 229.758 268.894C243.751 311.671 243.254 345.805 225.45 355.793C205.381 367.05 168.962 344.466 133.965 302.537C139.432 329.211 135.418 350.798 121.16 358.796C97.4985 372.069 54.5865 342.894 25.3133 293.631C-3.96002 244.369 -8.50941 193.675 15.1519 180.402C29.41 172.404 50.6583 179.819 71.7003 197.756C51.8241 147.343 49.9023 105.405 69.9715 94.1477C87.7764 84.1601 118.451 100.81 149.584 133.974C124.429 70.2907 121.728 17.5461 146.703 3.53657C180.504 -15.4245 252.203 43.7498 306.847 135.706C361.49 227.662 378.386 317.578 344.584 336.539Z" fill="#DEE7FF"/>
</svg>
