<svg width="20" height="20" viewBox="0 0 20 20" fill="none" xmlns="http://www.w3.org/2000/svg">
<path d="M18.3332 14.0999V16.5999C18.3341 16.832 18.2866 17.0617 18.1936 17.2744C18.1006 17.487 17.9643 17.6779 17.7933 17.8348C17.6222 17.9917 17.4203 18.1112 17.2005 18.1855C16.9806 18.2599 16.7477 18.2875 16.5165 18.2666C13.9522 17.988 11.489 17.1117 9.32486 15.7083C7.31139 14.4288 5.60431 12.7217 4.32486 10.7083C2.91651 8.53426 2.04007 6.05908 1.76653 3.48325C1.7457 3.25281 1.77309 3.02055 1.84695 2.80127C1.9208 2.58199 2.03951 2.38049 2.1955 2.2096C2.3515 2.03871 2.54137 1.90218 2.75302 1.80869C2.96468 1.7152 3.19348 1.6668 3.42486 1.66658H5.92486C6.32928 1.6626 6.72136 1.80582 7.028 2.06953C7.33464 2.33324 7.53493 2.69946 7.59153 3.09992C7.69705 3.89997 7.89274 4.68552 8.17486 5.44158C8.28698 5.73985 8.31125 6.06401 8.24478 6.37565C8.17832 6.68729 8.02392 6.97334 7.79986 7.19992L6.74153 8.25825C7.92783 10.3445 9.65524 12.072 11.7415 13.2583L12.7999 12.1999C13.0264 11.9759 13.3125 11.8215 13.6241 11.755C13.9358 11.6885 14.2599 11.7128 14.5582 11.8249C15.3143 12.107 16.0998 12.3027 16.8999 12.4083C17.3047 12.4654 17.6744 12.6693 17.9386 12.9812C18.2029 13.2931 18.3433 13.6912 18.3332 14.0999Z" stroke="#626262" stroke-linecap="round" stroke-linejoin="round"/>
</svg>
