<svg width="24" height="24" viewBox="0 0 24 24" fill="none" xmlns="http://www.w3.org/2000/svg">
<path d="M11.2365 0.902777C11.6359 0.430467 12.3641 0.430467 12.7635 0.902777L14.6841 3.17356C14.913 3.44422 15.2681 3.57346 15.6174 3.51326L18.5483 3.00824C19.1579 2.9032 19.7156 3.37125 19.7181 3.98982L19.7296 6.96384C19.731 7.31832 19.92 7.64558 20.2263 7.82401L22.796 9.32105C23.3305 9.63243 23.457 10.3495 23.0612 10.8249L21.1584 13.1106C20.9316 13.383 20.866 13.7552 20.986 14.0887L21.9922 16.8874C22.2015 17.4695 21.8375 18.1001 21.2287 18.2099L18.3019 18.7377C17.953 18.8006 17.6636 19.0435 17.541 19.3761L16.513 22.1668C16.2991 22.7473 15.6149 22.9963 15.078 22.6891L12.4966 21.2122C12.1889 21.0361 11.8111 21.0361 11.5034 21.2122L8.92201 22.6891C8.3851 22.9963 7.70087 22.7473 7.48704 22.1668L6.45898 19.3761C6.33644 19.0435 6.04696 18.8006 5.69811 18.7377L2.77129 18.2099C2.16253 18.1001 1.79845 17.4695 2.00776 16.8874L3.01404 14.0888C3.13398 13.7552 3.06836 13.383 2.84156 13.1106L0.938782 10.8249C0.543014 10.3495 0.669456 9.63243 1.20396 9.32105L3.77373 7.82401C4.08003 7.64558 4.26897 7.31832 4.27035 6.96384L4.28194 3.98982C4.28435 3.37124 4.84214 2.9032 5.45174 3.00824L8.38259 3.51326C8.73192 3.57346 9.08702 3.44422 9.31593 3.17356L11.2365 0.902777Z" fill="#7177F7"/>
<path d="M9 11.7273L11.3571 15L15 9" stroke="white" stroke-width="1.4" stroke-linecap="round" stroke-linejoin="round"/>
</svg>
