<svg width="26" height="26" viewBox="0 0 26 26" fill="none" xmlns="http://www.w3.org/2000/svg">
<path d="M9.75 11.9167H16.25M7.7172 20.2596L6.06624 21.5804C5.16473 22.3016 4.71375 22.6624 4.33439 22.6628C4.00447 22.6631 3.69248 22.5131 3.48666 22.2553C3.25 21.9588 3.25 21.3817 3.25 20.2272V7.80025C3.25 6.58681 3.25 5.97963 3.48615 5.51615C3.69388 5.10847 4.0251 4.77725 4.43278 4.56953C4.89626 4.33337 5.50343 4.33337 6.71688 4.33337H19.2835C20.497 4.33337 21.1029 4.33337 21.5663 4.56953C21.974 4.77725 22.3064 5.10847 22.5141 5.51615C22.75 5.97918 22.75 6.58562 22.75 7.79669V16.0372C22.75 17.2483 22.75 17.8539 22.5141 18.3169C22.3064 18.7246 21.9747 19.0564 21.567 19.2641C21.104 19.5 20.4978 19.5 19.2867 19.5H9.88224C9.43154 19.5 9.20701 19.5 8.99146 19.5443C8.80022 19.5835 8.61484 19.6482 8.44099 19.737C8.24721 19.836 8.07353 19.975 7.72934 20.2503L7.7172 20.2596Z" stroke="#27272D" stroke-opacity="0.64" stroke-width="2" stroke-linecap="round" stroke-linejoin="round"/>
</svg>
