<svg width="26" height="26" viewBox="0 0 26 26" fill="none" xmlns="http://www.w3.org/2000/svg">
<path d="M23.8334 10.8337H2.16675M2.16675 8.88366L2.16675 17.117C2.16675 18.3304 2.16675 18.9372 2.4029 19.4006C2.61063 19.8083 2.94208 20.1398 3.34977 20.3475C3.81324 20.5837 4.41997 20.5837 5.63341 20.5837L20.3667 20.5837C21.5802 20.5837 22.1869 20.5837 22.6504 20.3475C23.0581 20.1398 23.3895 19.8083 23.5973 19.4006C23.8334 18.9372 23.8334 18.3304 23.8334 17.117V8.88366C23.8334 7.67021 23.8334 7.06349 23.5973 6.60001C23.3895 6.19233 23.0581 5.86087 22.6504 5.65315C22.1869 5.41699 21.5802 5.41699 20.3667 5.41699L5.63342 5.41699C4.41997 5.41699 3.81324 5.41699 3.34977 5.65314C2.94208 5.86087 2.61063 6.19233 2.4029 6.60001C2.16675 7.06349 2.16675 7.67021 2.16675 8.88366Z" stroke="#27272D" stroke-width="2" stroke-linecap="round" stroke-linejoin="round"/>
</svg>
