<svg width="25" height="25" viewBox="0 0 25 25" fill="none" xmlns="http://www.w3.org/2000/svg">
<path d="M17.5 3.50006C17.7626 3.23741 18.0744 3.02907 18.4176 2.88693C18.7608 2.74479 19.1286 2.67163 19.5 2.67163C19.8714 2.67163 20.2392 2.74479 20.5824 2.88693C20.9256 3.02907 21.2374 3.23741 21.5 3.50006C21.7626 3.7627 21.971 4.07451 22.1131 4.41767C22.2553 4.76083 22.3284 5.12862 22.3284 5.50006C22.3284 5.87149 22.2553 6.23929 22.1131 6.58245C21.971 6.92561 21.7626 7.23741 21.5 7.50006L8 21.0001L2.5 22.5001L4 17.0001L17.5 3.50006Z" stroke="#626262" stroke-linecap="round" stroke-linejoin="round"/>
</svg>
