<svg width="24" height="24" viewBox="0 0 24 24" fill="none" xmlns="http://www.w3.org/2000/svg">
<path d="M17.8196 14.8119C17.8864 14.872 17.965 14.919 18.0508 14.9501C18.1367 14.9813 18.2282 14.9961 18.32 14.9936C18.4119 14.9911 18.5023 14.9715 18.5862 14.9357C18.6701 14.9 18.7457 14.8488 18.8088 14.7852C18.872 14.7217 18.9213 14.6469 18.954 14.5651C18.9868 14.4834 19.0023 14.3963 18.9997 14.3088C18.9971 14.2214 18.9765 14.1353 18.9389 14.0554C18.9014 13.9756 18.8476 13.9035 18.7809 13.8435L12.4846 8.18206C12.3547 8.06514 12.1827 8 12.0039 8C11.8252 8 11.6532 8.06514 11.5233 8.18206L5.22631 13.8435C5.15806 13.9031 5.10294 13.9752 5.06417 14.0553C5.02539 14.1354 5.00373 14.2221 5.00044 14.3103C4.99715 14.3985 5.0123 14.4864 5.045 14.569C5.0777 14.6515 5.12731 14.7271 5.19094 14.7912C5.25457 14.8554 5.33096 14.9069 5.41566 14.9427C5.50037 14.9785 5.5917 14.9979 5.68436 14.9998C5.77702 15.0018 5.86915 14.9861 5.95541 14.9539C6.04167 14.9216 6.12034 14.8733 6.18685 14.8119L12.0039 9.58209L17.8196 14.8119Z" fill="#3E4148"/>
</svg>
