<svg width="32" height="32" viewBox="0 0 32 32" fill="none" xmlns="http://www.w3.org/2000/svg">
<path d="M21.4345 9.43549C21.7469 9.12307 22.2529 9.12307 22.5654 9.43549C22.8778 9.74791 22.8778 10.2539 22.5654 10.5663L17.1308 16.0009L22.5654 21.4355C22.8777 21.7479 22.8778 22.2539 22.5654 22.5663C22.253 22.8787 21.7469 22.8787 21.4345 22.5663L15.9999 17.1318L10.5654 22.5663C10.2529 22.8788 9.74693 22.8788 9.43451 22.5663C9.12209 22.2539 9.12209 21.7479 9.43451 21.4355L14.8691 16.0009L9.43451 10.5663C9.12209 10.2539 9.12209 9.74791 9.43451 9.43549C9.74693 9.12307 10.2529 9.12307 10.5654 9.43549L15.9999 14.8701L21.4345 9.43549Z" fill="#27272D"/>
</svg>
