<svg width="31" height="30" viewBox="0 0 31 30" fill="none" xmlns="http://www.w3.org/2000/svg">
<g id="Frame 1437261213">
<rect id="Rectangle 4734" x="4.41406" y="6.26562" width="20" height="12" rx="1" transform="rotate(-12.4305 4.41406 6.26562)" fill="#FFF6F4"/>
<path id="Vector 1234" d="M10.3805 10.7806L11.3468 11.502C11.8125 11.8496 12.4063 11.9775 12.9738 11.8524L24.7108 9.26534C25.7895 9.02757 26.8567 9.70927 27.0944 10.7879L29.2687 20.6523C29.5065 21.7309 28.8248 22.7981 27.7461 23.0359L8.57672 27.2612C7.49805 27.499 6.43086 26.8173 6.1931 25.7386L3.52426 13.6309C3.2865 12.5522 3.96819 11.485 5.04687 11.2472L8.75359 10.4302C9.32106 10.3051 9.91487 10.433 10.3805 10.7806Z" fill="#F26646"/>
</g>
</svg>
