<svg width="44" height="45" viewBox="0 0 44 45" fill="none" xmlns="http://www.w3.org/2000/svg">
<g id="Frame 26085909">
<path id="Vector (Stroke)" fill-rule="evenodd" clip-rule="evenodd" d="M18.5183 2.41379C19.1959 2.41531 19.7884 2.87099 19.9638 3.52556L23.4579 16.5656L31.0645 14.5274C31.5833 14.3883 32.1369 14.5373 32.5158 14.918C32.8947 15.2986 33.0412 15.8528 32.8999 16.371L26.0456 41.5013C25.8672 42.1551 25.2727 42.6081 24.5951 42.6066C23.9174 42.6051 23.3249 42.1494 23.1495 41.4948L19.6555 28.4548L12.0488 30.493C11.53 30.632 10.9765 30.483 10.5975 30.1024C10.2186 29.7218 10.0721 29.1676 10.2134 28.6494L17.0678 3.51908C17.2461 2.8653 17.8406 2.41228 18.5183 2.41379ZM13.7949 26.9193L20.3279 25.1688C21.1281 24.9544 21.9506 25.4293 22.165 26.2295L24.6113 35.359L29.3184 18.1011L22.7854 19.8516C21.9852 20.066 21.1627 19.5911 20.9483 18.7909L18.5021 9.66134L13.7949 26.9193Z" fill="white" fill-opacity="0.44"/>
</g>
</svg>
