<svg width="20" height="20" viewBox="0 0 20 20" fill="none" xmlns="http://www.w3.org/2000/svg">
<g id="Media / Play">
<path id="Vector" d="M4.16675 14.4447V5.55582C4.16675 4.82285 4.16675 4.45596 4.32099 4.23909C4.45561 4.04981 4.66311 3.92554 4.89347 3.89582C5.15732 3.86179 5.48092 4.03438 6.1272 4.37906L14.4605 8.82351L14.4636 8.82485C15.1778 9.20576 15.535 9.39631 15.6522 9.65027C15.7545 9.87182 15.7545 10.1276 15.6522 10.3491C15.5349 10.6034 15.1768 10.7948 14.4605 11.1768L6.1272 15.6212C5.48046 15.9661 5.15741 16.138 4.89347 16.104C4.66311 16.0743 4.45561 15.95 4.32099 15.7608C4.16675 15.5439 4.16675 15.1777 4.16675 14.4447Z" fill="#FAFAFA"/>
</g>
</svg>
