<svg width="49" height="48" viewBox="0 0 49 48" fill="none" xmlns="http://www.w3.org/2000/svg">
<g id="Component 1">
<path id="Union" fill-rule="evenodd" clip-rule="evenodd" d="M24.3333 48C26.9842 48 29.1333 45.851 29.1333 43.2L29.1332 35.588L34.5158 40.9705C36.3903 42.845 39.4295 42.845 41.304 40.9705C43.1785 39.096 43.1785 36.0568 41.304 34.1823L35.9217 28.8H43.5332C46.1842 28.8 48.3333 26.651 48.3333 24C48.3333 21.349 46.1842 19.2 43.5332 19.2H35.9217L41.3039 13.8178C43.1784 11.9433 43.1784 8.90412 41.3039 7.0296C39.4293 5.15508 36.3901 5.15509 34.5156 7.0296L29.1332 12.412L29.1332 4.8C29.1332 2.14903 26.9842 0 24.3332 0C21.6823 0 19.5332 2.14904 19.5332 4.8L19.5332 12.4116L14.1511 7.0294C12.2766 5.15488 9.23738 5.15488 7.36286 7.0294C5.48834 8.90391 5.48834 11.9431 7.36286 13.8176L12.7452 19.2H5.13325C2.48229 19.2 0.333252 21.349 0.333252 24C0.333252 26.651 2.48229 28.8 5.13326 28.8H12.7452L7.36273 34.1825C5.48822 36.057 5.48821 39.0962 7.36273 40.9707C9.23725 42.8452 12.2764 42.8452 14.151 40.9707L19.5332 35.5884L19.5333 43.2C19.5333 45.851 21.6823 48 24.3333 48Z" fill="#757BFF"/>
</g>
</svg>
