<svg width="49" height="48" viewBox="0 0 49 48" fill="none" xmlns="http://www.w3.org/2000/svg">
<g id="Component 1">
<path id="Union" fill-rule="evenodd" clip-rule="evenodd" d="M29.3633 43.2C29.3633 45.851 27.2142 48 24.5633 48C21.9123 48 19.7633 45.851 19.7633 43.2V32.3139L10.3358 37.7569C8.04001 39.0824 5.10437 38.2958 3.77889 36C2.4534 33.7041 3.24001 30.7685 5.53582 29.443L14.9634 24L5.53582 18.557C3.24001 17.2315 2.4534 14.2958 3.77889 12C5.10437 9.70424 8.04001 8.91764 10.3358 10.2431L19.7633 15.6861V4.8C19.7633 2.14904 21.9123 0 24.5633 0C27.2142 0 29.3633 2.14903 29.3633 4.8V15.6862L38.7912 10.243C41.087 8.91755 44.0226 9.70415 45.3481 12C46.6736 14.2958 45.887 17.2314 43.5912 18.5569L34.1634 24L43.5912 29.4431C45.887 30.7686 46.6736 33.7042 45.3481 36C44.0226 38.2959 41.087 39.0825 38.7912 37.757L29.3633 32.3138V43.2Z" fill="#D9D9D9"/>
</g>
</svg>
