<svg width="20" height="20" viewBox="0 0 20 20" fill="none" xmlns="http://www.w3.org/2000/svg">
<g id="Menu / More_Vertical">
<g id="Vector">
<path d="M9.16675 15.0001C9.16675 15.4603 9.53984 15.8334 10.0001 15.8334C10.4603 15.8334 10.8334 15.4603 10.8334 15.0001C10.8334 14.5398 10.4603 14.1667 10.0001 14.1667C9.53984 14.1667 9.16675 14.5398 9.16675 15.0001Z" fill="#989BA2"/>
<path d="M9.16675 10.0001C9.16675 10.4603 9.53984 10.8334 10.0001 10.8334C10.4603 10.8334 10.8334 10.4603 10.8334 10.0001C10.8334 9.53984 10.4603 9.16675 10.0001 9.16675C9.53984 9.16675 9.16675 9.53984 9.16675 10.0001Z" fill="#989BA2"/>
<path d="M9.16675 5.00008C9.16675 5.46032 9.53984 5.83341 10.0001 5.83341C10.4603 5.83341 10.8334 5.46032 10.8334 5.00008C10.8334 4.53984 10.4603 4.16675 10.0001 4.16675C9.53984 4.16675 9.16675 4.53984 9.16675 5.00008Z" fill="#989BA2"/>
<path d="M9.16675 15.0001C9.16675 15.4603 9.53984 15.8334 10.0001 15.8334C10.4603 15.8334 10.8334 15.4603 10.8334 15.0001C10.8334 14.5398 10.4603 14.1667 10.0001 14.1667C9.53984 14.1667 9.16675 14.5398 9.16675 15.0001Z" stroke="#989BA2" stroke-width="1.4" stroke-linecap="round" stroke-linejoin="round"/>
<path d="M9.16675 10.0001C9.16675 10.4603 9.53984 10.8334 10.0001 10.8334C10.4603 10.8334 10.8334 10.4603 10.8334 10.0001C10.8334 9.53984 10.4603 9.16675 10.0001 9.16675C9.53984 9.16675 9.16675 9.53984 9.16675 10.0001Z" stroke="#989BA2" stroke-width="1.4" stroke-linecap="round" stroke-linejoin="round"/>
<path d="M9.16675 5.00008C9.16675 5.46032 9.53984 5.83341 10.0001 5.83341C10.4603 5.83341 10.8334 5.46032 10.8334 5.00008C10.8334 4.53984 10.4603 4.16675 10.0001 4.16675C9.53984 4.16675 9.16675 4.53984 9.16675 5.00008Z" stroke="#989BA2" stroke-width="1.4" stroke-linecap="round" stroke-linejoin="round"/>
</g>
</g>
</svg>
