<svg width="16" height="20" viewBox="0 0 16 20" fill="none" xmlns="http://www.w3.org/2000/svg">
<path d="M2.09375 19.3516C0.916016 19.3516 0.0722656 18.5957 0.0722656 17.541C0.0722656 17.0312 0.248047 16.627 0.617188 16.0996L5.3457 9.70117L0.6875 3.26758C0.371094 2.8457 0.212891 2.40625 0.212891 1.89648C0.212891 0.824219 1.12695 -0.00195312 2.32227 -0.00195312C3.18359 -0.00195312 3.62305 0.296875 4.18555 1.17578L8.07031 6.90625H8.1582L11.9551 1.21094C12.5176 0.349609 12.9922 -0.00195312 13.7656 -0.00195312C14.9961 -0.00195312 15.8574 0.771484 15.8574 1.86133C15.8574 2.37109 15.6992 2.81055 15.3125 3.32031L10.6719 9.57812L15.3301 16.082C15.6465 16.5391 15.8047 16.9609 15.8047 17.418C15.8047 18.5781 14.8906 19.3516 13.7129 19.3516C12.9043 19.3516 12.4297 19.0176 11.9727 18.3145L7.94727 12.3203H7.85938L3.85156 18.2441C3.30664 19.0879 2.83203 19.3516 2.09375 19.3516Z" fill="white" fill-opacity="0.55"/>
</svg>
