<svg viewBox="0 0 38 39" fill="none" xmlns="http://www.w3.org/2000/svg">
<g id="Group 1437257783">
<ellipse id="Ellipse 2628" cx="18.2053" cy="21.2116" rx="3.18035" ry="3.18035" fill="#FF6917"/>
<circle id="Ellipse 2629" cx="18.2043" cy="20.8122" r="6.95088" stroke="#FF8111" stroke-width="2"/>
<circle id="Ellipse 2630" cx="18.2053" cy="21.2097" r="11.7214" stroke="#FF960C" stroke-width="2"/>
<circle id="Ellipse 2631" cx="18.2048" cy="21.2087" r="16.4919" stroke="#FFA907" stroke-width="2"/>
<path id="Vector 27774" d="M17.7484 19.4319L26.5176 10.2878C26.5961 10.2059 26.6444 10.0998 26.6547 9.98679L26.977 6.42678C26.9878 6.30678 27.0417 6.19474 27.1286 6.11127L31.7667 1.6561C32.069 1.36569 32.573 1.55392 32.611 1.97143L32.8782 4.91028C32.8993 5.14312 33.079 5.33021 33.3108 5.36073L36.3268 5.75781C36.7295 5.81083 36.9043 6.29644 36.6277 6.59394L32.4456 11.0933C32.3634 11.1818 32.2518 11.2375 32.1317 11.2501L28.3233 11.6504C28.2073 11.6626 28.0992 11.7149 28.0178 11.7984L19.1842 20.8474C18.9894 21.047 18.6689 21.0486 18.4721 20.851L17.755 20.1308C17.5633 19.9383 17.5603 19.628 17.7484 19.4319Z" fill="#FF6917"/>
</g>
</svg>
