<svg viewBox="0 0 45 44" fill="none" xmlns="http://www.w3.org/2000/svg">
<rect x="25.4935" y="7.43188" width="13.7867" height="29.8711" rx="1" fill="#1DAEFF"/>
<rect x="20.8974" y="6.66809" width="13.7867" height="31.403" rx="1" fill="url(#paint0_linear_418_101)"/>
<path d="M5.61646 37.2555V7.47903C5.61646 6.94755 6.0322 6.50892 6.56291 6.48046L30.6231 5.1904C31.1956 5.1597 31.6766 5.61564 31.6766 6.18897V38.5455C31.6766 39.1188 31.1956 39.5748 30.6231 39.5441L6.56291 38.254C6.0322 38.2256 5.61646 37.7869 5.61646 37.2555Z" fill="url(#paint1_linear_418_101)"/>
<path d="M9.64117 11.6206L25.5977 10.9097" stroke="white" stroke-width="2" stroke-linecap="round"/>
<path d="M9.82739 15.822L20.745 15.3356" stroke="white" stroke-width="2" stroke-linecap="round"/>
<path d="M10.0152 20.017L16.7337 19.7177" stroke="white" stroke-width="2" stroke-linecap="round"/>
<defs>
<linearGradient id="paint0_linear_418_101" x1="34.6841" y1="22.7525" x2="18.5996" y2="22.7525" gradientUnits="userSpaceOnUse">
<stop stop-color="#A0E6FF"/>
<stop offset="1" stop-color="#1DAEFF"/>
</linearGradient>
<linearGradient id="paint1_linear_418_101" x1="5.61645" y1="8.49651" x2="29.575" y2="38.3396" gradientUnits="userSpaceOnUse">
<stop stop-color="#39CCFF"/>
<stop offset="1" stop-color="#72DBFF"/>
</linearGradient>
</defs>
</svg>
