<svg viewBox="0 0 43 33" fill="none" xmlns="http://www.w3.org/2000/svg">
<g id="Group 1437257784">
<path id="Vector 27806" d="M34.6784 32.4001H29.5212C29.0073 32.4001 28.5771 32.0106 28.5262 31.4992L26.2432 8.56585C26.1846 7.97732 26.6468 7.4668 27.2383 7.4668H40.9566C41.6163 7.4668 42.0953 8.09448 41.9211 8.73084L35.643 31.6642C35.524 32.0988 35.129 32.4001 34.6784 32.4001Z" fill="#C772E6"/>
<path id="Rectangle 6669307" d="M9.73836 1.7548C9.79463 1.24837 10.2227 0.865234 10.7322 0.865234H36.7496C37.3456 0.865234 37.8093 1.3833 37.7435 1.97567L34.462 31.509C34.4057 32.0154 33.9776 32.3986 33.4681 32.3986H7.45076C6.85475 32.3986 6.39106 31.8805 6.45688 31.2881L9.73836 1.7548Z" fill="url(#paint0_linear_16105_26624)"/>
<path id="Vector 27805" d="M30.4502 7.52071H13.4403C12.9467 7.52071 12.5269 7.16052 12.4519 6.67263L12.1408 4.64887C12.0658 4.16097 11.6461 3.80078 11.1524 3.80078H1.57222C0.98062 3.80078 0.518342 4.31157 0.577184 4.90024L3.23603 31.5002C3.28713 32.0115 3.7173 32.4008 4.23107 32.4008H33.0791C33.6766 32.4008 34.1408 31.8802 34.0726 31.2866L31.4436 8.40656C31.3856 7.90176 30.9583 7.52071 30.4502 7.52071Z" fill="url(#paint1_linear_16105_26624)"/>
</g>
<defs>
<linearGradient id="paint0_linear_16105_26624" x1="20.7376" y1="0.865234" x2="30.6386" y2="30.5495" gradientUnits="userSpaceOnUse">
<stop stop-color="#F1CAFF"/>
<stop offset="1" stop-color="#F7E2FF"/>
</linearGradient>
<linearGradient id="paint1_linear_16105_26624" x1="6.62134" y1="3.55923" x2="16.4965" y2="28.672" gradientUnits="userSpaceOnUse">
<stop stop-color="#E18FFF"/>
<stop offset="1" stop-color="#EBB3FF"/>
</linearGradient>
</defs>
</svg>
