<svg viewBox="0 0 44 44" fill="none" xmlns="http://www.w3.org/2000/svg">
<path d="M36.5576 23.7463C37.5201 23.7463 38.1603 22.7572 37.7674 21.8786L33.1445 12.3527C30.9721 7.19994 25.8459 3.597 19.8851 3.66765C12.1362 3.76037 5.81337 10.2156 5.86636 17.9646C5.88844 20.9052 6.80683 23.6339 8.35662 25.8946C12.304 31.4447 12.8691 31.9613 12.8691 36.1117V37.8779C12.8691 38.6108 13.4608 39.2025 14.1937 39.2025H26.0711C26.804 39.2025 27.3957 38.6108 27.3957 37.8779V35.5333C27.3957 34.8004 27.9873 34.2087 28.7203 34.2087H32.2614C32.9944 34.2087 33.586 33.6171 33.586 32.8841V25.0709C33.586 24.3379 34.1777 23.7463 34.9106 23.7463H36.5531H36.5576Z" fill="url(#paint0_linear_418_130)"/>
<mask id="mask0_418_130" style="mask-type:alpha" maskUnits="userSpaceOnUse" x="5" y="3" width="33" height="37">
<path d="M36.5576 23.7813C37.5201 23.7813 38.1603 22.7923 37.7674 21.9136L33.1445 12.3877C30.9721 7.23497 25.8459 3.63204 19.8851 3.70268C12.1362 3.7954 5.81337 10.2507 5.86636 17.9996C5.88844 20.9403 6.80683 23.669 8.35662 25.9296C12.304 31.4797 12.8691 31.9963 12.8691 36.1468V37.9129C12.8691 38.6459 13.4608 39.2375 14.1937 39.2375H26.0711C26.804 39.2375 27.3957 38.6459 27.3957 37.9129V35.5684C27.3957 34.8354 27.9873 34.2438 28.7203 34.2438H32.2614C32.9944 34.2438 33.586 33.6521 33.586 32.9191V25.1059C33.586 24.373 34.1777 23.7813 34.9106 23.7813H36.5531H36.5576Z" fill="url(#paint1_linear_418_130)"/>
</mask>
<g mask="url(#mask0_418_130)">
<rect x="15.6152" y="6.52173" width="19.9815" height="7.84986" rx="2" fill="url(#paint2_linear_418_130)"/>
<path fill-rule="evenodd" clip-rule="evenodd" d="M7.58911 16.2772C6.48454 16.2772 5.58911 17.1727 5.58911 18.2772V23.5543C5.58911 24.6589 6.48454 25.5543 7.58911 25.5543H17.6633V27.2105C17.6633 27.6344 18.1578 27.866 18.4834 27.5946L20.9318 25.5543H21.4297C22.5343 25.5543 23.4297 24.6589 23.4297 23.5543V18.2772C23.4297 17.1727 22.5343 16.2772 21.4297 16.2772H7.58911Z" fill="url(#paint3_linear_418_130)"/>
</g>
<defs>
<linearGradient id="paint0_linear_418_130" x1="14.5452" y1="6.52112" x2="21.8755" y2="39.2025" gradientUnits="userSpaceOnUse">
<stop offset="0.365" stop-color="#6B5BFF"/>
<stop offset="1" stop-color="#887CFF"/>
</linearGradient>
<linearGradient id="paint1_linear_418_130" x1="21.8755" y1="3.70166" x2="21.8755" y2="39.2375" gradientUnits="userSpaceOnUse">
<stop offset="0.365" stop-color="#7465FF"/>
<stop offset="1" stop-color="#7D6FFF"/>
</linearGradient>
<linearGradient id="paint2_linear_418_130" x1="25.6059" y1="6.52173" x2="25.6059" y2="14.3716" gradientUnits="userSpaceOnUse">
<stop stop-color="#B0A8FF"/>
<stop offset="1" stop-color="#BCB6FF"/>
</linearGradient>
<linearGradient id="paint3_linear_418_130" x1="8.20472" y1="12.9898" x2="17.6871" y2="27.7754" gradientUnits="userSpaceOnUse">
<stop stop-color="#B8ADFF"/>
<stop offset="1" stop-color="#CAC5FF"/>
</linearGradient>
</defs>
</svg>
