<svg viewBox="0 0 33 37" fill="none" xmlns="http://www.w3.org/2000/svg">
<g id="Group 1437257785">
<path id="Subtract" d="M31.0577 20.7457C32.0203 20.7457 32.6605 19.7566 32.2676 18.878L27.6447 9.35206C25.4723 4.19933 20.3461 0.596391 14.3853 0.667036C6.63636 0.759759 0.313557 7.21502 0.366542 14.964C0.388618 17.9046 1.30701 20.6333 2.85681 22.894C6.80414 28.4441 7.36931 28.9607 7.36931 33.1111V34.8773C7.36931 35.6102 7.96097 36.2019 8.69392 36.2019H20.5713C21.3042 36.2019 21.8959 35.6102 21.8959 34.8773V32.5327C21.8959 31.7998 22.4875 31.2081 23.2205 31.2081H26.7616C27.4945 31.2081 28.0862 30.6165 28.0862 29.8835V22.0703C28.0862 21.3373 28.6779 20.7457 29.4108 20.7457H31.0533H31.0577Z" fill="url(#paint0_linear_16105_26632)"/>
<g id="Mask group">
<mask id="mask0_16105_26632" style="mask-type:alpha" maskUnits="userSpaceOnUse" x="0" y="0" width="33" height="37">
<path id="Subtract_2" d="M31.0577 20.7808C32.0203 20.7808 32.6605 19.7918 32.2676 18.9131L27.6447 9.38722C25.4723 4.23448 20.3461 0.631547 14.3853 0.702193C6.63636 0.794915 0.313557 7.25018 0.366542 14.9991C0.388618 17.9398 1.30701 20.6685 2.85681 22.9291C6.80414 28.4793 7.36931 28.9958 7.36931 33.1463V34.9124C7.36931 35.6454 7.96097 36.237 8.69392 36.237H20.5713C21.3042 36.237 21.8959 35.6454 21.8959 34.9124V32.5679C21.8959 31.8349 22.4875 31.2433 23.2205 31.2433H26.7616C27.4945 31.2433 28.0862 30.6516 28.0862 29.9187V22.1054C28.0862 21.3725 28.6779 20.7808 29.4108 20.7808H31.0533H31.0577Z" fill="url(#paint1_linear_16105_26632)"/>
</mask>
<g mask="url(#mask0_16105_26632)">
<rect id="Rectangle 6669308" x="10.1152" y="3.52148" width="19.9815" height="7.84986" rx="2" fill="url(#paint2_linear_16105_26632)"/>
<path id="Union" fill-rule="evenodd" clip-rule="evenodd" d="M2.08936 13.2773C0.984786 13.2773 0.0893555 14.1728 0.0893555 15.2773V20.5545C0.0893555 21.659 0.984788 22.5545 2.08936 22.5545H12.1636V24.2106C12.1636 24.6345 12.658 24.8661 12.9837 24.5947L15.432 22.5545H15.9299C17.0345 22.5545 17.9299 21.659 17.9299 20.5545V15.2773C17.9299 14.1728 17.0345 13.2773 15.9299 13.2773H2.08936Z" fill="url(#paint3_linear_16105_26632)"/>
</g>
</g>
</g>
<defs>
<linearGradient id="paint0_linear_16105_26632" x1="9.04538" y1="3.52051" x2="16.3757" y2="36.2019" gradientUnits="userSpaceOnUse">
<stop offset="0.365" stop-color="#6B5BFF"/>
<stop offset="1" stop-color="#887CFF"/>
</linearGradient>
<linearGradient id="paint1_linear_16105_26632" x1="16.3757" y1="0.701172" x2="16.3757" y2="36.237" gradientUnits="userSpaceOnUse">
<stop offset="0.365" stop-color="#7465FF"/>
<stop offset="1" stop-color="#7D6FFF"/>
</linearGradient>
<linearGradient id="paint2_linear_16105_26632" x1="20.106" y1="3.52148" x2="20.106" y2="11.3713" gradientUnits="userSpaceOnUse">
<stop stop-color="#B0A8FF"/>
<stop offset="1" stop-color="#BCB6FF"/>
</linearGradient>
<linearGradient id="paint3_linear_16105_26632" x1="2.70497" y1="9.9899" x2="12.1874" y2="24.7755" gradientUnits="userSpaceOnUse">
<stop stop-color="#B8ADFF"/>
<stop offset="1" stop-color="#CAC5FF"/>
</linearGradient>
</defs>
</svg>
