<svg viewBox="0 0 44 44" fill="none" xmlns="http://www.w3.org/2000/svg">
<g id="&#234;&#183;&#184;&#235;&#158;&#152;&#237;&#148;&#189;">
<path id="Union" fill-rule="evenodd" clip-rule="evenodd" d="M39.6217 25.1718L35.9889 16.6633C35.9623 16.601 35.9419 16.5344 35.928 16.4681C33.9995 7.2206 26.6358 4.63257 22.4012 4.41142C21.8638 4.38335 21.4399 4.82808 21.4399 5.36622V15.6527C20.8559 14.8233 19.8909 14.2814 18.7995 14.2814C17.0171 14.2814 15.5723 15.7263 15.5723 17.5086C15.5723 19.291 17.0171 20.7358 18.7995 20.7358C19.8909 20.7358 20.8559 20.194 21.4399 19.3646V25.7581C21.9265 25.4406 22.5078 25.256 23.1323 25.256C24.8448 25.256 26.2331 26.6443 26.2331 28.3568C26.2331 30.0693 24.8448 31.4576 23.1323 31.4576C22.5078 31.4576 21.9265 31.273 21.4399 30.9554V38.6012C21.4399 39.1535 21.8876 39.6012 22.4399 39.6012H28.9746C29.5269 39.6012 29.9746 39.1535 29.9746 38.6012V34.5174C29.9746 33.9651 30.4223 33.5174 30.9746 33.5174H34.9489C35.5012 33.5174 35.9489 33.0697 35.9489 32.5174V27.5644C35.9489 27.0122 36.3967 26.5644 36.9489 26.5644H38.702C39.4193 26.5644 39.9034 25.8315 39.6217 25.1718Z" fill="url(#paint0_linear_16105_26658)"/>
<path id="Union_2" fill-rule="evenodd" clip-rule="evenodd" d="M4.73673 26.5694L8.01117 19.1544C8.0393 19.0907 8.06096 19.0225 8.0757 18.9544C9.84784 10.7703 16.56 8.44129 20.4758 8.21829C21.0135 8.18767 21.4384 8.6326 21.4384 9.17121V15.9758C20.8961 15.0404 19.8735 14.4098 18.7012 14.4098C16.9618 14.4098 15.5518 15.798 15.5518 17.5106C15.5518 19.2231 16.9618 20.6114 18.7012 20.6114C19.8735 20.6114 20.8961 19.9807 21.4384 19.0453V25.7634C21.9254 25.4452 22.5073 25.2602 23.1325 25.2602C24.845 25.2602 26.2333 26.6484 26.2333 28.361C26.2333 30.0735 24.845 31.4618 23.1325 31.4618C22.5073 31.4618 21.9254 31.2767 21.4384 30.9585V38.6013C21.4384 39.1536 20.9907 39.6013 20.4384 39.6013H14.5649C14.0126 39.6013 13.5649 39.1536 13.5649 38.6013V35.1749C13.5649 34.6226 13.1172 34.1749 12.5649 34.1749H9.05348C8.5012 34.1749 8.05348 33.7272 8.05348 33.1749V28.9733C8.05348 28.421 7.60577 27.9733 7.05348 27.9733H5.65151C4.92888 27.9733 4.44482 27.2304 4.73673 26.5694Z" fill="url(#paint1_linear_16105_26658)"/>
</g>
<defs>
<linearGradient id="paint0_linear_16105_26658" x1="26.1889" y1="10.9285" x2="28.5234" y2="39.2161" gradientUnits="userSpaceOnUse">
<stop stop-color="#4E74FF"/>
<stop offset="1" stop-color="#708FFF"/>
</linearGradient>
<linearGradient id="paint1_linear_16105_26658" x1="20.0661" y1="8.99177" x2="15.3921" y2="39.5936" gradientUnits="userSpaceOnUse">
<stop stop-color="#9CB1FF"/>
<stop offset="1" stop-color="#CBCFFF"/>
</linearGradient>
</defs>
</svg>
