<svg viewBox="0 0 45 44" fill="none" xmlns="http://www.w3.org/2000/svg">
<g id="&#234;&#183;&#184;&#235;&#158;&#152;&#237;&#148;&#189;">
<g id="Group 1437257792">
<g id="Group 1437257793">
<path id="Vector 27847" d="M37.624 5C41.1995 5 41.2421 9 40.8164 11H14V5L37.624 5Z" fill="#40B69A"/>
<path id="Vector 27845" d="M38 5L10 5C8.89543 5 8 5.89543 8 7L8 41H32.7456C33.8502 41 34.7456 40.1046 34.7456 39V9.23237C34.7456 8.16909 35.169 7.14956 35.9222 6.39901L36.4873 5.83581C36.6523 5.67141 36.8447 5.53709 37.0559 5.4389L38 5Z" fill="url(#paint0_linear_16211_41080)"/>
<path id="Vector 27846" d="M28.4491 36C28.4491 39 30.1497 40.5833 31 41H6.76656C3.7055 40 3.79053 37.25 4.21567 36H28.4491Z" fill="url(#paint1_linear_16211_41080)"/>
<path id="Vector 27848" d="M14 13H28" stroke="white" stroke-width="2" stroke-linecap="round"/>
<path id="Vector 27849" d="M14 18H23" stroke="white" stroke-width="2" stroke-linecap="round"/>
<path id="Vector 27850" d="M14 23H18" stroke="white" stroke-width="2" stroke-linecap="round"/>
</g>
</g>
</g>
<defs>
<linearGradient id="paint0_linear_16211_41080" x1="11.5441" y1="5.0579" x2="29.9397" y2="41.2434" gradientUnits="userSpaceOnUse">
<stop stop-color="#56E0C0"/>
<stop offset="1" stop-color="#83F2D8"/>
</linearGradient>
<linearGradient id="paint1_linear_16211_41080" x1="13.4533" y1="31.2752" x2="18.0263" y2="41.1259" gradientUnits="userSpaceOnUse">
<stop stop-color="#5FCAB1"/>
<stop offset="1" stop-color="#44C0A2"/>
</linearGradient>
</defs>
</svg>
