<svg width="33" height="37" viewBox="0 0 33 37" fill="none" xmlns="http://www.w3.org/2000/svg">
<g id="Group 1437257785">
<path id="Subtract" d="M31.5577 20.7457C32.5203 20.7457 33.1605 19.7566 32.7676 18.878L28.1447 9.35206C25.9723 4.19933 20.8461 0.596391 14.8853 0.667036C7.13636 0.759759 0.813557 7.21502 0.866542 14.964C0.888618 17.9046 1.80701 20.6333 3.35681 22.894C7.30414 28.4441 7.86931 28.9607 7.86931 33.1111V34.8773C7.86931 35.6102 8.46097 36.2019 9.19392 36.2019H21.0713C21.8042 36.2019 22.3959 35.6102 22.3959 34.8773V32.5327C22.3959 31.7998 22.9875 31.2081 23.7205 31.2081H27.2616C27.9945 31.2081 28.5862 30.6165 28.5862 29.8835V22.0703C28.5862 21.3373 29.1779 20.7457 29.9108 20.7457H31.5533H31.5577Z" fill="url(#paint0_linear_16547_28991)"/>
<g id="Mask group">
<mask id="mask0_16547_28991" style="mask-type:alpha" maskUnits="userSpaceOnUse" x="0" y="0" width="33" height="37">
<path id="Subtract_2" d="M31.5577 20.7808C32.5203 20.7808 33.1605 19.7918 32.7676 18.9131L28.1447 9.38722C25.9723 4.23449 20.8461 0.631547 14.8853 0.702193C7.13636 0.794915 0.813557 7.25018 0.866542 14.9991C0.888618 17.9398 1.80701 20.6685 3.35681 22.9291C7.30414 28.4793 7.86931 28.9958 7.86931 33.1463V34.9124C7.86931 35.6454 8.46097 36.237 9.19392 36.237H21.0713C21.8042 36.237 22.3959 35.6454 22.3959 34.9124V32.5679C22.3959 31.8349 22.9875 31.2433 23.7205 31.2433H27.2616C27.9945 31.2433 28.5862 30.6516 28.5862 29.9187V22.1054C28.5862 21.3725 29.1779 20.7808 29.9108 20.7808H31.5533H31.5577Z" fill="url(#paint1_linear_16547_28991)"/>
</mask>
<g mask="url(#mask0_16547_28991)">
<rect id="Rectangle 6669308" x="10.6152" y="3.52148" width="19.9815" height="7.84986" rx="2" fill="url(#paint2_linear_16547_28991)"/>
<path id="Union" fill-rule="evenodd" clip-rule="evenodd" d="M2.58936 13.2773C1.48479 13.2773 0.589355 14.1728 0.589355 15.2773V20.5545C0.589355 21.659 1.48479 22.5545 2.58936 22.5545H12.6636V24.2106C12.6636 24.6345 13.158 24.8661 13.4837 24.5947L15.932 22.5545H16.4299C17.5345 22.5545 18.4299 21.659 18.4299 20.5545V15.2773C18.4299 14.1728 17.5345 13.2773 16.4299 13.2773H2.58936Z" fill="url(#paint3_linear_16547_28991)"/>
</g>
</g>
</g>
<defs>
<linearGradient id="paint0_linear_16547_28991" x1="9.54538" y1="3.52051" x2="16.8757" y2="36.2019" gradientUnits="userSpaceOnUse">
<stop offset="0.365" stop-color="#DA78FF"/>
<stop offset="1" stop-color="#EBB3FF"/>
</linearGradient>
<linearGradient id="paint1_linear_16547_28991" x1="16.8757" y1="0.701172" x2="16.8757" y2="36.237" gradientUnits="userSpaceOnUse">
<stop offset="0.365" stop-color="#7465FF"/>
<stop offset="1" stop-color="#7D6FFF"/>
</linearGradient>
<linearGradient id="paint2_linear_16547_28991" x1="20.606" y1="3.52148" x2="20.606" y2="11.3713" gradientUnits="userSpaceOnUse">
<stop stop-color="#EBB6FF"/>
<stop offset="1" stop-color="#EEBFFF"/>
</linearGradient>
<linearGradient id="paint3_linear_16547_28991" x1="3.20497" y1="9.9899" x2="12.6874" y2="24.7755" gradientUnits="userSpaceOnUse">
<stop stop-color="#EBB6FF"/>
<stop offset="1" stop-color="#EEBFFF"/>
</linearGradient>
</defs>
</svg>
