<svg width="800" height="400" viewBox="0 0 800 400" fill="none" xmlns="http://www.w3.org/2000/svg">
<g clip-path="url(#clip0_13485_8761)">
<rect width="800" height="400" fill="black"/>
<g opacity="0.3">
<path d="M87.5125 362.226C85.5982 363.3 82.0983 361.104 78.7115 357.041C79.784 360.32 79.746 362.936 78.3813 363.702C76.8431 364.564 74.0518 362.833 71.3694 359.62C71.7885 361.664 71.4808 363.319 70.3879 363.932C68.5744 364.949 65.2854 362.713 63.0417 358.937C60.798 355.161 60.4494 351.276 62.2629 350.259C63.3557 349.646 64.9843 350.214 66.5971 351.589C65.0737 347.725 64.9264 344.511 66.4646 343.648C67.8293 342.882 70.1803 344.158 72.5665 346.7C70.6385 341.819 70.4315 337.776 72.3457 336.703C74.9365 335.249 80.4319 339.785 84.6201 346.833C88.8083 353.881 90.1032 360.773 87.5125 362.226Z" fill="white"/>
<path d="M122.274 346.694C123.411 347.594 124.899 348.043 126.739 348.043C128.145 348.043 129.23 347.723 129.995 347.082C130.76 346.441 131.143 345.583 131.143 344.508C131.143 343.774 130.952 343.175 130.569 342.709C130.197 342.244 129.727 341.888 129.158 341.64C128.6 341.381 127.897 341.133 127.049 340.895C126.326 340.689 125.778 340.487 125.406 340.291C125.044 340.084 124.863 339.8 124.863 339.438C124.863 339.086 125.034 338.807 125.375 338.601C125.716 338.394 126.171 338.29 126.739 338.29C127.876 338.29 128.884 338.544 129.763 339.05L130.693 337.236C129.577 336.544 128.259 336.197 126.739 336.197C125.406 336.197 124.367 336.497 123.623 337.097C122.878 337.696 122.506 338.513 122.506 339.546C122.506 340.28 122.692 340.88 123.065 341.345C123.447 341.8 123.912 342.151 124.46 342.399C125.008 342.647 125.69 342.885 126.507 343.113C127.21 343.309 127.763 343.521 128.166 343.748C128.579 343.965 128.786 344.27 128.786 344.663C128.786 345.056 128.605 345.371 128.243 345.609C127.892 345.836 127.391 345.95 126.739 345.95C125.302 345.95 124.165 345.588 123.328 344.865L122.274 346.694Z" fill="white"/>
<path d="M116.075 338.506V347.856H118.447V338.506H121.765V336.382H112.757V338.506H116.075Z" fill="white"/>
<path d="M103.965 347.856V336.382H112.059V338.506H106.291V340.972H111.655V343.049H106.291V345.732H112.276V347.856H103.965Z" fill="white"/>
<path d="M95.3029 336.382V347.856H102.854V345.732H97.6287V336.382H95.3029Z" fill="white"/>
<path fill-rule="evenodd" clip-rule="evenodd" d="M156.236 360.782C156.505 361.247 156.789 361.593 157.089 361.821C157.389 362.048 157.797 362.213 158.314 362.317V364.271C157.652 364.25 157.094 364.167 156.639 364.022C156.195 363.878 155.797 363.645 155.445 363.325C155.094 363.004 154.748 362.555 154.406 361.976L153.678 360.751H151.259V364.177H148.933V352.704H153.895C154.732 352.704 155.476 352.859 156.128 353.169C156.789 353.479 157.306 353.939 157.678 354.549C158.05 355.148 158.236 355.877 158.236 356.735C158.236 357.521 158.014 358.213 157.57 358.813C157.125 359.412 156.562 359.857 155.879 360.146L156.236 360.782ZM151.259 354.797V358.735H153.802C154.412 358.735 154.897 358.565 155.259 358.223C155.621 357.882 155.802 357.386 155.802 356.735C155.802 356.115 155.616 355.639 155.244 355.308C154.882 354.967 154.417 354.797 153.848 354.797H151.259Z" fill="white"/>
<path d="M138.833 352.704V364.177H147.144V362.053H141.159V359.371H146.524V357.293H141.159V354.828H146.927V352.704H138.833Z" fill="white"/>
<path d="M128.734 364.177V352.704H136.828V354.828H131.06V357.293H136.424V359.371H131.06V362.053H137.045V364.177H128.734Z" fill="white"/>
<path fill-rule="evenodd" clip-rule="evenodd" d="M125.7 361.821C125.4 361.593 125.116 361.247 124.847 360.782L124.49 360.146C125.173 359.857 125.736 359.412 126.18 358.813C126.625 358.213 126.847 357.521 126.847 356.735C126.847 355.877 126.661 355.148 126.289 354.549C125.917 353.939 125.4 353.479 124.738 353.169C124.087 352.859 123.343 352.704 122.506 352.704H117.544V364.177H119.87V360.751H122.289L123.017 361.976C123.358 362.555 123.705 363.004 124.056 363.325C124.408 363.645 124.806 363.878 125.25 364.022C125.705 364.167 126.263 364.25 126.925 364.271V362.317C126.408 362.213 126 362.048 125.7 361.821ZM119.87 358.735V354.797H122.459C123.028 354.797 123.493 354.967 123.855 355.308C124.227 355.639 124.413 356.115 124.413 356.735C124.413 357.386 124.232 357.882 123.87 358.223C123.508 358.565 123.022 358.735 122.413 358.735H119.87Z" fill="white"/>
<path fill-rule="evenodd" clip-rule="evenodd" d="M111.969 352.638L116.408 364.178H113.817L112.952 361.652H108.497L107.633 364.178H105.035L109.474 352.638H111.969ZM112.193 359.436L110.76 355.252H110.684L109.254 359.436H112.193Z" fill="white"/>
<path d="M97.1945 363.62C98.0525 364.117 99.0655 364.365 100.234 364.365C101.143 364.365 101.98 364.22 102.745 363.931C103.51 363.641 104.167 363.223 104.715 362.675L103.428 360.907C103.024 361.331 102.559 361.662 102.032 361.899C101.505 362.127 100.973 362.241 100.435 362.241C99.3704 362.241 98.5279 361.894 97.9077 361.202C97.2979 360.509 96.9929 359.589 96.9929 358.442C96.9929 357.284 97.303 356.364 97.9232 355.682C98.5435 354.989 99.3807 354.643 100.435 354.643C100.952 354.643 101.438 354.72 101.893 354.876C102.347 355.02 102.802 355.258 103.257 355.589L104.28 353.79C103.805 353.397 103.211 353.087 102.497 352.86C101.794 352.632 101.091 352.519 100.389 352.519C99.1895 352.519 98.1507 352.767 97.272 353.263C96.3934 353.749 95.7215 354.441 95.2563 355.341C94.7912 356.23 94.5586 357.263 94.5586 358.442C94.5586 359.61 94.786 360.643 95.2408 361.543C95.6956 362.432 96.3469 363.124 97.1945 363.62Z" fill="white"/>
</g>
<path d="M462.566 95.0377C493.476 96.2773 550.098 90.1503 529.308 55.7259C503.32 12.6955 433.625 70.0694 477.923 84.4129C513.361 95.8877 536.002 96.2773 542.892 95.0377" stroke="#CA60FF" stroke-width="2.36253" stroke-linecap="round"/>
<path d="M299.551 94.3378L438.349 84.8877" stroke="#CA60FF" stroke-width="2.36253" stroke-linecap="round"/>
<path d="M156.582 56.773H159.691C159.691 58.3607 159.636 59.9593 159.526 61.569C159.416 63.1786 159.261 64.7773 159.063 66.3649C159.791 69.2094 160.882 71.9877 162.337 74.6999C163.793 77.4121 165.546 79.7384 167.596 81.6788L165.314 83.7957C163.727 82.2301 162.315 80.444 161.081 78.4374C159.846 76.4088 158.82 74.3471 158.005 72.2523C157.497 74.3692 156.869 76.4419 156.119 78.4705C155.392 80.4771 154.51 82.3844 153.473 84.1926L150.695 82.7372C151.775 80.8409 152.69 78.8454 153.44 76.7506C154.19 74.6558 154.796 72.5059 155.259 70.3009C155.722 68.0959 156.053 65.8578 156.252 63.5866C156.472 61.3154 156.582 59.0442 156.582 56.773ZM173.385 56.4754H176.494V85.0525H173.385V70.6647H164.355V67.8864H173.385V56.4754ZM206.863 69.6725V72.4839H182.288V63.2889H203.423V59.8821H182.288V57.0707H206.533V66.1003H185.397V69.6725H206.863ZM208.087 75.4276V78.239H201.571V85.3502H198.462V78.239H190.392V85.3502H187.283V78.239H180.734V75.4276H208.087ZM235.976 84.7218H212.36V76.486H215.469V81.9434H235.976V84.7218ZM232.238 56.4754H235.348V65.4719H239.383V68.2833H235.348V77.5113H232.238V56.4754ZM218.082 56.4754H221.191C223.132 56.4754 224.73 57.0156 225.987 58.0961C227.266 59.1545 227.906 60.5767 227.906 62.3628C227.906 64.1489 227.266 65.5821 225.987 66.6626C224.73 67.7431 223.132 68.2833 221.191 68.2833V71.6239H229.956V74.4022H210.475V71.6239H218.082V68.2833C216.142 68.2833 214.543 67.7431 213.286 66.6626C212.029 65.5821 211.401 64.1489 211.401 62.3628C211.401 60.5767 212.029 59.1545 213.286 58.0961C214.543 57.0156 216.142 56.4754 218.082 56.4754ZM221.191 59.2537H218.082C217.002 59.2537 216.131 59.5403 215.469 60.1137C214.83 60.687 214.51 61.4367 214.51 62.3628C214.51 63.3109 214.83 64.0717 215.469 64.645C216.131 65.1962 217.002 65.4719 218.082 65.4719H221.191C222.272 65.4719 223.143 65.1962 223.804 64.645C224.466 64.0717 224.796 63.3109 224.796 62.3628C224.796 61.4367 224.466 60.687 223.804 60.1137C223.143 59.5403 222.272 59.2537 221.191 59.2537ZM247.063 56.4754H250.172C250.172 57.3133 250.128 58.1402 250.039 58.956C249.951 59.7498 249.819 60.5326 249.642 61.3044C250.569 62.8479 251.77 64.3142 253.248 65.7034C254.725 67.0705 256.313 68.2171 258.011 69.1432L256.092 71.5247C254.681 70.6868 253.314 69.6835 251.991 68.5148C250.668 67.3241 249.51 66.0672 248.518 64.7442C247.856 66.2877 246.996 67.71 245.938 69.0109C244.88 70.2899 243.645 71.4034 242.234 72.3516L239.852 70.2347C242.211 68.7794 243.998 66.8831 245.21 64.5458C246.445 62.1864 247.063 59.4962 247.063 56.4754ZM249.543 73.873H258.87C261.186 73.873 263.005 74.4133 264.328 75.4937C265.673 76.5521 266.346 77.9303 266.346 79.6282C266.346 81.326 265.673 82.7042 264.328 83.7626C263.005 84.821 261.186 85.3502 258.87 85.3502H249.543C247.206 85.3502 245.376 84.821 244.053 83.7626C242.752 82.7042 242.101 81.326 242.101 79.6282C242.101 77.9303 242.752 76.5521 244.053 75.4937C245.376 74.4133 247.206 73.873 249.543 73.873ZM258.87 76.6183H249.543C248.286 76.6183 247.272 76.8939 246.5 77.4452C245.729 77.9744 245.343 78.702 245.343 79.6282C245.343 80.5543 245.729 81.2819 246.5 81.8111C247.272 82.3403 248.286 82.6049 249.543 82.6049H258.87C260.105 82.6049 261.109 82.3403 261.88 81.8111C262.674 81.2819 263.071 80.5543 263.071 79.6282C263.071 78.702 262.674 77.9744 261.88 77.4452C261.109 76.8939 260.105 76.6183 258.87 76.6183ZM262.608 61.4367V56.4754H265.717V72.8477H262.608V64.2481H255.1V61.4367H262.608ZM269.957 83.7957V80.9842H290.067V83.7957H269.957ZM292.349 85.0525V56.4754H295.458V85.0525H292.349ZM287.685 64.5458C287.685 65.7144 287.476 66.7949 287.057 67.7872C286.66 68.7794 286.087 69.6284 285.337 70.334C284.609 71.0616 283.727 71.6239 282.691 72.0208C281.655 72.4177 280.519 72.6162 279.284 72.6162C278.027 72.6162 276.881 72.4177 275.844 72.0208C274.83 71.6239 273.948 71.0616 273.198 70.334C272.471 69.6284 271.897 68.7794 271.479 67.7872C271.082 66.7949 270.883 65.7144 270.883 64.5458C270.883 63.3991 271.082 62.3297 271.479 61.3374C271.897 60.3452 272.471 59.4962 273.198 58.7906C273.948 58.063 274.83 57.5007 275.844 57.1038C276.881 56.6848 278.027 56.4754 279.284 56.4754C280.519 56.4754 281.655 56.6848 282.691 57.1038C283.727 57.5007 284.609 58.063 285.337 58.7906C286.087 59.4962 286.66 60.3452 287.057 61.3374C287.476 62.3297 287.685 63.3991 287.685 64.5458ZM284.576 64.5458C284.576 63.0904 284.102 61.8446 283.154 60.8082C282.206 59.7719 280.916 59.2537 279.284 59.2537C277.631 59.2537 276.33 59.7719 275.381 60.8082C274.455 61.8446 273.992 63.0904 273.992 64.5458C273.992 66.0231 274.455 67.28 275.381 68.3164C276.33 69.3307 277.631 69.8378 279.284 69.8378C280.916 69.8378 282.206 69.3307 283.154 68.3164C284.102 67.28 284.576 66.0231 284.576 64.5458ZM313.033 56.773H316.142C316.142 58.3607 316.087 59.9593 315.976 61.569C315.866 63.1786 315.712 64.7773 315.513 66.3649C316.241 69.2094 317.332 71.9877 318.788 74.6999C320.243 77.4121 321.996 79.7384 324.047 81.6788L321.764 83.7957C320.177 82.2301 318.766 80.444 317.531 78.4374C316.296 76.4088 315.271 74.3471 314.455 72.2523C313.948 74.3692 313.319 76.4419 312.57 78.4705C311.842 80.4771 310.96 82.3844 309.923 84.1926L307.145 82.7372C308.226 80.8409 309.141 78.8454 309.89 76.7506C310.64 74.6558 311.246 72.5059 311.71 70.3009C312.173 68.0959 312.503 65.8578 312.702 63.5866C312.922 61.3154 313.033 59.0442 313.033 56.773ZM329.835 56.4754H332.944V85.0525H329.835V56.4754ZM338.441 57.0707H353.622V59.8821H347.404C347.36 60.5216 347.283 61.139 347.173 61.7344C347.062 62.3297 346.941 62.914 346.809 63.4874C347.735 65.0088 348.959 66.42 350.48 67.721C352.024 69.022 353.655 70.1355 355.375 71.0616L353.358 73.3769C351.88 72.539 350.469 71.5467 349.124 70.4001C347.801 69.2535 346.643 68.0518 345.651 66.7949C344.946 68.2943 344.086 69.6725 343.071 70.9293C342.057 72.1641 340.91 73.2556 339.632 74.2038L337.184 72.2193C339.213 70.8962 340.855 69.1873 342.112 67.0926C343.369 64.9978 344.097 62.5943 344.295 59.8821H338.441V57.0707ZM366.092 63.6196V66.398H362.057V74.1046H358.948V56.4754H362.057V63.6196H366.092ZM362.057 75.7253V85.3502H358.948V78.5367H338.738V75.7253H362.057ZM391.798 70.6647V85.0525H388.689V56.4754H391.798V67.8864H395.833V70.6647H391.798ZM386.406 80.9842V83.7957H366.925V80.9842H372.515V67.6549H375.624V80.9842H386.406ZM383.397 75.7253H380.288V59.8821H368.182V57.0707H383.397V75.7253ZM404.411 66.398H431.764V69.1763H404.411V66.398ZM405.668 57.0707H416.549V65.1742H413.44V59.8821H405.668V57.0707ZM418.104 57.0707H430.21V65.1742H427.101V59.8821H418.104V57.0707ZM430.54 81.9434V84.7218H405.965V71.5247H430.21V74.2699H409.074V76.6844H430.21V79.4297H409.074V81.9434H430.54ZM460.282 81.9434V84.7218H435.706V77.2798H438.816V81.9434H460.282ZM434.152 71.6901H461.505V74.5015H434.152V71.6901ZM452.509 68.9117H443.182C440.668 68.9117 438.738 68.3825 437.393 67.3241C436.07 66.2657 435.409 64.7222 435.409 62.6935C435.409 60.8413 436.07 59.3419 437.393 58.1953C438.738 57.0487 440.668 56.4754 443.182 56.4754H452.509C454.978 56.4754 456.886 57.0487 458.231 58.1953C459.598 59.3419 460.282 60.8413 460.282 62.6935C460.282 64.7222 459.598 66.2657 458.231 67.3241C456.886 68.3825 454.978 68.9117 452.509 68.9117ZM443.182 66.1003H452.509C454.052 66.1003 455.155 65.7916 455.816 65.1742C456.5 64.5347 456.842 63.7079 456.842 62.6935C456.842 61.7013 456.5 60.8854 455.816 60.246C455.155 59.5844 454.052 59.2537 452.509 59.2537H443.182C441.77 59.2537 440.69 59.5844 439.94 60.246C439.19 60.8854 438.816 61.7013 438.816 62.6935C438.816 63.7079 439.146 64.5347 439.808 65.1742C440.491 65.7916 441.616 66.1003 443.182 66.1003ZM472.895 57.0707H488.076V59.8821H481.891C481.825 60.5657 481.737 61.2382 481.626 61.8997C481.538 62.5392 481.428 63.1676 481.296 63.785C482.222 65.3065 483.446 66.7287 484.967 68.0518C486.489 69.3527 488.109 70.4663 489.829 71.3924L487.812 73.6746C486.334 72.8367 484.923 71.8554 483.578 70.7309C482.255 69.5843 481.097 68.3825 480.105 67.1256C479.399 68.6251 478.528 70.0032 477.492 71.2601C476.478 72.4949 475.342 73.5864 474.085 74.5345L471.638 72.55C473.71 71.1608 475.375 69.4078 476.632 67.291C477.889 65.1521 478.606 62.6825 478.782 59.8821H472.895V57.0707ZM497.139 56.4754V78.0736H494.03V56.4754H497.139ZM497.767 81.9434V84.7218H473.821V76.056H476.93V81.9434H497.767ZM530.287 65.0419V67.8533H526.252V78.0736H523.142V56.4754H526.252V65.0419H530.287ZM526.88 81.9434V84.7218H503.264V75.7253H506.373V81.9434H526.88ZM520.033 69.5071V72.3185H502.636V57.0707H518.181V59.8821H505.745V69.5071H520.033ZM556.621 85.0525H553.512V56.4754H556.621V85.0525ZM535.155 62.9912V77.9082C535.155 79.1651 535.398 80.0471 535.883 80.5543C536.368 81.0614 537.007 81.315 537.801 81.315C538.573 81.315 539.201 81.0614 539.686 80.5543C540.194 80.0471 540.447 79.1651 540.447 77.9082V62.9912C540.447 61.7564 540.194 60.8854 539.686 60.3783C539.201 59.8491 538.573 59.5844 537.801 59.5844C537.007 59.5844 536.368 59.8491 535.883 60.3783C535.398 60.8854 535.155 61.7564 535.155 62.9912ZM532.046 77.9082V62.9912C532.046 61.9108 532.189 60.9846 532.476 60.2129C532.785 59.4191 533.204 58.7686 533.733 58.2614C534.262 57.7543 534.868 57.3794 535.552 57.1369C536.258 56.8943 537.007 56.773 537.801 56.773C538.573 56.773 539.301 56.8943 539.984 57.1369C540.69 57.3794 541.307 57.7543 541.836 58.2614C542.366 58.7686 542.784 59.4191 543.093 60.2129C543.402 60.9846 543.556 61.9108 543.556 62.9912V67.9525H547.128V56.6077H550.237V84.7218H547.128V70.7639H543.556V77.9082C543.556 79.0107 543.402 79.9479 543.093 80.7196C542.784 81.4914 542.366 82.1309 541.836 82.638C541.307 83.1452 540.69 83.509 539.984 83.7295C539.301 83.9721 538.573 84.0933 537.801 84.0933C537.007 84.0933 536.258 83.9721 535.552 83.7295C534.868 83.509 534.262 83.1452 533.733 82.638C533.204 82.1309 532.785 81.4914 532.476 80.7196C532.189 79.9479 532.046 79.0107 532.046 77.9082ZM566.451 56.773H569.56C569.56 58.3607 569.505 59.9593 569.394 61.569C569.284 63.1786 569.13 64.7773 568.931 66.3649C569.659 69.2094 570.751 71.9877 572.206 74.6999C573.661 77.4121 575.414 79.7384 577.465 81.6788L575.183 83.7957C573.595 82.2301 572.184 80.444 570.949 78.4374C569.714 76.4088 568.689 74.3471 567.873 72.2523C567.366 74.3692 566.737 76.4419 565.988 78.4705C565.26 80.4771 564.378 82.3844 563.342 84.1926L560.563 82.7372C561.644 80.8409 562.559 78.8454 563.309 76.7506C564.058 74.6558 564.665 72.5059 565.128 70.3009C565.591 68.0959 565.922 65.8578 566.12 63.5866C566.34 61.3154 566.451 59.0442 566.451 56.773ZM583.253 56.4754H586.362V85.0525H583.253V70.6647H574.223V67.8864H583.253V56.4754ZM616.401 57.0707V71.6901H592.157V57.0707H595.266V61.4367H613.292V57.0707H616.401ZM617.955 74.7991V77.6106H605.85V85.3502H602.741V77.6106H590.602V74.7991H617.955ZM595.266 68.9117H613.292V64.2481H595.266V68.9117ZM636.517 83.7957H621.6V57.0707H634.963V59.8821H624.709V68.2833H634.665V71.0616H624.709V80.9842H636.517V83.7957ZM642.735 71.0616H636.219V68.2833H642.735V56.4754H645.844V85.0525H642.735V71.0616Z" fill="white"/>
<path d="M68.4927 111.955H98.5441V119.53H86.7114C86.6279 121.91 86.5027 124.226 86.3357 126.48C86.1688 128.734 85.9183 130.925 85.5844 133.054C87.2122 137.686 89.3826 142.173 92.0956 146.514C94.8503 150.855 98.0432 154.632 101.674 157.846C101.132 158.305 100.589 158.743 100.047 159.161C99.5041 159.62 98.9823 160.058 98.4815 160.475C97.9389 160.935 97.3963 161.373 96.8537 161.79C96.3111 162.249 95.7894 162.688 95.2885 163.105C92.7842 160.684 90.4678 157.95 88.3391 154.903C86.2105 151.857 84.3323 148.705 82.7045 145.45C81.6193 148.747 80.3046 151.919 78.7603 154.966C77.2577 157.971 75.5047 160.83 73.5013 163.543C72.2491 162.917 70.997 162.27 69.7448 161.602C68.5344 160.935 67.324 160.246 66.1136 159.536C70.3709 153.693 73.4595 147.578 75.3795 141.192C77.2994 134.807 78.322 127.586 78.4472 119.53H68.4927V111.955ZM114.133 139.377V165.171H105.807V111.078H114.133V131.426H121.145V139.377H114.133ZM171.556 111.078V165.171H163.292V111.078H171.556ZM125.101 111.955H151.584V124.789C151.584 128.88 151.042 132.803 149.956 136.56C148.913 140.274 147.39 143.759 145.386 147.015C143.383 150.271 140.92 153.255 137.998 155.968C135.077 158.639 131.78 160.935 128.107 162.855L122.409 156.844C125.707 155.258 128.628 153.359 131.174 151.147C133.762 148.893 135.953 146.431 137.748 143.759C139.543 141.088 140.899 138.229 141.818 135.182C142.777 132.094 143.257 128.901 143.257 125.603V119.53H125.101V111.955ZM183.776 143.321L178.705 136.873C184.84 134.702 189.912 131.321 193.919 126.73C197.967 122.139 200.534 116.817 201.619 110.765L210.259 112.205C210.009 113.666 209.675 115.106 209.257 116.525C208.84 117.903 208.339 119.259 207.755 120.595C210.635 123.976 214.078 126.897 218.085 129.36C222.133 131.781 226.474 133.575 231.107 134.744L226.599 141.443C222.133 140.274 217.939 138.5 214.015 136.121C210.092 133.701 206.649 130.925 203.685 127.795C201.181 131.342 198.197 134.473 194.732 137.186C191.268 139.899 187.616 141.944 183.776 143.321ZM230.794 155.467V163.105H179.018V155.467H200.43V140.566H209.195V155.467H230.794ZM237.38 111.955H257.101V126.793C257.101 134.014 255.891 140.733 253.47 146.952C251.049 153.13 247.146 158.514 241.762 163.105L234.938 158.347C240.072 154.215 243.661 149.519 245.706 144.26C247.752 138.96 248.774 133.408 248.774 127.607V119.53H237.38V111.955ZM284.147 111.078V165.171H275.883V139.377H269.998V164.545H261.796V111.329H269.998V131.801H275.883V111.078H284.147ZM298.371 163.543C297.703 163.251 297.035 162.959 296.368 162.667C295.741 162.375 295.115 162.062 294.489 161.728C293.863 161.435 293.237 161.143 292.611 160.851C291.985 160.559 291.359 160.246 290.733 159.912C294.74 152.733 297.494 145.032 298.997 136.81C300.5 128.588 301.251 120.198 301.251 111.642H309.578C309.578 114.647 309.494 117.673 309.327 120.72C309.16 123.767 308.889 126.814 308.513 129.861C309.181 132.407 310.037 134.974 311.08 137.561C312.124 140.107 313.334 142.57 314.711 144.949C316.047 147.37 317.529 149.665 319.156 151.836C320.826 154.006 322.6 155.968 324.478 157.721C323.935 158.18 323.393 158.639 322.85 159.098C322.349 159.557 321.849 159.995 321.348 160.413C320.805 160.872 320.263 161.31 319.72 161.728C319.219 162.187 318.718 162.646 318.217 163.105C315.671 160.601 313.334 157.742 311.205 154.528C309.118 151.272 307.324 147.891 305.821 144.385C304.945 147.766 303.88 151.084 302.628 154.34C301.418 157.554 299.999 160.622 298.371 163.543ZM332.179 138.688H316.903V130.737H332.179V111.078H340.443V165.171H332.179V138.688ZM396.122 111.955V119.53H364.631V111.955H396.122ZM398.188 155.342V162.792H364.067V155.342H368.575V124.289H376.526V155.342H381.221L384.915 124.289H392.866L389.173 155.342H398.188ZM411.398 111.078V165.171H403.134V111.078H411.398ZM429.817 134.869H468.57V142.57H421.49V111.955H468.007V119.593H429.817V134.869ZM470.636 155.467V163.105H418.86V155.467H470.636ZM523.989 146.577V165.734H515.725V154.027H478.412V146.577H523.989ZM523.989 111.078V144.198H516.101V130.862H511.405V144.198H503.705V111.329H511.405V123.663H516.101V111.078H523.989ZM499.698 111.955V142.319H477.222V111.955H484.86V120.407H492.06V111.955H499.698ZM484.86 135.433H492.06V127.231H484.86V135.433ZM573.846 147.265V160.726H565.519V147.829C565.519 146.201 565.206 144.949 564.58 144.072C563.954 143.196 562.952 142.591 561.575 142.257H555.064V160.726H546.8V113.145H560.323C564.831 113.145 568.399 114.376 571.029 116.838C573.7 119.301 575.036 122.661 575.036 126.918C575.036 129.881 574.389 132.386 573.095 134.431C571.843 136.476 570.215 137.937 568.211 138.813C570.006 139.481 571.384 140.566 572.344 142.069C573.345 143.572 573.846 145.304 573.846 147.265ZM559.697 120.783H555.064V134.619H559.697C561.742 134.619 563.412 133.993 564.705 132.741C566.041 131.447 566.709 129.61 566.709 127.231C566.709 125.061 566.083 123.454 564.831 122.41C563.62 121.325 561.909 120.783 559.697 120.783ZM579.618 113.145H604.285V120.783H587.882V132.24H602.532V139.878H587.882V153.15H605.475V160.726H579.618V113.145ZM638.912 128.608C638.912 133.534 637.618 137.332 635.03 140.003C632.442 142.674 628.644 144.01 623.636 144.01H618.377V160.726H610.113V113.145H623.636C628.644 113.145 632.442 114.501 635.03 117.214C637.618 119.885 638.912 123.683 638.912 128.608ZM630.648 128.608C630.648 125.729 629.959 123.704 628.582 122.536C627.246 121.367 625.389 120.783 623.01 120.783H618.377V136.372H623.01C625.389 136.372 627.246 135.808 628.582 134.681C629.959 133.513 630.648 131.488 630.648 128.608ZM663.968 147.265V126.668C663.968 124.456 663.384 122.828 662.215 121.784C661.088 120.699 659.44 120.157 657.269 120.157C655.015 120.157 653.325 120.699 652.198 121.784C651.113 122.828 650.57 124.456 650.57 126.668V147.265C650.57 149.477 651.113 151.105 652.198 152.149C653.325 153.192 655.015 153.714 657.269 153.714C659.44 153.714 661.088 153.192 662.215 152.149C663.384 151.105 663.968 149.477 663.968 147.265ZM672.295 126.042V147.829C672.295 152.086 670.959 155.383 668.288 157.721C665.617 160.1 661.944 161.289 657.269 161.289C652.511 161.289 648.817 160.1 646.188 157.721C643.558 155.383 642.243 152.086 642.243 147.829V126.042C642.243 121.784 643.558 118.466 646.188 116.087C648.817 113.708 652.511 112.518 657.269 112.518C661.944 112.518 665.617 113.708 668.288 116.087C670.959 118.466 672.295 121.784 672.295 126.042ZM704.507 147.265V160.726H696.18V147.829C696.18 146.201 695.867 144.949 695.241 144.072C694.615 143.196 693.613 142.591 692.236 142.257H685.725V160.726H677.461V113.145H690.984C695.491 113.145 699.06 114.376 701.69 116.838C704.361 119.301 705.696 122.661 705.696 126.918C705.696 129.881 705.049 132.386 703.756 134.431C702.503 136.476 700.876 137.937 698.872 138.813C700.667 139.481 702.044 140.566 703.004 142.069C704.006 143.572 704.507 145.304 704.507 147.265ZM690.358 120.783H685.725V134.619H690.358C692.403 134.619 694.072 133.993 695.366 132.741C696.702 131.447 697.37 129.61 697.37 127.231C697.37 125.061 696.744 123.454 695.491 122.41C694.281 121.325 692.57 120.783 690.358 120.783ZM735.384 120.783H725.429V161.039H717.103V120.783H707.712V113.145H735.384V120.783Z" fill="white"/>
<rect x="406.301" y="213.095" width="11.0411" height="243.908" fill="url(#paint0_linear_13485_8761)"/>
<g filter="url(#filter0_d_13485_8761)">
<path d="M578.723 273.903C578.453 276.491 576.136 278.37 573.548 278.101L248.684 246.03C247.367 245.893 246.169 245.207 245.382 244.142L219.31 208.82C217.863 206.86 218.149 204.121 219.969 202.502L252.768 173.32C253.758 172.44 255.072 172.017 256.389 172.154L581.253 204.225C583.841 204.495 585.72 206.811 585.45 209.399L578.723 273.903Z" fill="url(#paint1_linear_13485_8761)"/>
</g>
<path fill-rule="evenodd" clip-rule="evenodd" d="M532.216 226.561C527.331 226.052 522.958 229.599 522.449 234.484C521.97 239.07 525.067 243.205 529.49 244.115L528.906 249.718C528.879 249.971 529.158 250.14 529.371 250.001L537.052 244.948L544.524 245.728C549.409 246.237 553.782 242.69 554.292 237.805C554.801 232.92 551.254 228.547 546.369 228.037L532.216 226.561Z" fill="white"/>
<circle cx="531.168" cy="235.534" r="1.80673" transform="rotate(5.95374 531.168 235.534)" fill="#E84EFF"/>
<circle cx="538.352" cy="236.284" r="1.80673" transform="rotate(5.95374 538.352 236.284)" fill="#E84EFF"/>
<circle cx="545.539" cy="237.034" r="1.80673" transform="rotate(5.95374 545.539 237.034)" fill="#E84EFF"/>
<path d="M268.833 205.064C268.8 205.128 268.766 205.192 268.733 205.256C268.713 205.321 268.686 205.379 268.654 205.429C268.621 205.493 268.587 205.557 268.553 205.621C268.52 205.684 268.494 205.742 268.475 205.794C269.016 206.416 269.676 206.989 270.455 207.514C271.235 208.04 272.069 208.49 272.958 208.865C272.819 209.039 272.686 209.214 272.561 209.389C272.436 209.551 272.311 209.713 272.187 209.875C272.062 210.037 271.937 210.205 271.811 210.381C271.687 210.542 271.569 210.705 271.458 210.868C270.648 210.501 269.854 210.049 269.076 209.51C268.313 208.959 267.642 208.358 267.064 207.706C266.46 208.342 265.778 208.883 265.018 209.329C264.273 209.763 263.495 210.065 262.683 210.236C262.565 210.076 262.448 209.909 262.332 209.735C262.215 209.561 262.099 209.388 261.982 209.214C261.879 209.042 261.769 208.869 261.653 208.695C261.536 208.522 261.42 208.348 261.304 208.175C262.419 207.928 263.385 207.51 264.199 206.922C265.029 206.323 265.668 205.609 266.118 204.781L262.504 204.404L262.742 202.128L266.335 202.503L266.531 200.626L269.207 200.905L269.011 202.782L272.725 203.169L272.487 205.446L268.833 205.064ZM273.349 219.442L275.148 202.191L277.783 202.466L275.984 219.717L273.349 219.442ZM260.917 213.241L261.152 210.984L273.032 212.223L272.797 214.48L267.346 213.911L266.84 218.763L264.184 218.486L264.69 213.634L260.917 213.241ZM282.51 207.5C282.443 208.139 282.574 208.697 282.9 209.176C283.241 209.655 283.73 209.928 284.369 209.995C285.008 210.061 285.543 209.895 285.975 209.496C286.42 209.099 286.676 208.58 286.743 207.941C286.808 207.316 286.664 206.762 286.311 206.282C285.97 205.802 285.481 205.529 284.842 205.462C284.203 205.396 283.668 205.562 283.236 205.961C282.817 206.361 282.575 206.874 282.51 207.5ZM279.894 207.227C279.96 206.602 280.134 206.028 280.417 205.506C280.7 204.983 281.07 204.537 281.525 204.168C281.98 203.812 282.505 203.55 283.101 203.384C283.711 203.205 284.37 203.153 285.075 203.226C285.767 203.298 286.394 203.485 286.954 203.785C287.516 204.073 287.983 204.438 288.354 204.88C288.737 205.337 289.013 205.85 289.182 206.42C289.365 206.99 289.424 207.589 289.359 208.214C289.292 208.853 289.11 209.44 288.812 209.974C288.529 210.496 288.153 210.934 287.686 211.289C287.23 211.659 286.697 211.926 286.088 212.091C285.479 212.257 284.828 212.303 284.136 212.231C283.43 212.157 282.797 211.977 282.235 211.69C281.686 211.404 281.227 211.033 280.857 210.577C280.486 210.135 280.216 209.629 280.046 209.06C279.878 208.477 279.828 207.866 279.894 207.227ZM294.715 214.142L293.948 221.489L279.593 219.992L280.359 212.644L283.014 212.921L282.86 214.399L291.945 215.346L292.099 213.869L294.715 214.142ZM282.451 218.131L291.556 219.08L291.724 217.463L282.62 216.513L282.451 218.131ZM295.737 204.338L294.794 213.383L292.158 213.108L292.508 209.754L289.793 209.47L290.047 207.035L292.762 207.318L293.102 204.063L295.737 204.338ZM302.43 210.486L302.507 209.747C302.576 209.081 302.754 208.474 303.04 207.925C303.339 207.378 303.716 206.919 304.172 206.55C304.641 206.182 305.18 205.915 305.79 205.75C306.4 205.571 307.058 205.519 307.764 205.592C308.456 205.664 309.082 205.851 309.643 206.152C310.205 206.439 310.678 206.811 311.061 207.268C311.443 207.725 311.725 208.252 311.905 208.85C312.085 209.447 312.14 210.079 312.071 210.744L311.994 211.483C311.923 212.162 311.738 212.775 311.438 213.322C311.14 213.856 310.757 214.308 310.288 214.676C309.819 215.044 309.279 215.317 308.669 215.496C308.059 215.661 307.409 215.708 306.716 215.635C306.011 215.562 305.377 215.381 304.815 215.094C304.254 214.793 303.783 214.414 303.4 213.957C303.03 213.502 302.755 212.982 302.573 212.398C302.407 211.802 302.359 211.164 302.43 210.486ZM318.366 206.698L317.033 219.477L314.398 219.202L314.852 214.849L312.176 214.57L312.424 212.194L315.099 212.473L315.301 210.536L312.626 210.257L312.874 207.881L315.549 208.16L315.73 206.423L318.366 206.698ZM317.109 221.462L316.857 223.878L302.221 222.352L302.813 216.682L305.468 216.958L305.129 220.213L317.109 221.462ZM305.122 210.02L305.045 210.758C304.974 211.437 305.101 212.029 305.425 212.534C305.763 213.04 306.271 213.328 306.95 213.399C307.615 213.469 308.165 213.29 308.6 212.865C309.034 212.439 309.287 211.887 309.358 211.208L309.435 210.469C309.506 209.79 309.372 209.198 309.035 208.692C308.698 208.186 308.196 207.898 307.531 207.829C306.852 207.758 306.295 207.935 305.86 208.361C305.439 208.788 305.193 209.341 305.122 210.02ZM335.451 217.865L332.796 217.588L333.481 211.019L321.301 209.749L321.555 207.313L336.39 208.86L335.451 217.865ZM336.173 219.071L335.917 221.527L329.069 220.812L328.592 225.385L325.776 225.091L326.253 220.519L319.405 219.805L319.661 217.349L336.173 219.071ZM348.698 217.652L348.475 219.788L338.332 218.731L339.329 209.167L348.554 210.129L348.331 212.265L341.662 211.57L341.5 213.127L347.989 213.804L347.768 215.92L341.279 215.244L341.11 216.861L348.698 217.652ZM354.273 210.443L353.184 220.885L350.549 220.61L351.638 210.168L354.273 210.443ZM353.113 221.564L352.485 227.594L338.129 226.097L338.758 220.067L353.113 221.564ZM341.007 224.237L350.072 225.183L350.255 223.426L341.19 222.48L341.007 224.237ZM354.696 228.874C354.641 228.761 354.593 228.641 354.552 228.516C354.51 228.404 354.468 228.292 354.426 228.18C354.383 228.068 354.342 227.949 354.301 227.824C354.259 227.712 354.217 227.6 354.175 227.488C354.69 227.326 355.046 227.067 355.245 226.711C355.443 226.355 355.582 225.804 355.659 225.059L355.763 224.061L358.679 224.365L358.554 225.563C358.437 226.681 358.061 227.509 357.426 228.049C356.79 228.601 355.88 228.876 354.696 228.874ZM375.47 220.262C375.411 220.821 375.244 221.329 374.968 221.784C374.693 222.227 374.338 222.593 373.904 222.885C373.469 223.189 372.962 223.405 372.383 223.533C371.818 223.663 371.21 223.693 370.557 223.625C369.892 223.556 369.296 223.4 368.77 223.156C368.243 222.913 367.798 222.598 367.435 222.21C367.071 221.835 366.799 221.403 366.622 220.914C366.459 220.413 366.406 219.882 366.465 219.323C366.523 218.764 366.683 218.263 366.944 217.819C367.221 217.364 367.576 216.99 368.01 216.699C368.445 216.395 368.946 216.178 369.511 216.048C370.077 215.906 370.693 215.869 371.359 215.938C372.011 216.006 372.6 216.169 373.125 216.425C373.664 216.67 374.116 216.986 374.479 217.374C374.844 217.748 375.114 218.187 375.29 218.69C375.468 219.179 375.528 219.703 375.47 220.262ZM382.065 213.341L380.713 226.299L378.078 226.024L378.398 222.95L375.843 222.683L376.076 220.447L378.632 220.713L378.805 219.056L376.249 218.79L376.482 216.553L379.038 216.82L379.429 213.066L382.065 213.341ZM380.907 228.116L380.655 230.532L365.92 228.995L366.457 223.844L369.113 224.121L368.828 226.856L380.907 228.116ZM376.92 213.713L376.695 215.869L366.272 214.782L366.497 212.626L370.291 213.021L370.453 211.464L373.109 211.741L372.946 213.298L376.92 213.713ZM372.934 219.998C372.985 219.505 372.85 219.061 372.528 218.664C372.219 218.268 371.759 218.039 371.147 217.975C370.508 217.908 370.003 218.037 369.633 218.362C369.263 218.687 369.052 219.095 369 219.588C368.949 220.08 369.072 220.517 369.368 220.898C369.666 221.265 370.135 221.482 370.774 221.549C371.386 221.613 371.883 221.496 372.264 221.2C372.659 220.891 372.882 220.49 372.934 219.998ZM385.074 213.937L394.439 214.914L394.203 217.17L390.789 216.814C390.719 217.103 390.642 217.384 390.56 217.658C390.491 217.933 390.408 218.207 390.313 218.48C390.759 219.361 391.362 220.224 392.121 221.071C392.895 221.905 393.716 222.616 394.583 223.204C394.42 223.349 394.257 223.493 394.094 223.638C393.946 223.77 393.797 223.903 393.649 224.035C393.486 224.18 393.329 224.325 393.18 224.471C393.031 224.603 392.883 224.736 392.734 224.868C392.021 224.35 391.343 223.761 390.698 223.102C390.069 222.431 389.516 221.727 389.041 220.992C388.532 221.746 387.957 222.419 387.317 223.012C386.678 223.591 385.987 224.084 385.245 224.491C385.086 224.34 384.927 224.189 384.768 224.038C384.609 223.886 384.457 223.729 384.312 223.566C384.153 223.415 383.994 223.264 383.835 223.113C383.689 222.963 383.544 222.807 383.399 222.644C384.588 222.081 385.594 221.278 386.416 220.233C387.238 219.189 387.824 217.958 388.173 216.541L384.839 216.194L385.074 213.937ZM398.838 226.534L398.201 232.644L395.565 232.369L395.954 228.635L384.054 227.394L384.302 225.018L398.838 226.534ZM400.018 215.213L398.927 225.676L396.292 225.401L397.383 214.938L400.018 215.213ZM403.028 215.81L412.612 216.809L412.36 219.225L408.586 218.832C408.481 219.588 408.364 220.322 408.235 221.035C408.107 221.749 407.954 222.439 407.777 223.107C408.142 224.639 408.685 226.142 409.406 227.616C410.14 229.092 411.033 230.403 412.084 231.549C411.896 231.677 411.708 231.799 411.521 231.914C411.333 232.042 411.152 232.165 410.978 232.281C410.79 232.41 410.602 232.531 410.415 232.646C410.227 232.775 410.046 232.897 409.872 233.014C409.154 232.158 408.506 231.209 407.929 230.167C407.351 229.124 406.857 228.057 406.446 226.965C405.991 227.98 405.466 228.948 404.872 229.868C404.293 230.777 403.639 231.63 402.91 232.429C402.531 232.187 402.153 231.939 401.776 231.685C401.412 231.432 401.049 231.172 400.687 230.905C402.239 229.183 403.427 227.336 404.252 225.363C405.077 223.39 405.643 221.122 405.951 218.557L402.776 218.226L403.028 215.81ZM416.672 226.073L415.814 234.299L413.158 234.022L414.957 216.771L417.613 217.048L416.936 223.537L419.172 223.771L418.908 226.306L416.672 226.073ZM435.7 219.217L435.448 221.633L425.405 220.586L425.657 218.17L435.7 219.217ZM434.916 233.123L434.668 235.499L423.786 234.364L424.034 231.988L425.472 232.138L426.505 222.234L429.04 222.499L428.007 232.402L429.505 232.558L431.716 222.778L434.252 223.042L432.041 232.823L434.916 233.123ZM440.601 219.446L438.802 236.697L436.166 236.422L437.965 219.171L440.601 219.446ZM445.684 227.645L458.043 228.934L457.787 231.39L442.772 229.824L443.79 220.061L458.625 221.608L458.371 224.044L446.192 222.774L445.684 227.645ZM458.017 235.572L457.763 238.008L441.25 236.286L441.504 233.85L458.017 235.572ZM475.328 234.511L474.69 240.621L472.055 240.346L472.444 236.612L460.544 235.371L460.792 232.995L475.328 234.511ZM476.508 223.19L475.407 233.753L472.891 233.49L473.334 229.237L471.837 229.081L471.393 233.334L468.938 233.078L470.031 222.596L472.487 222.852L472.076 226.785L473.574 226.941L473.992 222.928L476.508 223.19ZM468.732 222.662L467.722 232.346L460.554 231.598L461.564 221.914L464 222.168L463.719 224.864L466.015 225.103L466.296 222.408L468.732 222.662ZM463.219 229.656L465.515 229.895L465.788 227.28L463.492 227.04L463.219 229.656ZM493.924 239.317L493.67 241.753L477.158 240.031L477.412 237.595L493.924 239.317ZM488.369 234.519L483.857 234.048C483.005 233.96 482.252 233.76 481.598 233.45C480.946 233.126 480.403 232.719 479.969 232.23C479.536 231.741 479.218 231.176 479.016 230.536C478.827 229.898 478.77 229.212 478.847 228.48C478.922 227.761 479.118 227.109 479.434 226.523C479.764 225.938 480.192 225.452 480.717 225.062C481.242 224.673 481.857 224.387 482.562 224.205C483.268 224.023 484.046 223.976 484.898 224.065L489.41 224.536C490.249 224.623 490.995 224.829 491.647 225.153C492.3 225.476 492.842 225.883 493.276 226.372C493.709 226.861 494.027 227.426 494.229 228.066C494.432 228.706 494.496 229.385 494.421 230.104C494.344 230.836 494.141 231.495 493.811 232.079C493.481 232.664 493.053 233.151 492.528 233.54C492.003 233.929 491.388 234.215 490.683 234.397C489.979 234.566 489.208 234.607 488.369 234.519ZM484.151 231.617L488.563 232.077C489.415 232.166 490.126 231.998 490.695 231.573C491.279 231.136 491.609 230.551 491.685 229.819C491.76 229.1 491.557 228.467 491.076 227.919C490.608 227.372 489.948 227.054 489.096 226.966L484.684 226.505C483.819 226.415 483.101 226.589 482.53 227.028C481.973 227.467 481.657 228.047 481.582 228.765C481.506 229.497 481.695 230.136 482.149 230.681C482.618 231.215 483.286 231.527 484.151 231.617ZM511.779 235.749L511.539 238.046L496.525 236.48L497.212 229.891L509.391 231.161L509.591 229.244L497.412 227.974L497.651 225.678L512.486 227.225L511.812 233.694L499.632 232.424L499.42 234.46L511.779 235.749ZM511.876 241.209L511.624 243.625L495.111 241.903L495.363 239.487L502.192 240.199L502.444 237.783L505.239 238.075L504.987 240.491L511.876 241.209Z" fill="white"/>
<rect x="431.762" y="176.473" width="146.344" height="24.1891" rx="12.0945" transform="rotate(5.95374 431.762 176.473)" fill="#009DFF"/>
<path d="M443.862 190.265L443.726 191.564C443.656 192.238 443.377 192.736 442.89 193.058C442.401 193.388 441.72 193.508 440.846 193.416C439.964 193.324 439.318 193.067 438.908 192.643C438.505 192.228 438.339 191.684 438.409 191.01L438.483 190.3L440.083 190.467L440.027 191.008C439.994 191.321 440.063 191.551 440.234 191.699C440.406 191.838 440.661 191.926 440.998 191.961C441.334 191.996 441.601 191.963 441.798 191.862C441.996 191.753 442.111 191.542 442.144 191.229L442.251 190.207C442.28 189.926 442.221 189.709 442.075 189.556C441.93 189.395 441.701 189.298 441.388 189.266L440.378 189.16L440.532 187.681L441.494 187.781C441.759 187.809 441.97 187.766 442.128 187.652C442.286 187.531 442.379 187.342 442.406 187.086L442.477 186.4C442.503 186.151 442.443 185.95 442.297 185.797C442.152 185.636 441.931 185.54 441.634 185.509C441.337 185.478 441.101 185.527 440.926 185.654C440.759 185.775 440.663 185.959 440.637 186.208L440.602 186.545L439.014 186.379L439.073 185.814C439.143 185.14 439.428 184.659 439.929 184.371C440.43 184.075 441.049 183.965 441.787 184.042C442.517 184.118 443.1 184.353 443.537 184.747C443.983 185.134 444.171 185.665 444.101 186.338L444.001 187.301C443.965 187.645 443.85 187.933 443.655 188.164C443.47 188.388 443.234 188.546 442.949 188.638C443.299 188.78 443.548 188.996 443.696 189.287C443.844 189.578 443.899 189.904 443.862 190.265ZM444.202 195.092C444.169 195.024 444.14 194.952 444.115 194.876C444.09 194.809 444.065 194.741 444.039 194.674C444.014 194.606 443.989 194.535 443.964 194.459C443.939 194.392 443.914 194.324 443.888 194.257C444.198 194.159 444.413 194.003 444.533 193.789C444.652 193.574 444.736 193.242 444.783 192.793L444.845 192.192L446.602 192.375L446.526 193.097C446.456 193.77 446.23 194.27 445.847 194.595C445.464 194.928 444.916 195.093 444.202 195.092ZM451.25 192.057L451.722 187.534C451.754 187.23 451.69 186.984 451.531 186.797C451.38 186.611 451.161 186.503 450.872 186.473C450.567 186.441 450.322 186.501 450.136 186.651C449.958 186.803 449.853 187.031 449.821 187.336L449.35 191.859C449.317 192.172 449.372 192.421 449.515 192.606C449.667 192.784 449.895 192.889 450.2 192.921C450.488 192.951 450.725 192.894 450.91 192.751C451.104 192.601 451.218 192.37 451.25 192.057ZM453.321 187.592L452.826 192.343C452.753 193.041 452.474 193.575 451.99 193.946C451.513 194.318 450.866 194.461 450.048 194.376C449.222 194.29 448.61 194.015 448.212 193.552C447.823 193.09 447.664 192.51 447.737 191.813L448.233 187.061C448.306 186.355 448.581 185.816 449.058 185.445C449.543 185.066 450.199 184.919 451.025 185.005C451.843 185.091 452.446 185.368 452.835 185.838C453.233 186.302 453.395 186.886 453.321 187.592ZM457.227 192.681L457.699 188.158C457.73 187.853 457.667 187.607 457.508 187.42C457.357 187.234 457.137 187.126 456.849 187.096C456.544 187.064 456.299 187.124 456.113 187.275C455.935 187.426 455.83 187.655 455.798 187.959L455.326 192.482C455.294 192.795 455.349 193.044 455.492 193.229C455.643 193.407 455.872 193.512 456.176 193.544C456.465 193.574 456.702 193.518 456.887 193.375C457.081 193.225 457.194 192.993 457.227 192.681ZM459.298 188.215L458.802 192.966C458.729 193.664 458.451 194.199 457.966 194.57C457.49 194.941 456.842 195.085 456.024 194.999C455.198 194.913 454.587 194.639 454.189 194.176C453.8 193.713 453.641 193.134 453.714 192.436L454.209 187.684C454.283 186.979 454.558 186.44 455.035 186.068C455.52 185.689 456.176 185.542 457.002 185.629C457.82 185.714 458.423 185.992 458.812 186.462C459.209 186.925 459.371 187.509 459.298 188.215ZM463.204 193.304L463.675 188.781C463.707 188.476 463.644 188.23 463.485 188.044C463.334 187.858 463.114 187.75 462.825 187.719C462.521 187.688 462.275 187.747 462.089 187.898C461.911 188.05 461.807 188.278 461.775 188.583L461.303 193.106C461.27 193.418 461.326 193.667 461.468 193.853C461.62 194.03 461.848 194.135 462.153 194.167C462.442 194.197 462.679 194.141 462.864 193.998C463.058 193.848 463.171 193.617 463.204 193.304ZM465.275 188.838L464.779 193.59C464.706 194.287 464.428 194.822 463.943 195.193C463.466 195.565 462.819 195.708 462.001 195.623C461.175 195.537 460.563 195.262 460.166 194.799C459.776 194.337 459.618 193.757 459.691 193.059L460.186 188.308C460.26 187.602 460.535 187.063 461.011 186.691C461.497 186.312 462.152 186.166 462.978 186.252C463.796 186.337 464.4 186.615 464.789 187.085C465.186 187.548 465.348 188.132 465.275 188.838ZM472.171 197.547L468.611 197.175C467.769 197.087 467.122 196.834 466.671 196.414C466.229 195.995 466.043 195.44 466.115 194.751C466.181 194.125 466.475 193.637 466.998 193.286C467.529 192.936 468.215 192.805 469.057 192.893L472.618 193.264C473.444 193.35 474.081 193.619 474.528 194.071C474.975 194.523 475.166 195.062 475.101 195.688C475.029 196.377 474.729 196.881 474.202 197.199C473.674 197.517 472.997 197.633 472.171 197.547ZM472.058 187.089L471.516 192.286L466.259 191.738L466.801 186.541L472.058 187.089ZM468.751 195.828L472.035 196.171C472.444 196.213 472.776 196.183 473.03 196.08C473.291 195.985 473.436 195.798 473.465 195.517C473.494 195.236 473.391 195.023 473.155 194.877C472.928 194.723 472.61 194.625 472.201 194.583L469.169 194.267C468.776 194.226 468.449 194.252 468.188 194.347C467.927 194.441 467.781 194.632 467.751 194.921C467.726 195.162 467.802 195.364 467.98 195.529C468.157 195.693 468.414 195.793 468.751 195.828ZM474.12 188.07L474.217 187.144L475.805 187.31L475.18 193.3L473.592 193.135L473.734 191.775L472.05 191.6L472.196 190.192L473.881 190.368L473.973 189.478L472.289 189.302L472.436 187.895L474.12 188.07ZM467.925 190.574L470.126 190.803L470.391 188.265L468.19 188.036L467.925 190.574ZM483.434 191.133C483.389 191.566 483.271 191.959 483.08 192.312C482.897 192.666 482.656 192.961 482.355 193.197C482.055 193.434 481.704 193.608 481.304 193.72C480.904 193.824 480.471 193.852 480.006 193.804C479.525 193.753 479.099 193.636 478.729 193.452C478.368 193.26 478.065 193.018 477.82 192.725C477.583 192.432 477.412 192.094 477.306 191.71C477.2 191.326 477.17 190.918 477.215 190.485C477.259 190.06 477.372 189.674 477.554 189.328C477.737 188.975 477.975 188.675 478.268 188.43C478.568 188.194 478.915 188.019 479.308 187.906C479.708 187.794 480.149 187.763 480.631 187.813C481.096 187.862 481.513 187.982 481.882 188.175C482.251 188.367 482.558 188.61 482.803 188.903C483.047 189.204 483.222 189.547 483.328 189.931C483.443 190.307 483.478 190.708 483.434 191.133ZM481.882 190.971C481.931 190.506 481.831 190.103 481.583 189.761C481.336 189.411 480.971 189.211 480.49 189.16C480.009 189.11 479.611 189.231 479.297 189.522C478.984 189.806 478.803 190.18 478.754 190.645C478.705 191.118 478.804 191.526 479.053 191.868C479.301 192.21 479.665 192.406 480.146 192.456C480.628 192.507 481.025 192.39 481.338 192.106C481.651 191.823 481.833 191.445 481.882 190.971ZM483.949 198.666L485.033 188.272L486.621 188.438L485.537 198.831L483.949 198.666ZM476.196 197.456L476.348 196L483.457 196.742L483.305 198.197L476.196 197.456ZM494.497 197.844L494.346 199.288L490.232 198.859L491.251 189.091L495.137 189.496L494.985 190.952L492.699 190.713L491.983 197.582L494.497 197.844ZM497.735 189.646L496.669 199.87L495.093 199.706L495.584 195.003L493.575 194.793L493.734 193.265L495.743 193.475L496.16 189.481L497.735 189.646ZM499.171 200.253L497.583 200.087L498.667 189.694L500.255 189.86L499.171 200.253ZM511.071 190.988L509.987 201.381L508.399 201.215L509.483 190.822L511.071 190.988ZM503.169 193.422L502.786 197.091C502.725 197.677 502.792 198.122 502.987 198.426C503.183 198.722 503.494 198.892 503.919 198.936C504.344 198.981 504.683 198.878 504.936 198.629C505.198 198.372 505.359 197.952 505.42 197.366L505.803 193.697C505.863 193.12 505.792 192.679 505.588 192.374C505.393 192.07 505.083 191.895 504.658 191.851C504.233 191.807 503.893 191.913 503.64 192.17C503.386 192.428 503.229 192.845 503.169 193.422ZM501.258 196.932L501.641 193.263C501.748 192.237 502.086 191.477 502.657 190.986C503.235 190.495 503.953 190.294 504.811 190.383C505.677 190.474 506.342 190.819 506.807 191.418C507.271 192.018 507.45 192.831 507.343 193.858L506.96 197.527C506.853 198.553 506.511 199.308 505.934 199.791C505.356 200.274 504.635 200.47 503.768 200.38C502.91 200.29 502.249 199.95 501.783 199.358C501.326 198.767 501.151 197.959 501.258 196.932ZM517.411 201.693L511.866 201.115L512.884 191.347L517.949 191.875L517.797 193.331L514.332 192.969L514.073 195.459L517.429 195.809L517.277 197.265L513.921 196.915L513.616 199.838L517.562 200.25L517.411 201.693ZM519.72 197.508L517.748 197.302L517.907 195.774L519.88 195.98L520.3 191.95L521.888 192.116L520.804 202.509L519.216 202.343L519.72 197.508ZM522.835 196.933L532.783 197.97L532.664 199.113L522.716 198.075L522.835 196.933ZM531.909 202.5L531.795 203.594L522.749 202.651L523.02 200.053L530.358 200.818L530.401 200.409L523.063 199.644L523.178 198.537L532.116 199.469L531.845 202.067L524.507 201.302L524.463 201.723L531.909 202.5ZM532.54 196.449L532.426 197.544L523.38 196.6L523.651 194.002L530.989 194.767L531.032 194.358L523.694 193.593L523.809 192.486L532.747 193.418L532.475 196.029L525.137 195.264L525.094 195.673L532.54 196.449ZM546.38 194.84L545.72 201.168L536.783 200.236L537.443 193.908L539.042 194.075L538.862 195.807L544.6 196.406L544.78 194.673L546.38 194.84ZM546.014 203.253L545.861 204.721L535.912 203.683L536.065 202.216L540.179 202.645L540.345 201.057L542.029 201.233L541.864 202.82L546.014 203.253ZM538.533 198.959L544.271 199.557L544.448 197.861L538.71 197.263L538.533 198.959ZM553.729 200.775L550.673 200.456C550.192 200.406 549.761 200.3 549.381 200.139C549.001 199.969 548.687 199.754 548.439 199.493C548.19 199.232 548.007 198.933 547.888 198.597C547.777 198.261 547.742 197.893 547.784 197.492C547.867 196.698 548.218 196.09 548.838 195.668C549.466 195.239 550.262 195.075 551.224 195.175L554.279 195.494C554.753 195.543 555.175 195.652 555.546 195.82C555.926 195.99 556.244 196.205 556.5 196.467C556.749 196.728 556.932 197.031 557.05 197.376C557.169 197.712 557.208 198.077 557.167 198.47C557.125 198.871 557.011 199.224 556.826 199.529C556.64 199.834 556.398 200.088 556.102 200.292C555.797 200.496 555.441 200.641 555.035 200.728C554.637 200.809 554.202 200.824 553.729 200.775ZM550.849 199.003L553.844 199.315C554.326 199.365 554.713 199.301 555.008 199.12C555.31 198.941 555.481 198.667 555.519 198.298C555.557 197.937 555.446 197.634 555.188 197.388C554.939 197.135 554.574 196.984 554.093 196.933L551.097 196.621C550.616 196.571 550.228 196.644 549.932 196.84C549.636 197.028 549.47 197.303 549.432 197.663C549.394 198.032 549.5 198.335 549.751 198.572C550.002 198.809 550.368 198.953 550.849 199.003ZM557.054 202.24L556.901 203.708L554.771 203.486L554.495 206.132L552.895 205.965L553.171 203.319L550.681 203.059L550.405 205.706L548.818 205.54L549.094 202.893L546.952 202.67L547.105 201.203L557.054 202.24ZM563.998 201.092C563.962 201.428 563.862 201.734 563.695 202.009C563.53 202.275 563.316 202.496 563.055 202.671C562.792 202.855 562.487 202.985 562.138 203.062C561.798 203.14 561.431 203.159 561.038 203.118C560.637 203.076 560.278 202.982 559.961 202.835C559.644 202.689 559.376 202.498 559.157 202.265C558.937 202.039 558.774 201.779 558.667 201.484C558.569 201.182 558.537 200.863 558.572 200.526C558.607 200.189 558.704 199.887 558.861 199.62C559.028 199.345 559.242 199.12 559.503 198.945C559.766 198.761 560.067 198.631 560.408 198.553C560.749 198.467 561.12 198.445 561.521 198.486C561.914 198.527 562.269 198.625 562.585 198.78C562.91 198.927 563.182 199.118 563.401 199.351C563.62 199.577 563.783 199.841 563.89 200.144C563.997 200.439 564.033 200.755 563.998 201.092ZM567.045 205.799L566.893 207.255L558.136 206.341L558.46 203.238L560.048 203.404L559.876 205.052L567.045 205.799ZM568.793 199.999L568.635 201.514L567.288 201.374L566.94 204.706L565.34 204.539L566.155 196.732L567.754 196.899L567.446 199.858L568.793 199.999ZM564.871 197.146L564.736 198.445L558.456 197.79L558.592 196.491L560.877 196.729L560.975 195.791L562.575 195.958L562.477 196.896L564.871 197.146ZM562.47 200.932C562.501 200.636 562.419 200.368 562.225 200.129C562.039 199.89 561.762 199.752 561.393 199.713C561.008 199.673 560.704 199.751 560.481 199.947C560.258 200.142 560.131 200.388 560.1 200.685C560.069 200.982 560.143 201.245 560.322 201.474C560.501 201.696 560.784 201.827 561.169 201.867C561.537 201.905 561.837 201.835 562.066 201.656C562.304 201.47 562.439 201.229 562.47 200.932Z" fill="white"/>
<g filter="url(#filter1_d_13485_8761)">
<path d="M273.135 298.433C272.86 295.846 274.734 293.525 277.322 293.25L536.135 265.735C537.465 265.594 538.792 266.024 539.786 266.92L575.169 298.796C576.956 300.407 577.243 303.105 575.834 305.056L547.944 343.658C547.161 344.743 545.954 345.443 544.624 345.584L285.811 373.099C283.223 373.374 280.903 371.5 280.628 368.912L273.135 298.433Z" fill="url(#paint2_linear_13485_8761)"/>
<path d="M308.54 338.274C308.317 338.203 308.094 338.133 307.872 338.062C307.662 337.99 307.452 337.912 307.241 337.827C307.031 337.755 306.822 337.683 306.612 337.611C306.403 337.539 306.193 337.46 305.982 337.375C307.016 334.95 307.633 332.401 307.834 329.729C308.034 327.056 307.989 324.356 307.699 321.628L310.354 321.345C310.456 322.304 310.532 323.271 310.582 324.248C310.632 325.226 310.649 326.206 310.632 327.19C310.931 327.98 311.291 328.769 311.712 329.559C312.131 330.335 312.6 331.079 313.12 331.791C313.628 332.518 314.178 333.2 314.771 333.836C315.377 334.472 316.009 335.037 316.667 335.533C316.51 335.697 316.352 335.862 316.195 336.027C316.051 336.19 315.906 336.347 315.76 336.497C315.603 336.662 315.445 336.82 315.286 336.971C315.142 337.135 314.997 337.298 314.853 337.461C313.957 336.749 313.114 335.917 312.327 334.964C311.551 333.997 310.864 332.98 310.266 331.913C310.101 333.021 309.874 334.115 309.586 335.195C309.309 336.261 308.96 337.287 308.54 338.274ZM318.477 329.203L313.606 329.721L313.337 327.186L318.208 326.668L317.541 320.4L320.176 320.119L322.01 337.367L319.375 337.647L318.477 329.203ZM339.221 325.847L339.456 328.063L324.445 329.659L323.814 323.73L335.991 322.435L335.836 320.978L323.659 322.273L323.424 320.057L338.256 318.48L338.878 324.329L326.701 325.624L326.864 327.161L339.221 325.847ZM340.259 329.35L340.516 331.766L336.983 332.141L337.384 335.914L334.729 336.196L334.328 332.424L330.196 332.863L330.597 336.636L327.962 336.916L327.561 333.143L324.007 333.521L323.75 331.105L340.259 329.35ZM361.503 326.304L362.214 332.992L348.041 334.499L347.33 327.811L349.965 327.531L350.099 328.789L359.002 327.842L358.868 326.585L361.503 326.304ZM351.874 326.884L351.136 326.962C350.537 327.026 349.977 327.012 349.456 326.919C348.948 326.825 348.492 326.651 348.088 326.398C347.686 326.158 347.357 325.85 347.101 325.473C346.858 325.082 346.709 324.627 346.653 324.108C346.601 323.616 346.654 323.159 346.811 322.739C346.98 322.303 347.236 321.926 347.579 321.607C347.92 321.275 348.329 321.009 348.806 320.811C349.295 320.597 349.839 320.459 350.438 320.395L351.176 320.316C351.762 320.254 352.316 320.276 352.839 320.382C353.36 320.474 353.816 320.648 354.206 320.903C354.609 321.143 354.938 321.457 355.195 321.847C355.45 322.224 355.604 322.658 355.656 323.151C355.712 323.67 355.655 324.147 355.486 324.582C355.315 325.004 355.058 325.375 354.716 325.694C354.387 326.025 353.978 326.29 353.488 326.49C352.998 326.69 352.46 326.822 351.874 326.884ZM363.017 319.28L363.285 321.795L361.049 322.032L361.427 325.586L358.772 325.868L357.736 316.126L360.391 315.844L360.781 319.517L363.017 319.28ZM355.778 317.082L356.005 319.217L345.585 320.325L345.358 318.189L349.151 317.786L349.002 316.389L351.657 316.106L351.806 317.504L355.778 317.082ZM350.433 332.124L359.356 331.176L359.218 329.878L350.295 330.827L350.433 332.124ZM350.919 324.926L351.658 324.848C352.11 324.8 352.478 324.653 352.762 324.407C353.044 324.149 353.164 323.82 353.121 323.42C353.083 323.061 352.897 322.771 352.565 322.551C352.232 322.331 351.839 322.244 351.386 322.293L350.648 322.371C350.169 322.422 349.796 322.589 349.53 322.873C349.264 323.157 349.15 323.479 349.189 323.838C349.231 324.238 349.411 324.535 349.728 324.73C350.043 324.912 350.44 324.977 350.919 324.926ZM378.7 313.898L379.78 324.058L377.145 324.339L376.948 322.482L373.295 322.871L373.055 320.615L376.708 320.226L376.524 318.49L373.07 318.857L372.83 316.601L376.284 316.234L376.065 314.178L378.7 313.898ZM363.818 315.762L372.162 314.875L372.315 316.313C372.43 317.391 372.338 318.423 372.039 319.411C371.739 320.385 371.268 321.276 370.627 322.084C370.001 322.904 369.223 323.62 368.292 324.23C367.36 324.841 366.321 325.314 365.172 325.652C364.936 325.327 364.7 325.009 364.465 324.697C364.242 324.371 364.019 324.045 363.796 323.719C364.66 323.492 365.448 323.18 366.159 322.781C366.869 322.369 367.478 321.894 367.986 321.356C368.507 320.816 368.908 320.221 369.189 319.572C369.482 318.909 369.644 318.212 369.674 317.482L364.064 318.078L363.818 315.762ZM379.863 324.837L380.553 331.325L377.918 331.605L377.481 327.493L365.583 328.758L365.331 326.382L379.863 324.837ZM398.559 327.291L398.753 329.107L383.741 330.703L383.282 326.391L395.459 325.097L395.387 324.418L383.21 325.713L383.017 323.896L385.732 323.607L385.649 322.829L382.096 323.207L381.897 321.33L398.405 319.575L398.605 321.452L395.052 321.829L395.134 322.608L397.849 322.319L398.305 326.611L386.128 327.906L386.203 328.604L398.559 327.291ZM388.347 323.329L392.499 322.888L392.417 322.109L388.264 322.551L388.347 323.329ZM397.486 317.19L397.681 319.026L382.669 320.622L382.213 316.33L394.39 315.036L394.32 314.377L382.143 315.672L381.948 313.835L396.78 312.258L397.236 316.55L385.059 317.845L385.129 318.503L397.486 317.19ZM405.506 327.057L405.126 323.484C405.04 322.672 405.09 322 405.276 321.469C405.475 320.937 405.851 320.426 406.405 319.936L409.337 317.323C409.631 317.049 409.84 316.744 409.966 316.408C410.105 316.07 410.154 315.702 410.111 315.303C410.049 314.717 409.868 314.285 409.57 314.007C409.284 313.728 408.875 313.617 408.343 313.674C407.797 313.732 407.415 313.934 407.196 314.28C406.977 314.626 406.9 315.105 406.966 315.718L404.331 315.998C404.171 314.494 404.434 313.362 405.12 312.603C405.819 311.829 406.807 311.374 408.084 311.238C409.348 311.104 410.403 311.335 411.247 311.932C412.104 312.527 412.61 313.556 412.766 315.02C412.864 315.939 412.781 316.741 412.517 317.429C412.266 318.102 411.844 318.692 411.252 319.199L408.441 321.617C408.169 321.848 407.974 322.098 407.854 322.366C407.748 322.633 407.715 322.953 407.754 323.325L407.865 324.363L413.694 323.744L413.95 326.159L405.506 327.057ZM420.902 321.544L420.104 314.038C420.05 313.533 419.862 313.156 419.539 312.907C419.23 312.657 418.836 312.558 418.357 312.609C417.851 312.663 417.473 312.844 417.224 313.153C416.987 313.461 416.896 313.868 416.95 314.374L417.748 321.879C417.803 322.398 417.978 322.784 418.274 323.035C418.582 323.271 418.989 323.363 419.494 323.309C419.973 323.258 420.339 323.084 420.59 322.789C420.853 322.478 420.957 322.063 420.902 321.544ZM422.72 313.579L423.558 321.464C423.681 322.621 423.413 323.585 422.755 324.355C422.11 325.124 421.109 325.58 419.751 325.724C418.38 325.87 417.292 325.636 416.487 325.021C415.695 324.406 415.237 323.519 415.114 322.361L414.276 314.476C414.151 313.305 414.411 312.335 415.056 311.567C415.713 310.784 416.727 310.319 418.098 310.174C419.455 310.029 420.531 310.272 421.325 310.901C422.13 311.515 422.595 312.407 422.72 313.579ZM430.82 320.49L430.022 312.984C429.968 312.478 429.78 312.101 429.457 311.853C429.148 311.603 428.754 311.504 428.275 311.555C427.769 311.608 427.392 311.79 427.142 312.099C426.905 312.407 426.814 312.813 426.868 313.319L427.666 320.825C427.721 321.344 427.896 321.729 428.192 321.98C428.5 322.217 428.907 322.308 429.413 322.254C429.892 322.203 430.257 322.03 430.508 321.734C430.771 321.424 430.875 321.009 430.82 320.49ZM432.638 312.524L433.476 320.409C433.599 321.567 433.332 322.531 432.673 323.301C432.028 324.069 431.027 324.525 429.669 324.67C428.299 324.816 427.211 324.581 426.405 323.967C425.613 323.351 425.155 322.465 425.032 321.307L424.194 313.422C424.069 312.251 424.33 311.281 424.975 310.512C425.632 309.729 426.645 309.265 428.016 309.119C429.374 308.975 430.449 309.217 431.243 309.846C432.048 310.46 432.513 311.353 432.638 312.524ZM442.806 307.749L445.362 307.477L438.93 323.504L436.374 323.775L442.806 307.749ZM437.715 312.651L437.546 311.054C437.516 310.774 437.434 310.574 437.3 310.454C437.165 310.32 436.977 310.266 436.738 310.292C436.472 310.32 436.286 310.414 436.182 310.573C436.09 310.717 436.059 310.929 436.088 311.208L436.258 312.805C436.288 313.085 436.364 313.292 436.486 313.427C436.62 313.548 436.82 313.594 437.086 313.565C437.325 313.54 437.498 313.454 437.604 313.308C437.708 313.149 437.745 312.93 437.715 312.651ZM439.87 310.705L440.059 312.482C440.16 313.427 439.949 314.163 439.426 314.689C438.917 315.215 438.209 315.525 437.304 315.621C436.386 315.719 435.623 315.565 435.014 315.158C434.406 314.752 434.051 314.076 433.951 313.131L433.762 311.355C433.663 310.423 433.868 309.695 434.378 309.17C434.886 308.631 435.599 308.313 436.517 308.215C437.422 308.119 438.179 308.281 438.789 308.701C439.411 309.106 439.771 309.774 439.87 310.705ZM445.71 320.057L445.54 318.46C445.51 318.181 445.428 317.974 445.292 317.841C445.17 317.706 444.983 317.652 444.73 317.678C444.464 317.707 444.285 317.8 444.195 317.957C444.104 318.115 444.073 318.334 444.103 318.613L444.273 320.21C444.302 320.49 444.378 320.697 444.5 320.832C444.621 320.954 444.814 321.001 445.08 320.972C445.333 320.945 445.506 320.86 445.598 320.715C445.702 320.556 445.74 320.337 445.71 320.057ZM447.885 318.11L448.074 319.887C448.173 320.818 447.961 321.548 447.438 322.074C446.916 322.601 446.202 322.912 445.297 323.008C444.378 323.106 443.615 322.952 443.007 322.545C442.398 322.139 442.044 321.47 441.945 320.538L441.757 318.762C441.658 317.83 441.863 317.102 442.372 316.577C442.88 316.038 443.593 315.72 444.512 315.622C445.416 315.526 446.181 315.687 446.804 316.105C447.426 316.51 447.786 317.179 447.885 318.11ZM469.52 316.759L466.865 317.041L465.838 307.379L453.661 308.674L453.402 306.239L468.234 304.662L469.52 316.759ZM470.548 318.446L470.807 320.882L454.298 322.637L454.039 320.202L459.389 319.633L458.621 312.406L461.276 312.124L462.044 319.351L470.548 318.446ZM483.795 320.349L478.246 320.939C476.649 321.109 475.343 320.985 474.33 320.568C473.331 320.163 472.764 319.321 472.628 318.044C472.518 317.006 472.822 316.125 473.539 315.403C474.269 314.679 475.313 314.245 476.671 314.101L482.2 313.513C483.797 313.344 485.098 313.488 486.102 313.946C487.118 314.39 487.691 315.218 487.82 316.429C487.936 317.52 487.633 318.407 486.911 319.089C486.191 319.785 485.153 320.205 483.795 320.349ZM477.189 318.79L483.038 318.168C483.677 318.1 484.194 317.958 484.588 317.741C484.997 317.536 485.176 317.194 485.125 316.715C485.074 316.236 484.826 315.933 484.382 315.805C483.951 315.676 483.416 315.645 482.777 315.713L477.408 316.284C476.795 316.349 476.279 316.491 475.858 316.711C475.437 316.931 475.252 317.28 475.303 317.759C475.344 318.145 475.523 318.429 475.838 318.611C476.167 318.791 476.617 318.851 477.189 318.79ZM479.225 310.216L487.729 309.312L487.971 311.588L471.462 313.343L471.221 311.067L476.57 310.498L476.278 307.743L478.933 307.461L479.225 310.216ZM486.791 308.463L484.136 308.745L483.782 305.411L471.605 306.706L471.352 304.33L486.184 302.754L486.791 308.463ZM510.916 303.274L511.183 305.789L508.948 306.027L509.359 309.899L506.704 310.181L505.664 300.4L508.319 300.118L508.68 303.511L510.916 303.274ZM496.761 301.346L499.416 301.064C499.473 301.597 499.495 302.126 499.484 302.652C499.486 303.177 499.459 303.684 499.404 304.174C500.052 304.953 500.848 305.67 501.792 306.323C502.736 306.976 503.693 307.494 504.662 307.875L503.293 309.999C502.49 309.654 501.689 309.214 500.892 308.68C500.095 308.145 499.374 307.563 498.728 306.931C498.413 307.772 498.012 308.555 497.524 309.28C497.034 309.991 496.464 310.638 495.812 311.218L493.653 309.712C494.864 308.695 495.731 307.479 496.253 306.064C496.774 304.636 496.944 303.063 496.761 301.346ZM506.04 317.984L500.311 318.593C498.913 318.742 497.776 318.553 496.899 318.027C496.037 317.513 495.545 316.677 495.422 315.519C495.311 314.481 495.62 313.587 496.348 312.837C497.089 312.085 498.158 311.635 499.555 311.487L505.284 310.877C506.655 310.732 507.782 310.948 508.664 311.528C509.547 312.107 510.043 312.915 510.154 313.953C510.277 315.111 509.964 316.033 509.216 316.718C508.469 317.416 507.411 317.838 506.04 317.984ZM500.073 316.357L505.802 315.748C506.321 315.693 506.734 315.528 507.042 315.253C507.349 314.978 507.481 314.641 507.439 314.242C507.398 313.856 507.198 313.561 506.84 313.357C506.48 313.139 506.041 313.058 505.522 313.113L499.793 313.722C499.234 313.782 498.808 313.955 498.516 314.242C498.235 314.514 498.115 314.843 498.156 315.229C498.199 315.628 498.386 315.931 498.717 316.138C499.062 316.344 499.514 316.417 500.073 316.357ZM512.73 306.25L511.429 304.269C512.259 304.1 513.042 303.862 513.776 303.555C514.509 303.235 515.175 302.854 515.774 302.414C516.374 301.973 516.885 301.468 517.309 300.898C517.732 300.315 518.04 299.67 518.234 298.963L520.978 299.135C520.919 299.343 520.853 299.546 520.78 299.742C520.718 299.923 520.656 300.098 520.593 300.266C521.588 300.887 522.743 301.37 524.058 301.715C525.386 302.058 526.737 302.231 528.11 302.233L527.359 304.473C525.933 304.477 524.506 304.285 523.079 303.898C521.663 303.497 520.422 302.963 519.355 302.296C518.56 303.295 517.58 304.14 516.415 304.829C515.262 305.503 514.034 305.977 512.73 306.25ZM511.826 307.053L528.335 305.298L528.581 307.613L512.072 309.369L511.826 307.053ZM528.411 312.275C528.525 313.353 528.213 314.214 527.474 314.857C526.735 315.501 525.667 315.898 524.269 316.046L518.081 316.704C516.67 316.854 515.536 316.692 514.678 316.218C513.82 315.744 513.334 314.968 513.219 313.89C513.11 312.865 513.424 312.017 514.16 311.347C514.897 310.677 515.97 310.266 517.381 310.116L523.569 309.459C524.966 309.31 526.095 309.486 526.956 309.987C527.817 310.487 528.302 311.25 528.411 312.275ZM525.696 312.563C525.66 312.231 525.485 311.973 525.17 311.792C524.867 311.608 524.397 311.551 523.758 311.619L517.63 312.27C517.031 312.334 516.59 312.488 516.306 312.734C516.023 312.979 515.899 313.268 515.934 313.601C515.972 313.961 516.142 314.225 516.443 314.395C516.758 314.577 517.235 314.634 517.874 314.566L524.002 313.914C524.641 313.846 525.089 313.691 525.346 313.449C525.617 313.218 525.734 312.923 525.696 312.563ZM529.457 297.588L532.092 297.308L533.378 309.405L530.743 309.685L529.457 297.588ZM534.123 314.514L531.089 314.837L530.773 311.862L533.807 311.54L534.123 314.514Z" fill="white"/>
</g>
</g>
<defs>
<filter id="filter0_d_13485_8761" x="188.278" y="142.016" width="427.31" height="166.222" filterUnits="userSpaceOnUse" color-interpolation-filters="sRGB">
<feFlood flood-opacity="0" result="BackgroundImageFix"/>
<feColorMatrix in="SourceAlpha" type="matrix" values="0 0 0 0 0 0 0 0 0 0 0 0 0 0 0 0 0 0 127 0" result="hardAlpha"/>
<feOffset/>
<feGaussianBlur stdDeviation="15.0561"/>
<feComposite in2="hardAlpha" operator="out"/>
<feColorMatrix type="matrix" values="0 0 0 0 0 0 0 0 0 0 0 0 0 0 0 0 0 0 0.8 0"/>
<feBlend mode="normal" in2="BackgroundImageFix" result="effect1_dropShadow_13485_8761"/>
<feBlend mode="normal" in="SourceGraphic" in2="effect1_dropShadow_13485_8761" result="shape"/>
</filter>
<filter id="filter1_d_13485_8761" x="253.035" y="245.634" width="343.767" height="147.566" filterUnits="userSpaceOnUse" color-interpolation-filters="sRGB">
<feFlood flood-opacity="0" result="BackgroundImageFix"/>
<feColorMatrix in="SourceAlpha" type="matrix" values="0 0 0 0 0 0 0 0 0 0 0 0 0 0 0 0 0 0 127 0" result="hardAlpha"/>
<feOffset/>
<feGaussianBlur stdDeviation="10.0374"/>
<feComposite in2="hardAlpha" operator="out"/>
<feColorMatrix type="matrix" values="0 0 0 0 0 0 0 0 0 0 0 0 0 0 0 0 0 0 0.25 0"/>
<feBlend mode="normal" in2="BackgroundImageFix" result="effect1_dropShadow_13485_8761"/>
<feBlend mode="normal" in="SourceGraphic" in2="effect1_dropShadow_13485_8761" result="shape"/>
</filter>
<linearGradient id="paint0_linear_13485_8761" x1="411.821" y1="213.095" x2="411.821" y2="457.003" gradientUnits="userSpaceOnUse">
<stop stop-color="#E8F9FD"/>
<stop offset="1" stop-color="#193029"/>
</linearGradient>
<linearGradient id="paint1_linear_13485_8761" x1="218.508" y1="204.639" x2="581.993" y2="242.546" gradientUnits="userSpaceOnUse">
<stop stop-color="#EE7DFF"/>
<stop offset="1" stop-color="#E84DFF"/>
</linearGradient>
<linearGradient id="paint2_linear_13485_8761" x1="276.881" y1="333.673" x2="578.311" y2="301.627" gradientUnits="userSpaceOnUse">
<stop stop-color="#8A84FF"/>
<stop offset="1" stop-color="#CA60FF"/>
</linearGradient>
<clipPath id="clip0_13485_8761">
<rect width="800" height="400" fill="white"/>
</clipPath>
</defs>
</svg>
