<svg width="800" height="400" viewBox="0 0 800 400" fill="none" xmlns="http://www.w3.org/2000/svg">
<g clip-path="url(#clip0_13485_8727)">
<rect width="800" height="400" fill="black"/>
<g opacity="0.3">
<path d="M87.7106 362.641C85.7843 363.721 82.2622 361.512 78.8541 357.423C79.9334 360.723 79.8951 363.356 78.5218 364.126C76.9739 364.994 74.1649 363.252 71.4656 360.018C71.8873 362.076 71.5776 363.741 70.4779 364.358C68.6529 365.381 65.3431 363.131 63.0852 359.331C60.8274 355.532 60.4765 351.622 62.3015 350.598C63.4012 349.981 65.0401 350.553 66.6631 351.937C65.13 348.048 64.9818 344.814 66.5297 343.945C67.903 343.175 70.2689 344.459 72.6702 347.017C70.7301 342.105 70.5217 338.037 72.448 336.956C75.0551 335.494 80.5853 340.058 84.8 347.151C89.0146 354.243 90.3178 361.178 87.7106 362.641Z" fill="white"/>
<path d="M122.691 347.011C123.835 347.916 125.333 348.369 127.185 348.369C128.6 348.369 129.692 348.046 130.462 347.401C131.231 346.756 131.616 345.893 131.616 344.811C131.616 344.073 131.424 343.469 131.039 343.001C130.664 342.533 130.191 342.174 129.619 341.925C129.057 341.664 128.35 341.415 127.497 341.176C126.769 340.968 126.217 340.765 125.843 340.567C125.479 340.359 125.297 340.073 125.297 339.709C125.297 339.355 125.469 339.074 125.812 338.866C126.155 338.658 126.613 338.554 127.185 338.554C128.329 338.554 129.343 338.809 130.228 339.319L131.164 337.493C130.04 336.796 128.714 336.448 127.185 336.448C125.843 336.448 124.798 336.749 124.049 337.353C123.3 337.956 122.925 338.778 122.925 339.818C122.925 340.557 123.112 341.16 123.487 341.628C123.872 342.086 124.34 342.439 124.891 342.689C125.443 342.939 126.129 343.178 126.951 343.407C127.658 343.604 128.215 343.818 128.62 344.047C129.036 344.265 129.245 344.572 129.245 344.967C129.245 345.362 129.062 345.68 128.698 345.919C128.345 346.148 127.84 346.262 127.185 346.262C125.739 346.262 124.595 345.898 123.752 345.17L122.691 347.011Z" fill="white"/>
<path d="M116.453 338.771V348.18H118.84V338.771H122.179V336.634H113.114V338.771H116.453Z" fill="white"/>
<path d="M104.267 348.18V336.634H112.411V338.771H106.607V341.252H112.006V343.343H106.607V346.043H112.63V348.18H104.267Z" fill="white"/>
<path d="M95.5498 336.634V348.18H103.149V346.043H97.8903V336.634H95.5498Z" fill="white"/>
<path fill-rule="evenodd" clip-rule="evenodd" d="M156.868 361.188C157.139 361.656 157.425 362.004 157.726 362.233C158.028 362.462 158.439 362.628 158.959 362.732V364.698C158.293 364.678 157.731 364.594 157.274 364.449C156.826 364.303 156.426 364.069 156.072 363.747C155.719 363.424 155.37 362.972 155.027 362.389L154.294 361.156H151.859V364.605H149.519V353.058H154.512C155.355 353.058 156.103 353.214 156.759 353.526C157.425 353.839 157.945 354.301 158.319 354.915C158.694 355.519 158.881 356.252 158.881 357.115C158.881 357.906 158.657 358.603 158.21 359.206C157.763 359.809 157.196 360.257 156.509 360.548L156.868 361.188ZM151.859 355.165V359.128H154.418C155.032 359.128 155.521 358.956 155.885 358.613C156.249 358.27 156.431 357.771 156.431 357.115C156.431 356.491 156.244 356.013 155.869 355.68C155.505 355.336 155.037 355.165 154.465 355.165H151.859Z" fill="white"/>
<path d="M139.355 353.058V364.605H147.719V362.467H141.696V359.768H147.095V357.677H141.696V355.196H147.5V353.058H139.355Z" fill="white"/>
<path d="M129.192 364.605V353.058H137.337V355.196H131.532V357.677H136.931V359.768H131.532V362.467H137.555V364.605H129.192Z" fill="white"/>
<path fill-rule="evenodd" clip-rule="evenodd" d="M126.139 362.233C125.837 362.004 125.551 361.656 125.281 361.188L124.922 360.548C125.608 360.257 126.175 359.809 126.622 359.206C127.07 358.603 127.293 357.906 127.293 357.115C127.293 356.252 127.106 355.519 126.732 354.915C126.357 354.301 125.837 353.839 125.171 353.526C124.516 353.214 123.767 353.058 122.924 353.058H117.931V364.605H120.272V361.156H122.706L123.439 362.389C123.783 362.972 124.131 363.424 124.485 363.747C124.838 364.069 125.239 364.303 125.686 364.449C126.144 364.594 126.706 364.678 127.371 364.698V362.732C126.851 362.628 126.44 362.462 126.139 362.233ZM120.272 359.128V355.165H122.878C123.45 355.165 123.918 355.336 124.282 355.68C124.656 356.013 124.844 356.491 124.844 357.115C124.844 357.771 124.662 358.27 124.298 358.613C123.933 358.956 123.445 359.128 122.831 359.128H120.272Z" fill="white"/>
<path fill-rule="evenodd" clip-rule="evenodd" d="M112.321 352.993L116.788 364.605H114.181L113.311 362.063H108.827L107.958 364.605H105.344L109.811 352.993H112.321ZM112.547 359.834L111.105 355.623H111.029L109.589 359.834H112.547Z" fill="white"/>
<path d="M97.4533 364.044C98.3167 364.544 99.3361 364.793 100.512 364.793C101.427 364.793 102.27 364.648 103.039 364.356C103.809 364.065 104.47 363.644 105.021 363.092L103.726 361.314C103.32 361.74 102.852 362.073 102.322 362.312C101.791 362.541 101.255 362.656 100.714 362.656C99.643 362.656 98.7952 362.307 98.1711 361.61C97.5574 360.913 97.2505 359.987 97.2505 358.833C97.2505 357.668 97.5626 356.742 98.1867 356.055C98.8108 355.358 99.6534 355.01 100.714 355.01C101.235 355.01 101.723 355.088 102.181 355.244C102.639 355.39 103.097 355.629 103.554 355.962L104.584 354.152C104.106 353.757 103.507 353.444 102.79 353.216C102.082 352.987 101.375 352.872 100.668 352.872C99.461 352.872 98.4155 353.122 97.5314 353.621C96.6472 354.11 95.971 354.807 95.5029 355.712C95.0348 356.607 94.8008 357.647 94.8008 358.833C94.8008 360.008 95.0296 361.048 95.4873 361.953C95.945 362.848 96.6004 363.545 97.4533 364.044Z" fill="white"/>
</g>
<path d="M462.566 95.0377C493.476 96.2773 550.098 90.1503 529.308 55.7259C503.32 12.6955 433.625 70.0694 477.923 84.4129C513.361 95.8877 536.002 96.2773 542.892 95.0377" stroke="#2CE282" stroke-width="2.36253" stroke-linecap="round"/>
<path d="M299.551 94.3378L438.349 84.8877" stroke="#2CE282" stroke-width="2.36253" stroke-linecap="round"/>
<path d="M156.582 56.773H159.691C159.691 58.3607 159.636 59.9593 159.526 61.569C159.416 63.1786 159.261 64.7773 159.063 66.3649C159.791 69.2094 160.882 71.9877 162.337 74.6999C163.793 77.4121 165.546 79.7384 167.596 81.6788L165.314 83.7957C163.727 82.2301 162.315 80.444 161.081 78.4374C159.846 76.4088 158.82 74.3471 158.005 72.2523C157.497 74.3692 156.869 76.4419 156.119 78.4705C155.392 80.4771 154.51 82.3844 153.473 84.1926L150.695 82.7372C151.775 80.8409 152.69 78.8454 153.44 76.7506C154.19 74.6558 154.796 72.5059 155.259 70.3009C155.722 68.0959 156.053 65.8578 156.252 63.5866C156.472 61.3154 156.582 59.0442 156.582 56.773ZM173.385 56.4754H176.494V85.0525H173.385V70.6647H164.355V67.8864H173.385V56.4754ZM206.863 69.6725V72.4839H182.288V63.2889H203.423V59.8821H182.288V57.0707H206.533V66.1003H185.397V69.6725H206.863ZM208.087 75.4276V78.239H201.571V85.3502H198.462V78.239H190.392V85.3502H187.283V78.239H180.734V75.4276H208.087ZM235.976 84.7218H212.36V76.486H215.469V81.9434H235.976V84.7218ZM232.238 56.4754H235.348V65.4719H239.383V68.2833H235.348V77.5113H232.238V56.4754ZM218.082 56.4754H221.191C223.132 56.4754 224.73 57.0156 225.987 58.0961C227.266 59.1545 227.906 60.5767 227.906 62.3628C227.906 64.1489 227.266 65.5821 225.987 66.6626C224.73 67.7431 223.132 68.2833 221.191 68.2833V71.6239H229.956V74.4022H210.475V71.6239H218.082V68.2833C216.142 68.2833 214.543 67.7431 213.286 66.6626C212.029 65.5821 211.401 64.1489 211.401 62.3628C211.401 60.5767 212.029 59.1545 213.286 58.0961C214.543 57.0156 216.142 56.4754 218.082 56.4754ZM221.191 59.2537H218.082C217.002 59.2537 216.131 59.5403 215.469 60.1137C214.83 60.687 214.51 61.4367 214.51 62.3628C214.51 63.3109 214.83 64.0717 215.469 64.645C216.131 65.1962 217.002 65.4719 218.082 65.4719H221.191C222.272 65.4719 223.143 65.1962 223.804 64.645C224.466 64.0717 224.796 63.3109 224.796 62.3628C224.796 61.4367 224.466 60.687 223.804 60.1137C223.143 59.5403 222.272 59.2537 221.191 59.2537ZM247.063 56.4754H250.172C250.172 57.3133 250.128 58.1402 250.039 58.956C249.951 59.7498 249.819 60.5326 249.642 61.3044C250.569 62.8479 251.77 64.3142 253.248 65.7034C254.725 67.0705 256.313 68.2171 258.011 69.1432L256.092 71.5247C254.681 70.6868 253.314 69.6835 251.991 68.5148C250.668 67.3241 249.51 66.0672 248.518 64.7442C247.856 66.2877 246.996 67.71 245.938 69.0109C244.88 70.2899 243.645 71.4034 242.234 72.3516L239.852 70.2347C242.211 68.7794 243.998 66.8831 245.21 64.5458C246.445 62.1864 247.063 59.4962 247.063 56.4754ZM249.543 73.873H258.87C261.186 73.873 263.005 74.4133 264.328 75.4937C265.673 76.5521 266.346 77.9303 266.346 79.6282C266.346 81.326 265.673 82.7042 264.328 83.7626C263.005 84.821 261.186 85.3502 258.87 85.3502H249.543C247.206 85.3502 245.376 84.821 244.053 83.7626C242.752 82.7042 242.101 81.326 242.101 79.6282C242.101 77.9303 242.752 76.5521 244.053 75.4937C245.376 74.4133 247.206 73.873 249.543 73.873ZM258.87 76.6183H249.543C248.286 76.6183 247.272 76.8939 246.5 77.4452C245.729 77.9744 245.343 78.702 245.343 79.6282C245.343 80.5543 245.729 81.2819 246.5 81.8111C247.272 82.3403 248.286 82.6049 249.543 82.6049H258.87C260.105 82.6049 261.109 82.3403 261.88 81.8111C262.674 81.2819 263.071 80.5543 263.071 79.6282C263.071 78.702 262.674 77.9744 261.88 77.4452C261.109 76.8939 260.105 76.6183 258.87 76.6183ZM262.608 61.4367V56.4754H265.717V72.8477H262.608V64.2481H255.1V61.4367H262.608ZM269.957 83.7957V80.9842H290.067V83.7957H269.957ZM292.349 85.0525V56.4754H295.458V85.0525H292.349ZM287.685 64.5458C287.685 65.7144 287.476 66.7949 287.057 67.7872C286.66 68.7794 286.087 69.6284 285.337 70.334C284.609 71.0616 283.727 71.6239 282.691 72.0208C281.655 72.4177 280.519 72.6162 279.284 72.6162C278.027 72.6162 276.881 72.4177 275.844 72.0208C274.83 71.6239 273.948 71.0616 273.198 70.334C272.471 69.6284 271.897 68.7794 271.479 67.7872C271.082 66.7949 270.883 65.7144 270.883 64.5458C270.883 63.3991 271.082 62.3297 271.479 61.3374C271.897 60.3452 272.471 59.4962 273.198 58.7906C273.948 58.063 274.83 57.5007 275.844 57.1038C276.881 56.6848 278.027 56.4754 279.284 56.4754C280.519 56.4754 281.655 56.6848 282.691 57.1038C283.727 57.5007 284.609 58.063 285.337 58.7906C286.087 59.4962 286.66 60.3452 287.057 61.3374C287.476 62.3297 287.685 63.3991 287.685 64.5458ZM284.576 64.5458C284.576 63.0904 284.102 61.8446 283.154 60.8082C282.206 59.7719 280.916 59.2537 279.284 59.2537C277.631 59.2537 276.33 59.7719 275.381 60.8082C274.455 61.8446 273.992 63.0904 273.992 64.5458C273.992 66.0231 274.455 67.28 275.381 68.3164C276.33 69.3307 277.631 69.8378 279.284 69.8378C280.916 69.8378 282.206 69.3307 283.154 68.3164C284.102 67.28 284.576 66.0231 284.576 64.5458ZM313.033 56.773H316.142C316.142 58.3607 316.087 59.9593 315.976 61.569C315.866 63.1786 315.712 64.7773 315.513 66.3649C316.241 69.2094 317.332 71.9877 318.788 74.6999C320.243 77.4121 321.996 79.7384 324.047 81.6788L321.764 83.7957C320.177 82.2301 318.766 80.444 317.531 78.4374C316.296 76.4088 315.271 74.3471 314.455 72.2523C313.948 74.3692 313.319 76.4419 312.57 78.4705C311.842 80.4771 310.96 82.3844 309.923 84.1926L307.145 82.7372C308.226 80.8409 309.141 78.8454 309.89 76.7506C310.64 74.6558 311.246 72.5059 311.71 70.3009C312.173 68.0959 312.503 65.8578 312.702 63.5866C312.922 61.3154 313.033 59.0442 313.033 56.773ZM329.835 56.4754H332.944V85.0525H329.835V56.4754ZM338.441 57.0707H353.622V59.8821H347.404C347.36 60.5216 347.283 61.139 347.173 61.7344C347.062 62.3297 346.941 62.914 346.809 63.4874C347.735 65.0088 348.959 66.42 350.48 67.721C352.024 69.022 353.655 70.1355 355.375 71.0616L353.358 73.3769C351.88 72.539 350.469 71.5467 349.124 70.4001C347.801 69.2535 346.643 68.0518 345.651 66.7949C344.946 68.2943 344.086 69.6725 343.071 70.9293C342.057 72.1641 340.91 73.2556 339.632 74.2038L337.184 72.2193C339.213 70.8962 340.855 69.1873 342.112 67.0926C343.369 64.9978 344.097 62.5943 344.295 59.8821H338.441V57.0707ZM366.092 63.6196V66.398H362.057V74.1046H358.948V56.4754H362.057V63.6196H366.092ZM362.057 75.7253V85.3502H358.948V78.5367H338.738V75.7253H362.057ZM391.798 70.6647V85.0525H388.689V56.4754H391.798V67.8864H395.833V70.6647H391.798ZM386.406 80.9842V83.7957H366.925V80.9842H372.515V67.6549H375.624V80.9842H386.406ZM383.397 75.7253H380.288V59.8821H368.182V57.0707H383.397V75.7253ZM404.411 66.398H431.764V69.1763H404.411V66.398ZM405.668 57.0707H416.549V65.1742H413.44V59.8821H405.668V57.0707ZM418.104 57.0707H430.21V65.1742H427.101V59.8821H418.104V57.0707ZM430.54 81.9434V84.7218H405.965V71.5247H430.21V74.2699H409.074V76.6844H430.21V79.4297H409.074V81.9434H430.54ZM460.282 81.9434V84.7218H435.706V77.2798H438.816V81.9434H460.282ZM434.152 71.6901H461.505V74.5015H434.152V71.6901ZM452.509 68.9117H443.182C440.668 68.9117 438.738 68.3825 437.393 67.3241C436.07 66.2657 435.409 64.7222 435.409 62.6935C435.409 60.8413 436.07 59.3419 437.393 58.1953C438.738 57.0487 440.668 56.4754 443.182 56.4754H452.509C454.978 56.4754 456.886 57.0487 458.231 58.1953C459.598 59.3419 460.282 60.8413 460.282 62.6935C460.282 64.7222 459.598 66.2657 458.231 67.3241C456.886 68.3825 454.978 68.9117 452.509 68.9117ZM443.182 66.1003H452.509C454.052 66.1003 455.155 65.7916 455.816 65.1742C456.5 64.5347 456.842 63.7079 456.842 62.6935C456.842 61.7013 456.5 60.8854 455.816 60.246C455.155 59.5844 454.052 59.2537 452.509 59.2537H443.182C441.77 59.2537 440.69 59.5844 439.94 60.246C439.19 60.8854 438.816 61.7013 438.816 62.6935C438.816 63.7079 439.146 64.5347 439.808 65.1742C440.491 65.7916 441.616 66.1003 443.182 66.1003ZM472.895 57.0707H488.076V59.8821H481.891C481.825 60.5657 481.737 61.2382 481.626 61.8997C481.538 62.5392 481.428 63.1676 481.296 63.785C482.222 65.3065 483.446 66.7287 484.967 68.0518C486.489 69.3527 488.109 70.4663 489.829 71.3924L487.812 73.6746C486.334 72.8367 484.923 71.8554 483.578 70.7309C482.255 69.5843 481.097 68.3825 480.105 67.1256C479.399 68.6251 478.528 70.0032 477.492 71.2601C476.478 72.4949 475.342 73.5864 474.085 74.5345L471.638 72.55C473.71 71.1608 475.375 69.4078 476.632 67.291C477.889 65.1521 478.606 62.6825 478.782 59.8821H472.895V57.0707ZM497.139 56.4754V78.0736H494.03V56.4754H497.139ZM497.767 81.9434V84.7218H473.821V76.056H476.93V81.9434H497.767ZM530.287 65.0419V67.8533H526.252V78.0736H523.142V56.4754H526.252V65.0419H530.287ZM526.88 81.9434V84.7218H503.264V75.7253H506.373V81.9434H526.88ZM520.033 69.5071V72.3185H502.636V57.0707H518.181V59.8821H505.745V69.5071H520.033ZM556.621 85.0525H553.512V56.4754H556.621V85.0525ZM535.155 62.9912V77.9082C535.155 79.1651 535.398 80.0471 535.883 80.5543C536.368 81.0614 537.007 81.315 537.801 81.315C538.573 81.315 539.201 81.0614 539.686 80.5543C540.194 80.0471 540.447 79.1651 540.447 77.9082V62.9912C540.447 61.7564 540.194 60.8854 539.686 60.3783C539.201 59.8491 538.573 59.5844 537.801 59.5844C537.007 59.5844 536.368 59.8491 535.883 60.3783C535.398 60.8854 535.155 61.7564 535.155 62.9912ZM532.046 77.9082V62.9912C532.046 61.9108 532.189 60.9846 532.476 60.2129C532.785 59.4191 533.204 58.7686 533.733 58.2614C534.262 57.7543 534.868 57.3794 535.552 57.1369C536.258 56.8943 537.007 56.773 537.801 56.773C538.573 56.773 539.301 56.8943 539.984 57.1369C540.69 57.3794 541.307 57.7543 541.836 58.2614C542.366 58.7686 542.784 59.4191 543.093 60.2129C543.402 60.9846 543.556 61.9108 543.556 62.9912V67.9525H547.128V56.6077H550.237V84.7218H547.128V70.7639H543.556V77.9082C543.556 79.0107 543.402 79.9479 543.093 80.7196C542.784 81.4914 542.366 82.1309 541.836 82.638C541.307 83.1452 540.69 83.509 539.984 83.7295C539.301 83.9721 538.573 84.0933 537.801 84.0933C537.007 84.0933 536.258 83.9721 535.552 83.7295C534.868 83.509 534.262 83.1452 533.733 82.638C533.204 82.1309 532.785 81.4914 532.476 80.7196C532.189 79.9479 532.046 79.0107 532.046 77.9082ZM566.451 56.773H569.56C569.56 58.3607 569.505 59.9593 569.394 61.569C569.284 63.1786 569.13 64.7773 568.931 66.3649C569.659 69.2094 570.751 71.9877 572.206 74.6999C573.661 77.4121 575.414 79.7384 577.465 81.6788L575.183 83.7957C573.595 82.2301 572.184 80.444 570.949 78.4374C569.714 76.4088 568.689 74.3471 567.873 72.2523C567.366 74.3692 566.737 76.4419 565.988 78.4705C565.26 80.4771 564.378 82.3844 563.342 84.1926L560.563 82.7372C561.644 80.8409 562.559 78.8454 563.309 76.7506C564.058 74.6558 564.665 72.5059 565.128 70.3009C565.591 68.0959 565.922 65.8578 566.12 63.5866C566.34 61.3154 566.451 59.0442 566.451 56.773ZM583.253 56.4754H586.362V85.0525H583.253V70.6647H574.223V67.8864H583.253V56.4754ZM616.401 57.0707V71.6901H592.157V57.0707H595.266V61.4367H613.292V57.0707H616.401ZM617.955 74.7991V77.6106H605.85V85.3502H602.741V77.6106H590.602V74.7991H617.955ZM595.266 68.9117H613.292V64.2481H595.266V68.9117ZM636.517 83.7957H621.6V57.0707H634.963V59.8821H624.709V68.2833H634.665V71.0616H624.709V80.9842H636.517V83.7957ZM642.735 71.0616H636.219V68.2833H642.735V56.4754H645.844V85.0525H642.735V71.0616Z" fill="white"/>
<path d="M171.556 111.078V165.171H163.292V111.078H171.556ZM132.176 127.857V146.952C132.176 149.999 132.76 152.253 133.929 153.714C135.098 155.133 136.788 155.843 139 155.843C141.212 155.843 142.903 155.133 144.071 153.714C145.282 152.253 145.887 149.999 145.887 146.952V127.857C145.887 124.852 145.282 122.619 144.071 121.158C142.903 119.697 141.212 118.967 139 118.967C136.788 118.967 135.098 119.697 133.929 121.158C132.76 122.619 132.176 124.852 132.176 127.857ZM124.225 146.952V127.857C124.225 122.515 125.561 118.424 128.232 115.586C130.945 112.748 134.534 111.329 139 111.329C143.508 111.329 147.118 112.748 149.831 115.586C152.544 118.424 153.901 122.515 153.901 127.857V146.952C153.901 152.295 152.544 156.364 149.831 159.161C147.118 161.957 143.508 163.355 139 163.355C134.534 163.355 130.945 161.957 128.232 159.161C125.561 156.364 124.225 152.295 124.225 146.952ZM210.259 136.372V143.133H181.084V124.101H199.678V118.717H181.084V111.955H207.692V130.8H189.098V136.372H210.259ZM227.852 111.078V145.325H219.587V135.495H210.322V128.483H219.587V123.913H210.322V116.838H219.587V111.078H227.852ZM227.852 147.704V165.734H219.587V155.091H182.274V147.704H227.852ZM242.075 163.543C241.407 163.251 240.74 162.959 240.072 162.667C239.446 162.375 238.82 162.062 238.194 161.728C237.568 161.435 236.941 161.143 236.315 160.851C235.689 160.559 235.063 160.246 234.437 159.912C238.444 152.733 241.199 145.032 242.701 136.81C244.204 128.588 244.955 120.198 244.955 111.642H253.282C253.282 114.647 253.198 117.673 253.032 120.72C252.865 123.767 252.593 126.814 252.218 129.861C252.885 132.407 253.741 134.974 254.785 137.561C255.828 140.107 257.038 142.57 258.416 144.949C259.751 147.37 261.233 149.665 262.861 151.836C264.53 154.006 266.304 155.968 268.182 157.721C267.64 158.18 267.097 158.639 266.555 159.098C266.054 159.557 265.553 159.995 265.052 160.413C264.509 160.872 263.967 161.31 263.424 161.728C262.923 162.187 262.423 162.646 261.922 163.105C259.376 160.601 257.038 157.742 254.91 154.528C252.823 151.272 251.028 147.891 249.526 144.385C248.649 147.766 247.585 151.084 246.333 154.34C245.122 157.554 243.703 160.622 242.075 163.543ZM275.883 138.688H260.607V130.737H275.883V111.078H284.147V165.171H275.883V138.688ZM339.826 111.955V119.53H308.335V111.955H339.826ZM341.892 155.342V162.792H307.771V155.342H312.279V124.289H320.23V155.342H324.926L328.62 124.289H336.571L332.877 155.342H341.892ZM355.102 111.078V165.171H346.838V111.078H355.102ZM373.521 134.869H412.275V142.57H365.194V111.955H411.711V119.593H373.521V134.869ZM414.341 155.467V163.105H362.565V155.467H414.341ZM467.694 146.577V165.734H459.43V154.027H422.116V146.577H467.694ZM467.694 111.078V144.198H459.805V130.862H455.11V144.198H447.409V111.329H455.11V123.663H459.805V111.078H467.694ZM443.402 111.955V142.319H420.926V111.955H428.564V120.407H435.764V111.955H443.402ZM428.564 135.433H435.764V127.231H428.564V135.433ZM517.55 147.265V160.726H509.224V147.829C509.224 146.201 508.911 144.949 508.285 144.072C507.659 143.196 506.657 142.591 505.279 142.257H498.768V160.726H490.504V113.145H504.027C508.535 113.145 512.104 114.376 514.733 116.838C517.404 119.301 518.74 122.661 518.74 126.918C518.74 129.881 518.093 132.386 516.799 134.431C515.547 136.476 513.919 137.937 511.916 138.813C513.711 139.481 515.088 140.566 516.048 142.069C517.05 143.572 517.55 145.304 517.55 147.265ZM503.401 120.783H498.768V134.619H503.401C505.446 134.619 507.116 133.993 508.41 132.741C509.745 131.447 510.413 129.61 510.413 127.231C510.413 125.061 509.787 123.454 508.535 122.41C507.325 121.325 505.613 120.783 503.401 120.783ZM523.322 113.145H547.989V120.783H531.586V132.24H546.236V139.878H531.586V153.15H549.179V160.726H523.322V113.145ZM582.616 128.608C582.616 133.534 581.322 137.332 578.735 140.003C576.147 142.674 572.349 144.01 567.34 144.01H562.081V160.726H553.817V113.145H567.34C572.349 113.145 576.147 114.501 578.735 117.214C581.322 119.885 582.616 123.683 582.616 128.608ZM574.352 128.608C574.352 125.729 573.663 123.704 572.286 122.536C570.95 121.367 569.093 120.783 566.714 120.783H562.081V136.372H566.714C569.093 136.372 570.95 135.808 572.286 134.681C573.663 133.513 574.352 131.488 574.352 128.608ZM607.672 147.265V126.668C607.672 124.456 607.088 122.828 605.919 121.784C604.792 120.699 603.144 120.157 600.973 120.157C598.72 120.157 597.029 120.699 595.902 121.784C594.817 122.828 594.274 124.456 594.274 126.668V147.265C594.274 149.477 594.817 151.105 595.902 152.149C597.029 153.192 598.72 153.714 600.973 153.714C603.144 153.714 604.792 153.192 605.919 152.149C607.088 151.105 607.672 149.477 607.672 147.265ZM615.999 126.042V147.829C615.999 152.086 614.664 155.383 611.992 157.721C609.321 160.1 605.648 161.289 600.973 161.289C596.215 161.289 592.521 160.1 589.892 157.721C587.262 155.383 585.948 152.086 585.948 147.829V126.042C585.948 121.784 587.262 118.466 589.892 116.087C592.521 113.708 596.215 112.518 600.973 112.518C605.648 112.518 609.321 113.708 611.992 116.087C614.664 118.466 615.999 121.784 615.999 126.042ZM648.211 147.265V160.726H639.884V147.829C639.884 146.201 639.571 144.949 638.945 144.072C638.319 143.196 637.318 142.591 635.94 142.257H629.429V160.726H621.165V113.145H634.688C639.196 113.145 642.764 114.376 645.394 116.838C648.065 119.301 649.401 122.661 649.401 126.918C649.401 129.881 648.754 132.386 647.46 134.431C646.208 136.476 644.58 137.937 642.576 138.813C644.371 139.481 645.749 140.566 646.709 142.069C647.71 143.572 648.211 145.304 648.211 147.265ZM634.062 120.783H629.429V134.619H634.062C636.107 134.619 637.777 133.993 639.07 132.741C640.406 131.447 641.074 129.61 641.074 127.231C641.074 125.061 640.448 123.454 639.196 122.41C637.985 121.325 636.274 120.783 634.062 120.783ZM679.088 120.783H669.134V161.039H660.807V120.783H651.416V113.145H679.088V120.783Z" fill="white"/>
<rect x="406.332" y="213.093" width="11.041" height="243.906" fill="url(#paint0_linear_13485_8727)"/>
<g filter="url(#filter0_d_13485_8727)">
<path d="M578.747 273.902C578.478 276.49 576.161 278.37 573.573 278.1L248.711 246.029C247.394 245.892 246.196 245.207 245.41 244.141L219.337 208.82C217.891 206.86 218.176 204.121 219.996 202.502L252.795 173.32C253.785 172.44 255.099 172.017 256.416 172.154L581.277 204.224C583.865 204.494 585.744 206.811 585.474 209.399L578.747 273.902Z" fill="url(#paint1_linear_13485_8727)"/>
</g>
<path fill-rule="evenodd" clip-rule="evenodd" d="M532.236 226.56C527.351 226.05 522.978 229.597 522.468 234.482C521.99 239.068 525.087 243.203 529.509 244.114L528.925 249.716C528.899 249.969 529.178 250.139 529.39 249.999L537.071 244.947L544.543 245.726C549.428 246.235 553.801 242.688 554.311 237.803C554.82 232.918 551.273 228.545 546.388 228.036L532.236 226.56Z" fill="white"/>
<circle cx="531.188" cy="235.533" r="1.80671" transform="rotate(5.95374 531.188 235.533)" fill="#38EDF3"/>
<circle cx="538.371" cy="236.283" r="1.80671" transform="rotate(5.95374 538.371 236.283)" fill="#38EDF3"/>
<circle cx="545.559" cy="237.032" r="1.80671" transform="rotate(5.95374 545.559 237.032)" fill="#38EDF3"/>
<path d="M267.929 204.471C267.896 204.534 267.862 204.598 267.828 204.662C267.808 204.727 267.782 204.785 267.75 204.835C267.716 204.899 267.683 204.963 267.649 205.027C267.616 205.09 267.589 205.148 267.57 205.2C268.111 205.822 268.771 206.395 269.551 206.92C270.33 207.446 271.165 207.896 272.054 208.271C271.915 208.445 271.782 208.62 271.656 208.795C271.532 208.957 271.407 209.119 271.283 209.281C271.158 209.443 271.033 209.611 270.907 209.787C270.782 209.948 270.664 210.111 270.553 210.274C269.744 209.907 268.95 209.455 268.172 208.916C267.409 208.365 266.738 207.764 266.16 207.112C265.555 207.748 264.873 208.289 264.114 208.735C263.369 209.169 262.591 209.471 261.779 209.642C261.661 209.482 261.544 209.315 261.427 209.141C261.311 208.967 261.194 208.794 261.078 208.62C260.975 208.448 260.865 208.275 260.749 208.101C260.632 207.928 260.516 207.754 260.399 207.581C261.515 207.334 262.48 206.916 263.295 206.328C264.124 205.729 264.764 205.015 265.214 204.187L261.6 203.81L261.837 201.534L265.431 201.909L265.627 200.032L268.302 200.311L268.107 202.188L271.82 202.575L271.583 204.852L267.929 204.471ZM272.444 218.848L274.243 201.597L276.879 201.872L275.08 219.123L272.444 218.848ZM260.012 212.647L260.248 210.39L272.127 211.629L271.892 213.886L266.441 213.317L265.935 218.169L263.28 217.892L263.786 213.04L260.012 212.647ZM281.606 206.906C281.539 207.545 281.669 208.103 281.996 208.582C282.336 209.061 282.826 209.334 283.465 209.401C284.104 209.467 284.639 209.301 285.071 208.902C285.516 208.505 285.772 207.986 285.838 207.347C285.904 206.722 285.76 206.169 285.406 205.688C285.066 205.208 284.576 204.935 283.937 204.868C283.298 204.802 282.763 204.968 282.331 205.367C281.913 205.767 281.671 206.28 281.606 206.906ZM278.99 206.633C279.055 206.008 279.229 205.434 279.513 204.912C279.796 204.389 280.165 203.944 280.621 203.574C281.075 203.218 281.6 202.956 282.196 202.79C282.807 202.611 283.465 202.559 284.171 202.632C284.863 202.704 285.489 202.891 286.05 203.191C286.612 203.479 287.078 203.844 287.449 204.286C287.832 204.743 288.108 205.256 288.278 205.826C288.461 206.396 288.519 206.995 288.454 207.62C288.387 208.259 288.205 208.846 287.907 209.38C287.624 209.902 287.249 210.34 286.781 210.695C286.325 211.065 285.793 211.332 285.184 211.497C284.574 211.663 283.924 211.709 283.231 211.637C282.526 211.563 281.892 211.383 281.33 211.096C280.781 210.81 280.322 210.439 279.953 209.983C279.582 209.541 279.311 209.035 279.142 208.466C278.974 207.883 278.923 207.272 278.99 206.633ZM293.81 213.548L293.044 220.895L278.688 219.398L279.454 212.05L282.11 212.327L281.956 213.805L291.04 214.752L291.195 213.275L293.81 213.548ZM281.546 217.536L290.651 218.486L290.82 216.869L281.715 215.919L281.546 217.536ZM294.833 203.744L293.889 212.789L291.254 212.514L291.604 209.16L288.888 208.876L289.142 206.441L291.858 206.724L292.197 203.469L294.833 203.744ZM301.525 209.892L301.602 209.153C301.671 208.487 301.849 207.88 302.135 207.331C302.434 206.784 302.812 206.325 303.267 205.956C303.736 205.588 304.276 205.321 304.885 205.156C305.496 204.977 306.154 204.925 306.859 204.998C307.551 205.071 308.178 205.257 308.738 205.558C309.3 205.845 309.773 206.217 310.156 206.674C310.539 207.131 310.82 207.659 311 208.256C311.18 208.853 311.235 209.485 311.166 210.15L311.089 210.889C311.018 211.568 310.833 212.181 310.534 212.728C310.236 213.262 309.852 213.714 309.383 214.082C308.914 214.45 308.375 214.723 307.764 214.902C307.155 215.067 306.504 215.114 305.812 215.041C305.106 214.968 304.472 214.787 303.91 214.5C303.35 214.199 302.878 213.82 302.495 213.363C302.125 212.908 301.85 212.388 301.669 211.804C301.502 211.208 301.454 210.57 301.525 209.892ZM317.461 206.104L316.129 218.882L313.493 218.608L313.947 214.255L311.271 213.976L311.519 211.6L314.195 211.879L314.397 209.942L311.721 209.663L311.969 207.287L314.644 207.566L314.826 205.829L317.461 206.104ZM316.204 220.868L315.952 223.284L301.317 221.758L301.908 216.087L304.564 216.364L304.224 219.619L316.204 220.868ZM304.218 209.426L304.141 210.164C304.07 210.843 304.196 211.435 304.521 211.94C304.858 212.446 305.366 212.734 306.045 212.805C306.71 212.875 307.261 212.696 307.695 212.271C308.13 211.845 308.382 211.293 308.453 210.614L308.53 209.875C308.601 209.197 308.468 208.604 308.13 208.098C307.793 207.592 307.291 207.304 306.626 207.235C305.947 207.164 305.39 207.341 304.956 207.767C304.534 208.194 304.288 208.747 304.218 209.426ZM334.546 217.271L331.891 216.994L332.576 210.425L320.396 209.155L320.65 206.719L335.485 208.266L334.546 217.271ZM335.268 218.477L335.012 220.933L328.164 220.218L327.687 224.791L324.872 224.497L325.348 219.925L318.5 219.21L318.756 216.755L335.268 218.477ZM347.793 217.058L347.57 219.194L337.427 218.137L338.424 208.573L347.649 209.535L347.426 211.671L340.757 210.976L340.595 212.533L347.084 213.21L346.863 215.326L340.374 214.649L340.205 216.267L347.793 217.058ZM353.368 209.849L352.279 220.291L349.644 220.016L350.733 209.574L353.368 209.849ZM352.208 220.97L351.58 227L337.224 225.503L337.853 219.473L352.208 220.97ZM340.102 223.643L349.167 224.588L349.35 222.831L340.285 221.886L340.102 223.643ZM353.791 228.28C353.736 228.166 353.688 228.047 353.647 227.922C353.605 227.81 353.563 227.698 353.521 227.586C353.478 227.474 353.437 227.355 353.396 227.23C353.354 227.118 353.312 227.005 353.27 226.893C353.784 226.732 354.141 226.473 354.34 226.117C354.538 225.761 354.676 225.21 354.754 224.465L354.858 223.466L357.773 223.77L357.648 224.968C357.532 226.087 357.156 226.915 356.521 227.455C355.885 228.007 354.975 228.282 353.791 228.28ZM374.564 219.668C374.506 220.227 374.339 220.735 374.062 221.19C373.788 221.633 373.433 221.999 372.999 222.29C372.564 222.595 372.057 222.811 371.478 222.939C370.913 223.069 370.304 223.099 369.652 223.031C368.987 222.962 368.391 222.806 367.864 222.562C367.338 222.319 366.893 222.003 366.53 221.616C366.165 221.241 365.894 220.809 365.717 220.32C365.554 219.819 365.501 219.288 365.56 218.729C365.618 218.17 365.778 217.669 366.039 217.225C366.316 216.77 366.671 216.396 367.105 216.105C367.54 215.801 368.04 215.584 368.606 215.454C369.172 215.312 369.788 215.275 370.454 215.344C371.106 215.412 371.695 215.575 372.22 215.831C372.759 216.076 373.211 216.392 373.574 216.78C373.938 217.154 374.209 217.593 374.385 218.096C374.563 218.585 374.623 219.109 374.564 219.668ZM381.16 212.747L379.808 225.705L377.173 225.43L377.493 222.355L374.938 222.089L375.171 219.853L377.726 220.119L377.899 218.462L375.344 218.195L375.577 215.959L378.133 216.226L378.524 212.472L381.16 212.747ZM380.002 227.522L379.75 229.938L365.015 228.401L365.552 223.25L368.208 223.527L367.923 226.262L380.002 227.522ZM376.014 213.119L375.789 215.275L365.367 214.188L365.592 212.032L369.386 212.427L369.548 210.87L372.203 211.147L372.041 212.704L376.014 213.119ZM372.029 219.404C372.08 218.911 371.945 218.467 371.623 218.07C371.314 217.674 370.854 217.445 370.241 217.381C369.602 217.314 369.098 217.443 368.728 217.768C368.357 218.093 368.147 218.501 368.095 218.994C368.044 219.486 368.167 219.923 368.463 220.304C368.761 220.671 369.23 220.888 369.869 220.955C370.481 221.019 370.978 220.902 371.358 220.606C371.754 220.297 371.977 219.896 372.029 219.404ZM384.169 213.343L393.533 214.32L393.298 216.576L389.884 216.22C389.813 216.509 389.737 216.79 389.654 217.064C389.585 217.339 389.503 217.613 389.407 217.886C389.854 218.767 390.457 219.63 391.216 220.476C391.99 221.311 392.811 222.022 393.678 222.61C393.515 222.755 393.352 222.899 393.189 223.044C393.04 223.176 392.892 223.309 392.743 223.441C392.58 223.586 392.424 223.731 392.274 223.877C392.126 224.009 391.977 224.142 391.829 224.274C391.116 223.756 390.438 223.167 389.793 222.508C389.163 221.837 388.611 221.133 388.136 220.397C387.627 221.152 387.052 221.825 386.412 222.418C385.773 222.997 385.082 223.49 384.34 223.897C384.181 223.746 384.022 223.595 383.863 223.444C383.703 223.292 383.552 223.135 383.407 222.972C383.248 222.821 383.089 222.67 382.93 222.519C382.784 222.369 382.639 222.213 382.494 222.049C383.683 221.487 384.689 220.684 385.511 219.639C386.333 218.595 386.919 217.364 387.268 215.947L383.934 215.6L384.169 213.343ZM397.932 225.94L397.295 232.05L394.66 231.775L395.049 228.041L383.149 226.8L383.397 224.424L397.932 225.94ZM399.113 214.619L398.022 225.082L395.386 224.807L396.477 214.344L399.113 214.619ZM402.123 215.216L411.706 216.215L411.454 218.631L407.681 218.238C407.575 218.994 407.458 219.728 407.33 220.441C407.202 221.155 407.049 221.845 406.872 222.513C407.237 224.044 407.78 225.548 408.5 227.022C409.235 228.498 410.127 229.809 411.178 230.955C410.99 231.083 410.803 231.205 410.616 231.32C410.427 231.448 410.246 231.571 410.073 231.687C409.884 231.815 409.697 231.937 409.51 232.052C409.322 232.181 409.141 232.303 408.967 232.419C408.249 231.564 407.601 230.615 407.023 229.573C406.446 228.53 405.952 227.463 405.541 226.37C405.085 227.386 404.56 228.354 403.967 229.274C403.387 230.182 402.733 231.036 402.004 231.835C401.626 231.593 401.248 231.345 400.871 231.091C400.507 230.837 400.144 230.578 399.781 230.311C401.333 228.589 402.522 226.742 403.346 224.769C404.171 222.796 404.737 220.528 405.045 217.963L401.871 217.632L402.123 215.216ZM415.766 225.479L414.908 233.705L412.253 233.428L414.052 216.177L416.707 216.454L416.03 222.943L418.267 223.176L418.002 225.712L415.766 225.479ZM434.794 218.623L434.542 221.039L424.499 219.992L424.751 217.576L434.794 218.623ZM434.01 232.528L433.762 234.904L422.881 233.77L423.129 231.394L424.566 231.543L425.599 221.64L428.135 221.905L427.102 231.808L428.599 231.964L430.81 222.184L433.346 222.448L431.135 232.229L434.01 232.528ZM439.695 218.852L437.896 236.102L435.261 235.828L437.06 218.577L439.695 218.852ZM444.778 227.051L457.137 228.34L456.881 230.796L441.866 229.23L442.884 219.467L457.719 221.014L457.465 223.45L445.286 222.18L444.778 227.051ZM457.111 234.978L456.857 237.414L440.345 235.692L440.599 233.256L457.111 234.978ZM474.422 233.917L473.784 240.027L471.149 239.752L471.538 236.018L459.638 234.777L459.886 232.401L474.422 233.917ZM475.602 222.596L474.501 233.158L471.985 232.896L472.429 228.643L470.931 228.487L470.488 232.74L468.032 232.484L469.125 222.001L471.581 222.258L471.171 226.191L472.668 226.347L473.087 222.334L475.602 222.596ZM467.826 222.068L466.816 231.751L459.648 231.004L460.658 221.32L463.094 221.574L462.813 224.27L465.109 224.509L465.39 221.814L467.826 222.068ZM462.313 229.062L464.609 229.301L464.882 226.686L462.586 226.446L462.313 229.062ZM493.018 238.723L492.764 241.158L476.252 239.436L476.506 237.001L493.018 238.723ZM487.463 233.925L482.951 233.454C482.099 233.365 481.346 233.166 480.692 232.855C480.04 232.532 479.497 232.125 479.063 231.636C478.63 231.147 478.312 230.582 478.11 229.942C477.921 229.303 477.864 228.618 477.941 227.886C478.016 227.167 478.212 226.515 478.528 225.929C478.858 225.344 479.286 224.857 479.811 224.468C480.336 224.079 480.951 223.793 481.656 223.611C482.361 223.429 483.14 223.382 483.992 223.471L488.504 223.942C489.343 224.029 490.088 224.235 490.741 224.558C491.393 224.882 491.936 225.289 492.37 225.778C492.803 226.267 493.121 226.832 493.323 227.472C493.526 228.112 493.589 228.791 493.514 229.51C493.438 230.242 493.235 230.901 492.905 231.485C492.575 232.07 492.147 232.557 491.622 232.946C491.097 233.335 490.482 233.621 489.777 233.803C489.073 233.972 488.302 234.012 487.463 233.925ZM483.245 231.023L487.657 231.483C488.509 231.572 489.22 231.403 489.789 230.978C490.373 230.541 490.703 229.957 490.779 229.225C490.854 228.506 490.651 227.873 490.17 227.325C489.702 226.778 489.042 226.46 488.19 226.371L483.778 225.911C482.913 225.821 482.195 225.995 481.624 226.433C481.067 226.873 480.751 227.452 480.676 228.171C480.6 228.903 480.789 229.542 481.243 230.087C481.712 230.621 482.38 230.932 483.245 231.023ZM510.873 235.155L510.633 237.451L495.619 235.885L496.306 229.297L508.485 230.567L508.685 228.65L496.506 227.38L496.745 225.084L511.58 226.631L510.905 233.1L498.726 231.83L498.514 233.866L510.873 235.155ZM510.969 240.615L510.717 243.031L494.205 241.309L494.457 238.893L501.286 239.605L501.538 237.189L504.333 237.481L504.081 239.896L510.969 240.615Z" fill="#0E3436"/>
<rect x="431.785" y="176.473" width="146.343" height="24.1889" rx="12.0944" transform="rotate(5.95374 431.785 176.473)" fill="#FF9100"/>
<path d="M443.885 190.265L443.75 191.564C443.679 192.238 443.4 192.736 442.913 193.058C442.425 193.388 441.743 193.508 440.869 193.416C439.987 193.324 439.341 193.067 438.931 192.643C438.529 192.228 438.362 191.684 438.433 191.01L438.507 190.3L440.107 190.467L440.05 191.008C440.018 191.321 440.087 191.551 440.258 191.699C440.43 191.838 440.684 191.926 441.021 191.961C441.358 191.996 441.625 191.963 441.822 191.862C442.019 191.753 442.135 191.542 442.167 191.229L442.274 190.207C442.303 189.926 442.245 189.709 442.099 189.556C441.953 189.395 441.724 189.298 441.411 189.266L440.401 189.16L440.555 187.681L441.518 187.781C441.782 187.809 441.993 187.766 442.151 187.652C442.31 187.531 442.402 187.342 442.429 187.086L442.501 186.4C442.527 186.151 442.467 185.951 442.32 185.797C442.175 185.636 441.954 185.54 441.657 185.509C441.361 185.478 441.124 185.527 440.949 185.654C440.782 185.775 440.686 185.959 440.66 186.208L440.625 186.545L439.037 186.379L439.096 185.814C439.166 185.14 439.452 184.659 439.952 184.371C440.453 184.075 441.073 183.965 441.81 184.042C442.54 184.118 443.124 184.353 443.561 184.747C444.007 185.134 444.195 185.665 444.124 186.338L444.024 187.301C443.988 187.645 443.873 187.933 443.679 188.164C443.493 188.388 443.258 188.546 442.973 188.638C443.323 188.78 443.572 188.996 443.72 189.287C443.868 189.578 443.923 189.904 443.885 190.265ZM444.226 195.092C444.192 195.024 444.163 194.952 444.139 194.876C444.113 194.809 444.088 194.741 444.063 194.674C444.037 194.606 444.012 194.535 443.988 194.459C443.962 194.392 443.937 194.324 443.912 194.257C444.222 194.159 444.437 194.003 444.556 193.789C444.676 193.574 444.759 193.242 444.806 192.793L444.869 192.192L446.625 192.375L446.55 193.097C446.479 193.77 446.253 194.27 445.871 194.595C445.487 194.928 444.939 195.093 444.226 195.092ZM451.274 192.057L451.745 187.534C451.777 187.23 451.713 186.984 451.555 186.797C451.404 186.611 451.184 186.503 450.895 186.473C450.591 186.441 450.345 186.501 450.159 186.651C449.981 186.803 449.876 187.031 449.845 187.336L449.373 191.859C449.34 192.172 449.395 192.421 449.538 192.606C449.69 192.784 449.918 192.889 450.223 192.921C450.512 192.951 450.749 192.894 450.934 192.751C451.128 192.601 451.241 192.37 451.274 192.057ZM453.344 187.592L452.849 192.343C452.776 193.041 452.497 193.575 452.013 193.946C451.536 194.318 450.889 194.461 450.071 194.376C449.245 194.29 448.633 194.015 448.236 193.552C447.846 193.09 447.688 192.51 447.761 191.813L448.256 187.061C448.33 186.355 448.605 185.816 449.081 185.445C449.567 185.066 450.222 184.919 451.048 185.005C451.866 185.091 452.47 185.368 452.858 185.839C453.256 186.302 453.418 186.886 453.344 187.592ZM457.25 192.681L457.722 188.158C457.754 187.853 457.69 187.607 457.531 187.42C457.38 187.234 457.161 187.126 456.872 187.096C456.567 187.064 456.322 187.124 456.136 187.275C455.958 187.426 455.853 187.655 455.821 187.959L455.35 192.482C455.317 192.795 455.372 193.044 455.515 193.229C455.667 193.407 455.895 193.512 456.2 193.544C456.488 193.574 456.725 193.518 456.91 193.375C457.104 193.225 457.218 192.993 457.25 192.681ZM459.321 188.215L458.826 192.966C458.753 193.664 458.474 194.199 457.99 194.57C457.513 194.941 456.866 195.085 456.048 194.999C455.222 194.913 454.61 194.639 454.212 194.176C453.823 193.713 453.664 193.133 453.737 192.436L454.233 187.684C454.306 186.979 454.581 186.44 455.058 186.068C455.543 185.689 456.199 185.542 457.025 185.629C457.843 185.714 458.446 185.992 458.835 186.462C459.233 186.925 459.395 187.509 459.321 188.215ZM463.227 193.304L463.699 188.781C463.73 188.476 463.667 188.23 463.508 188.044C463.357 187.858 463.137 187.75 462.849 187.719C462.544 187.688 462.299 187.747 462.113 187.898C461.935 188.05 461.83 188.278 461.798 188.583L461.326 193.106C461.294 193.418 461.349 193.667 461.492 193.852C461.643 194.03 461.871 194.135 462.176 194.167C462.465 194.197 462.702 194.141 462.887 193.998C463.081 193.848 463.194 193.617 463.227 193.304ZM465.298 188.838L464.802 193.59C464.729 194.287 464.451 194.822 463.966 195.193C463.49 195.565 462.842 195.708 462.024 195.623C461.198 195.536 460.587 195.262 460.189 194.799C459.799 194.337 459.641 193.757 459.714 193.059L460.209 188.308C460.283 187.602 460.558 187.063 461.035 186.691C461.52 186.312 462.176 186.166 463.002 186.252C463.82 186.337 464.423 186.615 464.812 187.085C465.209 187.548 465.371 188.133 465.298 188.838ZM472.194 197.547L468.634 197.175C467.792 197.087 467.145 196.834 466.695 196.414C466.252 195.995 466.067 195.44 466.138 194.751C466.204 194.125 466.498 193.637 467.021 193.286C467.552 192.936 468.238 192.805 469.08 192.893L472.641 193.264C473.467 193.35 474.104 193.619 474.551 194.071C474.998 194.523 475.19 195.062 475.124 195.688C475.052 196.377 474.753 196.881 474.225 197.199C473.697 197.517 473.02 197.633 472.194 197.547ZM472.081 187.089L471.539 192.286L466.282 191.738L466.824 186.541L472.081 187.089ZM468.774 195.828L472.058 196.17C472.467 196.213 472.799 196.183 473.053 196.08C473.314 195.985 473.459 195.798 473.488 195.517C473.518 195.236 473.414 195.023 473.178 194.877C472.951 194.723 472.633 194.625 472.224 194.583L469.192 194.266C468.8 194.226 468.472 194.252 468.211 194.347C467.95 194.441 467.805 194.632 467.774 194.921C467.749 195.162 467.826 195.364 468.003 195.529C468.18 195.693 468.437 195.793 468.774 195.828ZM474.143 188.07L474.24 187.144L475.828 187.31L475.203 193.3L473.615 193.135L473.757 191.775L472.073 191.6L472.22 190.192L473.904 190.368L473.997 189.478L472.312 189.302L472.459 187.895L474.143 188.07ZM467.948 190.574L470.149 190.803L470.414 188.265L468.213 188.036L467.948 190.574ZM483.457 191.133C483.412 191.566 483.294 191.959 483.103 192.312C482.92 192.666 482.679 192.961 482.378 193.197C482.078 193.434 481.728 193.608 481.327 193.72C480.927 193.824 480.494 193.852 480.029 193.804C479.548 193.753 479.122 193.636 478.752 193.452C478.391 193.26 478.088 193.018 477.843 192.725C477.606 192.432 477.435 192.094 477.329 191.71C477.223 191.326 477.193 190.918 477.238 190.485C477.282 190.06 477.395 189.674 477.577 189.328C477.76 188.975 477.998 188.675 478.291 188.43C478.591 188.194 478.938 188.019 479.331 187.906C479.732 187.794 480.173 187.763 480.654 187.813C481.119 187.862 481.536 187.982 481.905 188.175C482.274 188.367 482.581 188.61 482.826 188.903C483.07 189.204 483.245 189.547 483.351 189.931C483.466 190.307 483.501 190.708 483.457 191.133ZM481.905 190.971C481.954 190.506 481.854 190.103 481.606 189.761C481.359 189.411 480.994 189.211 480.513 189.16C480.032 189.11 479.634 189.231 479.32 189.522C479.007 189.806 478.826 190.18 478.778 190.645C478.728 191.118 478.828 191.526 479.076 191.868C479.324 192.21 479.688 192.406 480.17 192.456C480.651 192.507 481.048 192.39 481.361 192.106C481.675 191.823 481.856 191.445 481.905 190.971ZM483.973 198.665L485.056 188.272L486.644 188.438L485.56 198.831L483.973 198.665ZM476.219 197.456L476.371 196L483.48 196.741L483.328 198.197L476.219 197.456ZM494.52 197.844L494.369 199.288L490.255 198.859L491.274 189.091L495.16 189.496L495.008 190.952L492.722 190.713L492.006 197.582L494.52 197.844ZM497.758 189.646L496.692 199.87L495.116 199.706L495.607 195.003L493.598 194.793L493.757 193.265L495.766 193.475L496.183 189.481L497.758 189.646ZM499.194 200.253L497.606 200.087L498.69 189.694L500.278 189.86L499.194 200.253ZM511.094 190.988L510.01 201.381L508.422 201.215L509.506 190.822L511.094 190.988ZM503.191 193.422L502.809 197.091C502.748 197.677 502.815 198.121 503.01 198.426C503.206 198.722 503.517 198.892 503.942 198.936C504.367 198.981 504.706 198.878 504.959 198.629C505.221 198.372 505.382 197.951 505.443 197.366L505.826 193.697C505.886 193.12 505.815 192.679 505.611 192.374C505.416 192.07 505.106 191.895 504.681 191.851C504.256 191.807 503.916 191.913 503.663 192.17C503.409 192.428 503.252 192.845 503.191 193.422ZM501.281 196.932L501.664 193.263C501.771 192.237 502.109 191.477 502.68 190.986C503.258 190.495 503.976 190.294 504.834 190.383C505.7 190.474 506.365 190.819 506.83 191.418C507.294 192.018 507.473 192.831 507.366 193.858L506.983 197.527C506.876 198.553 506.534 199.308 505.956 199.791C505.379 200.274 504.657 200.47 503.791 200.38C502.933 200.29 502.272 199.95 501.806 199.358C501.349 198.767 501.174 197.958 501.281 196.932ZM517.434 201.693L511.889 201.115L512.907 191.347L517.972 191.875L517.82 193.331L514.355 192.969L514.096 195.459L517.452 195.809L517.3 197.265L513.944 196.915L513.639 199.838L517.585 200.25L517.434 201.693ZM519.743 197.508L517.77 197.302L517.93 195.774L519.902 195.98L520.323 191.95L521.911 192.116L520.827 202.509L519.239 202.343L519.743 197.508ZM522.858 196.933L532.806 197.97L532.687 199.113L522.738 198.075L522.858 196.933ZM531.932 202.5L531.818 203.594L522.772 202.651L523.043 200.053L530.381 200.818L530.423 200.409L523.086 199.644L523.201 198.537L532.139 199.469L531.868 202.067L524.53 201.302L524.486 201.723L531.932 202.5ZM532.563 196.449L532.449 197.544L523.403 196.6L523.674 194.002L531.012 194.767L531.054 194.358L523.717 193.593L523.832 192.486L532.77 193.418L532.497 196.029L525.16 195.264L525.117 195.672L532.563 196.449ZM546.403 194.84L545.743 201.168L536.805 200.235L537.465 193.908L539.065 194.075L538.884 195.807L544.622 196.406L544.803 194.673L546.403 194.84ZM546.036 203.253L545.883 204.721L535.935 203.683L536.088 202.216L540.202 202.645L540.368 201.057L542.052 201.233L541.886 202.82L546.036 203.253ZM538.556 198.959L544.294 199.557L544.471 197.861L538.733 197.263L538.556 198.959ZM553.751 200.775L550.696 200.456C550.215 200.406 549.784 200.3 549.403 200.139C549.024 199.969 548.71 199.754 548.461 199.493C548.213 199.232 548.029 198.933 547.91 198.597C547.8 198.261 547.765 197.893 547.807 197.492C547.89 196.698 548.241 196.09 548.86 195.668C549.489 195.239 550.284 195.075 551.246 195.175L554.302 195.494C554.775 195.543 555.197 195.652 555.569 195.82C555.949 195.99 556.267 196.205 556.523 196.467C556.771 196.728 556.955 197.031 557.073 197.376C557.192 197.712 557.231 198.077 557.19 198.47C557.148 198.871 557.034 199.224 556.848 199.529C556.662 199.834 556.421 200.088 556.124 200.292C555.819 200.496 555.463 200.641 555.057 200.728C554.66 200.808 554.224 200.824 553.751 200.775ZM550.872 199.003L553.867 199.315C554.348 199.365 554.736 199.3 555.03 199.12C555.333 198.941 555.503 198.667 555.542 198.298C555.579 197.937 555.469 197.634 555.211 197.388C554.962 197.135 554.596 196.984 554.115 196.933L551.12 196.621C550.639 196.571 550.25 196.644 549.954 196.84C549.659 197.028 549.492 197.303 549.455 197.663C549.416 198.032 549.523 198.335 549.773 198.572C550.024 198.809 550.39 198.953 550.872 199.003ZM557.076 202.24L556.923 203.708L554.794 203.486L554.518 206.132L552.918 205.965L553.194 203.319L550.704 203.059L550.428 205.705L548.84 205.54L549.116 202.893L546.975 202.67L547.128 201.203L557.076 202.24ZM564.02 201.092C563.985 201.428 563.884 201.734 563.718 202.008C563.552 202.275 563.338 202.496 563.077 202.671C562.815 202.855 562.509 202.985 562.161 203.062C561.82 203.14 561.453 203.159 561.061 203.118C560.66 203.076 560.301 202.982 559.983 202.835C559.666 202.688 559.398 202.498 559.18 202.265C558.96 202.039 558.796 201.779 558.689 201.484C558.591 201.182 558.56 200.863 558.595 200.526C558.63 200.189 558.726 199.887 558.884 199.62C559.05 199.345 559.264 199.12 559.526 198.945C559.788 198.761 560.09 198.631 560.43 198.553C560.771 198.467 561.143 198.445 561.544 198.486C561.936 198.527 562.291 198.625 562.607 198.78C562.932 198.927 563.204 199.118 563.423 199.351C563.643 199.577 563.806 199.841 563.912 200.144C564.019 200.439 564.055 200.755 564.02 201.092ZM567.068 205.799L566.916 207.255L558.159 206.341L558.482 203.238L560.07 203.403L559.898 205.051L567.068 205.799ZM568.816 199.999L568.658 201.514L567.31 201.374L566.963 204.706L565.363 204.539L566.177 196.732L567.777 196.899L567.468 199.858L568.816 199.999ZM564.894 197.146L564.758 198.445L558.479 197.79L558.614 196.491L560.9 196.729L560.998 195.791L562.598 195.958L562.5 196.896L564.894 197.146ZM562.492 200.932C562.523 200.635 562.442 200.368 562.248 200.128C562.062 199.89 561.784 199.752 561.416 199.713C561.031 199.673 560.727 199.751 560.504 199.947C560.28 200.142 560.153 200.388 560.123 200.685C560.092 200.982 560.165 201.245 560.344 201.474C560.524 201.696 560.806 201.826 561.191 201.867C561.56 201.905 561.859 201.835 562.088 201.656C562.327 201.47 562.461 201.229 562.492 200.932Z" fill="white"/>
<g filter="url(#filter1_d_13485_8727)">
<path d="M273.166 298.432C272.891 295.845 274.765 293.524 277.353 293.249L536.164 265.734C537.494 265.593 538.822 266.024 539.815 266.919L575.198 298.795C576.985 300.406 577.272 303.104 575.863 305.054L547.974 343.657C547.19 344.741 545.983 345.441 544.653 345.583L285.842 373.097C283.254 373.373 280.934 371.498 280.659 368.911L273.166 298.432Z" fill="url(#paint2_linear_13485_8727)"/>
<path d="M308.575 338.272C308.352 338.201 308.13 338.131 307.907 338.06C307.697 337.989 307.487 337.91 307.276 337.825C307.067 337.753 306.857 337.681 306.647 337.609C306.438 337.537 306.228 337.458 306.017 337.373C307.051 334.948 307.668 332.4 307.869 329.727C308.069 327.054 308.024 324.354 307.734 321.626L310.389 321.344C310.491 322.302 310.567 323.269 310.617 324.247C310.667 325.224 310.684 326.204 310.667 327.189C310.967 327.978 311.326 328.767 311.747 329.557C312.166 330.333 312.635 331.077 313.155 331.789C313.663 332.516 314.213 333.198 314.806 333.835C315.412 334.47 316.044 335.035 316.702 335.531C316.545 335.695 316.387 335.86 316.23 336.025C316.086 336.188 315.941 336.345 315.795 336.495C315.638 336.66 315.48 336.818 315.321 336.969C315.177 337.133 315.033 337.296 314.888 337.46C313.992 336.747 313.15 335.915 312.362 334.962C311.586 333.995 310.899 332.978 310.301 331.911C310.136 333.019 309.91 334.113 309.621 335.193C309.344 336.259 308.995 337.285 308.575 338.272ZM318.512 329.201L313.642 329.719L313.372 327.184L318.243 326.666L317.576 320.398L320.211 320.118L322.045 337.365L319.41 337.645L318.512 329.201ZM339.256 325.845L339.491 328.061L324.48 329.657L323.849 323.728L336.026 322.434L335.871 320.976L323.694 322.271L323.459 320.055L338.291 318.478L338.912 324.327L326.736 325.622L326.899 327.159L339.256 325.845ZM340.294 329.348L340.551 331.764L337.018 332.139L337.419 335.912L334.764 336.194L334.363 332.422L330.231 332.861L330.632 336.634L327.997 336.914L327.596 333.141L324.042 333.519L323.785 331.103L340.294 329.348ZM361.538 326.303L362.249 332.99L348.076 334.497L347.365 327.809L350 327.529L350.133 328.787L359.036 327.84L358.903 326.583L361.538 326.303ZM351.909 326.882L351.171 326.961C350.572 327.024 350.012 327.01 349.49 326.917C348.982 326.823 348.527 326.649 348.123 326.396C347.721 326.156 347.392 325.848 347.136 325.472C346.893 325.08 346.743 324.625 346.688 324.106C346.636 323.614 346.688 323.157 346.846 322.737C347.015 322.302 347.271 321.924 347.614 321.605C347.955 321.273 348.364 321.007 348.841 320.809C349.33 320.595 349.874 320.457 350.472 320.393L351.211 320.314C351.797 320.252 352.351 320.274 352.873 320.38C353.395 320.473 353.851 320.646 354.241 320.901C354.643 321.141 354.973 321.456 355.23 321.845C355.485 322.222 355.639 322.657 355.691 323.149C355.746 323.668 355.689 324.145 355.52 324.58C355.35 325.002 355.093 325.373 354.75 325.692C354.422 326.023 354.013 326.288 353.523 326.488C353.033 326.689 352.495 326.82 351.909 326.882ZM363.052 319.278L363.319 321.793L361.084 322.031L361.461 325.584L358.806 325.866L357.771 316.125L360.426 315.842L360.816 319.515L363.052 319.278ZM355.813 317.08L356.04 319.216L345.62 320.323L345.393 318.187L349.186 317.784L349.037 316.387L351.692 316.105L351.841 317.502L355.813 317.08ZM350.468 332.123L359.391 331.174L359.253 329.876L350.33 330.825L350.468 332.123ZM350.954 324.924L351.693 324.846C352.145 324.798 352.513 324.651 352.797 324.406C353.079 324.147 353.198 323.818 353.156 323.418C353.118 323.059 352.932 322.769 352.599 322.549C352.266 322.329 351.874 322.243 351.421 322.291L350.683 322.369C350.203 322.42 349.831 322.588 349.565 322.872C349.299 323.156 349.185 323.477 349.224 323.837C349.266 324.236 349.446 324.533 349.762 324.728C350.078 324.91 350.475 324.975 350.954 324.924ZM378.735 313.896L379.815 324.057L377.18 324.337L376.983 322.48L373.33 322.869L373.09 320.613L376.743 320.225L376.558 318.488L373.105 318.855L372.865 316.599L376.318 316.232L376.1 314.176L378.735 313.896ZM363.853 315.761L372.197 314.874L372.35 316.311C372.464 317.389 372.372 318.421 372.073 319.409C371.773 320.383 371.303 321.274 370.662 322.082C370.036 322.903 369.257 323.618 368.326 324.228C367.395 324.839 366.355 325.313 365.207 325.65C364.971 325.325 364.735 325.007 364.5 324.696C364.277 324.369 364.054 324.043 363.831 323.717C364.695 323.491 365.482 323.178 366.194 322.779C366.904 322.367 367.513 321.892 368.021 321.354C368.542 320.814 368.943 320.219 369.224 319.57C369.517 318.907 369.678 318.21 369.708 317.48L364.099 318.076L363.853 315.761ZM379.898 324.835L380.587 331.323L377.952 331.603L377.515 327.491L365.618 328.756L365.365 326.38L379.898 324.835ZM398.594 327.289L398.787 329.105L383.775 330.701L383.317 326.389L395.494 325.095L395.422 324.416L383.245 325.711L383.052 323.894L385.767 323.606L385.684 322.827L382.131 323.205L381.931 321.328L398.44 319.573L398.639 321.45L395.086 321.828L395.169 322.606L397.884 322.317L398.34 326.609L386.163 327.904L386.237 328.602L398.594 327.289ZM388.382 323.328L392.534 322.886L392.451 322.108L388.299 322.549L388.382 323.328ZM397.52 317.188L397.715 319.025L382.704 320.62L382.247 316.329L394.424 315.034L394.354 314.375L382.177 315.67L381.982 313.833L396.814 312.257L397.27 316.548L385.093 317.843L385.163 318.502L397.52 317.188ZM405.541 327.055L405.161 323.482C405.074 322.67 405.124 321.999 405.31 321.467C405.509 320.935 405.885 320.424 406.439 319.934L409.371 317.321C409.665 317.048 409.875 316.743 410.001 316.406C410.14 316.068 410.188 315.7 410.145 315.301C410.083 314.715 409.903 314.283 409.604 314.006C409.319 313.727 408.91 313.615 408.377 313.672C407.832 313.73 407.45 313.932 407.231 314.278C407.012 314.624 406.935 315.104 407 315.716L404.365 315.996C404.205 314.492 404.468 313.361 405.155 312.601C405.853 311.827 406.841 311.372 408.119 311.236C409.383 311.102 410.437 311.333 411.281 311.93C412.138 312.525 412.645 313.555 412.8 315.018C412.898 315.937 412.815 316.74 412.552 317.427C412.3 318.1 411.879 318.69 411.286 319.197L408.475 321.615C408.203 321.846 408.008 322.096 407.888 322.364C407.782 322.631 407.749 322.951 407.789 323.324L407.899 324.362L413.728 323.742L413.985 326.157L405.541 327.055ZM420.936 321.542L420.138 314.037C420.084 313.531 419.896 313.154 419.574 312.905C419.264 312.656 418.87 312.556 418.391 312.607C417.885 312.661 417.508 312.842 417.258 313.152C417.022 313.459 416.93 313.866 416.984 314.372L417.782 321.878C417.837 322.397 418.013 322.782 418.308 323.033C418.616 323.269 419.023 323.361 419.529 323.307C420.008 323.256 420.373 323.083 420.624 322.787C420.887 322.476 420.991 322.061 420.936 321.542ZM422.754 313.577L423.592 321.462C423.715 322.62 423.448 323.583 422.789 324.353C422.144 325.122 421.143 325.578 419.785 325.722C418.415 325.868 417.327 325.634 416.521 325.02C415.729 324.404 415.271 323.517 415.148 322.359L414.31 314.474C414.185 313.303 414.446 312.334 415.091 311.565C415.748 310.782 416.762 310.318 418.132 310.172C419.49 310.028 420.565 310.27 421.359 310.899C422.164 311.513 422.629 312.406 422.754 313.577ZM430.854 320.488L430.056 312.982C430.002 312.476 429.814 312.099 429.492 311.851C429.183 311.601 428.788 311.502 428.309 311.553C427.804 311.607 427.426 311.788 427.176 312.097C426.94 312.405 426.848 312.812 426.902 313.317L427.7 320.823C427.755 321.342 427.931 321.727 428.227 321.978C428.534 322.215 428.941 322.306 429.447 322.253C429.926 322.202 430.291 322.028 430.542 321.732C430.805 321.422 430.909 321.007 430.854 320.488ZM432.672 312.522L433.51 320.407C433.633 321.565 433.366 322.529 432.707 323.299C432.062 324.067 431.061 324.524 429.704 324.668C428.333 324.814 427.245 324.579 426.439 323.965C425.647 323.35 425.189 322.463 425.066 321.305L424.228 313.42C424.103 312.249 424.364 311.279 425.009 310.511C425.666 309.728 426.68 309.263 428.05 309.117C429.408 308.973 430.483 309.215 431.277 309.844C432.082 310.459 432.547 311.351 432.672 312.522ZM442.841 307.747L445.396 307.475L438.964 323.502L436.409 323.773L442.841 307.747ZM437.749 312.649L437.58 311.052C437.55 310.772 437.468 310.572 437.334 310.452C437.199 310.318 437.011 310.264 436.772 310.29C436.506 310.318 436.321 310.412 436.216 310.571C436.124 310.715 436.093 310.927 436.122 311.207L436.292 312.804C436.322 313.083 436.398 313.29 436.52 313.425C436.654 313.546 436.854 313.592 437.12 313.564C437.359 313.538 437.532 313.452 437.638 313.307C437.742 313.148 437.779 312.928 437.749 312.649ZM439.905 310.704L440.093 312.48C440.194 313.425 439.983 314.161 439.46 314.688C438.951 315.213 438.243 315.523 437.339 315.62C436.42 315.717 435.657 315.563 435.048 315.157C434.44 314.75 434.086 314.075 433.985 313.13L433.796 311.353C433.697 310.421 433.902 309.693 434.412 309.168C434.92 308.629 435.633 308.311 436.551 308.214C437.456 308.117 438.214 308.279 438.823 308.699C439.445 309.104 439.806 309.772 439.905 310.704ZM445.744 320.056L445.574 318.459C445.544 318.179 445.462 317.973 445.327 317.839C445.205 317.704 445.017 317.65 444.764 317.677C444.498 317.705 444.32 317.798 444.229 317.956C444.138 318.113 444.107 318.332 444.137 318.611L444.307 320.208C444.336 320.488 444.412 320.695 444.534 320.83C444.655 320.952 444.848 320.999 445.114 320.97C445.367 320.944 445.54 320.858 445.632 320.714C445.736 320.554 445.774 320.335 445.744 320.056ZM447.919 318.108L448.108 319.885C448.207 320.817 447.995 321.546 447.472 322.072C446.95 322.599 446.236 322.91 445.331 323.007C444.413 323.104 443.649 322.95 443.041 322.543C442.432 322.137 442.079 321.468 441.98 320.537L441.791 318.76C441.692 317.828 441.897 317.1 442.406 316.575C442.914 316.036 443.627 315.718 444.546 315.621C445.451 315.524 446.215 315.685 446.838 316.104C447.46 316.509 447.82 317.177 447.919 318.108ZM469.554 316.757L466.899 317.039L465.872 307.378L453.695 308.672L453.436 306.237L468.268 304.66L469.554 316.757ZM470.582 318.445L470.84 320.88L454.332 322.635L454.073 320.2L459.423 319.631L458.654 312.405L461.309 312.122L462.078 319.349L470.582 318.445ZM483.829 320.347L478.279 320.937C476.682 321.107 475.377 320.983 474.364 320.566C473.365 320.161 472.798 319.319 472.662 318.042C472.552 317.004 472.855 316.124 473.573 315.401C474.303 314.678 475.347 314.244 476.705 314.099L482.234 313.512C483.831 313.342 485.132 313.486 486.136 313.945C487.152 314.388 487.725 315.216 487.853 316.427C487.969 317.518 487.667 318.405 486.945 319.087C486.225 319.783 485.186 320.203 483.829 320.347ZM477.223 318.788L483.072 318.167C483.711 318.099 484.227 317.956 484.622 317.739C485.031 317.534 485.209 317.192 485.159 316.713C485.108 316.234 484.86 315.931 484.416 315.803C483.985 315.674 483.45 315.643 482.811 315.711L477.441 316.282C476.829 316.347 476.313 316.49 475.892 316.709C475.471 316.929 475.286 317.278 475.337 317.757C475.378 318.143 475.556 318.427 475.872 318.609C476.201 318.789 476.651 318.849 477.223 318.788ZM479.259 310.214L487.763 309.31L488.005 311.586L471.496 313.341L471.254 311.065L476.604 310.496L476.311 307.742L478.966 307.459L479.259 310.214ZM486.825 308.461L484.17 308.743L483.816 305.41L471.639 306.704L471.386 304.329L486.218 302.752L486.825 308.461ZM510.95 303.272L511.217 305.787L508.981 306.025L509.393 309.897L506.738 310.18L505.698 300.398L508.353 300.116L508.714 303.51L510.95 303.272ZM496.795 301.345L499.45 301.063C499.507 301.595 499.529 302.124 499.518 302.65C499.52 303.175 499.493 303.682 499.437 304.173C500.085 304.952 500.882 305.668 501.826 306.321C502.77 306.974 503.727 307.492 504.696 307.873L503.327 309.997C502.523 309.652 501.723 309.212 500.926 308.678C500.129 308.144 499.407 307.561 498.761 306.93C498.447 307.771 498.046 308.553 497.558 309.278C497.068 309.99 496.497 310.636 495.846 311.217L493.687 309.71C494.898 308.693 495.765 307.477 496.287 306.062C496.808 304.634 496.977 303.062 496.795 301.345ZM506.074 317.982L500.344 318.591C498.947 318.74 497.81 318.551 496.933 318.025C496.071 317.511 495.578 316.675 495.455 315.518C495.345 314.48 495.654 313.585 496.381 312.835C497.122 312.083 498.192 311.633 499.589 311.485L505.318 310.876C506.689 310.73 507.815 310.947 508.698 311.526C509.58 312.105 510.077 312.913 510.187 313.952C510.31 315.109 509.998 316.031 509.25 316.716C508.503 317.414 507.444 317.837 506.074 317.982ZM500.107 316.356L505.836 315.746C506.355 315.691 506.768 315.526 507.075 315.251C507.382 314.976 507.515 314.639 507.472 314.24C507.431 313.854 507.232 313.559 506.874 313.355C506.514 313.137 506.075 313.056 505.556 313.111L499.827 313.721C499.268 313.78 498.842 313.953 498.549 314.24C498.269 314.512 498.149 314.841 498.19 315.227C498.232 315.626 498.419 315.929 498.751 316.136C499.096 316.342 499.548 316.415 500.107 316.356ZM512.764 306.249L511.463 304.267C512.293 304.098 513.075 303.86 513.81 303.553C514.543 303.233 515.209 302.853 515.808 302.412C516.407 301.972 516.919 301.466 517.343 300.896C517.765 300.313 518.073 299.668 518.267 298.961L521.011 299.134C520.952 299.342 520.886 299.544 520.813 299.74C520.752 299.922 520.689 300.097 520.627 300.265C521.621 300.886 522.776 301.369 524.091 301.713C525.42 302.057 526.771 302.229 528.144 302.231L527.393 304.471C525.966 304.475 524.54 304.283 523.112 303.897C521.697 303.495 520.456 302.961 519.389 302.294C518.593 303.294 517.613 304.138 516.448 304.827C515.295 305.502 514.067 305.975 512.764 306.249ZM511.86 307.051L528.369 305.296L528.615 307.612L512.106 309.367L511.86 307.051ZM528.444 312.273C528.559 313.351 528.246 314.212 527.507 314.856C526.768 315.5 525.7 315.896 524.303 316.044L518.114 316.702C516.704 316.852 515.57 316.69 514.712 316.216C513.854 315.742 513.367 314.966 513.253 313.888C513.144 312.863 513.458 312.016 514.194 311.345C514.93 310.675 516.004 310.265 517.414 310.115L523.602 309.457C525 309.308 526.129 309.484 526.99 309.985C527.85 310.486 528.335 311.248 528.444 312.273ZM525.729 312.562C525.694 312.229 525.518 311.972 525.203 311.79C524.901 311.607 524.43 311.549 523.792 311.617L517.663 312.268C517.064 312.332 516.623 312.487 516.34 312.732C516.056 312.978 515.932 313.267 515.968 313.599C516.006 313.959 516.175 314.223 516.476 314.393C516.791 314.575 517.269 314.632 517.907 314.564L524.036 313.913C524.675 313.845 525.122 313.689 525.379 313.447C525.651 313.216 525.767 312.921 525.729 312.562ZM529.491 297.586L532.126 297.306L533.412 309.403L530.777 309.683L529.491 297.586ZM534.157 314.512L531.123 314.835L530.806 311.86L533.841 311.538L534.157 314.512Z" fill="#104328"/>
</g>
</g>
<defs>
<filter id="filter0_d_13485_8727" x="188.306" y="142.017" width="427.306" height="166.221" filterUnits="userSpaceOnUse" color-interpolation-filters="sRGB">
<feFlood flood-opacity="0" result="BackgroundImageFix"/>
<feColorMatrix in="SourceAlpha" type="matrix" values="0 0 0 0 0 0 0 0 0 0 0 0 0 0 0 0 0 0 127 0" result="hardAlpha"/>
<feOffset/>
<feGaussianBlur stdDeviation="15.0559"/>
<feComposite in2="hardAlpha" operator="out"/>
<feColorMatrix type="matrix" values="0 0 0 0 0 0 0 0 0 0 0 0 0 0 0 0 0 0 0.8 0"/>
<feBlend mode="normal" in2="BackgroundImageFix" result="effect1_dropShadow_13485_8727"/>
<feBlend mode="normal" in="SourceGraphic" in2="effect1_dropShadow_13485_8727" result="shape"/>
</filter>
<filter id="filter1_d_13485_8727" x="253.066" y="245.633" width="343.762" height="147.565" filterUnits="userSpaceOnUse" color-interpolation-filters="sRGB">
<feFlood flood-opacity="0" result="BackgroundImageFix"/>
<feColorMatrix in="SourceAlpha" type="matrix" values="0 0 0 0 0 0 0 0 0 0 0 0 0 0 0 0 0 0 127 0" result="hardAlpha"/>
<feOffset/>
<feGaussianBlur stdDeviation="10.0373"/>
<feComposite in2="hardAlpha" operator="out"/>
<feColorMatrix type="matrix" values="0 0 0 0 0 0 0 0 0 0 0 0 0 0 0 0 0 0 0.25 0"/>
<feBlend mode="normal" in2="BackgroundImageFix" result="effect1_dropShadow_13485_8727"/>
<feBlend mode="normal" in="SourceGraphic" in2="effect1_dropShadow_13485_8727" result="shape"/>
</filter>
<linearGradient id="paint0_linear_13485_8727" x1="411.853" y1="213.093" x2="411.853" y2="457" gradientUnits="userSpaceOnUse">
<stop stop-color="#E8F9FD"/>
<stop offset="1" stop-color="#193029"/>
</linearGradient>
<linearGradient id="paint1_linear_13485_8727" x1="218.535" y1="204.638" x2="582.018" y2="242.545" gradientUnits="userSpaceOnUse">
<stop stop-color="#38EDF3"/>
<stop offset="1" stop-color="#00DDFF"/>
</linearGradient>
<linearGradient id="paint2_linear_13485_8727" x1="276.912" y1="333.671" x2="578.34" y2="301.626" gradientUnits="userSpaceOnUse">
<stop stop-color="#00FA76"/>
<stop offset="1" stop-color="#B2FFD6"/>
</linearGradient>
<clipPath id="clip0_13485_8727">
<rect width="800" height="400" fill="white"/>
</clipPath>
</defs>
</svg>
