<svg width="106" height="7" viewBox="0 0 106 7" fill="none" xmlns="http://www.w3.org/2000/svg">
<path id="Vector 27664" d="M2 2L6.47873 5.51538C6.84119 5.79987 7.35112 5.79987 7.71358 5.51538L11.5749 2.48462C11.9373 2.20013 12.4473 2.20013 12.8097 2.48462L16.671 5.51538C17.0335 5.79987 17.5434 5.79987 17.9059 5.51538L21.7672 2.48462C22.1296 2.20013 22.6396 2.20013 23.002 2.48462L26.8633 5.51538C27.2258 5.79987 27.7357 5.79987 28.0982 5.51538L31.9595 2.48462C32.322 2.20013 32.8319 2.20013 33.1944 2.48462L37.0556 5.51538C37.4181 5.79987 37.928 5.79987 38.2905 5.51538L42.1518 2.48462C42.5143 2.20013 43.0242 2.20013 43.3867 2.48462L47.248 5.51538C47.6104 5.79987 48.1204 5.79987 48.4828 5.51538L52.3441 2.48462C52.7066 2.20013 53.2165 2.20013 53.579 2.48462L57.4403 5.51538C57.8027 5.79987 58.3127 5.79987 58.6751 5.51538L62.5364 2.48462C62.8989 2.20013 63.4088 2.20013 63.7713 2.48462L67.6721 5.54637C68.0159 5.81628 68.4953 5.83155 68.8556 5.58406L72.78 2.88882C73.1211 2.65457 73.5712 2.65457 73.9123 2.88882L77.8762 5.61118C78.2172 5.84543 78.6674 5.84543 79.0084 5.61118L82.9723 2.88882C83.3134 2.65457 83.7635 2.65457 84.1046 2.88882L88.0685 5.61118C88.4096 5.84543 88.8597 5.84543 89.2007 5.61118L93.1646 2.88882C93.5057 2.65457 93.9558 2.65457 94.2969 2.88882L98.2608 5.61118C98.6019 5.84543 99.052 5.84543 99.3931 5.61118L103.923 2.5" stroke="#CA60FF" stroke-width="2.4" stroke-linecap="round"/>
</svg>
