<svg width="24" height="24" viewBox="0 0 24 24" fill="none" xmlns="http://www.w3.org/2000/svg">
<path d="M12 12C10.75 12 9.6875 11.5625 8.8125 10.6875C7.9375 9.8125 7.5 8.75 7.5 7.5C7.5 6.25 7.9375 5.1875 8.8125 4.3125C9.6875 3.4375 10.75 3 12 3C13.25 3 14.3125 3.4375 15.1875 4.3125C16.0625 5.1875 16.5 6.25 16.5 7.5C16.5 8.75 16.0625 9.8125 15.1875 10.6875C14.3125 11.5625 13.25 12 12 12ZM4 21C3.44772 21 3 20.5523 3 20V19.275C3 18.75 3.125 18.25 3.375 17.775C3.625 17.3 3.975 16.925 4.425 16.65C5.55 15.975 6.74375 15.4688 8.00625 15.1313C9.26875 14.7938 10.6 14.625 12 14.625C13.4 14.625 14.7313 14.7938 15.9938 15.1313C17.2563 15.4688 18.45 15.975 19.575 16.65C20.025 16.925 20.375 17.3 20.625 17.775C20.875 18.25 21 18.75 21 19.275V20C21 20.5523 20.5523 21 20 21H4Z" stroke="#989BA2"/>
</svg>
