<svg width="158" height="73" viewBox="0 0 158 73" fill="none" xmlns="http://www.w3.org/2000/svg">
<rect x="0.09375" y="32.3965" width="165" height="68" rx="4" transform="rotate(-11 0.09375 32.3965)" fill="white"/>
<path d="M44.074 62.171C45.0471 67.1773 41.8149 70.8312 37.3093 71.707C34.6883 72.2165 31.647 72.1353 29.8908 70.4902C28.8839 69.5551 28.6926 67.942 29.5221 66.8639C30.2035 65.9674 31.3815 65.7384 32.3108 65.8023C32.8989 65.8408 33.4265 66.1967 33.7905 66.3398C34.548 66.6205 35.2662 66.542 36.1497 66.3702C37.6221 66.084 38.5768 64.7065 38.2677 63.1163C37.9357 61.4083 36.1623 60.775 34.2187 61.1528L32.8051 61.4276C31.9511 61.5936 30.9834 61.0177 30.617 60.2332C30.1459 59.2245 30.2097 58.2953 31.0336 57.1877L34.7787 52.2423L28.9773 53.3699C27.2398 53.7077 26.3106 52.5436 26.0874 51.3951C25.8699 50.276 26.3133 48.784 28.0214 48.452L37.1799 46.6717C40.3604 46.0535 42.2891 49.5294 40.6758 51.9211L37.3486 56.8159C40.1152 56.5838 43.3585 58.4899 44.074 62.171ZM55.9289 68.1489C51.276 69.0533 47.1623 67.0718 46.1491 61.8594L44.4719 53.2309C43.4645 48.0479 46.5306 44.6402 51.1835 43.7358C55.8364 42.8314 59.9558 44.8423 60.9633 50.0253L62.6405 58.6538C63.6537 63.8662 60.5818 67.2444 55.9289 68.1489ZM54.9558 63.1426C55.9865 62.9422 57.1678 62.1014 56.8014 60.2166L54.9639 50.7636C54.609 48.9377 53.1873 48.5417 52.1566 48.7421C51.1259 48.9424 49.9561 49.8422 50.311 51.668L52.1485 61.1211C52.5148 63.0058 53.9251 63.3429 54.9558 63.1426ZM74.4343 64.5518C69.7814 65.4562 65.6677 63.4747 64.6545 58.2623L62.9773 49.6338C61.9698 44.4508 65.0359 41.0431 69.6889 40.1387C74.3418 39.2343 78.4612 41.2452 79.4686 46.4282L81.1458 55.0567C82.159 60.2691 79.0872 63.6473 74.4343 64.5518ZM73.4612 59.5455C74.4919 59.3451 75.6731 58.5043 75.3068 56.6196L73.4693 47.1665C73.1144 45.3407 71.6927 44.9447 70.662 45.145C69.6313 45.3454 68.4615 46.2451 68.8164 48.0709L70.6539 57.524C71.0202 59.4087 72.4304 59.7458 73.4612 59.5455ZM92.9396 60.9547C88.2867 61.8591 84.1731 59.8777 83.1599 54.6652L81.4827 46.0367C80.4752 40.8537 83.5413 37.4461 88.1942 36.5416C92.8471 35.6372 96.9665 37.6481 97.974 42.8311L99.6512 51.4596C100.664 56.6721 97.5925 60.0503 92.9396 60.9547ZM91.9665 55.9484C92.9972 55.7481 94.1785 54.9072 93.8121 53.0225L91.9746 43.5694C91.6197 41.7436 90.1981 41.3476 89.1673 41.5479C88.1366 41.7483 86.9668 42.648 87.3217 44.4738L89.1592 53.9269C89.5256 55.8116 90.9358 56.1488 91.9665 55.9484ZM111.445 57.3576C106.792 58.2621 102.678 56.2806 101.665 51.0681L99.988 42.4396C98.9805 37.2566 102.047 33.849 106.7 32.9446C111.352 32.0401 115.472 34.051 116.479 39.234L118.157 47.8625C119.17 53.075 116.098 56.4532 111.445 57.3576ZM110.472 52.3513C111.503 52.151 112.684 51.3101 112.317 49.4254L110.48 39.9723C110.125 38.1465 108.703 37.7505 107.673 37.9509C106.642 38.1512 105.472 39.0509 105.827 40.8768L107.665 50.3298C108.031 52.2146 109.441 52.5517 110.472 52.3513ZM117.615 41.3972C117.443 40.5137 117.76 39.627 119.085 39.3694L120.204 39.1519L118.265 34.211C117.592 32.4775 118.053 31.0739 119.45 30.5578C120.906 30.0303 122.252 30.3494 122.896 32.0885L125.122 38.1959L128.155 37.6063L128.414 31.077C128.477 29.2004 129.922 28.461 131.012 28.2492C132.102 28.0374 133.719 28.1815 134.48 29.8978L137.137 35.8604L140.2 35.2651L139.976 28.7684C139.921 26.9148 141.049 26.1149 142.597 26.0585C144.056 26.0193 145.009 27.1482 145.029 28.9781L145.059 34.3206L146.207 34.0973C147.532 33.8397 148.158 34.5433 148.33 35.4267C148.502 36.3102 148.173 37.291 146.877 37.5429L145.11 37.8863L145.208 47.0358C145.227 48.8657 144.108 50.1834 142.806 50.5588C141.415 50.9514 139.681 50.6772 138.832 48.8252L134.891 39.8726L131.77 40.4794L131.47 50.2563C131.376 52.2915 129.871 53.1953 128.435 53.3523C127.087 53.4921 125.555 52.6895 124.888 50.9855L121.521 42.4714L119.754 42.8149C118.459 43.0668 117.786 42.2806 117.615 41.3972ZM126.322 41.5384L127.876 45.7594L128.03 41.2064L126.322 41.5384ZM138.602 39.1514L140.474 43.28L140.31 38.8194L138.602 39.1514ZM131.985 33.2555L131.866 36.8851L133.426 36.5817L131.985 33.2555Z" fill="currentColor"/>
</svg>
