<svg width="348" height="130" viewBox="0 0 348 130" fill="none" xmlns="http://www.w3.org/2000/svg">
<rect x="0.8125" y="52.6875" width="332" height="108" rx="4" transform="rotate(-11.301 0.8125 52.6875)" fill="white"/>
<path d="M72.9457 103.314C75.2777 114.983 67.7808 123.548 57.2784 125.647C51.1692 126.868 44.0718 126.716 39.9539 122.899C37.593 120.729 37.1269 116.968 39.0492 114.442C40.6283 112.342 43.374 111.793 45.543 111.931C46.9158 112.013 48.1512 112.837 49.0023 113.167C50.7731 113.812 52.448 113.62 54.5073 113.209C57.9394 112.523 60.1501 109.297 59.4094 105.59C58.6138 101.609 54.4681 100.153 49.9377 101.059L46.6428 101.717C44.6522 102.115 42.3873 100.783 41.5227 98.9569C40.4111 96.6093 40.5487 94.4402 42.4573 91.8459L51.1353 80.2607L37.6126 82.9631C33.5627 83.7724 31.3804 81.0676 30.8454 78.3905C30.3241 75.7821 31.3405 72.2953 35.3218 71.4997L56.6697 67.2336C64.0832 65.7521 68.6259 73.8387 64.891 79.4392L57.1877 90.901C63.64 90.3254 71.231 94.7333 72.9457 103.314ZM100.68 117.116C89.8345 119.284 80.2118 114.711 77.7838 102.561L73.7646 82.4486C71.3503 70.3675 78.4627 62.3788 89.3083 60.2115C100.154 58.0441 109.79 62.6857 112.205 74.7668L116.224 94.8792C118.652 107.029 111.526 114.949 100.68 117.116ZM98.3481 105.447C100.751 104.967 103.497 102.991 102.619 98.5974L98.2153 76.5631C97.3648 72.3072 94.0427 71.4006 91.6402 71.8807C89.2377 72.3609 86.5192 74.4746 87.3697 78.7304L91.773 100.765C92.6509 105.158 95.9456 105.927 98.3481 105.447ZM143.815 108.496C132.969 110.664 123.346 106.091 120.918 93.941L116.899 73.8287C114.485 61.7476 121.597 53.7589 132.443 51.5915C143.288 49.4242 152.925 54.0658 155.339 66.1469L159.358 86.2593C161.786 98.409 154.66 106.329 143.815 108.496ZM141.483 96.8271C143.885 96.347 146.631 94.3706 145.753 89.9775L141.35 67.9431C140.499 63.6873 137.177 62.7807 134.775 63.2608C132.372 63.7409 129.654 65.8546 130.504 70.1105L134.908 92.1448C135.785 96.538 139.08 97.3073 141.483 96.8271ZM186.949 99.8765C176.103 102.044 166.481 97.4709 164.053 85.3211L160.034 65.2088C157.619 53.1276 164.732 45.139 175.577 42.9716C186.423 40.8043 196.059 45.4459 198.473 57.527L202.493 77.6393C204.921 89.7891 197.795 97.7091 186.949 99.8765ZM184.617 88.2072C187.02 87.7271 189.765 85.7507 188.888 81.3575L184.484 59.3232C183.634 55.0674 180.312 54.1608 177.909 54.6409C175.507 55.121 172.788 57.2347 173.639 61.4906L178.042 83.5249C178.92 87.918 182.215 88.6873 184.617 88.2072ZM230.083 91.2566C219.238 93.4239 209.615 88.851 207.187 76.7012L203.168 56.5889C200.754 44.5077 207.866 36.5191 218.712 34.3517C229.557 32.1843 239.194 36.826 241.608 48.9071L245.627 69.0194C248.055 81.1692 240.929 89.0892 230.083 91.2566ZM227.752 79.5873C230.154 79.1072 232.9 77.1308 232.022 72.7376L227.619 50.7033C226.768 46.4474 223.446 45.5409 221.044 46.021C218.641 46.5011 215.923 48.6148 216.773 52.8707L221.176 74.905C222.054 79.2981 225.349 80.0674 227.752 79.5873ZM244.284 53.9404C243.872 51.8811 244.6 49.8082 247.689 49.191L250.297 48.6697L245.714 37.1648C244.122 33.1285 245.18 29.8476 248.433 28.6263C251.824 27.3776 254.968 28.1057 256.491 32.1557L261.761 46.3789L268.831 44.966L269.355 29.7278C269.479 25.3486 272.843 23.6056 275.383 23.0981C277.922 22.5905 281.698 22.9069 283.495 26.902L289.767 40.7822L296.906 39.3555L296.304 24.1996C296.154 19.8752 298.776 17.9949 302.387 17.8444C305.791 17.7351 308.028 20.3575 308.096 24.627L308.232 37.0922L310.909 36.5572C313.998 35.9399 315.466 37.5738 315.878 39.6331C316.289 41.6923 315.534 43.9848 312.514 44.5884L308.395 45.4114L308.735 66.7587C308.803 71.0282 306.208 74.1166 303.174 75.0085C299.934 75.9415 295.884 75.3231 293.881 71.0121L284.576 50.1714L277.3 51.6254L276.72 74.4415C276.527 79.1914 273.026 81.3187 269.676 81.7026C266.532 82.0453 262.95 80.1914 261.372 76.2238L253.412 56.3991L249.294 57.2222C246.274 57.8257 244.695 55.9996 244.284 53.9404ZM264.601 54.1632L268.279 63.9931L268.582 53.3676L264.601 54.1632ZM293.225 48.443L297.644 58.0534L297.206 47.6474L293.225 48.443ZM277.715 34.7674L277.48 43.2376L281.118 42.5106L277.715 34.7674Z" fill="currentColor"/>
</svg>
