<svg width="32" height="32" viewBox="0 0 32 32" fill="none" xmlns="http://www.w3.org/2000/svg">
<g clip-path="url(#clip0_20878_17921)">
<path d="M32 16C32 7.16344 24.8366 0 16 0C7.16344 0 0 7.16344 0 16C0 24.8366 7.16344 32 16 32C24.8366 32 32 24.8366 32 16Z" fill="#F16063"/>
<path d="M9 21C10.3807 21 11.5 19.8807 11.5 18.5C11.5 17.1193 10.3807 16 9 16C7.61929 16 6.5 17.1193 6.5 18.5C6.5 19.8807 7.61929 21 9 21Z" fill="#EAC0B3"/>
<path d="M9 20.5H17.5V32.935C17.5 32.935 15.6785 34 13.25 34C10.8215 34 9 32.2615 9 32.2615V20.5Z" fill="#EAC0B3"/>
<path d="M17.4053 26.556C17.4053 29.2485 16.9703 28.9935 14.1388 28.9935C11.3073 28.9935 10.0008 26.811 10.0008 24.1185C10.0008 21.4265 9.89329 19 12.1783 19C18.6398 19.238 17.4053 23.8635 17.4053 26.556Z" fill="#C99688"/>
<path d="M22.9439 18.05C22.9439 22.511 22.2509 27.9965 16.7509 27.9965C11.2509 27.9965 8.71486 22.511 8.71486 18.05C7.50086 12.75 7.75086 6.5 16.0009 6.5C24.2509 6.5 22.9439 13.5885 22.9439 18.05Z" fill="#F5D0C5"/>
<path d="M19 20.5H18.5C18.2239 20.5 18 20.7239 18 21C18 21.2761 18.2239 21.5 18.5 21.5H19C19.2761 21.5 19.5 21.2761 19.5 21C19.5 20.7239 19.2761 20.5 19 20.5Z" fill="#EAC0B3"/>
<path d="M19 30H8C5.51472 30 3.5 32.0147 3.5 34.5V37C3.5 39.4853 5.51472 41.5 8 41.5H19C21.4853 41.5 23.5 39.4853 23.5 37V34.5C23.5 32.0147 21.4853 30 19 30Z" fill="#3633E0"/>
<path d="M8.5 29H18V30.5C18 30.5 15.5 31 13.25 31C11 31 8.5 30.5 8.5 30.5V29Z" fill="#3633E0"/>
<path d="M8.5 29H18V30C18 30 16.5 30.75 13.25 30.75C10 30.75 8.5 30 8.5 30V29Z" fill="#362ABC"/>
<path d="M8.25 29.5C8.25 29.2348 8.35536 28.9804 8.54289 28.7929C8.73043 28.6054 8.98478 28.5 9.25 28.5H17.25C17.5152 28.5 17.7696 28.6054 17.9571 28.7929C18.1446 28.9804 18.25 29.2348 18.25 29.5C18.25 29.5 15.75 30 13.25 30C10.75 30 8.25 29.5 8.25 29.5Z" fill="#3633E0"/>
<path fill-rule="evenodd" clip-rule="evenodd" d="M24 12.499C23.9997 10.1339 23.0685 7.86393 21.4077 6.18005C19.7468 4.49616 17.4899 3.53372 15.125 3.50087C12.7601 3.46802 10.4773 4.3674 8.77036 6.00449C7.06339 7.64159 6.06945 9.88482 6.0035 12.249H6V32.499H11.5V17.2975C12.7425 17.0585 14.89 16.5325 17.604 15.4195C20.336 14.299 22.0405 13.24 22.938 12.601C23.059 13.863 23.017 15.181 22.978 16.406C22.96 16.979 22.9425 17.531 22.9425 18.0485C22.9425 18.2525 22.9385 18.4575 22.93 18.663C23.0455 18.6265 23.1535 18.5865 23.2495 18.543C23.9995 18.201 23.9995 17.7445 23.9995 17.7445V12.499H24ZM7.5 16.499C7.14098 16.7676 6.86113 17.1281 6.69 17.5425C6.47768 18.0553 6.44204 18.6242 6.58869 19.1595C6.73535 19.6948 7.05596 20.1661 7.5 20.499V16.499Z" fill="#1B0B47"/>
<path d="M14.4648 23C14.4648 22.8674 14.5175 22.7402 14.6113 22.6464C14.7051 22.5527 14.8322 22.5 14.9648 22.5H19.5363C19.669 22.5 19.7961 22.5527 19.8899 22.6464C19.9837 22.7402 20.0363 22.8674 20.0363 23C20.0363 23.663 19.773 24.2989 19.3041 24.7678C18.8353 25.2366 18.1994 25.5 17.5363 25.5H16.9648C16.3018 25.5 15.6659 25.2366 15.1971 24.7678C14.7282 24.2989 14.4648 23.663 14.4648 23Z" fill="#66253C"/>
<path fill-rule="evenodd" clip-rule="evenodd" d="M18.3778 25.3541C18.1077 25.4505 17.823 25.4995 17.5363 25.4991H16.9648C16.3191 25.4991 15.6984 25.2493 15.2327 24.8019C14.7671 24.3545 14.4926 23.7443 14.4668 23.0991C14.8488 22.9561 15.4158 22.9726 15.9753 22.9891C16.1533 22.9941 16.3303 22.9991 16.5003 22.9991C17.6053 22.9991 18.5003 23.7826 18.5003 24.7491C18.5003 24.9616 18.4568 25.1656 18.3778 25.3541Z" fill="#B03E67"/>
<path d="M15 22.5H20V23C20 23.1326 19.9473 23.2598 19.8536 23.3536C19.7598 23.4473 19.6326 23.5 19.5 23.5H15.5C15.3674 23.5 15.2402 23.4473 15.1464 23.3536C15.0527 23.2598 15 23.1326 15 23V22.5Z" fill="white"/>
<path d="M16.5 18.75C16.5 18.3358 16.1642 18 15.75 18C15.3358 18 15 18.3358 15 18.75V19.25C15 19.6642 15.3358 20 15.75 20C16.1642 20 16.5 19.6642 16.5 19.25V18.75Z" fill="#1B0B47"/>
<path d="M21.5 18.75C21.5 18.3358 21.1642 18 20.75 18C20.3358 18 20 18.3358 20 18.75V19.25C20 19.6642 20.3358 20 20.75 20C21.1642 20 21.5 19.6642 21.5 19.25V18.75Z" fill="#1B0B47"/>
</g>
<defs>
<clipPath id="clip0_20878_17921">
<rect width="32" height="32" rx="16" fill="white"/>
</clipPath>
</defs>
</svg>
