<svg width="32" height="32" viewBox="0 0 32 32" fill="none" xmlns="http://www.w3.org/2000/svg">
<g clip-path="url(#clip0_20878_17943)">
<path d="M32 16C32 7.16344 24.8366 0 16 0C7.16344 0 0 7.16344 0 16C0 24.8366 7.16344 32 16 32C24.8366 32 32 24.8366 32 16Z" fill="#4C6FFF"/>
<path d="M9 21C10.3807 21 11.5 19.8807 11.5 18.5C11.5 17.1193 10.3807 16 9 16C7.61929 16 6.5 17.1193 6.5 18.5C6.5 19.8807 7.61929 21 9 21Z" fill="#EAC0B3"/>
<path d="M9 20.5H17.5V32.935C17.5 32.935 15.6785 34 13.25 34C10.8215 34 9 32.2615 9 32.2615V20.5Z" fill="#EAC0B3"/>
<path d="M17.4053 26.556C17.4053 29.2485 16.9703 28.9935 14.1388 28.9935C11.3073 28.9935 10.0008 26.811 10.0008 24.1185C10.0008 21.4265 9.89329 19 12.1783 19C18.6398 19.238 17.4053 23.8635 17.4053 26.556Z" fill="#C99688"/>
<path d="M22.9439 18.05C22.9439 22.511 22.2509 27.9965 16.7509 27.9965C11.2509 27.9965 8.71486 22.511 8.71486 18.05C7.50086 12.75 7.75086 6.5 16.0009 6.5C24.2509 6.5 22.9439 13.5885 22.9439 18.05Z" fill="#F5D0C5"/>
<path d="M19 20.5H18.5C18.2239 20.5 18 20.7239 18 21C18 21.2761 18.2239 21.5 18.5 21.5H19C19.2761 21.5 19.5 21.2761 19.5 21C19.5 20.7239 19.2761 20.5 19 20.5Z" fill="#68463C"/>
<path d="M19 30H8C5.51472 30 3.5 32.0147 3.5 34.5V37C3.5 39.4853 5.51472 41.5 8 41.5H19C21.4853 41.5 23.5 39.4853 23.5 37V34.5C23.5 32.0147 21.4853 30 19 30Z" fill="#FF4DD8"/>
<path fill-rule="evenodd" clip-rule="evenodd" d="M14.059 13.7329C17.957 14.3039 24.799 15.3059 25.5 9.00094C26 4.50094 19.25 -0.749057 12 4.00094C7.445 4.67594 6.3055 8.13994 6.046 11.1279C5.6948 11.4987 5.49936 11.9902 5.5 12.5009C5.5 12.7659 5.5515 13.0194 5.645 13.2509C5.5515 13.4824 5.5 13.7359 5.5 14.0009C5.5 14.5539 5.7245 15.0544 6.087 15.4159C6.00313 15.6909 5.97953 15.9808 6.01782 16.2658C6.05611 16.5507 6.15538 16.824 6.30888 17.0672C6.46237 17.3103 6.66648 17.5174 6.90729 17.6745C7.14809 17.8316 7.41993 17.9349 7.70429 17.9774C7.98864 18.0199 8.27881 18.0006 8.55503 17.9208C8.83125 17.8411 9.08702 17.7027 9.3049 17.5151C9.52279 17.3275 9.69767 17.0951 9.81762 16.8338C9.93757 16.5725 9.99978 16.2885 10 16.0009C10.3052 16.001 10.6063 15.9312 10.8803 15.7969C11.1544 15.6626 11.394 15.4674 11.581 15.2262C11.768 14.985 11.8972 14.7042 11.9589 14.4053C12.0206 14.1065 12.0131 13.7975 11.937 13.5019C11.958 13.5009 11.979 13.5009 12 13.5009C12.476 13.5009 13.195 13.6059 14.059 13.7329Z" fill="#1B0B47"/>
<path d="M14.4648 23C14.4648 22.8674 14.5175 22.7402 14.6113 22.6464C14.7051 22.5527 14.8322 22.5 14.9648 22.5H19.5363C19.669 22.5 19.7961 22.5527 19.8899 22.6464C19.9837 22.7402 20.0363 22.8674 20.0363 23C20.0363 23.663 19.773 24.2989 19.3041 24.7678C18.8353 25.2366 18.1994 25.5 17.5363 25.5H16.9648C16.3018 25.5 15.6659 25.2366 15.1971 24.7678C14.7282 24.2989 14.4648 23.663 14.4648 23Z" fill="#66253C"/>
<path fill-rule="evenodd" clip-rule="evenodd" d="M18.3778 25.3541C18.1077 25.4505 17.823 25.4995 17.5363 25.4991H16.9648C16.3191 25.4991 15.6984 25.2493 15.2327 24.8019C14.7671 24.3545 14.4926 23.7443 14.4668 23.0991C14.8488 22.9561 15.4158 22.9726 15.9753 22.9891C16.1533 22.9941 16.3303 22.9991 16.5003 22.9991C17.6053 22.9991 18.5003 23.7826 18.5003 24.7491C18.5003 24.9616 18.4568 25.1656 18.3778 25.3541Z" fill="#B03E67"/>
<path d="M15 22.5H20V23C20 23.1326 19.9473 23.2598 19.8536 23.3536C19.7598 23.4473 19.6326 23.5 19.5 23.5H15.5C15.3674 23.5 15.2402 23.4473 15.1464 23.3536C15.0527 23.2598 15 23.1326 15 23V22.5Z" fill="white"/>
<path d="M16.5 18.75C16.5 18.3358 16.1642 18 15.75 18C15.3358 18 15 18.3358 15 18.75V19.25C15 19.6642 15.3358 20 15.75 20C16.1642 20 16.5 19.6642 16.5 19.25V18.75Z" fill="#1B0B47"/>
<path d="M21.5 18.75C21.5 18.3358 21.1642 18 20.75 18C20.3358 18 20 18.3358 20 18.75V19.25C20 19.6642 20.3358 20 20.75 20C21.1642 20 21.5 19.6642 21.5 19.25V18.75Z" fill="#1B0B47"/>
</g>
<defs>
<clipPath id="clip0_20878_17943">
<rect width="32" height="32" rx="16" fill="white"/>
</clipPath>
</defs>
</svg>
