<svg width="32" height="32" viewBox="0 0 32 32" fill="none" xmlns="http://www.w3.org/2000/svg">
<g clip-path="url(#clip0_20878_17902)">
<path d="M32 16C32 7.16344 24.8366 0 16 0C7.16344 0 0 7.16344 0 16C0 24.8366 7.16344 32 16 32C24.8366 32 32 24.8366 32 16Z" fill="#6F6FFB"/>
<path d="M9 21C10.3807 21 11.5 19.8807 11.5 18.5C11.5 17.1193 10.3807 16 9 16C7.61929 16 6.5 17.1193 6.5 18.5C6.5 19.8807 7.61929 21 9 21Z" fill="#F0BD70"/>
<path d="M9 20.5H17.5V32.935C17.5 32.935 15.6785 34 13.25 34C10.8215 34 9 32.2615 9 32.2615V20.5Z" fill="#F0BD70"/>
<path d="M17.4998 26.934C17.4998 29.761 17.0588 29.493 14.1913 29.493C11.3238 29.493 10.0008 27.2015 10.0008 24.3745C10.0008 21.5475 9.89181 19 12.2058 19C18.7498 19.25 17.4998 24.107 17.4998 26.934Z" fill="#E9B05B"/>
<path d="M22.9439 18.05C22.9439 22.511 24.7869 27.9965 16.7509 27.9965C8.71486 27.9965 8.71486 22.511 8.71486 18.05C7.50086 12.75 7.75086 6.5 16.0009 6.5C24.2509 6.5 22.9439 13.5885 22.9439 18.05Z" fill="#FFCB7E"/>
<path d="M19 20.5H18.5C18.2239 20.5 18 20.7239 18 21C18 21.2761 18.2239 21.5 18.5 21.5H19C19.2761 21.5 19.5 21.2761 19.5 21C19.5 20.7239 19.2761 20.5 19 20.5Z" fill="#F0BD70"/>
<path d="M19 30H8C5.51472 30 3.5 32.0147 3.5 34.5V37C3.5 39.4853 5.51472 41.5 8 41.5H19C21.4853 41.5 23.5 39.4853 23.5 37V34.5C23.5 32.0147 21.4853 30 19 30Z" fill="#E05A33"/>
<path fill-rule="evenodd" clip-rule="evenodd" d="M22.9831 16.2416C23.3981 16.0074 23.7159 15.6327 23.879 15.185C24.0422 14.7372 24.0401 14.2459 23.8731 13.7996C24.3296 13.5796 24.6855 13.1945 24.8689 12.7222C25.0524 12.2498 25.0497 11.7255 24.8615 11.2551C24.6732 10.7846 24.3134 10.4032 23.8548 10.1878C23.3962 9.97236 22.8729 9.93907 22.3906 10.0946C23.0991 11.9316 23.0471 14.2036 22.9831 16.2416Z" fill="#47280B"/>
<path fill-rule="evenodd" clip-rule="evenodd" d="M18.1485 11.3797C17.6929 11.7803 17.1067 12.0007 16.5 11.9997C15.9467 12.0006 15.4089 11.8171 14.9715 11.4782C14.647 11.8026 14.2616 12.0599 13.8375 12.2351C13.4134 12.4104 12.9589 12.5003 12.5 12.4997C12.1535 12.4999 11.8089 12.4487 11.4775 12.3477C11.3472 12.4903 11.197 12.6134 11.0315 12.7132C11.2283 12.9474 11.3688 13.2237 11.4421 13.5207C11.5154 13.8177 11.5196 14.1276 11.4544 14.4265C11.3891 14.7254 11.2562 15.0053 11.0658 15.2448C10.8753 15.4842 10.6325 15.6768 10.356 15.8077C10.4385 15.9207 10.4878 16.0546 10.4982 16.1942C10.5086 16.3338 10.4797 16.4735 10.4148 16.5975C10.3499 16.7216 10.2517 16.825 10.1311 16.896C10.0105 16.9671 9.87243 17.003 9.7325 16.9997C9.48739 17.4262 9.09371 17.7474 8.62671 17.9019C8.1597 18.0564 7.65214 18.0334 7.20103 17.8372C6.74993 17.6411 6.38692 17.2856 6.18141 16.8387C5.97589 16.3918 5.94228 15.8848 6.087 15.4147C5.90068 15.2292 5.7529 15.0087 5.65215 14.7658C5.55141 14.523 5.4997 14.2626 5.5 13.9997C5.5 13.4467 5.7245 12.9462 6.087 12.5847C5.99043 12.2688 5.97359 11.934 6.03798 11.61C6.10236 11.2861 6.24598 10.9831 6.456 10.7282C6.19589 10.2699 6.04259 9.75873 6.00754 9.23289C5.97248 8.70706 6.05657 8.1801 6.25354 7.69129C6.4505 7.20249 6.75526 6.76444 7.1451 6.40982C7.53493 6.0552 7.99978 5.79315 8.505 5.6432C8.47902 5.28387 8.55057 4.92419 8.71211 4.60216C8.87366 4.28014 9.11918 4.00773 9.42275 3.81372C9.72632 3.6197 10.0767 3.51129 10.4367 3.49994C10.7968 3.48858 11.1533 3.5747 11.4685 3.7492C11.7757 3.21706 12.2176 2.77521 12.7497 2.46809C13.2819 2.16097 13.8856 1.99942 14.5 1.9997C15.1865 1.9997 15.827 2.1972 16.3675 2.5392C16.7388 2.13925 17.2047 1.8392 17.7225 1.6667C18.2402 1.4942 18.793 1.4548 19.33 1.55213C19.8669 1.64946 20.3707 1.88039 20.795 2.22363C21.2192 2.56687 21.5502 3.01139 21.7575 3.5162C22.022 3.55048 22.277 3.63733 22.5074 3.77163C22.7379 3.90593 22.9391 4.08497 23.0994 4.29821C23.2596 4.51145 23.3755 4.75458 23.4404 5.0133C23.5052 5.27202 23.5177 5.5411 23.477 5.8047C24.4045 6.4917 25 7.5557 25 8.7497C25 10.8207 23.209 12.4997 21 12.4997C19.8835 12.4997 18.874 12.0707 18.1485 11.3797Z" fill="#47280B"/>
<path d="M14.4648 23C14.4648 22.8674 14.5175 22.7402 14.6113 22.6464C14.7051 22.5527 14.8322 22.5 14.9648 22.5H19.5363C19.669 22.5 19.7961 22.5527 19.8899 22.6464C19.9837 22.7402 20.0363 22.8674 20.0363 23C20.0363 23.663 19.773 24.2989 19.3041 24.7678C18.8353 25.2366 18.1994 25.5 17.5363 25.5H16.9648C16.3018 25.5 15.6659 25.2366 15.1971 24.7678C14.7282 24.2989 14.4648 23.663 14.4648 23Z" fill="#66253C"/>
<path fill-rule="evenodd" clip-rule="evenodd" d="M18.3778 25.3541C18.1077 25.4505 17.823 25.4995 17.5363 25.4991H16.9648C16.3191 25.4991 15.6984 25.2493 15.2327 24.8019C14.7671 24.3545 14.4926 23.7443 14.4668 23.0991C14.8488 22.9561 15.4158 22.9726 15.9753 22.9891C16.1533 22.9941 16.3303 22.9991 16.5003 22.9991C17.6053 22.9991 18.5003 23.7826 18.5003 24.7491C18.5003 24.9616 18.4568 25.1656 18.3778 25.3541Z" fill="#B03E67"/>
<path d="M15 22.5H20V23C20 23.1326 19.9473 23.2598 19.8536 23.3536C19.7598 23.4473 19.6326 23.5 19.5 23.5H15.5C15.3674 23.5 15.2402 23.4473 15.1464 23.3536C15.0527 23.2598 15 23.1326 15 23V22.5Z" fill="white"/>
<path d="M16.5 18.75C16.5 18.3358 16.1642 18 15.75 18C15.3358 18 15 18.3358 15 18.75V19.25C15 19.6642 15.3358 20 15.75 20C16.1642 20 16.5 19.6642 16.5 19.25V18.75Z" fill="#1B0B47"/>
<path d="M21.5 18.75C21.5 18.3358 21.1642 18 20.75 18C20.3358 18 20 18.3358 20 18.75V19.25C20 19.6642 20.3358 20 20.75 20C21.1642 20 21.5 19.6642 21.5 19.25V18.75Z" fill="#1B0B47"/>
</g>
<defs>
<clipPath id="clip0_20878_17902">
<rect width="32" height="32" rx="16" fill="white"/>
</clipPath>
</defs>
</svg>
