<svg width="32" height="32" viewBox="0 0 32 32" fill="none" xmlns="http://www.w3.org/2000/svg">
<rect width="32" height="32" fill="#EDEEFE"/>
<path d="M5 14.6691C5 14.3049 5.18669 13.9661 5.49459 13.7715L15.4328 7.49126C15.7792 7.27232 16.2208 7.27232 16.5672 7.49126L26.5054 13.7715C26.8133 13.9661 27 14.3049 27 14.6691V24.1328C27 25.2374 26.1046 26.1328 25 26.1328H7C5.89543 26.1328 5 25.2374 5 24.1328V14.6691Z" fill="#5F66F6"/>
<path d="M7 8.19463C7 7.6082 7.47539 7.13281 8.06181 7.13281H23.9382C24.5246 7.13281 25 7.6082 25 8.19463V23.071C25 23.6574 24.5246 24.1328 23.9382 24.1328H8.06181C7.47539 24.1328 7 23.6574 7 23.071L7 8.19463Z" fill="white"/>
<path d="M15.0423 19.6104L5 14.1328V24.1328C5 25.2374 5.89543 26.1328 7 26.1328H25C26.1046 26.1328 27 25.2374 27 24.1328V14.1328L16.9577 19.6104C16.3607 19.936 15.6393 19.936 15.0423 19.6104Z" fill="#A6AAFA"/>
</svg>
