<svg width="32" height="32" viewBox="0 0 32 32" fill="none" xmlns="http://www.w3.org/2000/svg">
<rect width="32" height="32" fill="#EDEEFE"/>
<path d="M4.21241 11.4424L6.79534 26.0311C6.89049 26.5685 7.39891 26.9303 7.93781 26.8442L24.299 24.23C24.8366 24.1442 25.2067 23.644 25.1316 23.1048L22.7441 5.94543C22.6704 5.41632 22.194 5.03851 21.662 5.08745L14.4018 5.75543C13.9037 5.80125 13.5161 6.20798 13.4944 6.70765L13.4287 8.21371C13.4078 8.69224 13.0505 9.08877 12.5768 9.15925L5.04995 10.279C4.49301 10.3618 4.11425 10.888 4.21241 11.4424Z" fill="#7177F7"/>
<path d="M26.4991 11.2582L9.38426 13.2397C8.92155 13.2933 8.5571 13.6593 8.50544 14.1222L7.21428 25.6926C7.14093 26.3498 7.71438 26.896 8.36729 26.7907L24.5508 24.1813C24.9617 24.115 25.2887 23.801 25.3716 23.3931L27.5941 12.4506C27.7295 11.7842 27.1746 11.18 26.4991 11.2582Z" fill="#A6AAFA"/>
</svg>
