<svg width="1034" height="776" viewBox="0 0 1034 776" fill="none" xmlns="http://www.w3.org/2000/svg">
<g clip-path="url(#clip0_13596_8289)">
<rect width="1034" height="775.5" fill="black"/>
<path d="M619.629 158.442C669.826 160.456 761.78 150.505 728.017 94.6004C685.813 24.7191 572.629 117.894 644.568 141.188C702.119 159.823 738.887 160.456 750.078 158.442" stroke="#6F82FF" stroke-width="3.83673" stroke-linecap="round"/>
<path d="M354.895 157.306L580.303 141.959" stroke="#6F82FF" stroke-width="3.83673" stroke-linecap="round"/>
<path d="M122.712 96.581H127.762C127.762 99.1593 127.672 101.756 127.493 104.37C127.314 106.984 127.063 109.58 126.741 112.158C127.923 116.778 129.695 121.29 132.059 125.694C134.422 130.099 137.269 133.877 140.599 137.028L136.893 140.466C134.315 137.923 132.023 135.023 130.018 131.764C128.012 128.469 126.347 125.121 125.022 121.719C124.199 125.157 123.178 128.523 121.96 131.818C120.779 135.076 119.346 138.174 117.663 141.11L113.151 138.747C114.906 135.667 116.392 132.426 117.61 129.024C118.827 125.623 119.812 122.131 120.564 118.55C121.316 114.969 121.853 111.335 122.175 107.646C122.533 103.958 122.712 100.269 122.712 96.581ZM149.999 96.0976H155.048V142.507H149.999V119.141H135.335V114.629H149.999V96.0976ZM204.368 117.53V122.095H164.459V107.163H198.782V101.63H164.459V97.0645H203.831V111.728H169.508V117.53H204.368ZM206.356 126.876V131.442H195.774V142.99H190.725V131.442H177.619V142.99H172.57V131.442H161.934V126.876H206.356ZM251.647 141.97H213.295V128.595H218.344V137.458H251.647V141.97ZM245.578 96.0976H250.627V110.708H257.18V115.274H250.627V130.26H245.578V96.0976ZM222.588 96.0976H227.637C230.788 96.0976 233.384 96.975 235.426 98.7296C237.502 100.448 238.541 102.758 238.541 105.659C238.541 108.559 237.502 110.887 235.426 112.642C233.384 114.396 230.788 115.274 227.637 115.274V120.699H241.871V125.211H210.234V120.699H222.588V115.274C219.437 115.274 216.84 114.396 214.799 112.642C212.758 110.887 211.738 108.559 211.738 105.659C211.738 102.758 212.758 100.448 214.799 98.7296C216.84 96.975 219.437 96.0976 222.588 96.0976ZM227.637 100.61H222.588C220.833 100.61 219.419 101.075 218.344 102.006C217.306 102.937 216.787 104.155 216.787 105.659C216.787 107.199 217.306 108.434 218.344 109.365C219.419 110.26 220.833 110.708 222.588 110.708H227.637C229.392 110.708 230.806 110.26 231.88 109.365C232.955 108.434 233.492 107.199 233.492 105.659C233.492 104.155 232.955 102.937 231.88 102.006C230.806 101.075 229.392 100.61 227.637 100.61ZM269.652 96.0976H274.701C274.701 97.4584 274.629 98.8012 274.486 100.126C274.343 101.415 274.128 102.687 273.841 103.94C275.345 106.447 277.297 108.828 279.696 111.084C282.096 113.304 284.674 115.166 287.431 116.67L284.316 120.538C282.024 119.177 279.804 117.548 277.655 115.65C275.507 113.716 273.627 111.675 272.015 109.526C270.941 112.033 269.544 114.343 267.825 116.455C266.107 118.532 264.101 120.341 261.809 121.88L257.942 118.443C261.774 116.079 264.674 113 266.644 109.204C268.649 105.372 269.652 101.004 269.652 96.0976ZM273.68 124.351H288.828C292.588 124.351 295.542 125.229 297.691 126.983C299.875 128.702 300.967 130.94 300.967 133.698C300.967 136.455 299.875 138.693 297.691 140.412C295.542 142.131 292.588 142.99 288.828 142.99H273.68C269.885 142.99 266.912 142.131 264.764 140.412C262.651 138.693 261.595 136.455 261.595 133.698C261.595 130.94 262.651 128.702 264.764 126.983C266.912 125.229 269.885 124.351 273.68 124.351ZM288.828 128.81H273.68C271.639 128.81 269.992 129.257 268.739 130.152C267.485 131.012 266.859 132.194 266.859 133.698C266.859 135.202 267.485 136.383 268.739 137.243C269.992 138.102 271.639 138.532 273.68 138.532H288.828C290.833 138.532 292.462 138.102 293.716 137.243C295.005 136.383 295.649 135.202 295.649 133.698C295.649 132.194 295.005 131.012 293.716 130.152C292.462 129.257 290.833 128.81 288.828 128.81ZM294.897 104.155V96.0976H299.947V122.686H294.897V108.72H282.704V104.155H294.897ZM306.832 140.466V135.9H339.491V140.466H306.832ZM343.197 142.507V96.0976H348.246V142.507H343.197ZM335.623 109.204C335.623 111.102 335.283 112.856 334.603 114.468C333.958 116.079 333.027 117.458 331.809 118.604C330.628 119.786 329.195 120.699 327.512 121.343C325.829 121.988 323.985 122.31 321.98 122.31C319.939 122.31 318.076 121.988 316.393 121.343C314.746 120.699 313.314 119.786 312.096 118.604C310.915 117.458 309.984 116.079 309.303 114.468C308.659 112.856 308.336 111.102 308.336 109.204C308.336 107.342 308.659 105.605 309.303 103.994C309.984 102.382 310.915 101.004 312.096 99.8576C313.314 98.6759 314.746 97.7628 316.393 97.1182C318.076 96.4378 319.939 96.0976 321.98 96.0976C323.985 96.0976 325.829 96.4378 327.512 97.1182C329.195 97.7628 330.628 98.6759 331.809 99.8576C333.027 101.004 333.958 102.382 334.603 103.994C335.283 105.605 335.623 107.342 335.623 109.204ZM330.574 109.204C330.574 106.84 329.804 104.817 328.264 103.134C326.724 101.451 324.63 100.61 321.98 100.61C319.294 100.61 317.181 101.451 315.641 103.134C314.137 104.817 313.385 106.84 313.385 109.204C313.385 111.603 314.137 113.644 315.641 115.327C317.181 116.975 319.294 117.798 321.98 117.798C324.63 117.798 326.724 116.975 328.264 115.327C329.804 113.644 330.574 111.603 330.574 109.204ZM376.787 96.581H381.836C381.836 99.1593 381.746 101.756 381.567 104.37C381.388 106.984 381.138 109.58 380.815 112.158C381.997 116.778 383.77 121.29 386.133 125.694C388.496 130.099 391.343 133.877 394.674 137.028L390.967 140.466C388.389 137.923 386.097 135.023 384.092 131.764C382.086 128.469 380.421 125.121 379.096 121.719C378.273 125.157 377.252 128.523 376.035 131.818C374.853 135.076 373.421 138.174 371.738 141.11L367.226 138.747C368.98 135.667 370.466 132.426 371.684 129.024C372.901 125.623 373.886 122.131 374.638 118.55C375.39 114.969 375.927 111.335 376.25 107.646C376.608 103.958 376.787 100.269 376.787 96.581ZM404.074 96.0976H409.123V142.507H404.074V96.0976ZM418.05 97.0645H442.704V101.63H432.606C432.534 102.669 432.409 103.671 432.23 104.638C432.051 105.605 431.854 106.554 431.639 107.485C433.143 109.956 435.131 112.248 437.602 114.36C440.108 116.473 442.758 118.282 445.551 119.786L442.275 123.546C439.875 122.185 437.584 120.573 435.399 118.711C433.251 116.849 431.371 114.898 429.759 112.856C428.613 115.292 427.217 117.53 425.57 119.571C423.922 121.576 422.06 123.349 419.983 124.888L416.008 121.666C419.303 119.517 421.971 116.742 424.012 113.34C426.053 109.938 427.235 106.035 427.557 101.63H418.05V97.0645ZM462.955 107.7V112.212H456.402V124.727H451.352V96.0976H456.402V107.7H462.955ZM456.402 127.359V142.99H451.352V131.925H418.533V127.359H456.402ZM504.701 119.141V142.507H499.652V96.0976H504.701V114.629H511.254V119.141H504.701ZM495.945 135.9V140.466H464.308V135.9H473.385V114.253H478.435V135.9H495.945ZM491.057 127.359H486.008V101.63H466.349V97.0645H491.057V127.359ZM525.184 112.212H569.606V116.724H525.184V112.212ZM527.226 97.0645H544.898V110.224H539.848V101.63H527.226V97.0645ZM547.422 97.0645H567.082V110.224H562.032V101.63H547.422V97.0645ZM567.619 137.458V141.97H527.709V120.538H567.082V124.996H532.758V128.917H567.082V133.375H532.758V137.458H567.619ZM615.918 137.458V141.97H576.008V129.884H581.057V137.458H615.918ZM573.484 120.806H617.905V125.372H573.484V120.806ZM603.295 116.294H588.148C584.065 116.294 580.932 115.435 578.748 113.716C576.599 111.997 575.525 109.49 575.525 106.196C575.525 103.188 576.599 100.753 578.748 98.8908C580.932 97.0287 584.065 96.0976 588.148 96.0976H603.295C607.306 96.0976 610.403 97.0287 612.588 98.8908C614.808 100.753 615.918 103.188 615.918 106.196C615.918 109.49 614.808 111.997 612.588 113.716C610.403 115.435 607.306 116.294 603.295 116.294ZM588.148 111.728H603.295C605.802 111.728 607.592 111.227 608.667 110.224C609.777 109.186 610.332 107.843 610.332 106.196C610.332 104.584 609.777 103.26 608.667 102.221C607.592 101.147 605.802 100.61 603.295 100.61H588.148C585.856 100.61 584.101 101.147 582.884 102.221C581.666 103.26 581.057 104.584 581.057 106.196C581.057 107.843 581.595 109.186 582.669 110.224C583.779 111.227 585.605 111.728 588.148 111.728ZM636.402 97.0645H661.056V101.63H651.012C650.904 102.74 650.761 103.832 650.582 104.907C650.439 105.945 650.26 106.966 650.045 107.968C651.549 110.439 653.536 112.749 656.007 114.898C658.478 117.01 661.11 118.819 663.903 120.323L660.627 124.029C658.227 122.668 655.936 121.075 653.751 119.248C651.603 117.386 649.723 115.435 648.111 113.394C646.965 115.829 645.551 118.067 643.868 120.108C642.221 122.113 640.376 123.886 638.335 125.426L634.36 122.203C637.727 119.947 640.43 117.1 642.471 113.662C644.512 110.189 645.676 106.178 645.963 101.63H636.402V97.0645ZM675.774 96.0976V131.173H670.725V96.0976H675.774ZM676.795 137.458V141.97H637.906V127.896H642.955V137.458H676.795ZM729.606 110.01V114.575H723.053V131.173H718.004V96.0976H723.053V110.01H729.606ZM724.074 137.458V141.97H685.722V127.359H690.771V137.458H724.074ZM712.955 117.261V121.827H684.701V97.0645H709.947V101.63H689.75V117.261H712.955ZM772.373 142.507H767.324V96.0976H772.373V142.507ZM737.512 106.679V130.904C737.512 132.946 737.906 134.378 738.694 135.202C739.482 136.025 740.52 136.437 741.809 136.437C743.063 136.437 744.083 136.025 744.871 135.202C745.695 134.378 746.107 132.946 746.107 130.904V106.679C746.107 104.674 745.695 103.26 744.871 102.436C744.083 101.576 743.063 101.147 741.809 101.147C740.52 101.147 739.482 101.576 738.694 102.436C737.906 103.26 737.512 104.674 737.512 106.679ZM732.463 130.904V106.679C732.463 104.925 732.696 103.421 733.161 102.167C733.663 100.878 734.343 99.8218 735.203 98.9982C736.062 98.1746 737.047 97.5658 738.157 97.1719C739.303 96.778 740.52 96.581 741.809 96.581C743.063 96.581 744.245 96.778 745.355 97.1719C746.501 97.5658 747.503 98.1746 748.363 98.9982C749.222 99.8218 749.902 100.878 750.404 102.167C750.905 103.421 751.156 104.925 751.156 106.679V114.736H756.957V96.3125H762.006V141.97H756.957V119.302H751.156V130.904C751.156 132.695 750.905 134.217 750.404 135.47C749.902 136.724 749.222 137.762 748.363 138.586C747.503 139.409 746.501 140 745.355 140.358C744.245 140.752 743.063 140.949 741.809 140.949C740.52 140.949 739.303 140.752 738.157 140.358C737.047 140 736.062 139.409 735.203 138.586C734.343 137.762 733.663 136.724 733.161 135.47C732.696 134.217 732.463 132.695 732.463 130.904ZM788.336 96.581H793.385C793.385 99.1593 793.296 101.756 793.117 104.37C792.938 106.984 792.687 109.58 792.365 112.158C793.547 116.778 795.319 121.29 797.683 125.694C800.046 130.099 802.893 133.877 806.223 137.028L802.517 140.466C799.939 137.923 797.647 135.023 795.641 131.764C793.636 128.469 791.971 125.121 790.646 121.719C789.822 125.157 788.802 128.523 787.584 131.818C786.403 135.076 784.97 138.174 783.287 141.11L778.775 138.747C780.53 135.667 782.016 132.426 783.233 129.024C784.451 125.623 785.436 122.131 786.188 118.55C786.94 114.969 787.477 111.335 787.799 107.646C788.157 103.958 788.336 100.269 788.336 96.581ZM815.623 96.0976H820.672V142.507H815.623V119.141H800.959V114.629H815.623V96.0976ZM869.455 97.0645V120.806H830.083V97.0645H835.132V104.155H864.406V97.0645H869.455ZM871.98 125.855V130.421H852.32V142.99H847.271V130.421H827.558V125.855H871.98ZM835.132 116.294H864.406V108.72H835.132V116.294ZM902.124 140.466H877.899V97.0645H899.599V101.63H882.948V115.274H899.116V119.786H882.948V135.9H902.124V140.466ZM912.222 119.786H901.64V115.274H912.222V96.0976H917.271V142.507H912.222V119.786Z" fill="white"/>
<path d="M92.7293 224.213V235.493H21.1953V224.213H33.9793V205.037H46.8573V224.213H64.6233C64.9993 222.646 65.3753 221.079 65.7513 219.513C66.1273 217.883 66.5346 216.285 66.9733 214.719C67.3493 213.089 67.7253 211.491 68.1013 209.925C68.54 208.295 68.9786 206.666 69.4173 205.037H82.4833C81.6686 208.295 80.854 211.523 80.0393 214.719C79.2246 217.852 78.41 221.017 77.5953 224.213H92.7293ZM95.8313 254.481V265.949H18.0933V254.481H50.2413V239.629H63.4013V254.481H95.8313ZM91.8833 189.151V200.619H22.0413V189.151H91.8833ZM119.067 200.055V210.207H176.407V220.923H119.067V231.733H177.253V242.637H106.565V189.151H176.407V200.055H119.067ZM180.355 254.575V265.949H102.617V254.575H180.355ZM261.777 259.275V268.581H191.089V246.491H248.429V242.825H191.089V233.707H260.931V255.703H203.591V259.275H261.777ZM260.931 189.151V198.739H191.089V189.151H260.931ZM215.435 207.199H235.175C235.3 206.635 235.426 206.102 235.551 205.601C235.676 205.037 235.802 204.473 235.927 203.909C236.115 203.345 236.272 202.812 236.397 202.311C236.522 201.747 236.648 201.183 236.773 200.619H249.651C249.338 201.747 249.024 202.843 248.711 203.909C248.46 204.974 248.241 206.071 248.053 207.199H261.777V216.317H231.979V220.453H264.879V229.853H187.141V220.453H219.477V216.317H190.243V207.199H202.933V200.619H215.435V207.199ZM344.985 187.835V269.051H332.577V187.835H344.985ZM321.579 254.199V265.479H274.767V220.453H304.095V200.525H274.767V189.151H316.597V231.827H287.269V254.199H321.579ZM406.103 233.895H384.013C380.128 233.895 376.618 233.362 373.485 232.297C370.352 231.169 367.657 229.602 365.401 227.597C363.145 225.529 361.422 223.085 360.231 220.265C359.04 217.445 358.445 214.311 358.445 210.865C358.445 207.481 359.04 204.379 360.231 201.559C361.422 198.676 363.145 196.232 365.401 194.227C367.657 192.221 370.352 190.655 373.485 189.527C376.618 188.399 380.128 187.835 384.013 187.835H406.103C409.926 187.835 413.404 188.399 416.537 189.527C419.733 190.655 422.459 192.221 424.715 194.227C426.971 196.232 428.694 198.676 429.885 201.559C431.138 204.379 431.765 207.481 431.765 210.865C431.765 214.311 431.138 217.445 429.885 220.265C428.694 223.085 426.971 225.529 424.715 227.597C422.459 229.602 419.733 231.169 416.537 232.297C413.404 233.362 409.926 233.895 406.103 233.895ZM384.201 222.427H405.821C409.769 222.427 412.934 221.361 415.315 219.231C417.696 217.037 418.887 214.249 418.887 210.865C418.887 207.606 417.696 204.88 415.315 202.687C412.934 200.431 409.769 199.303 405.821 199.303H384.201C380.19 199.303 377.026 200.431 374.707 202.687C372.451 204.88 371.323 207.606 371.323 210.865C371.323 214.249 372.451 217.037 374.707 219.231C377.026 221.361 380.19 222.427 384.201 222.427ZM433.927 254.481V265.949H356.189V254.481H388.337V237.373H401.497V254.481H433.927ZM513.107 189.151V200.525H465.825V189.151H513.107ZM516.209 254.293V265.479H464.979V254.293H471.747V207.669H483.685V254.293H490.735L496.281 207.669H508.219L502.673 254.293H516.209ZM536.043 187.835V269.051H523.635V187.835H536.043ZM563.697 223.555H621.883V235.117H551.195V189.151H621.037V200.619H563.697V223.555ZM624.985 254.481V265.949H547.247V254.481H624.985ZM705.091 241.133V269.897H692.683V252.319H636.659V241.133H705.091ZM705.091 187.835V237.561H693.247V217.539H686.197V237.561H674.635V188.211H686.197V206.729H693.247V187.835H705.091ZM668.619 189.151V234.741H634.873V189.151H646.341V201.841H657.151V189.151H668.619ZM646.341 224.401H657.151V212.087H646.341V224.401ZM779.947 242.167V262.377H767.445V243.013C767.445 240.569 766.975 238.689 766.035 237.373C765.095 236.057 763.591 235.148 761.523 234.647H751.747V262.377H739.339V190.937H759.643C766.411 190.937 771.769 192.785 775.717 196.483C779.728 200.18 781.733 205.225 781.733 211.617C781.733 216.066 780.762 219.826 778.819 222.897C776.939 225.967 774.495 228.161 771.487 229.477C774.182 230.479 776.25 232.109 777.691 234.365C779.195 236.621 779.947 239.221 779.947 242.167ZM758.703 202.405H751.747V223.179H758.703C761.774 223.179 764.28 222.239 766.223 220.359C768.228 218.416 769.231 215.659 769.231 212.087C769.231 208.828 768.291 206.415 766.411 204.849C764.594 203.219 762.024 202.405 758.703 202.405ZM788.613 190.937H825.649V202.405H801.021V219.607H823.017V231.075H801.021V251.003H827.435V262.377H788.613V190.937ZM877.639 214.155C877.639 221.549 875.696 227.252 871.811 231.263C867.925 235.273 862.223 237.279 854.703 237.279H846.807V262.377H834.399V190.937H854.703C862.223 190.937 867.925 192.973 871.811 197.047C875.696 201.057 877.639 206.76 877.639 214.155ZM865.231 214.155C865.231 209.831 864.197 206.791 862.129 205.037C860.123 203.282 857.335 202.405 853.763 202.405H846.807V225.811H853.763C857.335 225.811 860.123 224.965 862.129 223.273C864.197 221.518 865.231 218.479 865.231 214.155ZM915.259 242.167V211.241C915.259 207.919 914.382 205.475 912.627 203.909C910.935 202.279 908.46 201.465 905.201 201.465C901.817 201.465 899.279 202.279 897.587 203.909C895.958 205.475 895.143 207.919 895.143 211.241V242.167C895.143 245.488 895.958 247.932 897.587 249.499C899.279 251.065 901.817 251.849 905.201 251.849C908.46 251.849 910.935 251.065 912.627 249.499C914.382 247.932 915.259 245.488 915.259 242.167ZM927.761 210.301V243.013C927.761 249.405 925.756 254.355 921.745 257.865C917.734 261.437 912.22 263.223 905.201 263.223C898.057 263.223 892.511 261.437 888.563 257.865C884.615 254.355 882.641 249.405 882.641 243.013V210.301C882.641 203.909 884.615 198.927 888.563 195.355C892.511 191.783 898.057 189.997 905.201 189.997C912.22 189.997 917.734 191.783 921.745 195.355C925.756 198.927 927.761 203.909 927.761 210.301ZM976.125 242.167V262.377H963.623V243.013C963.623 240.569 963.153 238.689 962.213 237.373C961.273 236.057 959.769 235.148 957.701 234.647H947.925V262.377H935.517V190.937H955.821C962.589 190.937 967.947 192.785 971.895 196.483C975.905 200.18 977.911 205.225 977.911 211.617C977.911 216.066 976.939 219.826 974.997 222.897C973.117 225.967 970.673 228.161 967.665 229.477C970.359 230.479 972.427 232.109 973.869 234.365C975.373 236.621 976.125 239.221 976.125 242.167ZM954.881 202.405H947.925V223.179H954.881C957.951 223.179 960.458 222.239 962.401 220.359C964.406 218.416 965.409 215.659 965.409 212.087C965.409 208.828 964.469 206.415 962.589 204.849C960.771 203.219 958.202 202.405 954.881 202.405ZM1022.48 202.405H1007.54V262.847H995.037V202.405H980.937V190.937H1022.48V202.405Z" fill="white"/>
<rect x="518.238" y="387.099" width="22.3621" height="494" fill="url(#paint0_linear_13596_8289)"/>
<g filter="url(#filter0_d_13596_8289)">
<path d="M867.462 510.257C866.915 515.498 862.223 519.304 856.981 518.758L199.018 453.804C196.35 453.525 193.923 452.138 192.331 449.98L139.524 378.441C136.594 374.472 137.173 368.924 140.859 365.645L207.29 306.541C209.293 304.758 211.955 303.901 214.622 304.179L872.585 369.133C877.827 369.68 881.633 374.372 881.086 379.614L867.462 510.257Z" fill="url(#paint1_linear_13596_8289)"/>
</g>
<path fill-rule="evenodd" clip-rule="evenodd" d="M773.27 414.372C763.376 413.34 754.519 420.525 753.487 430.419C752.519 439.707 758.791 448.082 767.748 449.926L766.565 461.273C766.511 461.785 767.077 462.129 767.507 461.846L783.064 451.613L798.197 453.191C808.091 454.223 816.949 447.039 817.98 437.145C819.012 427.251 811.828 418.393 801.934 417.361L773.27 414.372Z" fill="white"/>
<circle cx="771.147" cy="432.546" r="3.65926" transform="rotate(5.95374 771.147 432.546)" fill="#6753FF"/>
<circle cx="785.701" cy="434.064" r="3.65926" transform="rotate(5.95374 785.701 434.064)" fill="#6753FF"/>
<circle cx="800.26" cy="435.583" r="3.65926" transform="rotate(5.95374 800.26 435.583)" fill="#6753FF"/>
<path d="M240.008 370.342C239.94 370.472 239.872 370.601 239.804 370.73C239.763 370.862 239.71 370.979 239.645 371.081C239.577 371.21 239.509 371.34 239.441 371.469C239.373 371.598 239.32 371.715 239.282 371.82C240.377 373.079 241.714 374.24 243.292 375.304C244.871 376.368 246.561 377.28 248.362 378.04C248.08 378.392 247.812 378.746 247.557 379.101C247.304 379.429 247.052 379.757 246.8 380.085C246.548 380.413 246.294 380.754 246.039 381.109C245.787 381.437 245.548 381.767 245.323 382.097C243.683 381.354 242.076 380.437 240.5 379.346C238.954 378.231 237.596 377.013 236.425 375.692C235.201 376.981 233.819 378.077 232.281 378.979C230.772 379.858 229.195 380.47 227.551 380.816C227.313 380.492 227.076 380.154 226.84 379.802C226.604 379.45 226.368 379.099 226.132 378.747C225.923 378.398 225.701 378.048 225.465 377.696C225.229 377.345 224.993 376.993 224.757 376.641C227.017 376.141 228.972 375.296 230.622 374.105C232.302 372.891 233.598 371.445 234.508 369.769L227.189 369.005L227.67 364.395L234.949 365.155L235.345 361.353L240.764 361.918L240.368 365.72L247.889 366.504L247.408 371.114L240.008 370.342ZM249.153 399.462L252.797 364.522L258.135 365.079L254.491 400.018L249.153 399.462ZM223.974 386.902L224.45 382.332L248.511 384.842L248.035 389.411L236.995 388.26L235.97 398.087L230.592 397.526L231.617 387.699L223.974 386.902ZM267.708 375.275C267.573 376.569 267.837 377.7 268.499 378.669C269.188 379.64 270.179 380.193 271.473 380.328C272.767 380.463 273.852 380.126 274.726 379.318C275.628 378.513 276.146 377.463 276.281 376.169C276.413 374.902 276.121 373.781 275.405 372.807C274.716 371.836 273.725 371.283 272.431 371.148C271.137 371.013 270.052 371.35 269.178 372.158C268.33 372.969 267.84 374.008 267.708 375.275ZM262.41 374.723C262.543 373.455 262.895 372.293 263.469 371.236C264.043 370.178 264.791 369.275 265.714 368.526C266.634 367.805 267.697 367.275 268.904 366.938C270.141 366.576 271.474 366.47 272.903 366.619C274.305 366.765 275.574 367.143 276.709 367.752C277.848 368.334 278.792 369.073 279.544 369.969C280.319 370.894 280.879 371.934 281.222 373.087C281.592 374.243 281.711 375.454 281.579 376.722C281.444 378.016 281.074 379.203 280.471 380.285C279.897 381.343 279.137 382.231 278.19 382.95C277.267 383.698 276.189 384.24 274.955 384.574C273.721 384.909 272.403 385.003 271.001 384.857C269.572 384.708 268.288 384.343 267.15 383.761C266.039 383.181 265.109 382.43 264.36 381.507C263.609 380.611 263.061 379.587 262.718 378.434C262.378 377.254 262.275 376.017 262.41 374.723ZM292.427 388.727L290.875 403.608L261.799 400.576L263.351 385.694L268.729 386.255L268.417 389.248L286.817 391.167L287.129 388.174L292.427 388.727ZM267.588 396.806L286.028 398.729L286.37 395.453L267.93 393.53L267.588 396.806ZM294.497 368.871L292.587 387.19L287.249 386.633L287.958 379.84L282.458 379.266L282.972 374.332L288.472 374.906L289.159 368.314L294.497 368.871ZM308.052 381.322L308.208 379.826C308.349 378.478 308.708 377.248 309.288 376.137C309.894 375.028 310.658 374.099 311.581 373.351C312.531 372.605 313.623 372.065 314.857 371.73C316.094 371.369 317.427 371.262 318.856 371.411C320.257 371.558 321.526 371.935 322.662 372.544C323.8 373.126 324.757 373.88 325.533 374.806C326.308 375.731 326.878 376.799 327.243 378.009C327.607 379.219 327.719 380.498 327.578 381.846L327.422 383.342C327.279 384.717 326.904 385.959 326.298 387.067C325.695 388.149 324.918 389.063 323.968 389.809C323.018 390.554 321.925 391.108 320.688 391.47C319.454 391.804 318.136 391.898 316.734 391.752C315.305 391.603 314.022 391.238 312.883 390.656C311.748 390.047 310.792 389.279 310.017 388.354C309.268 387.431 308.71 386.378 308.343 385.195C308.006 383.988 307.909 382.697 308.052 381.322ZM340.329 373.651L337.63 399.532L332.292 398.975L333.211 390.159L327.792 389.594L328.294 384.782L333.713 385.347L334.122 381.425L328.703 380.859L329.205 376.047L334.624 376.612L334.991 373.094L340.329 373.651ZM337.783 403.554L337.272 408.447L307.63 405.356L308.828 393.871L314.206 394.432L313.519 401.023L337.783 403.554ZM313.506 380.378L313.349 381.874C313.206 383.249 313.463 384.448 314.119 385.47C314.803 386.495 315.832 387.08 317.207 387.223C318.555 387.364 319.669 387.003 320.549 386.141C321.429 385.279 321.941 384.16 322.084 382.785L322.24 381.289C322.384 379.914 322.114 378.714 321.43 377.689C320.747 376.664 319.731 376.081 318.383 375.941C317.008 375.797 315.881 376.156 315.001 377.019C314.147 377.883 313.649 379.003 313.506 380.378ZM374.932 396.268L369.554 395.707L370.941 382.403L346.274 379.83L346.788 374.897L376.834 378.03L374.932 396.268ZM376.395 398.71L375.876 403.684L362.005 402.237L361.04 411.498L355.338 410.903L356.303 401.643L342.433 400.196L342.951 395.222L376.395 398.71ZM401.761 395.837L401.31 400.164L380.766 398.021L382.787 378.651L401.469 380.599L401.018 384.926L387.512 383.518L387.183 386.672L400.325 388.043L399.878 392.329L386.736 390.958L386.394 394.234L401.761 395.837ZM413.054 381.235L410.848 402.385L405.51 401.828L407.716 380.678L413.054 381.235ZM410.705 403.76L409.431 415.972L380.355 412.94L381.629 400.727L410.705 403.76ZM386.185 409.174L404.544 411.089L404.915 407.53L386.556 405.615L386.185 409.174ZM413.91 418.565C413.798 418.335 413.701 418.094 413.618 417.84C413.533 417.613 413.447 417.386 413.362 417.159C413.277 416.932 413.193 416.692 413.11 416.438C413.025 416.211 412.94 415.984 412.854 415.757C413.897 415.43 414.619 414.905 415.021 414.184C415.423 413.463 415.703 412.348 415.861 410.838L416.072 408.816L421.976 409.432L421.723 411.858C421.487 414.123 420.726 415.801 419.44 416.893C418.151 418.013 416.308 418.57 413.91 418.565ZM455.983 401.124C455.865 402.256 455.527 403.283 454.967 404.206C454.41 405.102 453.692 405.845 452.813 406.434C451.931 407.051 450.905 407.489 449.733 407.748C448.588 408.01 447.355 408.072 446.034 407.935C444.686 407.794 443.48 407.477 442.414 406.985C441.348 406.492 440.447 405.853 439.711 405.068C438.973 404.309 438.423 403.435 438.063 402.443C437.733 401.428 437.627 400.354 437.745 399.221C437.863 398.089 438.187 397.074 438.717 396.175C439.277 395.252 439.996 394.496 440.875 393.907C441.757 393.29 442.77 392.851 443.915 392.588C445.062 392.299 446.31 392.225 447.658 392.366C448.979 392.503 450.171 392.832 451.234 393.352C452.327 393.847 453.242 394.488 453.977 395.273C454.716 396.031 455.264 396.92 455.621 397.938C455.981 398.929 456.102 399.991 455.983 401.124ZM469.341 387.105L466.604 413.35L461.266 412.793L461.916 406.566L456.739 406.026L457.212 401.497L462.388 402.037L462.738 398.68L457.562 398.14L458.034 393.611L463.21 394.151L464.003 386.549L469.341 387.105ZM466.997 417.029L466.487 421.923L436.643 418.81L437.731 408.377L443.109 408.938L442.531 414.478L466.997 417.029ZM458.92 387.858L458.465 392.225L437.356 390.024L437.811 385.657L445.494 386.458L445.823 383.304L451.202 383.864L450.873 387.019L458.92 387.858ZM450.848 400.588C450.952 399.59 450.678 398.69 450.026 397.886C449.401 397.085 448.468 396.62 447.228 396.49C445.934 396.355 444.912 396.617 444.162 397.274C443.412 397.932 442.985 398.76 442.881 399.757C442.777 400.755 443.026 401.639 443.626 402.41C444.23 403.154 445.179 403.594 446.473 403.729C447.713 403.858 448.719 403.623 449.49 403.022C450.291 402.397 450.744 401.585 450.848 400.588ZM475.437 388.313L494.402 390.291L493.926 394.861L487.011 394.14C486.868 394.724 486.713 395.294 486.546 395.849C486.406 396.407 486.24 396.962 486.046 397.514C486.95 399.298 488.171 401.046 489.709 402.76C491.277 404.45 492.939 405.891 494.695 407.082C494.365 407.375 494.035 407.667 493.704 407.96C493.404 408.228 493.103 408.497 492.803 408.765C492.473 409.058 492.156 409.352 491.852 409.647C491.552 409.915 491.251 410.184 490.951 410.452C489.507 409.402 488.132 408.21 486.827 406.875C485.552 405.515 484.433 404.09 483.471 402.6C482.44 404.128 481.276 405.492 479.979 406.692C478.685 407.865 477.286 408.864 475.783 409.688C475.46 409.382 475.138 409.076 474.816 408.77C474.493 408.464 474.186 408.145 473.893 407.815C473.571 407.509 473.249 407.203 472.926 406.897C472.631 406.593 472.337 406.276 472.044 405.946C474.452 404.807 476.489 403.18 478.154 401.065C479.819 398.949 481.005 396.457 481.713 393.587L474.96 392.883L475.437 388.313ZM503.312 413.826L502.022 426.201L496.684 425.644L497.473 418.082L473.371 415.568L473.873 410.756L503.312 413.826ZM505.704 390.897L503.494 412.087L498.156 411.531L500.366 390.341L505.704 390.897ZM511.799 392.105L531.21 394.13L530.699 399.023L523.056 398.226C522.842 399.757 522.605 401.245 522.346 402.689C522.086 404.134 521.777 405.532 521.418 406.885C522.157 409.987 523.257 413.031 524.717 416.018C526.203 419.007 528.011 421.662 530.14 423.982C529.759 424.242 529.379 424.489 529 424.722C528.619 424.982 528.253 425.23 527.901 425.466C527.519 425.726 527.14 425.972 526.761 426.205C526.38 426.465 526.013 426.713 525.661 426.949C524.207 425.217 522.895 423.295 521.725 421.183C520.555 419.072 519.555 416.91 518.722 414.698C517.799 416.754 516.736 418.715 515.534 420.579C514.361 422.419 513.036 424.147 511.559 425.765C510.792 425.276 510.027 424.774 509.263 424.258C508.527 423.745 507.791 423.219 507.057 422.679C510.201 419.191 512.608 415.45 514.278 411.454C515.948 407.459 517.095 402.864 517.719 397.669L511.289 396.998L511.799 392.105ZM539.432 412.892L537.694 429.553L532.316 428.992L535.96 394.053L541.338 394.614L539.967 407.756L544.497 408.229L543.961 413.364L539.432 412.892ZM577.971 399.006L577.461 403.899L557.12 401.778L557.63 396.885L577.971 399.006ZM576.383 427.17L575.881 431.982L553.842 429.684L554.344 424.871L557.255 425.175L559.347 405.117L564.483 405.653L562.391 425.711L565.424 426.027L569.902 406.218L575.038 406.754L570.56 426.562L576.383 427.17ZM587.897 399.469L584.254 434.409L578.916 433.852L582.559 398.913L587.897 399.469ZM598.192 416.077L623.223 418.687L622.705 423.661L592.294 420.49L594.357 400.715L624.403 403.849L623.888 408.782L599.221 406.21L598.192 416.077ZM623.17 432.131L622.656 437.064L589.213 433.577L589.727 428.643L623.17 432.131ZM658.231 429.982L656.941 442.357L651.603 441.8L652.391 434.238L628.29 431.725L628.791 426.912L658.231 429.982ZM660.622 407.054L658.391 428.446L653.296 427.914L654.194 419.301L651.161 418.985L650.263 427.598L645.289 427.079L647.503 405.849L652.477 406.368L651.646 414.334L654.679 414.65L655.527 406.522L660.622 407.054ZM644.873 405.983L642.827 425.596L628.31 424.082L630.355 404.469L635.289 404.984L634.719 410.443L639.37 410.928L639.939 405.469L644.873 405.983ZM633.707 420.149L638.358 420.634L638.91 415.336L634.26 414.851L633.707 420.149ZM695.895 439.715L695.381 444.649L661.938 441.161L662.452 436.228L695.895 439.715ZM684.645 429.998L675.506 429.045C673.78 428.865 672.255 428.461 670.931 427.832C669.61 427.177 668.51 426.353 667.632 425.363C666.754 424.372 666.111 423.228 665.701 421.932C665.318 420.638 665.204 419.25 665.358 417.767C665.51 416.311 665.907 414.99 666.548 413.803C667.217 412.619 668.083 411.633 669.146 410.845C670.21 410.056 671.455 409.478 672.884 409.109C674.312 408.74 675.889 408.646 677.614 408.826L686.754 409.779C688.452 409.956 689.962 410.372 691.284 411.028C692.605 411.683 693.705 412.507 694.582 413.498C695.46 414.488 696.104 415.632 696.514 416.928C696.924 418.225 697.053 419.601 696.901 421.057C696.746 422.539 696.335 423.873 695.666 425.057C694.998 426.241 694.132 427.227 693.068 428.015C692.005 428.804 690.759 429.382 689.331 429.751C687.905 430.093 686.343 430.175 684.645 429.998ZM676.101 424.12L685.038 425.052C686.764 425.232 688.203 424.892 689.355 424.031C690.538 423.146 691.206 421.962 691.361 420.479C691.513 419.023 691.101 417.74 690.127 416.63C689.18 415.523 687.843 414.88 686.118 414.7L677.181 413.768C675.428 413.585 673.974 413.937 672.819 414.825C671.691 415.716 671.05 416.889 670.899 418.345C670.744 419.828 671.127 421.121 672.047 422.226C672.997 423.306 674.349 423.937 676.101 424.12ZM732.058 432.49L731.573 437.141L701.163 433.969L702.554 420.624L727.222 423.197L727.627 419.315L702.959 416.742L703.444 412.092L733.49 415.225L732.124 428.327L707.456 425.755L707.026 429.88L732.058 432.49ZM732.254 443.548L731.743 448.441L698.3 444.953L698.81 440.06L712.641 441.502L713.151 436.609L718.812 437.2L718.302 442.093L732.254 443.548Z" fill="white"/>
<rect x="569.801" y="312.926" width="296.397" height="48.9913" rx="24.4957" transform="rotate(5.95374 569.801 312.926)" fill="#FF9000"/>
<path d="M592.841 341.081L592.567 343.712C592.425 345.076 591.86 346.085 590.872 346.737C589.883 347.406 588.503 347.648 586.733 347.463C584.946 347.277 583.638 346.754 582.808 345.896C581.993 345.056 581.656 343.953 581.798 342.589L581.948 341.152L585.189 341.49L585.074 342.586C585.008 343.219 585.148 343.686 585.495 343.984C585.843 344.267 586.358 344.444 587.04 344.515C587.723 344.586 588.263 344.519 588.662 344.315C589.063 344.094 589.296 343.667 589.362 343.033L589.578 340.962C589.638 340.394 589.519 339.954 589.223 339.644C588.929 339.318 588.465 339.122 587.831 339.056L585.785 338.843L586.097 335.846L588.046 336.049C588.582 336.105 589.01 336.018 589.33 335.789C589.651 335.543 589.839 335.161 589.893 334.641L590.038 333.252C590.09 332.749 589.968 332.342 589.672 332.032C589.378 331.706 588.93 331.511 588.329 331.448C587.728 331.386 587.25 331.484 586.895 331.742C586.557 331.986 586.362 332.36 586.31 332.863L586.239 333.546L583.023 333.21L583.142 332.065C583.285 330.701 583.862 329.727 584.875 329.143C585.89 328.542 587.145 328.32 588.639 328.476C590.117 328.63 591.299 329.107 592.185 329.905C593.088 330.689 593.468 331.763 593.326 333.127L593.123 335.076C593.05 335.775 592.817 336.358 592.423 336.826C592.048 337.279 591.571 337.599 590.993 337.785C591.702 338.072 592.206 338.511 592.506 339.1C592.806 339.69 592.918 340.35 592.841 341.081ZM593.531 350.856C593.464 350.718 593.405 350.572 593.355 350.419C593.304 350.283 593.252 350.146 593.201 350.009C593.15 349.873 593.099 349.728 593.049 349.575C592.998 349.438 592.946 349.301 592.895 349.165C593.523 348.967 593.958 348.652 594.201 348.217C594.443 347.783 594.612 347.111 594.706 346.201L594.833 344.983L598.39 345.354L598.238 346.816C598.096 348.18 597.637 349.191 596.863 349.849C596.086 350.524 594.976 350.859 593.531 350.856ZM607.806 344.71L608.761 335.55C608.825 334.932 608.697 334.435 608.375 334.056C608.069 333.68 607.624 333.461 607.04 333.4C606.422 333.335 605.925 333.456 605.549 333.761C605.188 334.069 604.976 334.531 604.912 335.148L603.956 344.309C603.89 344.942 604.002 345.446 604.291 345.821C604.598 346.182 605.061 346.394 605.678 346.459C606.262 346.52 606.742 346.405 607.117 346.116C607.51 345.812 607.74 345.344 607.806 344.71ZM612 335.666L610.996 345.289C610.849 346.702 610.285 347.785 609.303 348.536C608.338 349.289 607.027 349.579 605.37 349.407C603.697 349.232 602.458 348.676 601.653 347.738C600.864 346.802 600.543 345.628 600.691 344.214L601.694 334.591C601.843 333.162 602.4 332.07 603.366 331.317C604.349 330.55 605.677 330.253 607.35 330.427C609.006 330.6 610.228 331.163 611.016 332.115C611.821 333.053 612.149 334.236 612 335.666ZM619.911 345.973L620.866 336.812C620.93 336.195 620.802 335.697 620.48 335.319C620.174 334.942 619.729 334.723 619.145 334.662C618.527 334.598 618.03 334.718 617.654 335.024C617.293 335.331 617.081 335.793 617.017 336.41L616.061 345.571C615.995 346.205 616.107 346.709 616.396 347.084C616.703 347.444 617.165 347.657 617.783 347.721C618.367 347.782 618.847 347.668 619.222 347.379C619.615 347.075 619.845 346.606 619.911 345.973ZM624.105 336.928L623.101 346.552C622.954 347.965 622.39 349.047 621.408 349.798C620.443 350.552 619.132 350.842 617.475 350.669C615.802 350.495 614.563 349.938 613.758 349.001C612.969 348.065 612.648 346.89 612.795 345.477L613.799 335.853C613.948 334.424 614.505 333.333 615.47 332.58C616.454 331.812 617.782 331.515 619.455 331.69C621.111 331.863 622.333 332.425 623.121 333.377C623.926 334.315 624.254 335.499 624.105 336.928ZM632.016 347.235L632.971 338.074C633.035 337.457 632.907 336.959 632.585 336.581C632.279 336.204 631.834 335.986 631.25 335.925C630.632 335.86 630.135 335.981 629.759 336.286C629.398 336.593 629.186 337.056 629.122 337.673L628.166 346.834C628.1 347.467 628.212 347.971 628.501 348.346C628.808 348.707 629.27 348.919 629.888 348.983C630.472 349.044 630.952 348.93 631.327 348.641C631.72 348.337 631.95 347.868 632.016 347.235ZM636.21 338.19L635.206 347.814C635.059 349.227 634.494 350.309 633.513 351.061C632.548 351.814 631.237 352.104 629.58 351.931C627.907 351.757 626.668 351.201 625.863 350.263C625.074 349.327 624.753 348.152 624.9 346.739L625.904 337.116C626.053 335.686 626.61 334.595 627.575 333.842C628.559 333.074 629.887 332.778 631.56 332.952C633.216 333.125 634.438 333.688 635.226 334.64C636.031 335.578 636.359 336.761 636.21 338.19ZM650.178 355.828L642.967 355.076C641.261 354.898 639.952 354.384 639.039 353.534C638.142 352.685 637.767 351.562 637.913 350.165C638.045 348.898 638.64 347.91 639.7 347.199C640.775 346.49 642.166 346.225 643.871 346.403L651.083 347.155C652.756 347.329 654.045 347.874 654.951 348.79C655.857 349.705 656.244 350.796 656.112 352.063C655.967 353.46 655.359 354.48 654.291 355.124C653.222 355.768 651.851 356.003 650.178 355.828ZM649.949 334.648L648.851 345.173L638.204 344.063L639.302 333.538L649.949 334.648ZM643.251 352.347L649.902 353.041C650.731 353.127 651.402 353.066 651.916 352.857C652.445 352.666 652.74 352.286 652.799 351.718C652.858 351.149 652.649 350.717 652.171 350.421C651.71 350.11 651.066 349.911 650.238 349.825L644.098 349.185C643.302 349.102 642.64 349.156 642.111 349.347C641.582 349.538 641.287 349.926 641.226 350.511C641.175 350.998 641.33 351.408 641.689 351.741C642.048 352.074 642.569 352.276 643.251 352.347ZM654.125 336.635L654.321 334.759L657.537 335.095L656.272 347.228L653.056 346.893L653.343 344.139L649.932 343.784L650.229 340.933L653.64 341.289L653.828 339.486L650.417 339.13L650.714 336.28L654.125 336.635ZM641.578 341.706L646.036 342.171L646.573 337.03L642.114 336.565L641.578 341.706ZM672.989 342.839C672.897 343.716 672.658 344.512 672.272 345.227C671.902 345.944 671.412 346.541 670.804 347.019C670.196 347.498 669.486 347.851 668.674 348.078C667.864 348.289 666.988 348.346 666.046 348.247C665.072 348.146 664.21 347.908 663.461 347.534C662.729 347.146 662.116 346.655 661.619 346.062C661.139 345.47 660.792 344.785 660.577 344.007C660.363 343.23 660.302 342.402 660.393 341.525C660.483 340.664 660.712 339.884 661.081 339.183C661.451 338.467 661.933 337.86 662.526 337.364C663.134 336.885 663.836 336.532 664.632 336.303C665.444 336.075 666.337 336.013 667.311 336.114C668.253 336.212 669.098 336.457 669.846 336.846C670.593 337.236 671.215 337.728 671.711 338.322C672.206 338.932 672.561 339.625 672.775 340.403C673.007 341.166 673.079 341.978 672.989 342.839ZM669.846 342.511C669.944 341.569 669.742 340.752 669.24 340.059C668.739 339.35 668.001 338.945 667.027 338.843C666.052 338.741 665.247 338.986 664.611 339.576C663.976 340.15 663.61 340.908 663.512 341.85C663.412 342.809 663.613 343.634 664.115 344.327C664.618 345.02 665.356 345.417 666.331 345.519C667.305 345.62 668.11 345.384 668.744 344.81C669.379 344.236 669.746 343.469 669.846 342.511ZM674.033 358.094L676.228 337.044L679.444 337.38L677.249 358.43L674.033 358.094ZM658.329 355.644L658.637 352.696L673.036 354.197L672.728 357.145L658.329 355.644ZM695.396 356.431L695.091 359.354L686.758 358.485L688.822 338.702L696.691 339.523L696.384 342.471L691.754 341.988L690.304 355.9L695.396 356.431ZM701.955 339.826L699.795 360.535L696.603 360.202L697.597 350.676L693.528 350.251L693.851 347.157L697.919 347.581L698.763 339.493L701.955 339.826ZM704.861 361.309L701.645 360.974L703.841 339.924L707.057 340.259L704.861 361.309ZM728.964 342.544L726.769 363.594L723.553 363.259L725.748 342.208L728.964 342.544ZM712.959 347.475L712.184 354.906C712.06 356.092 712.196 356.992 712.591 357.608C712.989 358.208 713.618 358.553 714.478 358.643C715.339 358.732 716.026 358.525 716.538 358.02C717.069 357.501 717.396 356.648 717.519 355.462L718.294 348.032C718.416 346.862 718.271 345.969 717.859 345.351C717.464 344.735 716.836 344.382 715.975 344.292C715.114 344.203 714.427 344.418 713.913 344.939C713.399 345.46 713.081 346.306 712.959 347.475ZM709.089 354.583L709.864 347.152C710.081 345.073 710.767 343.536 711.922 342.54C713.093 341.545 714.547 341.139 716.285 341.32C718.039 341.503 719.387 342.202 720.327 343.416C721.268 344.631 721.63 346.278 721.413 348.357L720.638 355.788C720.421 357.867 719.728 359.395 718.559 360.373C717.389 361.352 715.928 361.749 714.174 361.566C712.436 361.385 711.096 360.695 710.153 359.497C709.227 358.3 708.873 356.662 709.089 354.583ZM741.805 364.226L730.573 363.055L732.636 343.272L742.894 344.341L742.586 347.289L735.569 346.558L735.043 351.601L741.841 352.31L741.533 355.258L734.736 354.549L734.119 360.469L742.11 361.303L741.805 364.226ZM746.482 355.749L742.486 355.332L742.809 352.238L746.804 352.655L747.656 344.493L750.872 344.829L748.676 365.879L745.46 365.543L746.482 355.749ZM752.79 354.584L772.938 356.686L772.697 359L752.548 356.899L752.79 354.584ZM771.169 365.86L770.938 368.077L752.616 366.166L753.165 360.904L768.027 362.454L768.113 361.625L753.251 360.076L753.485 357.834L771.587 359.722L771.038 364.984L756.177 363.435L756.088 364.287L771.169 365.86ZM772.447 353.605L772.216 355.822L753.894 353.912L754.443 348.649L769.305 350.199L769.391 349.371L754.529 347.821L754.763 345.579L772.865 347.467L772.314 352.754L757.452 351.204L757.366 352.032L772.447 353.605ZM800.478 350.347L799.141 363.162L781.039 361.274L782.375 348.459L785.616 348.797L785.25 352.305L796.871 353.517L797.237 350.009L800.478 350.347ZM799.735 367.386L799.425 370.358L779.276 368.257L779.586 365.285L787.919 366.154L788.254 362.938L791.665 363.293L791.33 366.509L799.735 367.386ZM784.584 358.688L796.206 359.9L796.564 356.465L784.942 355.253L784.584 358.688ZM815.36 362.366L809.172 361.721C808.198 361.619 807.325 361.405 806.555 361.078C805.786 360.735 805.15 360.299 804.647 359.771C804.144 359.242 803.772 358.637 803.531 357.955C803.306 357.275 803.236 356.529 803.321 355.717C803.489 354.109 804.2 352.878 805.455 352.023C806.728 351.154 808.338 350.822 810.288 351.025L816.476 351.67C817.434 351.77 818.29 351.991 819.042 352.332C819.811 352.675 820.455 353.111 820.974 353.642C821.477 354.17 821.849 354.784 822.088 355.482C822.329 356.164 822.408 356.903 822.325 357.699C822.24 358.511 822.009 359.225 821.633 359.843C821.257 360.46 820.768 360.976 820.166 361.389C819.549 361.801 818.828 362.095 818.005 362.272C817.2 362.435 816.319 362.466 815.36 362.366ZM809.528 358.778L815.595 359.41C816.569 359.512 817.355 359.38 817.951 359.016C818.564 358.653 818.909 358.098 818.987 357.35C819.063 356.62 818.84 356.005 818.317 355.507C817.812 354.995 817.072 354.688 816.098 354.586L810.031 353.954C809.057 353.852 808.27 354 807.67 354.397C807.072 354.778 806.735 355.334 806.659 356.065C806.581 356.812 806.796 357.425 807.304 357.905C807.812 358.385 808.554 358.676 809.528 358.778ZM822.095 365.334L821.785 368.306L817.472 367.857L816.913 373.217L813.673 372.879L814.232 367.519L809.189 366.993L808.63 372.353L805.414 372.017L805.973 366.657L801.636 366.205L801.946 363.233L822.095 365.334ZM836.159 363.008C836.087 363.69 835.883 364.309 835.546 364.865C835.211 365.405 834.778 365.852 834.249 366.207C833.717 366.579 833.099 366.843 832.393 366.999C831.703 367.157 830.96 367.194 830.165 367.111C829.352 367.027 828.625 366.836 827.983 366.539C827.341 366.242 826.798 365.857 826.355 365.384C825.91 364.927 825.579 364.4 825.362 363.803C825.163 363.191 825.099 362.544 825.171 361.862C825.242 361.18 825.437 360.568 825.756 360.027C826.093 359.471 826.526 359.015 827.056 358.66C827.587 358.288 828.198 358.024 828.888 357.866C829.579 357.692 830.331 357.647 831.143 357.732C831.939 357.815 832.657 358.013 833.297 358.326C833.956 358.624 834.507 359.01 834.95 359.483C835.395 359.94 835.725 360.475 835.94 361.089C836.157 361.686 836.23 362.326 836.159 363.008ZM842.331 372.543L842.024 375.491L824.287 373.641L824.943 367.355L828.158 367.69L827.81 371.028L842.331 372.543ZM845.871 360.794L845.551 363.864L842.822 363.58L842.119 370.328L838.878 369.99L840.527 354.179L843.768 354.516L843.143 360.51L845.871 360.794ZM837.928 355.016L837.653 357.647L824.936 356.321L825.21 353.689L829.839 354.172L830.037 352.272L833.278 352.61L833.08 354.51L837.928 355.016ZM833.064 362.685C833.127 362.084 832.962 361.542 832.569 361.057C832.193 360.575 831.631 360.295 830.884 360.217C830.104 360.135 829.488 360.293 829.036 360.689C828.585 361.085 828.327 361.584 828.265 362.185C828.202 362.786 828.352 363.318 828.714 363.783C829.077 364.232 829.649 364.496 830.429 364.578C831.176 364.656 831.782 364.514 832.246 364.152C832.729 363.775 833.002 363.286 833.064 362.685Z" fill="white"/>
<g filter="url(#filter1_d_13596_8289)">
<path d="M248.528 559.939C247.971 554.698 251.768 549.999 257.008 549.441L781.195 493.714C783.889 493.428 786.578 494.3 788.591 496.114L860.253 560.674C863.874 563.936 864.455 569.402 861.601 573.352L805.114 651.536C803.527 653.732 801.082 655.15 798.388 655.437L274.201 711.164C268.961 711.721 264.261 707.924 263.704 702.684L248.528 559.939Z" fill="url(#paint2_linear_13596_8289)"/>
<path d="M320.291 641.172C319.84 641.029 319.389 640.886 318.937 640.744C318.513 640.598 318.087 640.439 317.66 640.266C317.236 640.12 316.811 639.975 316.387 639.829C315.963 639.683 315.537 639.524 315.11 639.351C317.204 634.44 318.455 629.278 318.86 623.865C319.266 618.452 319.175 612.983 318.588 607.457L323.965 606.886C324.172 608.826 324.325 610.786 324.427 612.765C324.528 614.744 324.562 616.731 324.529 618.724C325.135 620.322 325.864 621.921 326.715 623.521C327.564 625.093 328.514 626.601 329.567 628.042C330.596 629.514 331.71 630.895 332.911 632.185C334.138 633.471 335.418 634.617 336.751 635.62C336.432 635.953 336.113 636.287 335.795 636.621C335.503 636.952 335.209 637.269 334.915 637.573C334.596 637.907 334.275 638.227 333.954 638.534C333.662 638.865 333.37 639.196 333.078 639.527C331.262 638.084 329.556 636.398 327.961 634.469C326.39 632.51 324.998 630.45 323.787 628.289C323.453 630.532 322.994 632.748 322.409 634.936C321.848 637.095 321.142 639.174 320.291 641.172ZM340.418 622.8L330.552 623.849L330.007 618.714L339.872 617.665L338.522 604.97L343.859 604.403L347.573 639.335L342.236 639.902L340.418 622.8ZM382.43 616.003L382.907 620.491L352.504 623.723L351.227 611.715L375.89 609.093L375.576 606.142L350.913 608.764L350.436 604.276L380.476 601.082L381.735 612.929L357.073 615.551L357.404 618.664L382.43 616.003ZM384.534 623.098L385.054 627.99L377.898 628.751L378.71 636.393L373.333 636.964L372.52 629.323L364.151 630.213L364.964 637.854L359.627 638.421L358.814 630.78L351.618 631.545L351.098 626.653L384.534 623.098ZM427.56 616.93L429 630.474L400.294 633.526L398.854 619.981L404.191 619.414L404.462 621.961L422.494 620.044L422.223 617.497L427.56 616.93ZM408.059 618.103L406.563 618.262C405.35 618.391 404.215 618.362 403.16 618.174C402.131 617.984 401.208 617.632 400.39 617.119C399.575 616.634 398.909 616.009 398.392 615.247C397.899 614.454 397.596 613.532 397.484 612.481C397.378 611.484 397.484 610.559 397.803 609.708C398.145 608.826 398.664 608.062 399.358 607.416C400.05 606.743 400.879 606.205 401.844 605.802C402.834 605.37 403.936 605.09 405.149 604.961L406.644 604.802C407.83 604.675 408.953 604.72 410.011 604.934C411.067 605.122 411.99 605.473 412.781 605.989C413.596 606.475 414.264 607.113 414.784 607.902C415.301 608.665 415.613 609.545 415.719 610.542C415.83 611.594 415.715 612.56 415.373 613.441C415.027 614.296 414.507 615.046 413.813 615.692C413.148 616.363 412.319 616.901 411.327 617.306C410.334 617.711 409.245 617.977 408.059 618.103ZM430.627 602.702L431.168 607.796L426.64 608.277L427.405 615.474L422.028 616.046L419.93 596.316L425.308 595.744L426.098 603.183L430.627 602.702ZM415.965 598.25L416.425 602.576L395.321 604.82L394.861 600.494L402.542 599.677L402.242 596.847L407.619 596.275L407.92 599.105L415.965 598.25ZM405.139 628.717L423.212 626.796L422.932 624.168L404.86 626.089L405.139 628.717ZM406.124 614.138L407.62 613.979C408.537 613.882 409.282 613.585 409.856 613.087C410.427 612.563 410.67 611.897 410.584 611.088C410.506 610.361 410.131 609.774 409.456 609.327C408.782 608.881 407.986 608.707 407.07 608.804L405.574 608.963C404.604 609.066 403.849 609.406 403.311 609.981C402.772 610.556 402.542 611.207 402.619 611.935C402.705 612.744 403.069 613.346 403.711 613.741C404.349 614.109 405.154 614.241 406.124 614.138ZM462.39 591.802L464.578 612.381L459.241 612.948L458.841 609.188L451.443 609.975L450.957 605.406L458.356 604.619L457.982 601.102L450.987 601.846L450.502 597.277L457.496 596.533L457.053 592.369L462.39 591.802ZM432.249 595.578L449.149 593.782L449.458 596.693C449.69 598.876 449.504 600.967 448.899 602.967C448.291 604.94 447.338 606.745 446.04 608.382C444.772 610.043 443.195 611.492 441.309 612.728C439.423 613.965 437.317 614.925 434.991 615.608C434.513 614.95 434.035 614.306 433.559 613.675C433.107 613.014 432.656 612.354 432.204 611.693C433.954 611.234 435.549 610.601 436.99 609.794C438.428 608.96 439.661 607.997 440.69 606.906C441.746 605.813 442.558 604.609 443.127 603.294C443.72 601.95 444.047 600.539 444.108 599.061L432.747 600.268L432.249 595.578ZM464.746 613.958L466.142 627.097L460.806 627.665L459.92 619.336L435.824 621.898L435.312 617.087L464.746 613.958ZM502.612 618.927L503.003 622.606L472.599 625.839L471.671 617.106L496.334 614.484L496.187 613.109L471.525 615.731L471.134 612.052L476.632 611.467L476.465 609.89L469.268 610.656L468.864 606.855L502.3 603.3L502.704 607.101L495.507 607.866L495.675 609.443L501.174 608.858L502.098 617.551L477.435 620.173L477.585 621.588L502.612 618.927ZM481.929 610.904L490.338 610.01L490.171 608.433L481.761 609.327L481.929 610.904ZM500.437 598.469L500.833 602.189L470.429 605.421L469.505 596.729L494.167 594.107L494.025 592.772L469.363 595.394L468.967 591.675L499.007 588.481L499.931 597.174L475.269 599.796L475.411 601.13L500.437 598.469ZM516.682 618.454L515.912 611.217C515.738 609.572 515.838 608.212 516.215 607.137C516.618 606.058 517.38 605.023 518.501 604.031L524.44 598.739C525.035 598.185 525.46 597.567 525.715 596.886C525.996 596.202 526.094 595.455 526.008 594.647C525.882 593.461 525.517 592.587 524.912 592.024C524.334 591.458 523.506 591.233 522.427 591.348C521.322 591.465 520.548 591.875 520.105 592.576C519.661 593.277 519.506 594.248 519.637 595.488L514.301 596.055C513.977 593.009 514.51 590.717 515.9 589.179C517.315 587.612 519.315 586.69 521.903 586.415C524.464 586.143 526.599 586.611 528.308 587.819C530.045 589.025 531.07 591.11 531.386 594.075C531.583 595.935 531.415 597.561 530.882 598.953C530.373 600.316 529.518 601.511 528.319 602.538L522.625 607.436C522.075 607.904 521.679 608.409 521.437 608.953C521.222 609.494 521.154 610.141 521.235 610.896L521.458 612.998L533.264 611.743L533.784 616.635L516.682 618.454ZM547.863 607.288L546.247 592.086C546.138 591.062 545.757 590.299 545.104 589.796C544.477 589.29 543.679 589.088 542.709 589.191C541.685 589.3 540.92 589.668 540.414 590.294C539.935 590.917 539.75 591.741 539.859 592.766L541.475 607.967C541.587 609.019 541.942 609.799 542.541 610.307C543.165 610.786 543.988 610.971 545.013 610.862C545.983 610.759 546.723 610.408 547.231 609.809C547.764 609.18 547.975 608.339 547.863 607.288ZM551.545 591.155L553.243 607.125C553.492 609.47 552.95 611.422 551.616 612.981C550.31 614.538 548.282 615.462 545.533 615.754C542.757 616.05 540.553 615.575 538.921 614.331C537.317 613.084 536.39 611.288 536.141 608.943L534.443 592.973C534.191 590.601 534.718 588.637 536.024 587.081C537.355 585.495 539.408 584.554 542.184 584.259C544.934 583.967 547.112 584.457 548.719 585.731C550.351 586.975 551.293 588.783 551.545 591.155ZM567.951 605.153L566.335 589.951C566.226 588.927 565.845 588.163 565.191 587.66C564.565 587.154 563.767 586.953 562.797 587.056C561.772 587.165 561.007 587.532 560.502 588.159C560.023 588.782 559.838 589.606 559.947 590.63L561.563 605.832C561.674 606.883 562.03 607.663 562.629 608.172C563.252 608.651 564.076 608.836 565.101 608.727C566.071 608.624 566.81 608.272 567.319 607.673C567.852 607.044 568.062 606.204 567.951 605.153ZM571.633 589.02L573.33 604.99C573.58 607.335 573.038 609.287 571.704 610.846C570.398 612.402 568.37 613.327 565.621 613.619C562.844 613.914 560.641 613.44 559.009 612.196C557.405 610.949 556.478 609.153 556.228 606.808L554.531 590.838C554.278 588.466 554.806 586.502 556.112 584.945C557.443 583.359 559.496 582.419 562.272 582.123C565.022 581.831 567.2 582.322 568.807 583.596C570.439 584.84 571.381 586.648 571.633 589.02ZM592.228 579.348L597.403 578.798L584.376 611.257L579.201 611.807L592.228 579.348ZM581.916 589.276L581.573 586.041C581.512 585.475 581.347 585.07 581.075 584.826C580.801 584.556 580.422 584.446 579.937 584.498C579.397 584.555 579.022 584.745 578.811 585.067C578.624 585.36 578.561 585.789 578.621 586.355L578.965 589.589C579.025 590.155 579.179 590.575 579.426 590.849C579.697 591.093 580.102 591.186 580.641 591.128C581.127 591.077 581.476 590.903 581.69 590.608C581.901 590.286 581.977 589.842 581.916 589.276ZM586.281 585.336L586.664 588.934C586.867 590.848 586.44 592.338 585.381 593.405C584.349 594.469 582.917 595.098 581.084 595.293C579.224 595.49 577.678 595.178 576.446 594.355C575.214 593.532 574.496 592.163 574.292 590.25L573.91 586.651C573.709 584.765 574.125 583.289 575.156 582.226C576.185 581.135 577.63 580.491 579.49 580.293C581.322 580.098 582.856 580.426 584.092 581.276C585.351 582.096 586.081 583.449 586.281 585.336ZM598.108 604.277L597.764 601.043C597.704 600.477 597.537 600.058 597.263 599.788C597.016 599.514 596.636 599.405 596.124 599.459C595.585 599.516 595.223 599.705 595.039 600.024C594.855 600.344 594.793 600.786 594.853 601.352L595.197 604.587C595.257 605.153 595.411 605.573 595.658 605.846C595.902 606.093 596.294 606.187 596.833 606.13C597.345 606.076 597.695 605.902 597.882 605.61C598.093 605.287 598.168 604.843 598.108 604.277ZM602.514 600.333L602.896 603.932C603.097 605.819 602.668 607.295 601.609 608.362C600.55 609.428 599.104 610.059 597.272 610.254C595.412 610.452 593.866 610.139 592.633 609.316C591.401 608.493 590.685 607.138 590.484 605.251L590.101 601.653C589.901 599.766 590.316 598.291 591.348 597.227C592.377 596.137 593.821 595.492 595.681 595.295C597.514 595.1 599.062 595.426 600.324 596.273C601.583 597.093 602.313 598.447 602.514 600.333ZM646.333 597.597L640.956 598.168L638.875 578.6L614.213 581.222L613.688 576.289L643.728 573.096L646.333 597.597ZM648.413 601.014L648.938 605.947L615.502 609.502L614.977 604.569L625.813 603.417L624.257 588.781L629.634 588.21L631.19 602.846L648.413 601.014ZM675.244 604.868L664.005 606.063C660.77 606.406 658.127 606.156 656.074 605.311C654.052 604.49 652.903 602.786 652.628 600.198C652.404 598.096 653.019 596.313 654.472 594.851C655.951 593.385 658.066 592.506 660.815 592.214L672.014 591.023C675.249 590.679 677.883 590.972 679.917 591.9C681.975 592.799 683.135 594.475 683.395 596.927C683.63 599.138 683.017 600.934 681.556 602.316C680.097 603.725 677.994 604.575 675.244 604.868ZM661.865 601.711L673.712 600.451C675.005 600.314 676.051 600.025 676.85 599.586C677.678 599.171 678.04 598.478 677.937 597.508C677.834 596.537 677.333 595.923 676.433 595.664C675.56 595.403 674.477 595.341 673.183 595.478L662.307 596.634C661.067 596.766 660.021 597.055 659.169 597.5C658.317 597.945 657.942 598.652 658.045 599.622C658.128 600.404 658.489 600.979 659.128 601.347C659.794 601.713 660.706 601.834 661.865 601.711ZM665.989 584.345L683.212 582.514L683.702 587.123L650.266 590.677L649.776 586.068L660.612 584.916L660.018 579.337L665.396 578.765L665.989 584.345ZM681.312 580.794L675.935 581.366L675.217 574.614L650.554 577.236L650.043 572.424L680.083 569.231L681.312 580.794ZM730.173 570.284L730.715 575.378L726.187 575.86L727.021 583.703L721.643 584.275L719.537 564.464L724.915 563.892L725.645 570.765L730.173 570.284ZM701.505 566.381L706.882 565.809C706.997 566.887 707.043 567.959 707.02 569.025C707.024 570.087 706.97 571.115 706.857 572.109C708.17 573.686 709.782 575.137 711.695 576.46C713.607 577.783 715.545 578.831 717.508 579.604L714.735 583.905C713.107 583.206 711.486 582.315 709.872 581.233C708.257 580.151 706.796 578.971 705.488 577.692C704.851 579.395 704.039 580.981 703.05 582.449C702.058 583.89 700.903 585.199 699.583 586.375L695.211 583.323C697.663 581.264 699.418 578.801 700.477 575.935C701.532 573.043 701.875 569.858 701.505 566.381ZM720.298 600.078L708.694 601.311C705.864 601.612 703.561 601.23 701.785 600.165C700.039 599.124 699.041 597.431 698.792 595.086C698.568 592.984 699.193 591.173 700.667 589.653C702.168 588.131 704.334 587.219 707.164 586.918L718.768 585.685C721.544 585.389 723.826 585.828 725.613 587.001C727.401 588.174 728.406 589.812 728.63 591.914C728.879 594.259 728.246 596.125 726.731 597.513C725.218 598.928 723.074 599.783 720.298 600.078ZM708.213 596.783L719.816 595.55C720.868 595.438 721.704 595.104 722.327 594.547C722.949 593.99 723.217 593.307 723.131 592.499C723.048 591.717 722.644 591.119 721.918 590.706C721.19 590.265 720.3 590.101 719.249 590.213L707.645 591.446C706.513 591.567 705.651 591.917 705.059 592.498C704.49 593.049 704.248 593.716 704.331 594.497C704.417 595.306 704.795 595.92 705.467 596.339C706.165 596.756 707.081 596.904 708.213 596.783ZM733.848 576.313L731.213 572.3C732.894 571.957 734.478 571.476 735.966 570.854C737.451 570.205 738.8 569.435 740.014 568.543C741.227 567.651 742.263 566.627 743.122 565.473C743.977 564.292 744.602 562.985 744.995 561.553L750.552 561.903C750.433 562.324 750.299 562.734 750.151 563.131C750.026 563.499 749.9 563.853 749.773 564.193C751.788 565.451 754.127 566.429 756.791 567.127C759.481 567.823 762.217 568.172 764.998 568.176L763.477 572.713C760.588 572.72 757.698 572.333 754.807 571.55C751.941 570.737 749.427 569.655 747.266 568.303C745.655 570.328 743.67 572.038 741.31 573.434C738.975 574.8 736.488 575.76 733.848 576.313ZM732.017 577.938L765.453 574.384L765.952 579.074L732.516 582.628L732.017 577.938ZM765.606 588.515C765.838 590.698 765.206 592.442 763.709 593.746C762.212 595.049 760.049 595.852 757.219 596.153L744.685 597.485C741.828 597.789 739.531 597.461 737.793 596.501C736.056 595.541 735.071 593.969 734.839 591.786C734.618 589.71 735.253 587.994 736.744 586.636C738.235 585.278 740.41 584.447 743.267 584.143L755.8 582.811C758.63 582.51 760.917 582.866 762.66 583.88C764.404 584.894 765.386 586.439 765.606 588.515ZM760.108 589.099C760.036 588.425 759.681 587.904 759.042 587.536C758.43 587.165 757.477 587.048 756.184 587.186L743.771 588.505C742.558 588.634 741.665 588.947 741.091 589.445C740.517 589.942 740.265 590.527 740.337 591.201C740.414 591.929 740.758 592.465 741.367 592.809C742.006 593.177 742.972 593.292 744.266 593.155L756.678 591.835C757.972 591.698 758.879 591.383 759.399 590.892C759.949 590.425 760.185 589.827 760.108 589.099ZM767.726 558.768L773.063 558.201L775.668 582.702L770.331 583.269L767.726 558.768ZM777.177 593.05L771.031 593.703L770.391 587.679L776.536 587.026L777.177 593.05Z" fill="white"/>
</g>
</g>
<defs>
<filter id="filter0_d_13596_8289" x="76.6725" y="243.14" width="865.452" height="336.658" filterUnits="userSpaceOnUse" color-interpolation-filters="sRGB">
<feFlood flood-opacity="0" result="BackgroundImageFix"/>
<feColorMatrix in="SourceAlpha" type="matrix" values="0 0 0 0 0 0 0 0 0 0 0 0 0 0 0 0 0 0 127 0" result="hardAlpha"/>
<feOffset/>
<feGaussianBlur stdDeviation="30.4938"/>
<feComposite in2="hardAlpha" operator="out"/>
<feColorMatrix type="matrix" values="0 0 0 0 0 0 0 0 0 0 0 0 0 0 0 0 0 0 0.8 0"/>
<feBlend mode="normal" in2="BackgroundImageFix" result="effect1_dropShadow_13596_8289"/>
<feBlend mode="normal" in="SourceGraphic" in2="effect1_dropShadow_13596_8289" result="shape"/>
</filter>
<filter id="filter1_d_13596_8289" x="207.814" y="453.003" width="696.254" height="298.873" filterUnits="userSpaceOnUse" color-interpolation-filters="sRGB">
<feFlood flood-opacity="0" result="BackgroundImageFix"/>
<feColorMatrix in="SourceAlpha" type="matrix" values="0 0 0 0 0 0 0 0 0 0 0 0 0 0 0 0 0 0 127 0" result="hardAlpha"/>
<feOffset/>
<feGaussianBlur stdDeviation="20.3292"/>
<feComposite in2="hardAlpha" operator="out"/>
<feColorMatrix type="matrix" values="0 0 0 0 0 0 0 0 0 0 0 0 0 0 0 0 0 0 0.25 0"/>
<feBlend mode="normal" in2="BackgroundImageFix" result="effect1_dropShadow_13596_8289"/>
<feBlend mode="normal" in="SourceGraphic" in2="effect1_dropShadow_13596_8289" result="shape"/>
</filter>
<linearGradient id="paint0_linear_13596_8289" x1="529.419" y1="387.099" x2="529.419" y2="881.098" gradientUnits="userSpaceOnUse">
<stop stop-color="#E8F9FD"/>
<stop offset="1" stop-color="#193029"/>
</linearGradient>
<linearGradient id="paint1_linear_13596_8289" x1="137.9" y1="369.972" x2="874.085" y2="446.747" gradientUnits="userSpaceOnUse">
<stop stop-color="#7D8EFF"/>
<stop offset="1" stop-color="#4D56FF"/>
</linearGradient>
<linearGradient id="paint2_linear_13596_8289" x1="256.116" y1="631.311" x2="866.618" y2="566.408" gradientUnits="userSpaceOnUse">
<stop stop-color="#4FA1FF"/>
<stop offset="1" stop-color="#60B5FF"/>
</linearGradient>
<clipPath id="clip0_13596_8289">
<rect width="1034" height="775.5" fill="white"/>
</clipPath>
</defs>
</svg>
